<?xml version="1.0" encoding="UTF-8"?>
<svg xmlns="http://www.w3.org/2000/svg" xmlns:xlink="http://www.w3.org/1999/xlink" version="1.1" id="Capa_1" x="0px" y="0px" viewBox="0 0 512 512" style="enable-background:new 0 0 512 512;" xml:space="preserve" width="512" height="512">
<g>
	<g>
		<path style="fill:#FFCE55;" d="M436.325,172.09l-8.57,14.47l-157.68-19.21l-57.06-18.5l-5.87-0.36v-14.48h0.47l68.72-18.55&#10;&#9;&#9;&#9;l151.42-19.27l8.57,14.47C447.555,129.6,447.555,153.15,436.325,172.09z"/>
		<path style="fill:#FFE65A;" d="M447.815,237.96c0,8.21-1.83,16.44-5.52,24.04c-7.08,14.61-26.51,17.78-37.88,6.18l-2.26-2.31&#10;&#9;&#9;&#9;c-34.14-34.83-74.57-62.07-118.66-80.59c-17.588-7.389-35.761-13.389-54.349-17.934c-6.47-6.754-14.61-10.325-22.001-11.652&#10;&#9;&#9;&#9;v-7.203l5.87,0.36c19.16,1.13,38.22,3.52,57.06,7.17l157.68,30.54l13.58,25.47C445.655,220.12,447.815,229.03,447.815,237.96z"/>
		<path style="fill:#FFE65A;" d="M441.335,70.72l-13.58,25.47l-151.42,29.88c-22.66,4.48-45.64,7.13-68.72,7.94h-0.47v-8.14&#10;&#9;&#9;&#9;c7.391-1.329,22.001-10.408,22.001-10.408c65.079-15.924,125.061-49.72,172.769-98.372l2.5-2.55&#10;&#9;&#9;&#9;c11.37-11.59,30.79-8.41,37.88,6.19l0.01,0.02C449.985,36.6,449.625,55.17,441.335,70.72z"/>
		<polygon style="fill:#FFB852;" points="229.145,132.72 229.145,150.11 218.145,154.376 207.145,148.49 200.466,140.258 &#10;&#9;&#9;&#9;207.145,134.01 207.615,134.01 216.842,128.023 &#9;&#9;"/>
		<path style="fill:#FFCE55;" d="M229.146,115.462l-0.001,17.258c-7.16,0.6-14.34,1.03-21.53,1.29h-0.47l-10.256-3.917l10.256-9.963&#10;&#9;&#9;&#9;C214.535,118.8,221.876,117.242,229.146,115.462z"/>
		<path style="fill:#FFCE55;" d="M229.145,150.11l0.001,17.236c-7.27-1.79-14.611-3.336-22.001-4.666l-7.621-8.29l7.621-5.9&#10;&#9;&#9;&#9;l5.87,0.36C218.405,149.17,223.775,149.59,229.145,150.11z"/>
		<g>
			<path style="fill:#FFCE55;" d="M253.201,313.776c-4.142,0-7.5-3.358-7.5-7.5v-34.341c0-4.142,3.358-7.5,7.5-7.5&#10;&#9;&#9;&#9;&#9;s7.5,3.358,7.5,7.5v34.341C260.701,310.418,257.343,313.776,253.201,313.776z"/>
		</g>
		<path style="fill:#877A86;" d="M403.655,301.33h-189.21l-20.083,2.367c-4.597,0-8.609,3.117-9.746,7.572l-7.353,18.223&#10;&#9;&#9;&#9;l119.592,6.53l121.798-6.53l-5.253-20.59C412.264,304.447,408.252,301.33,403.655,301.33z"/>
		<path style="fill:#7A6D79;" d="M214.445,301.33l-7.18,28.16l-14.517,6.532l-15.483-6.532l5.25-20.59&#10;&#9;&#9;&#9;c1.14-4.45,5.15-7.57,9.75-7.57H214.445z"/>
		<rect x="182.795" y="351.419" style="fill:#D78953;" width="228.12" height="102.992"/>
		<path style="fill:#877A86;" d="M207.145,120.13v42.55c-21.06-3.8-42.56-5.74-64.26-5.74l-15.643-15.565l15.643-15.505&#10;&#9;&#9;&#9;C164.585,125.87,186.085,123.93,207.145,120.13z"/>
		<path style="fill:#FFE65A;" d="M172.685,387.79V418h-28.27c-47.28,0-85.61-38.32-85.61-85.6v-40.75l8.39-35.58l-8.39-35.58v-10.55&#10;&#9;&#9;&#9;c0-23.22,9.41-44.23,24.63-59.45c15.21-15.21,36.23-24.62,59.45-24.62v31.07c-29.75,0-53.86,24.11-53.86,53.86v9.69l-7.524,36.85&#10;&#9;&#9;&#9;l7.524,34.31v40.75c0,30.59,24.8,55.39,55.39,55.39H172.685z"/>
		<g>
			<path style="fill:#EA9C57;" d="M207.94,476.338l-25.145-6.386l-17.671,6.386l4.235,25.237l18.345,2.925h8.063&#10;&#9;&#9;&#9;&#9;c1.268,0,2.399-0.797,2.825-1.991L207.94,476.338z"/>
			<path style="fill:#D78953;" d="M187.705,504.5H169.82c-1.268,0-2.399-0.797-2.825-1.992l-9.339-26.168l11.422-6.389l8.578,6.389&#10;&#9;&#9;&#9;&#9;L187.705,504.5z"/>
		</g>
		<g>
			<path style="fill:#EA9C57;" d="M438.264,476.338l-25.145-6.386l-17.671,6.386l4.235,25.237l18.345,2.925h8.063&#10;&#9;&#9;&#9;&#9;c1.268,0,2.399-0.797,2.825-1.991L438.264,476.338z"/>
			<path style="fill:#D78953;" d="M418.029,504.5h-17.885c-1.268,0-2.399-0.797-2.825-1.992l-9.339-26.168l11.422-6.389l8.578,6.389&#10;&#9;&#9;&#9;&#9;L418.029,504.5z"/>
		</g>
		<rect x="401.555" y="349.581" style="fill:#EA9C57;" width="30.174" height="106.669"/>
		<path style="fill:#EA9C57;" d="M333.664,387.828h-70.405c-5.555,0-10.058,4.503-10.058,10.058v10.058&#10;&#9;&#9;&#9;c0,5.555,4.503,10.058,10.058,10.058h70.405c5.555,0,10.058-4.503,10.058-10.058v-10.058&#10;&#9;&#9;&#9;C343.722,392.331,339.219,387.828,333.664,387.828z"/>
		<rect x="169.545" y="349.581" style="fill:#EA9C57;" width="24.817" height="106.669"/>
		<rect x="164.185" y="349.575" style="fill:#D78953;" width="17" height="106.679"/>
		<path style="fill:#F6A96C;" d="M147.632,354.933l33.553,2.722h268.6c4.251,0,8.042-2.672,9.472-6.675l5.274-14.767&#10;&#9;&#9;&#9;c1.17-3.275-1.258-6.72-4.736-6.72H177.263l-36.768,2.021c-3.478,0-5.906,3.445-4.736,6.72l2.4,10.024&#10;&#9;&#9;&#9;C139.589,352.261,143.381,354.933,147.632,354.933z"/>
		<path style="fill:#F6A96C;" d="M449.785,448.176h-268.6l-29.977,2.898c-4.251,0-8.042,2.672-9.472,6.675l-6.807,10.283&#10;&#9;&#9;&#9;c-1.17,3.275,1.258,6.72,4.736,6.72l37.989,1.586h282.14c3.478,0,5.906-3.445,4.736-6.72l-5.274-14.767&#10;&#9;&#9;&#9;C457.828,450.848,454.036,448.176,449.785,448.176z"/>
		<path style="fill:#EA9C57;" d="M181.185,357.65h-35.05c-4.25,0-8.05-2.67-9.48-6.67l-5.27-14.77c-1.17-3.27,1.26-6.72,4.74-6.72&#10;&#9;&#9;&#9;h41.138L181.185,357.65z"/>
		<path style="fill:#EA9C57;" d="M181.185,448.176l-3.53,28.164h-41.53c-3.48,0-5.91-3.45-4.74-6.72l5.27-14.77&#10;&#9;&#9;&#9;c1.43-4,5.23-6.67,9.48-6.67L181.185,448.176z"/>
		<rect x="58.805" y="220.49" style="fill:#FFCE55;" width="30.22" height="71.16"/>
		<path style="fill:#877A86;" d="M247.713,269.648H55.06c-5.555,0-10.058-4.503-10.058-10.058v-7.041&#10;&#9;&#9;&#9;c0-5.555,4.503-10.058,10.058-10.058h192.653V269.648z"/>
		<circle style="fill:#FFE65A;" cx="253.201" cy="256.07" r="20.116"/>
	</g>
	<g>
		<path style="fill:none;stroke:#000000;stroke-width:15;stroke-linecap:round;stroke-linejoin:round;stroke-miterlimit:10;" d="&#10;&#9;&#9;&#9;M60.451,200.207c-0.368,3.194-0.557,6.442-0.557,9.734v32.25"/>
		<path style="fill:none;stroke:#000000;stroke-width:15;stroke-linecap:round;stroke-linejoin:round;stroke-miterlimit:10;" d="&#10;&#9;&#9;&#9;M346.959,63.769c-59.507,40.168-130.104,62.099-202.992,62.099h0c-30.807,0-57.745,16.57-72.385,41.285"/>
		<path style="fill:none;stroke:#000000;stroke-width:15;stroke-linecap:round;stroke-linejoin:round;stroke-miterlimit:10;" d="&#10;&#9;&#9;&#9;M90.108,242.191v-31.391c0-29.746,24.114-53.859,53.859-53.859h0c97.549,0,190.994,39.26,259.273,108.93l2.265,2.311&#10;&#9;&#9;&#9;c11.366,11.598,30.792,8.424,37.877-6.187l0,0c7.686-15.852,7.329-34.424-0.962-49.968l-13.582-25.465l8.575-14.47&#10;&#9;&#9;&#9;c11.223-18.939,11.223-42.492-0.001-61.432l-8.574-14.468l13.586-25.476c8.289-15.543,8.646-34.112,0.962-49.962l-0.01-0.02&#10;&#9;&#9;&#9;c-7.083-14.609-26.504-17.786-37.872-6.194L403,17.093c-8.935,9.11-18.3,17.7-28.048,25.748"/>
		<path style="fill:none;stroke:#000000;stroke-width:15;stroke-linecap:round;stroke-linejoin:round;stroke-miterlimit:10;" d="&#10;&#9;&#9;&#9;M165.139,387.788H145.5c-30.592,0-55.392-24.8-55.392-55.392v-62.247"/>
		<path style="fill:none;stroke:#000000;stroke-width:15;stroke-linecap:round;stroke-linejoin:round;stroke-miterlimit:10;" d="&#10;&#9;&#9;&#9;M59.894,270.149v62.247c0,47.279,38.327,85.606,85.606,85.606h19.639"/>
		<g>
			
				<polyline style="fill:none;stroke:#000000;stroke-width:15;stroke-linecap:round;stroke-linejoin:round;stroke-miterlimit:10;" points="&#10;&#9;&#9;&#9;&#9;158.735,476.338 168.793,504.5 198.967,504.5 209.025,476.338 &#9;&#9;&#9;"/>
			
				<polyline style="fill:none;stroke:#000000;stroke-width:15;stroke-linecap:round;stroke-linejoin:round;stroke-miterlimit:10;" points="&#10;&#9;&#9;&#9;&#9;389.061,476.338 399.119,504.5 429.293,504.5 439.351,476.338 &#9;&#9;&#9;"/>
		</g>
		<g>
			
				<line style="fill:none;stroke:#000000;stroke-width:15;stroke-linecap:round;stroke-linejoin:round;stroke-miterlimit:10;" x1="402.64" y1="357.655" x2="402.64" y2="448.176"/>
			
				<line style="fill:none;stroke:#000000;stroke-width:15;stroke-linecap:round;stroke-linejoin:round;stroke-miterlimit:10;" x1="432.813" y1="386.979" x2="432.813" y2="357.655"/>
			
				<line style="fill:none;stroke:#000000;stroke-width:15;stroke-linecap:round;stroke-linejoin:round;stroke-miterlimit:10;" x1="432.813" y1="448.176" x2="432.813" y2="421.979"/>
			<path style="fill:none;stroke:#000000;stroke-width:15;stroke-linecap:round;stroke-linejoin:round;stroke-miterlimit:10;" d="&#10;&#9;&#9;&#9;&#9;M334.749,387.828h-70.405c-5.555,0-10.058,4.503-10.058,10.058v10.058c0,5.555,4.503,10.058,10.058,10.058h70.405&#10;&#9;&#9;&#9;&#9;c5.555,0,10.058-4.503,10.058-10.058v-10.058C344.807,392.331,340.304,387.828,334.749,387.828z"/>
			
				<line style="fill:none;stroke:#000000;stroke-width:15;stroke-linecap:round;stroke-linejoin:round;stroke-miterlimit:10;" x1="165.273" y1="357.655" x2="165.273" y2="448.176"/>
			
				<line style="fill:none;stroke:#000000;stroke-width:15;stroke-linecap:round;stroke-linejoin:round;stroke-miterlimit:10;" x1="195.447" y1="448.176" x2="195.447" y2="357.655"/>
		</g>
		<path style="fill:none;stroke:#000000;stroke-width:15;stroke-linecap:round;stroke-linejoin:round;stroke-miterlimit:10;" d="&#10;&#9;&#9;&#9;M226.681,329.492h-89.474c-3.478,0-5.906,3.445-4.736,6.72l5.274,14.767c1.43,4.003,5.221,6.675,9.472,6.675H450.87&#10;&#9;&#9;&#9;c4.251,0,8.042-2.672,9.472-6.675l5.274-14.767c1.17-3.275-1.258-6.72-4.736-6.72H261.681"/>
		<path style="fill:none;stroke:#000000;stroke-width:15;stroke-linecap:round;stroke-linejoin:round;stroke-miterlimit:10;" d="&#10;&#9;&#9;&#9;M450.87,448.176H147.216c-4.251,0-8.042,2.672-9.472,6.675l-5.274,14.767c-1.17,3.275,1.258,6.72,4.736,6.72H460.88&#10;&#9;&#9;&#9;c3.478,0,5.906-3.445,4.736-6.72l-5.274-14.767C458.912,450.848,455.121,448.176,450.87,448.176z"/>
		<path style="fill:none;stroke:#000000;stroke-width:15;stroke-linecap:round;stroke-linejoin:round;stroke-miterlimit:10;" d="&#10;&#9;&#9;&#9;M419.738,329.492l-5.253-20.59c-1.136-4.455-5.148-7.572-9.746-7.572H193.347c-4.597,0-8.609,3.117-9.746,7.572l-5.253,20.59"/>
		<g>
			<path style="fill:none;stroke:#000000;stroke-width:15;stroke-linecap:round;stroke-linejoin:round;stroke-miterlimit:10;" d="&#10;&#9;&#9;&#9;&#9;M238.193,269.648H56.145c-5.555,0-10.058-4.503-10.058-10.058v-7.041c0-5.555,4.503-10.058,10.058-10.058h182.048"/>
		</g>
		
			<circle style="fill:none;stroke:#000000;stroke-width:15;stroke-linecap:round;stroke-linejoin:round;stroke-miterlimit:10;" cx="254.286" cy="256.07" r="20.116"/>
		
			<line style="fill:none;stroke:#000000;stroke-width:15;stroke-linecap:round;stroke-linejoin:round;stroke-miterlimit:10;" x1="254.286" y1="276.775" x2="254.286" y2="301.225"/>
		
			<line style="fill:none;stroke:#000000;stroke-width:15;stroke-linecap:round;stroke-linejoin:round;stroke-miterlimit:10;" x1="143.967" y1="126.102" x2="143.967" y2="156.662"/>
		<path style="fill:none;stroke:#000000;stroke-width:15;stroke-linecap:round;stroke-linejoin:round;stroke-miterlimit:10;" d="&#10;&#9;&#9;&#9;M208.702,134.014L208.702,134.014c23.08-0.814,46.059-3.469,68.717-7.94l151.419-29.882"/>
		<path style="fill:none;stroke:#000000;stroke-width:15;stroke-linecap:round;stroke-linejoin:round;stroke-miterlimit:10;" d="&#10;&#9;&#9;&#9;M208.383,148.517l5.717,0.336c19.159,1.125,38.222,3.521,57.064,7.17l157.674,30.539"/>
		
			<line style="fill:none;stroke:#000000;stroke-width:15;stroke-linecap:round;stroke-linejoin:round;stroke-miterlimit:10;" x1="208.226" y1="120.408" x2="208.243" y2="162.285"/>
	</g>
</g>















</svg>
