{
  "metadata": {
    "title": "Rivers Flow In You",
    "artist": "Yiruma",
    "originalFile": "Yiruma - Rivers Flow In You.mid",
    "duration": 164.77,
    "tempo": 65,
    "timeSignature": [
      4,
      4
    ]
  },
  "tracks": [
    {
      "name": "Piano",
      "instrument": "acoustic grand piano",
      "noteCount": 800,
      "notes": [
        {
          "midi": 81,
          "name": "A5",
          "time": 0,
          "duration": 0.462,
          "velocity": 0.55,
          "frequency": 880
        },
        {
          "midi": 54,
          "name": "F#3",
          "time": 0,
          "duration": 0.462,
          "velocity": 0.57,
          "frequency": 185
        },
        {
          "midi": 80,
          "name": "G#5",
          "time": 0.462,
          "duration": 0.462,
          "velocity": 0.56,
          "frequency": 830.61
        },
        {
          "midi": 61,
          "name": "C#4",
          "time": 0.462,
          "duration": 0.462,
          "velocity": 0.69,
          "frequency": 277.18
        },
        {
          "midi": 81,
          "name": "A5",
          "time": 0.923,
          "duration": 0.462,
          "velocity": 0.62,
          "frequency": 880
        },
        {
          "midi": 66,
          "name": "F#4",
          "time": 0.923,
          "duration": 0.923,
          "velocity": 0.71,
          "frequency": 369.99
        },
        {
          "midi": 80,
          "name": "G#5",
          "time": 1.385,
          "duration": 0.462,
          "velocity": 0.54,
          "frequency": 830.61
        },
        {
          "midi": 81,
          "name": "A5",
          "time": 1.846,
          "duration": 0.462,
          "velocity": 0.59,
          "frequency": 880
        },
        {
          "midi": 50,
          "name": "D3",
          "time": 1.846,
          "duration": 0.462,
          "velocity": 0.51,
          "frequency": 146.83
        },
        {
          "midi": 76,
          "name": "E5",
          "time": 2.308,
          "duration": 0.462,
          "velocity": 0.54,
          "frequency": 659.26
        },
        {
          "midi": 57,
          "name": "A3",
          "time": 2.308,
          "duration": 0.462,
          "velocity": 0.65,
          "frequency": 220
        },
        {
          "midi": 81,
          "name": "A5",
          "time": 2.769,
          "duration": 0.462,
          "velocity": 0.67,
          "frequency": 880
        },
        {
          "midi": 64,
          "name": "E4",
          "time": 2.769,
          "duration": 3.692,
          "velocity": 0.72,
          "frequency": 329.63
        },
        {
          "midi": 74,
          "name": "D5",
          "time": 3.231,
          "duration": 2.769,
          "velocity": 0.51,
          "frequency": 587.33
        },
        {
          "midi": 69,
          "name": "A4",
          "time": 6,
          "duration": 0.231,
          "velocity": 0.52,
          "frequency": 440
        },
        {
          "midi": 73,
          "name": "C#5",
          "time": 6.231,
          "duration": 0.231,
          "velocity": 0.62,
          "frequency": 554.37
        },
        {
          "midi": 81,
          "name": "A5",
          "time": 6.462,
          "duration": 0.462,
          "velocity": 0.72,
          "frequency": 880
        },
        {
          "midi": 54,
          "name": "F#3",
          "time": 6.462,
          "duration": 0.462,
          "velocity": 0.51,
          "frequency": 185
        },
        {
          "midi": 80,
          "name": "G#5",
          "time": 6.923,
          "duration": 0.462,
          "velocity": 0.62,
          "frequency": 830.61
        },
        {
          "midi": 61,
          "name": "C#4",
          "time": 6.923,
          "duration": 0.462,
          "velocity": 0.72,
          "frequency": 277.18
        },
        {
          "midi": 81,
          "name": "A5",
          "time": 7.385,
          "duration": 0.462,
          "velocity": 0.61,
          "frequency": 880
        },
        {
          "midi": 66,
          "name": "F#4",
          "time": 7.385,
          "duration": 0.923,
          "velocity": 0.68,
          "frequency": 369.99
        },
        {
          "midi": 80,
          "name": "G#5",
          "time": 7.846,
          "duration": 0.462,
          "velocity": 0.57,
          "frequency": 830.61
        },
        {
          "midi": 81,
          "name": "A5",
          "time": 8.308,
          "duration": 0.462,
          "velocity": 0.64,
          "frequency": 880
        },
        {
          "midi": 50,
          "name": "D3",
          "time": 8.308,
          "duration": 0.462,
          "velocity": 0.56,
          "frequency": 146.83
        },
        {
          "midi": 76,
          "name": "E5",
          "time": 8.769,
          "duration": 0.462,
          "velocity": 0.5,
          "frequency": 659.26
        },
        {
          "midi": 57,
          "name": "A3",
          "time": 8.769,
          "duration": 0.462,
          "velocity": 0.67,
          "frequency": 220
        },
        {
          "midi": 81,
          "name": "A5",
          "time": 9.231,
          "duration": 0.462,
          "velocity": 0.68,
          "frequency": 880
        },
        {
          "midi": 64,
          "name": "E4",
          "time": 9.231,
          "duration": 3.692,
          "velocity": 0.71,
          "frequency": 329.63
        },
        {
          "midi": 74,
          "name": "D5",
          "time": 9.692,
          "duration": 2.769,
          "velocity": 0.48,
          "frequency": 587.33
        },
        {
          "midi": 69,
          "name": "A4",
          "time": 12.461,
          "duration": 0.231,
          "velocity": 0.54,
          "frequency": 440
        },
        {
          "midi": 73,
          "name": "C#5",
          "time": 12.692,
          "duration": 0.231,
          "velocity": 0.65,
          "frequency": 554.37
        },
        {
          "midi": 81,
          "name": "A5",
          "time": 12.923,
          "duration": 0.462,
          "velocity": 0.73,
          "frequency": 880
        },
        {
          "midi": 54,
          "name": "F#3",
          "time": 12.923,
          "duration": 0.462,
          "velocity": 0.54,
          "frequency": 185
        },
        {
          "midi": 80,
          "name": "G#5",
          "time": 13.385,
          "duration": 0.231,
          "velocity": 0.61,
          "frequency": 830.61
        },
        {
          "midi": 61,
          "name": "C#4",
          "time": 13.385,
          "duration": 0.462,
          "velocity": 0.69,
          "frequency": 277.18
        },
        {
          "midi": 81,
          "name": "A5",
          "time": 13.615,
          "duration": 0.462,
          "velocity": 0.67,
          "frequency": 880
        },
        {
          "midi": 66,
          "name": "F#4",
          "time": 13.846,
          "duration": 0.923,
          "velocity": 0.69,
          "frequency": 369.99
        },
        {
          "midi": 69,
          "name": "A4",
          "time": 14.077,
          "duration": 0.231,
          "velocity": 0.46,
          "frequency": 440
        },
        {
          "midi": 80,
          "name": "G#5",
          "time": 14.308,
          "duration": 0.231,
          "velocity": 0.69,
          "frequency": 830.61
        },
        {
          "midi": 81,
          "name": "A5",
          "time": 14.538,
          "duration": 0.462,
          "velocity": 0.68,
          "frequency": 880
        },
        {
          "midi": 50,
          "name": "D3",
          "time": 14.769,
          "duration": 0.462,
          "velocity": 0.52,
          "frequency": 146.83
        },
        {
          "midi": 69,
          "name": "A4",
          "time": 15,
          "duration": 0.231,
          "velocity": 0.44,
          "frequency": 440
        },
        {
          "midi": 76,
          "name": "E5",
          "time": 15.231,
          "duration": 0.231,
          "velocity": 0.7,
          "frequency": 659.26
        },
        {
          "midi": 57,
          "name": "A3",
          "time": 15.231,
          "duration": 0.462,
          "velocity": 0.65,
          "frequency": 220
        },
        {
          "midi": 81,
          "name": "A5",
          "time": 15.461,
          "duration": 0.462,
          "velocity": 0.7,
          "frequency": 880
        },
        {
          "midi": 64,
          "name": "E4",
          "time": 15.692,
          "duration": 0.462,
          "velocity": 0.73,
          "frequency": 329.63
        },
        {
          "midi": 69,
          "name": "A4",
          "time": 15.923,
          "duration": 0.231,
          "velocity": 0.46,
          "frequency": 440
        },
        {
          "midi": 74,
          "name": "D5",
          "time": 16.154,
          "duration": 0.231,
          "velocity": 0.65,
          "frequency": 587.33
        },
        {
          "midi": 50,
          "name": "D3",
          "time": 16.154,
          "duration": 0.462,
          "velocity": 0.59,
          "frequency": 146.83
        },
        {
          "midi": 69,
          "name": "A4",
          "time": 16.385,
          "duration": 0.231,
          "velocity": 0.56,
          "frequency": 440
        },
        {
          "midi": 73,
          "name": "C#5",
          "time": 16.615,
          "duration": 0.462,
          "velocity": 0.65,
          "frequency": 554.37
        },
        {
          "midi": 45,
          "name": "A2",
          "time": 16.615,
          "duration": 0.462,
          "velocity": 0.54,
          "frequency": 110
        },
        {
          "midi": 74,
          "name": "D5",
          "time": 17.077,
          "duration": 0.462,
          "velocity": 0.64,
          "frequency": 587.33
        },
        {
          "midi": 52,
          "name": "E3",
          "time": 17.077,
          "duration": 0.462,
          "velocity": 0.67,
          "frequency": 164.81
        },
        {
          "midi": 69,
          "name": "A4",
          "time": 17.538,
          "duration": 0.462,
          "velocity": 0.65,
          "frequency": 440
        },
        {
          "midi": 76,
          "name": "E5",
          "time": 17.538,
          "duration": 0.462,
          "velocity": 0.65,
          "frequency": 659.26
        },
        {
          "midi": 61,
          "name": "C#4",
          "time": 17.538,
          "duration": 0.923,
          "velocity": 0.76,
          "frequency": 277.18
        },
        {
          "midi": 73,
          "name": "C#5",
          "time": 18,
          "duration": 0.462,
          "velocity": 0.55,
          "frequency": 554.37
        },
        {
          "midi": 68,
          "name": "G#4",
          "time": 18.461,
          "duration": 1.385,
          "velocity": 0.61,
          "frequency": 415.3
        },
        {
          "midi": 71,
          "name": "B4",
          "time": 18.461,
          "duration": 1.385,
          "velocity": 0.61,
          "frequency": 493.88
        },
        {
          "midi": 56,
          "name": "G#3",
          "time": 18.461,
          "duration": 0.462,
          "velocity": 0.58,
          "frequency": 207.65
        },
        {
          "midi": 59,
          "name": "B3",
          "time": 18.923,
          "duration": 0.462,
          "velocity": 0.65,
          "frequency": 246.94
        },
        {
          "midi": 64,
          "name": "E4",
          "time": 19.385,
          "duration": 0.923,
          "velocity": 0.66,
          "frequency": 329.63
        },
        {
          "midi": 69,
          "name": "A4",
          "time": 19.846,
          "duration": 0.231,
          "velocity": 0.5,
          "frequency": 440
        },
        {
          "midi": 68,
          "name": "G#4",
          "time": 20.077,
          "duration": 0.231,
          "velocity": 0.57,
          "frequency": 415.3
        },
        {
          "midi": 69,
          "name": "A4",
          "time": 20.308,
          "duration": 1.154,
          "velocity": 0.62,
          "frequency": 440
        },
        {
          "midi": 54,
          "name": "F#3",
          "time": 20.308,
          "duration": 0.462,
          "velocity": 0.57,
          "frequency": 185
        },
        {
          "midi": 61,
          "name": "C#4",
          "time": 20.769,
          "duration": 0.462,
          "velocity": 0.71,
          "frequency": 277.18
        },
        {
          "midi": 66,
          "name": "F#4",
          "time": 21.231,
          "duration": 0.923,
          "velocity": 0.69,
          "frequency": 369.99
        },
        {
          "midi": 64,
          "name": "E4",
          "time": 21.461,
          "duration": 0.231,
          "velocity": 0.55,
          "frequency": 329.63
        },
        {
          "midi": 69,
          "name": "A4",
          "time": 21.692,
          "duration": 0.231,
          "velocity": 0.69,
          "frequency": 440
        },
        {
          "midi": 71,
          "name": "B4",
          "time": 21.923,
          "duration": 0.231,
          "velocity": 0.66,
          "frequency": 493.88
        },
        {
          "midi": 73,
          "name": "C#5",
          "time": 22.154,
          "duration": 1.385,
          "velocity": 0.66,
          "frequency": 554.37
        },
        {
          "midi": 50,
          "name": "D3",
          "time": 22.154,
          "duration": 0.462,
          "velocity": 0.57,
          "frequency": 146.83
        },
        {
          "midi": 57,
          "name": "A3",
          "time": 22.615,
          "duration": 0.462,
          "velocity": 0.65,
          "frequency": 220
        },
        {
          "midi": 64,
          "name": "E4",
          "time": 23.077,
          "duration": 0.923,
          "velocity": 0.7,
          "frequency": 329.63
        },
        {
          "midi": 73,
          "name": "C#5",
          "time": 23.538,
          "duration": 0.231,
          "velocity": 0.61,
          "frequency": 554.37
        },
        {
          "midi": 74,
          "name": "D5",
          "time": 23.769,
          "duration": 0.231,
          "velocity": 0.64,
          "frequency": 587.33
        },
        {
          "midi": 76,
          "name": "E5",
          "time": 24,
          "duration": 1.385,
          "velocity": 0.65,
          "frequency": 659.26
        },
        {
          "midi": 45,
          "name": "A2",
          "time": 24,
          "duration": 0.462,
          "velocity": 0.52,
          "frequency": 110
        },
        {
          "midi": 52,
          "name": "E3",
          "time": 24.461,
          "duration": 0.462,
          "velocity": 0.66,
          "frequency": 164.81
        },
        {
          "midi": 61,
          "name": "C#4",
          "time": 24.923,
          "duration": 0.923,
          "velocity": 0.74,
          "frequency": 277.18
        },
        {
          "midi": 74,
          "name": "D5",
          "time": 25.385,
          "duration": 0.231,
          "velocity": 0.54,
          "frequency": 587.33
        },
        {
          "midi": 73,
          "name": "C#5",
          "time": 25.615,
          "duration": 0.231,
          "velocity": 0.57,
          "frequency": 554.37
        },
        {
          "midi": 71,
          "name": "B4",
          "time": 25.846,
          "duration": 1.846,
          "velocity": 0.49,
          "frequency": 493.88
        },
        {
          "midi": 52,
          "name": "E3",
          "time": 25.846,
          "duration": 0.462,
          "velocity": 0.54,
          "frequency": 164.81
        },
        {
          "midi": 59,
          "name": "B3",
          "time": 26.308,
          "duration": 0.462,
          "velocity": 0.65,
          "frequency": 246.94
        },
        {
          "midi": 68,
          "name": "G#4",
          "time": 26.769,
          "duration": 0.923,
          "velocity": 0.75,
          "frequency": 415.3
        },
        {
          "midi": 81,
          "name": "A5",
          "time": 27.692,
          "duration": 0.462,
          "velocity": 0.72,
          "frequency": 880
        },
        {
          "midi": 54,
          "name": "F#3",
          "time": 27.692,
          "duration": 0.462,
          "velocity": 0.54,
          "frequency": 185
        },
        {
          "midi": 80,
          "name": "G#5",
          "time": 28.154,
          "duration": 0.231,
          "velocity": 0.6,
          "frequency": 830.61
        },
        {
          "midi": 61,
          "name": "C#4",
          "time": 28.154,
          "duration": 0.462,
          "velocity": 0.73,
          "frequency": 277.18
        },
        {
          "midi": 81,
          "name": "A5",
          "time": 28.385,
          "duration": 0.462,
          "velocity": 0.62,
          "frequency": 880
        },
        {
          "midi": 66,
          "name": "F#4",
          "time": 28.615,
          "duration": 0.923,
          "velocity": 0.69,
          "frequency": 369.99
        },
        {
          "midi": 69,
          "name": "A4",
          "time": 28.846,
          "duration": 0.231,
          "velocity": 0.47,
          "frequency": 440
        },
        {
          "midi": 80,
          "name": "G#5",
          "time": 29.077,
          "duration": 0.231,
          "velocity": 0.72,
          "frequency": 830.61
        },
        {
          "midi": 81,
          "name": "A5",
          "time": 29.308,
          "duration": 0.462,
          "velocity": 0.63,
          "frequency": 880
        },
        {
          "midi": 50,
          "name": "D3",
          "time": 29.538,
          "duration": 0.462,
          "velocity": 0.51,
          "frequency": 146.83
        },
        {
          "midi": 69,
          "name": "A4",
          "time": 29.769,
          "duration": 0.231,
          "velocity": 0.45,
          "frequency": 440
        },
        {
          "midi": 76,
          "name": "E5",
          "time": 30,
          "duration": 0.231,
          "velocity": 0.7,
          "frequency": 659.26
        },
        {
          "midi": 57,
          "name": "A3",
          "time": 30,
          "duration": 0.462,
          "velocity": 0.61,
          "frequency": 220
        },
        {
          "midi": 81,
          "name": "A5",
          "time": 30.231,
          "duration": 0.462,
          "velocity": 0.68,
          "frequency": 880
        },
        {
          "midi": 64,
          "name": "E4",
          "time": 30.461,
          "duration": 0.462,
          "velocity": 0.76,
          "frequency": 329.63
        },
        {
          "midi": 69,
          "name": "A4",
          "time": 30.692,
          "duration": 0.231,
          "velocity": 0.43,
          "frequency": 440
        },
        {
          "midi": 74,
          "name": "D5",
          "time": 30.923,
          "duration": 0.231,
          "velocity": 0.68,
          "frequency": 587.33
        },
        {
          "midi": 50,
          "name": "D3",
          "time": 30.923,
          "duration": 0.462,
          "velocity": 0.57,
          "frequency": 146.83
        },
        {
          "midi": 69,
          "name": "A4",
          "time": 31.154,
          "duration": 0.231,
          "velocity": 0.52,
          "frequency": 440
        },
        {
          "midi": 73,
          "name": "C#5",
          "time": 31.384,
          "duration": 0.462,
          "velocity": 0.67,
          "frequency": 554.37
        },
        {
          "midi": 45,
          "name": "A2",
          "time": 31.384,
          "duration": 0.462,
          "velocity": 0.56,
          "frequency": 110
        },
        {
          "midi": 74,
          "name": "D5",
          "time": 31.846,
          "duration": 0.462,
          "velocity": 0.62,
          "frequency": 587.33
        },
        {
          "midi": 52,
          "name": "E3",
          "time": 31.846,
          "duration": 0.462,
          "velocity": 0.62,
          "frequency": 164.81
        },
        {
          "midi": 76,
          "name": "E5",
          "time": 32.308,
          "duration": 0.462,
          "velocity": 0.62,
          "frequency": 659.26
        },
        {
          "midi": 61,
          "name": "C#4",
          "time": 32.308,
          "duration": 0.462,
          "velocity": 0.75,
          "frequency": 277.18
        },
        {
          "midi": 85,
          "name": "C#6",
          "time": 32.769,
          "duration": 0.462,
          "velocity": 0.75,
          "frequency": 1108.73
        },
        {
          "midi": 45,
          "name": "A2",
          "time": 32.769,
          "duration": 0.462,
          "velocity": 0.54,
          "frequency": 110
        },
        {
          "midi": 83,
          "name": "B5",
          "time": 33.231,
          "duration": 0.462,
          "velocity": 0.57,
          "frequency": 987.77
        },
        {
          "midi": 52,
          "name": "E3",
          "time": 33.231,
          "duration": 0.462,
          "velocity": 0.64,
          "frequency": 164.81
        },
        {
          "midi": 76,
          "name": "E5",
          "time": 33.692,
          "duration": 0.462,
          "velocity": 0.47,
          "frequency": 659.26
        },
        {
          "midi": 59,
          "name": "B3",
          "time": 33.692,
          "duration": 0.462,
          "velocity": 0.66,
          "frequency": 246.94
        },
        {
          "midi": 83,
          "name": "B5",
          "time": 34.154,
          "duration": 0.462,
          "velocity": 0.7,
          "frequency": 987.77
        },
        {
          "midi": 61,
          "name": "C#4",
          "time": 34.154,
          "duration": 0.923,
          "velocity": 0.66,
          "frequency": 277.18
        },
        {
          "midi": 81,
          "name": "A5",
          "time": 34.615,
          "duration": 0.231,
          "velocity": 0.6,
          "frequency": 880
        },
        {
          "midi": 80,
          "name": "G#5",
          "time": 34.846,
          "duration": 0.231,
          "velocity": 0.55,
          "frequency": 830.61
        },
        {
          "midi": 76,
          "name": "E5",
          "time": 35.077,
          "duration": 1.385,
          "velocity": 0.66,
          "frequency": 659.26
        },
        {
          "midi": 81,
          "name": "A5",
          "time": 35.077,
          "duration": 1.385,
          "velocity": 0.66,
          "frequency": 880
        },
        {
          "midi": 54,
          "name": "F#3",
          "time": 35.077,
          "duration": 0.462,
          "velocity": 0.59,
          "frequency": 185
        },
        {
          "midi": 61,
          "name": "C#4",
          "time": 35.538,
          "duration": 0.462,
          "velocity": 0.72,
          "frequency": 277.18
        },
        {
          "midi": 66,
          "name": "F#4",
          "time": 36,
          "duration": 0.923,
          "velocity": 0.72,
          "frequency": 369.99
        },
        {
          "midi": 69,
          "name": "A4",
          "time": 36.461,
          "duration": 0.231,
          "velocity": 0.41,
          "frequency": 440
        },
        {
          "midi": 71,
          "name": "B4",
          "time": 36.692,
          "duration": 0.231,
          "velocity": 0.6,
          "frequency": 493.88
        },
        {
          "midi": 73,
          "name": "C#5",
          "time": 36.923,
          "duration": 0.462,
          "velocity": 0.63,
          "frequency": 554.37
        },
        {
          "midi": 50,
          "name": "D3",
          "time": 36.923,
          "duration": 0.462,
          "velocity": 0.53,
          "frequency": 146.83
        },
        {
          "midi": 64,
          "name": "E4",
          "time": 37.384,
          "duration": 0.462,
          "velocity": 0.43,
          "frequency": 329.63
        },
        {
          "midi": 57,
          "name": "A3",
          "time": 37.384,
          "duration": 0.462,
          "velocity": 0.62,
          "frequency": 220
        },
        {
          "midi": 69,
          "name": "A4",
          "time": 37.846,
          "duration": 0.462,
          "velocity": 0.65,
          "frequency": 440
        },
        {
          "midi": 64,
          "name": "E4",
          "time": 37.846,
          "duration": 0.923,
          "velocity": 0.72,
          "frequency": 329.63
        },
        {
          "midi": 73,
          "name": "C#5",
          "time": 38.308,
          "duration": 0.231,
          "velocity": 0.68,
          "frequency": 554.37
        },
        {
          "midi": 74,
          "name": "D5",
          "time": 38.538,
          "duration": 0.231,
          "velocity": 0.65,
          "frequency": 587.33
        },
        {
          "midi": 76,
          "name": "E5",
          "time": 38.769,
          "duration": 0.462,
          "velocity": 0.63,
          "frequency": 659.26
        },
        {
          "midi": 45,
          "name": "A2",
          "time": 38.769,
          "duration": 0.462,
          "velocity": 0.55,
          "frequency": 110
        },
        {
          "midi": 64,
          "name": "E4",
          "time": 39.231,
          "duration": 0.462,
          "velocity": 0.46,
          "frequency": 329.63
        },
        {
          "midi": 52,
          "name": "E3",
          "time": 39.231,
          "duration": 0.462,
          "velocity": 0.65,
          "frequency": 164.81
        },
        {
          "midi": 73,
          "name": "C#5",
          "time": 39.692,
          "duration": 0.462,
          "velocity": 0.7,
          "frequency": 554.37
        },
        {
          "midi": 61,
          "name": "C#4",
          "time": 39.692,
          "duration": 0.923,
          "velocity": 0.73,
          "frequency": 277.18
        },
        {
          "midi": 74,
          "name": "D5",
          "time": 40.154,
          "duration": 0.231,
          "velocity": 0.68,
          "frequency": 587.33
        },
        {
          "midi": 73,
          "name": "C#5",
          "time": 40.384,
          "duration": 0.231,
          "velocity": 0.61,
          "frequency": 554.37
        },
        {
          "midi": 71,
          "name": "B4",
          "time": 40.615,
          "duration": 0.923,
          "velocity": 0.58,
          "frequency": 493.88
        },
        {
          "midi": 52,
          "name": "E3",
          "time": 40.615,
          "duration": 0.462,
          "velocity": 0.55,
          "frequency": 164.81
        },
        {
          "midi": 59,
          "name": "B3",
          "time": 41.077,
          "duration": 0.462,
          "velocity": 0.63,
          "frequency": 246.94
        },
        {
          "midi": 81,
          "name": "A5",
          "time": 41.538,
          "duration": 0.231,
          "velocity": 0.75,
          "frequency": 880
        },
        {
          "midi": 64,
          "name": "E4",
          "time": 41.538,
          "duration": 0.923,
          "velocity": 0.71,
          "frequency": 329.63
        },
        {
          "midi": 83,
          "name": "B5",
          "time": 41.769,
          "duration": 0.231,
          "velocity": 0.65,
          "frequency": 987.77
        },
        {
          "midi": 81,
          "name": "A5",
          "time": 42,
          "duration": 0.231,
          "velocity": 0.56,
          "frequency": 880
        },
        {
          "midi": 80,
          "name": "G#5",
          "time": 42.231,
          "duration": 0.231,
          "velocity": 0.6,
          "frequency": 830.61
        },
        {
          "midi": 81,
          "name": "A5",
          "time": 42.461,
          "duration": 0.231,
          "velocity": 0.59,
          "frequency": 880
        },
        {
          "midi": 54,
          "name": "F#3",
          "time": 42.461,
          "duration": 0.462,
          "velocity": 0.58,
          "frequency": 185
        },
        {
          "midi": 69,
          "name": "A4",
          "time": 42.692,
          "duration": 0.231,
          "velocity": 0.44,
          "frequency": 440
        },
        {
          "midi": 76,
          "name": "E5",
          "time": 42.923,
          "duration": 0.231,
          "velocity": 0.68,
          "frequency": 659.26
        },
        {
          "midi": 61,
          "name": "C#4",
          "time": 42.923,
          "duration": 0.462,
          "velocity": 0.7,
          "frequency": 277.18
        },
        {
          "midi": 69,
          "name": "A4",
          "time": 43.154,
          "duration": 0.231,
          "velocity": 0.5,
          "frequency": 440
        },
        {
          "midi": 81,
          "name": "A5",
          "time": 43.384,
          "duration": 0.231,
          "velocity": 0.76,
          "frequency": 880
        },
        {
          "midi": 66,
          "name": "F#4",
          "time": 43.384,
          "duration": 0.462,
          "velocity": 0.69,
          "frequency": 369.99
        },
        {
          "midi": 83,
          "name": "B5",
          "time": 43.615,
          "duration": 0.231,
          "velocity": 0.69,
          "frequency": 987.77
        },
        {
          "midi": 81,
          "name": "A5",
          "time": 43.846,
          "duration": 0.231,
          "velocity": 0.56,
          "frequency": 880
        },
        {
          "midi": 54,
          "name": "F#3",
          "time": 43.846,
          "duration": 0.462,
          "velocity": 0.51,
          "frequency": 185
        },
        {
          "midi": 80,
          "name": "G#5",
          "time": 44.077,
          "duration": 0.231,
          "velocity": 0.55,
          "frequency": 830.61
        },
        {
          "midi": 81,
          "name": "A5",
          "time": 44.308,
          "duration": 0.231,
          "velocity": 0.65,
          "frequency": 880
        },
        {
          "midi": 50,
          "name": "D3",
          "time": 44.308,
          "duration": 0.462,
          "velocity": 0.54,
          "frequency": 146.83
        },
        {
          "midi": 69,
          "name": "A4",
          "time": 44.538,
          "duration": 0.231,
          "velocity": 0.44,
          "frequency": 440
        },
        {
          "midi": 76,
          "name": "E5",
          "time": 44.769,
          "duration": 0.231,
          "velocity": 0.7,
          "frequency": 659.26
        },
        {
          "midi": 57,
          "name": "A3",
          "time": 44.769,
          "duration": 0.462,
          "velocity": 0.6,
          "frequency": 220
        },
        {
          "midi": 69,
          "name": "A4",
          "time": 45,
          "duration": 0.231,
          "velocity": 0.5,
          "frequency": 440
        },
        {
          "midi": 81,
          "name": "A5",
          "time": 45.231,
          "duration": 0.231,
          "velocity": 0.76,
          "frequency": 880
        },
        {
          "midi": 64,
          "name": "E4",
          "time": 45.231,
          "duration": 0.462,
          "velocity": 0.75,
          "frequency": 329.63
        },
        {
          "midi": 83,
          "name": "B5",
          "time": 45.461,
          "duration": 0.231,
          "velocity": 0.69,
          "frequency": 987.77
        },
        {
          "midi": 81,
          "name": "A5",
          "time": 45.692,
          "duration": 0.231,
          "velocity": 0.59,
          "frequency": 880
        },
        {
          "midi": 50,
          "name": "D3",
          "time": 45.692,
          "duration": 0.462,
          "velocity": 0.54,
          "frequency": 146.83
        },
        {
          "midi": 80,
          "name": "G#5",
          "time": 45.923,
          "duration": 0.231,
          "velocity": 0.6,
          "frequency": 830.61
        },
        {
          "midi": 81,
          "name": "A5",
          "time": 46.154,
          "duration": 0.231,
          "velocity": 0.63,
          "frequency": 880
        },
        {
          "midi": 45,
          "name": "A2",
          "time": 46.154,
          "duration": 0.462,
          "velocity": 0.57,
          "frequency": 110
        },
        {
          "midi": 83,
          "name": "B5",
          "time": 46.384,
          "duration": 0.231,
          "velocity": 0.65,
          "frequency": 987.77
        },
        {
          "midi": 85,
          "name": "C#6",
          "time": 46.615,
          "duration": 0.231,
          "velocity": 0.61,
          "frequency": 1108.73
        },
        {
          "midi": 52,
          "name": "E3",
          "time": 46.615,
          "duration": 0.462,
          "velocity": 0.69,
          "frequency": 164.81
        },
        {
          "midi": 86,
          "name": "D6",
          "time": 46.846,
          "duration": 0.231,
          "velocity": 0.6,
          "frequency": 1174.66
        },
        {
          "midi": 88,
          "name": "E6",
          "time": 47.077,
          "duration": 0.231,
          "velocity": 0.63,
          "frequency": 1318.51
        },
        {
          "midi": 61,
          "name": "C#4",
          "time": 47.077,
          "duration": 0.462,
          "velocity": 0.74,
          "frequency": 277.18
        },
        {
          "midi": 85,
          "name": "C#6",
          "time": 47.308,
          "duration": 0.231,
          "velocity": 0.57,
          "frequency": 1108.73
        },
        {
          "midi": 83,
          "name": "B5",
          "time": 47.538,
          "duration": 0.231,
          "velocity": 0.53,
          "frequency": 987.77
        },
        {
          "midi": 45,
          "name": "A2",
          "time": 47.538,
          "duration": 0.462,
          "velocity": 0.59,
          "frequency": 110
        },
        {
          "midi": 81,
          "name": "A5",
          "time": 47.769,
          "duration": 0.231,
          "velocity": 0.59,
          "frequency": 880
        },
        {
          "midi": 80,
          "name": "G#5",
          "time": 48,
          "duration": 0.462,
          "velocity": 0.55,
          "frequency": 830.61
        },
        {
          "midi": 52,
          "name": "E3",
          "time": 48,
          "duration": 0.462,
          "velocity": 0.65,
          "frequency": 164.81
        },
        {
          "midi": 71,
          "name": "B4",
          "time": 48.461,
          "duration": 0.462,
          "velocity": 0.46,
          "frequency": 493.88
        },
        {
          "midi": 59,
          "name": "B3",
          "time": 48.461,
          "duration": 0.462,
          "velocity": 0.67,
          "frequency": 246.94
        },
        {
          "midi": 81,
          "name": "A5",
          "time": 48.923,
          "duration": 0.231,
          "velocity": 0.75,
          "frequency": 880
        },
        {
          "midi": 64,
          "name": "E4",
          "time": 48.923,
          "duration": 0.462,
          "velocity": 0.69,
          "frequency": 329.63
        },
        {
          "midi": 83,
          "name": "B5",
          "time": 49.154,
          "duration": 0.231,
          "velocity": 0.68,
          "frequency": 987.77
        },
        {
          "midi": 81,
          "name": "A5",
          "time": 49.384,
          "duration": 0.231,
          "velocity": 0.57,
          "frequency": 880
        },
        {
          "midi": 52,
          "name": "E3",
          "time": 49.384,
          "duration": 0.462,
          "velocity": 0.55,
          "frequency": 164.81
        }
      ]
    }
  ]
}