{
  "metadata": {
    "name": "A Thousand Years",
    "artist": "Christina Perri",
    "duration": 256.79833333333335,
    "tempo": 75,
    "timeSignature": [
      6,
      8
    ],
    "totalNotes": 892,
    "backgroundNotes": 614,
    "melodyNotes": 278,
    "c4Threshold": 261.63
  },
  "allNotes": [
    {
      "midi": 65,
      "frequency": 349.23,
      "time": 0,
      "duration": 1.1983333333333333,
      "velocity": 0.6299212598425197,
      "name": "F4"
    },
    {
      "midi": 70,
      "frequency": 466.16,
      "time": 0,
      "duration": 1.1983333333333333,
      "velocity": 0.6299212598425197,
      "name": "A#4"
    },
    {
      "midi": 74,
      "frequency": 587.33,
      "time": 0,
      "duration": 1.1983333333333333,
      "velocity": 0.6299212598425197,
      "name": "D5"
    },
    {
      "midi": 58,
      "frequency": 233.08,
      "time": 0,
      "duration": 1.1983333333333333,
      "velocity": 0.6299212598425197,
      "name": "A#3"
    },
    {
      "midi": 65,
      "frequency": 349.23,
      "time": 1.2000000000000002,
      "duration": 1.1983333333333333,
      "velocity": 0.6299212598425197,
      "name": "F4"
    },
    {
      "midi": 70,
      "frequency": 466.16,
      "time": 1.2000000000000002,
      "duration": 1.1983333333333333,
      "velocity": 0.6299212598425197,
      "name": "A#4"
    },
    {
      "midi": 74,
      "frequency": 587.33,
      "time": 1.2000000000000002,
      "duration": 1.1983333333333333,
      "velocity": 0.6299212598425197,
      "name": "D5"
    },
    {
      "midi": 58,
      "frequency": 233.08,
      "time": 1.2000000000000002,
      "duration": 1.1983333333333333,
      "velocity": 0.6299212598425197,
      "name": "A#3"
    },
    {
      "midi": 65,
      "frequency": 349.23,
      "time": 2.4000000000000004,
      "duration": 1.1983333333333333,
      "velocity": 0.6299212598425197,
      "name": "F4"
    },
    {
      "midi": 70,
      "frequency": 466.16,
      "time": 2.4000000000000004,
      "duration": 1.1983333333333333,
      "velocity": 0.6299212598425197,
      "name": "A#4"
    },
    {
      "midi": 74,
      "frequency": 587.33,
      "time": 2.4000000000000004,
      "duration": 1.1983333333333333,
      "velocity": 0.6299212598425197,
      "name": "D5"
    },
    {
      "midi": 58,
      "frequency": 233.08,
      "time": 2.4000000000000004,
      "duration": 1.1983333333333333,
      "velocity": 0.6299212598425197,
      "name": "A#3"
    },
    {
      "midi": 65,
      "frequency": 349.23,
      "time": 3.6,
      "duration": 1.1983333333333337,
      "velocity": 0.6299212598425197,
      "name": "F4"
    },
    {
      "midi": 72,
      "frequency": 523.25,
      "time": 3.6,
      "duration": 1.1983333333333337,
      "velocity": 0.6299212598425197,
      "name": "C5"
    },
    {
      "midi": 57,
      "frequency": 220,
      "time": 3.6,
      "duration": 1.1983333333333337,
      "velocity": 0.6299212598425197,
      "name": "A3"
    },
    {
      "midi": 67,
      "frequency": 392,
      "time": 4.800000000000001,
      "duration": 1.1983333333333333,
      "velocity": 0.6299212598425197,
      "name": "G4"
    },
    {
      "midi": 70,
      "frequency": 466.16,
      "time": 4.800000000000001,
      "duration": 1.1983333333333333,
      "velocity": 0.6299212598425197,
      "name": "A#4"
    },
    {
      "midi": 74,
      "frequency": 587.33,
      "time": 4.800000000000001,
      "duration": 1.1983333333333333,
      "velocity": 0.6299212598425197,
      "name": "D5"
    },
    {
      "midi": 55,
      "frequency": 196,
      "time": 4.800000000000001,
      "duration": 1.1983333333333333,
      "velocity": 0.6299212598425197,
      "name": "G3"
    },
    {
      "midi": 67,
      "frequency": 392,
      "time": 6,
      "duration": 1.1983333333333341,
      "velocity": 0.6299212598425197,
      "name": "G4"
    },
    {
      "midi": 70,
      "frequency": 466.16,
      "time": 6,
      "duration": 1.1983333333333341,
      "velocity": 0.6299212598425197,
      "name": "A#4"
    },
    {
      "midi": 74,
      "frequency": 587.33,
      "time": 6,
      "duration": 1.1983333333333341,
      "velocity": 0.6299212598425197,
      "name": "D5"
    },
    {
      "midi": 55,
      "frequency": 196,
      "time": 6,
      "duration": 1.1983333333333341,
      "velocity": 0.6299212598425197,
      "name": "G3"
    },
    {
      "midi": 67,
      "frequency": 392,
      "time": 7.2,
      "duration": 1.1983333333333333,
      "velocity": 0.6299212598425197,
      "name": "G4"
    },
    {
      "midi": 70,
      "frequency": 466.16,
      "time": 7.2,
      "duration": 1.1983333333333333,
      "velocity": 0.6299212598425197,
      "name": "A#4"
    },
    {
      "midi": 74,
      "frequency": 587.33,
      "time": 7.2,
      "duration": 1.1983333333333333,
      "velocity": 0.6299212598425197,
      "name": "D5"
    },
    {
      "midi": 55,
      "frequency": 196,
      "time": 7.2,
      "duration": 1.1983333333333333,
      "velocity": 0.6299212598425197,
      "name": "G3"
    },
    {
      "midi": 67,
      "frequency": 392,
      "time": 8.4,
      "duration": 1.1983333333333341,
      "velocity": 0.6299212598425197,
      "name": "G4"
    },
    {
      "midi": 72,
      "frequency": 523.25,
      "time": 8.4,
      "duration": 1.1983333333333341,
      "velocity": 0.6299212598425197,
      "name": "C5"
    },
    {
      "midi": 53,
      "frequency": 174.61,
      "time": 8.4,
      "duration": 1.1983333333333341,
      "velocity": 0.6299212598425197,
      "name": "F3"
    },
    {
      "midi": 67,
      "frequency": 392,
      "time": 9.600000000000001,
      "duration": 1.1983333333333324,
      "velocity": 0.6299212598425197,
      "name": "G4"
    },
    {
      "midi": 70,
      "frequency": 466.16,
      "time": 9.600000000000001,
      "duration": 1.1983333333333324,
      "velocity": 0.6299212598425197,
      "name": "A#4"
    },
    {
      "midi": 75,
      "frequency": 622.25,
      "time": 9.600000000000001,
      "duration": 1.1983333333333324,
      "velocity": 0.6299212598425197,
      "name": "D#5"
    },
    {
      "midi": 51,
      "frequency": 155.56,
      "time": 9.600000000000001,
      "duration": 1.1983333333333324,
      "velocity": 0.6299212598425197,
      "name": "D#3"
    },
    {
      "midi": 67,
      "frequency": 392,
      "time": 10.8,
      "duration": 1.1983333333333341,
      "velocity": 0.6299212598425197,
      "name": "G4"
    },
    {
      "midi": 70,
      "frequency": 466.16,
      "time": 10.8,
      "duration": 1.1983333333333341,
      "velocity": 0.6299212598425197,
      "name": "A#4"
    },
    {
      "midi": 75,
      "frequency": 622.25,
      "time": 10.8,
      "duration": 1.1983333333333341,
      "velocity": 0.6299212598425197,
      "name": "D#5"
    },
    {
      "midi": 51,
      "frequency": 155.56,
      "time": 10.8,
      "duration": 1.1983333333333341,
      "velocity": 0.6299212598425197,
      "name": "D#3"
    },
    {
      "midi": 67,
      "frequency": 392,
      "time": 12,
      "duration": 1.1983333333333324,
      "velocity": 0.6299212598425197,
      "name": "G4"
    },
    {
      "midi": 70,
      "frequency": 466.16,
      "time": 12,
      "duration": 1.1983333333333324,
      "velocity": 0.6299212598425197,
      "name": "A#4"
    },
    {
      "midi": 75,
      "frequency": 622.25,
      "time": 12,
      "duration": 1.1983333333333324,
      "velocity": 0.6299212598425197,
      "name": "D#5"
    },
    {
      "midi": 51,
      "frequency": 155.56,
      "time": 12,
      "duration": 2.3983333333333334,
      "velocity": 0.6299212598425197,
      "name": "D#3"
    },
    {
      "midi": 70,
      "frequency": 466.16,
      "time": 13.200000000000001,
      "duration": 1.1983333333333324,
      "velocity": 0.6299212598425197,
      "name": "A#4"
    },
    {
      "midi": 65,
      "frequency": 349.23,
      "time": 14.4,
      "duration": 1.1983333333333324,
      "velocity": 0.6299212598425197,
      "name": "F4"
    },
    {
      "midi": 70,
      "frequency": 466.16,
      "time": 14.4,
      "duration": 1.1983333333333324,
      "velocity": 0.6299212598425197,
      "name": "A#4"
    },
    {
      "midi": 74,
      "frequency": 587.33,
      "time": 14.4,
      "duration": 1.1983333333333324,
      "velocity": 0.6299212598425197,
      "name": "D5"
    },
    {
      "midi": 58,
      "frequency": 233.08,
      "time": 14.4,
      "duration": 1.1983333333333324,
      "velocity": 0.6299212598425197,
      "name": "A#3"
    },
    {
      "midi": 65,
      "frequency": 349.23,
      "time": 15.600000000000001,
      "duration": 1.1983333333333306,
      "velocity": 0.6299212598425197,
      "name": "F4"
    },
    {
      "midi": 70,
      "frequency": 466.16,
      "time": 15.600000000000001,
      "duration": 1.1983333333333306,
      "velocity": 0.6299212598425197,
      "name": "A#4"
    },
    {
      "midi": 74,
      "frequency": 587.33,
      "time": 15.600000000000001,
      "duration": 1.1983333333333306,
      "velocity": 0.6299212598425197,
      "name": "D5"
    },
    {
      "midi": 58,
      "frequency": 233.08,
      "time": 15.600000000000001,
      "duration": 1.1983333333333306,
      "velocity": 0.6299212598425197,
      "name": "A#3"
    },
    {
      "midi": 65,
      "frequency": 349.23,
      "time": 16.8,
      "duration": 1.1983333333333306,
      "velocity": 0.6299212598425197,
      "name": "F4"
    },
    {
      "midi": 69,
      "frequency": 440,
      "time": 16.8,
      "duration": 1.1983333333333306,
      "velocity": 0.6299212598425197,
      "name": "A4"
    },
    {
      "midi": 72,
      "frequency": 523.25,
      "time": 16.8,
      "duration": 1.1983333333333306,
      "velocity": 0.6299212598425197,
      "name": "C5"
    },
    {
      "midi": 53,
      "frequency": 174.61,
      "time": 16.8,
      "duration": 2.3983333333333334,
      "velocity": 0.6299212598425197,
      "name": "F3"
    },
    {
      "midi": 70,
      "frequency": 466.16,
      "time": 18,
      "duration": 0.39833333333333343,
      "velocity": 0.6299212598425197,
      "name": "A#4"
    },
    {
      "midi": 69,
      "frequency": 440,
      "time": 18.400000000000002,
      "duration": 0.3983333333333299,
      "velocity": 0.6299212598425197,
      "name": "A4"
    },
    {
      "midi": 65,
      "frequency": 349.23,
      "time": 18.8,
      "duration": 0.39833333333333343,
      "velocity": 0.6299212598425197,
      "name": "F4"
    },
    {
      "midi": 58,
      "frequency": 233.08,
      "time": 19.200000000000003,
      "duration": 1.1983333333333306,
      "velocity": 0.6299212598425197,
      "name": "A#3"
    },
    {
      "midi": 39,
      "frequency": 77.78,
      "time": 19.200000000000003,
      "duration": 0.3983333333333299,
      "velocity": 0.6299212598425197,
      "name": "D#2"
    },
    {
      "midi": 46,
      "frequency": 116.54,
      "time": 19.6,
      "duration": 0.39833333333333343,
      "velocity": 0.6299212598425197,
      "name": "A#2"
    },
    {
      "midi": 51,
      "frequency": 155.56,
      "time": 20,
      "duration": 0.798333333333332,
      "velocity": 0.6299212598425197,
      "name": "D#3"
    },
    {
      "midi": 58,
      "frequency": 233.08,
      "time": 20.400000000000002,
      "duration": 1.1983333333333306,
      "velocity": 0.6299212598425197,
      "name": "A#3"
    },
    {
      "midi": 51,
      "frequency": 155.56,
      "time": 20.8,
      "duration": 0.39833333333333343,
      "velocity": 0.6299212598425197,
      "name": "D#3"
    },
    {
      "midi": 46,
      "frequency": 116.54,
      "time": 21.200000000000003,
      "duration": 0.3983333333333299,
      "velocity": 0.6299212598425197,
      "name": "A#2"
    },
    {
      "midi": 58,
      "frequency": 233.08,
      "time": 21.6,
      "duration": 1.1983333333333306,
      "velocity": 0.6299212598425197,
      "name": "A#3"
    },
    {
      "midi": 39,
      "frequency": 77.78,
      "time": 21.6,
      "duration": 0.39833333333333343,
      "velocity": 0.6299212598425197,
      "name": "D#2"
    },
    {
      "midi": 46,
      "frequency": 116.54,
      "time": 22,
      "duration": 0.39833333333333343,
      "velocity": 0.6299212598425197,
      "name": "A#2"
    },
    {
      "midi": 51,
      "frequency": 155.56,
      "time": 22.400000000000002,
      "duration": 0.798333333333332,
      "velocity": 0.6299212598425197,
      "name": "D#3"
    },
    {
      "midi": 62,
      "frequency": 293.66,
      "time": 22.8,
      "duration": 0.19833333333333414,
      "velocity": 0.6299212598425197,
      "name": "D4"
    },
    {
      "midi": 60,
      "frequency": 261.63,
      "time": 23,
      "duration": 0.5983333333333327,
      "velocity": 0.6299212598425197,
      "name": "C4"
    },
    {
      "midi": 46,
      "frequency": 116.54,
      "time": 23.200000000000003,
      "duration": 0.798333333333332,
      "velocity": 0.6299212598425197,
      "name": "A#2"
    },
    {
      "midi": 58,
      "frequency": 233.08,
      "time": 23.6,
      "duration": 0.39833333333333343,
      "velocity": 0.6299212598425197,
      "name": "A#3"
    },
    {
      "midi": 58,
      "frequency": 233.08,
      "time": 24,
      "duration": 1.1983333333333341,
      "velocity": 0.6299212598425197,
      "name": "A#3"
    },
    {
      "midi": 46,
      "frequency": 116.54,
      "time": 24,
      "duration": 0.39833333333333343,
      "velocity": 0.6299212598425197,
      "name": "A#2"
    },
    {
      "midi": 50,
      "frequency": 146.83,
      "time": 24.400000000000002,
      "duration": 0.3983333333333299,
      "velocity": 0.6299212598425197,
      "name": "D3"
    },
    {
      "midi": 53,
      "frequency": 174.61,
      "time": 24.8,
      "duration": 0.798333333333332,
      "velocity": 0.6299212598425197,
      "name": "F3"
    },
    {
      "midi": 58,
      "frequency": 233.08,
      "time": 25.200000000000003,
      "duration": 1.1983333333333341,
      "velocity": 0.6299212598425197,
      "name": "A#3"
    },
    {
      "midi": 53,
      "frequency": 174.61,
      "time": 25.6,
      "duration": 0.39833333333333343,
      "velocity": 0.6299212598425197,
      "name": "F3"
    },
    {
      "midi": 50,
      "frequency": 146.83,
      "time": 26,
      "duration": 0.398333333333337,
      "velocity": 0.6299212598425197,
      "name": "D3"
    },
    {
      "midi": 58,
      "frequency": 233.08,
      "time": 26.400000000000002,
      "duration": 1.1983333333333341,
      "velocity": 0.6299212598425197,
      "name": "A#3"
    },
    {
      "midi": 46,
      "frequency": 116.54,
      "time": 26.400000000000002,
      "duration": 0.39833333333333343,
      "velocity": 0.6299212598425197,
      "name": "A#2"
    },
    {
      "midi": 50,
      "frequency": 146.83,
      "time": 26.8,
      "duration": 0.398333333333337,
      "velocity": 0.6299212598425197,
      "name": "D3"
    },
    {
      "midi": 53,
      "frequency": 174.61,
      "time": 27.200000000000003,
      "duration": 1.5983333333333327,
      "velocity": 0.6299212598425197,
      "name": "F3"
    },
    {
      "midi": 65,
      "frequency": 349.23,
      "time": 27.6,
      "duration": 0.39833333333333343,
      "velocity": 0.6299212598425197,
      "name": "F4"
    },
    {
      "midi": 63,
      "frequency": 311.13,
      "time": 28,
      "duration": 0.1983333333333377,
      "velocity": 0.6299212598425197,
      "name": "D#4"
    },
    {
      "midi": 62,
      "frequency": 293.66,
      "time": 28.200000000000003,
      "duration": 0.5983333333333327,
      "velocity": 0.6299212598425197,
      "name": "D4"
    },
    {
      "midi": 58,
      "frequency": 233.08,
      "time": 28.8,
      "duration": 1.1983333333333341,
      "velocity": 0.6299212598425197,
      "name": "A#3"
    },
    {
      "midi": 43,
      "frequency": 98,
      "time": 28.8,
      "duration": 0.398333333333337,
      "velocity": 0.6299212598425197,
      "name": "G2"
    },
    {
      "midi": 50,
      "frequency": 146.83,
      "time": 29.200000000000003,
      "duration": 0.39833333333333343,
      "velocity": 0.6299212598425197,
      "name": "D3"
    },
    {
      "midi": 55,
      "frequency": 196,
      "time": 29.6,
      "duration": 1.5983333333333363,
      "velocity": 0.6299212598425197,
      "name": "G3"
    },
    {
      "midi": 65,
      "frequency": 349.23,
      "time": 30,
      "duration": 0.398333333333337,
      "velocity": 0.6299212598425197,
      "name": "F4"
    },
    {
      "midi": 63,
      "frequency": 311.13,
      "time": 30.400000000000002,
      "duration": 0.19833333333333414,
      "velocity": 0.6299212598425197,
      "name": "D#4"
    },
    {
      "midi": 62,
      "frequency": 293.66,
      "time": 30.6,
      "duration": 0.5983333333333363,
      "velocity": 0.6299212598425197,
      "name": "D4"
    },
    {
      "midi": 57,
      "frequency": 220,
      "time": 31.200000000000003,
      "duration": 0.798333333333332,
      "velocity": 0.6299212598425197,
      "name": "A3"
    },
    {
      "midi": 41,
      "frequency": 87.31,
      "time": 31.200000000000003,
      "duration": 0.39833333333333343,
      "velocity": 0.6299212598425197,
      "name": "F2"
    },
    {
      "midi": 48,
      "frequency": 130.81,
      "time": 31.6,
      "duration": 0.39833333333333343,
      "velocity": 0.6299212598425197,
      "name": "C3"
    },
    {
      "midi": 58,
      "frequency": 233.08,
      "time": 32,
      "duration": 0.39833333333333343,
      "velocity": 0.6299212598425197,
      "name": "A#3"
    },
    {
      "midi": 53,
      "frequency": 174.61,
      "time": 32,
      "duration": 1.5983333333333363,
      "velocity": 0.6299212598425197,
      "name": "F3"
    },
    {
      "midi": 55,
      "frequency": 196,
      "time": 32.4,
      "duration": 0.7983333333333391,
      "velocity": 0.6299212598425197,
      "name": "G3"
    },
    {
      "midi": 57,
      "frequency": 220,
      "time": 33.2,
      "duration": 0.39833333333333343,
      "velocity": 0.6299212598425197,
      "name": "A3"
    },
    {
      "midi": 58,
      "frequency": 233.08,
      "time": 33.6,
      "duration": 1.1983333333333377,
      "velocity": 0.6299212598425197,
      "name": "A#3"
    },
    {
      "midi": 39,
      "frequency": 77.78,
      "time": 33.6,
      "duration": 0.39833333333333343,
      "velocity": 0.6299212598425197,
      "name": "D#2"
    },
    {
      "midi": 46,
      "frequency": 116.54,
      "time": 34,
      "duration": 0.39833333333333343,
      "velocity": 0.6299212598425197,
      "name": "A#2"
    },
    {
      "midi": 51,
      "frequency": 155.56,
      "time": 34.4,
      "duration": 0.7983333333333391,
      "velocity": 0.6299212598425197,
      "name": "D#3"
    },
    {
      "midi": 58,
      "frequency": 233.08,
      "time": 34.800000000000004,
      "duration": 1.1983333333333306,
      "velocity": 0.6299212598425197,
      "name": "A#3"
    },
    {
      "midi": 51,
      "frequency": 155.56,
      "time": 35.2,
      "duration": 0.39833333333333343,
      "velocity": 0.6299212598425197,
      "name": "D#3"
    },
    {
      "midi": 46,
      "frequency": 116.54,
      "time": 35.6,
      "duration": 0.39833333333333343,
      "velocity": 0.6299212598425197,
      "name": "A#2"
    },
    {
      "midi": 58,
      "frequency": 233.08,
      "time": 36,
      "duration": 0.7983333333333391,
      "velocity": 0.6299212598425197,
      "name": "A#3"
    },
    {
      "midi": 39,
      "frequency": 77.78,
      "time": 36,
      "duration": 0.39833333333333343,
      "velocity": 0.6299212598425197,
      "name": "D#2"
    },
    {
      "midi": 46,
      "frequency": 116.54,
      "time": 36.4,
      "duration": 0.39833333333334053,
      "velocity": 0.6299212598425197,
      "name": "A#2"
    },
    {
      "midi": 51,
      "frequency": 155.56,
      "time": 36.800000000000004,
      "duration": 1.5983333333333292,
      "velocity": 0.6299212598425197,
      "name": "D#3"
    },
    {
      "midi": 58,
      "frequency": 233.08,
      "time": 37,
      "duration": 0.1983333333333377,
      "velocity": 0.6299212598425197,
      "name": "A#3"
    },
    {
      "midi": 62,
      "frequency": 293.66,
      "time": 37.2,
      "duration": 0.39833333333333343,
      "velocity": 0.6299212598425197,
      "name": "D4"
    },
    {
      "midi": 60,
      "frequency": 261.63,
      "time": 37.6,
      "duration": 0.39833333333333343,
      "velocity": 0.6299212598425197,
      "name": "C4"
    },
    {
      "midi": 58,
      "frequency": 233.08,
      "time": 38,
      "duration": 0.39833333333333343,
      "velocity": 0.6299212598425197,
      "name": "A#3"
    },
    {
      "midi": 58,
      "frequency": 233.08,
      "time": 38.400000000000006,
      "duration": 1.1983333333333306,
      "velocity": 0.6299212598425197,
      "name": "A#3"
    },
    {
      "midi": 46,
      "frequency": 116.54,
      "time": 38.400000000000006,
      "duration": 0.39833333333333343,
      "velocity": 0.6299212598425197,
      "name": "A#2"
    },
    {
      "midi": 50,
      "frequency": 146.83,
      "time": 38.800000000000004,
      "duration": 0.39833333333333343,
      "velocity": 0.6299212598425197,
      "name": "D3"
    },
    {
      "midi": 53,
      "frequency": 174.61,
      "time": 39.2,
      "duration": 0.798333333333332,
      "velocity": 0.6299212598425197,
      "name": "F3"
    },
    {
      "midi": 58,
      "frequency": 233.08,
      "time": 39.6,
      "duration": 1.1983333333333377,
      "velocity": 0.6299212598425197,
      "name": "A#3"
    },
    {
      "midi": 53,
      "frequency": 174.61,
      "time": 40,
      "duration": 0.39833333333334053,
      "velocity": 0.6299212598425197,
      "name": "F3"
    },
    {
      "midi": 50,
      "frequency": 146.83,
      "time": 40.400000000000006,
      "duration": 0.39833333333333343,
      "velocity": 0.6299212598425197,
      "name": "D3"
    },
    {
      "midi": 58,
      "frequency": 233.08,
      "time": 40.800000000000004,
      "duration": 1.1983333333333306,
      "velocity": 0.6299212598425197,
      "name": "A#3"
    },
    {
      "midi": 46,
      "frequency": 116.54,
      "time": 40.800000000000004,
      "duration": 0.39833333333333343,
      "velocity": 0.6299212598425197,
      "name": "A#2"
    },
    {
      "midi": 50,
      "frequency": 146.83,
      "time": 41.2,
      "duration": 0.39833333333333343,
      "velocity": 0.6299212598425197,
      "name": "D3"
    },
    {
      "midi": 53,
      "frequency": 174.61,
      "time": 41.6,
      "duration": 0.39833333333333343,
      "velocity": 0.6299212598425197,
      "name": "F3"
    },
    {
      "midi": 65,
      "frequency": 349.23,
      "time": 42,
      "duration": 0.39833333333334053,
      "velocity": 0.6299212598425197,
      "name": "F4"
    },
    {
      "midi": 58,
      "frequency": 233.08,
      "time": 42,
      "duration": 1.1983333333333377,
      "velocity": 0.6299212598425197,
      "name": "A#3"
    },
    {
      "midi": 63,
      "frequency": 311.13,
      "time": 42.400000000000006,
      "duration": 0.19833333333333059,
      "velocity": 0.6299212598425197,
      "name": "D#4"
    },
    {
      "midi": 62,
      "frequency": 293.66,
      "time": 42.6,
      "duration": 0.5983333333333363,
      "velocity": 0.6299212598425197,
      "name": "D4"
    },
    {
      "midi": 58,
      "frequency": 233.08,
      "time": 43.2,
      "duration": 1.1983333333333377,
      "velocity": 0.6299212598425197,
      "name": "A#3"
    },
    {
      "midi": 43,
      "frequency": 98,
      "time": 43.2,
      "duration": 0.39833333333333343,
      "velocity": 0.6299212598425197,
      "name": "G2"
    },
    {
      "midi": 50,
      "frequency": 146.83,
      "time": 43.6,
      "duration": 0.39833333333333343,
      "velocity": 0.6299212598425197,
      "name": "D3"
    },
    {
      "midi": 55,
      "frequency": 196,
      "time": 44,
      "duration": 1.5983333333333363,
      "velocity": 0.6299212598425197,
      "name": "G3"
    },
    {
      "midi": 65,
      "frequency": 349.23,
      "time": 44.400000000000006,
      "duration": 0.39833333333333343,
      "velocity": 0.6299212598425197,
      "name": "F4"
    },
    {
      "midi": 63,
      "frequency": 311.13,
      "time": 44.800000000000004,
      "duration": 0.19833333333333059,
      "velocity": 0.6299212598425197,
      "name": "D#4"
    },
    {
      "midi": 62,
      "frequency": 293.66,
      "time": 45,
      "duration": 0.5983333333333363,
      "velocity": 0.6299212598425197,
      "name": "D4"
    },
    {
      "midi": 57,
      "frequency": 220,
      "time": 45.6,
      "duration": 0.7983333333333391,
      "velocity": 0.6299212598425197,
      "name": "A3"
    },
    {
      "midi": 41,
      "frequency": 87.31,
      "time": 45.6,
      "duration": 0.39833333333333343,
      "velocity": 0.6299212598425197,
      "name": "F2"
    },
    {
      "midi": 48,
      "frequency": 130.81,
      "time": 46,
      "duration": 0.39833333333334053,
      "velocity": 0.6299212598425197,
      "name": "C3"
    },
    {
      "midi": 58,
      "frequency": 233.08,
      "time": 46.400000000000006,
      "duration": 0.39833333333333343,
      "velocity": 0.6299212598425197,
      "name": "A#3"
    },
    {
      "midi": 53,
      "frequency": 174.61,
      "time": 46.400000000000006,
      "duration": 1.5983333333333292,
      "velocity": 0.6299212598425197,
      "name": "F3"
    },
    {
      "midi": 55,
      "frequency": 196,
      "time": 46.800000000000004,
      "duration": 0.798333333333332,
      "velocity": 0.6299212598425197,
      "name": "G3"
    },
    {
      "midi": 57,
      "frequency": 220,
      "time": 47.6,
      "duration": 0.39833333333333343,
      "velocity": 0.6299212598425197,
      "name": "A3"
    },
    {
      "midi": 55,
      "frequency": 196,
      "time": 48,
      "duration": 1.2000000000000028,
      "velocity": 0.6299212598425197,
      "name": "G3"
    },
    {
      "midi": 39,
      "frequency": 77.78,
      "time": 48,
      "duration": 0.39833333333334053,
      "velocity": 0.6299212598425197,
      "name": "D#2"
    },
    {
      "midi": 46,
      "frequency": 116.54,
      "time": 48.400000000000006,
      "duration": 0.39833333333333343,
      "velocity": 0.6299212598425197,
      "name": "A#2"
    },
    {
      "midi": 51,
      "frequency": 155.56,
      "time": 48.800000000000004,
      "duration": 0.39833333333333343,
      "velocity": 0.6299212598425197,
      "name": "D#3"
    },
    {
      "midi": 55,
      "frequency": 196,
      "time": 49.2,
      "duration": 1.1983333333333377,
      "velocity": 0.6299212598425197,
      "name": "G3"
    },
    {
      "midi": 51,
      "frequency": 155.56,
      "time": 49.6,
      "duration": 0.39833333333333343,
      "velocity": 0.6299212598425197,
      "name": "D#3"
    },
    {
      "midi": 46,
      "frequency": 116.54,
      "time": 50,
      "duration": 0.39833333333334053,
      "velocity": 0.6299212598425197,
      "name": "A#2"
    },
    {
      "midi": 63,
      "frequency": 311.13,
      "time": 50.400000000000006,
      "duration": 1.1983333333333306,
      "velocity": 0.6299212598425197,
      "name": "D#4"
    },
    {
      "midi": 67,
      "frequency": 392,
      "time": 50.400000000000006,
      "duration": 1.1983333333333306,
      "velocity": 0.6299212598425197,
      "name": "G4"
    },
    {
      "midi": 39,
      "frequency": 77.78,
      "time": 50.400000000000006,
      "duration": 0.39833333333333343,
      "velocity": 0.6299212598425197,
      "name": "D#2"
    },
    {
      "midi": 46,
      "frequency": 116.54,
      "time": 50.800000000000004,
      "duration": 0.39833333333333343,
      "velocity": 0.6299212598425197,
      "name": "A#2"
    },
    {
      "midi": 51,
      "frequency": 155.56,
      "time": 51.2,
      "duration": 0.39833333333333343,
      "velocity": 0.6299212598425197,
      "name": "D#3"
    },
    {
      "midi": 65,
      "frequency": 349.23,
      "time": 51.6,
      "duration": 1.1983333333333377,
      "velocity": 0.6299212598425197,
      "name": "F4"
    },
    {
      "midi": 69,
      "frequency": 440,
      "time": 51.6,
      "duration": 1.1983333333333377,
      "velocity": 0.6299212598425197,
      "name": "A4"
    },
    {
      "midi": 55,
      "frequency": 196,
      "time": 51.6,
      "duration": 0.39833333333333343,
      "velocity": 0.6299212598425197,
      "name": "G3"
    },
    {
      "midi": 51,
      "frequency": 155.56,
      "time": 52,
      "duration": 0.39833333333334053,
      "velocity": 0.6299212598425197,
      "name": "D#3"
    },
    {
      "midi": 46,
      "frequency": 116.54,
      "time": 52.400000000000006,
      "duration": 0.39833333333333343,
      "velocity": 0.6299212598425197,
      "name": "A#2"
    },
    {
      "midi": 67,
      "frequency": 392,
      "time": 52.800000000000004,
      "duration": 2.3983333333333334,
      "velocity": 0.6299212598425197,
      "name": "G4"
    },
    {
      "midi": 70,
      "frequency": 466.16,
      "time": 52.800000000000004,
      "duration": 2.3983333333333334,
      "velocity": 0.6299212598425197,
      "name": "A#4"
    },
    {
      "midi": 43,
      "frequency": 98,
      "time": 52.800000000000004,
      "duration": 0.39833333333333343,
      "velocity": 0.6299212598425197,
      "name": "G2"
    },
    {
      "midi": 50,
      "frequency": 146.83,
      "time": 53.2,
      "duration": 0.39833333333333343,
      "velocity": 0.6299212598425197,
      "name": "D3"
    },
    {
      "midi": 55,
      "frequency": 196,
      "time": 53.6,
      "duration": 0.39833333333333343,
      "velocity": 0.6299212598425197,
      "name": "G3"
    },
    {
      "midi": 58,
      "frequency": 233.08,
      "time": 54,
      "duration": 0.39833333333334053,
      "velocity": 0.6299212598425197,
      "name": "A#3"
    },
    {
      "midi": 55,
      "frequency": 196,
      "time": 54.400000000000006,
      "duration": 0.39833333333333343,
      "velocity": 0.6299212598425197,
      "name": "G3"
    },
    {
      "midi": 50,
      "frequency": 146.83,
      "time": 54.800000000000004,
      "duration": 0.39833333333333343,
      "velocity": 0.6299212598425197,
      "name": "D3"
    },
    {
      "midi": 65,
      "frequency": 349.23,
      "time": 55.2,
      "duration": 2.3983333333333334,
      "velocity": 0.6299212598425197,
      "name": "F4"
    },
    {
      "midi": 69,
      "frequency": 440,
      "time": 55.2,
      "duration": 2.3983333333333334,
      "velocity": 0.6299212598425197,
      "name": "A4"
    },
    {
      "midi": 41,
      "frequency": 87.31,
      "time": 55.2,
      "duration": 2.3983333333333334,
      "velocity": 0.6299212598425197,
      "name": "F2"
    },
    {
      "midi": 62,
      "frequency": 293.66,
      "time": 57.6,
      "duration": 0.39833333333333343,
      "velocity": 0.6299212598425197,
      "name": "D4"
    },
    {
      "midi": 46,
      "frequency": 116.54,
      "time": 57.6,
      "duration": 0.39833333333333343,
      "velocity": 0.6299212598425197,
      "name": "A#2"
    },
    {
      "midi": 65,
      "frequency": 349.23,
      "time": 58,
      "duration": 0.1983333333333377,
      "velocity": 0.6299212598425197,
      "name": "F4"
    },
    {
      "midi": 50,
      "frequency": 146.83,
      "time": 58,
      "duration": 0.39833333333333343,
      "velocity": 0.6299212598425197,
      "name": "D3"
    },
    {
      "midi": 62,
      "frequency": 293.66,
      "time": 58.2,
      "duration": 0.5983333333333292,
      "velocity": 0.6299212598425197,
      "name": "D4"
    },
    {
      "midi": 53,
      "frequency": 174.61,
      "time": 58.4,
      "duration": 0.39833333333333343,
      "velocity": 0.6299212598425197,
      "name": "F3"
    },
    {
      "midi": 62,
      "frequency": 293.66,
      "time": 58.800000000000004,
      "duration": 0.39833333333333343,
      "velocity": 0.6299212598425197,
      "name": "D4"
    },
    {
      "midi": 58,
      "frequency": 233.08,
      "time": 58.800000000000004,
      "duration": 0.39833333333333343,
      "velocity": 0.6299212598425197,
      "name": "A#3"
    },
    {
      "midi": 65,
      "frequency": 349.23,
      "time": 59.2,
      "duration": 0.19833333333333059,
      "velocity": 0.6299212598425197,
      "name": "F4"
    },
    {
      "midi": 53,
      "frequency": 174.61,
      "time": 59.2,
      "duration": 0.39833333333333343,
      "velocity": 0.6299212598425197,
      "name": "F3"
    },
    {
      "midi": 62,
      "frequency": 293.66,
      "time": 59.4,
      "duration": 0.5983333333333363,
      "velocity": 0.6299212598425197,
      "name": "D4"
    },
    {
      "midi": 50,
      "frequency": 146.83,
      "time": 59.6,
      "duration": 0.39833333333333343,
      "velocity": 0.6299212598425197,
      "name": "D3"
    },
    {
      "midi": 67,
      "frequency": 392,
      "time": 60,
      "duration": 0.798333333333332,
      "velocity": 0.6299212598425197,
      "name": "G4"
    },
    {
      "midi": 46,
      "frequency": 116.54,
      "time": 60,
      "duration": 0.39833333333333343,
      "velocity": 0.6299212598425197,
      "name": "A#2"
    },
    {
      "midi": 53,
      "frequency": 174.61,
      "time": 60.4,
      "duration": 0.39833333333333343,
      "velocity": 0.6299212598425197,
      "name": "F3"
    },
    {
      "midi": 65,
      "frequency": 349.23,
      "time": 60.800000000000004,
      "duration": 0.39833333333333343,
      "velocity": 0.6299212598425197,
      "name": "F4"
    },
    {
      "midi": 58,
      "frequency": 233.08,
      "time": 60.800000000000004,
      "duration": 0.39833333333333343,
      "velocity": 0.6299212598425197,
      "name": "A#3"
    },
    {
      "midi": 62,
      "frequency": 293.66,
      "time": 61.2,
      "duration": 0.39833333333333343,
      "velocity": 0.6299212598425197,
      "name": "D4"
    },
    {
      "midi": 45,
      "frequency": 110,
      "time": 61.2,
      "duration": 0.39833333333333343,
      "velocity": 0.6299212598425197,
      "name": "A2"
    },
    {
      "midi": 58,
      "frequency": 233.08,
      "time": 61.6,
      "duration": 0.798333333333332,
      "velocity": 0.6299212598425197,
      "name": "A#3"
    },
    {
      "midi": 53,
      "frequency": 174.61,
      "time": 61.6,
      "duration": 0.39833333333333343,
      "velocity": 0.6299212598425197,
      "name": "F3"
    },
    {
      "midi": 57,
      "frequency": 220,
      "time": 62,
      "duration": 0.39833333333333343,
      "velocity": 0.6299212598425197,
      "name": "A3"
    },
    {
      "midi": 62,
      "frequency": 293.66,
      "time": 62.400000000000006,
      "duration": 0.3983333333333263,
      "velocity": 0.6299212598425197,
      "name": "D4"
    },
    {
      "midi": 43,
      "frequency": 98,
      "time": 62.400000000000006,
      "duration": 0.3983333333333263,
      "velocity": 0.6299212598425197,
      "name": "G2"
    },
    {
      "midi": 65,
      "frequency": 349.23,
      "time": 62.800000000000004,
      "duration": 0.19833333333333059,
      "velocity": 0.6299212598425197,
      "name": "F4"
    },
    {
      "midi": 50,
      "frequency": 146.83,
      "time": 62.800000000000004,
      "duration": 0.39833333333333343,
      "velocity": 0.6299212598425197,
      "name": "D3"
    },
    {
      "midi": 62,
      "frequency": 293.66,
      "time": 63,
      "duration": 0.5983333333333363,
      "velocity": 0.6299212598425197,
      "name": "D4"
    },
    {
      "midi": 55,
      "frequency": 196,
      "time": 63.2,
      "duration": 0.39833333333333343,
      "velocity": 0.6299212598425197,
      "name": "G3"
    },
    {
      "midi": 62,
      "frequency": 293.66,
      "time": 63.6,
      "duration": 0.39833333333333343,
      "velocity": 0.6299212598425197,
      "name": "D4"
    },
    {
      "midi": 58,
      "frequency": 233.08,
      "time": 63.6,
      "duration": 0.39833333333333343,
      "velocity": 0.6299212598425197,
      "name": "A#3"
    },
    {
      "midi": 65,
      "frequency": 349.23,
      "time": 64,
      "duration": 0.1983333333333377,
      "velocity": 0.6299212598425197,
      "name": "F4"
    },
    {
      "midi": 55,
      "frequency": 196,
      "time": 64,
      "duration": 0.39833333333334053,
      "velocity": 0.6299212598425197,
      "name": "G3"
    },
    {
      "midi": 62,
      "frequency": 293.66,
      "time": 64.2,
      "duration": 0.5983333333333292,
      "velocity": 0.6299212598425197,
      "name": "D4"
    },
    {
      "midi": 50,
      "frequency": 146.83,
      "time": 64.4,
      "duration": 0.3983333333333263,
      "velocity": 0.6299212598425197,
      "name": "D3"
    },
    {
      "midi": 67,
      "frequency": 392,
      "time": 64.8,
      "duration": 0.798333333333332,
      "velocity": 0.6299212598425197,
      "name": "G4"
    },
    {
      "midi": 43,
      "frequency": 98,
      "time": 64.8,
      "duration": 0.39833333333334053,
      "velocity": 0.6299212598425197,
      "name": "G2"
    },
    {
      "midi": 50,
      "frequency": 146.83,
      "time": 65.2,
      "duration": 0.3983333333333263,
      "velocity": 0.6299212598425197,
      "name": "D3"
    },
    {
      "midi": 65,
      "frequency": 349.23,
      "time": 65.6,
      "duration": 0.39833333333334053,
      "velocity": 0.6299212598425197,
      "name": "F4"
    },
    {
      "midi": 55,
      "frequency": 196,
      "time": 65.6,
      "duration": 0.39833333333334053,
      "velocity": 0.6299212598425197,
      "name": "G3"
    },
    {
      "midi": 62,
      "frequency": 293.66,
      "time": 66,
      "duration": 0.39833333333334053,
      "velocity": 0.6299212598425197,
      "name": "D4"
    },
    {
      "midi": 41,
      "frequency": 87.31,
      "time": 66,
      "duration": 0.39833333333334053,
      "velocity": 0.6299212598425197,
      "name": "F2"
    },
    {
      "midi": 58,
      "frequency": 233.08,
      "time": 66.4,
      "duration": 0.3983333333333263,
      "velocity": 0.6299212598425197,
      "name": "A#3"
    },
    {
      "midi": 50,
      "frequency": 146.83,
      "time": 66.4,
      "duration": 0.3983333333333263,
      "velocity": 0.6299212598425197,
      "name": "D3"
    },
    {
      "midi": 58,
      "frequency": 233.08,
      "time": 66.8,
      "duration": 0.1983333333333377,
      "velocity": 0.6299212598425197,
      "name": "A#3"
    },
    {
      "midi": 53,
      "frequency": 174.61,
      "time": 66.8,
      "duration": 0.39833333333334053,
      "velocity": 0.6299212598425197,
      "name": "F3"
    },
    {
      "midi": 58,
      "frequency": 233.08,
      "time": 67,
      "duration": 0.1983333333333377,
      "velocity": 0.6299212598425197,
      "name": "A#3"
    },
    {
      "midi": 63,
      "frequency": 311.13,
      "time": 67.2,
      "duration": 1.9983333333333348,
      "velocity": 0.6299212598425197,
      "name": "D#4"
    },
    {
      "midi": 58,
      "frequency": 233.08,
      "time": 67.2,
      "duration": 1.9983333333333348,
      "velocity": 0.6299212598425197,
      "name": "A#3"
    },
    {
      "midi": 39,
      "frequency": 77.78,
      "time": 67.2,
      "duration": 0.3983333333333263,
      "velocity": 0.6299212598425197,
      "name": "D#2"
    },
    {
      "midi": 46,
      "frequency": 116.54,
      "time": 67.6,
      "duration": 0.39833333333334053,
      "velocity": 0.6299212598425197,
      "name": "A#2"
    },
    {
      "midi": 51,
      "frequency": 155.56,
      "time": 68,
      "duration": 0.39833333333334053,
      "velocity": 0.6299212598425197,
      "name": "D#3"
    },
    {
      "midi": 55,
      "frequency": 196,
      "time": 68.4,
      "duration": 0.3983333333333263,
      "velocity": 0.6299212598425197,
      "name": "G3"
    },
    {
      "midi": 51,
      "frequency": 155.56,
      "time": 68.8,
      "duration": 0.39833333333334053,
      "velocity": 0.6299212598425197,
      "name": "D#3"
    },
    {
      "midi": 62,
      "frequency": 293.66,
      "time": 69.2,
      "duration": 0.3983333333333263,
      "velocity": 0.6299212598425197,
      "name": "D4"
    },
    {
      "midi": 46,
      "frequency": 116.54,
      "time": 69.2,
      "duration": 0.3983333333333263,
      "velocity": 0.6299212598425197,
      "name": "A#2"
    },
    {
      "midi": 55,
      "frequency": 196,
      "time": 69.6,
      "duration": 0.7983333333333462,
      "velocity": 0.6299212598425197,
      "name": "G3"
    },
    {
      "midi": 39,
      "frequency": 77.78,
      "time": 69.6,
      "duration": 0.39833333333334053,
      "velocity": 0.6299212598425197,
      "name": "D#2"
    },
    {
      "midi": 46,
      "frequency": 116.54,
      "time": 70,
      "duration": 0.39833333333334053,
      "velocity": 0.6299212598425197,
      "name": "A#2"
    },
    {
      "midi": 58,
      "frequency": 233.08,
      "time": 70.4,
      "duration": 0.3983333333333263,
      "velocity": 0.6299212598425197,
      "name": "A#3"
    },
    {
      "midi": 51,
      "frequency": 155.56,
      "time": 70.4,
      "duration": 1.5983333333333292,
      "velocity": 0.6299212598425197,
      "name": "D#3"
    },
    {
      "midi": 58,
      "frequency": 233.08,
      "time": 70.8,
      "duration": 0.39833333333334053,
      "velocity": 0.6299212598425197,
      "name": "A#3"
    },
    {
      "midi": 58,
      "frequency": 233.08,
      "time": 71.2,
      "duration": 0.3983333333333263,
      "velocity": 0.6299212598425197,
      "name": "A#3"
    },
    {
      "midi": 60,
      "frequency": 261.63,
      "time": 71.6,
      "duration": 0.1983333333333377,
      "velocity": 0.6299212598425197,
      "name": "C4"
    },
    {
      "midi": 58,
      "frequency": 233.08,
      "time": 71.8,
      "duration": 0.1983333333333377,
      "velocity": 0.6299212598425197,
      "name": "A#3"
    },
    {
      "midi": 60,
      "frequency": 261.63,
      "time": 72,
      "duration": 1.1983333333333377,
      "velocity": 0.6299212598425197,
      "name": "C4"
    },
    {
      "midi": 63,
      "frequency": 311.13,
      "time": 72,
      "duration": 1.1983333333333377,
      "velocity": 0.6299212598425197,
      "name": "D#4"
    },
    {
      "midi": 41,
      "frequency": 87.31,
      "time": 72,
      "duration": 0.39833333333334053,
      "velocity": 0.6299212598425197,
      "name": "F2"
    },
    {
      "midi": 48,
      "frequency": 130.81,
      "time": 72.4,
      "duration": 0.3983333333333263,
      "velocity": 0.6299212598425197,
      "name": "C3"
    },
    {
      "midi": 53,
      "frequency": 174.61,
      "time": 72.8,
      "duration": 0.39833333333334053,
      "velocity": 0.6299212598425197,
      "name": "F3"
    },
    {
      "midi": 62,
      "frequency": 293.66,
      "time": 73.2,
      "duration": 1.1983333333333377,
      "velocity": 0.6299212598425197,
      "name": "D4"
    },
    {
      "midi": 57,
      "frequency": 220,
      "time": 73.2,
      "duration": 0.3983333333333263,
      "velocity": 0.6299212598425197,
      "name": "A3"
    },
    {
      "midi": 53,
      "frequency": 174.61,
      "time": 73.6,
      "duration": 0.39833333333334053,
      "velocity": 0.6299212598425197,
      "name": "F3"
    },
    {
      "midi": 48,
      "frequency": 130.81,
      "time": 74,
      "duration": 0.39833333333334053,
      "velocity": 0.6299212598425197,
      "name": "C3"
    },
    {
      "midi": 53,
      "frequency": 174.61,
      "time": 74.4,
      "duration": 2.3983333333333263,
      "velocity": 0.6299212598425197,
      "name": "F3"
    },
    {
      "midi": 41,
      "frequency": 87.31,
      "time": 74.4,
      "duration": 2.3983333333333263,
      "velocity": 0.6299212598425197,
      "name": "F2"
    },
    {
      "midi": 70,
      "frequency": 466.16,
      "time": 76.80000000000001,
      "duration": 1.1983333333333235,
      "velocity": 0.6299212598425197,
      "name": "A#4"
    },
    {
      "midi": 39,
      "frequency": 77.78,
      "time": 76.80000000000001,
      "duration": 0.3983333333333263,
      "velocity": 0.6299212598425197,
      "name": "D#2"
    },
    {
      "midi": 46,
      "frequency": 116.54,
      "time": 77.2,
      "duration": 0.3983333333333263,
      "velocity": 0.6299212598425197,
      "name": "A#2"
    },
    {
      "midi": 51,
      "frequency": 155.56,
      "time": 77.6,
      "duration": 0.39833333333334053,
      "velocity": 0.6299212598425197,
      "name": "D#3"
    },
    {
      "midi": 69,
      "frequency": 440,
      "time": 78,
      "duration": 1.1983333333333377,
      "velocity": 0.6299212598425197,
      "name": "A4"
    },
    {
      "midi": 55,
      "frequency": 196,
      "time": 78,
      "duration": 0.39833333333334053,
      "velocity": 0.6299212598425197,
      "name": "G3"
    },
    {
      "midi": 51,
      "frequency": 155.56,
      "time": 78.4,
      "duration": 0.3983333333333263,
      "velocity": 0.6299212598425197,
      "name": "D#3"
    },
    {
      "midi": 46,
      "frequency": 116.54,
      "time": 78.80000000000001,
      "duration": 0.3983333333333263,
      "velocity": 0.6299212598425197,
      "name": "A#2"
    },
    {
      "midi": 65,
      "frequency": 349.23,
      "time": 79.2,
      "duration": 2.3983333333333263,
      "velocity": 0.6299212598425197,
      "name": "F4"
    },
    {
      "midi": 39,
      "frequency": 77.78,
      "time": 79.2,
      "duration": 2.3983333333333263,
      "velocity": 0.6299212598425197,
      "name": "D#2"
    },
    {
      "midi": 58,
      "frequency": 233.08,
      "time": 81.6,
      "duration": 1.1983333333333377,
      "velocity": 0.6299212598425197,
      "name": "A#3"
    },
    {
      "midi": 39,
      "frequency": 77.78,
      "time": 81.6,
      "duration": 0.39833333333334053,
      "velocity": 0.6299212598425197,
      "name": "D#2"
    },
    {
      "midi": 46,
      "frequency": 116.54,
      "time": 82,
      "duration": 0.3983333333333263,
      "velocity": 0.6299212598425197,
      "name": "A#2"
    },
    {
      "midi": 51,
      "frequency": 155.56,
      "time": 82.39999999999999,
      "duration": 0.798333333333332,
      "velocity": 0.6299212598425197,
      "name": "D#3"
    },
    {
      "midi": 58,
      "frequency": 233.08,
      "time": 82.8,
      "duration": 1.1983333333333377,
      "velocity": 0.6299212598425197,
      "name": "A#3"
    },
    {
      "midi": 51,
      "frequency": 155.56,
      "time": 83.19999999999999,
      "duration": 0.39833333333334053,
      "velocity": 0.6299212598425197,
      "name": "D#3"
    },
    {
      "midi": 46,
      "frequency": 116.54,
      "time": 83.6,
      "duration": 0.39833333333334053,
      "velocity": 0.6299212598425197,
      "name": "A#2"
    },
    {
      "midi": 58,
      "frequency": 233.08,
      "time": 84,
      "duration": 1.1983333333333235,
      "velocity": 0.6299212598425197,
      "name": "A#3"
    },
    {
      "midi": 39,
      "frequency": 77.78,
      "time": 84,
      "duration": 0.3983333333333263,
      "velocity": 0.6299212598425197,
      "name": "D#2"
    },
    {
      "midi": 46,
      "frequency": 116.54,
      "time": 84.39999999999999,
      "duration": 0.39833333333334053,
      "velocity": 0.6299212598425197,
      "name": "A#2"
    },
    {
      "midi": 51,
      "frequency": 155.56,
      "time": 84.8,
      "duration": 0.798333333333332,
      "velocity": 0.6299212598425197,
      "name": "D#3"
    },
    {
      "midi": 62,
      "frequency": 293.66,
      "time": 85.19999999999999,
      "duration": 0.1983333333333377,
      "velocity": 0.6299212598425197,
      "name": "D4"
    },
    {
      "midi": 60,
      "frequency": 261.63,
      "time": 85.39999999999999,
      "duration": 0.5983333333333434,
      "velocity": 0.6299212598425197,
      "name": "C4"
    },
    {
      "midi": 46,
      "frequency": 116.54,
      "time": 85.6,
      "duration": 0.798333333333332,
      "velocity": 0.6299212598425197,
      "name": "A#2"
    },
    {
      "midi": 58,
      "frequency": 233.08,
      "time": 86,
      "duration": 0.3983333333333263,
      "velocity": 0.6299212598425197,
      "name": "A#3"
    },
    {
      "midi": 58,
      "frequency": 233.08,
      "time": 86.39999999999999,
      "duration": 1.1983333333333377,
      "velocity": 0.6299212598425197,
      "name": "A#3"
    },
    {
      "midi": 46,
      "frequency": 116.54,
      "time": 86.39999999999999,
      "duration": 0.39833333333334053,
      "velocity": 0.6299212598425197,
      "name": "A#2"
    },
    {
      "midi": 50,
      "frequency": 146.83,
      "time": 86.8,
      "duration": 0.3983333333333263,
      "velocity": 0.6299212598425197,
      "name": "D3"
    },
    {
      "midi": 53,
      "frequency": 174.61,
      "time": 87.19999999999999,
      "duration": 0.7983333333333462,
      "velocity": 0.6299212598425197,
      "name": "F3"
    },
    {
      "midi": 58,
      "frequency": 233.08,
      "time": 87.6,
      "duration": 1.1983333333333377,
      "velocity": 0.6299212598425197,
      "name": "A#3"
    },
    {
      "midi": 53,
      "frequency": 174.61,
      "time": 88,
      "duration": 0.3983333333333263,
      "velocity": 0.6299212598425197,
      "name": "F3"
    },
    {
      "midi": 50,
      "frequency": 146.83,
      "time": 88.39999999999999,
      "duration": 0.39833333333334053,
      "velocity": 0.6299212598425197,
      "name": "D3"
    },
    {
      "midi": 58,
      "frequency": 233.08,
      "time": 88.8,
      "duration": 1.1983333333333377,
      "velocity": 0.6299212598425197,
      "name": "A#3"
    },
    {
      "midi": 46,
      "frequency": 116.54,
      "time": 88.8,
      "duration": 0.3983333333333263,
      "velocity": 0.6299212598425197,
      "name": "A#2"
    },
    {
      "midi": 50,
      "frequency": 146.83,
      "time": 89.19999999999999,
      "duration": 0.39833333333334053,
      "velocity": 0.6299212598425197,
      "name": "D3"
    },
    {
      "midi": 53,
      "frequency": 174.61,
      "time": 89.6,
      "duration": 1.5983333333333292,
      "velocity": 0.6299212598425197,
      "name": "F3"
    },
    {
      "midi": 65,
      "frequency": 349.23,
      "time": 90,
      "duration": 0.3983333333333263,
      "velocity": 0.6299212598425197,
      "name": "F4"
    },
    {
      "midi": 63,
      "frequency": 311.13,
      "time": 90.39999999999999,
      "duration": 0.1983333333333377,
      "velocity": 0.6299212598425197,
      "name": "D#4"
    },
    {
      "midi": 62,
      "frequency": 293.66,
      "time": 90.6,
      "duration": 0.5983333333333292,
      "velocity": 0.6299212598425197,
      "name": "D4"
    },
    {
      "midi": 58,
      "frequency": 233.08,
      "time": 91.19999999999999,
      "duration": 1.1983333333333377,
      "velocity": 0.6299212598425197,
      "name": "A#3"
    },
    {
      "midi": 43,
      "frequency": 98,
      "time": 91.19999999999999,
      "duration": 0.39833333333334053,
      "velocity": 0.6299212598425197,
      "name": "G2"
    },
    {
      "midi": 50,
      "frequency": 146.83,
      "time": 91.6,
      "duration": 0.39833333333334053,
      "velocity": 0.6299212598425197,
      "name": "D3"
    },
    {
      "midi": 55,
      "frequency": 196,
      "time": 92,
      "duration": 1.5983333333333292,
      "velocity": 0.6299212598425197,
      "name": "G3"
    },
    {
      "midi": 65,
      "frequency": 349.23,
      "time": 92.39999999999999,
      "duration": 0.39833333333334053,
      "velocity": 0.6299212598425197,
      "name": "F4"
    },
    {
      "midi": 63,
      "frequency": 311.13,
      "time": 92.8,
      "duration": 0.1983333333333377,
      "velocity": 0.6299212598425197,
      "name": "D#4"
    },
    {
      "midi": 62,
      "frequency": 293.66,
      "time": 93,
      "duration": 0.5983333333333292,
      "velocity": 0.6299212598425197,
      "name": "D4"
    },
    {
      "midi": 57,
      "frequency": 220,
      "time": 93.6,
      "duration": 0.798333333333332,
      "velocity": 0.6299212598425197,
      "name": "A3"
    },
    {
      "midi": 41,
      "frequency": 87.31,
      "time": 93.6,
      "duration": 0.39833333333334053,
      "velocity": 0.6299212598425197,
      "name": "F2"
    },
    {
      "midi": 48,
      "frequency": 130.81,
      "time": 94,
      "duration": 0.3983333333333263,
      "velocity": 0.6299212598425197,
      "name": "C3"
    },
    {
      "midi": 58,
      "frequency": 233.08,
      "time": 94.4,
      "duration": 0.3983333333333263,
      "velocity": 0.6299212598425197,
      "name": "A#3"
    },
    {
      "midi": 53,
      "frequency": 174.61,
      "time": 94.4,
      "duration": 1.5983333333333292,
      "velocity": 0.6299212598425197,
      "name": "F3"
    },
    {
      "midi": 55,
      "frequency": 196,
      "time": 94.8,
      "duration": 0.798333333333332,
      "velocity": 0.6299212598425197,
      "name": "G3"
    },
    {
      "midi": 57,
      "frequency": 220,
      "time": 95.6,
      "duration": 0.39833333333334053,
      "velocity": 0.6299212598425197,
      "name": "A3"
    },
    {
      "midi": 58,
      "frequency": 233.08,
      "time": 96,
      "duration": 1.1983333333333235,
      "velocity": 0.6299212598425197,
      "name": "A#3"
    },
    {
      "midi": 39,
      "frequency": 77.78,
      "time": 96,
      "duration": 0.3983333333333263,
      "velocity": 0.6299212598425197,
      "name": "D#2"
    },
    {
      "midi": 46,
      "frequency": 116.54,
      "time": 96.4,
      "duration": 0.3983333333333263,
      "velocity": 0.6299212598425197,
      "name": "A#2"
    },
    {
      "midi": 51,
      "frequency": 155.56,
      "time": 96.8,
      "duration": 0.798333333333332,
      "velocity": 0.6299212598425197,
      "name": "D#3"
    },
    {
      "midi": 58,
      "frequency": 233.08,
      "time": 97.2,
      "duration": 1.1983333333333235,
      "velocity": 0.6299212598425197,
      "name": "A#3"
    },
    {
      "midi": 51,
      "frequency": 155.56,
      "time": 97.6,
      "duration": 0.39833333333334053,
      "velocity": 0.6299212598425197,
      "name": "D#3"
    },
    {
      "midi": 46,
      "frequency": 116.54,
      "time": 98,
      "duration": 0.3983333333333263,
      "velocity": 0.6299212598425197,
      "name": "A#2"
    },
    {
      "midi": 58,
      "frequency": 233.08,
      "time": 98.4,
      "duration": 0.7983333333333178,
      "velocity": 0.6299212598425197,
      "name": "A#3"
    },
    {
      "midi": 39,
      "frequency": 77.78,
      "time": 98.4,
      "duration": 0.3983333333333263,
      "velocity": 0.6299212598425197,
      "name": "D#2"
    },
    {
      "midi": 46,
      "frequency": 116.54,
      "time": 98.8,
      "duration": 0.3983333333333263,
      "velocity": 0.6299212598425197,
      "name": "A#2"
    },
    {
      "midi": 51,
      "frequency": 155.56,
      "time": 99.2,
      "duration": 1.5983333333333292,
      "velocity": 0.6299212598425197,
      "name": "D#3"
    },
    {
      "midi": 58,
      "frequency": 233.08,
      "time": 99.4,
      "duration": 0.19833333333332348,
      "velocity": 0.6299212598425197,
      "name": "A#3"
    },
    {
      "midi": 62,
      "frequency": 293.66,
      "time": 99.6,
      "duration": 0.39833333333334053,
      "velocity": 0.6299212598425197,
      "name": "D4"
    },
    {
      "midi": 60,
      "frequency": 261.63,
      "time": 100,
      "duration": 0.3983333333333263,
      "velocity": 0.6299212598425197,
      "name": "C4"
    },
    {
      "midi": 58,
      "frequency": 233.08,
      "time": 100.4,
      "duration": 0.3983333333333263,
      "velocity": 0.6299212598425197,
      "name": "A#3"
    },
    {
      "midi": 58,
      "frequency": 233.08,
      "time": 100.8,
      "duration": 1.1983333333333377,
      "velocity": 0.6299212598425197,
      "name": "A#3"
    },
    {
      "midi": 46,
      "frequency": 116.54,
      "time": 100.8,
      "duration": 0.3983333333333263,
      "velocity": 0.6299212598425197,
      "name": "A#2"
    },
    {
      "midi": 50,
      "frequency": 146.83,
      "time": 101.2,
      "duration": 0.3983333333333263,
      "velocity": 0.6299212598425197,
      "name": "D3"
    },
    {
      "midi": 53,
      "frequency": 174.61,
      "time": 101.6,
      "duration": 0.798333333333332,
      "velocity": 0.6299212598425197,
      "name": "F3"
    },
    {
      "midi": 58,
      "frequency": 233.08,
      "time": 102,
      "duration": 1.1983333333333235,
      "velocity": 0.6299212598425197,
      "name": "A#3"
    },
    {
      "midi": 53,
      "frequency": 174.61,
      "time": 102.4,
      "duration": 0.3983333333333263,
      "velocity": 0.6299212598425197,
      "name": "F3"
    },
    {
      "midi": 50,
      "frequency": 146.83,
      "time": 102.8,
      "duration": 0.3983333333333263,
      "velocity": 0.6299212598425197,
      "name": "D3"
    },
    {
      "midi": 58,
      "frequency": 233.08,
      "time": 103.2,
      "duration": 1.1983333333333235,
      "velocity": 0.6299212598425197,
      "name": "A#3"
    },
    {
      "midi": 46,
      "frequency": 116.54,
      "time": 103.2,
      "duration": 0.3983333333333263,
      "velocity": 0.6299212598425197,
      "name": "A#2"
    },
    {
      "midi": 50,
      "frequency": 146.83,
      "time": 103.6,
      "duration": 0.39833333333334053,
      "velocity": 0.6299212598425197,
      "name": "D3"
    },
    {
      "midi": 53,
      "frequency": 174.61,
      "time": 104,
      "duration": 0.3983333333333263,
      "velocity": 0.6299212598425197,
      "name": "F3"
    },
    {
      "midi": 65,
      "frequency": 349.23,
      "time": 104.4,
      "duration": 0.3983333333333263,
      "velocity": 0.6299212598425197,
      "name": "F4"
    },
    {
      "midi": 58,
      "frequency": 233.08,
      "time": 104.4,
      "duration": 1.1983333333333235,
      "velocity": 0.6299212598425197,
      "name": "A#3"
    },
    {
      "midi": 63,
      "frequency": 311.13,
      "time": 104.8,
      "duration": 0.1983333333333377,
      "velocity": 0.6299212598425197,
      "name": "D#4"
    },
    {
      "midi": 62,
      "frequency": 293.66,
      "time": 105,
      "duration": 0.5983333333333292,
      "velocity": 0.6299212598425197,
      "name": "D4"
    },
    {
      "midi": 58,
      "frequency": 233.08,
      "time": 105.6,
      "duration": 1.1983333333333377,
      "velocity": 0.6299212598425197,
      "name": "A#3"
    },
    {
      "midi": 43,
      "frequency": 98,
      "time": 105.6,
      "duration": 0.39833333333334053,
      "velocity": 0.6299212598425197,
      "name": "G2"
    },
    {
      "midi": 50,
      "frequency": 146.83,
      "time": 106,
      "duration": 0.3983333333333263,
      "velocity": 0.6299212598425197,
      "name": "D3"
    },
    {
      "midi": 55,
      "frequency": 196,
      "time": 106.4,
      "duration": 1.5983333333333292,
      "velocity": 0.6299212598425197,
      "name": "G3"
    },
    {
      "midi": 65,
      "frequency": 349.23,
      "time": 106.8,
      "duration": 0.3983333333333263,
      "velocity": 0.6299212598425197,
      "name": "F4"
    },
    {
      "midi": 63,
      "frequency": 311.13,
      "time": 107.19999999999999,
      "duration": 0.1983333333333377,
      "velocity": 0.6299212598425197,
      "name": "D#4"
    },
    {
      "midi": 62,
      "frequency": 293.66,
      "time": 107.39999999999999,
      "duration": 0.5983333333333434,
      "velocity": 0.6299212598425197,
      "name": "D4"
    },
    {
      "midi": 57,
      "frequency": 220,
      "time": 108,
      "duration": 0.798333333333332,
      "velocity": 0.6299212598425197,
      "name": "A3"
    },
    {
      "midi": 41,
      "frequency": 87.31,
      "time": 108,
      "duration": 0.3983333333333263,
      "velocity": 0.6299212598425197,
      "name": "F2"
    },
    {
      "midi": 48,
      "frequency": 130.81,
      "time": 108.39999999999999,
      "duration": 0.39833333333334053,
      "velocity": 0.6299212598425197,
      "name": "C3"
    },
    {
      "midi": 58,
      "frequency": 233.08,
      "time": 108.8,
      "duration": 0.3983333333333263,
      "velocity": 0.6299212598425197,
      "name": "A#3"
    },
    {
      "midi": 53,
      "frequency": 174.61,
      "time": 108.8,
      "duration": 1.5983333333333292,
      "velocity": 0.6299212598425197,
      "name": "F3"
    },
    {
      "midi": 55,
      "frequency": 196,
      "time": 109.19999999999999,
      "duration": 0.7983333333333462,
      "velocity": 0.6299212598425197,
      "name": "G3"
    },
    {
      "midi": 57,
      "frequency": 220,
      "time": 110,
      "duration": 0.3983333333333263,
      "velocity": 0.6299212598425197,
      "name": "A3"
    },
    {
      "midi": 55,
      "frequency": 196,
      "time": 110.39999999999999,
      "duration": 1.2000000000000028,
      "velocity": 0.6299212598425197,
      "name": "G3"
    },
    {
      "midi": 39,
      "frequency": 77.78,
      "time": 110.39999999999999,
      "duration": 0.39833333333334053,
      "velocity": 0.6299212598425197,
      "name": "D#2"
    },
    {
      "midi": 46,
      "frequency": 116.54,
      "time": 110.8,
      "duration": 0.3983333333333263,
      "velocity": 0.6299212598425197,
      "name": "A#2"
    },
    {
      "midi": 51,
      "frequency": 155.56,
      "time": 111.19999999999999,
      "duration": 0.39833333333334053,
      "velocity": 0.6299212598425197,
      "name": "D#3"
    },
    {
      "midi": 55,
      "frequency": 196,
      "time": 111.6,
      "duration": 1.1983333333333377,
      "velocity": 0.6299212598425197,
      "name": "G3"
    },
    {
      "midi": 51,
      "frequency": 155.56,
      "time": 112,
      "duration": 0.3983333333333263,
      "velocity": 0.6299212598425197,
      "name": "D#3"
    },
    {
      "midi": 46,
      "frequency": 116.54,
      "time": 112.39999999999999,
      "duration": 0.39833333333334053,
      "velocity": 0.6299212598425197,
      "name": "A#2"
    },
    {
      "midi": 63,
      "frequency": 311.13,
      "time": 112.8,
      "duration": 1.1983333333333377,
      "velocity": 0.6299212598425197,
      "name": "D#4"
    },
    {
      "midi": 67,
      "frequency": 392,
      "time": 112.8,
      "duration": 1.1983333333333377,
      "velocity": 0.6299212598425197,
      "name": "G4"
    },
    {
      "midi": 39,
      "frequency": 77.78,
      "time": 112.8,
      "duration": 0.3983333333333263,
      "velocity": 0.6299212598425197,
      "name": "D#2"
    },
    {
      "midi": 46,
      "frequency": 116.54,
      "time": 113.19999999999999,
      "duration": 0.39833333333334053,
      "velocity": 0.6299212598425197,
      "name": "A#2"
    },
    {
      "midi": 51,
      "frequency": 155.56,
      "time": 113.6,
      "duration": 0.39833333333334053,
      "velocity": 0.6299212598425197,
      "name": "D#3"
    },
    {
      "midi": 65,
      "frequency": 349.23,
      "time": 114,
      "duration": 1.1983333333333235,
      "velocity": 0.6299212598425197,
      "name": "F4"
    },
    {
      "midi": 69,
      "frequency": 440,
      "time": 114,
      "duration": 1.1983333333333235,
      "velocity": 0.6299212598425197,
      "name": "A4"
    },
    {
      "midi": 55,
      "frequency": 196,
      "time": 114,
      "duration": 0.39833333333334053,
      "velocity": 0.6299212598425197,
      "name": "G3"
    },
    {
      "midi": 51,
      "frequency": 155.56,
      "time": 114.4,
      "duration": 0.3983333333333263,
      "velocity": 0.6299212598425197,
      "name": "D#3"
    },
    {
      "midi": 46,
      "frequency": 116.54,
      "time": 114.8,
      "duration": 0.3983333333333263,
      "velocity": 0.6299212598425197,
      "name": "A#2"
    },
    {
      "midi": 67,
      "frequency": 392,
      "time": 115.19999999999999,
      "duration": 2.3983333333333405,
      "velocity": 0.6299212598425197,
      "name": "G4"
    },
    {
      "midi": 70,
      "frequency": 466.16,
      "time": 115.19999999999999,
      "duration": 2.3983333333333405,
      "velocity": 0.6299212598425197,
      "name": "A#4"
    },
    {
      "midi": 43,
      "frequency": 98,
      "time": 115.19999999999999,
      "duration": 0.39833333333334053,
      "velocity": 0.6299212598425197,
      "name": "G2"
    },
    {
      "midi": 50,
      "frequency": 146.83,
      "time": 115.6,
      "duration": 0.39833333333334053,
      "velocity": 0.6299212598425197,
      "name": "D3"
    },
    {
      "midi": 55,
      "frequency": 196,
      "time": 116,
      "duration": 0.39833333333334053,
      "velocity": 0.6299212598425197,
      "name": "G3"
    },
    {
      "midi": 58,
      "frequency": 233.08,
      "time": 116.4,
      "duration": 0.3983333333333263,
      "velocity": 0.6299212598425197,
      "name": "A#3"
    },
    {
      "midi": 55,
      "frequency": 196,
      "time": 116.8,
      "duration": 0.3983333333333263,
      "velocity": 0.6299212598425197,
      "name": "G3"
    },
    {
      "midi": 50,
      "frequency": 146.83,
      "time": 117.19999999999999,
      "duration": 0.39833333333334053,
      "velocity": 0.6299212598425197,
      "name": "D3"
    },
    {
      "midi": 65,
      "frequency": 349.23,
      "time": 117.6,
      "duration": 2.3983333333333405,
      "velocity": 0.6299212598425197,
      "name": "F4"
    },
    {
      "midi": 69,
      "frequency": 440,
      "time": 117.6,
      "duration": 2.3983333333333405,
      "velocity": 0.6299212598425197,
      "name": "A4"
    },
    {
      "midi": 41,
      "frequency": 87.31,
      "time": 117.6,
      "duration": 2.3983333333333405,
      "velocity": 0.6299212598425197,
      "name": "F2"
    },
    {
      "midi": 62,
      "frequency": 293.66,
      "time": 120,
      "duration": 0.3983333333333263,
      "velocity": 0.6299212598425197,
      "name": "D4"
    },
    {
      "midi": 46,
      "frequency": 116.54,
      "time": 120,
      "duration": 0.3983333333333263,
      "velocity": 0.6299212598425197,
      "name": "A#2"
    },
    {
      "midi": 65,
      "frequency": 349.23,
      "time": 120.4,
      "duration": 0.19833333333332348,
      "velocity": 0.6299212598425197,
      "name": "F4"
    },
    {
      "midi": 50,
      "frequency": 146.83,
      "time": 120.4,
      "duration": 0.3983333333333263,
      "velocity": 0.6299212598425197,
      "name": "D3"
    },
    {
      "midi": 62,
      "frequency": 293.66,
      "time": 120.6,
      "duration": 0.5983333333333434,
      "velocity": 0.6299212598425197,
      "name": "D4"
    },
    {
      "midi": 53,
      "frequency": 174.61,
      "time": 120.8,
      "duration": 0.39833333333334053,
      "velocity": 0.6299212598425197,
      "name": "F3"
    },
    {
      "midi": 62,
      "frequency": 293.66,
      "time": 121.2,
      "duration": 0.3983333333333263,
      "velocity": 0.6299212598425197,
      "name": "D4"
    },
    {
      "midi": 58,
      "frequency": 233.08,
      "time": 121.2,
      "duration": 0.3983333333333263,
      "velocity": 0.6299212598425197,
      "name": "A#3"
    },
    {
      "midi": 65,
      "frequency": 349.23,
      "time": 121.6,
      "duration": 0.1983333333333377,
      "velocity": 0.6299212598425197,
      "name": "F4"
    },
    {
      "midi": 53,
      "frequency": 174.61,
      "time": 121.6,
      "duration": 0.39833333333334053,
      "velocity": 0.6299212598425197,
      "name": "F3"
    },
    {
      "midi": 62,
      "frequency": 293.66,
      "time": 121.8,
      "duration": 0.5983333333333434,
      "velocity": 0.6299212598425197,
      "name": "D4"
    },
    {
      "midi": 50,
      "frequency": 146.83,
      "time": 122,
      "duration": 0.39833333333334053,
      "velocity": 0.6299212598425197,
      "name": "D3"
    },
    {
      "midi": 67,
      "frequency": 392,
      "time": 122.4,
      "duration": 0.798333333333332,
      "velocity": 0.6299212598425197,
      "name": "G4"
    },
    {
      "midi": 46,
      "frequency": 116.54,
      "time": 122.4,
      "duration": 0.3983333333333263,
      "velocity": 0.6299212598425197,
      "name": "A#2"
    },
    {
      "midi": 53,
      "frequency": 174.61,
      "time": 122.8,
      "duration": 0.39833333333334053,
      "velocity": 0.6299212598425197,
      "name": "F3"
    },
    {
      "midi": 65,
      "frequency": 349.23,
      "time": 123.2,
      "duration": 0.3983333333333263,
      "velocity": 0.6299212598425197,
      "name": "F4"
    },
    {
      "midi": 58,
      "frequency": 233.08,
      "time": 123.2,
      "duration": 0.3983333333333263,
      "velocity": 0.6299212598425197,
      "name": "A#3"
    },
    {
      "midi": 62,
      "frequency": 293.66,
      "time": 123.6,
      "duration": 0.39833333333334053,
      "velocity": 0.6299212598425197,
      "name": "D4"
    },
    {
      "midi": 45,
      "frequency": 110,
      "time": 123.6,
      "duration": 0.39833333333334053,
      "velocity": 0.6299212598425197,
      "name": "A2"
    },
    {
      "midi": 58,
      "frequency": 233.08,
      "time": 124,
      "duration": 0.798333333333332,
      "velocity": 0.6299212598425197,
      "name": "A#3"
    },
    {
      "midi": 53,
      "frequency": 174.61,
      "time": 124,
      "duration": 0.39833333333334053,
      "velocity": 0.6299212598425197,
      "name": "F3"
    },
    {
      "midi": 57,
      "frequency": 220,
      "time": 124.4,
      "duration": 0.3983333333333263,
      "velocity": 0.6299212598425197,
      "name": "A3"
    },
    {
      "midi": 62,
      "frequency": 293.66,
      "time": 124.8,
      "duration": 0.39833333333334053,
      "velocity": 0.6299212598425197,
      "name": "D4"
    },
    {
      "midi": 43,
      "frequency": 98,
      "time": 124.8,
      "duration": 0.39833333333334053,
      "velocity": 0.6299212598425197,
      "name": "G2"
    },
    {
      "midi": 65,
      "frequency": 349.23,
      "time": 125.2,
      "duration": 0.1983333333333377,
      "velocity": 0.6299212598425197,
      "name": "F4"
    },
    {
      "midi": 50,
      "frequency": 146.83,
      "time": 125.2,
      "duration": 0.3983333333333263,
      "velocity": 0.6299212598425197,
      "name": "D3"
    },
    {
      "midi": 62,
      "frequency": 293.66,
      "time": 125.4,
      "duration": 0.5983333333333292,
      "velocity": 0.6299212598425197,
      "name": "D4"
    },
    {
      "midi": 55,
      "frequency": 196,
      "time": 125.6,
      "duration": 0.39833333333334053,
      "velocity": 0.6299212598425197,
      "name": "G3"
    },
    {
      "midi": 62,
      "frequency": 293.66,
      "time": 126,
      "duration": 0.39833333333334053,
      "velocity": 0.6299212598425197,
      "name": "D4"
    },
    {
      "midi": 58,
      "frequency": 233.08,
      "time": 126,
      "duration": 0.39833333333334053,
      "velocity": 0.6299212598425197,
      "name": "A#3"
    },
    {
      "midi": 65,
      "frequency": 349.23,
      "time": 126.4,
      "duration": 0.19833333333332348,
      "velocity": 0.6299212598425197,
      "name": "F4"
    },
    {
      "midi": 55,
      "frequency": 196,
      "time": 126.4,
      "duration": 0.3983333333333263,
      "velocity": 0.6299212598425197,
      "name": "G3"
    },
    {
      "midi": 62,
      "frequency": 293.66,
      "time": 126.6,
      "duration": 0.5983333333333434,
      "velocity": 0.6299212598425197,
      "name": "D4"
    },
    {
      "midi": 50,
      "frequency": 146.83,
      "time": 126.8,
      "duration": 0.39833333333334053,
      "velocity": 0.6299212598425197,
      "name": "D3"
    },
    {
      "midi": 67,
      "frequency": 392,
      "time": 127.2,
      "duration": 0.798333333333332,
      "velocity": 0.6299212598425197,
      "name": "G4"
    },
    {
      "midi": 43,
      "frequency": 98,
      "time": 127.2,
      "duration": 0.3983333333333263,
      "velocity": 0.6299212598425197,
      "name": "G2"
    },
    {
      "midi": 50,
      "frequency": 146.83,
      "time": 127.6,
      "duration": 0.39833333333334053,
      "velocity": 0.6299212598425197,
      "name": "D3"
    },
    {
      "midi": 65,
      "frequency": 349.23,
      "time": 128,
      "duration": 0.39833333333334053,
      "velocity": 0.6299212598425197,
      "name": "F4"
    },
    {
      "midi": 55,
      "frequency": 196,
      "time": 128,
      "duration": 0.39833333333334053,
      "velocity": 0.6299212598425197,
      "name": "G3"
    },
    {
      "midi": 62,
      "frequency": 293.66,
      "time": 128.4,
      "duration": 0.39833333333334053,
      "velocity": 0.6299212598425197,
      "name": "D4"
    },
    {
      "midi": 41,
      "frequency": 87.31,
      "time": 128.4,
      "duration": 0.39833333333334053,
      "velocity": 0.6299212598425197,
      "name": "F2"
    },
    {
      "midi": 58,
      "frequency": 233.08,
      "time": 128.8,
      "duration": 0.3983333333333121,
      "velocity": 0.6299212598425197,
      "name": "A#3"
    },
    {
      "midi": 50,
      "frequency": 146.83,
      "time": 128.8,
      "duration": 0.3983333333333121,
      "velocity": 0.6299212598425197,
      "name": "D3"
    },
    {
      "midi": 58,
      "frequency": 233.08,
      "time": 129.2,
      "duration": 0.1983333333333519,
      "velocity": 0.6299212598425197,
      "name": "A#3"
    },
    {
      "midi": 53,
      "frequency": 174.61,
      "time": 129.2,
      "duration": 0.39833333333334053,
      "velocity": 0.6299212598425197,
      "name": "F3"
    },
    {
      "midi": 58,
      "frequency": 233.08,
      "time": 129.4,
      "duration": 0.19833333333332348,
      "velocity": 0.6299212598425197,
      "name": "A#3"
    },
    {
      "midi": 63,
      "frequency": 311.13,
      "time": 129.6,
      "duration": 1.9983333333333348,
      "velocity": 0.6299212598425197,
      "name": "D#4"
    },
    {
      "midi": 58,
      "frequency": 233.08,
      "time": 129.6,
      "duration": 1.9983333333333348,
      "velocity": 0.6299212598425197,
      "name": "A#3"
    },
    {
      "midi": 39,
      "frequency": 77.78,
      "time": 129.6,
      "duration": 0.39833333333334053,
      "velocity": 0.6299212598425197,
      "name": "D#2"
    },
    {
      "midi": 46,
      "frequency": 116.54,
      "time": 130,
      "duration": 0.39833333333334053,
      "velocity": 0.6299212598425197,
      "name": "A#2"
    },
    {
      "midi": 51,
      "frequency": 155.56,
      "time": 130.4,
      "duration": 0.39833333333334053,
      "velocity": 0.6299212598425197,
      "name": "D#3"
    },
    {
      "midi": 55,
      "frequency": 196,
      "time": 130.8,
      "duration": 0.3983333333333121,
      "velocity": 0.6299212598425197,
      "name": "G3"
    },
    {
      "midi": 51,
      "frequency": 155.56,
      "time": 131.2,
      "duration": 0.39833333333334053,
      "velocity": 0.6299212598425197,
      "name": "D#3"
    },
    {
      "midi": 62,
      "frequency": 293.66,
      "time": 131.6,
      "duration": 0.39833333333334053,
      "velocity": 0.6299212598425197,
      "name": "D4"
    },
    {
      "midi": 46,
      "frequency": 116.54,
      "time": 131.6,
      "duration": 0.39833333333334053,
      "velocity": 0.6299212598425197,
      "name": "A#2"
    },
    {
      "midi": 55,
      "frequency": 196,
      "time": 132,
      "duration": 0.7983333333333462,
      "velocity": 0.6299212598425197,
      "name": "G3"
    },
    {
      "midi": 39,
      "frequency": 77.78,
      "time": 132,
      "duration": 0.39833333333334053,
      "velocity": 0.6299212598425197,
      "name": "D#2"
    },
    {
      "midi": 46,
      "frequency": 116.54,
      "time": 132.4,
      "duration": 0.39833333333334053,
      "velocity": 0.6299212598425197,
      "name": "A#2"
    },
    {
      "midi": 58,
      "frequency": 233.08,
      "time": 132.8,
      "duration": 0.3983333333333121,
      "velocity": 0.6299212598425197,
      "name": "A#3"
    },
    {
      "midi": 51,
      "frequency": 155.56,
      "time": 132.8,
      "duration": 1.5983333333333292,
      "velocity": 0.6299212598425197,
      "name": "D#3"
    },
    {
      "midi": 58,
      "frequency": 233.08,
      "time": 133.2,
      "duration": 0.39833333333334053,
      "velocity": 0.6299212598425197,
      "name": "A#3"
    },
    {
      "midi": 58,
      "frequency": 233.08,
      "time": 133.6,
      "duration": 0.39833333333334053,
      "velocity": 0.6299212598425197,
      "name": "A#3"
    },
    {
      "midi": 60,
      "frequency": 261.63,
      "time": 134,
      "duration": 0.19833333333332348,
      "velocity": 0.6299212598425197,
      "name": "C4"
    },
    {
      "midi": 58,
      "frequency": 233.08,
      "time": 134.2,
      "duration": 0.1983333333333519,
      "velocity": 0.6299212598425197,
      "name": "A#3"
    },
    {
      "midi": 60,
      "frequency": 261.63,
      "time": 134.4,
      "duration": 1.1983333333333235,
      "velocity": 0.6299212598425197,
      "name": "C4"
    },
    {
      "midi": 63,
      "frequency": 311.13,
      "time": 134.4,
      "duration": 1.1983333333333235,
      "velocity": 0.6299212598425197,
      "name": "D#4"
    },
    {
      "midi": 41,
      "frequency": 87.31,
      "time": 134.4,
      "duration": 0.39833333333334053,
      "velocity": 0.6299212598425197,
      "name": "F2"
    },
    {
      "midi": 48,
      "frequency": 130.81,
      "time": 134.8,
      "duration": 0.3983333333333121,
      "velocity": 0.6299212598425197,
      "name": "C3"
    },
    {
      "midi": 53,
      "frequency": 174.61,
      "time": 135.2,
      "duration": 0.39833333333334053,
      "velocity": 0.6299212598425197,
      "name": "F3"
    },
    {
      "midi": 62,
      "frequency": 293.66,
      "time": 135.6,
      "duration": 1.198333333333352,
      "velocity": 0.6299212598425197,
      "name": "D4"
    },
    {
      "midi": 57,
      "frequency": 220,
      "time": 135.6,
      "duration": 0.39833333333334053,
      "velocity": 0.6299212598425197,
      "name": "A3"
    },
    {
      "midi": 53,
      "frequency": 174.61,
      "time": 136,
      "duration": 0.39833333333334053,
      "velocity": 0.6299212598425197,
      "name": "F3"
    },
    {
      "midi": 48,
      "frequency": 130.81,
      "time": 136.4,
      "duration": 0.39833333333334053,
      "velocity": 0.6299212598425197,
      "name": "C3"
    },
    {
      "midi": 60,
      "frequency": 261.63,
      "time": 136.8,
      "duration": 1.1983333333333235,
      "velocity": 0.6299212598425197,
      "name": "C4"
    },
    {
      "midi": 41,
      "frequency": 87.31,
      "time": 136.8,
      "duration": 0.3983333333333121,
      "velocity": 0.6299212598425197,
      "name": "F2"
    },
    {
      "midi": 48,
      "frequency": 130.81,
      "time": 137.2,
      "duration": 0.39833333333334053,
      "velocity": 0.6299212598425197,
      "name": "C3"
    },
    {
      "midi": 53,
      "frequency": 174.61,
      "time": 137.6,
      "duration": 0.39833333333334053,
      "velocity": 0.6299212598425197,
      "name": "F3"
    },
    {
      "midi": 62,
      "frequency": 293.66,
      "time": 138,
      "duration": 1.1983333333333235,
      "velocity": 0.6299212598425197,
      "name": "D4"
    },
    {
      "midi": 57,
      "frequency": 220,
      "time": 138,
      "duration": 0.39833333333334053,
      "velocity": 0.6299212598425197,
      "name": "A3"
    },
    {
      "midi": 53,
      "frequency": 174.61,
      "time": 138.4,
      "duration": 0.39833333333334053,
      "velocity": 0.6299212598425197,
      "name": "F3"
    },
    {
      "midi": 48,
      "frequency": 130.81,
      "time": 138.8,
      "duration": 0.3983333333333121,
      "velocity": 0.6299212598425197,
      "name": "C3"
    },
    {
      "midi": 62,
      "frequency": 293.66,
      "time": 139.2,
      "duration": 0.39833333333334053,
      "velocity": 0.6299212598425197,
      "name": "D4"
    },
    {
      "midi": 46,
      "frequency": 116.54,
      "time": 139.2,
      "duration": 0.39833333333334053,
      "velocity": 0.6299212598425197,
      "name": "A#2"
    },
    {
      "midi": 65,
      "frequency": 349.23,
      "time": 139.6,
      "duration": 0.1983333333333519,
      "velocity": 0.6299212598425197,
      "name": "F4"
    },
    {
      "midi": 50,
      "frequency": 146.83,
      "time": 139.6,
      "duration": 0.39833333333334053,
      "velocity": 0.6299212598425197,
      "name": "D3"
    },
    {
      "midi": 62,
      "frequency": 293.66,
      "time": 139.8,
      "duration": 0.5983333333333292,
      "velocity": 0.6299212598425197,
      "name": "D4"
    },
    {
      "midi": 53,
      "frequency": 174.61,
      "time": 140,
      "duration": 0.39833333333334053,
      "velocity": 0.6299212598425197,
      "name": "F3"
    },
    {
      "midi": 62,
      "frequency": 293.66,
      "time": 140.4,
      "duration": 0.39833333333334053,
      "velocity": 0.6299212598425197,
      "name": "D4"
    },
    {
      "midi": 58,
      "frequency": 233.08,
      "time": 140.4,
      "duration": 0.39833333333334053,
      "velocity": 0.6299212598425197,
      "name": "A#3"
    },
    {
      "midi": 65,
      "frequency": 349.23,
      "time": 140.8,
      "duration": 0.19833333333332348,
      "velocity": 0.6299212598425197,
      "name": "F4"
    },
    {
      "midi": 53,
      "frequency": 174.61,
      "time": 140.8,
      "duration": 0.3983333333333121,
      "velocity": 0.6299212598425197,
      "name": "F3"
    },
    {
      "midi": 62,
      "frequency": 293.66,
      "time": 141,
      "duration": 0.19833333333332348,
      "velocity": 0.6299212598425197,
      "name": "D4"
    },
    {
      "midi": 62,
      "frequency": 293.66,
      "time": 141.2,
      "duration": 0.39833333333334053,
      "velocity": 0.6299212598425197,
      "name": "D4"
    },
    {
      "midi": 50,
      "frequency": 146.83,
      "time": 141.2,
      "duration": 0.39833333333334053,
      "velocity": 0.6299212598425197,
      "name": "D3"
    },
    {
      "midi": 67,
      "frequency": 392,
      "time": 141.6,
      "duration": 0.7983333333333462,
      "velocity": 0.6299212598425197,
      "name": "G4"
    },
    {
      "midi": 46,
      "frequency": 116.54,
      "time": 141.6,
      "duration": 0.39833333333334053,
      "velocity": 0.6299212598425197,
      "name": "A#2"
    },
    {
      "midi": 53,
      "frequency": 174.61,
      "time": 142,
      "duration": 0.39833333333334053,
      "velocity": 0.6299212598425197,
      "name": "F3"
    },
    {
      "midi": 65,
      "frequency": 349.23,
      "time": 142.4,
      "duration": 0.39833333333334053,
      "velocity": 0.6299212598425197,
      "name": "F4"
    },
    {
      "midi": 58,
      "frequency": 233.08,
      "time": 142.4,
      "duration": 0.39833333333334053,
      "velocity": 0.6299212598425197,
      "name": "A#3"
    },
    {
      "midi": 62,
      "frequency": 293.66,
      "time": 142.8,
      "duration": 0.3983333333333121,
      "velocity": 0.6299212598425197,
      "name": "D4"
    },
    {
      "midi": 45,
      "frequency": 110,
      "time": 142.8,
      "duration": 0.3983333333333121,
      "velocity": 0.6299212598425197,
      "name": "A2"
    },
    {
      "midi": 58,
      "frequency": 233.08,
      "time": 143.2,
      "duration": 0.7983333333333462,
      "velocity": 0.6299212598425197,
      "name": "A#3"
    },
    {
      "midi": 53,
      "frequency": 174.61,
      "time": 143.2,
      "duration": 0.39833333333334053,
      "velocity": 0.6299212598425197,
      "name": "F3"
    },
    {
      "midi": 57,
      "frequency": 220,
      "time": 143.6,
      "duration": 0.39833333333334053,
      "velocity": 0.6299212598425197,
      "name": "A3"
    },
    {
      "midi": 62,
      "frequency": 293.66,
      "time": 144,
      "duration": 0.39833333333334053,
      "velocity": 0.6299212598425197,
      "name": "D4"
    },
    {
      "midi": 43,
      "frequency": 98,
      "time": 144,
      "duration": 0.39833333333334053,
      "velocity": 0.6299212598425197,
      "name": "G2"
    },
    {
      "midi": 65,
      "frequency": 349.23,
      "time": 144.4,
      "duration": 0.19833333333332348,
      "velocity": 0.6299212598425197,
      "name": "F4"
    },
    {
      "midi": 50,
      "frequency": 146.83,
      "time": 144.4,
      "duration": 0.39833333333334053,
      "velocity": 0.6299212598425197,
      "name": "D3"
    },
    {
      "midi": 62,
      "frequency": 293.66,
      "time": 144.6,
      "duration": 0.39833333333334053,
      "velocity": 0.6299212598425197,
      "name": "D4"
    },
    {
      "midi": 55,
      "frequency": 196,
      "time": 144.8,
      "duration": 0.3983333333333121,
      "velocity": 0.6299212598425197,
      "name": "G3"
    },
    {
      "midi": 62,
      "frequency": 293.66,
      "time": 145,
      "duration": 0.19833333333332348,
      "velocity": 0.6299212598425197,
      "name": "D4"
    },
    {
      "midi": 62,
      "frequency": 293.66,
      "time": 145.2,
      "duration": 0.39833333333334053,
      "velocity": 0.6299212598425197,
      "name": "D4"
    },
    {
      "midi": 58,
      "frequency": 233.08,
      "time": 145.2,
      "duration": 0.39833333333334053,
      "velocity": 0.6299212598425197,
      "name": "A#3"
    },
    {
      "midi": 65,
      "frequency": 349.23,
      "time": 145.6,
      "duration": 0.1983333333333519,
      "velocity": 0.6299212598425197,
      "name": "F4"
    },
    {
      "midi": 55,
      "frequency": 196,
      "time": 145.6,
      "duration": 0.39833333333334053,
      "velocity": 0.6299212598425197,
      "name": "G3"
    },
    {
      "midi": 62,
      "frequency": 293.66,
      "time": 145.8,
      "duration": 0.19833333333332348,
      "velocity": 0.6299212598425197,
      "name": "D4"
    },
    {
      "midi": 62,
      "frequency": 293.66,
      "time": 146,
      "duration": 0.39833333333334053,
      "velocity": 0.6299212598425197,
      "name": "D4"
    },
    {
      "midi": 50,
      "frequency": 146.83,
      "time": 146,
      "duration": 0.39833333333334053,
      "velocity": 0.6299212598425197,
      "name": "D3"
    },
    {
      "midi": 67,
      "frequency": 392,
      "time": 146.4,
      "duration": 0.7983333333333178,
      "velocity": 0.6299212598425197,
      "name": "G4"
    },
    {
      "midi": 43,
      "frequency": 98,
      "time": 146.4,
      "duration": 0.39833333333334053,
      "velocity": 0.6299212598425197,
      "name": "G2"
    },
    {
      "midi": 50,
      "frequency": 146.83,
      "time": 146.8,
      "duration": 0.3983333333333121,
      "velocity": 0.6299212598425197,
      "name": "D3"
    },
    {
      "midi": 65,
      "frequency": 349.23,
      "time": 147.2,
      "duration": 0.39833333333334053,
      "velocity": 0.6299212598425197,
      "name": "F4"
    },
    {
      "midi": 55,
      "frequency": 196,
      "time": 147.2,
      "duration": 0.39833333333334053,
      "velocity": 0.6299212598425197,
      "name": "G3"
    },
    {
      "midi": 62,
      "frequency": 293.66,
      "time": 147.6,
      "duration": 0.39833333333334053,
      "velocity": 0.6299212598425197,
      "name": "D4"
    },
    {
      "midi": 41,
      "frequency": 87.31,
      "time": 147.6,
      "duration": 0.39833333333334053,
      "velocity": 0.6299212598425197,
      "name": "F2"
    },
    {
      "midi": 58,
      "frequency": 233.08,
      "time": 148,
      "duration": 0.39833333333334053,
      "velocity": 0.6299212598425197,
      "name": "A#3"
    },
    {
      "midi": 50,
      "frequency": 146.83,
      "time": 148,
      "duration": 0.39833333333334053,
      "velocity": 0.6299212598425197,
      "name": "D3"
    },
    {
      "midi": 58,
      "frequency": 233.08,
      "time": 148.4,
      "duration": 0.19833333333332348,
      "velocity": 0.6299212598425197,
      "name": "A#3"
    },
    {
      "midi": 53,
      "frequency": 174.61,
      "time": 148.4,
      "duration": 0.39833333333334053,
      "velocity": 0.6299212598425197,
      "name": "F3"
    },
    {
      "midi": 58,
      "frequency": 233.08,
      "time": 148.6,
      "duration": 0.1983333333333519,
      "velocity": 0.6299212598425197,
      "name": "A#3"
    },
    {
      "midi": 63,
      "frequency": 311.13,
      "time": 148.8,
      "duration": 1.9983333333333348,
      "velocity": 0.6299212598425197,
      "name": "D#4"
    },
    {
      "midi": 58,
      "frequency": 233.08,
      "time": 148.8,
      "duration": 1.9983333333333348,
      "velocity": 0.6299212598425197,
      "name": "A#3"
    },
    {
      "midi": 39,
      "frequency": 77.78,
      "time": 148.8,
      "duration": 0.3983333333333121,
      "velocity": 0.6299212598425197,
      "name": "D#2"
    },
    {
      "midi": 46,
      "frequency": 116.54,
      "time": 149.2,
      "duration": 0.39833333333334053,
      "velocity": 0.6299212598425197,
      "name": "A#2"
    },
    {
      "midi": 51,
      "frequency": 155.56,
      "time": 149.6,
      "duration": 0.39833333333334053,
      "velocity": 0.6299212598425197,
      "name": "D#3"
    },
    {
      "midi": 55,
      "frequency": 196,
      "time": 150,
      "duration": 0.39833333333334053,
      "velocity": 0.6299212598425197,
      "name": "G3"
    },
    {
      "midi": 51,
      "frequency": 155.56,
      "time": 150.4,
      "duration": 0.39833333333334053,
      "velocity": 0.6299212598425197,
      "name": "D#3"
    },
    {
      "midi": 62,
      "frequency": 293.66,
      "time": 150.8,
      "duration": 0.3983333333333121,
      "velocity": 0.6299212598425197,
      "name": "D4"
    },
    {
      "midi": 46,
      "frequency": 116.54,
      "time": 150.8,
      "duration": 0.3983333333333121,
      "velocity": 0.6299212598425197,
      "name": "A#2"
    },
    {
      "midi": 55,
      "frequency": 196,
      "time": 151.2,
      "duration": 0.7983333333333462,
      "velocity": 0.6299212598425197,
      "name": "G3"
    },
    {
      "midi": 39,
      "frequency": 77.78,
      "time": 151.2,
      "duration": 0.39833333333334053,
      "velocity": 0.6299212598425197,
      "name": "D#2"
    },
    {
      "midi": 46,
      "frequency": 116.54,
      "time": 151.6,
      "duration": 0.39833333333334053,
      "velocity": 0.6299212598425197,
      "name": "A#2"
    },
    {
      "midi": 58,
      "frequency": 233.08,
      "time": 152,
      "duration": 0.39833333333334053,
      "velocity": 0.6299212598425197,
      "name": "A#3"
    },
    {
      "midi": 51,
      "frequency": 155.56,
      "time": 152,
      "duration": 1.5983333333333292,
      "velocity": 0.6299212598425197,
      "name": "D#3"
    },
    {
      "midi": 58,
      "frequency": 233.08,
      "time": 152.4,
      "duration": 0.39833333333334053,
      "velocity": 0.6299212598425197,
      "name": "A#3"
    },
    {
      "midi": 58,
      "frequency": 233.08,
      "time": 152.8,
      "duration": 0.3983333333333121,
      "velocity": 0.6299212598425197,
      "name": "A#3"
    },
    {
      "midi": 60,
      "frequency": 261.63,
      "time": 153.2,
      "duration": 0.1983333333333519,
      "velocity": 0.6299212598425197,
      "name": "C4"
    },
    {
      "midi": 58,
      "frequency": 233.08,
      "time": 153.4,
      "duration": 0.19833333333332348,
      "velocity": 0.6299212598425197,
      "name": "A#3"
    },
    {
      "midi": 60,
      "frequency": 261.63,
      "time": 153.6,
      "duration": 1.198333333333352,
      "velocity": 0.6299212598425197,
      "name": "C4"
    },
    {
      "midi": 63,
      "frequency": 311.13,
      "time": 153.6,
      "duration": 1.198333333333352,
      "velocity": 0.6299212598425197,
      "name": "D#4"
    },
    {
      "midi": 41,
      "frequency": 87.31,
      "time": 153.6,
      "duration": 0.39833333333334053,
      "velocity": 0.6299212598425197,
      "name": "F2"
    },
    {
      "midi": 48,
      "frequency": 130.81,
      "time": 154,
      "duration": 0.39833333333334053,
      "velocity": 0.6299212598425197,
      "name": "C3"
    },
    {
      "midi": 53,
      "frequency": 174.61,
      "time": 154.4,
      "duration": 0.39833333333334053,
      "velocity": 0.6299212598425197,
      "name": "F3"
    },
    {
      "midi": 62,
      "frequency": 293.66,
      "time": 154.8,
      "duration": 1.1983333333333235,
      "velocity": 0.6299212598425197,
      "name": "D4"
    },
    {
      "midi": 57,
      "frequency": 220,
      "time": 154.8,
      "duration": 0.3983333333333121,
      "velocity": 0.6299212598425197,
      "name": "A3"
    },
    {
      "midi": 53,
      "frequency": 174.61,
      "time": 155.2,
      "duration": 0.39833333333334053,
      "velocity": 0.6299212598425197,
      "name": "F3"
    },
    {
      "midi": 48,
      "frequency": 130.81,
      "time": 155.6,
      "duration": 0.39833333333334053,
      "velocity": 0.6299212598425197,
      "name": "C3"
    },
    {
      "midi": 65,
      "frequency": 349.23,
      "time": 156,
      "duration": 2.3983333333333405,
      "velocity": 0.6299212598425197,
      "name": "F4"
    },
    {
      "midi": 41,
      "frequency": 87.31,
      "time": 156,
      "duration": 0.39833333333334053,
      "velocity": 0.6299212598425197,
      "name": "F2"
    },
    {
      "midi": 48,
      "frequency": 130.81,
      "time": 156.4,
      "duration": 0.39833333333334053,
      "velocity": 0.6299212598425197,
      "name": "C3"
    },
    {
      "midi": 53,
      "frequency": 174.61,
      "time": 156.8,
      "duration": 0.3983333333333121,
      "velocity": 0.6299212598425197,
      "name": "F3"
    },
    {
      "midi": 57,
      "frequency": 220,
      "time": 157.2,
      "duration": 0.39833333333334053,
      "velocity": 0.6299212598425197,
      "name": "A3"
    },
    {
      "midi": 53,
      "frequency": 174.61,
      "time": 157.6,
      "duration": 0.39833333333334053,
      "velocity": 0.6299212598425197,
      "name": "F3"
    },
    {
      "midi": 48,
      "frequency": 130.81,
      "time": 158,
      "duration": 0.39833333333334053,
      "velocity": 0.6299212598425197,
      "name": "C3"
    },
    {
      "midi": 46,
      "frequency": 116.54,
      "time": 158.4,
      "duration": 0.39833333333334053,
      "velocity": 0.6299212598425197,
      "name": "A#2"
    },
    {
      "midi": 50,
      "frequency": 146.83,
      "time": 158.8,
      "duration": 0.3983333333333121,
      "velocity": 0.6299212598425197,
      "name": "D3"
    },
    {
      "midi": 53,
      "frequency": 174.61,
      "time": 159.2,
      "duration": 0.39833333333334053,
      "velocity": 0.6299212598425197,
      "name": "F3"
    },
    {
      "midi": 70,
      "frequency": 466.16,
      "time": 159.6,
      "duration": 1.198333333333352,
      "velocity": 0.6299212598425197,
      "name": "A#4"
    },
    {
      "midi": 82,
      "frequency": 932.33,
      "time": 159.6,
      "duration": 1.198333333333352,
      "velocity": 0.6299212598425197,
      "name": "A#5"
    },
    {
      "midi": 58,
      "frequency": 233.08,
      "time": 159.6,
      "duration": 0.39833333333334053,
      "velocity": 0.6299212598425197,
      "name": "A#3"
    },
    {
      "midi": 53,
      "frequency": 174.61,
      "time": 160,
      "duration": 0.39833333333334053,
      "velocity": 0.6299212598425197,
      "name": "F3"
    },
    {
      "midi": 50,
      "frequency": 146.83,
      "time": 160.4,
      "duration": 0.39833333333334053,
      "velocity": 0.6299212598425197,
      "name": "D3"
    },
    {
      "midi": 69,
      "frequency": 440,
      "time": 160.8,
      "duration": 1.1983333333333235,
      "velocity": 0.6299212598425197,
      "name": "A4"
    },
    {
      "midi": 81,
      "frequency": 880,
      "time": 160.8,
      "duration": 1.1983333333333235,
      "velocity": 0.6299212598425197,
      "name": "A5"
    },
    {
      "midi": 46,
      "frequency": 116.54,
      "time": 160.8,
      "duration": 0.3983333333333121,
      "velocity": 0.6299212598425197,
      "name": "A#2"
    },
    {
      "midi": 50,
      "frequency": 146.83,
      "time": 161.2,
      "duration": 0.39833333333334053,
      "velocity": 0.6299212598425197,
      "name": "D3"
    },
    {
      "midi": 53,
      "frequency": 174.61,
      "time": 161.6,
      "duration": 0.39833333333334053,
      "velocity": 0.6299212598425197,
      "name": "F3"
    },
    {
      "midi": 65,
      "frequency": 349.23,
      "time": 162,
      "duration": 1.1983333333333235,
      "velocity": 0.6299212598425197,
      "name": "F4"
    },
    {
      "midi": 77,
      "frequency": 698.46,
      "time": 162,
      "duration": 1.1983333333333235,
      "velocity": 0.6299212598425197,
      "name": "F5"
    },
    {
      "midi": 58,
      "frequency": 233.08,
      "time": 162,
      "duration": 0.39833333333334053,
      "velocity": 0.6299212598425197,
      "name": "A#3"
    },
    {
      "midi": 53,
      "frequency": 174.61,
      "time": 162.4,
      "duration": 0.39833333333334053,
      "velocity": 0.6299212598425197,
      "name": "F3"
    },
    {
      "midi": 50,
      "frequency": 146.83,
      "time": 162.8,
      "duration": 0.3983333333333121,
      "velocity": 0.6299212598425197,
      "name": "D3"
    },
    {
      "midi": 62,
      "frequency": 293.66,
      "time": 163.2,
      "duration": 1.198333333333352,
      "velocity": 0.6299212598425197,
      "name": "D4"
    },
    {
      "midi": 74,
      "frequency": 587.33,
      "time": 163.2,
      "duration": 1.198333333333352,
      "velocity": 0.6299212598425197,
      "name": "D5"
    },
    {
      "midi": 43,
      "frequency": 98,
      "time": 163.2,
      "duration": 0.39833333333334053,
      "velocity": 0.6299212598425197,
      "name": "G2"
    },
    {
      "midi": 50,
      "frequency": 146.83,
      "time": 163.6,
      "duration": 0.39833333333334053,
      "velocity": 0.6299212598425197,
      "name": "D3"
    },
    {
      "midi": 55,
      "frequency": 196,
      "time": 164,
      "duration": 0.39833333333334053,
      "velocity": 0.6299212598425197,
      "name": "G3"
    },
    {
      "midi": 70,
      "frequency": 466.16,
      "time": 164.4,
      "duration": 1.1983333333333235,
      "velocity": 0.6299212598425197,
      "name": "A#4"
    },
    {
      "midi": 82,
      "frequency": 932.33,
      "time": 164.4,
      "duration": 1.1983333333333235,
      "velocity": 0.6299212598425197,
      "name": "A#5"
    },
    {
      "midi": 58,
      "frequency": 233.08,
      "time": 164.4,
      "duration": 0.39833333333334053,
      "velocity": 0.6299212598425197,
      "name": "A#3"
    },
    {
      "midi": 55,
      "frequency": 196,
      "time": 164.8,
      "duration": 0.3983333333333121,
      "velocity": 0.6299212598425197,
      "name": "G3"
    },
    {
      "midi": 50,
      "frequency": 146.83,
      "time": 165.2,
      "duration": 0.39833333333334053,
      "velocity": 0.6299212598425197,
      "name": "D3"
    },
    {
      "midi": 69,
      "frequency": 440,
      "time": 165.6,
      "duration": 1.198333333333352,
      "velocity": 0.6299212598425197,
      "name": "A4"
    },
    {
      "midi": 81,
      "frequency": 880,
      "time": 165.6,
      "duration": 1.198333333333352,
      "velocity": 0.6299212598425197,
      "name": "A5"
    },
    {
      "midi": 43,
      "frequency": 98,
      "time": 165.6,
      "duration": 0.39833333333334053,
      "velocity": 0.6299212598425197,
      "name": "G2"
    },
    {
      "midi": 50,
      "frequency": 146.83,
      "time": 166,
      "duration": 0.39833333333334053,
      "velocity": 0.6299212598425197,
      "name": "D3"
    },
    {
      "midi": 55,
      "frequency": 196,
      "time": 166.4,
      "duration": 0.39833333333334053,
      "velocity": 0.6299212598425197,
      "name": "G3"
    },
    {
      "midi": 62,
      "frequency": 293.66,
      "time": 166.8,
      "duration": 1.1983333333333235,
      "velocity": 0.6299212598425197,
      "name": "D4"
    },
    {
      "midi": 74,
      "frequency": 587.33,
      "time": 166.8,
      "duration": 1.1983333333333235,
      "velocity": 0.6299212598425197,
      "name": "D5"
    },
    {
      "midi": 58,
      "frequency": 233.08,
      "time": 166.8,
      "duration": 0.3983333333333121,
      "velocity": 0.6299212598425197,
      "name": "A#3"
    },
    {
      "midi": 55,
      "frequency": 196,
      "time": 167.2,
      "duration": 0.39833333333334053,
      "velocity": 0.6299212598425197,
      "name": "G3"
    },
    {
      "midi": 50,
      "frequency": 146.83,
      "time": 167.6,
      "duration": 0.39833333333334053,
      "velocity": 0.6299212598425197,
      "name": "D3"
    },
    {
      "midi": 63,
      "frequency": 311.13,
      "time": 168,
      "duration": 1.1983333333333235,
      "velocity": 0.6299212598425197,
      "name": "D#4"
    },
    {
      "midi": 75,
      "frequency": 622.25,
      "time": 168,
      "duration": 1.1983333333333235,
      "velocity": 0.6299212598425197,
      "name": "D#5"
    },
    {
      "midi": 39,
      "frequency": 77.78,
      "time": 168,
      "duration": 0.39833333333334053,
      "velocity": 0.6299212598425197,
      "name": "D#2"
    },
    {
      "midi": 46,
      "frequency": 116.54,
      "time": 168.4,
      "duration": 0.39833333333334053,
      "velocity": 0.6299212598425197,
      "name": "A#2"
    },
    {
      "midi": 51,
      "frequency": 155.56,
      "time": 168.8,
      "duration": 0.3983333333333121,
      "velocity": 0.6299212598425197,
      "name": "D#3"
    },
    {
      "midi": 72,
      "frequency": 523.25,
      "time": 169.2,
      "duration": 1.198333333333352,
      "velocity": 0.6299212598425197,
      "name": "C5"
    },
    {
      "midi": 84,
      "frequency": 1046.5,
      "time": 169.2,
      "duration": 1.198333333333352,
      "velocity": 0.6299212598425197,
      "name": "C6"
    },
    {
      "midi": 55,
      "frequency": 196,
      "time": 169.2,
      "duration": 0.39833333333334053,
      "velocity": 0.6299212598425197,
      "name": "G3"
    },
    {
      "midi": 51,
      "frequency": 155.56,
      "time": 169.6,
      "duration": 0.39833333333334053,
      "velocity": 0.6299212598425197,
      "name": "D#3"
    },
    {
      "midi": 46,
      "frequency": 116.54,
      "time": 170,
      "duration": 0.39833333333334053,
      "velocity": 0.6299212598425197,
      "name": "A#2"
    },
    {
      "midi": 70,
      "frequency": 466.16,
      "time": 170.4,
      "duration": 1.1983333333333235,
      "velocity": 0.6299212598425197,
      "name": "A#4"
    },
    {
      "midi": 82,
      "frequency": 932.33,
      "time": 170.4,
      "duration": 1.1983333333333235,
      "velocity": 0.6299212598425197,
      "name": "A#5"
    },
    {
      "midi": 39,
      "frequency": 77.78,
      "time": 170.4,
      "duration": 0.39833333333334053,
      "velocity": 0.6299212598425197,
      "name": "D#2"
    },
    {
      "midi": 46,
      "frequency": 116.54,
      "time": 170.8,
      "duration": 0.3983333333333121,
      "velocity": 0.6299212598425197,
      "name": "A#2"
    },
    {
      "midi": 51,
      "frequency": 155.56,
      "time": 171.2,
      "duration": 0.39833333333334053,
      "velocity": 0.6299212598425197,
      "name": "D#3"
    },
    {
      "midi": 65,
      "frequency": 349.23,
      "time": 171.6,
      "duration": 1.198333333333352,
      "velocity": 0.6299212598425197,
      "name": "F4"
    },
    {
      "midi": 77,
      "frequency": 698.46,
      "time": 171.6,
      "duration": 1.198333333333352,
      "velocity": 0.6299212598425197,
      "name": "F5"
    },
    {
      "midi": 55,
      "frequency": 196,
      "time": 171.6,
      "duration": 0.39833333333334053,
      "velocity": 0.6299212598425197,
      "name": "G3"
    },
    {
      "midi": 51,
      "frequency": 155.56,
      "time": 172,
      "duration": 0.39833333333334053,
      "velocity": 0.6299212598425197,
      "name": "D#3"
    },
    {
      "midi": 46,
      "frequency": 116.54,
      "time": 172.4,
      "duration": 0.39833333333334053,
      "velocity": 0.6299212598425197,
      "name": "A#2"
    },
    {
      "midi": 63,
      "frequency": 311.13,
      "time": 172.8,
      "duration": 1.1983333333333235,
      "velocity": 0.6299212598425197,
      "name": "D#4"
    },
    {
      "midi": 75,
      "frequency": 622.25,
      "time": 172.8,
      "duration": 1.1983333333333235,
      "velocity": 0.6299212598425197,
      "name": "D#5"
    },
    {
      "midi": 41,
      "frequency": 87.31,
      "time": 172.8,
      "duration": 0.3983333333333121,
      "velocity": 0.6299212598425197,
      "name": "F2"
    },
    {
      "midi": 48,
      "frequency": 130.81,
      "time": 173.2,
      "duration": 0.39833333333334053,
      "velocity": 0.6299212598425197,
      "name": "C3"
    },
    {
      "midi": 53,
      "frequency": 174.61,
      "time": 173.6,
      "duration": 0.39833333333334053,
      "velocity": 0.6299212598425197,
      "name": "F3"
    },
    {
      "midi": 74,
      "frequency": 587.33,
      "time": 174,
      "duration": 1.1983333333333235,
      "velocity": 0.6299212598425197,
      "name": "D5"
    },
    {
      "midi": 86,
      "frequency": 1174.66,
      "time": 174,
      "duration": 1.1983333333333235,
      "velocity": 0.6299212598425197,
      "name": "D6"
    },
    {
      "midi": 57,
      "frequency": 220,
      "time": 174,
      "duration": 0.39833333333334053,
      "velocity": 0.6299212598425197,
      "name": "A3"
    },
    {
      "midi": 53,
      "frequency": 174.61,
      "time": 174.4,
      "duration": 0.39833333333334053,
      "velocity": 0.6299212598425197,
      "name": "F3"
    },
    {
      "midi": 48,
      "frequency": 130.81,
      "time": 174.8,
      "duration": 0.3983333333333121,
      "velocity": 0.6299212598425197,
      "name": "C3"
    },
    {
      "midi": 72,
      "frequency": 523.25,
      "time": 175.2,
      "duration": 1.198333333333352,
      "velocity": 0.6299212598425197,
      "name": "C5"
    },
    {
      "midi": 84,
      "frequency": 1046.5,
      "time": 175.2,
      "duration": 1.198333333333352,
      "velocity": 0.6299212598425197,
      "name": "C6"
    },
    {
      "midi": 41,
      "frequency": 87.31,
      "time": 175.2,
      "duration": 0.39833333333334053,
      "velocity": 0.6299212598425197,
      "name": "F2"
    },
    {
      "midi": 48,
      "frequency": 130.81,
      "time": 175.6,
      "duration": 0.39833333333334053,
      "velocity": 0.6299212598425197,
      "name": "C3"
    },
    {
      "midi": 53,
      "frequency": 174.61,
      "time": 176,
      "duration": 0.39833333333334053,
      "velocity": 0.6299212598425197,
      "name": "F3"
    },
    {
      "midi": 63,
      "frequency": 311.13,
      "time": 176.4,
      "duration": 1.1983333333333235,
      "velocity": 0.6299212598425197,
      "name": "D#4"
    },
    {
      "midi": 75,
      "frequency": 622.25,
      "time": 176.4,
      "duration": 1.1983333333333235,
      "velocity": 0.6299212598425197,
      "name": "D#5"
    },
    {
      "midi": 57,
      "frequency": 220,
      "time": 176.4,
      "duration": 0.39833333333334053,
      "velocity": 0.6299212598425197,
      "name": "A3"
    },
    {
      "midi": 53,
      "frequency": 174.61,
      "time": 176.8,
      "duration": 0.3983333333333121,
      "velocity": 0.6299212598425197,
      "name": "F3"
    },
    {
      "midi": 48,
      "frequency": 130.81,
      "time": 177.2,
      "duration": 0.39833333333334053,
      "velocity": 0.6299212598425197,
      "name": "C3"
    },
    {
      "midi": 39,
      "frequency": 77.78,
      "time": 177.6,
      "duration": 0.39833333333334053,
      "velocity": 0.6299212598425197,
      "name": "D#2"
    },
    {
      "midi": 46,
      "frequency": 116.54,
      "time": 178,
      "duration": 0.39833333333334053,
      "velocity": 0.6299212598425197,
      "name": "A#2"
    },
    {
      "midi": 51,
      "frequency": 155.56,
      "time": 178.4,
      "duration": 0.39833333333334053,
      "velocity": 0.6299212598425197,
      "name": "D#3"
    },
    {
      "midi": 55,
      "frequency": 196,
      "time": 178.8,
      "duration": 0.3983333333333121,
      "velocity": 0.6299212598425197,
      "name": "G3"
    },
    {
      "midi": 51,
      "frequency": 155.56,
      "time": 179.2,
      "duration": 0.39833333333334053,
      "velocity": 0.6299212598425197,
      "name": "D#3"
    },
    {
      "midi": 46,
      "frequency": 116.54,
      "time": 179.6,
      "duration": 0.39833333333334053,
      "velocity": 0.6299212598425197,
      "name": "A#2"
    },
    {
      "midi": 58,
      "frequency": 233.08,
      "time": 180,
      "duration": 1.1983333333333235,
      "velocity": 0.6299212598425197,
      "name": "A#3"
    },
    {
      "midi": 39,
      "frequency": 77.78,
      "time": 180,
      "duration": 0.39833333333334053,
      "velocity": 0.6299212598425197,
      "name": "D#2"
    },
    {
      "midi": 46,
      "frequency": 116.54,
      "time": 180.4,
      "duration": 0.39833333333334053,
      "velocity": 0.6299212598425197,
      "name": "A#2"
    },
    {
      "midi": 51,
      "frequency": 155.56,
      "time": 180.8,
      "duration": 0.3983333333333121,
      "velocity": 0.6299212598425197,
      "name": "D#3"
    },
    {
      "midi": 60,
      "frequency": 261.63,
      "time": 181.2,
      "duration": 1.198333333333352,
      "velocity": 0.6299212598425197,
      "name": "C4"
    },
    {
      "midi": 55,
      "frequency": 196,
      "time": 181.2,
      "duration": 0.39833333333334053,
      "velocity": 0.6299212598425197,
      "name": "G3"
    },
    {
      "midi": 51,
      "frequency": 155.56,
      "time": 181.6,
      "duration": 0.39833333333334053,
      "velocity": 0.6299212598425197,
      "name": "D#3"
    },
    {
      "midi": 46,
      "frequency": 116.54,
      "time": 182,
      "duration": 0.39833333333334053,
      "velocity": 0.6299212598425197,
      "name": "A#2"
    },
    {
      "midi": 62,
      "frequency": 293.66,
      "time": 182.4,
      "duration": 2.3983333333333405,
      "velocity": 0.6299212598425197,
      "name": "D4"
    },
    {
      "midi": 43,
      "frequency": 98,
      "time": 182.4,
      "duration": 0.39833333333334053,
      "velocity": 0.6299212598425197,
      "name": "G2"
    },
    {
      "midi": 50,
      "frequency": 146.83,
      "time": 182.8,
      "duration": 0.3983333333333121,
      "velocity": 0.6299212598425197,
      "name": "D3"
    },
    {
      "midi": 55,
      "frequency": 196,
      "time": 183.2,
      "duration": 0.39833333333334053,
      "velocity": 0.6299212598425197,
      "name": "G3"
    },
    {
      "midi": 58,
      "frequency": 233.08,
      "time": 183.6,
      "duration": 0.39833333333334053,
      "velocity": 0.6299212598425197,
      "name": "A#3"
    },
    {
      "midi": 55,
      "frequency": 196,
      "time": 184,
      "duration": 0.39833333333334053,
      "velocity": 0.6299212598425197,
      "name": "G3"
    },
    {
      "midi": 50,
      "frequency": 146.83,
      "time": 184.4,
      "duration": 0.39833333333334053,
      "velocity": 0.6299212598425197,
      "name": "D3"
    },
    {
      "midi": 60,
      "frequency": 261.63,
      "time": 184.8,
      "duration": 2.398333333333312,
      "velocity": 0.6299212598425197,
      "name": "C4"
    },
    {
      "midi": 41,
      "frequency": 87.31,
      "time": 184.8,
      "duration": 0.3983333333333121,
      "velocity": 0.6299212598425197,
      "name": "F2"
    },
    {
      "midi": 48,
      "frequency": 130.81,
      "time": 185.2,
      "duration": 0.39833333333336896,
      "velocity": 0.6299212598425197,
      "name": "C3"
    },
    {
      "midi": 53,
      "frequency": 174.61,
      "time": 185.60000000000002,
      "duration": 0.3983333333333121,
      "velocity": 0.6299212598425197,
      "name": "F3"
    },
    {
      "midi": 57,
      "frequency": 220,
      "time": 186,
      "duration": 0.39833333333334053,
      "velocity": 0.6299212598425197,
      "name": "A3"
    },
    {
      "midi": 53,
      "frequency": 174.61,
      "time": 186.4,
      "duration": 0.39833333333334053,
      "velocity": 0.6299212598425197,
      "name": "F3"
    },
    {
      "midi": 48,
      "frequency": 130.81,
      "time": 186.8,
      "duration": 0.3983333333333121,
      "velocity": 0.6299212598425197,
      "name": "C3"
    },
    {
      "midi": 39,
      "frequency": 77.78,
      "time": 187.2,
      "duration": 0.39833333333336896,
      "velocity": 0.6299212598425197,
      "name": "D#2"
    },
    {
      "midi": 46,
      "frequency": 116.54,
      "time": 187.60000000000002,
      "duration": 0.3983333333333121,
      "velocity": 0.6299212598425197,
      "name": "A#2"
    },
    {
      "midi": 51,
      "frequency": 155.56,
      "time": 188,
      "duration": 0.39833333333334053,
      "velocity": 0.6299212598425197,
      "name": "D#3"
    },
    {
      "midi": 55,
      "frequency": 196,
      "time": 188.4,
      "duration": 0.39833333333334053,
      "velocity": 0.6299212598425197,
      "name": "G3"
    },
    {
      "midi": 51,
      "frequency": 155.56,
      "time": 188.8,
      "duration": 0.3983333333333121,
      "velocity": 0.6299212598425197,
      "name": "D#3"
    },
    {
      "midi": 46,
      "frequency": 116.54,
      "time": 189.2,
      "duration": 0.39833333333336896,
      "velocity": 0.6299212598425197,
      "name": "A#2"
    },
    {
      "midi": 63,
      "frequency": 311.13,
      "time": 189.60000000000002,
      "duration": 1.1983333333333235,
      "velocity": 0.6299212598425197,
      "name": "D#4"
    },
    {
      "midi": 67,
      "frequency": 392,
      "time": 189.60000000000002,
      "duration": 1.1983333333333235,
      "velocity": 0.6299212598425197,
      "name": "G4"
    },
    {
      "midi": 39,
      "frequency": 77.78,
      "time": 189.60000000000002,
      "duration": 0.3983333333333121,
      "velocity": 0.6299212598425197,
      "name": "D#2"
    },
    {
      "midi": 46,
      "frequency": 116.54,
      "time": 190,
      "duration": 0.39833333333334053,
      "velocity": 0.6299212598425197,
      "name": "A#2"
    },
    {
      "midi": 51,
      "frequency": 155.56,
      "time": 190.4,
      "duration": 0.39833333333334053,
      "velocity": 0.6299212598425197,
      "name": "D#3"
    },
    {
      "midi": 65,
      "frequency": 349.23,
      "time": 190.8,
      "duration": 1.1983333333333235,
      "velocity": 0.6299212598425197,
      "name": "F4"
    },
    {
      "midi": 69,
      "frequency": 440,
      "time": 190.8,
      "duration": 1.1983333333333235,
      "velocity": 0.6299212598425197,
      "name": "A4"
    },
    {
      "midi": 55,
      "frequency": 196,
      "time": 190.8,
      "duration": 0.3983333333333121,
      "velocity": 0.6299212598425197,
      "name": "G3"
    },
    {
      "midi": 51,
      "frequency": 155.56,
      "time": 191.2,
      "duration": 0.39833333333336896,
      "velocity": 0.6299212598425197,
      "name": "D#3"
    },
    {
      "midi": 46,
      "frequency": 116.54,
      "time": 191.60000000000002,
      "duration": 0.3983333333333121,
      "velocity": 0.6299212598425197,
      "name": "A#2"
    },
    {
      "midi": 67,
      "frequency": 392,
      "time": 192,
      "duration": 2.3983333333333405,
      "velocity": 0.6299212598425197,
      "name": "G4"
    },
    {
      "midi": 70,
      "frequency": 466.16,
      "time": 192,
      "duration": 2.3983333333333405,
      "velocity": 0.6299212598425197,
      "name": "A#4"
    },
    {
      "midi": 43,
      "frequency": 98,
      "time": 192,
      "duration": 0.39833333333334053,
      "velocity": 0.6299212598425197,
      "name": "G2"
    },
    {
      "midi": 50,
      "frequency": 146.83,
      "time": 192.4,
      "duration": 0.39833333333334053,
      "velocity": 0.6299212598425197,
      "name": "D3"
    },
    {
      "midi": 55,
      "frequency": 196,
      "time": 192.8,
      "duration": 0.3983333333333121,
      "velocity": 0.6299212598425197,
      "name": "G3"
    },
    {
      "midi": 58,
      "frequency": 233.08,
      "time": 193.2,
      "duration": 0.39833333333336896,
      "velocity": 0.6299212598425197,
      "name": "A#3"
    },
    {
      "midi": 55,
      "frequency": 196,
      "time": 193.60000000000002,
      "duration": 0.3983333333333121,
      "velocity": 0.6299212598425197,
      "name": "G3"
    },
    {
      "midi": 50,
      "frequency": 146.83,
      "time": 194,
      "duration": 0.39833333333334053,
      "velocity": 0.6299212598425197,
      "name": "D3"
    },
    {
      "midi": 65,
      "frequency": 349.23,
      "time": 194.4,
      "duration": 2.3983333333333405,
      "velocity": 0.6299212598425197,
      "name": "F4"
    },
    {
      "midi": 69,
      "frequency": 440,
      "time": 194.4,
      "duration": 2.3983333333333405,
      "velocity": 0.6299212598425197,
      "name": "A4"
    },
    {
      "midi": 72,
      "frequency": 523.25,
      "time": 194.4,
      "duration": 2.3983333333333405,
      "velocity": 0.6299212598425197,
      "name": "C5"
    },
    {
      "midi": 41,
      "frequency": 87.31,
      "time": 194.4,
      "duration": 2.3983333333333405,
      "velocity": 0.6299212598425197,
      "name": "F2"
    },
    {
      "midi": 62,
      "frequency": 293.66,
      "time": 196.8,
      "duration": 0.3983333333333121,
      "velocity": 0.6299212598425197,
      "name": "D4"
    },
    {
      "midi": 46,
      "frequency": 116.54,
      "time": 196.8,
      "duration": 0.3983333333333121,
      "velocity": 0.6299212598425197,
      "name": "A#2"
    },
    {
      "midi": 65,
      "frequency": 349.23,
      "time": 197.2,
      "duration": 0.1983333333333519,
      "velocity": 0.6299212598425197,
      "name": "F4"
    },
    {
      "midi": 50,
      "frequency": 146.83,
      "time": 197.2,
      "duration": 0.39833333333336896,
      "velocity": 0.6299212598425197,
      "name": "D3"
    },
    {
      "midi": 62,
      "frequency": 293.66,
      "time": 197.4,
      "duration": 0.5983333333333292,
      "velocity": 0.6299212598425197,
      "name": "D4"
    },
    {
      "midi": 53,
      "frequency": 174.61,
      "time": 197.60000000000002,
      "duration": 0.3983333333333121,
      "velocity": 0.6299212598425197,
      "name": "F3"
    },
    {
      "midi": 62,
      "frequency": 293.66,
      "time": 198,
      "duration": 0.39833333333334053,
      "velocity": 0.6299212598425197,
      "name": "D4"
    },
    {
      "midi": 58,
      "frequency": 233.08,
      "time": 198,
      "duration": 0.39833333333334053,
      "velocity": 0.6299212598425197,
      "name": "A#3"
    },
    {
      "midi": 65,
      "frequency": 349.23,
      "time": 198.4,
      "duration": 0.1983333333333519,
      "velocity": 0.6299212598425197,
      "name": "F4"
    },
    {
      "midi": 53,
      "frequency": 174.61,
      "time": 198.4,
      "duration": 0.39833333333334053,
      "velocity": 0.6299212598425197,
      "name": "F3"
    },
    {
      "midi": 62,
      "frequency": 293.66,
      "time": 198.60000000000002,
      "duration": 0.5983333333333007,
      "velocity": 0.6299212598425197,
      "name": "D4"
    },
    {
      "midi": 50,
      "frequency": 146.83,
      "time": 198.8,
      "duration": 0.3983333333333121,
      "velocity": 0.6299212598425197,
      "name": "D3"
    },
    {
      "midi": 67,
      "frequency": 392,
      "time": 199.2,
      "duration": 0.7983333333333462,
      "velocity": 0.6299212598425197,
      "name": "G4"
    },
    {
      "midi": 46,
      "frequency": 116.54,
      "time": 199.2,
      "duration": 0.39833333333336896,
      "velocity": 0.6299212598425197,
      "name": "A#2"
    },
    {
      "midi": 53,
      "frequency": 174.61,
      "time": 199.60000000000002,
      "duration": 0.3983333333333121,
      "velocity": 0.6299212598425197,
      "name": "F3"
    },
    {
      "midi": 65,
      "frequency": 349.23,
      "time": 200,
      "duration": 0.39833333333334053,
      "velocity": 0.6299212598425197,
      "name": "F4"
    },
    {
      "midi": 58,
      "frequency": 233.08,
      "time": 200,
      "duration": 0.39833333333334053,
      "velocity": 0.6299212598425197,
      "name": "A#3"
    },
    {
      "midi": 62,
      "frequency": 293.66,
      "time": 200.4,
      "duration": 0.39833333333334053,
      "velocity": 0.6299212598425197,
      "name": "D4"
    },
    {
      "midi": 45,
      "frequency": 110,
      "time": 200.4,
      "duration": 0.39833333333334053,
      "velocity": 0.6299212598425197,
      "name": "A2"
    },
    {
      "midi": 58,
      "frequency": 233.08,
      "time": 200.8,
      "duration": 0.7983333333333462,
      "velocity": 0.6299212598425197,
      "name": "A#3"
    },
    {
      "midi": 53,
      "frequency": 174.61,
      "time": 200.8,
      "duration": 0.3983333333333121,
      "velocity": 0.6299212598425197,
      "name": "F3"
    },
    {
      "midi": 57,
      "frequency": 220,
      "time": 201.2,
      "duration": 0.39833333333336896,
      "velocity": 0.6299212598425197,
      "name": "A3"
    },
    {
      "midi": 62,
      "frequency": 293.66,
      "time": 201.60000000000002,
      "duration": 0.3983333333333121,
      "velocity": 0.6299212598425197,
      "name": "D4"
    },
    {
      "midi": 43,
      "frequency": 98,
      "time": 201.60000000000002,
      "duration": 0.3983333333333121,
      "velocity": 0.6299212598425197,
      "name": "G2"
    },
    {
      "midi": 65,
      "frequency": 349.23,
      "time": 202,
      "duration": 0.19833333333332348,
      "velocity": 0.6299212598425197,
      "name": "F4"
    },
    {
      "midi": 50,
      "frequency": 146.83,
      "time": 202,
      "duration": 0.39833333333334053,
      "velocity": 0.6299212598425197,
      "name": "D3"
    },
    {
      "midi": 62,
      "frequency": 293.66,
      "time": 202.2,
      "duration": 0.5983333333333576,
      "velocity": 0.6299212598425197,
      "name": "D4"
    },
    {
      "midi": 55,
      "frequency": 196,
      "time": 202.4,
      "duration": 0.39833333333334053,
      "velocity": 0.6299212598425197,
      "name": "G3"
    },
    {
      "midi": 62,
      "frequency": 293.66,
      "time": 202.8,
      "duration": 0.3983333333333121,
      "velocity": 0.6299212598425197,
      "name": "D4"
    },
    {
      "midi": 58,
      "frequency": 233.08,
      "time": 202.8,
      "duration": 0.3983333333333121,
      "velocity": 0.6299212598425197,
      "name": "A#3"
    },
    {
      "midi": 65,
      "frequency": 349.23,
      "time": 203.2,
      "duration": 0.1983333333333519,
      "velocity": 0.6299212598425197,
      "name": "F4"
    },
    {
      "midi": 55,
      "frequency": 196,
      "time": 203.2,
      "duration": 0.39833333333336896,
      "velocity": 0.6299212598425197,
      "name": "G3"
    },
    {
      "midi": 62,
      "frequency": 293.66,
      "time": 203.4,
      "duration": 0.5983333333333292,
      "velocity": 0.6299212598425197,
      "name": "D4"
    },
    {
      "midi": 50,
      "frequency": 146.83,
      "time": 203.60000000000002,
      "duration": 0.3983333333333121,
      "velocity": 0.6299212598425197,
      "name": "D3"
    },
    {
      "midi": 67,
      "frequency": 392,
      "time": 204,
      "duration": 0.7983333333333462,
      "velocity": 0.6299212598425197,
      "name": "G4"
    },
    {
      "midi": 43,
      "frequency": 98,
      "time": 204,
      "duration": 0.39833333333334053,
      "velocity": 0.6299212598425197,
      "name": "G2"
    },
    {
      "midi": 50,
      "frequency": 146.83,
      "time": 204.4,
      "duration": 0.39833333333334053,
      "velocity": 0.6299212598425197,
      "name": "D3"
    },
    {
      "midi": 65,
      "frequency": 349.23,
      "time": 204.8,
      "duration": 0.3983333333333121,
      "velocity": 0.6299212598425197,
      "name": "F4"
    },
    {
      "midi": 55,
      "frequency": 196,
      "time": 204.8,
      "duration": 0.3983333333333121,
      "velocity": 0.6299212598425197,
      "name": "G3"
    },
    {
      "midi": 62,
      "frequency": 293.66,
      "time": 205.2,
      "duration": 0.39833333333336896,
      "velocity": 0.6299212598425197,
      "name": "D4"
    },
    {
      "midi": 41,
      "frequency": 87.31,
      "time": 205.2,
      "duration": 0.39833333333336896,
      "velocity": 0.6299212598425197,
      "name": "F2"
    },
    {
      "midi": 58,
      "frequency": 233.08,
      "time": 205.60000000000002,
      "duration": 0.3983333333333121,
      "velocity": 0.6299212598425197,
      "name": "A#3"
    },
    {
      "midi": 50,
      "frequency": 146.83,
      "time": 205.60000000000002,
      "duration": 0.3983333333333121,
      "velocity": 0.6299212598425197,
      "name": "D3"
    },
    {
      "midi": 58,
      "frequency": 233.08,
      "time": 206,
      "duration": 0.19833333333332348,
      "velocity": 0.6299212598425197,
      "name": "A#3"
    },
    {
      "midi": 53,
      "frequency": 174.61,
      "time": 206,
      "duration": 0.39833333333334053,
      "velocity": 0.6299212598425197,
      "name": "F3"
    },
    {
      "midi": 58,
      "frequency": 233.08,
      "time": 206.2,
      "duration": 0.1983333333333519,
      "velocity": 0.6299212598425197,
      "name": "A#3"
    },
    {
      "midi": 58,
      "frequency": 233.08,
      "time": 206.4,
      "duration": 1.9983333333333348,
      "velocity": 0.6299212598425197,
      "name": "A#3"
    },
    {
      "midi": 63,
      "frequency": 311.13,
      "time": 206.4,
      "duration": 1.9983333333333348,
      "velocity": 0.6299212598425197,
      "name": "D#4"
    },
    {
      "midi": 39,
      "frequency": 77.78,
      "time": 206.4,
      "duration": 0.39833333333334053,
      "velocity": 0.6299212598425197,
      "name": "D#2"
    },
    {
      "midi": 46,
      "frequency": 116.54,
      "time": 206.8,
      "duration": 0.3983333333333121,
      "velocity": 0.6299212598425197,
      "name": "A#2"
    },
    {
      "midi": 51,
      "frequency": 155.56,
      "time": 207.2,
      "duration": 0.39833333333336896,
      "velocity": 0.6299212598425197,
      "name": "D#3"
    },
    {
      "midi": 55,
      "frequency": 196,
      "time": 207.60000000000002,
      "duration": 0.3983333333333121,
      "velocity": 0.6299212598425197,
      "name": "G3"
    },
    {
      "midi": 51,
      "frequency": 155.56,
      "time": 208,
      "duration": 0.39833333333334053,
      "velocity": 0.6299212598425197,
      "name": "D#3"
    },
    {
      "midi": 62,
      "frequency": 293.66,
      "time": 208.4,
      "duration": 0.39833333333334053,
      "velocity": 0.6299212598425197,
      "name": "D4"
    },
    {
      "midi": 46,
      "frequency": 116.54,
      "time": 208.4,
      "duration": 0.39833333333334053,
      "velocity": 0.6299212598425197,
      "name": "A#2"
    },
    {
      "midi": 55,
      "frequency": 196,
      "time": 208.8,
      "duration": 0.7983333333333462,
      "velocity": 0.6299212598425197,
      "name": "G3"
    },
    {
      "midi": 39,
      "frequency": 77.78,
      "time": 208.8,
      "duration": 0.3983333333333121,
      "velocity": 0.6299212598425197,
      "name": "D#2"
    },
    {
      "midi": 46,
      "frequency": 116.54,
      "time": 209.2,
      "duration": 0.39833333333336896,
      "velocity": 0.6299212598425197,
      "name": "A#2"
    },
    {
      "midi": 58,
      "frequency": 233.08,
      "time": 209.60000000000002,
      "duration": 0.3983333333333121,
      "velocity": 0.6299212598425197,
      "name": "A#3"
    },
    {
      "midi": 51,
      "frequency": 155.56,
      "time": 209.60000000000002,
      "duration": 1.5983333333333007,
      "velocity": 0.6299212598425197,
      "name": "D#3"
    },
    {
      "midi": 58,
      "frequency": 233.08,
      "time": 210,
      "duration": 0.39833333333334053,
      "velocity": 0.6299212598425197,
      "name": "A#3"
    },
    {
      "midi": 58,
      "frequency": 233.08,
      "time": 210.4,
      "duration": 0.39833333333334053,
      "velocity": 0.6299212598425197,
      "name": "A#3"
    },
    {
      "midi": 60,
      "frequency": 261.63,
      "time": 210.8,
      "duration": 0.19833333333332348,
      "velocity": 0.6299212598425197,
      "name": "C4"
    },
    {
      "midi": 58,
      "frequency": 233.08,
      "time": 211,
      "duration": 0.19833333333332348,
      "velocity": 0.6299212598425197,
      "name": "A#3"
    },
    {
      "midi": 60,
      "frequency": 261.63,
      "time": 211.2,
      "duration": 1.198333333333352,
      "velocity": 0.6299212598425197,
      "name": "C4"
    },
    {
      "midi": 63,
      "frequency": 311.13,
      "time": 211.2,
      "duration": 1.198333333333352,
      "velocity": 0.6299212598425197,
      "name": "D#4"
    },
    {
      "midi": 41,
      "frequency": 87.31,
      "time": 211.2,
      "duration": 0.39833333333336896,
      "velocity": 0.6299212598425197,
      "name": "F2"
    },
    {
      "midi": 48,
      "frequency": 130.81,
      "time": 211.60000000000002,
      "duration": 0.3983333333333121,
      "velocity": 0.6299212598425197,
      "name": "C3"
    },
    {
      "midi": 53,
      "frequency": 174.61,
      "time": 212,
      "duration": 0.39833333333334053,
      "velocity": 0.6299212598425197,
      "name": "F3"
    },
    {
      "midi": 62,
      "frequency": 293.66,
      "time": 212.4,
      "duration": 1.198333333333352,
      "velocity": 0.6299212598425197,
      "name": "D4"
    },
    {
      "midi": 57,
      "frequency": 220,
      "time": 212.4,
      "duration": 0.39833333333334053,
      "velocity": 0.6299212598425197,
      "name": "A3"
    },
    {
      "midi": 53,
      "frequency": 174.61,
      "time": 212.8,
      "duration": 0.3983333333333121,
      "velocity": 0.6299212598425197,
      "name": "F3"
    },
    {
      "midi": 48,
      "frequency": 130.81,
      "time": 213.2,
      "duration": 0.39833333333336896,
      "velocity": 0.6299212598425197,
      "name": "C3"
    },
    {
      "midi": 60,
      "frequency": 261.63,
      "time": 213.60000000000002,
      "duration": 1.1983333333333235,
      "velocity": 0.6299212598425197,
      "name": "C4"
    },
    {
      "midi": 41,
      "frequency": 87.31,
      "time": 213.60000000000002,
      "duration": 0.3983333333333121,
      "velocity": 0.6299212598425197,
      "name": "F2"
    },
    {
      "midi": 48,
      "frequency": 130.81,
      "time": 214,
      "duration": 0.39833333333334053,
      "velocity": 0.6299212598425197,
      "name": "C3"
    },
    {
      "midi": 53,
      "frequency": 174.61,
      "time": 214.4,
      "duration": 0.39833333333334053,
      "velocity": 0.6299212598425197,
      "name": "F3"
    },
    {
      "midi": 62,
      "frequency": 293.66,
      "time": 214.8,
      "duration": 1.1983333333333235,
      "velocity": 0.6299212598425197,
      "name": "D4"
    },
    {
      "midi": 57,
      "frequency": 220,
      "time": 214.8,
      "duration": 0.3983333333333121,
      "velocity": 0.6299212598425197,
      "name": "A3"
    },
    {
      "midi": 53,
      "frequency": 174.61,
      "time": 215.2,
      "duration": 0.39833333333336896,
      "velocity": 0.6299212598425197,
      "name": "F3"
    },
    {
      "midi": 48,
      "frequency": 130.81,
      "time": 215.60000000000002,
      "duration": 0.3983333333333121,
      "velocity": 0.6299212598425197,
      "name": "C3"
    },
    {
      "midi": 62,
      "frequency": 293.66,
      "time": 216,
      "duration": 0.39833333333334053,
      "velocity": 0.6299212598425197,
      "name": "D4"
    },
    {
      "midi": 46,
      "frequency": 116.54,
      "time": 216,
      "duration": 0.39833333333334053,
      "velocity": 0.6299212598425197,
      "name": "A#2"
    },
    {
      "midi": 65,
      "frequency": 349.23,
      "time": 216.4,
      "duration": 0.1983333333333519,
      "velocity": 0.6299212598425197,
      "name": "F4"
    },
    {
      "midi": 50,
      "frequency": 146.83,
      "time": 216.4,
      "duration": 0.39833333333334053,
      "velocity": 0.6299212598425197,
      "name": "D3"
    },
    {
      "midi": 62,
      "frequency": 293.66,
      "time": 216.60000000000002,
      "duration": 0.5983333333333007,
      "velocity": 0.6299212598425197,
      "name": "D4"
    },
    {
      "midi": 53,
      "frequency": 174.61,
      "time": 216.8,
      "duration": 0.3983333333333121,
      "velocity": 0.6299212598425197,
      "name": "F3"
    },
    {
      "midi": 62,
      "frequency": 293.66,
      "time": 217.2,
      "duration": 0.39833333333336896,
      "velocity": 0.6299212598425197,
      "name": "D4"
    },
    {
      "midi": 58,
      "frequency": 233.08,
      "time": 217.2,
      "duration": 0.39833333333336896,
      "velocity": 0.6299212598425197,
      "name": "A#3"
    },
    {
      "midi": 65,
      "frequency": 349.23,
      "time": 217.60000000000002,
      "duration": 0.19833333333332348,
      "velocity": 0.6299212598425197,
      "name": "F4"
    },
    {
      "midi": 53,
      "frequency": 174.61,
      "time": 217.60000000000002,
      "duration": 0.3983333333333121,
      "velocity": 0.6299212598425197,
      "name": "F3"
    },
    {
      "midi": 62,
      "frequency": 293.66,
      "time": 217.8,
      "duration": 0.5983333333333292,
      "velocity": 0.6299212598425197,
      "name": "D4"
    },
    {
      "midi": 50,
      "frequency": 146.83,
      "time": 218,
      "duration": 0.39833333333334053,
      "velocity": 0.6299212598425197,
      "name": "D3"
    },
    {
      "midi": 67,
      "frequency": 392,
      "time": 218.4,
      "duration": 0.7983333333333178,
      "velocity": 0.6299212598425197,
      "name": "G4"
    },
    {
      "midi": 46,
      "frequency": 116.54,
      "time": 218.4,
      "duration": 0.39833333333334053,
      "velocity": 0.6299212598425197,
      "name": "A#2"
    },
    {
      "midi": 53,
      "frequency": 174.61,
      "time": 218.8,
      "duration": 0.3983333333333121,
      "velocity": 0.6299212598425197,
      "name": "F3"
    },
    {
      "midi": 65,
      "frequency": 349.23,
      "time": 219.2,
      "duration": 0.39833333333336896,
      "velocity": 0.6299212598425197,
      "name": "F4"
    },
    {
      "midi": 58,
      "frequency": 233.08,
      "time": 219.2,
      "duration": 0.39833333333336896,
      "velocity": 0.6299212598425197,
      "name": "A#3"
    },
    {
      "midi": 62,
      "frequency": 293.66,
      "time": 219.60000000000002,
      "duration": 0.3983333333333121,
      "velocity": 0.6299212598425197,
      "name": "D4"
    },
    {
      "midi": 45,
      "frequency": 110,
      "time": 219.60000000000002,
      "duration": 0.3983333333333121,
      "velocity": 0.6299212598425197,
      "name": "A2"
    },
    {
      "midi": 58,
      "frequency": 233.08,
      "time": 220,
      "duration": 0.7983333333333462,
      "velocity": 0.6299212598425197,
      "name": "A#3"
    },
    {
      "midi": 53,
      "frequency": 174.61,
      "time": 220,
      "duration": 0.39833333333334053,
      "velocity": 0.6299212598425197,
      "name": "F3"
    },
    {
      "midi": 57,
      "frequency": 220,
      "time": 220.4,
      "duration": 0.39833333333334053,
      "velocity": 0.6299212598425197,
      "name": "A3"
    },
    {
      "midi": 62,
      "frequency": 293.66,
      "time": 220.8,
      "duration": 0.3983333333333121,
      "velocity": 0.6299212598425197,
      "name": "D4"
    },
    {
      "midi": 43,
      "frequency": 98,
      "time": 220.8,
      "duration": 0.3983333333333121,
      "velocity": 0.6299212598425197,
      "name": "G2"
    },
    {
      "midi": 65,
      "frequency": 349.23,
      "time": 221.2,
      "duration": 0.1983333333333519,
      "velocity": 0.6299212598425197,
      "name": "F4"
    },
    {
      "midi": 50,
      "frequency": 146.83,
      "time": 221.2,
      "duration": 0.39833333333336896,
      "velocity": 0.6299212598425197,
      "name": "D3"
    },
    {
      "midi": 62,
      "frequency": 293.66,
      "time": 221.4,
      "duration": 0.39833333333334053,
      "velocity": 0.6299212598425197,
      "name": "D4"
    },
    {
      "midi": 55,
      "frequency": 196,
      "time": 221.60000000000002,
      "duration": 0.3983333333333121,
      "velocity": 0.6299212598425197,
      "name": "G3"
    },
    {
      "midi": 62,
      "frequency": 293.66,
      "time": 221.8,
      "duration": 0.19833333333332348,
      "velocity": 0.6299212598425197,
      "name": "D4"
    },
    {
      "midi": 62,
      "frequency": 293.66,
      "time": 222,
      "duration": 0.39833333333334053,
      "velocity": 0.6299212598425197,
      "name": "D4"
    },
    {
      "midi": 58,
      "frequency": 233.08,
      "time": 222,
      "duration": 0.39833333333334053,
      "velocity": 0.6299212598425197,
      "name": "A#3"
    },
    {
      "midi": 65,
      "frequency": 349.23,
      "time": 222.4,
      "duration": 0.1983333333333519,
      "velocity": 0.6299212598425197,
      "name": "F4"
    },
    {
      "midi": 55,
      "frequency": 196,
      "time": 222.4,
      "duration": 0.39833333333334053,
      "velocity": 0.6299212598425197,
      "name": "G3"
    },
    {
      "midi": 62,
      "frequency": 293.66,
      "time": 222.60000000000002,
      "duration": 0.5983333333333007,
      "velocity": 0.6299212598425197,
      "name": "D4"
    },
    {
      "midi": 50,
      "frequency": 146.83,
      "time": 222.8,
      "duration": 0.3983333333333121,
      "velocity": 0.6299212598425197,
      "name": "D3"
    },
    {
      "midi": 67,
      "frequency": 392,
      "time": 223.2,
      "duration": 0.7983333333333462,
      "velocity": 0.6299212598425197,
      "name": "G4"
    },
    {
      "midi": 43,
      "frequency": 98,
      "time": 223.2,
      "duration": 0.39833333333336896,
      "velocity": 0.6299212598425197,
      "name": "G2"
    },
    {
      "midi": 50,
      "frequency": 146.83,
      "time": 223.60000000000002,
      "duration": 0.3983333333333121,
      "velocity": 0.6299212598425197,
      "name": "D3"
    },
    {
      "midi": 65,
      "frequency": 349.23,
      "time": 224,
      "duration": 0.39833333333334053,
      "velocity": 0.6299212598425197,
      "name": "F4"
    },
    {
      "midi": 55,
      "frequency": 196,
      "time": 224,
      "duration": 0.39833333333334053,
      "velocity": 0.6299212598425197,
      "name": "G3"
    },
    {
      "midi": 62,
      "frequency": 293.66,
      "time": 224.4,
      "duration": 0.39833333333334053,
      "velocity": 0.6299212598425197,
      "name": "D4"
    },
    {
      "midi": 41,
      "frequency": 87.31,
      "time": 224.4,
      "duration": 0.39833333333334053,
      "velocity": 0.6299212598425197,
      "name": "F2"
    },
    {
      "midi": 58,
      "frequency": 233.08,
      "time": 224.8,
      "duration": 0.3983333333333121,
      "velocity": 0.6299212598425197,
      "name": "A#3"
    },
    {
      "midi": 50,
      "frequency": 146.83,
      "time": 224.8,
      "duration": 0.3983333333333121,
      "velocity": 0.6299212598425197,
      "name": "D3"
    },
    {
      "midi": 58,
      "frequency": 233.08,
      "time": 225.2,
      "duration": 0.1983333333333519,
      "velocity": 0.6299212598425197,
      "name": "A#3"
    },
    {
      "midi": 53,
      "frequency": 174.61,
      "time": 225.2,
      "duration": 0.39833333333336896,
      "velocity": 0.6299212598425197,
      "name": "F3"
    },
    {
      "midi": 58,
      "frequency": 233.08,
      "time": 225.4,
      "duration": 0.1983333333333519,
      "velocity": 0.6299212598425197,
      "name": "A#3"
    },
    {
      "midi": 58,
      "frequency": 233.08,
      "time": 225.60000000000002,
      "duration": 1.9983333333333348,
      "velocity": 0.6299212598425197,
      "name": "A#3"
    },
    {
      "midi": 63,
      "frequency": 311.13,
      "time": 225.60000000000002,
      "duration": 1.9983333333333348,
      "velocity": 0.6299212598425197,
      "name": "D#4"
    },
    {
      "midi": 39,
      "frequency": 77.78,
      "time": 225.60000000000002,
      "duration": 0.3983333333333121,
      "velocity": 0.6299212598425197,
      "name": "D#2"
    },
    {
      "midi": 46,
      "frequency": 116.54,
      "time": 226,
      "duration": 0.39833333333334053,
      "velocity": 0.6299212598425197,
      "name": "A#2"
    },
    {
      "midi": 51,
      "frequency": 155.56,
      "time": 226.4,
      "duration": 0.39833333333334053,
      "velocity": 0.6299212598425197,
      "name": "D#3"
    },
    {
      "midi": 55,
      "frequency": 196,
      "time": 226.8,
      "duration": 0.3983333333333121,
      "velocity": 0.6299212598425197,
      "name": "G3"
    },
    {
      "midi": 51,
      "frequency": 155.56,
      "time": 227.2,
      "duration": 0.39833333333336896,
      "velocity": 0.6299212598425197,
      "name": "D#3"
    },
    {
      "midi": 62,
      "frequency": 293.66,
      "time": 227.60000000000002,
      "duration": 0.3983333333333121,
      "velocity": 0.6299212598425197,
      "name": "D4"
    },
    {
      "midi": 46,
      "frequency": 116.54,
      "time": 227.60000000000002,
      "duration": 0.3983333333333121,
      "velocity": 0.6299212598425197,
      "name": "A#2"
    },
    {
      "midi": 55,
      "frequency": 196,
      "time": 228,
      "duration": 0.7983333333333462,
      "velocity": 0.6299212598425197,
      "name": "G3"
    },
    {
      "midi": 39,
      "frequency": 77.78,
      "time": 228,
      "duration": 0.39833333333334053,
      "velocity": 0.6299212598425197,
      "name": "D#2"
    },
    {
      "midi": 46,
      "frequency": 116.54,
      "time": 228.4,
      "duration": 0.39833333333334053,
      "velocity": 0.6299212598425197,
      "name": "A#2"
    },
    {
      "midi": 58,
      "frequency": 233.08,
      "time": 228.8,
      "duration": 0.3983333333333121,
      "velocity": 0.6299212598425197,
      "name": "A#3"
    },
    {
      "midi": 51,
      "frequency": 155.56,
      "time": 228.8,
      "duration": 1.5983333333333292,
      "velocity": 0.6299212598425197,
      "name": "D#3"
    },
    {
      "midi": 58,
      "frequency": 233.08,
      "time": 229.2,
      "duration": 0.39833333333336896,
      "velocity": 0.6299212598425197,
      "name": "A#3"
    },
    {
      "midi": 58,
      "frequency": 233.08,
      "time": 229.60000000000002,
      "duration": 0.3983333333333121,
      "velocity": 0.6299212598425197,
      "name": "A#3"
    },
    {
      "midi": 60,
      "frequency": 261.63,
      "time": 230,
      "duration": 0.19833333333332348,
      "velocity": 0.6299212598425197,
      "name": "C4"
    },
    {
      "midi": 58,
      "frequency": 233.08,
      "time": 230.2,
      "duration": 0.1983333333333519,
      "velocity": 0.6299212598425197,
      "name": "A#3"
    },
    {
      "midi": 60,
      "frequency": 261.63,
      "time": 230.4,
      "duration": 1.198333333333352,
      "velocity": 0.6299212598425197,
      "name": "C4"
    },
    {
      "midi": 63,
      "frequency": 311.13,
      "time": 230.4,
      "duration": 1.198333333333352,
      "velocity": 0.6299212598425197,
      "name": "D#4"
    },
    {
      "midi": 41,
      "frequency": 87.31,
      "time": 230.4,
      "duration": 0.39833333333334053,
      "velocity": 0.6299212598425197,
      "name": "F2"
    },
    {
      "midi": 48,
      "frequency": 130.81,
      "time": 230.8,
      "duration": 0.3983333333333121,
      "velocity": 0.6299212598425197,
      "name": "C3"
    },
    {
      "midi": 53,
      "frequency": 174.61,
      "time": 231.2,
      "duration": 0.39833333333336896,
      "velocity": 0.6299212598425197,
      "name": "F3"
    },
    {
      "midi": 62,
      "frequency": 293.66,
      "time": 231.60000000000002,
      "duration": 1.1983333333333235,
      "velocity": 0.6299212598425197,
      "name": "D4"
    },
    {
      "midi": 57,
      "frequency": 220,
      "time": 231.60000000000002,
      "duration": 0.3983333333333121,
      "velocity": 0.6299212598425197,
      "name": "A3"
    },
    {
      "midi": 53,
      "frequency": 174.61,
      "time": 232,
      "duration": 0.39833333333334053,
      "velocity": 0.6299212598425197,
      "name": "F3"
    },
    {
      "midi": 48,
      "frequency": 130.81,
      "time": 232.4,
      "duration": 0.39833333333334053,
      "velocity": 0.6299212598425197,
      "name": "C3"
    },
    {
      "midi": 60,
      "frequency": 261.63,
      "time": 232.8,
      "duration": 2.398333333333312,
      "velocity": 0.6299212598425197,
      "name": "C4"
    },
    {
      "midi": 41,
      "frequency": 87.31,
      "time": 232.8,
      "duration": 0.3983333333333121,
      "velocity": 0.6299212598425197,
      "name": "F2"
    },
    {
      "midi": 48,
      "frequency": 130.81,
      "time": 233.2,
      "duration": 0.39833333333336896,
      "velocity": 0.6299212598425197,
      "name": "C3"
    },
    {
      "midi": 53,
      "frequency": 174.61,
      "time": 233.60000000000002,
      "duration": 0.3983333333333121,
      "velocity": 0.6299212598425197,
      "name": "F3"
    },
    {
      "midi": 57,
      "frequency": 220,
      "time": 234,
      "duration": 0.39833333333334053,
      "velocity": 0.6299212598425197,
      "name": "A3"
    },
    {
      "midi": 53,
      "frequency": 174.61,
      "time": 234.4,
      "duration": 0.39833333333334053,
      "velocity": 0.6299212598425197,
      "name": "F3"
    },
    {
      "midi": 48,
      "frequency": 130.81,
      "time": 234.8,
      "duration": 0.3983333333333121,
      "velocity": 0.6299212598425197,
      "name": "C3"
    },
    {
      "midi": 39,
      "frequency": 77.78,
      "time": 235.2,
      "duration": 0.39833333333336896,
      "velocity": 0.6299212598425197,
      "name": "D#2"
    },
    {
      "midi": 46,
      "frequency": 116.54,
      "time": 235.60000000000002,
      "duration": 0.3983333333333121,
      "velocity": 0.6299212598425197,
      "name": "A#2"
    },
    {
      "midi": 51,
      "frequency": 155.56,
      "time": 236,
      "duration": 0.7983333333333462,
      "velocity": 0.6299212598425197,
      "name": "D#3"
    },
    {
      "midi": 63,
      "frequency": 311.13,
      "time": 236.4,
      "duration": 1.198333333333352,
      "velocity": 0.6299212598425197,
      "name": "D#4"
    },
    {
      "midi": 51,
      "frequency": 155.56,
      "time": 236.8,
      "duration": 0.3983333333333121,
      "velocity": 0.6299212598425197,
      "name": "D#3"
    },
    {
      "midi": 46,
      "frequency": 116.54,
      "time": 237.2,
      "duration": 0.39833333333336896,
      "velocity": 0.6299212598425197,
      "name": "A#2"
    },
    {
      "midi": 62,
      "frequency": 293.66,
      "time": 237.60000000000002,
      "duration": 1.1983333333333235,
      "velocity": 0.6299212598425197,
      "name": "D4"
    },
    {
      "midi": 39,
      "frequency": 77.78,
      "time": 237.60000000000002,
      "duration": 0.3983333333333121,
      "velocity": 0.6299212598425197,
      "name": "D#2"
    },
    {
      "midi": 46,
      "frequency": 116.54,
      "time": 238,
      "duration": 0.39833333333334053,
      "velocity": 0.6299212598425197,
      "name": "A#2"
    },
    {
      "midi": 51,
      "frequency": 155.56,
      "time": 238.4,
      "duration": 0.7983333333333178,
      "velocity": 0.6299212598425197,
      "name": "D#3"
    },
    {
      "midi": 60,
      "frequency": 261.63,
      "time": 238.8,
      "duration": 1.1983333333333235,
      "velocity": 0.6299212598425197,
      "name": "C4"
    },
    {
      "midi": 51,
      "frequency": 155.56,
      "time": 239.2,
      "duration": 0.39833333333336896,
      "velocity": 0.6299212598425197,
      "name": "D#3"
    },
    {
      "midi": 46,
      "frequency": 116.54,
      "time": 239.60000000000002,
      "duration": 0.3983333333333121,
      "velocity": 0.6299212598425197,
      "name": "A#2"
    },
    {
      "midi": 58,
      "frequency": 233.08,
      "time": 240,
      "duration": 1.1983333333333235,
      "velocity": 0.6299212598425197,
      "name": "A#3"
    },
    {
      "midi": 46,
      "frequency": 116.54,
      "time": 240,
      "duration": 0.39833333333334053,
      "velocity": 0.6299212598425197,
      "name": "A#2"
    },
    {
      "midi": 50,
      "frequency": 146.83,
      "time": 240.4,
      "duration": 0.39833333333334053,
      "velocity": 0.6299212598425197,
      "name": "D3"
    },
    {
      "midi": 53,
      "frequency": 174.61,
      "time": 240.8,
      "duration": 0.7983333333333462,
      "velocity": 0.6299212598425197,
      "name": "F3"
    },
    {
      "midi": 65,
      "frequency": 349.23,
      "time": 241.2,
      "duration": 1.198333333333352,
      "velocity": 0.6299212598425197,
      "name": "F4"
    },
    {
      "midi": 53,
      "frequency": 174.61,
      "time": 241.60000000000002,
      "duration": 0.3983333333333121,
      "velocity": 0.6299212598425197,
      "name": "F3"
    },
    {
      "midi": 50,
      "frequency": 146.83,
      "time": 242,
      "duration": 0.39833333333334053,
      "velocity": 0.6299212598425197,
      "name": "D3"
    },
    {
      "midi": 63,
      "frequency": 311.13,
      "time": 242.4,
      "duration": 1.198333333333352,
      "velocity": 0.6299212598425197,
      "name": "D#4"
    },
    {
      "midi": 46,
      "frequency": 116.54,
      "time": 242.4,
      "duration": 0.39833333333334053,
      "velocity": 0.6299212598425197,
      "name": "A#2"
    },
    {
      "midi": 50,
      "frequency": 146.83,
      "time": 242.8,
      "duration": 0.3983333333333121,
      "velocity": 0.6299212598425197,
      "name": "D3"
    },
    {
      "midi": 53,
      "frequency": 174.61,
      "time": 243.2,
      "duration": 0.7983333333333462,
      "velocity": 0.6299212598425197,
      "name": "F3"
    },
    {
      "midi": 62,
      "frequency": 293.66,
      "time": 243.60000000000002,
      "duration": 1.1983333333333235,
      "velocity": 0.6299212598425197,
      "name": "D4"
    },
    {
      "midi": 53,
      "frequency": 174.61,
      "time": 244,
      "duration": 0.39833333333334053,
      "velocity": 0.6299212598425197,
      "name": "F3"
    },
    {
      "midi": 50,
      "frequency": 146.83,
      "time": 244.4,
      "duration": 0.39833333333334053,
      "velocity": 0.6299212598425197,
      "name": "D3"
    },
    {
      "midi": 58,
      "frequency": 233.08,
      "time": 244.8,
      "duration": 1.1983333333333235,
      "velocity": 0.6299212598425197,
      "name": "A#3"
    },
    {
      "midi": 46,
      "frequency": 116.54,
      "time": 244.8,
      "duration": 0.3983333333333121,
      "velocity": 0.6299212598425197,
      "name": "A#2"
    },
    {
      "midi": 50,
      "frequency": 146.83,
      "time": 245.2,
      "duration": 0.39833333333336896,
      "velocity": 0.6299212598425197,
      "name": "D3"
    },
    {
      "midi": 51,
      "frequency": 155.56,
      "time": 245.60000000000002,
      "duration": 0.7983333333333178,
      "velocity": 0.6299212598425197,
      "name": "D#3"
    },
    {
      "midi": 63,
      "frequency": 311.13,
      "time": 246,
      "duration": 1.1983333333333235,
      "velocity": 0.6299212598425197,
      "name": "D#4"
    },
    {
      "midi": 51,
      "frequency": 155.56,
      "time": 246.4,
      "duration": 0.39833333333334053,
      "velocity": 0.6299212598425197,
      "name": "D#3"
    },
    {
      "midi": 46,
      "frequency": 116.54,
      "time": 246.8,
      "duration": 0.3983333333333121,
      "velocity": 0.6299212598425197,
      "name": "A#2"
    },
    {
      "midi": 62,
      "frequency": 293.66,
      "time": 247.2,
      "duration": 1.198333333333352,
      "velocity": 0.6299212598425197,
      "name": "D4"
    },
    {
      "midi": 39,
      "frequency": 77.78,
      "time": 247.2,
      "duration": 0.39833333333336896,
      "velocity": 0.6299212598425197,
      "name": "D#2"
    },
    {
      "midi": 46,
      "frequency": 116.54,
      "time": 247.60000000000002,
      "duration": 0.3983333333333121,
      "velocity": 0.6299212598425197,
      "name": "A#2"
    },
    {
      "midi": 51,
      "frequency": 155.56,
      "time": 248,
      "duration": 0.7983333333333462,
      "velocity": 0.6299212598425197,
      "name": "D#3"
    },
    {
      "midi": 60,
      "frequency": 261.63,
      "time": 248.4,
      "duration": 1.1983333333333235,
      "velocity": 0.6299212598425197,
      "name": "C4"
    },
    {
      "midi": 51,
      "frequency": 155.56,
      "time": 248.8,
      "duration": 0.39833333333334053,
      "velocity": 0.6299212598425197,
      "name": "D#3"
    },
    {
      "midi": 46,
      "frequency": 116.54,
      "time": 249.20000000000002,
      "duration": 0.3983333333333121,
      "velocity": 0.6299212598425197,
      "name": "A#2"
    },
    {
      "midi": 58,
      "frequency": 233.08,
      "time": 249.6,
      "duration": 1.198333333333352,
      "velocity": 0.6299212598425197,
      "name": "A#3"
    },
    {
      "midi": 43,
      "frequency": 98,
      "time": 249.6,
      "duration": 0.39833333333334053,
      "velocity": 0.6299212598425197,
      "name": "G2"
    },
    {
      "midi": 50,
      "frequency": 146.83,
      "time": 250,
      "duration": 0.39833333333334053,
      "velocity": 0.6299212598425197,
      "name": "D3"
    },
    {
      "midi": 55,
      "frequency": 196,
      "time": 250.4,
      "duration": 0.7983333333333462,
      "velocity": 0.6299212598425197,
      "name": "G3"
    },
    {
      "midi": 62,
      "frequency": 293.66,
      "time": 250.8,
      "duration": 1.1983333333333235,
      "velocity": 0.6299212598425197,
      "name": "D4"
    },
    {
      "midi": 55,
      "frequency": 196,
      "time": 251.20000000000002,
      "duration": 0.3983333333333121,
      "velocity": 0.6299212598425197,
      "name": "G3"
    },
    {
      "midi": 50,
      "frequency": 146.83,
      "time": 251.6,
      "duration": 0.39833333333334053,
      "velocity": 0.6299212598425197,
      "name": "D3"
    },
    {
      "midi": 60,
      "frequency": 261.63,
      "time": 252,
      "duration": 1.198333333333352,
      "velocity": 0.6299212598425197,
      "name": "C4"
    },
    {
      "midi": 41,
      "frequency": 87.31,
      "time": 252,
      "duration": 0.39833333333334053,
      "velocity": 0.6299212598425197,
      "name": "F2"
    },
    {
      "midi": 48,
      "frequency": 130.81,
      "time": 252.4,
      "duration": 0.39833333333334053,
      "velocity": 0.6299212598425197,
      "name": "C3"
    },
    {
      "midi": 53,
      "frequency": 174.61,
      "time": 252.8,
      "duration": 0.7983333333333178,
      "velocity": 0.6299212598425197,
      "name": "F3"
    },
    {
      "midi": 57,
      "frequency": 220,
      "time": 253.20000000000002,
      "duration": 1.1983333333333235,
      "velocity": 0.6299212598425197,
      "name": "A3"
    },
    {
      "midi": 53,
      "frequency": 174.61,
      "time": 253.6,
      "duration": 0.39833333333334053,
      "velocity": 0.6299212598425197,
      "name": "F3"
    },
    {
      "midi": 48,
      "frequency": 130.81,
      "time": 254,
      "duration": 0.39833333333334053,
      "velocity": 0.6299212598425197,
      "name": "C3"
    },
    {
      "midi": 53,
      "frequency": 174.61,
      "time": 254.4,
      "duration": 2.3983333333333405,
      "velocity": 0.6299212598425197,
      "name": "F3"
    },
    {
      "midi": 58,
      "frequency": 233.08,
      "time": 254.4,
      "duration": 0,
      "velocity": 0.6299212598425197,
      "name": "A#3"
    },
    {
      "midi": 46,
      "frequency": 116.54,
      "time": 254.4,
      "duration": 2.3983333333333405,
      "velocity": 0.6299212598425197,
      "name": "A#2"
    },
    {
      "midi": 58,
      "frequency": 233.08,
      "time": 254.4,
      "duration": 2.3983333333333405,
      "velocity": 0.6299212598425197,
      "name": "A#3"
    }
  ],
  "backgroundFrequencies": [
    233.08,
    233.08,
    233.08,
    220,
    196,
    196,
    196,
    174.61,
    155.56,
    155.56,
    155.56,
    233.08,
    233.08,
    174.61,
    233.08,
    77.78,
    116.54,
    155.56,
    233.08,
    155.56,
    116.54,
    233.08,
    77.78,
    116.54,
    155.56,
    116.54,
    233.08,
    233.08,
    116.54,
    146.83,
    174.61,
    233.08,
    174.61,
    146.83,
    233.08,
    116.54,
    146.83,
    174.61,
    233.08,
    98,
    146.83,
    196,
    220,
    87.31,
    130.81,
    233.08,
    174.61,
    196,
    220,
    233.08,
    77.78,
    116.54,
    155.56,
    233.08,
    155.56,
    116.54,
    233.08,
    77.78,
    116.54,
    155.56,
    233.08,
    233.08,
    233.08,
    116.54,
    146.83,
    174.61,
    233.08,
    174.61,
    146.83,
    233.08,
    116.54,
    146.83,
    174.61,
    233.08,
    233.08,
    98,
    146.83,
    196,
    220,
    87.31,
    130.81,
    233.08,
    174.61,
    196,
    220,
    196,
    77.78,
    116.54,
    155.56,
    196,
    155.56,
    116.54,
    77.78,
    116.54,
    155.56,
    196,
    155.56,
    116.54,
    98,
    146.83,
    196,
    233.08,
    196,
    146.83,
    87.31,
    116.54,
    146.83,
    174.61,
    233.08,
    174.61,
    146.83,
    116.54,
    174.61,
    233.08,
    110,
    233.08,
    174.61,
    220,
    98,
    146.83,
    196,
    233.08,
    196,
    146.83,
    98,
    146.83,
    196,
    87.31,
    233.08,
    146.83,
    233.08,
    174.61,
    233.08,
    233.08,
    77.78,
    116.54,
    155.56,
    196,
    155.56,
    116.54,
    196,
    77.78,
    116.54,
    233.08,
    155.56,
    233.08,
    233.08,
    233.08,
    87.31,
    130.81,
    174.61,
    220,
    174.61,
    130.81,
    174.61,
    87.31,
    77.78,
    116.54,
    155.56,
    196,
    155.56,
    116.54,
    77.78,
    233.08,
    77.78,
    116.54,
    155.56,
    233.08,
    155.56,
    116.54,
    233.08,
    77.78,
    116.54,
    155.56,
    116.54,
    233.08,
    233.08,
    116.54,
    146.83,
    174.61,
    233.08,
    174.61,
    146.83,
    233.08,
    116.54,
    146.83,
    174.61,
    233.08,
    98,
    146.83,
    196,
    220,
    87.31,
    130.81,
    233.08,
    174.61,
    196,
    220,
    233.08,
    77.78,
    116.54,
    155.56,
    233.08,
    155.56,
    116.54,
    233.08,
    77.78,
    116.54,
    155.56,
    233.08,
    233.08,
    233.08,
    116.54,
    146.83,
    174.61,
    233.08,
    174.61,
    146.83,
    233.08,
    116.54,
    146.83,
    174.61,
    233.08,
    233.08,
    98,
    146.83,
    196,
    220,
    87.31,
    130.81,
    233.08,
    174.61,
    196,
    220,
    196,
    77.78,
    116.54,
    155.56,
    196,
    155.56,
    116.54,
    77.78,
    116.54,
    155.56,
    196,
    155.56,
    116.54,
    98,
    146.83,
    196,
    233.08,
    196,
    146.83,
    87.31,
    116.54,
    146.83,
    174.61,
    233.08,
    174.61,
    146.83,
    116.54,
    174.61,
    233.08,
    110,
    233.08,
    174.61,
    220,
    98,
    146.83,
    196,
    233.08,
    196,
    146.83,
    98,
    146.83,
    196,
    87.31,
    233.08,
    146.83,
    233.08,
    174.61,
    233.08,
    233.08,
    77.78,
    116.54,
    155.56,
    196,
    155.56,
    116.54,
    196,
    77.78,
    116.54,
    233.08,
    155.56,
    233.08,
    233.08,
    233.08,
    87.31,
    130.81,
    174.61,
    220,
    174.61,
    130.81,
    87.31,
    130.81,
    174.61,
    220,
    174.61,
    130.81,
    116.54,
    146.83,
    174.61,
    233.08,
    174.61,
    146.83,
    116.54,
    174.61,
    233.08,
    110,
    233.08,
    174.61,
    220,
    98,
    146.83,
    196,
    233.08,
    196,
    146.83,
    98,
    146.83,
    196,
    87.31,
    233.08,
    146.83,
    233.08,
    174.61,
    233.08,
    233.08,
    77.78,
    116.54,
    155.56,
    196,
    155.56,
    116.54,
    196,
    77.78,
    116.54,
    233.08,
    155.56,
    233.08,
    233.08,
    233.08,
    87.31,
    130.81,
    174.61,
    220,
    174.61,
    130.81,
    87.31,
    130.81,
    174.61,
    220,
    174.61,
    130.81,
    116.54,
    146.83,
    174.61,
    233.08,
    174.61,
    146.83,
    116.54,
    146.83,
    174.61,
    233.08,
    174.61,
    146.83,
    98,
    146.83,
    196,
    233.08,
    196,
    146.83,
    98,
    146.83,
    196,
    233.08,
    196,
    146.83,
    77.78,
    116.54,
    155.56,
    196,
    155.56,
    116.54,
    77.78,
    116.54,
    155.56,
    196,
    155.56,
    116.54,
    87.31,
    130.81,
    174.61,
    220,
    174.61,
    130.81,
    87.31,
    130.81,
    174.61,
    220,
    174.61,
    130.81,
    77.78,
    116.54,
    155.56,
    196,
    155.56,
    116.54,
    233.08,
    77.78,
    116.54,
    155.56,
    196,
    155.56,
    116.54,
    98,
    146.83,
    196,
    233.08,
    196,
    146.83,
    87.31,
    130.81,
    174.61,
    220,
    174.61,
    130.81,
    77.78,
    116.54,
    155.56,
    196,
    155.56,
    116.54,
    77.78,
    116.54,
    155.56,
    196,
    155.56,
    116.54,
    98,
    146.83,
    196,
    233.08,
    196,
    146.83,
    87.31,
    116.54,
    146.83,
    174.61,
    233.08,
    174.61,
    146.83,
    116.54,
    174.61,
    233.08,
    110,
    233.08,
    174.61,
    220,
    98,
    146.83,
    196,
    233.08,
    196,
    146.83,
    98,
    146.83,
    196,
    87.31,
    233.08,
    146.83,
    233.08,
    174.61,
    233.08,
    233.08,
    77.78,
    116.54,
    155.56,
    196,
    155.56,
    116.54,
    196,
    77.78,
    116.54,
    233.08,
    155.56,
    233.08,
    233.08,
    233.08,
    87.31,
    130.81,
    174.61,
    220,
    174.61,
    130.81,
    87.31,
    130.81,
    174.61,
    220,
    174.61,
    130.81,
    116.54,
    146.83,
    174.61,
    233.08,
    174.61,
    146.83,
    116.54,
    174.61,
    233.08,
    110,
    233.08,
    174.61,
    220,
    98,
    146.83,
    196,
    233.08,
    196,
    146.83,
    98,
    146.83,
    196,
    87.31,
    233.08,
    146.83,
    233.08,
    174.61,
    233.08,
    233.08,
    77.78,
    116.54,
    155.56,
    196,
    155.56,
    116.54,
    196,
    77.78,
    116.54,
    233.08,
    155.56,
    233.08,
    233.08,
    233.08,
    87.31,
    130.81,
    174.61,
    220,
    174.61,
    130.81,
    87.31,
    130.81,
    174.61,
    220,
    174.61,
    130.81,
    77.78,
    116.54,
    155.56,
    155.56,
    116.54,
    77.78,
    116.54,
    155.56,
    155.56,
    116.54,
    233.08,
    116.54,
    146.83,
    174.61,
    174.61,
    146.83,
    116.54,
    146.83,
    174.61,
    174.61,
    146.83,
    233.08,
    116.54,
    146.83,
    155.56,
    155.56,
    116.54,
    77.78,
    116.54,
    155.56,
    155.56,
    116.54,
    233.08,
    98,
    146.83,
    196,
    196,
    146.83,
    87.31,
    130.81,
    174.61,
    220,
    174.61,
    130.81,
    174.61,
    233.08,
    116.54,
    233.08
  ],
  "melodyFrequencies": [
    349.23,
    466.16,
    587.33,
    349.23,
    466.16,
    587.33,
    349.23,
    466.16,
    587.33,
    349.23,
    523.25,
    392,
    466.16,
    587.33,
    392,
    466.16,
    587.33,
    392,
    466.16,
    587.33,
    392,
    523.25,
    392,
    466.16,
    622.25,
    392,
    466.16,
    622.25,
    392,
    466.16,
    622.25,
    466.16,
    349.23,
    466.16,
    587.33,
    349.23,
    466.16,
    587.33,
    349.23,
    440,
    523.25,
    466.16,
    440,
    349.23,
    293.66,
    261.63,
    349.23,
    311.13,
    293.66,
    349.23,
    311.13,
    293.66,
    293.66,
    261.63,
    349.23,
    311.13,
    293.66,
    349.23,
    311.13,
    293.66,
    311.13,
    392,
    349.23,
    440,
    392,
    466.16,
    349.23,
    440,
    293.66,
    349.23,
    293.66,
    293.66,
    349.23,
    293.66,
    392,
    349.23,
    293.66,
    293.66,
    349.23,
    293.66,
    293.66,
    349.23,
    293.66,
    392,
    349.23,
    293.66,
    311.13,
    293.66,
    261.63,
    261.63,
    311.13,
    293.66,
    466.16,
    440,
    349.23,
    293.66,
    261.63,
    349.23,
    311.13,
    293.66,
    349.23,
    311.13,
    293.66,
    293.66,
    261.63,
    349.23,
    311.13,
    293.66,
    349.23,
    311.13,
    293.66,
    311.13,
    392,
    349.23,
    440,
    392,
    466.16,
    349.23,
    440,
    293.66,
    349.23,
    293.66,
    293.66,
    349.23,
    293.66,
    392,
    349.23,
    293.66,
    293.66,
    349.23,
    293.66,
    293.66,
    349.23,
    293.66,
    392,
    349.23,
    293.66,
    311.13,
    293.66,
    261.63,
    261.63,
    311.13,
    293.66,
    261.63,
    293.66,
    293.66,
    349.23,
    293.66,
    293.66,
    349.23,
    293.66,
    293.66,
    392,
    349.23,
    293.66,
    293.66,
    349.23,
    293.66,
    293.66,
    293.66,
    349.23,
    293.66,
    293.66,
    392,
    349.23,
    293.66,
    311.13,
    293.66,
    261.63,
    261.63,
    311.13,
    293.66,
    349.23,
    466.16,
    932.33,
    440,
    880,
    349.23,
    698.46,
    293.66,
    587.33,
    466.16,
    932.33,
    440,
    880,
    293.66,
    587.33,
    311.13,
    622.25,
    523.25,
    1046.5,
    466.16,
    932.33,
    349.23,
    698.46,
    311.13,
    622.25,
    587.33,
    1174.66,
    523.25,
    1046.5,
    311.13,
    622.25,
    261.63,
    293.66,
    261.63,
    311.13,
    392,
    349.23,
    440,
    392,
    466.16,
    349.23,
    440,
    523.25,
    293.66,
    349.23,
    293.66,
    293.66,
    349.23,
    293.66,
    392,
    349.23,
    293.66,
    293.66,
    349.23,
    293.66,
    293.66,
    349.23,
    293.66,
    392,
    349.23,
    293.66,
    311.13,
    293.66,
    261.63,
    261.63,
    311.13,
    293.66,
    261.63,
    293.66,
    293.66,
    349.23,
    293.66,
    293.66,
    349.23,
    293.66,
    392,
    349.23,
    293.66,
    293.66,
    349.23,
    293.66,
    293.66,
    293.66,
    349.23,
    293.66,
    392,
    349.23,
    293.66,
    311.13,
    293.66,
    261.63,
    261.63,
    311.13,
    293.66,
    261.63,
    311.13,
    293.66,
    261.63,
    349.23,
    311.13,
    293.66,
    311.13,
    293.66,
    261.63,
    293.66,
    261.63
  ]
}