{
  "metadata": {
    "name": "피아노 , RH",
    "duration": 231.104398525,
    "tempo": 135.000135000135,
    "timeSignature": [
      4,
      4
    ],
    "totalNotes": 2700,
    "backgroundNotes": 1158,
    "melodyNotes": 1542,
    "c4Threshold": 261.6255653005986
  },
  "allNotes": [
    {
      "midi": 79,
      "frequency": 783.9908719634986,
      "time": 0,
      "duration": 0.315740425,
      "velocity": 0.5905511811023622,
      "name": "G5"
    },
    {
      "midi": 72,
      "frequency": 523.2511306011972,
      "time": 0,
      "duration": 0.8435176750000001,
      "velocity": 0.5905511811023622,
      "name": "C5"
    },
    {
      "midi": 76,
      "frequency": 659.2551138257398,
      "time": 0,
      "duration": 0.8435176750000001,
      "velocity": 0.5905511811023622,
      "name": "E5"
    },
    {
      "midi": 48,
      "frequency": 130.8127826502993,
      "time": 0,
      "duration": 0.315740425,
      "velocity": 0.47244094488188976,
      "name": "C3"
    },
    {
      "midi": 60,
      "frequency": 261.6255653005986,
      "time": 0,
      "duration": 0.315740425,
      "velocity": 0.47244094488188976,
      "name": "C4"
    },
    {
      "midi": 78,
      "frequency": 739.9888454232689,
      "time": 0.333333,
      "duration": 0.315740425,
      "velocity": 0.5905511811023622,
      "name": "F#5"
    },
    {
      "midi": 55,
      "frequency": 195.99771799087463,
      "time": 0.333333,
      "duration": 0.315740425,
      "velocity": 0.47244094488188976,
      "name": "G3"
    },
    {
      "midi": 79,
      "frequency": 783.9908719634986,
      "time": 0.666666,
      "duration": 1.0546285750000002,
      "velocity": 0.5905511811023622,
      "name": "G5"
    },
    {
      "midi": 60,
      "frequency": 261.6255653005986,
      "time": 0.666666,
      "duration": 0.632406775,
      "velocity": 0.47244094488188976,
      "name": "C4"
    },
    {
      "midi": 64,
      "frequency": 329.6275569128699,
      "time": 0.666666,
      "duration": 0.632406775,
      "velocity": 0.47244094488188976,
      "name": "E4"
    },
    {
      "midi": 48,
      "frequency": 130.8127826502993,
      "time": 1.333332,
      "duration": 0.421295875,
      "velocity": 0.47244094488188976,
      "name": "C3"
    },
    {
      "midi": 79,
      "frequency": 783.9908719634986,
      "time": 1.777776,
      "duration": 0.31574042499999977,
      "velocity": 0.5905511811023622,
      "name": "G5"
    },
    {
      "midi": 69,
      "frequency": 440,
      "time": 1.777776,
      "duration": 0.843517675,
      "velocity": 0.5905511811023622,
      "name": "A4"
    },
    {
      "midi": 74,
      "frequency": 587.3295358348151,
      "time": 1.777776,
      "duration": 0.843517675,
      "velocity": 0.5905511811023622,
      "name": "D5"
    },
    {
      "midi": 50,
      "frequency": 146.8323839587038,
      "time": 1.777776,
      "duration": 0.31574042499999977,
      "velocity": 0.47244094488188976,
      "name": "D3"
    },
    {
      "midi": 62,
      "frequency": 293.6647679174076,
      "time": 1.777776,
      "duration": 0.31574042499999977,
      "velocity": 0.47244094488188976,
      "name": "D4"
    },
    {
      "midi": 78,
      "frequency": 739.9888454232689,
      "time": 2.111109,
      "duration": 0.315740425,
      "velocity": 0.5905511811023622,
      "name": "F#5"
    },
    {
      "midi": 57,
      "frequency": 220,
      "time": 2.111109,
      "duration": 0.315740425,
      "velocity": 0.47244094488188976,
      "name": "A3"
    },
    {
      "midi": 79,
      "frequency": 783.9908719634986,
      "time": 2.444442,
      "duration": 0.6324067750000002,
      "velocity": 0.5905511811023622,
      "name": "G5"
    },
    {
      "midi": 62,
      "frequency": 293.6647679174076,
      "time": 2.444442,
      "duration": 0.6324067750000002,
      "velocity": 0.47244094488188976,
      "name": "D4"
    },
    {
      "midi": 66,
      "frequency": 369.99442271163446,
      "time": 2.444442,
      "duration": 0.6324067750000002,
      "velocity": 0.47244094488188976,
      "name": "F#4"
    },
    {
      "midi": 50,
      "frequency": 146.8323839587038,
      "time": 3.111108,
      "duration": 0.42129587499999976,
      "velocity": 0.47244094488188976,
      "name": "D3"
    },
    {
      "midi": 71,
      "frequency": 493.8833012561241,
      "time": 3.33333,
      "duration": 0.21018497499999977,
      "velocity": 0.5905511811023622,
      "name": "B4"
    },
    {
      "midi": 79,
      "frequency": 783.9908719634986,
      "time": 3.555552,
      "duration": 0.31574042500000044,
      "velocity": 0.5905511811023622,
      "name": "G5"
    },
    {
      "midi": 67,
      "frequency": 391.99543598174927,
      "time": 3.555552,
      "duration": 0.6666659999999998,
      "velocity": 0.5905511811023622,
      "name": "G4"
    },
    {
      "midi": 71,
      "frequency": 493.8833012561241,
      "time": 3.555552,
      "duration": 0.6666659999999998,
      "velocity": 0.5905511811023622,
      "name": "B4"
    },
    {
      "midi": 52,
      "frequency": 164.81377845643496,
      "time": 3.555552,
      "duration": 0.31574042500000044,
      "velocity": 0.47244094488188976,
      "name": "E3"
    },
    {
      "midi": 78,
      "frequency": 739.9888454232689,
      "time": 3.888885,
      "duration": 0.31574042500000044,
      "velocity": 0.5905511811023622,
      "name": "F#5"
    },
    {
      "midi": 59,
      "frequency": 246.94165062806206,
      "time": 3.888885,
      "duration": 0.31574042500000044,
      "velocity": 0.47244094488188976,
      "name": "B3"
    },
    {
      "midi": 71,
      "frequency": 493.8833012561241,
      "time": 4.222218,
      "duration": 0.8435176750000002,
      "velocity": 0.5905511811023622,
      "name": "B4"
    },
    {
      "midi": 76,
      "frequency": 659.2551138257398,
      "time": 4.222218,
      "duration": 0.8435176750000002,
      "velocity": 0.5905511811023622,
      "name": "E5"
    },
    {
      "midi": 64,
      "frequency": 329.6275569128699,
      "time": 4.222218,
      "duration": 0.6324067750000006,
      "velocity": 0.47244094488188976,
      "name": "E4"
    },
    {
      "midi": 67,
      "frequency": 391.99543598174927,
      "time": 4.222218,
      "duration": 0.6324067750000006,
      "velocity": 0.47244094488188976,
      "name": "G4"
    },
    {
      "midi": 52,
      "frequency": 164.81377845643496,
      "time": 4.888884,
      "duration": 0.4212958750000002,
      "velocity": 0.47244094488188976,
      "name": "E3"
    },
    {
      "midi": 69,
      "frequency": 440,
      "time": 5.111106,
      "duration": 1.0546285749999997,
      "velocity": 0.5905511811023622,
      "name": "A4"
    },
    {
      "midi": 74,
      "frequency": 587.3295358348151,
      "time": 5.111106,
      "duration": 1.0546285749999997,
      "velocity": 0.5905511811023622,
      "name": "D5"
    },
    {
      "midi": 50,
      "frequency": 146.8323839587038,
      "time": 5.333328,
      "duration": 0.31574042500000044,
      "velocity": 0.47244094488188976,
      "name": "D3"
    },
    {
      "midi": 62,
      "frequency": 293.6647679174076,
      "time": 5.333328,
      "duration": 0.31574042500000044,
      "velocity": 0.47244094488188976,
      "name": "D4"
    },
    {
      "midi": 57,
      "frequency": 220,
      "time": 5.666661,
      "duration": 0.31574042499999955,
      "velocity": 0.47244094488188976,
      "name": "A3"
    },
    {
      "midi": 62,
      "frequency": 293.6647679174076,
      "time": 5.999994,
      "duration": 0.8888879999999997,
      "velocity": 0.47244094488188976,
      "name": "D4"
    },
    {
      "midi": 66,
      "frequency": 369.99442271163446,
      "time": 5.999994,
      "duration": 0.6666660000000002,
      "velocity": 0.47244094488188976,
      "name": "F#4"
    },
    {
      "midi": 71,
      "frequency": 493.8833012561241,
      "time": 6.444438,
      "duration": 0.4212958750000002,
      "velocity": 0.5905511811023622,
      "name": "B4"
    },
    {
      "midi": 67,
      "frequency": 391.99543598174927,
      "time": 6.444438,
      "duration": 0.21018497499999977,
      "velocity": 0.5905511811023622,
      "name": "G4"
    },
    {
      "midi": 66,
      "frequency": 369.99442271163446,
      "time": 6.66666,
      "duration": 0.38796257499999953,
      "velocity": 0.5905511811023622,
      "name": "F#4"
    },
    {
      "midi": 74,
      "frequency": 587.3295358348151,
      "time": 6.888882,
      "duration": 0.21018497500000066,
      "velocity": 0.5905511811023622,
      "name": "D5"
    },
    {
      "midi": 62,
      "frequency": 293.6647679174076,
      "time": 6.888882,
      "duration": 0.21018497500000066,
      "velocity": 0.5905511811023622,
      "name": "D4"
    },
    {
      "midi": 64,
      "frequency": 329.6275569128699,
      "time": 7.111104,
      "duration": 0.8435176750000002,
      "velocity": 0.5905511811023622,
      "name": "E4"
    },
    {
      "midi": 72,
      "frequency": 523.2511306011972,
      "time": 7.111104,
      "duration": 0.8435176750000002,
      "velocity": 0.5905511811023622,
      "name": "C5"
    },
    {
      "midi": 76,
      "frequency": 659.2551138257398,
      "time": 7.111104,
      "duration": 0.8435176750000002,
      "velocity": 0.5905511811023622,
      "name": "E5"
    },
    {
      "midi": 36,
      "frequency": 65.40639132514966,
      "time": 7.111104,
      "duration": 0.31574042500000044,
      "velocity": 0.5118110236220472,
      "name": "C2"
    },
    {
      "midi": 48,
      "frequency": 130.8127826502993,
      "time": 7.111104,
      "duration": 0.31574042500000044,
      "velocity": 0.5118110236220472,
      "name": "C3"
    },
    {
      "midi": 48,
      "frequency": 130.8127826502993,
      "time": 7.444437,
      "duration": 0.31574042500000044,
      "velocity": 0.5118110236220472,
      "name": "C3"
    },
    {
      "midi": 55,
      "frequency": 195.99771799087463,
      "time": 7.77777,
      "duration": 1.0546285749999988,
      "velocity": 0.5118110236220472,
      "name": "G3"
    },
    {
      "midi": 59,
      "frequency": 246.94165062806206,
      "time": 7.77777,
      "duration": 1.0546285749999988,
      "velocity": 0.5118110236220472,
      "name": "B3"
    },
    {
      "midi": 72,
      "frequency": 523.2511306011972,
      "time": 8.222214,
      "duration": 0.421295875000002,
      "velocity": 0.5905511811023622,
      "name": "C5"
    },
    {
      "midi": 76,
      "frequency": 659.2551138257398,
      "time": 8.222214,
      "duration": 0.421295875000002,
      "velocity": 0.5905511811023622,
      "name": "E5"
    },
    {
      "midi": 79,
      "frequency": 783.9908719634986,
      "time": 8.666658,
      "duration": 0.21018497500000066,
      "velocity": 0.5905511811023622,
      "name": "G5"
    },
    {
      "midi": 74,
      "frequency": 587.3295358348151,
      "time": 8.88888,
      "duration": 0.8435176749999993,
      "velocity": 0.6299212598425197,
      "name": "D5"
    },
    {
      "midi": 78,
      "frequency": 739.9888454232689,
      "time": 8.88888,
      "duration": 0.8435176749999993,
      "velocity": 0.6299212598425197,
      "name": "F#5"
    },
    {
      "midi": 81,
      "frequency": 880,
      "time": 8.88888,
      "duration": 0.8435176749999993,
      "velocity": 0.6299212598425197,
      "name": "A5"
    },
    {
      "midi": 50,
      "frequency": 146.8323839587038,
      "time": 8.88888,
      "duration": 1.2657394750000002,
      "velocity": 0.5118110236220472,
      "name": "D3"
    },
    {
      "midi": 57,
      "frequency": 220,
      "time": 8.88888,
      "duration": 1.2657394750000002,
      "velocity": 0.5118110236220472,
      "name": "A3"
    },
    {
      "midi": 62,
      "frequency": 293.6647679174076,
      "time": 8.88888,
      "duration": 1.2657394750000002,
      "velocity": 0.5118110236220472,
      "name": "D4"
    },
    {
      "midi": 71,
      "frequency": 493.8833012561241,
      "time": 9.99999,
      "duration": 0.4212958750000002,
      "velocity": 0.7874015748031497,
      "name": "B4"
    },
    {
      "midi": 76,
      "frequency": 659.2551138257398,
      "time": 9.99999,
      "duration": 0.4212958750000002,
      "velocity": 0.7874015748031497,
      "name": "E5"
    },
    {
      "midi": 79,
      "frequency": 783.9908719634986,
      "time": 9.99999,
      "duration": 0.4212958750000002,
      "velocity": 0.7874015748031497,
      "name": "G5"
    },
    {
      "midi": 81,
      "frequency": 880,
      "time": 10.444434,
      "duration": 0.21018497500000066,
      "velocity": 0.8503937007874016,
      "name": "A5"
    },
    {
      "midi": 71,
      "frequency": 493.8833012561241,
      "time": 10.666656,
      "duration": 1.2657394750000002,
      "velocity": 0.8503937007874016,
      "name": "B4"
    },
    {
      "midi": 76,
      "frequency": 659.2551138257398,
      "time": 10.666656,
      "duration": 1.2657394750000002,
      "velocity": 0.8503937007874016,
      "name": "E5"
    },
    {
      "midi": 83,
      "frequency": 987.7666025122483,
      "time": 10.666656,
      "duration": 1.2657394750000002,
      "velocity": 0.8503937007874016,
      "name": "B5"
    },
    {
      "midi": 40,
      "frequency": 82.40688922821748,
      "time": 10.666656,
      "duration": 0.3157404250000013,
      "velocity": 0.7716535433070866,
      "name": "E2"
    },
    {
      "midi": 52,
      "frequency": 164.81377845643496,
      "time": 10.666656,
      "duration": 0.3157404250000013,
      "velocity": 0.7716535433070866,
      "name": "E3"
    },
    {
      "midi": 38,
      "frequency": 73.41619197935188,
      "time": 10.999989,
      "duration": 0.3157404250000013,
      "velocity": 0.7716535433070866,
      "name": "D2"
    },
    {
      "midi": 50,
      "frequency": 146.8323839587038,
      "time": 10.999989,
      "duration": 0.3157404250000013,
      "velocity": 0.7716535433070866,
      "name": "D3"
    },
    {
      "midi": 40,
      "frequency": 82.40688922821748,
      "time": 11.333322,
      "duration": 0.21018497499999889,
      "velocity": 0.7716535433070866,
      "name": "E2"
    },
    {
      "midi": 52,
      "frequency": 164.81377845643496,
      "time": 11.333322,
      "duration": 0.21018497499999889,
      "velocity": 0.7716535433070866,
      "name": "E3"
    },
    {
      "midi": 38,
      "frequency": 73.41619197935188,
      "time": 11.777766,
      "duration": 0.21018497500000066,
      "velocity": 0.7716535433070866,
      "name": "D2"
    },
    {
      "midi": 50,
      "frequency": 146.8323839587038,
      "time": 11.777766,
      "duration": 0.21018497500000066,
      "velocity": 0.7716535433070866,
      "name": "D3"
    },
    {
      "midi": 64,
      "frequency": 329.6275569128699,
      "time": 11.999988,
      "duration": 0.104629525,
      "velocity": 0.84251968503937,
      "name": "E4"
    },
    {
      "midi": 71,
      "frequency": 493.8833012561241,
      "time": 11.999988,
      "duration": 0.104629525,
      "velocity": 0.84251968503937,
      "name": "B4"
    },
    {
      "midi": 40,
      "frequency": 82.40688922821748,
      "time": 11.999988,
      "duration": 0.21018497500000066,
      "velocity": 0.7716535433070866,
      "name": "E2"
    },
    {
      "midi": 52,
      "frequency": 164.81377845643496,
      "time": 11.999988,
      "duration": 0.21018497500000066,
      "velocity": 0.7716535433070866,
      "name": "E3"
    },
    {
      "midi": 59,
      "frequency": 246.94165062806206,
      "time": 12.111099,
      "duration": 0.104629525,
      "velocity": 0.5905511811023622,
      "name": "B3"
    },
    {
      "midi": 64,
      "frequency": 329.6275569128699,
      "time": 12.22221,
      "duration": 0.104629525,
      "velocity": 0.5905511811023622,
      "name": "E4"
    },
    {
      "midi": 71,
      "frequency": 493.8833012561241,
      "time": 12.22221,
      "duration": 0.104629525,
      "velocity": 0.5905511811023622,
      "name": "B4"
    },
    {
      "midi": 40,
      "frequency": 82.40688922821748,
      "time": 12.22221,
      "duration": 0.21018497499999889,
      "velocity": 0.7716535433070866,
      "name": "E2"
    },
    {
      "midi": 52,
      "frequency": 164.81377845643496,
      "time": 12.22221,
      "duration": 0.21018497499999889,
      "velocity": 0.7716535433070866,
      "name": "E3"
    },
    {
      "midi": 59,
      "frequency": 246.94165062806206,
      "time": 12.333321,
      "duration": 0.104629525,
      "velocity": 0.5905511811023622,
      "name": "B3"
    },
    {
      "midi": 59,
      "frequency": 246.94165062806206,
      "time": 12.444432,
      "duration": 0.31574042499999955,
      "velocity": 0.5905511811023622,
      "name": "B3"
    },
    {
      "midi": 64,
      "frequency": 329.6275569128699,
      "time": 12.444432,
      "duration": 0.31574042499999955,
      "velocity": 0.5905511811023622,
      "name": "E4"
    },
    {
      "midi": 40,
      "frequency": 82.40688922821748,
      "time": 12.444432,
      "duration": 0.31574042499999955,
      "velocity": 0.7716535433070866,
      "name": "E2"
    },
    {
      "midi": 52,
      "frequency": 164.81377845643496,
      "time": 12.444432,
      "duration": 0.31574042499999955,
      "velocity": 0.7716535433070866,
      "name": "E3"
    },
    {
      "midi": 57,
      "frequency": 220,
      "time": 12.777765,
      "duration": 0.31574042499999955,
      "velocity": 0.5905511811023622,
      "name": "A3"
    },
    {
      "midi": 62,
      "frequency": 293.6647679174076,
      "time": 12.777765,
      "duration": 0.31574042499999955,
      "velocity": 0.5905511811023622,
      "name": "D4"
    },
    {
      "midi": 38,
      "frequency": 73.41619197935188,
      "time": 12.777765,
      "duration": 0.31574042499999955,
      "velocity": 0.7716535433070866,
      "name": "D2"
    },
    {
      "midi": 50,
      "frequency": 146.8323839587038,
      "time": 12.777765,
      "duration": 0.31574042499999955,
      "velocity": 0.7716535433070866,
      "name": "D3"
    },
    {
      "midi": 59,
      "frequency": 246.94165062806206,
      "time": 13.111098,
      "duration": 0.21018497500000066,
      "velocity": 0.5905511811023622,
      "name": "B3"
    },
    {
      "midi": 64,
      "frequency": 329.6275569128699,
      "time": 13.111098,
      "duration": 0.21018497500000066,
      "velocity": 0.5905511811023622,
      "name": "E4"
    },
    {
      "midi": 40,
      "frequency": 82.40688922821748,
      "time": 13.111098,
      "duration": 0.21018497500000066,
      "velocity": 0.7716535433070866,
      "name": "E2"
    },
    {
      "midi": 52,
      "frequency": 164.81377845643496,
      "time": 13.111098,
      "duration": 0.21018497500000066,
      "velocity": 0.7716535433070866,
      "name": "E3"
    },
    {
      "midi": 59,
      "frequency": 246.94165062806206,
      "time": 13.555542,
      "duration": 0.21018497499999889,
      "velocity": 0.5905511811023622,
      "name": "B3"
    },
    {
      "midi": 38,
      "frequency": 73.41619197935188,
      "time": 13.555542,
      "duration": 0.21018497499999889,
      "velocity": 0.7716535433070866,
      "name": "D2"
    },
    {
      "midi": 50,
      "frequency": 146.8323839587038,
      "time": 13.555542,
      "duration": 0.21018497499999889,
      "velocity": 0.7716535433070866,
      "name": "D3"
    },
    {
      "midi": 64,
      "frequency": 329.6275569128699,
      "time": 13.777764,
      "duration": 0.104629525,
      "velocity": 0.84251968503937,
      "name": "E4"
    },
    {
      "midi": 71,
      "frequency": 493.8833012561241,
      "time": 13.777764,
      "duration": 0.104629525,
      "velocity": 0.84251968503937,
      "name": "B4"
    },
    {
      "midi": 40,
      "frequency": 82.40688922821748,
      "time": 13.777764,
      "duration": 0.21018497500000066,
      "velocity": 0.7716535433070866,
      "name": "E2"
    },
    {
      "midi": 52,
      "frequency": 164.81377845643496,
      "time": 13.777764,
      "duration": 0.21018497500000066,
      "velocity": 0.7716535433070866,
      "name": "E3"
    },
    {
      "midi": 59,
      "frequency": 246.94165062806206,
      "time": 13.888875,
      "duration": 0.104629525,
      "velocity": 0.5905511811023622,
      "name": "B3"
    },
    {
      "midi": 64,
      "frequency": 329.6275569128699,
      "time": 13.999986,
      "duration": 0.104629525,
      "velocity": 0.5905511811023622,
      "name": "E4"
    },
    {
      "midi": 71,
      "frequency": 493.8833012561241,
      "time": 13.999986,
      "duration": 0.104629525,
      "velocity": 0.5905511811023622,
      "name": "B4"
    },
    {
      "midi": 40,
      "frequency": 82.40688922821748,
      "time": 13.999986,
      "duration": 0.21018497500000066,
      "velocity": 0.7716535433070866,
      "name": "E2"
    },
    {
      "midi": 52,
      "frequency": 164.81377845643496,
      "time": 13.999986,
      "duration": 0.21018497500000066,
      "velocity": 0.7716535433070866,
      "name": "E3"
    },
    {
      "midi": 59,
      "frequency": 246.94165062806206,
      "time": 14.111097000000001,
      "duration": 0.10462952499999822,
      "velocity": 0.5905511811023622,
      "name": "B3"
    },
    {
      "midi": 59,
      "frequency": 246.94165062806206,
      "time": 14.222208,
      "duration": 0.31574042499999955,
      "velocity": 0.5905511811023622,
      "name": "B3"
    },
    {
      "midi": 64,
      "frequency": 329.6275569128699,
      "time": 14.222208,
      "duration": 0.31574042499999955,
      "velocity": 0.5905511811023622,
      "name": "E4"
    },
    {
      "midi": 40,
      "frequency": 82.40688922821748,
      "time": 14.222208,
      "duration": 0.31574042499999955,
      "velocity": 0.7716535433070866,
      "name": "E2"
    },
    {
      "midi": 52,
      "frequency": 164.81377845643496,
      "time": 14.222208,
      "duration": 0.31574042499999955,
      "velocity": 0.7716535433070866,
      "name": "E3"
    },
    {
      "midi": 57,
      "frequency": 220,
      "time": 14.555541,
      "duration": 0.3157404250000013,
      "velocity": 0.5905511811023622,
      "name": "A3"
    },
    {
      "midi": 62,
      "frequency": 293.6647679174076,
      "time": 14.555541,
      "duration": 0.3157404250000013,
      "velocity": 0.5905511811023622,
      "name": "D4"
    },
    {
      "midi": 38,
      "frequency": 73.41619197935188,
      "time": 14.555541,
      "duration": 0.3157404250000013,
      "velocity": 0.7716535433070866,
      "name": "D2"
    },
    {
      "midi": 50,
      "frequency": 146.8323839587038,
      "time": 14.555541,
      "duration": 0.3157404250000013,
      "velocity": 0.7716535433070866,
      "name": "D3"
    },
    {
      "midi": 59,
      "frequency": 246.94165062806206,
      "time": 14.888874,
      "duration": 0.21018497500000244,
      "velocity": 0.5905511811023622,
      "name": "B3"
    },
    {
      "midi": 64,
      "frequency": 329.6275569128699,
      "time": 14.888874,
      "duration": 0.21018497500000244,
      "velocity": 0.5905511811023622,
      "name": "E4"
    },
    {
      "midi": 40,
      "frequency": 82.40688922821748,
      "time": 14.888874,
      "duration": 0.21018497500000244,
      "velocity": 0.7716535433070866,
      "name": "E2"
    },
    {
      "midi": 52,
      "frequency": 164.81377845643496,
      "time": 14.888874,
      "duration": 0.21018497500000244,
      "velocity": 0.7716535433070866,
      "name": "E3"
    },
    {
      "midi": 59,
      "frequency": 246.94165062806206,
      "time": 15.333318,
      "duration": 0.21018497500000066,
      "velocity": 0.5905511811023622,
      "name": "B3"
    },
    {
      "midi": 38,
      "frequency": 73.41619197935188,
      "time": 15.333318,
      "duration": 0.21018497500000066,
      "velocity": 0.7716535433070866,
      "name": "D2"
    },
    {
      "midi": 50,
      "frequency": 146.8323839587038,
      "time": 15.333318,
      "duration": 0.21018497500000066,
      "velocity": 0.7716535433070866,
      "name": "D3"
    },
    {
      "midi": 64,
      "frequency": 329.6275569128699,
      "time": 15.55554,
      "duration": 0.104629525,
      "velocity": 0.84251968503937,
      "name": "E4"
    },
    {
      "midi": 71,
      "frequency": 493.8833012561241,
      "time": 15.55554,
      "duration": 0.104629525,
      "velocity": 0.84251968503937,
      "name": "B4"
    },
    {
      "midi": 40,
      "frequency": 82.40688922821748,
      "time": 15.55554,
      "duration": 0.21018497500000066,
      "velocity": 0.7716535433070866,
      "name": "E2"
    },
    {
      "midi": 52,
      "frequency": 164.81377845643496,
      "time": 15.55554,
      "duration": 0.21018497500000066,
      "velocity": 0.7716535433070866,
      "name": "E3"
    },
    {
      "midi": 59,
      "frequency": 246.94165062806206,
      "time": 15.666651,
      "duration": 0.104629525,
      "velocity": 0.5905511811023622,
      "name": "B3"
    },
    {
      "midi": 64,
      "frequency": 329.6275569128699,
      "time": 15.777762000000001,
      "duration": 0.10462952499999822,
      "velocity": 0.5905511811023622,
      "name": "E4"
    },
    {
      "midi": 71,
      "frequency": 493.8833012561241,
      "time": 15.777762000000001,
      "duration": 0.10462952499999822,
      "velocity": 0.5905511811023622,
      "name": "B4"
    },
    {
      "midi": 40,
      "frequency": 82.40688922821748,
      "time": 15.777762000000001,
      "duration": 0.21018497500000066,
      "velocity": 0.7716535433070866,
      "name": "E2"
    },
    {
      "midi": 52,
      "frequency": 164.81377845643496,
      "time": 15.777762000000001,
      "duration": 0.21018497500000066,
      "velocity": 0.7716535433070866,
      "name": "E3"
    },
    {
      "midi": 59,
      "frequency": 246.94165062806206,
      "time": 15.888873,
      "duration": 0.104629525,
      "velocity": 0.5905511811023622,
      "name": "B3"
    },
    {
      "midi": 59,
      "frequency": 246.94165062806206,
      "time": 15.999984,
      "duration": 0.31574042499999955,
      "velocity": 0.5905511811023622,
      "name": "B3"
    },
    {
      "midi": 64,
      "frequency": 329.6275569128699,
      "time": 15.999984,
      "duration": 0.31574042499999955,
      "velocity": 0.5905511811023622,
      "name": "E4"
    },
    {
      "midi": 40,
      "frequency": 82.40688922821748,
      "time": 15.999984,
      "duration": 0.31574042499999955,
      "velocity": 0.7716535433070866,
      "name": "E2"
    },
    {
      "midi": 52,
      "frequency": 164.81377845643496,
      "time": 15.999984,
      "duration": 0.31574042499999955,
      "velocity": 0.7716535433070866,
      "name": "E3"
    },
    {
      "midi": 57,
      "frequency": 220,
      "time": 16.333317,
      "duration": 0.31574042499999777,
      "velocity": 0.5905511811023622,
      "name": "A3"
    },
    {
      "midi": 62,
      "frequency": 293.6647679174076,
      "time": 16.333317,
      "duration": 0.31574042499999777,
      "velocity": 0.5905511811023622,
      "name": "D4"
    },
    {
      "midi": 38,
      "frequency": 73.41619197935188,
      "time": 16.333317,
      "duration": 0.31574042499999777,
      "velocity": 0.7716535433070866,
      "name": "D2"
    },
    {
      "midi": 50,
      "frequency": 146.8323839587038,
      "time": 16.333317,
      "duration": 0.31574042499999777,
      "velocity": 0.7716535433070866,
      "name": "D3"
    },
    {
      "midi": 59,
      "frequency": 246.94165062806206,
      "time": 16.66665,
      "duration": 0.21018497500000066,
      "velocity": 0.5905511811023622,
      "name": "B3"
    },
    {
      "midi": 64,
      "frequency": 329.6275569128699,
      "time": 16.66665,
      "duration": 0.21018497500000066,
      "velocity": 0.5905511811023622,
      "name": "E4"
    },
    {
      "midi": 40,
      "frequency": 82.40688922821748,
      "time": 16.66665,
      "duration": 0.21018497500000066,
      "velocity": 0.7716535433070866,
      "name": "E2"
    },
    {
      "midi": 52,
      "frequency": 164.81377845643496,
      "time": 16.66665,
      "duration": 0.21018497500000066,
      "velocity": 0.7716535433070866,
      "name": "E3"
    },
    {
      "midi": 59,
      "frequency": 246.94165062806206,
      "time": 17.111094,
      "duration": 0.21018497500000066,
      "velocity": 0.5905511811023622,
      "name": "B3"
    },
    {
      "midi": 38,
      "frequency": 73.41619197935188,
      "time": 17.111094,
      "duration": 0.21018497500000066,
      "velocity": 0.7716535433070866,
      "name": "D2"
    },
    {
      "midi": 50,
      "frequency": 146.8323839587038,
      "time": 17.111094,
      "duration": 0.21018497500000066,
      "velocity": 0.7716535433070866,
      "name": "D3"
    },
    {
      "midi": 62,
      "frequency": 293.6647679174076,
      "time": 17.333316,
      "duration": 0.104629525,
      "velocity": 0.84251968503937,
      "name": "D4"
    },
    {
      "midi": 69,
      "frequency": 440,
      "time": 17.333316,
      "duration": 0.104629525,
      "velocity": 0.84251968503937,
      "name": "A4"
    },
    {
      "midi": 38,
      "frequency": 73.41619197935188,
      "time": 17.333316,
      "duration": 0.21018497500000066,
      "velocity": 0.7716535433070866,
      "name": "D2"
    },
    {
      "midi": 50,
      "frequency": 146.8323839587038,
      "time": 17.333316,
      "duration": 0.21018497500000066,
      "velocity": 0.7716535433070866,
      "name": "D3"
    },
    {
      "midi": 57,
      "frequency": 220,
      "time": 17.444427,
      "duration": 0.104629525,
      "velocity": 0.5905511811023622,
      "name": "A3"
    },
    {
      "midi": 62,
      "frequency": 293.6647679174076,
      "time": 17.555538,
      "duration": 0.104629525,
      "velocity": 0.5905511811023622,
      "name": "D4"
    },
    {
      "midi": 69,
      "frequency": 440,
      "time": 17.555538,
      "duration": 0.104629525,
      "velocity": 0.5905511811023622,
      "name": "A4"
    },
    {
      "midi": 38,
      "frequency": 73.41619197935188,
      "time": 17.555538,
      "duration": 0.21018497500000421,
      "velocity": 0.7716535433070866,
      "name": "D2"
    },
    {
      "midi": 50,
      "frequency": 146.8323839587038,
      "time": 17.555538,
      "duration": 0.21018497500000421,
      "velocity": 0.7716535433070866,
      "name": "D3"
    },
    {
      "midi": 57,
      "frequency": 220,
      "time": 17.666649,
      "duration": 0.104629525,
      "velocity": 0.5905511811023622,
      "name": "A3"
    },
    {
      "midi": 76,
      "frequency": 659.2551138257398,
      "time": 17.77776,
      "duration": 0.3157404250000013,
      "velocity": 0.7244094488188977,
      "name": "E5"
    },
    {
      "midi": 67,
      "frequency": 391.99543598174927,
      "time": 17.77776,
      "duration": 0.8435176750000011,
      "velocity": 0.7244094488188977,
      "name": "G4"
    },
    {
      "midi": 71,
      "frequency": 493.8833012561241,
      "time": 17.77776,
      "duration": 0.8435176750000011,
      "velocity": 0.7244094488188977,
      "name": "B4"
    },
    {
      "midi": 40,
      "frequency": 82.40688922821748,
      "time": 17.77776,
      "duration": 0.3157404250000013,
      "velocity": 0.5118110236220472,
      "name": "E2"
    },
    {
      "midi": 52,
      "frequency": 164.81377845643496,
      "time": 17.77776,
      "duration": 0.3157404250000013,
      "velocity": 0.5118110236220472,
      "name": "E3"
    },
    {
      "midi": 79,
      "frequency": 783.9908719634986,
      "time": 18.111093,
      "duration": 0.3157404250000013,
      "velocity": 0.7244094488188977,
      "name": "G5"
    },
    {
      "midi": 52,
      "frequency": 164.81377845643496,
      "time": 18.111093,
      "duration": 0.3157404250000013,
      "velocity": 0.5118110236220472,
      "name": "E3"
    },
    {
      "midi": 78,
      "frequency": 739.9888454232689,
      "time": 18.444426,
      "duration": 0.42129587499999843,
      "velocity": 0.7244094488188977,
      "name": "F#5"
    },
    {
      "midi": 59,
      "frequency": 246.94165062806206,
      "time": 18.444426,
      "duration": 0.6324067749999998,
      "velocity": 0.5118110236220472,
      "name": "B3"
    },
    {
      "midi": 64,
      "frequency": 329.6275569128699,
      "time": 18.444426,
      "duration": 0.6324067749999998,
      "velocity": 0.5118110236220472,
      "name": "E4"
    },
    {
      "midi": 74,
      "frequency": 587.3295358348151,
      "time": 18.88887,
      "duration": 0.21018497500000066,
      "velocity": 0.7244094488188977,
      "name": "D5"
    },
    {
      "midi": 76,
      "frequency": 659.2551138257398,
      "time": 19.111092,
      "duration": 0.21018497500000066,
      "velocity": 0.7244094488188977,
      "name": "E5"
    },
    {
      "midi": 52,
      "frequency": 164.81377845643496,
      "time": 19.111092,
      "duration": 0.42129587499999843,
      "velocity": 0.5118110236220472,
      "name": "E3"
    },
    {
      "midi": 66,
      "frequency": 369.99442271163446,
      "time": 19.333314,
      "duration": 1.0546285749999988,
      "velocity": 0.7244094488188977,
      "name": "F#4"
    },
    {
      "midi": 69,
      "frequency": 440,
      "time": 19.333314,
      "duration": 1.0546285749999988,
      "velocity": 0.7244094488188977,
      "name": "A4"
    },
    {
      "midi": 74,
      "frequency": 587.3295358348151,
      "time": 19.333314,
      "duration": 1.0546285749999988,
      "velocity": 0.7244094488188977,
      "name": "D5"
    },
    {
      "midi": 38,
      "frequency": 73.41619197935188,
      "time": 19.555536,
      "duration": 0.3157404250000013,
      "velocity": 0.5118110236220472,
      "name": "D2"
    },
    {
      "midi": 50,
      "frequency": 146.8323839587038,
      "time": 19.555536,
      "duration": 0.3157404250000013,
      "velocity": 0.5118110236220472,
      "name": "D3"
    },
    {
      "midi": 57,
      "frequency": 220,
      "time": 19.888869,
      "duration": 0.3157404250000013,
      "velocity": 0.5118110236220472,
      "name": "A3"
    },
    {
      "midi": 57,
      "frequency": 220,
      "time": 20.222202,
      "duration": 0.42129587499999843,
      "velocity": 0.5118110236220472,
      "name": "A3"
    },
    {
      "midi": 62,
      "frequency": 293.6647679174076,
      "time": 20.222202,
      "duration": 0.42129587499999843,
      "velocity": 0.5118110236220472,
      "name": "D4"
    },
    {
      "midi": 67,
      "frequency": 391.99543598174927,
      "time": 20.222202,
      "duration": 0.42129587499999843,
      "velocity": 0.5118110236220472,
      "name": "G4"
    },
    {
      "midi": 64,
      "frequency": 329.6275569128699,
      "time": 20.444424,
      "duration": 0.21018497500000066,
      "velocity": 0.7244094488188977,
      "name": "E4"
    },
    {
      "midi": 69,
      "frequency": 440,
      "time": 20.444424,
      "duration": 0.21018497500000066,
      "velocity": 0.7244094488188977,
      "name": "A4"
    },
    {
      "midi": 64,
      "frequency": 329.6275569128699,
      "time": 20.666646,
      "duration": 0.104629525,
      "velocity": 0.7244094488188977,
      "name": "E4"
    },
    {
      "midi": 69,
      "frequency": 440,
      "time": 20.666646,
      "duration": 0.104629525,
      "velocity": 0.7244094488188977,
      "name": "A4"
    },
    {
      "midi": 67,
      "frequency": 391.99543598174927,
      "time": 20.777757,
      "duration": 0.104629525,
      "velocity": 0.7244094488188977,
      "name": "G4"
    },
    {
      "midi": 64,
      "frequency": 329.6275569128699,
      "time": 20.888868,
      "duration": 0.21018497500000421,
      "velocity": 0.7244094488188977,
      "name": "E4"
    },
    {
      "midi": 69,
      "frequency": 440,
      "time": 20.888868,
      "duration": 0.21018497500000421,
      "velocity": 0.7244094488188977,
      "name": "A4"
    },
    {
      "midi": 50,
      "frequency": 146.8323839587038,
      "time": 20.888868,
      "duration": 0.421295875000002,
      "velocity": 0.5118110236220472,
      "name": "D3"
    },
    {
      "midi": 69,
      "frequency": 440,
      "time": 21.11109,
      "duration": 0.21018497500000066,
      "velocity": 0.7244094488188977,
      "name": "A4"
    },
    {
      "midi": 72,
      "frequency": 523.2511306011972,
      "time": 21.11109,
      "duration": 0.21018497500000066,
      "velocity": 0.7244094488188977,
      "name": "C5"
    },
    {
      "midi": 67,
      "frequency": 391.99543598174927,
      "time": 21.333312,
      "duration": 0.21018497500000066,
      "velocity": 0.7244094488188977,
      "name": "G4"
    },
    {
      "midi": 71,
      "frequency": 493.8833012561241,
      "time": 21.333312,
      "duration": 0.21018497500000066,
      "velocity": 0.7244094488188977,
      "name": "B4"
    },
    {
      "midi": 36,
      "frequency": 65.40639132514966,
      "time": 21.333312,
      "duration": 0.3157404250000013,
      "velocity": 0.5118110236220472,
      "name": "C2"
    },
    {
      "midi": 48,
      "frequency": 130.8127826502993,
      "time": 21.333312,
      "duration": 0.3157404250000013,
      "velocity": 0.5118110236220472,
      "name": "C3"
    },
    {
      "midi": 64,
      "frequency": 329.6275569128699,
      "time": 21.555534,
      "duration": 1.476850374999998,
      "velocity": 0.7244094488188977,
      "name": "E4"
    },
    {
      "midi": 48,
      "frequency": 130.8127826502993,
      "time": 21.666645,
      "duration": 0.3157404250000013,
      "velocity": 0.5118110236220472,
      "name": "C3"
    },
    {
      "midi": 55,
      "frequency": 195.99771799087463,
      "time": 21.999978,
      "duration": 0.6324067749999998,
      "velocity": 0.5118110236220472,
      "name": "G3"
    },
    {
      "midi": 59,
      "frequency": 246.94165062806206,
      "time": 21.999978,
      "duration": 0.6324067749999998,
      "velocity": 0.5118110236220472,
      "name": "B3"
    },
    {
      "midi": 52,
      "frequency": 164.81377845643496,
      "time": 22.666644,
      "duration": 0.42129587499999843,
      "velocity": 0.5118110236220472,
      "name": "E3"
    },
    {
      "midi": 38,
      "frequency": 73.41619197935188,
      "time": 23.111088,
      "duration": 0.3157404250000013,
      "velocity": 0.5118110236220472,
      "name": "D2"
    },
    {
      "midi": 50,
      "frequency": 146.8323839587038,
      "time": 23.111088,
      "duration": 0.3157404250000013,
      "velocity": 0.5118110236220472,
      "name": "D3"
    },
    {
      "midi": 57,
      "frequency": 220,
      "time": 23.33331,
      "duration": 0.21018497500000066,
      "velocity": 0.7244094488188977,
      "name": "A3"
    },
    {
      "midi": 62,
      "frequency": 293.6647679174076,
      "time": 23.33331,
      "duration": 0.21018497500000066,
      "velocity": 0.7244094488188977,
      "name": "D4"
    },
    {
      "midi": 54,
      "frequency": 184.99721135581723,
      "time": 23.444421000000002,
      "duration": 0.31574042499999777,
      "velocity": 0.5118110236220472,
      "name": "F#3"
    },
    {
      "midi": 62,
      "frequency": 293.6647679174076,
      "time": 23.555532,
      "duration": 0.104629525,
      "velocity": 0.7244094488188977,
      "name": "D4"
    },
    {
      "midi": 67,
      "frequency": 391.99543598174927,
      "time": 23.555532,
      "duration": 0.104629525,
      "velocity": 0.7244094488188977,
      "name": "G4"
    },
    {
      "midi": 69,
      "frequency": 440,
      "time": 23.666643,
      "duration": 0.21018497500000066,
      "velocity": 0.7244094488188977,
      "name": "A4"
    },
    {
      "midi": 50,
      "frequency": 146.8323839587038,
      "time": 23.777754,
      "duration": 0.42129587499999843,
      "velocity": 0.5118110236220472,
      "name": "D3"
    },
    {
      "midi": 55,
      "frequency": 195.99771799087463,
      "time": 23.777754,
      "duration": 0.42129587499999843,
      "velocity": 0.5118110236220472,
      "name": "G3"
    },
    {
      "midi": 66,
      "frequency": 369.99442271163446,
      "time": 23.888865,
      "duration": 0.3157404250000013,
      "velocity": 0.7244094488188977,
      "name": "F#4"
    },
    {
      "midi": 71,
      "frequency": 493.8833012561241,
      "time": 23.888865,
      "duration": 0.3157404250000013,
      "velocity": 0.7244094488188977,
      "name": "B4"
    },
    {
      "midi": 69,
      "frequency": 440,
      "time": 24.222198,
      "duration": 0.21018497500000421,
      "velocity": 0.7244094488188977,
      "name": "A4"
    },
    {
      "midi": 54,
      "frequency": 184.99721135581723,
      "time": 24.222198,
      "duration": 0.21018497500000421,
      "velocity": 0.5118110236220472,
      "name": "F#3"
    },
    {
      "midi": 66,
      "frequency": 369.99442271163446,
      "time": 24.44442,
      "duration": 0.21018497500000066,
      "velocity": 0.7244094488188977,
      "name": "F#4"
    },
    {
      "midi": 71,
      "frequency": 493.8833012561241,
      "time": 24.44442,
      "duration": 0.21018497500000066,
      "velocity": 0.7244094488188977,
      "name": "B4"
    },
    {
      "midi": 55,
      "frequency": 195.99771799087463,
      "time": 24.44442,
      "duration": 0.21018497500000066,
      "velocity": 0.5118110236220472,
      "name": "G3"
    },
    {
      "midi": 69,
      "frequency": 440,
      "time": 24.666642,
      "duration": 0.21018497500000066,
      "velocity": 0.7244094488188977,
      "name": "A4"
    },
    {
      "midi": 74,
      "frequency": 587.3295358348151,
      "time": 24.666642,
      "duration": 0.21018497500000066,
      "velocity": 0.7244094488188977,
      "name": "D5"
    },
    {
      "midi": 57,
      "frequency": 220,
      "time": 24.666642,
      "duration": 0.21018497500000066,
      "velocity": 0.5118110236220472,
      "name": "A3"
    },
    {
      "midi": 76,
      "frequency": 659.2551138257398,
      "time": 24.888864,
      "duration": 0.31574042499999777,
      "velocity": 0.7244094488188977,
      "name": "E5"
    },
    {
      "midi": 67,
      "frequency": 391.99543598174927,
      "time": 24.888864,
      "duration": 0.8435176749999975,
      "velocity": 0.7244094488188977,
      "name": "G4"
    },
    {
      "midi": 71,
      "frequency": 493.8833012561241,
      "time": 24.888864,
      "duration": 0.8435176749999975,
      "velocity": 0.7244094488188977,
      "name": "B4"
    },
    {
      "midi": 40,
      "frequency": 82.40688922821748,
      "time": 24.888864,
      "duration": 0.31574042499999777,
      "velocity": 0.5118110236220472,
      "name": "E2"
    },
    {
      "midi": 52,
      "frequency": 164.81377845643496,
      "time": 24.888864,
      "duration": 0.31574042499999777,
      "velocity": 0.5118110236220472,
      "name": "E3"
    },
    {
      "midi": 79,
      "frequency": 783.9908719634986,
      "time": 25.222197,
      "duration": 0.31574042499999777,
      "velocity": 0.7244094488188977,
      "name": "G5"
    },
    {
      "midi": 52,
      "frequency": 164.81377845643496,
      "time": 25.222197,
      "duration": 0.31574042499999777,
      "velocity": 0.5118110236220472,
      "name": "E3"
    },
    {
      "midi": 78,
      "frequency": 739.9888454232689,
      "time": 25.55553,
      "duration": 0.42129587499999843,
      "velocity": 0.7244094488188977,
      "name": "F#5"
    },
    {
      "midi": 59,
      "frequency": 246.94165062806206,
      "time": 25.55553,
      "duration": 0.6324067749999998,
      "velocity": 0.5118110236220472,
      "name": "B3"
    },
    {
      "midi": 64,
      "frequency": 329.6275569128699,
      "time": 25.55553,
      "duration": 0.6324067749999998,
      "velocity": 0.5118110236220472,
      "name": "E4"
    },
    {
      "midi": 74,
      "frequency": 587.3295358348151,
      "time": 25.999974,
      "duration": 0.21018497500000066,
      "velocity": 0.7244094488188977,
      "name": "D5"
    },
    {
      "midi": 76,
      "frequency": 659.2551138257398,
      "time": 26.222196,
      "duration": 0.21018497500000066,
      "velocity": 0.7244094488188977,
      "name": "E5"
    },
    {
      "midi": 52,
      "frequency": 164.81377845643496,
      "time": 26.222196,
      "duration": 0.42129587499999843,
      "velocity": 0.5118110236220472,
      "name": "E3"
    },
    {
      "midi": 66,
      "frequency": 369.99442271163446,
      "time": 26.444418,
      "duration": 0.8435176750000011,
      "velocity": 0.7244094488188977,
      "name": "F#4"
    },
    {
      "midi": 69,
      "frequency": 440,
      "time": 26.444418,
      "duration": 0.8435176750000011,
      "velocity": 0.7244094488188977,
      "name": "A4"
    },
    {
      "midi": 74,
      "frequency": 587.3295358348151,
      "time": 26.444418,
      "duration": 0.8435176750000011,
      "velocity": 0.7244094488188977,
      "name": "D5"
    },
    {
      "midi": 38,
      "frequency": 73.41619197935188,
      "time": 26.66664,
      "duration": 0.3157404250000013,
      "velocity": 0.5118110236220472,
      "name": "D2"
    },
    {
      "midi": 50,
      "frequency": 146.8323839587038,
      "time": 26.66664,
      "duration": 0.3157404250000013,
      "velocity": 0.5118110236220472,
      "name": "D3"
    },
    {
      "midi": 57,
      "frequency": 220,
      "time": 26.999973,
      "duration": 0.3157404250000013,
      "velocity": 0.5118110236220472,
      "name": "A3"
    },
    {
      "midi": 74,
      "frequency": 587.3295358348151,
      "time": 27.333306,
      "duration": 0.21018497500000066,
      "velocity": 0.7244094488188977,
      "name": "D5"
    },
    {
      "midi": 57,
      "frequency": 220,
      "time": 27.333306,
      "duration": 0.6324067749999998,
      "velocity": 0.5118110236220472,
      "name": "A3"
    },
    {
      "midi": 62,
      "frequency": 293.6647679174076,
      "time": 27.333306,
      "duration": 0.6324067749999998,
      "velocity": 0.5118110236220472,
      "name": "D4"
    },
    {
      "midi": 67,
      "frequency": 391.99543598174927,
      "time": 27.333306,
      "duration": 0.6324067749999998,
      "velocity": 0.5118110236220472,
      "name": "G4"
    },
    {
      "midi": 79,
      "frequency": 783.9908719634986,
      "time": 27.555528,
      "duration": 0.104629525,
      "velocity": 0.7244094488188977,
      "name": "G5"
    },
    {
      "midi": 83,
      "frequency": 987.7666025122483,
      "time": 27.555528,
      "duration": 0.104629525,
      "velocity": 0.7244094488188977,
      "name": "B5"
    },
    {
      "midi": 78,
      "frequency": 739.9888454232689,
      "time": 27.666639,
      "duration": 0.104629525,
      "velocity": 0.7244094488188977,
      "name": "F#5"
    },
    {
      "midi": 81,
      "frequency": 880,
      "time": 27.666639,
      "duration": 0.104629525,
      "velocity": 0.7244094488188977,
      "name": "A5"
    },
    {
      "midi": 79,
      "frequency": 783.9908719634986,
      "time": 27.77775,
      "duration": 0.104629525,
      "velocity": 0.7244094488188977,
      "name": "G5"
    },
    {
      "midi": 83,
      "frequency": 987.7666025122483,
      "time": 27.77775,
      "duration": 0.104629525,
      "velocity": 0.7244094488188977,
      "name": "B5"
    },
    {
      "midi": 78,
      "frequency": 739.9888454232689,
      "time": 27.888861000000002,
      "duration": 0.10462952499999645,
      "velocity": 0.7244094488188977,
      "name": "F#5"
    },
    {
      "midi": 81,
      "frequency": 880,
      "time": 27.888861000000002,
      "duration": 0.10462952499999645,
      "velocity": 0.7244094488188977,
      "name": "A5"
    },
    {
      "midi": 79,
      "frequency": 783.9908719634986,
      "time": 27.999972,
      "duration": 0.21018497500000066,
      "velocity": 0.7244094488188977,
      "name": "G5"
    },
    {
      "midi": 83,
      "frequency": 987.7666025122483,
      "time": 27.999972,
      "duration": 0.21018497500000066,
      "velocity": 0.7244094488188977,
      "name": "B5"
    },
    {
      "midi": 50,
      "frequency": 146.8323839587038,
      "time": 27.999972,
      "duration": 0.42129587499999843,
      "velocity": 0.5118110236220472,
      "name": "D3"
    },
    {
      "midi": 81,
      "frequency": 880,
      "time": 28.222194000000002,
      "duration": 0.21018497500000066,
      "velocity": 0.7244094488188977,
      "name": "A5"
    },
    {
      "midi": 84,
      "frequency": 1046.5022612023945,
      "time": 28.222194000000002,
      "duration": 0.21018497500000066,
      "velocity": 0.7244094488188977,
      "name": "C6"
    },
    {
      "midi": 79,
      "frequency": 783.9908719634986,
      "time": 28.444416,
      "duration": 0.2101849749999971,
      "velocity": 0.7244094488188977,
      "name": "G5"
    },
    {
      "midi": 83,
      "frequency": 987.7666025122483,
      "time": 28.444416,
      "duration": 0.2101849749999971,
      "velocity": 0.7244094488188977,
      "name": "B5"
    },
    {
      "midi": 36,
      "frequency": 65.40639132514966,
      "time": 28.444416,
      "duration": 0.31574042499999777,
      "velocity": 0.5118110236220472,
      "name": "C2"
    },
    {
      "midi": 48,
      "frequency": 130.8127826502993,
      "time": 28.444416,
      "duration": 0.31574042499999777,
      "velocity": 0.5118110236220472,
      "name": "C3"
    },
    {
      "midi": 72,
      "frequency": 523.2511306011972,
      "time": 28.666638,
      "duration": 1.0546285750000024,
      "velocity": 0.7244094488188977,
      "name": "C5"
    },
    {
      "midi": 79,
      "frequency": 783.9908719634986,
      "time": 28.666638,
      "duration": 1.0546285750000024,
      "velocity": 0.7244094488188977,
      "name": "G5"
    },
    {
      "midi": 55,
      "frequency": 195.99771799087463,
      "time": 28.777749,
      "duration": 0.31574042499999777,
      "velocity": 0.5118110236220472,
      "name": "G3"
    },
    {
      "midi": 60,
      "frequency": 261.6255653005986,
      "time": 29.111082,
      "duration": 0.6324067749999998,
      "velocity": 0.5118110236220472,
      "name": "C4"
    },
    {
      "midi": 64,
      "frequency": 329.6275569128699,
      "time": 29.111082,
      "duration": 0.6324067749999998,
      "velocity": 0.5118110236220472,
      "name": "E4"
    },
    {
      "midi": 52,
      "frequency": 164.81377845643496,
      "time": 29.777748,
      "duration": 0.421295875000002,
      "velocity": 0.5118110236220472,
      "name": "E3"
    },
    {
      "midi": 79,
      "frequency": 783.9908719634986,
      "time": 29.99997,
      "duration": 0.2101849749999971,
      "velocity": 0.7244094488188977,
      "name": "G5"
    },
    {
      "midi": 69,
      "frequency": 440,
      "time": 30.222192,
      "duration": 0.31574042499999777,
      "velocity": 0.7244094488188977,
      "name": "A4"
    },
    {
      "midi": 74,
      "frequency": 587.3295358348151,
      "time": 30.222192,
      "duration": 0.31574042499999777,
      "velocity": 0.7244094488188977,
      "name": "D5"
    },
    {
      "midi": 78,
      "frequency": 739.9888454232689,
      "time": 30.222192,
      "duration": 0.31574042499999777,
      "velocity": 0.7244094488188977,
      "name": "F#5"
    },
    {
      "midi": 38,
      "frequency": 73.41619197935188,
      "time": 30.222192,
      "duration": 0.31574042499999777,
      "velocity": 0.5118110236220472,
      "name": "D2"
    },
    {
      "midi": 50,
      "frequency": 146.8323839587038,
      "time": 30.222192,
      "duration": 0.31574042499999777,
      "velocity": 0.5118110236220472,
      "name": "D3"
    },
    {
      "midi": 69,
      "frequency": 440,
      "time": 30.555525,
      "duration": 0.31574042499999777,
      "velocity": 0.7244094488188977,
      "name": "A4"
    },
    {
      "midi": 74,
      "frequency": 587.3295358348151,
      "time": 30.555525,
      "duration": 0.31574042499999777,
      "velocity": 0.7244094488188977,
      "name": "D5"
    },
    {
      "midi": 78,
      "frequency": 739.9888454232689,
      "time": 30.555525,
      "duration": 0.31574042499999777,
      "velocity": 0.7244094488188977,
      "name": "F#5"
    },
    {
      "midi": 57,
      "frequency": 220,
      "time": 30.555525,
      "duration": 0.31574042499999777,
      "velocity": 0.5118110236220472,
      "name": "A3"
    },
    {
      "midi": 69,
      "frequency": 440,
      "time": 30.888858,
      "duration": 0.21018497500000066,
      "velocity": 0.7244094488188977,
      "name": "A4"
    },
    {
      "midi": 74,
      "frequency": 587.3295358348151,
      "time": 30.888858,
      "duration": 0.21018497500000066,
      "velocity": 0.7244094488188977,
      "name": "D5"
    },
    {
      "midi": 79,
      "frequency": 783.9908719634986,
      "time": 30.888858,
      "duration": 0.21018497500000066,
      "velocity": 0.7244094488188977,
      "name": "G5"
    },
    {
      "midi": 57,
      "frequency": 220,
      "time": 30.888858,
      "duration": 0.6324067749999998,
      "velocity": 0.5118110236220472,
      "name": "A3"
    },
    {
      "midi": 62,
      "frequency": 293.6647679174076,
      "time": 30.888858,
      "duration": 0.6324067749999998,
      "velocity": 0.5118110236220472,
      "name": "D4"
    },
    {
      "midi": 67,
      "frequency": 391.99543598174927,
      "time": 30.888858,
      "duration": 0.6324067749999998,
      "velocity": 0.5118110236220472,
      "name": "G4"
    },
    {
      "midi": 74,
      "frequency": 587.3295358348151,
      "time": 31.11108,
      "duration": 0.6324067749999998,
      "velocity": 0.7244094488188977,
      "name": "D5"
    },
    {
      "midi": 81,
      "frequency": 880,
      "time": 31.11108,
      "duration": 0.6324067749999998,
      "velocity": 0.7244094488188977,
      "name": "A5"
    },
    {
      "midi": 50,
      "frequency": 146.8323839587038,
      "time": 31.555524000000002,
      "duration": 0.421295875000002,
      "velocity": 0.5118110236220472,
      "name": "D3"
    },
    {
      "midi": 79,
      "frequency": 783.9908719634986,
      "time": 31.777746,
      "duration": 0.2101849749999971,
      "velocity": 0.7244094488188977,
      "name": "G5"
    },
    {
      "midi": 71,
      "frequency": 493.8833012561241,
      "time": 31.999968,
      "duration": 0.31574042499999777,
      "velocity": 0.7244094488188977,
      "name": "B4"
    },
    {
      "midi": 76,
      "frequency": 659.2551138257398,
      "time": 31.999968,
      "duration": 0.31574042499999777,
      "velocity": 0.7244094488188977,
      "name": "E5"
    },
    {
      "midi": 81,
      "frequency": 880,
      "time": 31.999968,
      "duration": 0.31574042499999777,
      "velocity": 0.7244094488188977,
      "name": "A5"
    },
    {
      "midi": 40,
      "frequency": 82.40688922821748,
      "time": 31.999968,
      "duration": 0.31574042499999777,
      "velocity": 0.5118110236220472,
      "name": "E2"
    },
    {
      "midi": 52,
      "frequency": 164.81377845643496,
      "time": 31.999968,
      "duration": 0.31574042499999777,
      "velocity": 0.5118110236220472,
      "name": "E3"
    },
    {
      "midi": 76,
      "frequency": 659.2551138257398,
      "time": 32.333301,
      "duration": 0.3157404250000013,
      "velocity": 0.7244094488188977,
      "name": "E5"
    },
    {
      "midi": 79,
      "frequency": 783.9908719634986,
      "time": 32.333301,
      "duration": 0.3157404250000013,
      "velocity": 0.7244094488188977,
      "name": "G5"
    },
    {
      "midi": 52,
      "frequency": 164.81377845643496,
      "time": 32.333301,
      "duration": 0.3157404250000013,
      "velocity": 0.5118110236220472,
      "name": "E3"
    },
    {
      "midi": 71,
      "frequency": 493.8833012561241,
      "time": 32.666634,
      "duration": 0.42129587499999843,
      "velocity": 0.7244094488188977,
      "name": "B4"
    },
    {
      "midi": 76,
      "frequency": 659.2551138257398,
      "time": 32.666634,
      "duration": 0.42129587499999843,
      "velocity": 0.7244094488188977,
      "name": "E5"
    },
    {
      "midi": 59,
      "frequency": 246.94165062806206,
      "time": 32.666634,
      "duration": 0.6324067749999998,
      "velocity": 0.5118110236220472,
      "name": "B3"
    },
    {
      "midi": 64,
      "frequency": 329.6275569128699,
      "time": 32.666634,
      "duration": 0.6324067749999998,
      "velocity": 0.5118110236220472,
      "name": "E4"
    },
    {
      "midi": 79,
      "frequency": 783.9908719634986,
      "time": 33.111078,
      "duration": 0.2101849749999971,
      "velocity": 0.7244094488188977,
      "name": "G5"
    },
    {
      "midi": 83,
      "frequency": 987.7666025122483,
      "time": 33.3333,
      "duration": 0.2101849749999971,
      "velocity": 0.7244094488188977,
      "name": "B5"
    },
    {
      "midi": 52,
      "frequency": 164.81377845643496,
      "time": 33.3333,
      "duration": 0.42129587499999843,
      "velocity": 0.5118110236220472,
      "name": "E3"
    },
    {
      "midi": 78,
      "frequency": 739.9888454232689,
      "time": 33.555522,
      "duration": 0.42129587499999843,
      "velocity": 0.7244094488188977,
      "name": "F#5"
    },
    {
      "midi": 81,
      "frequency": 880,
      "time": 33.555522,
      "duration": 0.42129587499999843,
      "velocity": 0.7244094488188977,
      "name": "A5"
    },
    {
      "midi": 38,
      "frequency": 73.41619197935188,
      "time": 33.777744,
      "duration": 0.3157404250000013,
      "velocity": 0.5118110236220472,
      "name": "D2"
    },
    {
      "midi": 50,
      "frequency": 146.8323839587038,
      "time": 33.777744,
      "duration": 0.3157404250000013,
      "velocity": 0.5118110236220472,
      "name": "D3"
    },
    {
      "midi": 66,
      "frequency": 369.99442271163446,
      "time": 33.999966,
      "duration": 0.2101849749999971,
      "velocity": 0.5905511811023622,
      "name": "F#4"
    },
    {
      "midi": 69,
      "frequency": 440,
      "time": 33.999966,
      "duration": 0.2101849749999971,
      "velocity": 0.5905511811023622,
      "name": "A4"
    },
    {
      "midi": 57,
      "frequency": 220,
      "time": 34.111077,
      "duration": 0.3157404249999942,
      "velocity": 0.5118110236220472,
      "name": "A3"
    },
    {
      "midi": 66,
      "frequency": 369.99442271163446,
      "time": 34.222188,
      "duration": 0.2101849749999971,
      "velocity": 0.5905511811023622,
      "name": "F#4"
    },
    {
      "midi": 69,
      "frequency": 440,
      "time": 34.222188,
      "duration": 0.2101849749999971,
      "velocity": 0.5905511811023622,
      "name": "A4"
    },
    {
      "midi": 66,
      "frequency": 369.99442271163446,
      "time": 34.44441,
      "duration": 0.104629525,
      "velocity": 0.5905511811023622,
      "name": "F#4"
    },
    {
      "midi": 69,
      "frequency": 440,
      "time": 34.44441,
      "duration": 0.104629525,
      "velocity": 0.5905511811023622,
      "name": "A4"
    },
    {
      "midi": 57,
      "frequency": 220,
      "time": 34.44441,
      "duration": 0.6324067749999998,
      "velocity": 0.5118110236220472,
      "name": "A3"
    },
    {
      "midi": 62,
      "frequency": 293.6647679174076,
      "time": 34.44441,
      "duration": 0.6324067749999998,
      "velocity": 0.5118110236220472,
      "name": "D4"
    },
    {
      "midi": 67,
      "frequency": 391.99543598174927,
      "time": 34.44441,
      "duration": 0.11111100000000107,
      "velocity": 0.5118110236220472,
      "name": "G4"
    },
    {
      "midi": 67,
      "frequency": 391.99543598174927,
      "time": 34.555521,
      "duration": 0.5212957749999987,
      "velocity": 0.5905511811023622,
      "name": "G4"
    },
    {
      "midi": 66,
      "frequency": 369.99442271163446,
      "time": 34.666632,
      "duration": 0.3157404249999942,
      "velocity": 0.5905511811023622,
      "name": "F#4"
    },
    {
      "midi": 69,
      "frequency": 440,
      "time": 34.666632,
      "duration": 0.3157404249999942,
      "velocity": 0.5905511811023622,
      "name": "A4"
    },
    {
      "midi": 71,
      "frequency": 493.8833012561241,
      "time": 34.999965,
      "duration": 0.3157404249999942,
      "velocity": 0.5905511811023622,
      "name": "B4"
    },
    {
      "midi": 50,
      "frequency": 146.8323839587038,
      "time": 35.111076,
      "duration": 0.42129587500000554,
      "velocity": 0.5118110236220472,
      "name": "D3"
    },
    {
      "midi": 67,
      "frequency": 391.99543598174927,
      "time": 35.333298,
      "duration": 0.2101849749999971,
      "velocity": 0.7244094488188977,
      "name": "G4"
    },
    {
      "midi": 79,
      "frequency": 783.9908719634986,
      "time": 35.333298,
      "duration": 0.2101849749999971,
      "velocity": 0.7244094488188977,
      "name": "G5"
    },
    {
      "midi": 71,
      "frequency": 493.8833012561241,
      "time": 35.55552,
      "duration": 0.3157404249999942,
      "velocity": 0.7244094488188977,
      "name": "B4"
    },
    {
      "midi": 76,
      "frequency": 659.2551138257398,
      "time": 35.55552,
      "duration": 0.3157404249999942,
      "velocity": 0.7244094488188977,
      "name": "E5"
    },
    {
      "midi": 81,
      "frequency": 880,
      "time": 35.55552,
      "duration": 0.3157404249999942,
      "velocity": 0.7244094488188977,
      "name": "A5"
    },
    {
      "midi": 36,
      "frequency": 65.40639132514966,
      "time": 35.55552,
      "duration": 0.3157404249999942,
      "velocity": 0.5118110236220472,
      "name": "C2"
    },
    {
      "midi": 48,
      "frequency": 130.8127826502993,
      "time": 35.55552,
      "duration": 0.3157404249999942,
      "velocity": 0.5118110236220472,
      "name": "C3"
    },
    {
      "midi": 76,
      "frequency": 659.2551138257398,
      "time": 35.888853,
      "duration": 0.3157404250000013,
      "velocity": 0.7244094488188977,
      "name": "E5"
    },
    {
      "midi": 79,
      "frequency": 783.9908719634986,
      "time": 35.888853,
      "duration": 0.3157404250000013,
      "velocity": 0.7244094488188977,
      "name": "G5"
    },
    {
      "midi": 48,
      "frequency": 130.8127826502993,
      "time": 35.888853,
      "duration": 0.3157404250000013,
      "velocity": 0.5118110236220472,
      "name": "C3"
    },
    {
      "midi": 71,
      "frequency": 493.8833012561241,
      "time": 36.222186,
      "duration": 0.42129587499999843,
      "velocity": 0.7244094488188977,
      "name": "B4"
    },
    {
      "midi": 76,
      "frequency": 659.2551138257398,
      "time": 36.222186,
      "duration": 0.42129587499999843,
      "velocity": 0.7244094488188977,
      "name": "E5"
    },
    {
      "midi": 55,
      "frequency": 195.99771799087463,
      "time": 36.222186,
      "duration": 0.6324067749999998,
      "velocity": 0.5118110236220472,
      "name": "G3"
    },
    {
      "midi": 60,
      "frequency": 261.6255653005986,
      "time": 36.222186,
      "duration": 0.6324067749999998,
      "velocity": 0.5118110236220472,
      "name": "C4"
    },
    {
      "midi": 79,
      "frequency": 783.9908719634986,
      "time": 36.66663,
      "duration": 0.21018497500000421,
      "velocity": 0.7244094488188977,
      "name": "G5"
    },
    {
      "midi": 76,
      "frequency": 659.2551138257398,
      "time": 36.888852,
      "duration": 0.42129587500000554,
      "velocity": 0.7244094488188977,
      "name": "E5"
    },
    {
      "midi": 86,
      "frequency": 1174.6590716696303,
      "time": 36.888852,
      "duration": 0.42129587500000554,
      "velocity": 0.7244094488188977,
      "name": "D6"
    },
    {
      "midi": 48,
      "frequency": 130.8127826502993,
      "time": 36.888852,
      "duration": 0.42129587500000554,
      "velocity": 0.5118110236220472,
      "name": "C3"
    },
    {
      "midi": 38,
      "frequency": 73.41619197935188,
      "time": 37.333296,
      "duration": 0.3157404250000013,
      "velocity": 0.5118110236220472,
      "name": "D2"
    },
    {
      "midi": 50,
      "frequency": 146.8323839587038,
      "time": 37.333296,
      "duration": 0.3157404250000013,
      "velocity": 0.5118110236220472,
      "name": "D3"
    },
    {
      "midi": 69,
      "frequency": 440,
      "time": 37.555518,
      "duration": 0.2101849749999971,
      "velocity": 0.5905511811023622,
      "name": "A4"
    },
    {
      "midi": 57,
      "frequency": 220,
      "time": 37.666629,
      "duration": 0.3157404249999942,
      "velocity": 0.5118110236220472,
      "name": "A3"
    },
    {
      "midi": 69,
      "frequency": 440,
      "time": 37.77774,
      "duration": 0.2101849749999971,
      "velocity": 0.5905511811023622,
      "name": "A4"
    },
    {
      "midi": 69,
      "frequency": 440,
      "time": 37.999962000000004,
      "duration": 0.104629525,
      "velocity": 0.5905511811023622,
      "name": "A4"
    },
    {
      "midi": 57,
      "frequency": 220,
      "time": 37.999962000000004,
      "duration": 0.42129587499999843,
      "velocity": 0.5118110236220472,
      "name": "A3"
    },
    {
      "midi": 62,
      "frequency": 293.6647679174076,
      "time": 37.999962000000004,
      "duration": 0.42129587499999843,
      "velocity": 0.5118110236220472,
      "name": "D4"
    },
    {
      "midi": 67,
      "frequency": 391.99543598174927,
      "time": 37.999962000000004,
      "duration": 0.11111099999999396,
      "velocity": 0.5118110236220472,
      "name": "G4"
    },
    {
      "midi": 67,
      "frequency": 391.99543598174927,
      "time": 38.111073,
      "duration": 0.31018487500000447,
      "velocity": 0.5905511811023622,
      "name": "G4"
    },
    {
      "midi": 69,
      "frequency": 440,
      "time": 38.222184,
      "duration": 0.3157404250000013,
      "velocity": 0.5905511811023622,
      "name": "A4"
    },
    {
      "midi": 66,
      "frequency": 369.99442271163446,
      "time": 38.444406,
      "duration": 0.2101849749999971,
      "velocity": 0.5118110236220472,
      "name": "F#4"
    },
    {
      "midi": 67,
      "frequency": 391.99543598174927,
      "time": 38.555517,
      "duration": 0.3157404249999942,
      "velocity": 0.5905511811023622,
      "name": "G4"
    },
    {
      "midi": 62,
      "frequency": 293.6647679174076,
      "time": 38.666628,
      "duration": 0.2101849749999971,
      "velocity": 0.5118110236220472,
      "name": "D4"
    },
    {
      "midi": 67,
      "frequency": 391.99543598174927,
      "time": 38.88885,
      "duration": 0.21018497500000421,
      "velocity": 0.7244094488188977,
      "name": "G4"
    },
    {
      "midi": 79,
      "frequency": 783.9908719634986,
      "time": 38.88885,
      "duration": 0.21018497500000421,
      "velocity": 0.7244094488188977,
      "name": "G5"
    },
    {
      "midi": 57,
      "frequency": 220,
      "time": 38.88885,
      "duration": 0.21018497500000421,
      "velocity": 0.5118110236220472,
      "name": "A3"
    },
    {
      "midi": 71,
      "frequency": 493.8833012561241,
      "time": 39.111072,
      "duration": 0.3157404249999942,
      "velocity": 0.7244094488188977,
      "name": "B4"
    },
    {
      "midi": 76,
      "frequency": 659.2551138257398,
      "time": 39.111072,
      "duration": 0.3157404249999942,
      "velocity": 0.7244094488188977,
      "name": "E5"
    },
    {
      "midi": 81,
      "frequency": 880,
      "time": 39.111072,
      "duration": 0.3157404249999942,
      "velocity": 0.7244094488188977,
      "name": "A5"
    },
    {
      "midi": 40,
      "frequency": 82.40688922821748,
      "time": 39.111072,
      "duration": 0.3157404249999942,
      "velocity": 0.5118110236220472,
      "name": "E2"
    },
    {
      "midi": 52,
      "frequency": 164.81377845643496,
      "time": 39.111072,
      "duration": 0.3157404249999942,
      "velocity": 0.5118110236220472,
      "name": "E3"
    },
    {
      "midi": 76,
      "frequency": 659.2551138257398,
      "time": 39.444405,
      "duration": 0.3157404249999942,
      "velocity": 0.7244094488188977,
      "name": "E5"
    },
    {
      "midi": 79,
      "frequency": 783.9908719634986,
      "time": 39.444405,
      "duration": 0.3157404249999942,
      "velocity": 0.7244094488188977,
      "name": "G5"
    },
    {
      "midi": 52,
      "frequency": 164.81377845643496,
      "time": 39.444405,
      "duration": 0.3157404249999942,
      "velocity": 0.5118110236220472,
      "name": "E3"
    },
    {
      "midi": 71,
      "frequency": 493.8833012561241,
      "time": 39.777738,
      "duration": 0.42129587500000554,
      "velocity": 0.7244094488188977,
      "name": "B4"
    },
    {
      "midi": 76,
      "frequency": 659.2551138257398,
      "time": 39.777738,
      "duration": 0.42129587500000554,
      "velocity": 0.7244094488188977,
      "name": "E5"
    },
    {
      "midi": 59,
      "frequency": 246.94165062806206,
      "time": 39.777738,
      "duration": 0.6324067749999998,
      "velocity": 0.5118110236220472,
      "name": "B3"
    },
    {
      "midi": 64,
      "frequency": 329.6275569128699,
      "time": 39.777738,
      "duration": 0.6324067749999998,
      "velocity": 0.5118110236220472,
      "name": "E4"
    },
    {
      "midi": 79,
      "frequency": 783.9908719634986,
      "time": 40.222182000000004,
      "duration": 0.2101849749999971,
      "velocity": 0.7244094488188977,
      "name": "G5"
    },
    {
      "midi": 83,
      "frequency": 987.7666025122483,
      "time": 40.444404,
      "duration": 0.2101849749999971,
      "velocity": 0.7244094488188977,
      "name": "B5"
    },
    {
      "midi": 52,
      "frequency": 164.81377845643496,
      "time": 40.444404,
      "duration": 0.42129587500000554,
      "velocity": 0.5118110236220472,
      "name": "E3"
    },
    {
      "midi": 78,
      "frequency": 739.9888454232689,
      "time": 40.666626,
      "duration": 0.6324067749999998,
      "velocity": 0.7244094488188977,
      "name": "F#5"
    },
    {
      "midi": 81,
      "frequency": 880,
      "time": 40.666626,
      "duration": 0.6324067749999998,
      "velocity": 0.7244094488188977,
      "name": "A5"
    },
    {
      "midi": 38,
      "frequency": 73.41619197935188,
      "time": 40.888848,
      "duration": 0.3157404249999942,
      "velocity": 0.5118110236220472,
      "name": "D2"
    },
    {
      "midi": 50,
      "frequency": 146.8323839587038,
      "time": 40.888848,
      "duration": 0.3157404249999942,
      "velocity": 0.5118110236220472,
      "name": "D3"
    },
    {
      "midi": 57,
      "frequency": 220,
      "time": 41.222181,
      "duration": 0.3157404250000013,
      "velocity": 0.5118110236220472,
      "name": "A3"
    },
    {
      "midi": 78,
      "frequency": 739.9888454232689,
      "time": 41.333292,
      "duration": 0.2101849749999971,
      "velocity": 0.7244094488188977,
      "name": "F#5"
    },
    {
      "midi": 81,
      "frequency": 880,
      "time": 41.333292,
      "duration": 0.2101849749999971,
      "velocity": 0.7244094488188977,
      "name": "A5"
    },
    {
      "midi": 74,
      "frequency": 587.3295358348151,
      "time": 41.555514,
      "duration": 0.2101849749999971,
      "velocity": 0.7244094488188977,
      "name": "D5"
    },
    {
      "midi": 78,
      "frequency": 739.9888454232689,
      "time": 41.555514,
      "duration": 0.2101849749999971,
      "velocity": 0.7244094488188977,
      "name": "F#5"
    },
    {
      "midi": 83,
      "frequency": 987.7666025122483,
      "time": 41.555514,
      "duration": 0.2101849749999971,
      "velocity": 0.7244094488188977,
      "name": "B5"
    },
    {
      "midi": 57,
      "frequency": 220,
      "time": 41.555514,
      "duration": 0.6324067749999998,
      "velocity": 0.5118110236220472,
      "name": "A3"
    },
    {
      "midi": 62,
      "frequency": 293.6647679174076,
      "time": 41.555514,
      "duration": 0.6324067749999998,
      "velocity": 0.5118110236220472,
      "name": "D4"
    },
    {
      "midi": 67,
      "frequency": 391.99543598174927,
      "time": 41.555514,
      "duration": 0.6324067749999998,
      "velocity": 0.5118110236220472,
      "name": "G4"
    },
    {
      "midi": 74,
      "frequency": 587.3295358348151,
      "time": 41.999958,
      "duration": 0.2101849749999971,
      "velocity": 0.7244094488188977,
      "name": "D5"
    },
    {
      "midi": 78,
      "frequency": 739.9888454232689,
      "time": 41.999958,
      "duration": 0.2101849749999971,
      "velocity": 0.7244094488188977,
      "name": "F#5"
    },
    {
      "midi": 83,
      "frequency": 987.7666025122483,
      "time": 41.999958,
      "duration": 0.2101849749999971,
      "velocity": 0.7244094488188977,
      "name": "B5"
    },
    {
      "midi": 86,
      "frequency": 1174.6590716696303,
      "time": 42.22218,
      "duration": 0.2101849749999971,
      "velocity": 0.7244094488188977,
      "name": "D6"
    },
    {
      "midi": 50,
      "frequency": 146.8323839587038,
      "time": 42.22218,
      "duration": 0.42129587499999843,
      "velocity": 0.5118110236220472,
      "name": "D3"
    },
    {
      "midi": 83,
      "frequency": 987.7666025122483,
      "time": 42.444402000000004,
      "duration": 0.2101849749999971,
      "velocity": 0.7244094488188977,
      "name": "B5"
    },
    {
      "midi": 72,
      "frequency": 523.2511306011972,
      "time": 42.666624,
      "duration": 0.3157404250000013,
      "velocity": 0.7244094488188977,
      "name": "C5"
    },
    {
      "midi": 76,
      "frequency": 659.2551138257398,
      "time": 42.666624,
      "duration": 0.3157404250000013,
      "velocity": 0.7244094488188977,
      "name": "E5"
    },
    {
      "midi": 81,
      "frequency": 880,
      "time": 42.666624,
      "duration": 0.3157404250000013,
      "velocity": 0.7244094488188977,
      "name": "A5"
    },
    {
      "midi": 36,
      "frequency": 65.40639132514966,
      "time": 42.666624,
      "duration": 0.3157404250000013,
      "velocity": 0.5118110236220472,
      "name": "C2"
    },
    {
      "midi": 48,
      "frequency": 130.8127826502993,
      "time": 42.666624,
      "duration": 0.3157404250000013,
      "velocity": 0.5118110236220472,
      "name": "C3"
    },
    {
      "midi": 72,
      "frequency": 523.2511306011972,
      "time": 42.999957,
      "duration": 0.9490731249999982,
      "velocity": 0.7244094488188977,
      "name": "C5"
    },
    {
      "midi": 76,
      "frequency": 659.2551138257398,
      "time": 42.999957,
      "duration": 0.9490731249999982,
      "velocity": 0.7244094488188977,
      "name": "E5"
    },
    {
      "midi": 79,
      "frequency": 783.9908719634986,
      "time": 42.999957,
      "duration": 0.9490731249999982,
      "velocity": 0.7244094488188977,
      "name": "G5"
    },
    {
      "midi": 48,
      "frequency": 130.8127826502993,
      "time": 42.999957,
      "duration": 0.3157404249999942,
      "velocity": 0.5118110236220472,
      "name": "C3"
    },
    {
      "midi": 55,
      "frequency": 195.99771799087463,
      "time": 43.33329,
      "duration": 0.42129587500000554,
      "velocity": 0.5118110236220472,
      "name": "G3"
    },
    {
      "midi": 60,
      "frequency": 261.6255653005986,
      "time": 43.33329,
      "duration": 0.42129587500000554,
      "velocity": 0.5118110236220472,
      "name": "C4"
    },
    {
      "midi": 48,
      "frequency": 130.8127826502993,
      "time": 43.777734,
      "duration": 0.2101849749999971,
      "velocity": 0.5118110236220472,
      "name": "C3"
    },
    {
      "midi": 55,
      "frequency": 195.99771799087463,
      "time": 43.999956,
      "duration": 0.21018497500000421,
      "velocity": 0.5118110236220472,
      "name": "G3"
    },
    {
      "midi": 79,
      "frequency": 783.9908719634986,
      "time": 44.222178,
      "duration": 0.2101849749999971,
      "velocity": 0.7244094488188977,
      "name": "G5"
    },
    {
      "midi": 60,
      "frequency": 261.6255653005986,
      "time": 44.222178,
      "duration": 0.2101849749999971,
      "velocity": 0.5118110236220472,
      "name": "C4"
    },
    {
      "midi": 69,
      "frequency": 440,
      "time": 44.4444,
      "duration": 0.3157404249999942,
      "velocity": 0.7244094488188977,
      "name": "A4"
    },
    {
      "midi": 74,
      "frequency": 587.3295358348151,
      "time": 44.4444,
      "duration": 0.3157404249999942,
      "velocity": 0.7244094488188977,
      "name": "D5"
    },
    {
      "midi": 78,
      "frequency": 739.9888454232689,
      "time": 44.4444,
      "duration": 0.3157404249999942,
      "velocity": 0.7244094488188977,
      "name": "F#5"
    },
    {
      "midi": 38,
      "frequency": 73.41619197935188,
      "time": 44.4444,
      "duration": 0.3157404249999942,
      "velocity": 0.5118110236220472,
      "name": "D2"
    },
    {
      "midi": 50,
      "frequency": 146.8323839587038,
      "time": 44.4444,
      "duration": 0.3157404249999942,
      "velocity": 0.5118110236220472,
      "name": "D3"
    },
    {
      "midi": 69,
      "frequency": 440,
      "time": 44.777733,
      "duration": 0.3157404250000013,
      "velocity": 0.7244094488188977,
      "name": "A4"
    },
    {
      "midi": 74,
      "frequency": 587.3295358348151,
      "time": 44.777733,
      "duration": 0.3157404250000013,
      "velocity": 0.7244094488188977,
      "name": "D5"
    },
    {
      "midi": 78,
      "frequency": 739.9888454232689,
      "time": 44.777733,
      "duration": 0.3157404250000013,
      "velocity": 0.7244094488188977,
      "name": "F#5"
    },
    {
      "midi": 57,
      "frequency": 220,
      "time": 44.777733,
      "duration": 0.3157404250000013,
      "velocity": 0.5118110236220472,
      "name": "A3"
    },
    {
      "midi": 69,
      "frequency": 440,
      "time": 45.111066,
      "duration": 0.2101849749999971,
      "velocity": 0.7244094488188977,
      "name": "A4"
    },
    {
      "midi": 74,
      "frequency": 587.3295358348151,
      "time": 45.111066,
      "duration": 0.2101849749999971,
      "velocity": 0.7244094488188977,
      "name": "D5"
    },
    {
      "midi": 79,
      "frequency": 783.9908719634986,
      "time": 45.111066,
      "duration": 0.2101849749999971,
      "velocity": 0.7244094488188977,
      "name": "G5"
    },
    {
      "midi": 57,
      "frequency": 220,
      "time": 45.111066,
      "duration": 0.2101849749999971,
      "velocity": 0.5118110236220472,
      "name": "A3"
    },
    {
      "midi": 62,
      "frequency": 293.6647679174076,
      "time": 45.111066,
      "duration": 0.2101849749999971,
      "velocity": 0.5118110236220472,
      "name": "D4"
    },
    {
      "midi": 67,
      "frequency": 391.99543598174927,
      "time": 45.111066,
      "duration": 0.2101849749999971,
      "velocity": 0.5118110236220472,
      "name": "G4"
    },
    {
      "midi": 69,
      "frequency": 440,
      "time": 45.333288,
      "duration": 0.42129587499999843,
      "velocity": 0.7244094488188977,
      "name": "A4"
    },
    {
      "midi": 74,
      "frequency": 587.3295358348151,
      "time": 45.333288,
      "duration": 0.42129587499999843,
      "velocity": 0.7244094488188977,
      "name": "D5"
    },
    {
      "midi": 81,
      "frequency": 880,
      "time": 45.333288,
      "duration": 0.42129587499999843,
      "velocity": 0.7244094488188977,
      "name": "A5"
    },
    {
      "midi": 50,
      "frequency": 146.8323839587038,
      "time": 45.333288,
      "duration": 0.104629525,
      "velocity": 0.5118110236220472,
      "name": "D3"
    },
    {
      "midi": 54,
      "frequency": 184.99721135581723,
      "time": 45.444399,
      "duration": 0.104629525,
      "velocity": 0.5433070866141733,
      "name": "F#3"
    },
    {
      "midi": 57,
      "frequency": 220,
      "time": 45.55551,
      "duration": 0.104629525,
      "velocity": 0.5748031496062992,
      "name": "A3"
    },
    {
      "midi": 62,
      "frequency": 293.6647679174076,
      "time": 45.666621,
      "duration": 0.104629525,
      "velocity": 0.6062992125984252,
      "name": "D4"
    },
    {
      "midi": 66,
      "frequency": 369.99442271163446,
      "time": 45.777732,
      "duration": 0.104629525,
      "velocity": 0.7874015748031497,
      "name": "F#4"
    },
    {
      "midi": 69,
      "frequency": 440,
      "time": 45.888843,
      "duration": 0.104629525,
      "velocity": 0.8031496062992126,
      "name": "A4"
    },
    {
      "midi": 74,
      "frequency": 587.3295358348151,
      "time": 45.999954,
      "duration": 0.104629525,
      "velocity": 0.8188976377952756,
      "name": "D5"
    },
    {
      "midi": 78,
      "frequency": 739.9888454232689,
      "time": 46.111065,
      "duration": 0.104629525,
      "velocity": 0.8346456692913385,
      "name": "F#5"
    },
    {
      "midi": 79,
      "frequency": 783.9908719634986,
      "time": 46.222176,
      "duration": 0.3157404250000013,
      "velocity": 0.7244094488188977,
      "name": "G5"
    },
    {
      "midi": 72,
      "frequency": 523.2511306011972,
      "time": 46.222176,
      "duration": 0.8435176750000011,
      "velocity": 0.7244094488188977,
      "name": "C5"
    },
    {
      "midi": 76,
      "frequency": 659.2551138257398,
      "time": 46.222176,
      "duration": 0.8435176750000011,
      "velocity": 0.7244094488188977,
      "name": "E5"
    },
    {
      "midi": 48,
      "frequency": 130.8127826502993,
      "time": 46.222176,
      "duration": 0.3157404250000013,
      "velocity": 0.5118110236220472,
      "name": "C3"
    },
    {
      "midi": 60,
      "frequency": 261.6255653005986,
      "time": 46.222176,
      "duration": 0.3157404250000013,
      "velocity": 0.5118110236220472,
      "name": "C4"
    },
    {
      "midi": 78,
      "frequency": 739.9888454232689,
      "time": 46.555509,
      "duration": 0.3157404249999942,
      "velocity": 0.7244094488188977,
      "name": "F#5"
    },
    {
      "midi": 55,
      "frequency": 195.99771799087463,
      "time": 46.555509,
      "duration": 0.3157404249999942,
      "velocity": 0.5118110236220472,
      "name": "G3"
    },
    {
      "midi": 79,
      "frequency": 783.9908719634986,
      "time": 46.888842000000004,
      "duration": 1.0546285749999953,
      "velocity": 0.7244094488188977,
      "name": "G5"
    },
    {
      "midi": 60,
      "frequency": 261.6255653005986,
      "time": 46.888842000000004,
      "duration": 0.6324067749999998,
      "velocity": 0.5118110236220472,
      "name": "C4"
    },
    {
      "midi": 64,
      "frequency": 329.6275569128699,
      "time": 46.888842000000004,
      "duration": 0.6324067749999998,
      "velocity": 0.5118110236220472,
      "name": "E4"
    },
    {
      "midi": 48,
      "frequency": 130.8127826502993,
      "time": 47.555508,
      "duration": 0.42129587499999843,
      "velocity": 0.5118110236220472,
      "name": "C3"
    },
    {
      "midi": 79,
      "frequency": 783.9908719634986,
      "time": 47.999952,
      "duration": 0.3157404249999942,
      "velocity": 0.7244094488188977,
      "name": "G5"
    },
    {
      "midi": 69,
      "frequency": 440,
      "time": 47.999952,
      "duration": 0.843517674999994,
      "velocity": 0.7244094488188977,
      "name": "A4"
    },
    {
      "midi": 74,
      "frequency": 587.3295358348151,
      "time": 47.999952,
      "duration": 0.843517674999994,
      "velocity": 0.7244094488188977,
      "name": "D5"
    },
    {
      "midi": 50,
      "frequency": 146.8323839587038,
      "time": 47.999952,
      "duration": 0.3157404249999942,
      "velocity": 0.5118110236220472,
      "name": "D3"
    },
    {
      "midi": 62,
      "frequency": 293.6647679174076,
      "time": 47.999952,
      "duration": 0.3157404249999942,
      "velocity": 0.5118110236220472,
      "name": "D4"
    },
    {
      "midi": 78,
      "frequency": 739.9888454232689,
      "time": 48.333285000000004,
      "duration": 0.3157404249999942,
      "velocity": 0.7244094488188977,
      "name": "F#5"
    },
    {
      "midi": 57,
      "frequency": 220,
      "time": 48.333285000000004,
      "duration": 0.3157404249999942,
      "velocity": 0.5118110236220472,
      "name": "A3"
    },
    {
      "midi": 79,
      "frequency": 783.9908719634986,
      "time": 48.666618,
      "duration": 0.6324067749999998,
      "velocity": 0.7244094488188977,
      "name": "G5"
    },
    {
      "midi": 62,
      "frequency": 293.6647679174076,
      "time": 48.666618,
      "duration": 0.6324067749999998,
      "velocity": 0.5118110236220472,
      "name": "D4"
    },
    {
      "midi": 66,
      "frequency": 369.99442271163446,
      "time": 48.666618,
      "duration": 0.6324067749999998,
      "velocity": 0.5118110236220472,
      "name": "F#4"
    },
    {
      "midi": 50,
      "frequency": 146.8323839587038,
      "time": 49.333284,
      "duration": 0.42129587500000554,
      "velocity": 0.5118110236220472,
      "name": "D3"
    },
    {
      "midi": 71,
      "frequency": 493.8833012561241,
      "time": 49.555506,
      "duration": 0.2101849749999971,
      "velocity": 0.7244094488188977,
      "name": "B4"
    },
    {
      "midi": 79,
      "frequency": 783.9908719634986,
      "time": 49.777728,
      "duration": 0.3157404249999942,
      "velocity": 0.7244094488188977,
      "name": "G5"
    },
    {
      "midi": 67,
      "frequency": 391.99543598174927,
      "time": 49.777728,
      "duration": 0.6666659999999993,
      "velocity": 0.7244094488188977,
      "name": "G4"
    },
    {
      "midi": 71,
      "frequency": 493.8833012561241,
      "time": 49.777728,
      "duration": 0.6666659999999993,
      "velocity": 0.7244094488188977,
      "name": "B4"
    },
    {
      "midi": 52,
      "frequency": 164.81377845643496,
      "time": 49.777728,
      "duration": 0.3157404249999942,
      "velocity": 0.5118110236220472,
      "name": "E3"
    },
    {
      "midi": 78,
      "frequency": 739.9888454232689,
      "time": 50.111061,
      "duration": 0.3157404250000013,
      "velocity": 0.7244094488188977,
      "name": "F#5"
    },
    {
      "midi": 59,
      "frequency": 246.94165062806206,
      "time": 50.111061,
      "duration": 0.3157404250000013,
      "velocity": 0.5118110236220472,
      "name": "B3"
    },
    {
      "midi": 71,
      "frequency": 493.8833012561241,
      "time": 50.444394,
      "duration": 0.843517674999994,
      "velocity": 0.7244094488188977,
      "name": "B4"
    },
    {
      "midi": 76,
      "frequency": 659.2551138257398,
      "time": 50.444394,
      "duration": 0.843517674999994,
      "velocity": 0.7244094488188977,
      "name": "E5"
    },
    {
      "midi": 64,
      "frequency": 329.6275569128699,
      "time": 50.444394,
      "duration": 0.6324067749999998,
      "velocity": 0.5118110236220472,
      "name": "E4"
    },
    {
      "midi": 67,
      "frequency": 391.99543598174927,
      "time": 50.444394,
      "duration": 0.6324067749999998,
      "velocity": 0.5118110236220472,
      "name": "G4"
    },
    {
      "midi": 52,
      "frequency": 164.81377845643496,
      "time": 51.11106,
      "duration": 0.42129587499999843,
      "velocity": 0.5118110236220472,
      "name": "E3"
    },
    {
      "midi": 69,
      "frequency": 440,
      "time": 51.333282000000004,
      "duration": 1.0546285749999953,
      "velocity": 0.7244094488188977,
      "name": "A4"
    },
    {
      "midi": 74,
      "frequency": 587.3295358348151,
      "time": 51.333282000000004,
      "duration": 1.0546285749999953,
      "velocity": 0.7244094488188977,
      "name": "D5"
    },
    {
      "midi": 50,
      "frequency": 146.8323839587038,
      "time": 51.555504,
      "duration": 0.3157404250000013,
      "velocity": 0.5118110236220472,
      "name": "D3"
    },
    {
      "midi": 62,
      "frequency": 293.6647679174076,
      "time": 51.555504,
      "duration": 0.3157404250000013,
      "velocity": 0.5118110236220472,
      "name": "D4"
    },
    {
      "midi": 57,
      "frequency": 220,
      "time": 51.888837,
      "duration": 0.3157404249999942,
      "velocity": 0.5118110236220472,
      "name": "A3"
    },
    {
      "midi": 62,
      "frequency": 293.6647679174076,
      "time": 52.22217,
      "duration": 0.8888880000000015,
      "velocity": 0.5118110236220472,
      "name": "D4"
    },
    {
      "midi": 66,
      "frequency": 369.99442271163446,
      "time": 52.22217,
      "duration": 0.6666659999999993,
      "velocity": 0.5118110236220472,
      "name": "F#4"
    },
    {
      "midi": 71,
      "frequency": 493.8833012561241,
      "time": 52.666614,
      "duration": 0.42129587499999843,
      "velocity": 0.7244094488188977,
      "name": "B4"
    },
    {
      "midi": 67,
      "frequency": 391.99543598174927,
      "time": 52.666614,
      "duration": 0.2101849749999971,
      "velocity": 0.7244094488188977,
      "name": "G4"
    },
    {
      "midi": 66,
      "frequency": 369.99442271163446,
      "time": 52.888836,
      "duration": 0.3879625750000031,
      "velocity": 0.7244094488188977,
      "name": "F#4"
    },
    {
      "midi": 74,
      "frequency": 587.3295358348151,
      "time": 53.111058,
      "duration": 0.2101849749999971,
      "velocity": 0.7244094488188977,
      "name": "D5"
    },
    {
      "midi": 62,
      "frequency": 293.6647679174076,
      "time": 53.111058,
      "duration": 0.2101849749999971,
      "velocity": 0.7244094488188977,
      "name": "D4"
    },
    {
      "midi": 64,
      "frequency": 329.6275569128699,
      "time": 53.33328,
      "duration": 0.843517674999994,
      "velocity": 0.7244094488188977,
      "name": "E4"
    },
    {
      "midi": 72,
      "frequency": 523.2511306011972,
      "time": 53.33328,
      "duration": 0.843517674999994,
      "velocity": 0.7244094488188977,
      "name": "C5"
    },
    {
      "midi": 76,
      "frequency": 659.2551138257398,
      "time": 53.33328,
      "duration": 0.843517674999994,
      "velocity": 0.7244094488188977,
      "name": "E5"
    },
    {
      "midi": 36,
      "frequency": 65.40639132514966,
      "time": 53.33328,
      "duration": 0.42129587499999843,
      "velocity": 0.5118110236220472,
      "name": "C2"
    },
    {
      "midi": 48,
      "frequency": 130.8127826502993,
      "time": 53.33328,
      "duration": 0.42129587499999843,
      "velocity": 0.5118110236220472,
      "name": "C3"
    },
    {
      "midi": 36,
      "frequency": 65.40639132514966,
      "time": 53.777724,
      "duration": 0.42129587500000554,
      "velocity": 0.5275590551181102,
      "name": "C2"
    },
    {
      "midi": 48,
      "frequency": 130.8127826502993,
      "time": 53.777724,
      "duration": 0.42129587500000554,
      "velocity": 0.5275590551181102,
      "name": "C3"
    },
    {
      "midi": 36,
      "frequency": 65.40639132514966,
      "time": 54.222168,
      "duration": 0.42129587499999843,
      "velocity": 0.5433070866141733,
      "name": "C2"
    },
    {
      "midi": 48,
      "frequency": 130.8127826502993,
      "time": 54.222168,
      "duration": 0.42129587499999843,
      "velocity": 0.5433070866141733,
      "name": "C3"
    },
    {
      "midi": 72,
      "frequency": 523.2511306011972,
      "time": 54.44439,
      "duration": 0.42129587500000554,
      "velocity": 0.7244094488188977,
      "name": "C5"
    },
    {
      "midi": 76,
      "frequency": 659.2551138257398,
      "time": 54.44439,
      "duration": 0.42129587500000554,
      "velocity": 0.7244094488188977,
      "name": "E5"
    },
    {
      "midi": 36,
      "frequency": 65.40639132514966,
      "time": 54.666612,
      "duration": 0.42129587500000554,
      "velocity": 0.5590551181102362,
      "name": "C2"
    },
    {
      "midi": 48,
      "frequency": 130.8127826502993,
      "time": 54.666612,
      "duration": 0.42129587500000554,
      "velocity": 0.5590551181102362,
      "name": "C3"
    },
    {
      "midi": 79,
      "frequency": 783.9908719634986,
      "time": 54.888834,
      "duration": 0.2101849749999971,
      "velocity": 0.7244094488188977,
      "name": "G5"
    },
    {
      "midi": 74,
      "frequency": 587.3295358348151,
      "time": 55.111056,
      "duration": 0.8435176750000011,
      "velocity": 0.7244094488188977,
      "name": "D5"
    },
    {
      "midi": 78,
      "frequency": 739.9888454232689,
      "time": 55.111056,
      "duration": 0.8435176750000011,
      "velocity": 0.7244094488188977,
      "name": "F#5"
    },
    {
      "midi": 81,
      "frequency": 880,
      "time": 55.111056,
      "duration": 0.8435176750000011,
      "velocity": 0.7244094488188977,
      "name": "A5"
    },
    {
      "midi": 38,
      "frequency": 73.41619197935188,
      "time": 55.111056,
      "duration": 0.42129587500000554,
      "velocity": 0.5748031496062992,
      "name": "D2"
    },
    {
      "midi": 50,
      "frequency": 146.8323839587038,
      "time": 55.111056,
      "duration": 0.42129587500000554,
      "velocity": 0.5748031496062992,
      "name": "D3"
    },
    {
      "midi": 38,
      "frequency": 73.41619197935188,
      "time": 55.5555,
      "duration": 0.42129587499999843,
      "velocity": 0.5905511811023622,
      "name": "D2"
    },
    {
      "midi": 50,
      "frequency": 146.8323839587038,
      "time": 55.5555,
      "duration": 0.42129587499999843,
      "velocity": 0.5905511811023622,
      "name": "D3"
    },
    {
      "midi": 38,
      "frequency": 73.41619197935188,
      "time": 55.999944,
      "duration": 0.42129587500000554,
      "velocity": 0.6062992125984252,
      "name": "D2"
    },
    {
      "midi": 50,
      "frequency": 146.8323839587038,
      "time": 55.999944,
      "duration": 0.42129587500000554,
      "velocity": 0.6062992125984252,
      "name": "D3"
    },
    {
      "midi": 71,
      "frequency": 493.8833012561241,
      "time": 56.222166,
      "duration": 0.42129587499999843,
      "velocity": 0.8031496062992126,
      "name": "B4"
    },
    {
      "midi": 76,
      "frequency": 659.2551138257398,
      "time": 56.222166,
      "duration": 0.42129587499999843,
      "velocity": 0.8031496062992126,
      "name": "E5"
    },
    {
      "midi": 79,
      "frequency": 783.9908719634986,
      "time": 56.222166,
      "duration": 0.42129587499999843,
      "velocity": 0.8031496062992126,
      "name": "G5"
    },
    {
      "midi": 38,
      "frequency": 73.41619197935188,
      "time": 56.444388000000004,
      "duration": 0.42129587499999843,
      "velocity": 0.6220472440944882,
      "name": "D2"
    },
    {
      "midi": 50,
      "frequency": 146.8323839587038,
      "time": 56.444388000000004,
      "duration": 0.42129587499999843,
      "velocity": 0.6220472440944882,
      "name": "D3"
    },
    {
      "midi": 81,
      "frequency": 880,
      "time": 56.66661,
      "duration": 0.2101849749999971,
      "velocity": 0.8346456692913385,
      "name": "A5"
    },
    {
      "midi": 71,
      "frequency": 493.8833012561241,
      "time": 56.888832,
      "duration": 0.8435176750000011,
      "velocity": 0.8503937007874016,
      "name": "B4"
    },
    {
      "midi": 76,
      "frequency": 659.2551138257398,
      "time": 56.888832,
      "duration": 0.8435176750000011,
      "velocity": 0.8503937007874016,
      "name": "E5"
    },
    {
      "midi": 83,
      "frequency": 987.7666025122483,
      "time": 56.888832,
      "duration": 0.8435176750000011,
      "velocity": 0.8503937007874016,
      "name": "B5"
    },
    {
      "midi": 40,
      "frequency": 82.40688922821748,
      "time": 56.888832,
      "duration": 0.2101849749999971,
      "velocity": 0.6456692913385826,
      "name": "E2"
    },
    {
      "midi": 52,
      "frequency": 164.81377845643496,
      "time": 56.888832,
      "duration": 0.2101849749999971,
      "velocity": 0.6456692913385826,
      "name": "E3"
    },
    {
      "midi": 59,
      "frequency": 246.94165062806206,
      "time": 57.111054,
      "duration": 0.2101849749999971,
      "velocity": 0.7244094488188977,
      "name": "B3"
    },
    {
      "midi": 64,
      "frequency": 329.6275569128699,
      "time": 57.111054,
      "duration": 0.2101849749999971,
      "velocity": 0.7244094488188977,
      "name": "E4"
    },
    {
      "midi": 40,
      "frequency": 82.40688922821748,
      "time": 57.111054,
      "duration": 0.2101849749999971,
      "velocity": 0.6456692913385826,
      "name": "E2"
    },
    {
      "midi": 52,
      "frequency": 164.81377845643496,
      "time": 57.111054,
      "duration": 0.2101849749999971,
      "velocity": 0.6456692913385826,
      "name": "E3"
    },
    {
      "midi": 59,
      "frequency": 246.94165062806206,
      "time": 57.333276,
      "duration": 0.21018497500000421,
      "velocity": 0.7244094488188977,
      "name": "B3"
    },
    {
      "midi": 64,
      "frequency": 329.6275569128699,
      "time": 57.333276,
      "duration": 0.21018497500000421,
      "velocity": 0.7244094488188977,
      "name": "E4"
    },
    {
      "midi": 40,
      "frequency": 82.40688922821748,
      "time": 57.333276,
      "duration": 0.21018497500000421,
      "velocity": 0.6456692913385826,
      "name": "E2"
    },
    {
      "midi": 52,
      "frequency": 164.81377845643496,
      "time": 57.333276,
      "duration": 0.21018497500000421,
      "velocity": 0.6456692913385826,
      "name": "E3"
    },
    {
      "midi": 59,
      "frequency": 246.94165062806206,
      "time": 57.555498,
      "duration": 0.2101849749999971,
      "velocity": 0.7244094488188977,
      "name": "B3"
    },
    {
      "midi": 64,
      "frequency": 329.6275569128699,
      "time": 57.555498,
      "duration": 0.2101849749999971,
      "velocity": 0.7244094488188977,
      "name": "E4"
    },
    {
      "midi": 40,
      "frequency": 82.40688922821748,
      "time": 57.555498,
      "duration": 0.2101849749999971,
      "velocity": 0.6456692913385826,
      "name": "E2"
    },
    {
      "midi": 52,
      "frequency": 164.81377845643496,
      "time": 57.555498,
      "duration": 0.2101849749999971,
      "velocity": 0.6456692913385826,
      "name": "E3"
    },
    {
      "midi": 64,
      "frequency": 329.6275569128699,
      "time": 57.77772,
      "duration": 0.2101849749999971,
      "velocity": 0.7244094488188977,
      "name": "E4"
    },
    {
      "midi": 76,
      "frequency": 659.2551138257398,
      "time": 57.77772,
      "duration": 0.2101849749999971,
      "velocity": 0.7244094488188977,
      "name": "E5"
    },
    {
      "midi": 40,
      "frequency": 82.40688922821748,
      "time": 57.77772,
      "duration": 0.2101849749999971,
      "velocity": 0.6456692913385826,
      "name": "E2"
    },
    {
      "midi": 52,
      "frequency": 164.81377845643496,
      "time": 57.77772,
      "duration": 0.2101849749999971,
      "velocity": 0.6456692913385826,
      "name": "E3"
    },
    {
      "midi": 66,
      "frequency": 369.99442271163446,
      "time": 57.999942,
      "duration": 0.21018497500000421,
      "velocity": 0.7244094488188977,
      "name": "F#4"
    },
    {
      "midi": 78,
      "frequency": 739.9888454232689,
      "time": 57.999942,
      "duration": 0.21018497500000421,
      "velocity": 0.7244094488188977,
      "name": "F#5"
    },
    {
      "midi": 40,
      "frequency": 82.40688922821748,
      "time": 57.999942,
      "duration": 0.21018497500000421,
      "velocity": 0.6456692913385826,
      "name": "E2"
    },
    {
      "midi": 52,
      "frequency": 164.81377845643496,
      "time": 57.999942,
      "duration": 0.21018497500000421,
      "velocity": 0.6456692913385826,
      "name": "E3"
    },
    {
      "midi": 67,
      "frequency": 391.99543598174927,
      "time": 58.222164,
      "duration": 0.2101849749999971,
      "velocity": 0.7244094488188977,
      "name": "G4"
    },
    {
      "midi": 79,
      "frequency": 783.9908719634986,
      "time": 58.222164,
      "duration": 0.2101849749999971,
      "velocity": 0.7244094488188977,
      "name": "G5"
    },
    {
      "midi": 40,
      "frequency": 82.40688922821748,
      "time": 58.222164,
      "duration": 0.2101849749999971,
      "velocity": 0.6456692913385826,
      "name": "E2"
    },
    {
      "midi": 52,
      "frequency": 164.81377845643496,
      "time": 58.222164,
      "duration": 0.2101849749999971,
      "velocity": 0.6456692913385826,
      "name": "E3"
    },
    {
      "midi": 69,
      "frequency": 440,
      "time": 58.444386,
      "duration": 0.2101849749999971,
      "velocity": 0.7244094488188977,
      "name": "A4"
    },
    {
      "midi": 81,
      "frequency": 880,
      "time": 58.444386,
      "duration": 0.2101849749999971,
      "velocity": 0.7244094488188977,
      "name": "A5"
    },
    {
      "midi": 40,
      "frequency": 82.40688922821748,
      "time": 58.444386,
      "duration": 0.2101849749999971,
      "velocity": 0.6456692913385826,
      "name": "E2"
    },
    {
      "midi": 52,
      "frequency": 164.81377845643496,
      "time": 58.444386,
      "duration": 0.2101849749999971,
      "velocity": 0.6456692913385826,
      "name": "E3"
    },
    {
      "midi": 52,
      "frequency": 164.81377845643496,
      "time": 58.666608000000004,
      "duration": 0.104629525,
      "velocity": 0.6456692913385826,
      "name": "E3"
    },
    {
      "midi": 47,
      "frequency": 123.47082531403103,
      "time": 58.777719,
      "duration": 0.1046295250000071,
      "velocity": 0.6456692913385826,
      "name": "B2"
    },
    {
      "midi": 43,
      "frequency": 97.99885899543733,
      "time": 58.88883,
      "duration": 0.1046295250000071,
      "velocity": 0.6456692913385826,
      "name": "G2"
    },
    {
      "midi": 47,
      "frequency": 123.47082531403103,
      "time": 58.999941,
      "duration": 0.1046295250000071,
      "velocity": 0.6456692913385826,
      "name": "B2"
    },
    {
      "midi": 62,
      "frequency": 293.6647679174076,
      "time": 59.111052,
      "duration": 0.42129587499999843,
      "velocity": 0.8503937007874016,
      "name": "D4"
    },
    {
      "midi": 67,
      "frequency": 391.99543598174927,
      "time": 59.111052,
      "duration": 0.42129587499999843,
      "velocity": 0.8503937007874016,
      "name": "G4"
    },
    {
      "midi": 74,
      "frequency": 587.3295358348151,
      "time": 59.111052,
      "duration": 0.42129587499999843,
      "velocity": 0.8503937007874016,
      "name": "D5"
    },
    {
      "midi": 40,
      "frequency": 82.40688922821748,
      "time": 59.111052,
      "duration": 0.42129587499999843,
      "velocity": 0.6456692913385826,
      "name": "E2"
    },
    {
      "midi": 52,
      "frequency": 164.81377845643496,
      "time": 59.111052,
      "duration": 0.42129587499999843,
      "velocity": 0.6456692913385826,
      "name": "E3"
    },
    {
      "midi": 62,
      "frequency": 293.6647679174076,
      "time": 59.555496,
      "duration": 0.42129587499999843,
      "velocity": 0.8503937007874016,
      "name": "D4"
    },
    {
      "midi": 67,
      "frequency": 391.99543598174927,
      "time": 59.555496,
      "duration": 0.42129587499999843,
      "velocity": 0.8503937007874016,
      "name": "G4"
    },
    {
      "midi": 74,
      "frequency": 587.3295358348151,
      "time": 59.555496,
      "duration": 0.42129587499999843,
      "velocity": 0.8503937007874016,
      "name": "D5"
    },
    {
      "midi": 71,
      "frequency": 493.8833012561241,
      "time": 59.99994,
      "duration": 0.4212958749999913,
      "velocity": 0.8503937007874016,
      "name": "B4"
    },
    {
      "midi": 76,
      "frequency": 659.2551138257398,
      "time": 59.99994,
      "duration": 0.4212958749999913,
      "velocity": 0.8503937007874016,
      "name": "E5"
    },
    {
      "midi": 83,
      "frequency": 987.7666025122483,
      "time": 59.99994,
      "duration": 0.4212958749999913,
      "velocity": 0.8503937007874016,
      "name": "B5"
    },
    {
      "midi": 69,
      "frequency": 440,
      "time": 60.444384,
      "duration": 0.2101849749999971,
      "velocity": 0.8503937007874016,
      "name": "A4"
    },
    {
      "midi": 72,
      "frequency": 523.2511306011972,
      "time": 60.444384,
      "duration": 0.2101849749999971,
      "velocity": 0.8503937007874016,
      "name": "C5"
    },
    {
      "midi": 76,
      "frequency": 659.2551138257398,
      "time": 60.444384,
      "duration": 0.2101849749999971,
      "velocity": 0.8503937007874016,
      "name": "E5"
    },
    {
      "midi": 81,
      "frequency": 880,
      "time": 60.444384,
      "duration": 0.2101849749999971,
      "velocity": 0.8503937007874016,
      "name": "A5"
    },
    {
      "midi": 36,
      "frequency": 65.40639132514966,
      "time": 60.444384,
      "duration": 0.1046295250000071,
      "velocity": 0.7716535433070866,
      "name": "C2"
    },
    {
      "midi": 40,
      "frequency": 82.40688922821748,
      "time": 60.555495,
      "duration": 0.1046295250000071,
      "velocity": 0.7716535433070866,
      "name": "E2"
    },
    {
      "midi": 71,
      "frequency": 493.8833012561241,
      "time": 60.666606,
      "duration": 0.2101849749999971,
      "velocity": 0.8503937007874016,
      "name": "B4"
    },
    {
      "midi": 83,
      "frequency": 987.7666025122483,
      "time": 60.666606,
      "duration": 0.2101849749999971,
      "velocity": 0.8503937007874016,
      "name": "B5"
    },
    {
      "midi": 43,
      "frequency": 97.99885899543733,
      "time": 60.666606,
      "duration": 0.1046295250000071,
      "velocity": 0.7716535433070866,
      "name": "G2"
    },
    {
      "midi": 48,
      "frequency": 130.8127826502993,
      "time": 60.777717,
      "duration": 0.1046295250000071,
      "velocity": 0.7716535433070866,
      "name": "C3"
    },
    {
      "midi": 74,
      "frequency": 587.3295358348151,
      "time": 60.888828000000004,
      "duration": 0.2101849749999971,
      "velocity": 0.8503937007874016,
      "name": "D5"
    },
    {
      "midi": 86,
      "frequency": 1174.6590716696303,
      "time": 60.888828000000004,
      "duration": 0.2101849749999971,
      "velocity": 0.8503937007874016,
      "name": "D6"
    },
    {
      "midi": 55,
      "frequency": 195.99771799087463,
      "time": 60.888828000000004,
      "duration": 0.2101849749999971,
      "velocity": 0.7716535433070866,
      "name": "G3"
    },
    {
      "midi": 60,
      "frequency": 261.6255653005986,
      "time": 60.888828000000004,
      "duration": 0.2101849749999971,
      "velocity": 0.7716535433070866,
      "name": "C4"
    },
    {
      "midi": 71,
      "frequency": 493.8833012561241,
      "time": 61.11105,
      "duration": 0.2101849749999971,
      "velocity": 0.8503937007874016,
      "name": "B4"
    },
    {
      "midi": 83,
      "frequency": 987.7666025122483,
      "time": 61.11105,
      "duration": 0.2101849749999971,
      "velocity": 0.8503937007874016,
      "name": "B5"
    },
    {
      "midi": 48,
      "frequency": 130.8127826502993,
      "time": 61.11105,
      "duration": 0.2101849749999971,
      "velocity": 0.7716535433070866,
      "name": "C3"
    },
    {
      "midi": 69,
      "frequency": 440,
      "time": 61.333272,
      "duration": 0.2101849749999971,
      "velocity": 0.8503937007874016,
      "name": "A4"
    },
    {
      "midi": 81,
      "frequency": 880,
      "time": 61.333272,
      "duration": 0.2101849749999971,
      "velocity": 0.8503937007874016,
      "name": "A5"
    },
    {
      "midi": 60,
      "frequency": 261.6255653005986,
      "time": 61.333272,
      "duration": 0.1046295250000071,
      "velocity": 0.7716535433070866,
      "name": "C4"
    },
    {
      "midi": 55,
      "frequency": 195.99771799087463,
      "time": 61.444383,
      "duration": 0.1046295250000071,
      "velocity": 0.7716535433070866,
      "name": "G3"
    },
    {
      "midi": 71,
      "frequency": 493.8833012561241,
      "time": 61.555494,
      "duration": 0.1046295250000071,
      "velocity": 0.8503937007874016,
      "name": "B4"
    },
    {
      "midi": 83,
      "frequency": 987.7666025122483,
      "time": 61.555494,
      "duration": 0.1046295250000071,
      "velocity": 0.8503937007874016,
      "name": "B5"
    },
    {
      "midi": 52,
      "frequency": 164.81377845643496,
      "time": 61.555494,
      "duration": 0.1046295250000071,
      "velocity": 0.7716535433070866,
      "name": "E3"
    },
    {
      "midi": 71,
      "frequency": 493.8833012561241,
      "time": 61.666605000000004,
      "duration": 0.3157404250000013,
      "velocity": 0.8503937007874016,
      "name": "B4"
    },
    {
      "midi": 83,
      "frequency": 987.7666025122483,
      "time": 61.666605000000004,
      "duration": 0.3157404250000013,
      "velocity": 0.8503937007874016,
      "name": "B5"
    },
    {
      "midi": 48,
      "frequency": 130.8127826502993,
      "time": 61.666605000000004,
      "duration": 0.104629525,
      "velocity": 0.7716535433070866,
      "name": "C3"
    },
    {
      "midi": 60,
      "frequency": 261.6255653005986,
      "time": 61.777716,
      "duration": 0.1046295250000071,
      "velocity": 0.7716535433070866,
      "name": "C4"
    },
    {
      "midi": 55,
      "frequency": 195.99771799087463,
      "time": 61.888827,
      "duration": 0.1046295250000071,
      "velocity": 0.7716535433070866,
      "name": "G3"
    },
    {
      "midi": 67,
      "frequency": 391.99543598174927,
      "time": 61.999938,
      "duration": 0.2101849749999971,
      "velocity": 0.8503937007874016,
      "name": "G4"
    },
    {
      "midi": 79,
      "frequency": 783.9908719634986,
      "time": 61.999938,
      "duration": 0.2101849749999971,
      "velocity": 0.8503937007874016,
      "name": "G5"
    },
    {
      "midi": 52,
      "frequency": 164.81377845643496,
      "time": 61.999938,
      "duration": 0.1046295250000071,
      "velocity": 0.7716535433070866,
      "name": "E3"
    },
    {
      "midi": 48,
      "frequency": 130.8127826502993,
      "time": 62.111049,
      "duration": 0.1046295250000071,
      "velocity": 0.7716535433070866,
      "name": "C3"
    },
    {
      "midi": 69,
      "frequency": 440,
      "time": 62.22216,
      "duration": 0.2101849749999971,
      "velocity": 0.8503937007874016,
      "name": "A4"
    },
    {
      "midi": 74,
      "frequency": 587.3295358348151,
      "time": 62.22216,
      "duration": 0.2101849749999971,
      "velocity": 0.8503937007874016,
      "name": "D5"
    },
    {
      "midi": 78,
      "frequency": 739.9888454232689,
      "time": 62.22216,
      "duration": 0.2101849749999971,
      "velocity": 0.8503937007874016,
      "name": "F#5"
    },
    {
      "midi": 81,
      "frequency": 880,
      "time": 62.22216,
      "duration": 0.2101849749999971,
      "velocity": 0.8503937007874016,
      "name": "A5"
    },
    {
      "midi": 38,
      "frequency": 73.41619197935188,
      "time": 62.22216,
      "duration": 0.1046295250000071,
      "velocity": 0.7716535433070866,
      "name": "D2"
    },
    {
      "midi": 42,
      "frequency": 92.49860567790861,
      "time": 62.333271,
      "duration": 0.104629525,
      "velocity": 0.7716535433070866,
      "name": "F#2"
    },
    {
      "midi": 71,
      "frequency": 493.8833012561241,
      "time": 62.444382,
      "duration": 0.21018497500000421,
      "velocity": 0.8503937007874016,
      "name": "B4"
    },
    {
      "midi": 83,
      "frequency": 987.7666025122483,
      "time": 62.444382,
      "duration": 0.21018497500000421,
      "velocity": 0.8503937007874016,
      "name": "B5"
    },
    {
      "midi": 45,
      "frequency": 110,
      "time": 62.444382,
      "duration": 0.1046295250000071,
      "velocity": 0.7716535433070866,
      "name": "A2"
    },
    {
      "midi": 50,
      "frequency": 146.8323839587038,
      "time": 62.555493,
      "duration": 0.1046295250000071,
      "velocity": 0.7716535433070866,
      "name": "D3"
    },
    {
      "midi": 74,
      "frequency": 587.3295358348151,
      "time": 62.666604,
      "duration": 0.2101849749999971,
      "velocity": 0.8503937007874016,
      "name": "D5"
    },
    {
      "midi": 86,
      "frequency": 1174.6590716696303,
      "time": 62.666604,
      "duration": 0.2101849749999971,
      "velocity": 0.8503937007874016,
      "name": "D6"
    },
    {
      "midi": 57,
      "frequency": 220,
      "time": 62.666604,
      "duration": 0.2101849749999971,
      "velocity": 0.7716535433070866,
      "name": "A3"
    },
    {
      "midi": 62,
      "frequency": 293.6647679174076,
      "time": 62.666604,
      "duration": 0.2101849749999971,
      "velocity": 0.7716535433070866,
      "name": "D4"
    },
    {
      "midi": 71,
      "frequency": 493.8833012561241,
      "time": 62.888826,
      "duration": 0.2101849749999971,
      "velocity": 0.8503937007874016,
      "name": "B4"
    },
    {
      "midi": 83,
      "frequency": 987.7666025122483,
      "time": 62.888826,
      "duration": 0.2101849749999971,
      "velocity": 0.8503937007874016,
      "name": "B5"
    },
    {
      "midi": 50,
      "frequency": 146.8323839587038,
      "time": 62.888826,
      "duration": 0.2101849749999971,
      "velocity": 0.7716535433070866,
      "name": "D3"
    },
    {
      "midi": 69,
      "frequency": 440,
      "time": 63.111048000000004,
      "duration": 0.2101849749999971,
      "velocity": 0.8503937007874016,
      "name": "A4"
    },
    {
      "midi": 81,
      "frequency": 880,
      "time": 63.111048000000004,
      "duration": 0.2101849749999971,
      "velocity": 0.8503937007874016,
      "name": "A5"
    },
    {
      "midi": 62,
      "frequency": 293.6647679174076,
      "time": 63.111048000000004,
      "duration": 0.104629525,
      "velocity": 0.7716535433070866,
      "name": "D4"
    },
    {
      "midi": 57,
      "frequency": 220,
      "time": 63.222159,
      "duration": 0.1046295250000071,
      "velocity": 0.7716535433070866,
      "name": "A3"
    },
    {
      "midi": 71,
      "frequency": 493.8833012561241,
      "time": 63.33327,
      "duration": 0.1046295250000071,
      "velocity": 0.8503937007874016,
      "name": "B4"
    },
    {
      "midi": 83,
      "frequency": 987.7666025122483,
      "time": 63.33327,
      "duration": 0.1046295250000071,
      "velocity": 0.8503937007874016,
      "name": "B5"
    },
    {
      "midi": 54,
      "frequency": 184.99721135581723,
      "time": 63.33327,
      "duration": 0.1046295250000071,
      "velocity": 0.7716535433070866,
      "name": "F#3"
    },
    {
      "midi": 71,
      "frequency": 493.8833012561241,
      "time": 63.444381,
      "duration": 0.3157404250000013,
      "velocity": 0.8503937007874016,
      "name": "B4"
    },
    {
      "midi": 83,
      "frequency": 987.7666025122483,
      "time": 63.444381,
      "duration": 0.3157404250000013,
      "velocity": 0.8503937007874016,
      "name": "B5"
    },
    {
      "midi": 50,
      "frequency": 146.8323839587038,
      "time": 63.444381,
      "duration": 0.1046295250000071,
      "velocity": 0.7716535433070866,
      "name": "D3"
    },
    {
      "midi": 62,
      "frequency": 293.6647679174076,
      "time": 63.555492,
      "duration": 0.1046295250000071,
      "velocity": 0.7716535433070866,
      "name": "D4"
    },
    {
      "midi": 57,
      "frequency": 220,
      "time": 63.666603,
      "duration": 0.1046295250000071,
      "velocity": 0.7716535433070866,
      "name": "A3"
    },
    {
      "midi": 62,
      "frequency": 293.6647679174076,
      "time": 63.777714,
      "duration": 0.2101849749999971,
      "velocity": 0.8503937007874016,
      "name": "D4"
    },
    {
      "midi": 74,
      "frequency": 587.3295358348151,
      "time": 63.777714,
      "duration": 0.2101849749999971,
      "velocity": 0.8503937007874016,
      "name": "D5"
    },
    {
      "midi": 54,
      "frequency": 184.99721135581723,
      "time": 63.777714,
      "duration": 0.1046295250000071,
      "velocity": 0.7716535433070866,
      "name": "F#3"
    },
    {
      "midi": 50,
      "frequency": 146.8323839587038,
      "time": 63.888825000000004,
      "duration": 0.104629525,
      "velocity": 0.7716535433070866,
      "name": "D3"
    },
    {
      "midi": 64,
      "frequency": 329.6275569128699,
      "time": 63.999936,
      "duration": 0.2101849749999971,
      "velocity": 0.8503937007874016,
      "name": "E4"
    },
    {
      "midi": 67,
      "frequency": 391.99543598174927,
      "time": 63.999936,
      "duration": 0.2101849749999971,
      "velocity": 0.8503937007874016,
      "name": "G4"
    },
    {
      "midi": 71,
      "frequency": 493.8833012561241,
      "time": 63.999936,
      "duration": 0.2101849749999971,
      "velocity": 0.8503937007874016,
      "name": "B4"
    },
    {
      "midi": 76,
      "frequency": 659.2551138257398,
      "time": 63.999936,
      "duration": 0.2101849749999971,
      "velocity": 0.8503937007874016,
      "name": "E5"
    },
    {
      "midi": 40,
      "frequency": 82.40688922821748,
      "time": 63.999936,
      "duration": 0.10462952500001421,
      "velocity": 0.7716535433070866,
      "name": "E2"
    },
    {
      "midi": 43,
      "frequency": 97.99885899543733,
      "time": 64.111047,
      "duration": 0.1046295250000071,
      "velocity": 0.7716535433070866,
      "name": "G2"
    },
    {
      "midi": 67,
      "frequency": 391.99543598174927,
      "time": 64.22215800000001,
      "duration": 0.1046295249999929,
      "velocity": 0.8503937007874016,
      "name": "G4"
    },
    {
      "midi": 79,
      "frequency": 783.9908719634986,
      "time": 64.22215800000001,
      "duration": 0.1046295249999929,
      "velocity": 0.8503937007874016,
      "name": "G5"
    },
    {
      "midi": 47,
      "frequency": 123.47082531403103,
      "time": 64.22215800000001,
      "duration": 0.1046295249999929,
      "velocity": 0.7716535433070866,
      "name": "B2"
    },
    {
      "midi": 67,
      "frequency": 391.99543598174927,
      "time": 64.333269,
      "duration": 0.3157404250000013,
      "velocity": 0.8503937007874016,
      "name": "G4"
    },
    {
      "midi": 79,
      "frequency": 783.9908719634986,
      "time": 64.333269,
      "duration": 0.3157404250000013,
      "velocity": 0.8503937007874016,
      "name": "G5"
    },
    {
      "midi": 52,
      "frequency": 164.81377845643496,
      "time": 64.333269,
      "duration": 0.1046295250000071,
      "velocity": 0.7716535433070866,
      "name": "E3"
    },
    {
      "midi": 59,
      "frequency": 246.94165062806206,
      "time": 64.44438,
      "duration": 0.21018497500000421,
      "velocity": 0.7716535433070866,
      "name": "B3"
    },
    {
      "midi": 64,
      "frequency": 329.6275569128699,
      "time": 64.44438,
      "duration": 0.21018497500000421,
      "velocity": 0.7716535433070866,
      "name": "E4"
    },
    {
      "midi": 62,
      "frequency": 293.6647679174076,
      "time": 64.666602,
      "duration": 0.21018497500000421,
      "velocity": 0.8503937007874016,
      "name": "D4"
    },
    {
      "midi": 74,
      "frequency": 587.3295358348151,
      "time": 64.666602,
      "duration": 0.21018497500000421,
      "velocity": 0.8503937007874016,
      "name": "D5"
    },
    {
      "midi": 52,
      "frequency": 164.81377845643496,
      "time": 64.666602,
      "duration": 0.21018497500000421,
      "velocity": 0.7716535433070866,
      "name": "E3"
    },
    {
      "midi": 62,
      "frequency": 293.6647679174076,
      "time": 64.888824,
      "duration": 0.21018497500000421,
      "velocity": 0.8503937007874016,
      "name": "D4"
    },
    {
      "midi": 74,
      "frequency": 587.3295358348151,
      "time": 64.888824,
      "duration": 0.21018497500000421,
      "velocity": 0.8503937007874016,
      "name": "D5"
    },
    {
      "midi": 64,
      "frequency": 329.6275569128699,
      "time": 64.888824,
      "duration": 0.1046295250000071,
      "velocity": 0.7716535433070866,
      "name": "E4"
    },
    {
      "midi": 59,
      "frequency": 246.94165062806206,
      "time": 64.99993500000001,
      "duration": 0.1046295249999929,
      "velocity": 0.7716535433070866,
      "name": "B3"
    },
    {
      "midi": 67,
      "frequency": 391.99543598174927,
      "time": 65.111046,
      "duration": 0.21018497500000421,
      "velocity": 0.8503937007874016,
      "name": "G4"
    },
    {
      "midi": 79,
      "frequency": 783.9908719634986,
      "time": 65.111046,
      "duration": 0.21018497500000421,
      "velocity": 0.8503937007874016,
      "name": "G5"
    },
    {
      "midi": 55,
      "frequency": 195.99771799087463,
      "time": 65.111046,
      "duration": 0.1046295250000071,
      "velocity": 0.7716535433070866,
      "name": "G3"
    },
    {
      "midi": 52,
      "frequency": 164.81377845643496,
      "time": 65.222157,
      "duration": 0.1046295250000071,
      "velocity": 0.7716535433070866,
      "name": "E3"
    },
    {
      "midi": 69,
      "frequency": 440,
      "time": 65.333268,
      "duration": 0.21018497499999,
      "velocity": 0.8503937007874016,
      "name": "A4"
    },
    {
      "midi": 81,
      "frequency": 880,
      "time": 65.333268,
      "duration": 0.21018497499999,
      "velocity": 0.8503937007874016,
      "name": "A5"
    },
    {
      "midi": 64,
      "frequency": 329.6275569128699,
      "time": 65.333268,
      "duration": 0.1046295250000071,
      "velocity": 0.7716535433070866,
      "name": "E4"
    },
    {
      "midi": 59,
      "frequency": 246.94165062806206,
      "time": 65.444379,
      "duration": 0.1046295250000071,
      "velocity": 0.7716535433070866,
      "name": "B3"
    },
    {
      "midi": 67,
      "frequency": 391.99543598174927,
      "time": 65.55549,
      "duration": 0.21018497499999,
      "velocity": 0.8503937007874016,
      "name": "G4"
    },
    {
      "midi": 79,
      "frequency": 783.9908719634986,
      "time": 65.55549,
      "duration": 0.21018497499999,
      "velocity": 0.8503937007874016,
      "name": "G5"
    },
    {
      "midi": 55,
      "frequency": 195.99771799087463,
      "time": 65.55549,
      "duration": 0.1046295250000071,
      "velocity": 0.7716535433070866,
      "name": "G3"
    },
    {
      "midi": 52,
      "frequency": 164.81377845643496,
      "time": 65.666601,
      "duration": 0.1046295250000071,
      "velocity": 0.7716535433070866,
      "name": "E3"
    },
    {
      "midi": 74,
      "frequency": 587.3295358348151,
      "time": 65.777712,
      "duration": 0.42129587499999843,
      "velocity": 0.8503937007874016,
      "name": "D5"
    },
    {
      "midi": 78,
      "frequency": 739.9888454232689,
      "time": 65.777712,
      "duration": 0.42129587499999843,
      "velocity": 0.8503937007874016,
      "name": "F#5"
    },
    {
      "midi": 81,
      "frequency": 880,
      "time": 65.777712,
      "duration": 0.42129587499999843,
      "velocity": 0.8503937007874016,
      "name": "A5"
    },
    {
      "midi": 86,
      "frequency": 1174.6590716696303,
      "time": 65.777712,
      "duration": 0.42129587499999843,
      "velocity": 0.8503937007874016,
      "name": "D6"
    },
    {
      "midi": 38,
      "frequency": 73.41619197935188,
      "time": 65.777712,
      "duration": 0.1046295250000071,
      "velocity": 0.7716535433070866,
      "name": "D2"
    },
    {
      "midi": 42,
      "frequency": 92.49860567790861,
      "time": 65.888823,
      "duration": 0.1046295250000071,
      "velocity": 0.7716535433070866,
      "name": "F#2"
    },
    {
      "midi": 45,
      "frequency": 110,
      "time": 65.999934,
      "duration": 0.1046295250000071,
      "velocity": 0.7716535433070866,
      "name": "A2"
    },
    {
      "midi": 50,
      "frequency": 146.8323839587038,
      "time": 66.111045,
      "duration": 0.1046295250000071,
      "velocity": 0.7716535433070866,
      "name": "D3"
    },
    {
      "midi": 72,
      "frequency": 523.2511306011972,
      "time": 66.222156,
      "duration": 0.42129587499999843,
      "velocity": 0.8503937007874016,
      "name": "C5"
    },
    {
      "midi": 78,
      "frequency": 739.9888454232689,
      "time": 66.222156,
      "duration": 0.42129587499999843,
      "velocity": 0.8503937007874016,
      "name": "F#5"
    },
    {
      "midi": 81,
      "frequency": 880,
      "time": 66.222156,
      "duration": 0.42129587499999843,
      "velocity": 0.8503937007874016,
      "name": "A5"
    },
    {
      "midi": 84,
      "frequency": 1046.5022612023945,
      "time": 66.222156,
      "duration": 0.42129587499999843,
      "velocity": 0.8503937007874016,
      "name": "C6"
    },
    {
      "midi": 57,
      "frequency": 220,
      "time": 66.222156,
      "duration": 0.21018497500000421,
      "velocity": 0.7716535433070866,
      "name": "A3"
    },
    {
      "midi": 62,
      "frequency": 293.6647679174076,
      "time": 66.222156,
      "duration": 0.21018497500000421,
      "velocity": 0.7716535433070866,
      "name": "D4"
    },
    {
      "midi": 50,
      "frequency": 146.8323839587038,
      "time": 66.444378,
      "duration": 0.21018497500000421,
      "velocity": 0.7716535433070866,
      "name": "D3"
    },
    {
      "midi": 71,
      "frequency": 493.8833012561241,
      "time": 66.6666,
      "duration": 0.3157404250000013,
      "velocity": 0.8503937007874016,
      "name": "B4"
    },
    {
      "midi": 78,
      "frequency": 739.9888454232689,
      "time": 66.6666,
      "duration": 0.3157404250000013,
      "velocity": 0.8503937007874016,
      "name": "F#5"
    },
    {
      "midi": 83,
      "frequency": 987.7666025122483,
      "time": 66.6666,
      "duration": 0.3157404250000013,
      "velocity": 0.8503937007874016,
      "name": "B5"
    },
    {
      "midi": 62,
      "frequency": 293.6647679174076,
      "time": 66.6666,
      "duration": 0.1046295250000071,
      "velocity": 0.7716535433070866,
      "name": "D4"
    },
    {
      "midi": 57,
      "frequency": 220,
      "time": 66.777711,
      "duration": 0.1046295250000071,
      "velocity": 0.7716535433070866,
      "name": "A3"
    },
    {
      "midi": 54,
      "frequency": 184.99721135581723,
      "time": 66.888822,
      "duration": 0.1046295250000071,
      "velocity": 0.7716535433070866,
      "name": "F#3"
    },
    {
      "midi": 69,
      "frequency": 440,
      "time": 66.999933,
      "duration": 0.3157404250000013,
      "velocity": 0.8503937007874016,
      "name": "A4"
    },
    {
      "midi": 81,
      "frequency": 880,
      "time": 66.999933,
      "duration": 0.3157404250000013,
      "velocity": 0.8503937007874016,
      "name": "A5"
    },
    {
      "midi": 50,
      "frequency": 146.8323839587038,
      "time": 66.999933,
      "duration": 0.1046295250000071,
      "velocity": 0.7716535433070866,
      "name": "D3"
    },
    {
      "midi": 62,
      "frequency": 293.6647679174076,
      "time": 67.111044,
      "duration": 0.1046295249999929,
      "velocity": 0.7716535433070866,
      "name": "D4"
    },
    {
      "midi": 57,
      "frequency": 220,
      "time": 67.222155,
      "duration": 0.1046295250000071,
      "velocity": 0.7716535433070866,
      "name": "A3"
    },
    {
      "midi": 67,
      "frequency": 391.99543598174927,
      "time": 67.333266,
      "duration": 0.21018497500000421,
      "velocity": 0.8503937007874016,
      "name": "G4"
    },
    {
      "midi": 79,
      "frequency": 783.9908719634986,
      "time": 67.333266,
      "duration": 0.21018497500000421,
      "velocity": 0.8503937007874016,
      "name": "G5"
    },
    {
      "midi": 54,
      "frequency": 184.99721135581723,
      "time": 67.333266,
      "duration": 0.1046295250000071,
      "velocity": 0.7716535433070866,
      "name": "F#3"
    },
    {
      "midi": 50,
      "frequency": 146.8323839587038,
      "time": 67.444377,
      "duration": 0.1046295250000071,
      "velocity": 0.7716535433070866,
      "name": "D3"
    },
    {
      "midi": 67,
      "frequency": 391.99543598174927,
      "time": 67.555488,
      "duration": 0.6324067750000069,
      "velocity": 0.8503937007874016,
      "name": "G4"
    },
    {
      "midi": 72,
      "frequency": 523.2511306011972,
      "time": 67.555488,
      "duration": 0.6324067750000069,
      "velocity": 0.8503937007874016,
      "name": "C5"
    },
    {
      "midi": 76,
      "frequency": 659.2551138257398,
      "time": 67.555488,
      "duration": 0.6324067750000069,
      "velocity": 0.8503937007874016,
      "name": "E5"
    },
    {
      "midi": 79,
      "frequency": 783.9908719634986,
      "time": 67.555488,
      "duration": 0.6324067750000069,
      "velocity": 0.8503937007874016,
      "name": "G5"
    },
    {
      "midi": 36,
      "frequency": 65.40639132514966,
      "time": 67.555488,
      "duration": 0.1046295250000071,
      "velocity": 0.7716535433070866,
      "name": "C2"
    },
    {
      "midi": 40,
      "frequency": 82.40688922821748,
      "time": 67.666599,
      "duration": 0.1046295250000071,
      "velocity": 0.7716535433070866,
      "name": "E2"
    },
    {
      "midi": 43,
      "frequency": 97.99885899543733,
      "time": 67.77771,
      "duration": 0.1046295250000071,
      "velocity": 0.7716535433070866,
      "name": "G2"
    },
    {
      "midi": 48,
      "frequency": 130.8127826502993,
      "time": 67.88882100000001,
      "duration": 0.1046295249999929,
      "velocity": 0.7716535433070866,
      "name": "C3"
    },
    {
      "midi": 55,
      "frequency": 195.99771799087463,
      "time": 67.999932,
      "duration": 0.21018497500000421,
      "velocity": 0.7716535433070866,
      "name": "G3"
    },
    {
      "midi": 60,
      "frequency": 261.6255653005986,
      "time": 67.999932,
      "duration": 0.21018497500000421,
      "velocity": 0.7716535433070866,
      "name": "C4"
    },
    {
      "midi": 67,
      "frequency": 391.99543598174927,
      "time": 68.222154,
      "duration": 0.42129587499999843,
      "velocity": 0.8503937007874016,
      "name": "G4"
    },
    {
      "midi": 79,
      "frequency": 783.9908719634986,
      "time": 68.222154,
      "duration": 0.42129587499999843,
      "velocity": 0.8503937007874016,
      "name": "G5"
    },
    {
      "midi": 48,
      "frequency": 130.8127826502993,
      "time": 68.222154,
      "duration": 0.21018497499999,
      "velocity": 0.7716535433070866,
      "name": "C3"
    },
    {
      "midi": 60,
      "frequency": 261.6255653005986,
      "time": 68.444376,
      "duration": 0.1046295250000071,
      "velocity": 0.7716535433070866,
      "name": "C4"
    },
    {
      "midi": 55,
      "frequency": 195.99771799087463,
      "time": 68.555487,
      "duration": 0.1046295250000071,
      "velocity": 0.7716535433070866,
      "name": "G3"
    },
    {
      "midi": 69,
      "frequency": 440,
      "time": 68.66659800000001,
      "duration": 0.21018497499999,
      "velocity": 0.8503937007874016,
      "name": "A4"
    },
    {
      "midi": 81,
      "frequency": 880,
      "time": 68.66659800000001,
      "duration": 0.21018497499999,
      "velocity": 0.8503937007874016,
      "name": "A5"
    },
    {
      "midi": 52,
      "frequency": 164.81377845643496,
      "time": 68.66659800000001,
      "duration": 0.1046295249999929,
      "velocity": 0.7716535433070866,
      "name": "E3"
    },
    {
      "midi": 48,
      "frequency": 130.8127826502993,
      "time": 68.777709,
      "duration": 0.1046295250000071,
      "velocity": 0.7716535433070866,
      "name": "C3"
    },
    {
      "midi": 71,
      "frequency": 493.8833012561241,
      "time": 68.88882,
      "duration": 0.21018497500000421,
      "velocity": 0.8503937007874016,
      "name": "B4"
    },
    {
      "midi": 83,
      "frequency": 987.7666025122483,
      "time": 68.88882,
      "duration": 0.21018497500000421,
      "velocity": 0.8503937007874016,
      "name": "B5"
    },
    {
      "midi": 60,
      "frequency": 261.6255653005986,
      "time": 68.88882,
      "duration": 0.1046295250000071,
      "velocity": 0.7716535433070866,
      "name": "C4"
    },
    {
      "midi": 55,
      "frequency": 195.99771799087463,
      "time": 68.999931,
      "duration": 0.1046295250000071,
      "velocity": 0.7716535433070866,
      "name": "G3"
    },
    {
      "midi": 69,
      "frequency": 440,
      "time": 69.111042,
      "duration": 0.6324067750000069,
      "velocity": 0.8503937007874016,
      "name": "A4"
    },
    {
      "midi": 75,
      "frequency": 622.2539674441618,
      "time": 69.111042,
      "duration": 0.6324067750000069,
      "velocity": 0.8503937007874016,
      "name": "D#5"
    },
    {
      "midi": 78,
      "frequency": 739.9888454232689,
      "time": 69.111042,
      "duration": 0.6324067750000069,
      "velocity": 0.8503937007874016,
      "name": "F#5"
    },
    {
      "midi": 81,
      "frequency": 880,
      "time": 69.111042,
      "duration": 0.6324067750000069,
      "velocity": 0.8503937007874016,
      "name": "A5"
    },
    {
      "midi": 52,
      "frequency": 164.81377845643496,
      "time": 69.111042,
      "duration": 0.1046295250000071,
      "velocity": 0.7716535433070866,
      "name": "E3"
    },
    {
      "midi": 48,
      "frequency": 130.8127826502993,
      "time": 69.222153,
      "duration": 0.1046295250000071,
      "velocity": 0.7716535433070866,
      "name": "C3"
    },
    {
      "midi": 35,
      "frequency": 61.7354126570155,
      "time": 69.333264,
      "duration": 0.1046295250000071,
      "velocity": 0.7716535433070866,
      "name": "B1"
    },
    {
      "midi": 39,
      "frequency": 77.78174593052022,
      "time": 69.44437500000001,
      "duration": 0.1046295249999929,
      "velocity": 0.7716535433070866,
      "name": "D#2"
    },
    {
      "midi": 42,
      "frequency": 92.49860567790861,
      "time": 69.555486,
      "duration": 0.1046295250000071,
      "velocity": 0.7716535433070866,
      "name": "F#2"
    },
    {
      "midi": 47,
      "frequency": 123.47082531403103,
      "time": 69.666597,
      "duration": 0.1046295250000071,
      "velocity": 0.7716535433070866,
      "name": "B2"
    },
    {
      "midi": 66,
      "frequency": 369.99442271163446,
      "time": 69.777708,
      "duration": 0.21018497499999,
      "velocity": 0.8503937007874016,
      "name": "F#4"
    },
    {
      "midi": 78,
      "frequency": 739.9888454232689,
      "time": 69.777708,
      "duration": 0.21018497499999,
      "velocity": 0.8503937007874016,
      "name": "F#5"
    },
    {
      "midi": 54,
      "frequency": 184.99721135581723,
      "time": 69.777708,
      "duration": 0.21018497499999,
      "velocity": 0.7716535433070866,
      "name": "F#3"
    },
    {
      "midi": 59,
      "frequency": 246.94165062806206,
      "time": 69.777708,
      "duration": 0.21018497499999,
      "velocity": 0.7716535433070866,
      "name": "B3"
    },
    {
      "midi": 69,
      "frequency": 440,
      "time": 69.99993,
      "duration": 0.4212958749999842,
      "velocity": 0.8503937007874016,
      "name": "A4"
    },
    {
      "midi": 81,
      "frequency": 880,
      "time": 69.99993,
      "duration": 0.4212958749999842,
      "velocity": 0.8503937007874016,
      "name": "A5"
    },
    {
      "midi": 47,
      "frequency": 123.47082531403103,
      "time": 69.99993,
      "duration": 0.21018497499999,
      "velocity": 0.7716535433070866,
      "name": "B2"
    },
    {
      "midi": 59,
      "frequency": 246.94165062806206,
      "time": 70.222152,
      "duration": 0.1046295250000071,
      "velocity": 0.7716535433070866,
      "name": "B3"
    },
    {
      "midi": 54,
      "frequency": 184.99721135581723,
      "time": 70.333263,
      "duration": 0.1046295250000071,
      "velocity": 0.7716535433070866,
      "name": "F#3"
    },
    {
      "midi": 71,
      "frequency": 493.8833012561241,
      "time": 70.444374,
      "duration": 0.21018497500000421,
      "velocity": 0.8503937007874016,
      "name": "B4"
    },
    {
      "midi": 83,
      "frequency": 987.7666025122483,
      "time": 70.444374,
      "duration": 0.21018497500000421,
      "velocity": 0.8503937007874016,
      "name": "B5"
    },
    {
      "midi": 51,
      "frequency": 155.56349186104043,
      "time": 70.444374,
      "duration": 0.1046295250000071,
      "velocity": 0.7716535433070866,
      "name": "D#3"
    },
    {
      "midi": 47,
      "frequency": 123.47082531403103,
      "time": 70.555485,
      "duration": 0.1046295250000071,
      "velocity": 0.7716535433070866,
      "name": "B2"
    },
    {
      "midi": 74,
      "frequency": 587.3295358348151,
      "time": 70.666596,
      "duration": 0.21018497500000421,
      "velocity": 0.8503937007874016,
      "name": "D5"
    },
    {
      "midi": 86,
      "frequency": 1174.6590716696303,
      "time": 70.666596,
      "duration": 0.21018497500000421,
      "velocity": 0.8503937007874016,
      "name": "D6"
    },
    {
      "midi": 59,
      "frequency": 246.94165062806206,
      "time": 70.666596,
      "duration": 0.1046295250000071,
      "velocity": 0.7716535433070866,
      "name": "B3"
    },
    {
      "midi": 54,
      "frequency": 184.99721135581723,
      "time": 70.777707,
      "duration": 0.1046295250000071,
      "velocity": 0.7716535433070866,
      "name": "F#3"
    },
    {
      "midi": 71,
      "frequency": 493.8833012561241,
      "time": 70.888818,
      "duration": 1.0546285749999953,
      "velocity": 0.8503937007874016,
      "name": "B4"
    },
    {
      "midi": 76,
      "frequency": 659.2551138257398,
      "time": 70.888818,
      "duration": 1.0546285749999953,
      "velocity": 0.8503937007874016,
      "name": "E5"
    },
    {
      "midi": 79,
      "frequency": 783.9908719634986,
      "time": 70.888818,
      "duration": 1.0546285749999953,
      "velocity": 0.8503937007874016,
      "name": "G5"
    },
    {
      "midi": 83,
      "frequency": 987.7666025122483,
      "time": 70.888818,
      "duration": 1.0546285749999953,
      "velocity": 0.8503937007874016,
      "name": "B5"
    },
    {
      "midi": 51,
      "frequency": 155.56349186104043,
      "time": 70.888818,
      "duration": 0.1046295250000071,
      "velocity": 0.7716535433070866,
      "name": "D#3"
    },
    {
      "midi": 47,
      "frequency": 123.47082531403103,
      "time": 70.999929,
      "duration": 0.1046295250000071,
      "velocity": 0.7716535433070866,
      "name": "B2"
    },
    {
      "midi": 40,
      "frequency": 82.40688922821748,
      "time": 71.11104,
      "duration": 0.3157404250000013,
      "velocity": 1,
      "name": "E2"
    },
    {
      "midi": 52,
      "frequency": 164.81377845643496,
      "time": 71.11104,
      "duration": 0.3157404250000013,
      "velocity": 1,
      "name": "E3"
    },
    {
      "midi": 57,
      "frequency": 220,
      "time": 71.444373,
      "duration": 0.3157404250000013,
      "velocity": 0.8503937007874016,
      "name": "A3"
    },
    {
      "midi": 62,
      "frequency": 293.6647679174076,
      "time": 71.444373,
      "duration": 0.3157404250000013,
      "velocity": 0.8503937007874016,
      "name": "D4"
    },
    {
      "midi": 38,
      "frequency": 73.41619197935188,
      "time": 71.444373,
      "duration": 0.3157404250000013,
      "velocity": 0.7716535433070866,
      "name": "D2"
    },
    {
      "midi": 50,
      "frequency": 146.8323839587038,
      "time": 71.444373,
      "duration": 0.3157404250000013,
      "velocity": 0.7716535433070866,
      "name": "D3"
    },
    {
      "midi": 59,
      "frequency": 246.94165062806206,
      "time": 71.777706,
      "duration": 0.21018497500000421,
      "velocity": 0.8503937007874016,
      "name": "B3"
    },
    {
      "midi": 64,
      "frequency": 329.6275569128699,
      "time": 71.777706,
      "duration": 0.21018497500000421,
      "velocity": 0.8503937007874016,
      "name": "E4"
    },
    {
      "midi": 40,
      "frequency": 82.40688922821748,
      "time": 71.777706,
      "duration": 0.21018497500000421,
      "velocity": 0.7716535433070866,
      "name": "E2"
    },
    {
      "midi": 52,
      "frequency": 164.81377845643496,
      "time": 71.777706,
      "duration": 0.21018497500000421,
      "velocity": 0.7716535433070866,
      "name": "E3"
    },
    {
      "midi": 59,
      "frequency": 246.94165062806206,
      "time": 72.22215,
      "duration": 0.21018497500000421,
      "velocity": 0.8503937007874016,
      "name": "B3"
    },
    {
      "midi": 38,
      "frequency": 73.41619197935188,
      "time": 72.22215,
      "duration": 0.21018497500000421,
      "velocity": 0.7716535433070866,
      "name": "D2"
    },
    {
      "midi": 50,
      "frequency": 146.8323839587038,
      "time": 72.22215,
      "duration": 0.21018497500000421,
      "velocity": 0.7716535433070866,
      "name": "D3"
    },
    {
      "midi": 64,
      "frequency": 329.6275569128699,
      "time": 72.444372,
      "duration": 0.1046295250000071,
      "velocity": 1,
      "name": "E4"
    },
    {
      "midi": 71,
      "frequency": 493.8833012561241,
      "time": 72.444372,
      "duration": 0.1046295250000071,
      "velocity": 1,
      "name": "B4"
    },
    {
      "midi": 40,
      "frequency": 82.40688922821748,
      "time": 72.444372,
      "duration": 0.21018497500000421,
      "velocity": 0.7716535433070866,
      "name": "E2"
    },
    {
      "midi": 52,
      "frequency": 164.81377845643496,
      "time": 72.444372,
      "duration": 0.21018497500000421,
      "velocity": 0.7716535433070866,
      "name": "E3"
    },
    {
      "midi": 59,
      "frequency": 246.94165062806206,
      "time": 72.555483,
      "duration": 0.1046295250000071,
      "velocity": 0.8503937007874016,
      "name": "B3"
    },
    {
      "midi": 64,
      "frequency": 329.6275569128699,
      "time": 72.666594,
      "duration": 0.1046295250000071,
      "velocity": 0.8503937007874016,
      "name": "E4"
    },
    {
      "midi": 71,
      "frequency": 493.8833012561241,
      "time": 72.666594,
      "duration": 0.1046295250000071,
      "velocity": 0.8503937007874016,
      "name": "B4"
    },
    {
      "midi": 40,
      "frequency": 82.40688922821748,
      "time": 72.666594,
      "duration": 0.21018497499999,
      "velocity": 0.7716535433070866,
      "name": "E2"
    },
    {
      "midi": 52,
      "frequency": 164.81377845643496,
      "time": 72.666594,
      "duration": 0.21018497499999,
      "velocity": 0.7716535433070866,
      "name": "E3"
    },
    {
      "midi": 59,
      "frequency": 246.94165062806206,
      "time": 72.777705,
      "duration": 0.1046295250000071,
      "velocity": 0.8503937007874016,
      "name": "B3"
    },
    {
      "midi": 62,
      "frequency": 293.6647679174076,
      "time": 72.888816,
      "duration": 0.1046295250000071,
      "velocity": 1,
      "name": "D4"
    },
    {
      "midi": 69,
      "frequency": 440,
      "time": 72.888816,
      "duration": 0.1046295250000071,
      "velocity": 1,
      "name": "A4"
    },
    {
      "midi": 40,
      "frequency": 82.40688922821748,
      "time": 72.888816,
      "duration": 0.3157404250000013,
      "velocity": 0.7716535433070866,
      "name": "E2"
    },
    {
      "midi": 52,
      "frequency": 164.81377845643496,
      "time": 72.888816,
      "duration": 0.3157404250000013,
      "velocity": 0.7716535433070866,
      "name": "E3"
    },
    {
      "midi": 57,
      "frequency": 220,
      "time": 72.999927,
      "duration": 0.1046295250000071,
      "velocity": 0.8503937007874016,
      "name": "A3"
    },
    {
      "midi": 62,
      "frequency": 293.6647679174076,
      "time": 73.11103800000001,
      "duration": 0.1046295249999929,
      "velocity": 0.8503937007874016,
      "name": "D4"
    },
    {
      "midi": 69,
      "frequency": 440,
      "time": 73.11103800000001,
      "duration": 0.1046295249999929,
      "velocity": 0.8503937007874016,
      "name": "A4"
    },
    {
      "midi": 57,
      "frequency": 220,
      "time": 73.222149,
      "duration": 0.1046295250000071,
      "velocity": 0.8503937007874016,
      "name": "A3"
    },
    {
      "midi": 38,
      "frequency": 73.41619197935188,
      "time": 73.222149,
      "duration": 0.3157404250000013,
      "velocity": 0.7716535433070866,
      "name": "D2"
    },
    {
      "midi": 50,
      "frequency": 146.8323839587038,
      "time": 73.222149,
      "duration": 0.3157404250000013,
      "velocity": 0.7716535433070866,
      "name": "D3"
    },
    {
      "midi": 62,
      "frequency": 293.6647679174076,
      "time": 73.33326,
      "duration": 0.42129587499999843,
      "velocity": 0.8503937007874016,
      "name": "D4"
    },
    {
      "midi": 67,
      "frequency": 391.99543598174927,
      "time": 73.33326,
      "duration": 0.42129587499999843,
      "velocity": 0.8503937007874016,
      "name": "G4"
    },
    {
      "midi": 74,
      "frequency": 587.3295358348151,
      "time": 73.33326,
      "duration": 0.42129587499999843,
      "velocity": 0.8503937007874016,
      "name": "D5"
    },
    {
      "midi": 40,
      "frequency": 82.40688922821748,
      "time": 73.555482,
      "duration": 0.21018497500000421,
      "velocity": 0.7716535433070866,
      "name": "E2"
    },
    {
      "midi": 52,
      "frequency": 164.81377845643496,
      "time": 73.555482,
      "duration": 0.21018497500000421,
      "velocity": 0.7716535433070866,
      "name": "E3"
    },
    {
      "midi": 62,
      "frequency": 293.6647679174076,
      "time": 73.777704,
      "duration": 0.42129587499999843,
      "velocity": 0.8503937007874016,
      "name": "D4"
    },
    {
      "midi": 67,
      "frequency": 391.99543598174927,
      "time": 73.777704,
      "duration": 0.42129587499999843,
      "velocity": 0.8503937007874016,
      "name": "G4"
    },
    {
      "midi": 74,
      "frequency": 587.3295358348151,
      "time": 73.777704,
      "duration": 0.42129587499999843,
      "velocity": 0.8503937007874016,
      "name": "D5"
    },
    {
      "midi": 38,
      "frequency": 73.41619197935188,
      "time": 73.999926,
      "duration": 0.21018497500000421,
      "velocity": 0.7716535433070866,
      "name": "D2"
    },
    {
      "midi": 50,
      "frequency": 146.8323839587038,
      "time": 73.999926,
      "duration": 0.21018497500000421,
      "velocity": 0.7716535433070866,
      "name": "D3"
    },
    {
      "midi": 71,
      "frequency": 493.8833012561241,
      "time": 74.222148,
      "duration": 0.42129587499999843,
      "velocity": 0.8503937007874016,
      "name": "B4"
    },
    {
      "midi": 76,
      "frequency": 659.2551138257398,
      "time": 74.222148,
      "duration": 0.42129587499999843,
      "velocity": 0.8503937007874016,
      "name": "E5"
    },
    {
      "midi": 83,
      "frequency": 987.7666025122483,
      "time": 74.222148,
      "duration": 0.42129587499999843,
      "velocity": 0.8503937007874016,
      "name": "B5"
    },
    {
      "midi": 40,
      "frequency": 82.40688922821748,
      "time": 74.222148,
      "duration": 0.1046295250000071,
      "velocity": 0.7716535433070866,
      "name": "E2"
    },
    {
      "midi": 52,
      "frequency": 164.81377845643496,
      "time": 74.333259,
      "duration": 0.1046295250000071,
      "velocity": 0.7716535433070866,
      "name": "E3"
    },
    {
      "midi": 40,
      "frequency": 82.40688922821748,
      "time": 74.44437,
      "duration": 0.1046295250000071,
      "velocity": 0.7716535433070866,
      "name": "E2"
    },
    {
      "midi": 52,
      "frequency": 164.81377845643496,
      "time": 74.555481,
      "duration": 0.1046295250000071,
      "velocity": 0.7716535433070866,
      "name": "E3"
    },
    {
      "midi": 69,
      "frequency": 440,
      "time": 74.666592,
      "duration": 0.21018497500000421,
      "velocity": 0.8503937007874016,
      "name": "A4"
    },
    {
      "midi": 72,
      "frequency": 523.2511306011972,
      "time": 74.666592,
      "duration": 0.21018497500000421,
      "velocity": 0.8503937007874016,
      "name": "C5"
    },
    {
      "midi": 76,
      "frequency": 659.2551138257398,
      "time": 74.666592,
      "duration": 0.21018497500000421,
      "velocity": 0.8503937007874016,
      "name": "E5"
    },
    {
      "midi": 81,
      "frequency": 880,
      "time": 74.666592,
      "duration": 0.21018497500000421,
      "velocity": 0.8503937007874016,
      "name": "A5"
    },
    {
      "midi": 36,
      "frequency": 65.40639132514966,
      "time": 74.666592,
      "duration": 0.1046295250000071,
      "velocity": 0.7716535433070866,
      "name": "C2"
    },
    {
      "midi": 40,
      "frequency": 82.40688922821748,
      "time": 74.777703,
      "duration": 0.1046295250000071,
      "velocity": 0.7716535433070866,
      "name": "E2"
    },
    {
      "midi": 71,
      "frequency": 493.8833012561241,
      "time": 74.888814,
      "duration": 0.21018497500000421,
      "velocity": 0.8503937007874016,
      "name": "B4"
    },
    {
      "midi": 83,
      "frequency": 987.7666025122483,
      "time": 74.888814,
      "duration": 0.21018497500000421,
      "velocity": 0.8503937007874016,
      "name": "B5"
    },
    {
      "midi": 43,
      "frequency": 97.99885899543733,
      "time": 74.888814,
      "duration": 0.1046295250000071,
      "velocity": 0.7716535433070866,
      "name": "G2"
    },
    {
      "midi": 48,
      "frequency": 130.8127826502993,
      "time": 74.999925,
      "duration": 0.1046295250000071,
      "velocity": 0.7716535433070866,
      "name": "C3"
    },
    {
      "midi": 74,
      "frequency": 587.3295358348151,
      "time": 75.111036,
      "duration": 0.21018497500000421,
      "velocity": 0.8503937007874016,
      "name": "D5"
    },
    {
      "midi": 86,
      "frequency": 1174.6590716696303,
      "time": 75.111036,
      "duration": 0.21018497500000421,
      "velocity": 0.8503937007874016,
      "name": "D6"
    },
    {
      "midi": 55,
      "frequency": 195.99771799087463,
      "time": 75.111036,
      "duration": 0.21018497500000421,
      "velocity": 0.7716535433070866,
      "name": "G3"
    },
    {
      "midi": 60,
      "frequency": 261.6255653005986,
      "time": 75.111036,
      "duration": 0.21018497500000421,
      "velocity": 0.7716535433070866,
      "name": "C4"
    },
    {
      "midi": 71,
      "frequency": 493.8833012561241,
      "time": 75.333258,
      "duration": 0.21018497500000421,
      "velocity": 0.8503937007874016,
      "name": "B4"
    },
    {
      "midi": 83,
      "frequency": 987.7666025122483,
      "time": 75.333258,
      "duration": 0.21018497500000421,
      "velocity": 0.8503937007874016,
      "name": "B5"
    },
    {
      "midi": 48,
      "frequency": 130.8127826502993,
      "time": 75.333258,
      "duration": 0.21018497500000421,
      "velocity": 0.7716535433070866,
      "name": "C3"
    },
    {
      "midi": 69,
      "frequency": 440,
      "time": 75.55548,
      "duration": 0.21018497499999,
      "velocity": 0.8503937007874016,
      "name": "A4"
    },
    {
      "midi": 81,
      "frequency": 880,
      "time": 75.55548,
      "duration": 0.21018497499999,
      "velocity": 0.8503937007874016,
      "name": "A5"
    },
    {
      "midi": 60,
      "frequency": 261.6255653005986,
      "time": 75.55548,
      "duration": 0.1046295250000071,
      "velocity": 0.7716535433070866,
      "name": "C4"
    },
    {
      "midi": 55,
      "frequency": 195.99771799087463,
      "time": 75.666591,
      "duration": 0.1046295250000071,
      "velocity": 0.7716535433070866,
      "name": "G3"
    },
    {
      "midi": 71,
      "frequency": 493.8833012561241,
      "time": 75.777702,
      "duration": 0.1046295250000071,
      "velocity": 0.8503937007874016,
      "name": "B4"
    },
    {
      "midi": 83,
      "frequency": 987.7666025122483,
      "time": 75.777702,
      "duration": 0.1046295250000071,
      "velocity": 0.8503937007874016,
      "name": "B5"
    },
    {
      "midi": 52,
      "frequency": 164.81377845643496,
      "time": 75.777702,
      "duration": 0.1046295250000071,
      "velocity": 0.7716535433070866,
      "name": "E3"
    },
    {
      "midi": 71,
      "frequency": 493.8833012561241,
      "time": 75.888813,
      "duration": 0.3157404250000013,
      "velocity": 0.8503937007874016,
      "name": "B4"
    },
    {
      "midi": 83,
      "frequency": 987.7666025122483,
      "time": 75.888813,
      "duration": 0.3157404250000013,
      "velocity": 0.8503937007874016,
      "name": "B5"
    },
    {
      "midi": 48,
      "frequency": 130.8127826502993,
      "time": 75.888813,
      "duration": 0.1046295250000071,
      "velocity": 0.7716535433070866,
      "name": "C3"
    },
    {
      "midi": 60,
      "frequency": 261.6255653005986,
      "time": 75.99992400000001,
      "duration": 0.1046295249999929,
      "velocity": 0.7716535433070866,
      "name": "C4"
    },
    {
      "midi": 55,
      "frequency": 195.99771799087463,
      "time": 76.111035,
      "duration": 0.1046295250000071,
      "velocity": 0.7716535433070866,
      "name": "G3"
    },
    {
      "midi": 67,
      "frequency": 391.99543598174927,
      "time": 76.222146,
      "duration": 0.21018497500000421,
      "velocity": 0.8503937007874016,
      "name": "G4"
    },
    {
      "midi": 79,
      "frequency": 783.9908719634986,
      "time": 76.222146,
      "duration": 0.21018497500000421,
      "velocity": 0.8503937007874016,
      "name": "G5"
    },
    {
      "midi": 52,
      "frequency": 164.81377845643496,
      "time": 76.222146,
      "duration": 0.1046295250000071,
      "velocity": 0.7716535433070866,
      "name": "E3"
    },
    {
      "midi": 48,
      "frequency": 130.8127826502993,
      "time": 76.333257,
      "duration": 0.1046295250000071,
      "velocity": 0.7716535433070866,
      "name": "C3"
    },
    {
      "midi": 69,
      "frequency": 440,
      "time": 76.444368,
      "duration": 0.21018497500000421,
      "velocity": 0.8503937007874016,
      "name": "A4"
    },
    {
      "midi": 74,
      "frequency": 587.3295358348151,
      "time": 76.444368,
      "duration": 0.21018497500000421,
      "velocity": 0.8503937007874016,
      "name": "D5"
    },
    {
      "midi": 78,
      "frequency": 739.9888454232689,
      "time": 76.444368,
      "duration": 0.21018497500000421,
      "velocity": 0.8503937007874016,
      "name": "F#5"
    },
    {
      "midi": 81,
      "frequency": 880,
      "time": 76.444368,
      "duration": 0.21018497500000421,
      "velocity": 0.8503937007874016,
      "name": "A5"
    },
    {
      "midi": 38,
      "frequency": 73.41619197935188,
      "time": 76.444368,
      "duration": 0.1046295250000071,
      "velocity": 0.7716535433070866,
      "name": "D2"
    },
    {
      "midi": 42,
      "frequency": 92.49860567790861,
      "time": 76.555479,
      "duration": 0.1046295250000071,
      "velocity": 0.7716535433070866,
      "name": "F#2"
    },
    {
      "midi": 71,
      "frequency": 493.8833012561241,
      "time": 76.66659,
      "duration": 0.21018497500000421,
      "velocity": 0.8503937007874016,
      "name": "B4"
    },
    {
      "midi": 83,
      "frequency": 987.7666025122483,
      "time": 76.66659,
      "duration": 0.21018497500000421,
      "velocity": 0.8503937007874016,
      "name": "B5"
    },
    {
      "midi": 45,
      "frequency": 110,
      "time": 76.66659,
      "duration": 0.1046295250000071,
      "velocity": 0.7716535433070866,
      "name": "A2"
    },
    {
      "midi": 50,
      "frequency": 146.8323839587038,
      "time": 76.77770100000001,
      "duration": 0.1046295249999929,
      "velocity": 0.7716535433070866,
      "name": "D3"
    },
    {
      "midi": 74,
      "frequency": 587.3295358348151,
      "time": 76.888812,
      "duration": 0.21018497500000421,
      "velocity": 0.8503937007874016,
      "name": "D5"
    },
    {
      "midi": 86,
      "frequency": 1174.6590716696303,
      "time": 76.888812,
      "duration": 0.21018497500000421,
      "velocity": 0.8503937007874016,
      "name": "D6"
    },
    {
      "midi": 57,
      "frequency": 220,
      "time": 76.888812,
      "duration": 0.21018497500000421,
      "velocity": 0.7716535433070866,
      "name": "A3"
    },
    {
      "midi": 62,
      "frequency": 293.6647679174076,
      "time": 76.888812,
      "duration": 0.21018497500000421,
      "velocity": 0.7716535433070866,
      "name": "D4"
    },
    {
      "midi": 71,
      "frequency": 493.8833012561241,
      "time": 77.111034,
      "duration": 0.21018497499999,
      "velocity": 0.8503937007874016,
      "name": "B4"
    },
    {
      "midi": 83,
      "frequency": 987.7666025122483,
      "time": 77.111034,
      "duration": 0.21018497499999,
      "velocity": 0.8503937007874016,
      "name": "B5"
    },
    {
      "midi": 50,
      "frequency": 146.8323839587038,
      "time": 77.111034,
      "duration": 0.21018497499999,
      "velocity": 0.7716535433070866,
      "name": "D3"
    },
    {
      "midi": 69,
      "frequency": 440,
      "time": 77.333256,
      "duration": 0.21018497499999,
      "velocity": 0.8503937007874016,
      "name": "A4"
    },
    {
      "midi": 81,
      "frequency": 880,
      "time": 77.333256,
      "duration": 0.21018497499999,
      "velocity": 0.8503937007874016,
      "name": "A5"
    },
    {
      "midi": 62,
      "frequency": 293.6647679174076,
      "time": 77.333256,
      "duration": 0.1046295250000071,
      "velocity": 0.7716535433070866,
      "name": "D4"
    },
    {
      "midi": 57,
      "frequency": 220,
      "time": 77.444367,
      "duration": 0.1046295250000071,
      "velocity": 0.7716535433070866,
      "name": "A3"
    },
    {
      "midi": 71,
      "frequency": 493.8833012561241,
      "time": 77.55547800000001,
      "duration": 0.1046295249999929,
      "velocity": 0.8503937007874016,
      "name": "B4"
    },
    {
      "midi": 83,
      "frequency": 987.7666025122483,
      "time": 77.55547800000001,
      "duration": 0.1046295249999929,
      "velocity": 0.8503937007874016,
      "name": "B5"
    },
    {
      "midi": 54,
      "frequency": 184.99721135581723,
      "time": 77.55547800000001,
      "duration": 0.1046295249999929,
      "velocity": 0.7716535433070866,
      "name": "F#3"
    },
    {
      "midi": 67,
      "frequency": 391.99543598174927,
      "time": 77.666589,
      "duration": 0.3157404250000013,
      "velocity": 0.8503937007874016,
      "name": "G4"
    },
    {
      "midi": 79,
      "frequency": 783.9908719634986,
      "time": 77.666589,
      "duration": 0.3157404250000013,
      "velocity": 0.8503937007874016,
      "name": "G5"
    },
    {
      "midi": 50,
      "frequency": 146.8323839587038,
      "time": 77.666589,
      "duration": 0.1046295250000071,
      "velocity": 0.7716535433070866,
      "name": "D3"
    },
    {
      "midi": 62,
      "frequency": 293.6647679174076,
      "time": 77.7777,
      "duration": 0.1046295250000071,
      "velocity": 0.7716535433070866,
      "name": "D4"
    },
    {
      "midi": 57,
      "frequency": 220,
      "time": 77.888811,
      "duration": 0.1046295250000071,
      "velocity": 0.7716535433070866,
      "name": "A3"
    },
    {
      "midi": 67,
      "frequency": 391.99543598174927,
      "time": 77.999922,
      "duration": 0.21018497500000421,
      "velocity": 0.8503937007874016,
      "name": "G4"
    },
    {
      "midi": 79,
      "frequency": 783.9908719634986,
      "time": 77.999922,
      "duration": 0.21018497500000421,
      "velocity": 0.8503937007874016,
      "name": "G5"
    },
    {
      "midi": 54,
      "frequency": 184.99721135581723,
      "time": 77.999922,
      "duration": 0.1046295250000071,
      "velocity": 0.7716535433070866,
      "name": "F#3"
    },
    {
      "midi": 50,
      "frequency": 146.8323839587038,
      "time": 78.111033,
      "duration": 0.1046295250000071,
      "velocity": 0.7716535433070866,
      "name": "D3"
    },
    {
      "midi": 67,
      "frequency": 391.99543598174927,
      "time": 78.222144,
      "duration": 0.42129587499999843,
      "velocity": 0.8503937007874016,
      "name": "G4"
    },
    {
      "midi": 71,
      "frequency": 493.8833012561241,
      "time": 78.222144,
      "duration": 0.42129587499999843,
      "velocity": 0.8503937007874016,
      "name": "B4"
    },
    {
      "midi": 75,
      "frequency": 622.2539674441618,
      "time": 78.222144,
      "duration": 0.42129587499999843,
      "velocity": 0.8503937007874016,
      "name": "D#5"
    },
    {
      "midi": 79,
      "frequency": 783.9908719634986,
      "time": 78.222144,
      "duration": 0.42129587499999843,
      "velocity": 0.8503937007874016,
      "name": "G5"
    },
    {
      "midi": 35,
      "frequency": 61.7354126570155,
      "time": 78.222144,
      "duration": 0.1046295250000071,
      "velocity": 0.7716535433070866,
      "name": "B1"
    },
    {
      "midi": 39,
      "frequency": 77.78174593052022,
      "time": 78.333255,
      "duration": 0.1046295250000071,
      "velocity": 0.7716535433070866,
      "name": "D#2"
    },
    {
      "midi": 42,
      "frequency": 92.49860567790861,
      "time": 78.444366,
      "duration": 0.1046295250000071,
      "velocity": 0.7716535433070866,
      "name": "F#2"
    },
    {
      "midi": 47,
      "frequency": 123.47082531403103,
      "time": 78.555477,
      "duration": 0.1046295250000071,
      "velocity": 0.7716535433070866,
      "name": "B2"
    },
    {
      "midi": 69,
      "frequency": 440,
      "time": 78.666588,
      "duration": 0.21018497499999,
      "velocity": 0.8503937007874016,
      "name": "A4"
    },
    {
      "midi": 81,
      "frequency": 880,
      "time": 78.666588,
      "duration": 0.21018497499999,
      "velocity": 0.8503937007874016,
      "name": "A5"
    },
    {
      "midi": 54,
      "frequency": 184.99721135581723,
      "time": 78.666588,
      "duration": 0.21018497499999,
      "velocity": 0.7716535433070866,
      "name": "F#3"
    },
    {
      "midi": 59,
      "frequency": 246.94165062806206,
      "time": 78.666588,
      "duration": 0.21018497499999,
      "velocity": 0.7716535433070866,
      "name": "B3"
    },
    {
      "midi": 71,
      "frequency": 493.8833012561241,
      "time": 78.88881,
      "duration": 0.4212958749999842,
      "velocity": 0.8503937007874016,
      "name": "B4"
    },
    {
      "midi": 78,
      "frequency": 739.9888454232689,
      "time": 78.88881,
      "duration": 0.4212958749999842,
      "velocity": 0.8503937007874016,
      "name": "F#5"
    },
    {
      "midi": 83,
      "frequency": 987.7666025122483,
      "time": 78.88881,
      "duration": 0.4212958749999842,
      "velocity": 0.8503937007874016,
      "name": "B5"
    },
    {
      "midi": 47,
      "frequency": 123.47082531403103,
      "time": 78.88881,
      "duration": 0.21018497499999,
      "velocity": 0.7716535433070866,
      "name": "B2"
    },
    {
      "midi": 59,
      "frequency": 246.94165062806206,
      "time": 79.111032,
      "duration": 0.1046295250000071,
      "velocity": 0.7716535433070866,
      "name": "B3"
    },
    {
      "midi": 54,
      "frequency": 184.99721135581723,
      "time": 79.222143,
      "duration": 0.1046295250000071,
      "velocity": 0.7716535433070866,
      "name": "F#3"
    },
    {
      "midi": 71,
      "frequency": 493.8833012561241,
      "time": 79.333254,
      "duration": 0.21018497500000421,
      "velocity": 0.8503937007874016,
      "name": "B4"
    },
    {
      "midi": 83,
      "frequency": 987.7666025122483,
      "time": 79.333254,
      "duration": 0.21018497500000421,
      "velocity": 0.8503937007874016,
      "name": "B5"
    },
    {
      "midi": 51,
      "frequency": 155.56349186104043,
      "time": 79.333254,
      "duration": 0.1046295250000071,
      "velocity": 0.7716535433070866,
      "name": "D#3"
    },
    {
      "midi": 47,
      "frequency": 123.47082531403103,
      "time": 79.444365,
      "duration": 0.1046295250000071,
      "velocity": 0.7716535433070866,
      "name": "B2"
    },
    {
      "midi": 79,
      "frequency": 783.9908719634986,
      "time": 79.555476,
      "duration": 0.21018497500000421,
      "velocity": 0.8503937007874016,
      "name": "G5"
    },
    {
      "midi": 91,
      "frequency": 1567.981743926997,
      "time": 79.555476,
      "duration": 0.21018497500000421,
      "velocity": 0.8503937007874016,
      "name": "G6"
    },
    {
      "midi": 59,
      "frequency": 246.94165062806206,
      "time": 79.555476,
      "duration": 0.1046295250000071,
      "velocity": 0.7716535433070866,
      "name": "B3"
    },
    {
      "midi": 54,
      "frequency": 184.99721135581723,
      "time": 79.666587,
      "duration": 0.1046295249999929,
      "velocity": 0.7716535433070866,
      "name": "F#3"
    },
    {
      "midi": 78,
      "frequency": 739.9888454232689,
      "time": 79.777698,
      "duration": 0.6324067750000069,
      "velocity": 0.8503937007874016,
      "name": "F#5"
    },
    {
      "midi": 83,
      "frequency": 987.7666025122483,
      "time": 79.777698,
      "duration": 0.6324067750000069,
      "velocity": 0.8503937007874016,
      "name": "B5"
    },
    {
      "midi": 90,
      "frequency": 1479.9776908465378,
      "time": 79.777698,
      "duration": 0.6324067750000069,
      "velocity": 0.8503937007874016,
      "name": "F#6"
    },
    {
      "midi": 51,
      "frequency": 155.56349186104043,
      "time": 79.777698,
      "duration": 0.1046295250000071,
      "velocity": 0.7716535433070866,
      "name": "D#3"
    },
    {
      "midi": 47,
      "frequency": 123.47082531403103,
      "time": 79.888809,
      "duration": 0.1046295250000071,
      "velocity": 0.7716535433070866,
      "name": "B2"
    },
    {
      "midi": 40,
      "frequency": 82.40688922821748,
      "time": 79.99992,
      "duration": 0.1046295250000071,
      "velocity": 0.7716535433070866,
      "name": "E2"
    },
    {
      "midi": 43,
      "frequency": 97.99885899543733,
      "time": 80.111031,
      "duration": 0.1046295250000071,
      "velocity": 0.7716535433070866,
      "name": "G2"
    },
    {
      "midi": 47,
      "frequency": 123.47082531403103,
      "time": 80.222142,
      "duration": 0.1046295250000071,
      "velocity": 0.7716535433070866,
      "name": "B2"
    },
    {
      "midi": 52,
      "frequency": 164.81377845643496,
      "time": 80.333253,
      "duration": 0.1046295250000071,
      "velocity": 0.7716535433070866,
      "name": "E3"
    },
    {
      "midi": 74,
      "frequency": 587.3295358348151,
      "time": 80.44436400000001,
      "duration": 0.4212958749999842,
      "velocity": 0.8503937007874016,
      "name": "D5"
    },
    {
      "midi": 83,
      "frequency": 987.7666025122483,
      "time": 80.44436400000001,
      "duration": 0.4212958749999842,
      "velocity": 0.8503937007874016,
      "name": "B5"
    },
    {
      "midi": 86,
      "frequency": 1174.6590716696303,
      "time": 80.44436400000001,
      "duration": 0.4212958749999842,
      "velocity": 0.8503937007874016,
      "name": "D6"
    },
    {
      "midi": 59,
      "frequency": 246.94165062806206,
      "time": 80.44436400000001,
      "duration": 0.21018497499999,
      "velocity": 0.7716535433070866,
      "name": "B3"
    },
    {
      "midi": 64,
      "frequency": 329.6275569128699,
      "time": 80.44436400000001,
      "duration": 0.21018497499999,
      "velocity": 0.7716535433070866,
      "name": "E4"
    },
    {
      "midi": 52,
      "frequency": 164.81377845643496,
      "time": 80.666586,
      "duration": 0.21018497500000421,
      "velocity": 0.7716535433070866,
      "name": "E3"
    },
    {
      "midi": 71,
      "frequency": 493.8833012561241,
      "time": 80.888808,
      "duration": 0.3157404250000013,
      "velocity": 0.8503937007874016,
      "name": "B4"
    },
    {
      "midi": 76,
      "frequency": 659.2551138257398,
      "time": 80.888808,
      "duration": 0.3157404250000013,
      "velocity": 0.8503937007874016,
      "name": "E5"
    },
    {
      "midi": 83,
      "frequency": 987.7666025122483,
      "time": 80.888808,
      "duration": 0.3157404250000013,
      "velocity": 0.8503937007874016,
      "name": "B5"
    },
    {
      "midi": 64,
      "frequency": 329.6275569128699,
      "time": 80.888808,
      "duration": 0.1046295250000071,
      "velocity": 0.7716535433070866,
      "name": "E4"
    },
    {
      "midi": 59,
      "frequency": 246.94165062806206,
      "time": 80.999919,
      "duration": 0.1046295250000071,
      "velocity": 0.7716535433070866,
      "name": "B3"
    },
    {
      "midi": 55,
      "frequency": 195.99771799087463,
      "time": 81.11103,
      "duration": 0.1046295250000071,
      "velocity": 0.7716535433070866,
      "name": "G3"
    },
    {
      "midi": 69,
      "frequency": 440,
      "time": 81.22214100000001,
      "duration": 0.3157404250000013,
      "velocity": 0.8503937007874016,
      "name": "A4"
    },
    {
      "midi": 76,
      "frequency": 659.2551138257398,
      "time": 81.22214100000001,
      "duration": 0.3157404250000013,
      "velocity": 0.8503937007874016,
      "name": "E5"
    },
    {
      "midi": 81,
      "frequency": 880,
      "time": 81.22214100000001,
      "duration": 0.3157404250000013,
      "velocity": 0.8503937007874016,
      "name": "A5"
    },
    {
      "midi": 52,
      "frequency": 164.81377845643496,
      "time": 81.22214100000001,
      "duration": 0.1046295249999929,
      "velocity": 0.7716535433070866,
      "name": "E3"
    },
    {
      "midi": 64,
      "frequency": 329.6275569128699,
      "time": 81.333252,
      "duration": 0.1046295250000071,
      "velocity": 0.7716535433070866,
      "name": "E4"
    },
    {
      "midi": 59,
      "frequency": 246.94165062806206,
      "time": 81.444363,
      "duration": 0.1046295250000071,
      "velocity": 0.7716535433070866,
      "name": "B3"
    },
    {
      "midi": 67,
      "frequency": 391.99543598174927,
      "time": 81.555474,
      "duration": 0.21018497499999,
      "velocity": 0.8503937007874016,
      "name": "G4"
    },
    {
      "midi": 79,
      "frequency": 783.9908719634986,
      "time": 81.555474,
      "duration": 0.21018497499999,
      "velocity": 0.8503937007874016,
      "name": "G5"
    },
    {
      "midi": 55,
      "frequency": 195.99771799087463,
      "time": 81.555474,
      "duration": 0.1046295250000071,
      "velocity": 0.7716535433070866,
      "name": "G3"
    },
    {
      "midi": 52,
      "frequency": 164.81377845643496,
      "time": 81.666585,
      "duration": 0.1046295250000071,
      "velocity": 0.7716535433070866,
      "name": "E3"
    },
    {
      "midi": 67,
      "frequency": 391.99543598174927,
      "time": 81.777696,
      "duration": 0.6324067750000069,
      "velocity": 0.8503937007874016,
      "name": "G4"
    },
    {
      "midi": 72,
      "frequency": 523.2511306011972,
      "time": 81.777696,
      "duration": 0.6324067750000069,
      "velocity": 0.8503937007874016,
      "name": "C5"
    },
    {
      "midi": 76,
      "frequency": 659.2551138257398,
      "time": 81.777696,
      "duration": 0.6324067750000069,
      "velocity": 0.8503937007874016,
      "name": "E5"
    },
    {
      "midi": 79,
      "frequency": 783.9908719634986,
      "time": 81.777696,
      "duration": 0.6324067750000069,
      "velocity": 0.8503937007874016,
      "name": "G5"
    },
    {
      "midi": 36,
      "frequency": 65.40639132514966,
      "time": 81.777696,
      "duration": 0.1046295250000071,
      "velocity": 0.7716535433070866,
      "name": "C2"
    },
    {
      "midi": 40,
      "frequency": 82.40688922821748,
      "time": 81.888807,
      "duration": 0.1046295250000071,
      "velocity": 0.7637795275590551,
      "name": "E2"
    },
    {
      "midi": 43,
      "frequency": 97.99885899543733,
      "time": 81.99991800000001,
      "duration": 0.1046295249999929,
      "velocity": 0.7559055118110236,
      "name": "G2"
    },
    {
      "midi": 48,
      "frequency": 130.8127826502993,
      "time": 82.111029,
      "duration": 0.1046295250000071,
      "velocity": 0.7480314960629921,
      "name": "C3"
    },
    {
      "midi": 55,
      "frequency": 195.99771799087463,
      "time": 82.22214,
      "duration": 0.21018497500000421,
      "velocity": 0.7401574803149606,
      "name": "G3"
    },
    {
      "midi": 60,
      "frequency": 261.6255653005986,
      "time": 82.22214,
      "duration": 0.21018497500000421,
      "velocity": 0.7401574803149606,
      "name": "C4"
    },
    {
      "midi": 67,
      "frequency": 391.99543598174927,
      "time": 82.444362,
      "duration": 0.42129587499999843,
      "velocity": 0.8503937007874016,
      "name": "G4"
    },
    {
      "midi": 79,
      "frequency": 783.9908719634986,
      "time": 82.444362,
      "duration": 0.42129587499999843,
      "velocity": 0.8503937007874016,
      "name": "G5"
    },
    {
      "midi": 48,
      "frequency": 130.8127826502993,
      "time": 82.444362,
      "duration": 0.21018497500000421,
      "velocity": 0.7244094488188977,
      "name": "C3"
    },
    {
      "midi": 60,
      "frequency": 261.6255653005986,
      "time": 82.666584,
      "duration": 0.1046295250000071,
      "velocity": 0.7086614173228346,
      "name": "C4"
    },
    {
      "midi": 55,
      "frequency": 195.99771799087463,
      "time": 82.777695,
      "duration": 0.1046295250000071,
      "velocity": 0.7007874015748031,
      "name": "G3"
    },
    {
      "midi": 69,
      "frequency": 440,
      "time": 82.888806,
      "duration": 0.21018497499999,
      "velocity": 0.8503937007874016,
      "name": "A4"
    },
    {
      "midi": 81,
      "frequency": 880,
      "time": 82.888806,
      "duration": 0.21018497499999,
      "velocity": 0.8503937007874016,
      "name": "A5"
    },
    {
      "midi": 52,
      "frequency": 164.81377845643496,
      "time": 82.888806,
      "duration": 0.1046295250000071,
      "velocity": 0.6929133858267716,
      "name": "E3"
    },
    {
      "midi": 48,
      "frequency": 130.8127826502993,
      "time": 82.999917,
      "duration": 0.1046295250000071,
      "velocity": 0.6850393700787402,
      "name": "C3"
    },
    {
      "midi": 71,
      "frequency": 493.8833012561241,
      "time": 83.111028,
      "duration": 0.21018497499999,
      "velocity": 0.8503937007874016,
      "name": "B4"
    },
    {
      "midi": 83,
      "frequency": 987.7666025122483,
      "time": 83.111028,
      "duration": 0.21018497499999,
      "velocity": 0.8503937007874016,
      "name": "B5"
    },
    {
      "midi": 60,
      "frequency": 261.6255653005986,
      "time": 83.111028,
      "duration": 0.1046295250000071,
      "velocity": 0.6771653543307087,
      "name": "C4"
    },
    {
      "midi": 55,
      "frequency": 195.99771799087463,
      "time": 83.222139,
      "duration": 0.1046295250000071,
      "velocity": 0.6692913385826772,
      "name": "G3"
    },
    {
      "midi": 69,
      "frequency": 440,
      "time": 83.33325,
      "duration": 0.6324067750000069,
      "velocity": 0.8503937007874016,
      "name": "A4"
    },
    {
      "midi": 81,
      "frequency": 880,
      "time": 83.33325,
      "duration": 0.6324067750000069,
      "velocity": 0.8503937007874016,
      "name": "A5"
    },
    {
      "midi": 52,
      "frequency": 164.81377845643496,
      "time": 83.33325,
      "duration": 0.1046295250000071,
      "velocity": 0.6614173228346457,
      "name": "E3"
    },
    {
      "midi": 48,
      "frequency": 130.8127826502993,
      "time": 83.444361,
      "duration": 0.1046295250000071,
      "velocity": 0.6535433070866141,
      "name": "C3"
    },
    {
      "midi": 50,
      "frequency": 146.8323839587038,
      "time": 83.555472,
      "duration": 0.42129587499999843,
      "velocity": 0.6456692913385826,
      "name": "D3"
    },
    {
      "midi": 57,
      "frequency": 220,
      "time": 83.555472,
      "duration": 0.42129587499999843,
      "velocity": 0.6456692913385826,
      "name": "A3"
    },
    {
      "midi": 62,
      "frequency": 293.6647679174076,
      "time": 83.555472,
      "duration": 0.42129587499999843,
      "velocity": 0.6456692913385826,
      "name": "D4"
    },
    {
      "midi": 57,
      "frequency": 220,
      "time": 84.222138,
      "duration": 0.21018497500000421,
      "velocity": 0.7244094488188977,
      "name": "A3"
    },
    {
      "midi": 62,
      "frequency": 293.6647679174076,
      "time": 84.222138,
      "duration": 0.21018497500000421,
      "velocity": 0.7244094488188977,
      "name": "D4"
    },
    {
      "midi": 57,
      "frequency": 220,
      "time": 84.44436,
      "duration": 0.42129587499999843,
      "velocity": 0.7244094488188977,
      "name": "A3"
    },
    {
      "midi": 62,
      "frequency": 293.6647679174076,
      "time": 84.44436,
      "duration": 0.42129587499999843,
      "velocity": 0.7244094488188977,
      "name": "D4"
    },
    {
      "midi": 59,
      "frequency": 246.94165062806206,
      "time": 84.88880400000001,
      "duration": 1.2657394749999895,
      "velocity": 0.7244094488188977,
      "name": "B3"
    },
    {
      "midi": 64,
      "frequency": 329.6275569128699,
      "time": 84.88880400000001,
      "duration": 1.2657394749999895,
      "velocity": 0.7244094488188977,
      "name": "E4"
    },
    {
      "midi": 40,
      "frequency": 82.40688922821748,
      "time": 85.333248,
      "duration": 0.3157404250000013,
      "velocity": 0.7716535433070866,
      "name": "E2"
    },
    {
      "midi": 52,
      "frequency": 164.81377845643496,
      "time": 85.333248,
      "duration": 0.3157404250000013,
      "velocity": 0.7716535433070866,
      "name": "E3"
    },
    {
      "midi": 38,
      "frequency": 73.41619197935188,
      "time": 85.66658100000001,
      "duration": 0.3157404250000013,
      "velocity": 0.7716535433070866,
      "name": "D2"
    },
    {
      "midi": 50,
      "frequency": 146.8323839587038,
      "time": 85.66658100000001,
      "duration": 0.3157404250000013,
      "velocity": 0.7716535433070866,
      "name": "D3"
    },
    {
      "midi": 40,
      "frequency": 82.40688922821748,
      "time": 85.999914,
      "duration": 0.21018497499999,
      "velocity": 0.7716535433070866,
      "name": "E2"
    },
    {
      "midi": 52,
      "frequency": 164.81377845643496,
      "time": 85.999914,
      "duration": 0.21018497499999,
      "velocity": 0.7716535433070866,
      "name": "E3"
    },
    {
      "midi": 38,
      "frequency": 73.41619197935188,
      "time": 86.444358,
      "duration": 0.21018497500000421,
      "velocity": 0.7716535433070866,
      "name": "D2"
    },
    {
      "midi": 50,
      "frequency": 146.8323839587038,
      "time": 86.444358,
      "duration": 0.21018497500000421,
      "velocity": 0.7716535433070866,
      "name": "D3"
    },
    {
      "midi": 64,
      "frequency": 329.6275569128699,
      "time": 86.66658,
      "duration": 0.1046295250000071,
      "velocity": 1,
      "name": "E4"
    },
    {
      "midi": 71,
      "frequency": 493.8833012561241,
      "time": 86.66658,
      "duration": 0.1046295250000071,
      "velocity": 1,
      "name": "B4"
    },
    {
      "midi": 40,
      "frequency": 82.40688922821748,
      "time": 86.66658,
      "duration": 0.21018497500000421,
      "velocity": 0.7716535433070866,
      "name": "E2"
    },
    {
      "midi": 52,
      "frequency": 164.81377845643496,
      "time": 86.66658,
      "duration": 0.21018497500000421,
      "velocity": 0.7716535433070866,
      "name": "E3"
    },
    {
      "midi": 59,
      "frequency": 246.94165062806206,
      "time": 86.777691,
      "duration": 0.1046295250000071,
      "velocity": 0.7244094488188977,
      "name": "B3"
    },
    {
      "midi": 64,
      "frequency": 329.6275569128699,
      "time": 86.888802,
      "duration": 0.1046295250000071,
      "velocity": 0.7244094488188977,
      "name": "E4"
    },
    {
      "midi": 71,
      "frequency": 493.8833012561241,
      "time": 86.888802,
      "duration": 0.1046295250000071,
      "velocity": 0.7244094488188977,
      "name": "B4"
    },
    {
      "midi": 40,
      "frequency": 82.40688922821748,
      "time": 86.888802,
      "duration": 0.21018497500000421,
      "velocity": 0.7716535433070866,
      "name": "E2"
    },
    {
      "midi": 52,
      "frequency": 164.81377845643496,
      "time": 86.888802,
      "duration": 0.21018497500000421,
      "velocity": 0.7716535433070866,
      "name": "E3"
    },
    {
      "midi": 59,
      "frequency": 246.94165062806206,
      "time": 86.999913,
      "duration": 0.1046295250000071,
      "velocity": 0.7244094488188977,
      "name": "B3"
    },
    {
      "midi": 59,
      "frequency": 246.94165062806206,
      "time": 87.111024,
      "duration": 0.3157404250000013,
      "velocity": 0.7244094488188977,
      "name": "B3"
    },
    {
      "midi": 64,
      "frequency": 329.6275569128699,
      "time": 87.111024,
      "duration": 0.3157404250000013,
      "velocity": 0.7244094488188977,
      "name": "E4"
    },
    {
      "midi": 40,
      "frequency": 82.40688922821748,
      "time": 87.111024,
      "duration": 0.3157404250000013,
      "velocity": 0.7716535433070866,
      "name": "E2"
    },
    {
      "midi": 52,
      "frequency": 164.81377845643496,
      "time": 87.111024,
      "duration": 0.3157404250000013,
      "velocity": 0.7716535433070866,
      "name": "E3"
    },
    {
      "midi": 57,
      "frequency": 220,
      "time": 87.444357,
      "duration": 0.3157404250000013,
      "velocity": 0.7244094488188977,
      "name": "A3"
    },
    {
      "midi": 62,
      "frequency": 293.6647679174076,
      "time": 87.444357,
      "duration": 0.3157404250000013,
      "velocity": 0.7244094488188977,
      "name": "D4"
    },
    {
      "midi": 38,
      "frequency": 73.41619197935188,
      "time": 87.444357,
      "duration": 0.3157404250000013,
      "velocity": 0.7716535433070866,
      "name": "D2"
    },
    {
      "midi": 50,
      "frequency": 146.8323839587038,
      "time": 87.444357,
      "duration": 0.3157404250000013,
      "velocity": 0.7716535433070866,
      "name": "D3"
    },
    {
      "midi": 59,
      "frequency": 246.94165062806206,
      "time": 87.77769,
      "duration": 0.21018497499999,
      "velocity": 0.7244094488188977,
      "name": "B3"
    },
    {
      "midi": 64,
      "frequency": 329.6275569128699,
      "time": 87.77769,
      "duration": 0.21018497499999,
      "velocity": 0.7244094488188977,
      "name": "E4"
    },
    {
      "midi": 40,
      "frequency": 82.40688922821748,
      "time": 87.77769,
      "duration": 0.21018497499999,
      "velocity": 0.7716535433070866,
      "name": "E2"
    },
    {
      "midi": 52,
      "frequency": 164.81377845643496,
      "time": 87.77769,
      "duration": 0.21018497499999,
      "velocity": 0.7716535433070866,
      "name": "E3"
    },
    {
      "midi": 59,
      "frequency": 246.94165062806206,
      "time": 88.222134,
      "duration": 0.21018497500000421,
      "velocity": 0.7244094488188977,
      "name": "B3"
    },
    {
      "midi": 38,
      "frequency": 73.41619197935188,
      "time": 88.222134,
      "duration": 0.21018497500000421,
      "velocity": 0.7716535433070866,
      "name": "D2"
    },
    {
      "midi": 50,
      "frequency": 146.8323839587038,
      "time": 88.222134,
      "duration": 0.21018497500000421,
      "velocity": 0.7716535433070866,
      "name": "D3"
    },
    {
      "midi": 64,
      "frequency": 329.6275569128699,
      "time": 88.444356,
      "duration": 0.1046295250000071,
      "velocity": 1,
      "name": "E4"
    },
    {
      "midi": 71,
      "frequency": 493.8833012561241,
      "time": 88.444356,
      "duration": 0.1046295250000071,
      "velocity": 1,
      "name": "B4"
    },
    {
      "midi": 40,
      "frequency": 82.40688922821748,
      "time": 88.444356,
      "duration": 0.21018497500000421,
      "velocity": 0.7716535433070866,
      "name": "E2"
    },
    {
      "midi": 52,
      "frequency": 164.81377845643496,
      "time": 88.444356,
      "duration": 0.21018497500000421,
      "velocity": 0.7716535433070866,
      "name": "E3"
    },
    {
      "midi": 59,
      "frequency": 246.94165062806206,
      "time": 88.55546700000001,
      "duration": 0.1046295249999929,
      "velocity": 0.7244094488188977,
      "name": "B3"
    },
    {
      "midi": 64,
      "frequency": 329.6275569128699,
      "time": 88.666578,
      "duration": 0.1046295250000071,
      "velocity": 0.7244094488188977,
      "name": "E4"
    },
    {
      "midi": 71,
      "frequency": 493.8833012561241,
      "time": 88.666578,
      "duration": 0.1046295250000071,
      "velocity": 0.7244094488188977,
      "name": "B4"
    },
    {
      "midi": 40,
      "frequency": 82.40688922821748,
      "time": 88.666578,
      "duration": 0.21018497500000421,
      "velocity": 0.7716535433070866,
      "name": "E2"
    },
    {
      "midi": 52,
      "frequency": 164.81377845643496,
      "time": 88.666578,
      "duration": 0.21018497500000421,
      "velocity": 0.7716535433070866,
      "name": "E3"
    },
    {
      "midi": 59,
      "frequency": 246.94165062806206,
      "time": 88.777689,
      "duration": 0.1046295250000071,
      "velocity": 0.7244094488188977,
      "name": "B3"
    },
    {
      "midi": 59,
      "frequency": 246.94165062806206,
      "time": 88.8888,
      "duration": 0.3157404250000013,
      "velocity": 0.7244094488188977,
      "name": "B3"
    },
    {
      "midi": 64,
      "frequency": 329.6275569128699,
      "time": 88.8888,
      "duration": 0.3157404250000013,
      "velocity": 0.7244094488188977,
      "name": "E4"
    },
    {
      "midi": 40,
      "frequency": 82.40688922821748,
      "time": 88.8888,
      "duration": 0.3157404250000013,
      "velocity": 0.7716535433070866,
      "name": "E2"
    },
    {
      "midi": 52,
      "frequency": 164.81377845643496,
      "time": 88.8888,
      "duration": 0.3157404250000013,
      "velocity": 0.7716535433070866,
      "name": "E3"
    },
    {
      "midi": 57,
      "frequency": 220,
      "time": 89.222133,
      "duration": 0.3157404250000013,
      "velocity": 0.7244094488188977,
      "name": "A3"
    },
    {
      "midi": 62,
      "frequency": 293.6647679174076,
      "time": 89.222133,
      "duration": 0.3157404250000013,
      "velocity": 0.7244094488188977,
      "name": "D4"
    },
    {
      "midi": 38,
      "frequency": 73.41619197935188,
      "time": 89.222133,
      "duration": 0.3157404250000013,
      "velocity": 0.7716535433070866,
      "name": "D2"
    },
    {
      "midi": 50,
      "frequency": 146.8323839587038,
      "time": 89.222133,
      "duration": 0.3157404250000013,
      "velocity": 0.7716535433070866,
      "name": "D3"
    },
    {
      "midi": 59,
      "frequency": 246.94165062806206,
      "time": 89.555466,
      "duration": 0.21018497500000421,
      "velocity": 0.7244094488188977,
      "name": "B3"
    },
    {
      "midi": 64,
      "frequency": 329.6275569128699,
      "time": 89.555466,
      "duration": 0.21018497500000421,
      "velocity": 0.7244094488188977,
      "name": "E4"
    },
    {
      "midi": 40,
      "frequency": 82.40688922821748,
      "time": 89.555466,
      "duration": 0.21018497500000421,
      "velocity": 0.7716535433070866,
      "name": "E2"
    },
    {
      "midi": 52,
      "frequency": 164.81377845643496,
      "time": 89.555466,
      "duration": 0.21018497500000421,
      "velocity": 0.7716535433070866,
      "name": "E3"
    },
    {
      "midi": 59,
      "frequency": 246.94165062806206,
      "time": 89.99991,
      "duration": 0.21018497500000421,
      "velocity": 0.7244094488188977,
      "name": "B3"
    },
    {
      "midi": 38,
      "frequency": 73.41619197935188,
      "time": 89.99991,
      "duration": 0.21018497500000421,
      "velocity": 0.7716535433070866,
      "name": "D2"
    },
    {
      "midi": 50,
      "frequency": 146.8323839587038,
      "time": 89.99991,
      "duration": 0.21018497500000421,
      "velocity": 0.7716535433070866,
      "name": "D3"
    },
    {
      "midi": 64,
      "frequency": 329.6275569128699,
      "time": 90.222132,
      "duration": 0.1046295250000071,
      "velocity": 1,
      "name": "E4"
    },
    {
      "midi": 71,
      "frequency": 493.8833012561241,
      "time": 90.222132,
      "duration": 0.1046295250000071,
      "velocity": 1,
      "name": "B4"
    },
    {
      "midi": 40,
      "frequency": 82.40688922821748,
      "time": 90.222132,
      "duration": 0.21018497500000421,
      "velocity": 0.7716535433070866,
      "name": "E2"
    },
    {
      "midi": 52,
      "frequency": 164.81377845643496,
      "time": 90.222132,
      "duration": 0.21018497500000421,
      "velocity": 0.7716535433070866,
      "name": "E3"
    },
    {
      "midi": 59,
      "frequency": 246.94165062806206,
      "time": 90.333243,
      "duration": 0.1046295250000071,
      "velocity": 0.7244094488188977,
      "name": "B3"
    },
    {
      "midi": 64,
      "frequency": 329.6275569128699,
      "time": 90.444354,
      "duration": 0.1046295250000071,
      "velocity": 0.7244094488188977,
      "name": "E4"
    },
    {
      "midi": 71,
      "frequency": 493.8833012561241,
      "time": 90.444354,
      "duration": 0.1046295250000071,
      "velocity": 0.7244094488188977,
      "name": "B4"
    },
    {
      "midi": 40,
      "frequency": 82.40688922821748,
      "time": 90.444354,
      "duration": 0.21018497499999,
      "velocity": 0.7716535433070866,
      "name": "E2"
    },
    {
      "midi": 52,
      "frequency": 164.81377845643496,
      "time": 90.444354,
      "duration": 0.21018497499999,
      "velocity": 0.7716535433070866,
      "name": "E3"
    },
    {
      "midi": 59,
      "frequency": 246.94165062806206,
      "time": 90.555465,
      "duration": 0.1046295250000071,
      "velocity": 0.7244094488188977,
      "name": "B3"
    },
    {
      "midi": 59,
      "frequency": 246.94165062806206,
      "time": 90.666576,
      "duration": 0.3157404250000013,
      "velocity": 0.7244094488188977,
      "name": "B3"
    },
    {
      "midi": 64,
      "frequency": 329.6275569128699,
      "time": 90.666576,
      "duration": 0.3157404250000013,
      "velocity": 0.7244094488188977,
      "name": "E4"
    },
    {
      "midi": 40,
      "frequency": 82.40688922821748,
      "time": 90.666576,
      "duration": 0.3157404250000013,
      "velocity": 0.7716535433070866,
      "name": "E2"
    },
    {
      "midi": 52,
      "frequency": 164.81377845643496,
      "time": 90.666576,
      "duration": 0.3157404250000013,
      "velocity": 0.7716535433070866,
      "name": "E3"
    },
    {
      "midi": 57,
      "frequency": 220,
      "time": 90.999909,
      "duration": 0.3157404250000013,
      "velocity": 0.7244094488188977,
      "name": "A3"
    },
    {
      "midi": 62,
      "frequency": 293.6647679174076,
      "time": 90.999909,
      "duration": 0.3157404250000013,
      "velocity": 0.7244094488188977,
      "name": "D4"
    },
    {
      "midi": 38,
      "frequency": 73.41619197935188,
      "time": 90.999909,
      "duration": 0.3157404250000013,
      "velocity": 0.7716535433070866,
      "name": "D2"
    },
    {
      "midi": 50,
      "frequency": 146.8323839587038,
      "time": 90.999909,
      "duration": 0.3157404250000013,
      "velocity": 0.7716535433070866,
      "name": "D3"
    },
    {
      "midi": 59,
      "frequency": 246.94165062806206,
      "time": 91.333242,
      "duration": 0.21018497500000421,
      "velocity": 0.7244094488188977,
      "name": "B3"
    },
    {
      "midi": 64,
      "frequency": 329.6275569128699,
      "time": 91.333242,
      "duration": 0.21018497500000421,
      "velocity": 0.7244094488188977,
      "name": "E4"
    },
    {
      "midi": 40,
      "frequency": 82.40688922821748,
      "time": 91.333242,
      "duration": 0.21018497500000421,
      "velocity": 0.7716535433070866,
      "name": "E2"
    },
    {
      "midi": 52,
      "frequency": 164.81377845643496,
      "time": 91.333242,
      "duration": 0.21018497500000421,
      "velocity": 0.7716535433070866,
      "name": "E3"
    },
    {
      "midi": 59,
      "frequency": 246.94165062806206,
      "time": 91.777686,
      "duration": 0.21018497499999,
      "velocity": 0.7244094488188977,
      "name": "B3"
    },
    {
      "midi": 38,
      "frequency": 73.41619197935188,
      "time": 91.777686,
      "duration": 0.21018497499999,
      "velocity": 0.7716535433070866,
      "name": "D2"
    },
    {
      "midi": 50,
      "frequency": 146.8323839587038,
      "time": 91.777686,
      "duration": 0.21018497499999,
      "velocity": 0.7716535433070866,
      "name": "D3"
    },
    {
      "midi": 62,
      "frequency": 293.6647679174076,
      "time": 91.999908,
      "duration": 0.1046295250000071,
      "velocity": 1,
      "name": "D4"
    },
    {
      "midi": 69,
      "frequency": 440,
      "time": 91.999908,
      "duration": 0.1046295250000071,
      "velocity": 1,
      "name": "A4"
    },
    {
      "midi": 38,
      "frequency": 73.41619197935188,
      "time": 91.999908,
      "duration": 0.21018497499999,
      "velocity": 0.7716535433070866,
      "name": "D2"
    },
    {
      "midi": 50,
      "frequency": 146.8323839587038,
      "time": 91.999908,
      "duration": 0.21018497499999,
      "velocity": 0.7716535433070866,
      "name": "D3"
    },
    {
      "midi": 57,
      "frequency": 220,
      "time": 92.111019,
      "duration": 0.1046295250000071,
      "velocity": 0.7244094488188977,
      "name": "A3"
    },
    {
      "midi": 62,
      "frequency": 293.6647679174076,
      "time": 92.22213,
      "duration": 0.1046295250000071,
      "velocity": 0.7244094488188977,
      "name": "D4"
    },
    {
      "midi": 69,
      "frequency": 440,
      "time": 92.22213,
      "duration": 0.1046295250000071,
      "velocity": 0.7244094488188977,
      "name": "A4"
    },
    {
      "midi": 38,
      "frequency": 73.41619197935188,
      "time": 92.22213,
      "duration": 0.21018497499999,
      "velocity": 0.7716535433070866,
      "name": "D2"
    },
    {
      "midi": 50,
      "frequency": 146.8323839587038,
      "time": 92.22213,
      "duration": 0.21018497499999,
      "velocity": 0.7716535433070866,
      "name": "D3"
    },
    {
      "midi": 57,
      "frequency": 220,
      "time": 92.333241,
      "duration": 0.1046295250000071,
      "velocity": 0.7244094488188977,
      "name": "A3"
    },
    {
      "midi": 76,
      "frequency": 659.2551138257398,
      "time": 92.444352,
      "duration": 0.31574042500001553,
      "velocity": 0.7244094488188977,
      "name": "E5"
    },
    {
      "midi": 67,
      "frequency": 391.99543598174927,
      "time": 92.444352,
      "duration": 0.8435176750000153,
      "velocity": 0.7244094488188977,
      "name": "G4"
    },
    {
      "midi": 71,
      "frequency": 493.8833012561241,
      "time": 92.444352,
      "duration": 0.8435176750000153,
      "velocity": 0.7244094488188977,
      "name": "B4"
    },
    {
      "midi": 40,
      "frequency": 82.40688922821748,
      "time": 92.444352,
      "duration": 0.31574042500001553,
      "velocity": 0.6456692913385826,
      "name": "E2"
    },
    {
      "midi": 52,
      "frequency": 164.81377845643496,
      "time": 92.444352,
      "duration": 0.31574042500001553,
      "velocity": 0.6456692913385826,
      "name": "E3"
    },
    {
      "midi": 79,
      "frequency": 783.9908719634986,
      "time": 92.777685,
      "duration": 0.3157404250000013,
      "velocity": 0.7244094488188977,
      "name": "G5"
    },
    {
      "midi": 52,
      "frequency": 164.81377845643496,
      "time": 92.777685,
      "duration": 0.3157404250000013,
      "velocity": 0.6456692913385826,
      "name": "E3"
    },
    {
      "midi": 78,
      "frequency": 739.9888454232689,
      "time": 93.111018,
      "duration": 0.42129587499999843,
      "velocity": 0.7244094488188977,
      "name": "F#5"
    },
    {
      "midi": 59,
      "frequency": 246.94165062806206,
      "time": 93.111018,
      "duration": 0.6324067750000069,
      "velocity": 0.6456692913385826,
      "name": "B3"
    },
    {
      "midi": 64,
      "frequency": 329.6275569128699,
      "time": 93.111018,
      "duration": 0.6324067750000069,
      "velocity": 0.6456692913385826,
      "name": "E4"
    },
    {
      "midi": 74,
      "frequency": 587.3295358348151,
      "time": 93.555462,
      "duration": 0.21018497499999,
      "velocity": 0.7244094488188977,
      "name": "D5"
    },
    {
      "midi": 76,
      "frequency": 659.2551138257398,
      "time": 93.77768400000001,
      "duration": 0.21018497499999,
      "velocity": 0.7244094488188977,
      "name": "E5"
    },
    {
      "midi": 52,
      "frequency": 164.81377845643496,
      "time": 93.77768400000001,
      "duration": 0.21018497499999,
      "velocity": 0.6456692913385826,
      "name": "E3"
    },
    {
      "midi": 66,
      "frequency": 369.99442271163446,
      "time": 93.999906,
      "duration": 1.0546285750000095,
      "velocity": 0.7244094488188977,
      "name": "F#4"
    },
    {
      "midi": 69,
      "frequency": 440,
      "time": 93.999906,
      "duration": 1.0546285750000095,
      "velocity": 0.7244094488188977,
      "name": "A4"
    },
    {
      "midi": 74,
      "frequency": 587.3295358348151,
      "time": 93.999906,
      "duration": 1.0546285750000095,
      "velocity": 0.7244094488188977,
      "name": "D5"
    },
    {
      "midi": 59,
      "frequency": 246.94165062806206,
      "time": 93.999906,
      "duration": 0.21018497500000421,
      "velocity": 0.6456692913385826,
      "name": "B3"
    },
    {
      "midi": 64,
      "frequency": 329.6275569128699,
      "time": 93.999906,
      "duration": 0.21018497500000421,
      "velocity": 0.6456692913385826,
      "name": "E4"
    },
    {
      "midi": 38,
      "frequency": 73.41619197935188,
      "time": 94.222128,
      "duration": 0.3157404250000013,
      "velocity": 0.6456692913385826,
      "name": "D2"
    },
    {
      "midi": 50,
      "frequency": 146.8323839587038,
      "time": 94.222128,
      "duration": 0.3157404250000013,
      "velocity": 0.6456692913385826,
      "name": "D3"
    },
    {
      "midi": 57,
      "frequency": 220,
      "time": 94.55546100000001,
      "duration": 0.3157404250000013,
      "velocity": 0.6456692913385826,
      "name": "A3"
    },
    {
      "midi": 57,
      "frequency": 220,
      "time": 94.888794,
      "duration": 0.6324067750000069,
      "velocity": 0.6456692913385826,
      "name": "A3"
    },
    {
      "midi": 62,
      "frequency": 293.6647679174076,
      "time": 94.888794,
      "duration": 0.6324067750000069,
      "velocity": 0.6456692913385826,
      "name": "D4"
    },
    {
      "midi": 67,
      "frequency": 391.99543598174927,
      "time": 94.888794,
      "duration": 0.5555549999999982,
      "velocity": 0.6456692913385826,
      "name": "G4"
    },
    {
      "midi": 64,
      "frequency": 329.6275569128699,
      "time": 95.111016,
      "duration": 0.21018497499999,
      "velocity": 0.7244094488188977,
      "name": "E4"
    },
    {
      "midi": 69,
      "frequency": 440,
      "time": 95.111016,
      "duration": 0.21018497499999,
      "velocity": 0.7244094488188977,
      "name": "A4"
    },
    {
      "midi": 64,
      "frequency": 329.6275569128699,
      "time": 95.333238,
      "duration": 0.1046295250000071,
      "velocity": 0.7244094488188977,
      "name": "E4"
    },
    {
      "midi": 69,
      "frequency": 440,
      "time": 95.333238,
      "duration": 0.1046295250000071,
      "velocity": 0.7244094488188977,
      "name": "A4"
    },
    {
      "midi": 67,
      "frequency": 391.99543598174927,
      "time": 95.444349,
      "duration": 0.1046295250000071,
      "velocity": 0.7244094488188977,
      "name": "G4"
    },
    {
      "midi": 64,
      "frequency": 329.6275569128699,
      "time": 95.55546,
      "duration": 0.21018497500000421,
      "velocity": 0.7244094488188977,
      "name": "E4"
    },
    {
      "midi": 69,
      "frequency": 440,
      "time": 95.55546,
      "duration": 0.21018497500000421,
      "velocity": 0.7244094488188977,
      "name": "A4"
    },
    {
      "midi": 50,
      "frequency": 146.8323839587038,
      "time": 95.55546,
      "duration": 0.21018497500000421,
      "velocity": 0.6456692913385826,
      "name": "D3"
    },
    {
      "midi": 69,
      "frequency": 440,
      "time": 95.777682,
      "duration": 0.21018497500000421,
      "velocity": 0.7244094488188977,
      "name": "A4"
    },
    {
      "midi": 72,
      "frequency": 523.2511306011972,
      "time": 95.777682,
      "duration": 0.21018497500000421,
      "velocity": 0.7244094488188977,
      "name": "C5"
    },
    {
      "midi": 57,
      "frequency": 220,
      "time": 95.777682,
      "duration": 0.21018497500000421,
      "velocity": 0.6456692913385826,
      "name": "A3"
    },
    {
      "midi": 62,
      "frequency": 293.6647679174076,
      "time": 95.777682,
      "duration": 0.21018497500000421,
      "velocity": 0.6456692913385826,
      "name": "D4"
    },
    {
      "midi": 67,
      "frequency": 391.99543598174927,
      "time": 95.999904,
      "duration": 0.21018497500000421,
      "velocity": 0.7244094488188977,
      "name": "G4"
    },
    {
      "midi": 71,
      "frequency": 493.8833012561241,
      "time": 95.999904,
      "duration": 0.21018497500000421,
      "velocity": 0.7244094488188977,
      "name": "B4"
    },
    {
      "midi": 36,
      "frequency": 65.40639132514966,
      "time": 95.999904,
      "duration": 0.3157404250000013,
      "velocity": 0.6456692913385826,
      "name": "C2"
    },
    {
      "midi": 48,
      "frequency": 130.8127826502993,
      "time": 95.999904,
      "duration": 0.3157404250000013,
      "velocity": 0.6456692913385826,
      "name": "C3"
    },
    {
      "midi": 64,
      "frequency": 329.6275569128699,
      "time": 96.222126,
      "duration": 1.476850374999998,
      "velocity": 0.7244094488188977,
      "name": "E4"
    },
    {
      "midi": 48,
      "frequency": 130.8127826502993,
      "time": 96.333237,
      "duration": 0.3157404250000013,
      "velocity": 0.6456692913385826,
      "name": "C3"
    },
    {
      "midi": 55,
      "frequency": 195.99771799087463,
      "time": 96.66657000000001,
      "duration": 0.4212958749999842,
      "velocity": 0.6456692913385826,
      "name": "G3"
    },
    {
      "midi": 59,
      "frequency": 246.94165062806206,
      "time": 96.66657000000001,
      "duration": 0.4212958749999842,
      "velocity": 0.6456692913385826,
      "name": "B3"
    },
    {
      "midi": 48,
      "frequency": 130.8127826502993,
      "time": 97.111014,
      "duration": 0.21018497500000421,
      "velocity": 0.6456692913385826,
      "name": "C3"
    },
    {
      "midi": 55,
      "frequency": 195.99771799087463,
      "time": 97.333236,
      "duration": 0.21018497500000421,
      "velocity": 0.6456692913385826,
      "name": "G3"
    },
    {
      "midi": 59,
      "frequency": 246.94165062806206,
      "time": 97.555458,
      "duration": 0.21018497500000421,
      "velocity": 0.6456692913385826,
      "name": "B3"
    },
    {
      "midi": 38,
      "frequency": 73.41619197935188,
      "time": 97.77768,
      "duration": 0.3157404250000013,
      "velocity": 0.6456692913385826,
      "name": "D2"
    },
    {
      "midi": 50,
      "frequency": 146.8323839587038,
      "time": 97.77768,
      "duration": 0.3157404250000013,
      "velocity": 0.6456692913385826,
      "name": "D3"
    },
    {
      "midi": 57,
      "frequency": 220,
      "time": 97.999902,
      "duration": 0.21018497499999,
      "velocity": 0.7244094488188977,
      "name": "A3"
    },
    {
      "midi": 62,
      "frequency": 293.6647679174076,
      "time": 97.999902,
      "duration": 0.21018497499999,
      "velocity": 0.7244094488188977,
      "name": "D4"
    },
    {
      "midi": 54,
      "frequency": 184.99721135581723,
      "time": 98.111013,
      "duration": 0.3157404250000013,
      "velocity": 0.6456692913385826,
      "name": "F#3"
    },
    {
      "midi": 62,
      "frequency": 293.6647679174076,
      "time": 98.22212400000001,
      "duration": 0.1046295249999929,
      "velocity": 0.7244094488188977,
      "name": "D4"
    },
    {
      "midi": 67,
      "frequency": 391.99543598174927,
      "time": 98.22212400000001,
      "duration": 0.1046295249999929,
      "velocity": 0.7244094488188977,
      "name": "G4"
    },
    {
      "midi": 69,
      "frequency": 440,
      "time": 98.333235,
      "duration": 0.21018497500000421,
      "velocity": 0.7244094488188977,
      "name": "A4"
    },
    {
      "midi": 50,
      "frequency": 146.8323839587038,
      "time": 98.444346,
      "duration": 0.42129587499999843,
      "velocity": 0.6456692913385826,
      "name": "D3"
    },
    {
      "midi": 55,
      "frequency": 195.99771799087463,
      "time": 98.444346,
      "duration": 0.42129587499999843,
      "velocity": 0.6456692913385826,
      "name": "G3"
    },
    {
      "midi": 66,
      "frequency": 369.99442271163446,
      "time": 98.555457,
      "duration": 0.3157404250000013,
      "velocity": 0.7244094488188977,
      "name": "F#4"
    },
    {
      "midi": 71,
      "frequency": 493.8833012561241,
      "time": 98.555457,
      "duration": 0.3157404250000013,
      "velocity": 0.7244094488188977,
      "name": "B4"
    },
    {
      "midi": 69,
      "frequency": 440,
      "time": 98.88879,
      "duration": 0.21018497500000421,
      "velocity": 0.7244094488188977,
      "name": "A4"
    },
    {
      "midi": 54,
      "frequency": 184.99721135581723,
      "time": 98.88879,
      "duration": 0.21018497500000421,
      "velocity": 0.6456692913385826,
      "name": "F#3"
    },
    {
      "midi": 66,
      "frequency": 369.99442271163446,
      "time": 99.111012,
      "duration": 0.21018497500000421,
      "velocity": 0.7244094488188977,
      "name": "F#4"
    },
    {
      "midi": 71,
      "frequency": 493.8833012561241,
      "time": 99.111012,
      "duration": 0.21018497500000421,
      "velocity": 0.7244094488188977,
      "name": "B4"
    },
    {
      "midi": 55,
      "frequency": 195.99771799087463,
      "time": 99.111012,
      "duration": 0.21018497500000421,
      "velocity": 0.6456692913385826,
      "name": "G3"
    },
    {
      "midi": 69,
      "frequency": 440,
      "time": 99.333234,
      "duration": 0.21018497499999,
      "velocity": 0.7244094488188977,
      "name": "A4"
    },
    {
      "midi": 74,
      "frequency": 587.3295358348151,
      "time": 99.333234,
      "duration": 0.21018497499999,
      "velocity": 0.7244094488188977,
      "name": "D5"
    },
    {
      "midi": 57,
      "frequency": 220,
      "time": 99.333234,
      "duration": 0.21018497499999,
      "velocity": 0.6456692913385826,
      "name": "A3"
    },
    {
      "midi": 76,
      "frequency": 659.2551138257398,
      "time": 99.555456,
      "duration": 0.3157404250000013,
      "velocity": 0.7244094488188977,
      "name": "E5"
    },
    {
      "midi": 67,
      "frequency": 391.99543598174927,
      "time": 99.555456,
      "duration": 0.8435176750000011,
      "velocity": 0.7244094488188977,
      "name": "G4"
    },
    {
      "midi": 71,
      "frequency": 493.8833012561241,
      "time": 99.555456,
      "duration": 0.8435176750000011,
      "velocity": 0.7244094488188977,
      "name": "B4"
    },
    {
      "midi": 40,
      "frequency": 82.40688922821748,
      "time": 99.555456,
      "duration": 0.3157404250000013,
      "velocity": 0.6456692913385826,
      "name": "E2"
    },
    {
      "midi": 52,
      "frequency": 164.81377845643496,
      "time": 99.555456,
      "duration": 0.3157404250000013,
      "velocity": 0.6456692913385826,
      "name": "E3"
    },
    {
      "midi": 79,
      "frequency": 783.9908719634986,
      "time": 99.888789,
      "duration": 0.3157404250000013,
      "velocity": 0.7244094488188977,
      "name": "G5"
    },
    {
      "midi": 52,
      "frequency": 164.81377845643496,
      "time": 99.888789,
      "duration": 0.3157404250000013,
      "velocity": 0.6456692913385826,
      "name": "E3"
    },
    {
      "midi": 78,
      "frequency": 739.9888454232689,
      "time": 100.222122,
      "duration": 0.42129587499999843,
      "velocity": 0.7244094488188977,
      "name": "F#5"
    },
    {
      "midi": 59,
      "frequency": 246.94165062806206,
      "time": 100.222122,
      "duration": 0.6324067750000069,
      "velocity": 0.6456692913385826,
      "name": "B3"
    },
    {
      "midi": 64,
      "frequency": 329.6275569128699,
      "time": 100.222122,
      "duration": 0.6324067750000069,
      "velocity": 0.6456692913385826,
      "name": "E4"
    },
    {
      "midi": 74,
      "frequency": 587.3295358348151,
      "time": 100.666566,
      "duration": 0.21018497499999,
      "velocity": 0.7244094488188977,
      "name": "D5"
    },
    {
      "midi": 76,
      "frequency": 659.2551138257398,
      "time": 100.888788,
      "duration": 0.21018497499999,
      "velocity": 0.7244094488188977,
      "name": "E5"
    },
    {
      "midi": 52,
      "frequency": 164.81377845643496,
      "time": 100.888788,
      "duration": 0.21018497499999,
      "velocity": 0.6456692913385826,
      "name": "E3"
    },
    {
      "midi": 66,
      "frequency": 369.99442271163446,
      "time": 101.11101000000001,
      "duration": 0.8435176750000011,
      "velocity": 0.7244094488188977,
      "name": "F#4"
    },
    {
      "midi": 69,
      "frequency": 440,
      "time": 101.11101000000001,
      "duration": 0.8435176750000011,
      "velocity": 0.7244094488188977,
      "name": "A4"
    },
    {
      "midi": 74,
      "frequency": 587.3295358348151,
      "time": 101.11101000000001,
      "duration": 0.8435176750000011,
      "velocity": 0.7244094488188977,
      "name": "D5"
    },
    {
      "midi": 59,
      "frequency": 246.94165062806206,
      "time": 101.11101000000001,
      "duration": 0.21018497499999,
      "velocity": 0.6456692913385826,
      "name": "B3"
    },
    {
      "midi": 64,
      "frequency": 329.6275569128699,
      "time": 101.11101000000001,
      "duration": 0.21018497499999,
      "velocity": 0.6456692913385826,
      "name": "E4"
    },
    {
      "midi": 38,
      "frequency": 73.41619197935188,
      "time": 101.333232,
      "duration": 0.31574042500001553,
      "velocity": 0.6456692913385826,
      "name": "D2"
    },
    {
      "midi": 50,
      "frequency": 146.8323839587038,
      "time": 101.333232,
      "duration": 0.31574042500001553,
      "velocity": 0.6456692913385826,
      "name": "D3"
    },
    {
      "midi": 57,
      "frequency": 220,
      "time": 101.666565,
      "duration": 0.3157404250000013,
      "velocity": 0.6456692913385826,
      "name": "A3"
    },
    {
      "midi": 74,
      "frequency": 587.3295358348151,
      "time": 101.999898,
      "duration": 0.21018497500000421,
      "velocity": 0.7244094488188977,
      "name": "D5"
    },
    {
      "midi": 57,
      "frequency": 220,
      "time": 101.999898,
      "duration": 0.6324067750000069,
      "velocity": 0.6456692913385826,
      "name": "A3"
    },
    {
      "midi": 62,
      "frequency": 293.6647679174076,
      "time": 101.999898,
      "duration": 0.6324067750000069,
      "velocity": 0.6456692913385826,
      "name": "D4"
    },
    {
      "midi": 67,
      "frequency": 391.99543598174927,
      "time": 101.999898,
      "duration": 0.6324067750000069,
      "velocity": 0.6456692913385826,
      "name": "G4"
    },
    {
      "midi": 79,
      "frequency": 783.9908719634986,
      "time": 102.22212,
      "duration": 0.1046295250000071,
      "velocity": 0.7244094488188977,
      "name": "G5"
    },
    {
      "midi": 83,
      "frequency": 987.7666025122483,
      "time": 102.22212,
      "duration": 0.1046295250000071,
      "velocity": 0.7244094488188977,
      "name": "B5"
    },
    {
      "midi": 78,
      "frequency": 739.9888454232689,
      "time": 102.333231,
      "duration": 0.1046295250000071,
      "velocity": 0.7244094488188977,
      "name": "F#5"
    },
    {
      "midi": 81,
      "frequency": 880,
      "time": 102.333231,
      "duration": 0.1046295250000071,
      "velocity": 0.7244094488188977,
      "name": "A5"
    },
    {
      "midi": 79,
      "frequency": 783.9908719634986,
      "time": 102.444342,
      "duration": 0.1046295250000071,
      "velocity": 0.7244094488188977,
      "name": "G5"
    },
    {
      "midi": 83,
      "frequency": 987.7666025122483,
      "time": 102.444342,
      "duration": 0.1046295250000071,
      "velocity": 0.7244094488188977,
      "name": "B5"
    },
    {
      "midi": 78,
      "frequency": 739.9888454232689,
      "time": 102.555453,
      "duration": 0.1046295250000071,
      "velocity": 0.7244094488188977,
      "name": "F#5"
    },
    {
      "midi": 81,
      "frequency": 880,
      "time": 102.555453,
      "duration": 0.1046295250000071,
      "velocity": 0.7244094488188977,
      "name": "A5"
    },
    {
      "midi": 79,
      "frequency": 783.9908719634986,
      "time": 102.66656400000001,
      "duration": 0.21018497499999,
      "velocity": 0.7244094488188977,
      "name": "G5"
    },
    {
      "midi": 83,
      "frequency": 987.7666025122483,
      "time": 102.66656400000001,
      "duration": 0.21018497499999,
      "velocity": 0.7244094488188977,
      "name": "B5"
    },
    {
      "midi": 50,
      "frequency": 146.8323839587038,
      "time": 102.66656400000001,
      "duration": 0.21018497499999,
      "velocity": 0.6456692913385826,
      "name": "D3"
    },
    {
      "midi": 81,
      "frequency": 880,
      "time": 102.888786,
      "duration": 0.21018497500000421,
      "velocity": 0.7244094488188977,
      "name": "A5"
    },
    {
      "midi": 84,
      "frequency": 1046.5022612023945,
      "time": 102.888786,
      "duration": 0.21018497500000421,
      "velocity": 0.7244094488188977,
      "name": "C6"
    },
    {
      "midi": 57,
      "frequency": 220,
      "time": 102.888786,
      "duration": 0.21018497500000421,
      "velocity": 0.6456692913385826,
      "name": "A3"
    },
    {
      "midi": 62,
      "frequency": 293.6647679174076,
      "time": 102.888786,
      "duration": 0.21018497500000421,
      "velocity": 0.6456692913385826,
      "name": "D4"
    },
    {
      "midi": 79,
      "frequency": 783.9908719634986,
      "time": 103.111008,
      "duration": 0.21018497500000421,
      "velocity": 0.7244094488188977,
      "name": "G5"
    },
    {
      "midi": 83,
      "frequency": 987.7666025122483,
      "time": 103.111008,
      "duration": 0.21018497500000421,
      "velocity": 0.7244094488188977,
      "name": "B5"
    },
    {
      "midi": 36,
      "frequency": 65.40639132514966,
      "time": 103.111008,
      "duration": 0.3157404250000013,
      "velocity": 0.6456692913385826,
      "name": "C2"
    },
    {
      "midi": 48,
      "frequency": 130.8127826502993,
      "time": 103.111008,
      "duration": 0.3157404250000013,
      "velocity": 0.6456692913385826,
      "name": "C3"
    },
    {
      "midi": 72,
      "frequency": 523.2511306011972,
      "time": 103.33323,
      "duration": 1.0546285749999953,
      "velocity": 0.7244094488188977,
      "name": "C5"
    },
    {
      "midi": 79,
      "frequency": 783.9908719634986,
      "time": 103.33323,
      "duration": 1.0546285749999953,
      "velocity": 0.7244094488188977,
      "name": "G5"
    },
    {
      "midi": 48,
      "frequency": 130.8127826502993,
      "time": 103.444341,
      "duration": 0.31574042500001553,
      "velocity": 0.6456692913385826,
      "name": "C3"
    },
    {
      "midi": 55,
      "frequency": 195.99771799087463,
      "time": 103.777674,
      "duration": 0.42129587499999843,
      "velocity": 0.6456692913385826,
      "name": "G3"
    },
    {
      "midi": 59,
      "frequency": 246.94165062806206,
      "time": 103.777674,
      "duration": 0.42129587499999843,
      "velocity": 0.6456692913385826,
      "name": "B3"
    },
    {
      "midi": 48,
      "frequency": 130.8127826502993,
      "time": 104.222118,
      "duration": 0.21018497500000421,
      "velocity": 0.6456692913385826,
      "name": "C3"
    },
    {
      "midi": 55,
      "frequency": 195.99771799087463,
      "time": 104.44434,
      "duration": 0.21018497500000421,
      "velocity": 0.6456692913385826,
      "name": "G3"
    },
    {
      "midi": 79,
      "frequency": 783.9908719634986,
      "time": 104.666562,
      "duration": 0.21018497500000421,
      "velocity": 0.7244094488188977,
      "name": "G5"
    },
    {
      "midi": 59,
      "frequency": 246.94165062806206,
      "time": 104.666562,
      "duration": 0.21018497500000421,
      "velocity": 0.6456692913385826,
      "name": "B3"
    },
    {
      "midi": 69,
      "frequency": 440,
      "time": 104.888784,
      "duration": 0.3157404250000013,
      "velocity": 0.7244094488188977,
      "name": "A4"
    },
    {
      "midi": 74,
      "frequency": 587.3295358348151,
      "time": 104.888784,
      "duration": 0.3157404250000013,
      "velocity": 0.7244094488188977,
      "name": "D5"
    },
    {
      "midi": 78,
      "frequency": 739.9888454232689,
      "time": 104.888784,
      "duration": 0.3157404250000013,
      "velocity": 0.7244094488188977,
      "name": "F#5"
    },
    {
      "midi": 38,
      "frequency": 73.41619197935188,
      "time": 104.888784,
      "duration": 0.3157404250000013,
      "velocity": 0.6456692913385826,
      "name": "D2"
    },
    {
      "midi": 50,
      "frequency": 146.8323839587038,
      "time": 104.888784,
      "duration": 0.3157404250000013,
      "velocity": 0.6456692913385826,
      "name": "D3"
    },
    {
      "midi": 69,
      "frequency": 440,
      "time": 105.222117,
      "duration": 0.3157404250000013,
      "velocity": 0.7244094488188977,
      "name": "A4"
    },
    {
      "midi": 74,
      "frequency": 587.3295358348151,
      "time": 105.222117,
      "duration": 0.3157404250000013,
      "velocity": 0.7244094488188977,
      "name": "D5"
    },
    {
      "midi": 78,
      "frequency": 739.9888454232689,
      "time": 105.222117,
      "duration": 0.3157404250000013,
      "velocity": 0.7244094488188977,
      "name": "F#5"
    },
    {
      "midi": 57,
      "frequency": 220,
      "time": 105.222117,
      "duration": 0.3157404250000013,
      "velocity": 0.6456692913385826,
      "name": "A3"
    },
    {
      "midi": 69,
      "frequency": 440,
      "time": 105.55545000000001,
      "duration": 0.21018497499999,
      "velocity": 0.7244094488188977,
      "name": "A4"
    },
    {
      "midi": 74,
      "frequency": 587.3295358348151,
      "time": 105.55545000000001,
      "duration": 0.21018497499999,
      "velocity": 0.7244094488188977,
      "name": "D5"
    },
    {
      "midi": 79,
      "frequency": 783.9908719634986,
      "time": 105.55545000000001,
      "duration": 0.21018497499999,
      "velocity": 0.7244094488188977,
      "name": "G5"
    },
    {
      "midi": 57,
      "frequency": 220,
      "time": 105.55545000000001,
      "duration": 0.6324067749999926,
      "velocity": 0.6456692913385826,
      "name": "A3"
    },
    {
      "midi": 62,
      "frequency": 293.6647679174076,
      "time": 105.55545000000001,
      "duration": 0.6324067749999926,
      "velocity": 0.6456692913385826,
      "name": "D4"
    },
    {
      "midi": 67,
      "frequency": 391.99543598174927,
      "time": 105.55545000000001,
      "duration": 0.6324067749999926,
      "velocity": 0.6456692913385826,
      "name": "G4"
    },
    {
      "midi": 74,
      "frequency": 587.3295358348151,
      "time": 105.777672,
      "duration": 0.42129587499999843,
      "velocity": 0.7244094488188977,
      "name": "D5"
    },
    {
      "midi": 81,
      "frequency": 880,
      "time": 105.777672,
      "duration": 0.42129587499999843,
      "velocity": 0.7244094488188977,
      "name": "A5"
    },
    {
      "midi": 71,
      "frequency": 493.8833012561241,
      "time": 106.222116,
      "duration": 0.42129587499999843,
      "velocity": 0.7244094488188977,
      "name": "B4"
    },
    {
      "midi": 76,
      "frequency": 659.2551138257398,
      "time": 106.222116,
      "duration": 0.42129587499999843,
      "velocity": 0.7244094488188977,
      "name": "E5"
    },
    {
      "midi": 83,
      "frequency": 987.7666025122483,
      "time": 106.222116,
      "duration": 0.42129587499999843,
      "velocity": 0.7244094488188977,
      "name": "B5"
    },
    {
      "midi": 38,
      "frequency": 73.41619197935188,
      "time": 106.222116,
      "duration": 0.42129587499999843,
      "velocity": 0.6456692913385826,
      "name": "D2"
    },
    {
      "midi": 45,
      "frequency": 110,
      "time": 106.222116,
      "duration": 0.42129587499999843,
      "velocity": 0.6456692913385826,
      "name": "A2"
    },
    {
      "midi": 50,
      "frequency": 146.8323839587038,
      "time": 106.222116,
      "duration": 0.42129587499999843,
      "velocity": 0.6456692913385826,
      "name": "D3"
    },
    {
      "midi": 40,
      "frequency": 82.40688922821748,
      "time": 106.66656,
      "duration": 0.3157404250000013,
      "velocity": 0.6456692913385826,
      "name": "E2"
    },
    {
      "midi": 52,
      "frequency": 164.81377845643496,
      "time": 106.66656,
      "duration": 0.3157404250000013,
      "velocity": 0.6456692913385826,
      "name": "E3"
    },
    {
      "midi": 76,
      "frequency": 659.2551138257398,
      "time": 106.888782,
      "duration": 0.1046295250000071,
      "velocity": 0.7244094488188977,
      "name": "E5"
    },
    {
      "midi": 81,
      "frequency": 880,
      "time": 106.888782,
      "duration": 0.1046295250000071,
      "velocity": 0.7244094488188977,
      "name": "A5"
    },
    {
      "midi": 79,
      "frequency": 783.9908719634986,
      "time": 106.999893,
      "duration": 0.1046295250000071,
      "velocity": 0.7244094488188977,
      "name": "G5"
    },
    {
      "midi": 52,
      "frequency": 164.81377845643496,
      "time": 106.999893,
      "duration": 0.3157404250000013,
      "velocity": 0.6456692913385826,
      "name": "E3"
    },
    {
      "midi": 59,
      "frequency": 246.94165062806206,
      "time": 106.999893,
      "duration": 0.3157404250000013,
      "velocity": 0.6456692913385826,
      "name": "B3"
    },
    {
      "midi": 64,
      "frequency": 329.6275569128699,
      "time": 106.999893,
      "duration": 0.3157404250000013,
      "velocity": 0.6456692913385826,
      "name": "E4"
    },
    {
      "midi": 76,
      "frequency": 659.2551138257398,
      "time": 107.11100400000001,
      "duration": 0.21018497499999,
      "velocity": 0.7244094488188977,
      "name": "E5"
    },
    {
      "midi": 81,
      "frequency": 880,
      "time": 107.11100400000001,
      "duration": 0.21018497499999,
      "velocity": 0.7244094488188977,
      "name": "A5"
    },
    {
      "midi": 76,
      "frequency": 659.2551138257398,
      "time": 107.333226,
      "duration": 0.1046295250000071,
      "velocity": 0.7244094488188977,
      "name": "E5"
    },
    {
      "midi": 81,
      "frequency": 880,
      "time": 107.333226,
      "duration": 0.1046295250000071,
      "velocity": 0.7244094488188977,
      "name": "A5"
    },
    {
      "midi": 52,
      "frequency": 164.81377845643496,
      "time": 107.333226,
      "duration": 0.21018497500000421,
      "velocity": 0.6456692913385826,
      "name": "E3"
    },
    {
      "midi": 59,
      "frequency": 246.94165062806206,
      "time": 107.333226,
      "duration": 0.21018497500000421,
      "velocity": 0.6456692913385826,
      "name": "B3"
    },
    {
      "midi": 64,
      "frequency": 329.6275569128699,
      "time": 107.333226,
      "duration": 0.21018497500000421,
      "velocity": 0.6456692913385826,
      "name": "E4"
    },
    {
      "midi": 81,
      "frequency": 880,
      "time": 107.444337,
      "duration": 0.1046295250000071,
      "velocity": 0.7244094488188977,
      "name": "A5"
    },
    {
      "midi": 76,
      "frequency": 659.2551138257398,
      "time": 107.555448,
      "duration": 0.21018497500000421,
      "velocity": 0.7244094488188977,
      "name": "E5"
    },
    {
      "midi": 81,
      "frequency": 880,
      "time": 107.555448,
      "duration": 0.21018497500000421,
      "velocity": 0.7244094488188977,
      "name": "A5"
    },
    {
      "midi": 76,
      "frequency": 659.2551138257398,
      "time": 107.77767,
      "duration": 0.1046295250000071,
      "velocity": 0.7244094488188977,
      "name": "E5"
    },
    {
      "midi": 81,
      "frequency": 880,
      "time": 107.77767,
      "duration": 0.1046295250000071,
      "velocity": 0.7244094488188977,
      "name": "A5"
    },
    {
      "midi": 81,
      "frequency": 880,
      "time": 107.888781,
      "duration": 0.1046295250000071,
      "velocity": 0.7244094488188977,
      "name": "A5"
    },
    {
      "midi": 76,
      "frequency": 659.2551138257398,
      "time": 107.999892,
      "duration": 0.21018497499999,
      "velocity": 0.7244094488188977,
      "name": "E5"
    },
    {
      "midi": 81,
      "frequency": 880,
      "time": 107.999892,
      "duration": 0.21018497499999,
      "velocity": 0.7244094488188977,
      "name": "A5"
    },
    {
      "midi": 59,
      "frequency": 246.94165062806206,
      "time": 107.999892,
      "duration": 0.21018497499999,
      "velocity": 0.6456692913385826,
      "name": "B3"
    },
    {
      "midi": 64,
      "frequency": 329.6275569128699,
      "time": 107.999892,
      "duration": 0.21018497499999,
      "velocity": 0.6456692913385826,
      "name": "E4"
    },
    {
      "midi": 79,
      "frequency": 783.9908719634986,
      "time": 108.222114,
      "duration": 0.1046295250000071,
      "velocity": 0.7244094488188977,
      "name": "G5"
    },
    {
      "midi": 52,
      "frequency": 164.81377845643496,
      "time": 108.222114,
      "duration": 0.21018497499999,
      "velocity": 0.6456692913385826,
      "name": "E3"
    },
    {
      "midi": 76,
      "frequency": 659.2551138257398,
      "time": 108.333225,
      "duration": 0.1046295250000071,
      "velocity": 0.7244094488188977,
      "name": "E5"
    },
    {
      "midi": 40,
      "frequency": 82.40688922821748,
      "time": 108.444336,
      "duration": 0.3157404250000013,
      "velocity": 0.6456692913385826,
      "name": "E2"
    },
    {
      "midi": 52,
      "frequency": 164.81377845643496,
      "time": 108.444336,
      "duration": 0.3157404250000013,
      "velocity": 0.6456692913385826,
      "name": "E3"
    },
    {
      "midi": 76,
      "frequency": 659.2551138257398,
      "time": 108.666558,
      "duration": 0.1046295250000071,
      "velocity": 0.7244094488188977,
      "name": "E5"
    },
    {
      "midi": 81,
      "frequency": 880,
      "time": 108.666558,
      "duration": 0.1046295250000071,
      "velocity": 0.7244094488188977,
      "name": "A5"
    },
    {
      "midi": 79,
      "frequency": 783.9908719634986,
      "time": 108.777669,
      "duration": 0.1046295250000071,
      "velocity": 0.7244094488188977,
      "name": "G5"
    },
    {
      "midi": 52,
      "frequency": 164.81377845643496,
      "time": 108.777669,
      "duration": 0.3157404250000013,
      "velocity": 0.6456692913385826,
      "name": "E3"
    },
    {
      "midi": 59,
      "frequency": 246.94165062806206,
      "time": 108.777669,
      "duration": 0.3157404250000013,
      "velocity": 0.6456692913385826,
      "name": "B3"
    },
    {
      "midi": 64,
      "frequency": 329.6275569128699,
      "time": 108.777669,
      "duration": 0.3157404250000013,
      "velocity": 0.6456692913385826,
      "name": "E4"
    },
    {
      "midi": 76,
      "frequency": 659.2551138257398,
      "time": 108.88878,
      "duration": 0.21018497500000421,
      "velocity": 0.7244094488188977,
      "name": "E5"
    },
    {
      "midi": 81,
      "frequency": 880,
      "time": 108.88878,
      "duration": 0.21018497500000421,
      "velocity": 0.7244094488188977,
      "name": "A5"
    },
    {
      "midi": 76,
      "frequency": 659.2551138257398,
      "time": 109.111002,
      "duration": 0.1046295250000071,
      "velocity": 0.7244094488188977,
      "name": "E5"
    },
    {
      "midi": 81,
      "frequency": 880,
      "time": 109.111002,
      "duration": 0.1046295250000071,
      "velocity": 0.7244094488188977,
      "name": "A5"
    },
    {
      "midi": 52,
      "frequency": 164.81377845643496,
      "time": 109.111002,
      "duration": 0.21018497500000421,
      "velocity": 0.6456692913385826,
      "name": "E3"
    },
    {
      "midi": 59,
      "frequency": 246.94165062806206,
      "time": 109.111002,
      "duration": 0.21018497500000421,
      "velocity": 0.6456692913385826,
      "name": "B3"
    },
    {
      "midi": 64,
      "frequency": 329.6275569128699,
      "time": 109.111002,
      "duration": 0.21018497500000421,
      "velocity": 0.6456692913385826,
      "name": "E4"
    },
    {
      "midi": 81,
      "frequency": 880,
      "time": 109.22211300000001,
      "duration": 0.1046295249999929,
      "velocity": 0.7244094488188977,
      "name": "A5"
    },
    {
      "midi": 76,
      "frequency": 659.2551138257398,
      "time": 109.333224,
      "duration": 0.21018497500000421,
      "velocity": 0.7244094488188977,
      "name": "E5"
    },
    {
      "midi": 81,
      "frequency": 880,
      "time": 109.333224,
      "duration": 0.21018497500000421,
      "velocity": 0.7244094488188977,
      "name": "A5"
    },
    {
      "midi": 76,
      "frequency": 659.2551138257398,
      "time": 109.555446,
      "duration": 0.1046295250000071,
      "velocity": 0.7244094488188977,
      "name": "E5"
    },
    {
      "midi": 81,
      "frequency": 880,
      "time": 109.555446,
      "duration": 0.1046295250000071,
      "velocity": 0.7244094488188977,
      "name": "A5"
    },
    {
      "midi": 83,
      "frequency": 987.7666025122483,
      "time": 109.666557,
      "duration": 0.1046295250000071,
      "velocity": 0.7244094488188977,
      "name": "B5"
    },
    {
      "midi": 81,
      "frequency": 880,
      "time": 109.777668,
      "duration": 0.21018497499999,
      "velocity": 0.7244094488188977,
      "name": "A5"
    },
    {
      "midi": 59,
      "frequency": 246.94165062806206,
      "time": 109.777668,
      "duration": 0.21018497499999,
      "velocity": 0.6456692913385826,
      "name": "B3"
    },
    {
      "midi": 64,
      "frequency": 329.6275569128699,
      "time": 109.777668,
      "duration": 0.21018497499999,
      "velocity": 0.6456692913385826,
      "name": "E4"
    },
    {
      "midi": 79,
      "frequency": 783.9908719634986,
      "time": 109.99989000000001,
      "duration": 0.21018497499999,
      "velocity": 0.7244094488188977,
      "name": "G5"
    },
    {
      "midi": 52,
      "frequency": 164.81377845643496,
      "time": 109.99989000000001,
      "duration": 0.21018497499999,
      "velocity": 0.6456692913385826,
      "name": "E3"
    },
    {
      "midi": 40,
      "frequency": 82.40688922821748,
      "time": 110.222112,
      "duration": 0.31574042500001553,
      "velocity": 0.6456692913385826,
      "name": "E2"
    },
    {
      "midi": 52,
      "frequency": 164.81377845643496,
      "time": 110.222112,
      "duration": 0.31574042500001553,
      "velocity": 0.6456692913385826,
      "name": "E3"
    },
    {
      "midi": 86,
      "frequency": 1174.6590716696303,
      "time": 110.444334,
      "duration": 0.1046295250000071,
      "velocity": 0.7244094488188977,
      "name": "D6"
    },
    {
      "midi": 86,
      "frequency": 1174.6590716696303,
      "time": 110.555445,
      "duration": 0.1046295250000071,
      "velocity": 0.7244094488188977,
      "name": "D6"
    },
    {
      "midi": 52,
      "frequency": 164.81377845643496,
      "time": 110.555445,
      "duration": 0.3157404250000013,
      "velocity": 0.6456692913385826,
      "name": "E3"
    },
    {
      "midi": 59,
      "frequency": 246.94165062806206,
      "time": 110.555445,
      "duration": 0.3157404250000013,
      "velocity": 0.6456692913385826,
      "name": "B3"
    },
    {
      "midi": 64,
      "frequency": 329.6275569128699,
      "time": 110.555445,
      "duration": 0.3157404250000013,
      "velocity": 0.6456692913385826,
      "name": "E4"
    },
    {
      "midi": 76,
      "frequency": 659.2551138257398,
      "time": 110.666556,
      "duration": 0.21018497500000421,
      "velocity": 0.7244094488188977,
      "name": "E5"
    },
    {
      "midi": 86,
      "frequency": 1174.6590716696303,
      "time": 110.666556,
      "duration": 0.21018497500000421,
      "velocity": 0.7244094488188977,
      "name": "D6"
    },
    {
      "midi": 84,
      "frequency": 1046.5022612023945,
      "time": 110.888778,
      "duration": 0.1046295250000071,
      "velocity": 0.7244094488188977,
      "name": "C6"
    },
    {
      "midi": 52,
      "frequency": 164.81377845643496,
      "time": 110.888778,
      "duration": 0.21018497500000421,
      "velocity": 0.6456692913385826,
      "name": "E3"
    },
    {
      "midi": 59,
      "frequency": 246.94165062806206,
      "time": 110.888778,
      "duration": 0.21018497500000421,
      "velocity": 0.6456692913385826,
      "name": "B3"
    },
    {
      "midi": 64,
      "frequency": 329.6275569128699,
      "time": 110.888778,
      "duration": 0.21018497500000421,
      "velocity": 0.6456692913385826,
      "name": "E4"
    },
    {
      "midi": 83,
      "frequency": 987.7666025122483,
      "time": 110.999889,
      "duration": 0.1046295250000071,
      "velocity": 0.7244094488188977,
      "name": "B5"
    },
    {
      "midi": 76,
      "frequency": 659.2551138257398,
      "time": 111.111,
      "duration": 0.21018497499999,
      "velocity": 0.7244094488188977,
      "name": "E5"
    },
    {
      "midi": 84,
      "frequency": 1046.5022612023945,
      "time": 111.111,
      "duration": 0.21018497499999,
      "velocity": 0.7244094488188977,
      "name": "C6"
    },
    {
      "midi": 83,
      "frequency": 987.7666025122483,
      "time": 111.333222,
      "duration": 0.1046295250000071,
      "velocity": 0.7244094488188977,
      "name": "B5"
    },
    {
      "midi": 81,
      "frequency": 880,
      "time": 111.444333,
      "duration": 0.1046295250000071,
      "velocity": 0.7244094488188977,
      "name": "A5"
    },
    {
      "midi": 76,
      "frequency": 659.2551138257398,
      "time": 111.55544400000001,
      "duration": 0.21018497499999,
      "velocity": 0.7244094488188977,
      "name": "E5"
    },
    {
      "midi": 83,
      "frequency": 987.7666025122483,
      "time": 111.55544400000001,
      "duration": 0.21018497499999,
      "velocity": 0.7244094488188977,
      "name": "B5"
    },
    {
      "midi": 59,
      "frequency": 246.94165062806206,
      "time": 111.55544400000001,
      "duration": 0.21018497499999,
      "velocity": 0.6456692913385826,
      "name": "B3"
    },
    {
      "midi": 64,
      "frequency": 329.6275569128699,
      "time": 111.55544400000001,
      "duration": 0.21018497499999,
      "velocity": 0.6456692913385826,
      "name": "E4"
    },
    {
      "midi": 81,
      "frequency": 880,
      "time": 111.777666,
      "duration": 0.1046295250000071,
      "velocity": 0.7244094488188977,
      "name": "A5"
    },
    {
      "midi": 52,
      "frequency": 164.81377845643496,
      "time": 111.777666,
      "duration": 0.21018497500000421,
      "velocity": 0.6456692913385826,
      "name": "E3"
    },
    {
      "midi": 79,
      "frequency": 783.9908719634986,
      "time": 111.888777,
      "duration": 0.1046295250000071,
      "velocity": 0.7244094488188977,
      "name": "G5"
    },
    {
      "midi": 67,
      "frequency": 391.99543598174927,
      "time": 111.999888,
      "duration": 0.42129587499999843,
      "velocity": 0.7244094488188977,
      "name": "G4"
    },
    {
      "midi": 71,
      "frequency": 493.8833012561241,
      "time": 111.999888,
      "duration": 0.42129587499999843,
      "velocity": 0.7244094488188977,
      "name": "B4"
    },
    {
      "midi": 76,
      "frequency": 659.2551138257398,
      "time": 111.999888,
      "duration": 0.42129587499999843,
      "velocity": 0.7244094488188977,
      "name": "E5"
    },
    {
      "midi": 36,
      "frequency": 65.40639132514966,
      "time": 111.999888,
      "duration": 0.3157404250000013,
      "velocity": 0.6456692913385826,
      "name": "C2"
    },
    {
      "midi": 48,
      "frequency": 130.8127826502993,
      "time": 111.999888,
      "duration": 0.3157404250000013,
      "velocity": 0.6456692913385826,
      "name": "C3"
    },
    {
      "midi": 48,
      "frequency": 130.8127826502993,
      "time": 112.333221,
      "duration": 0.31574042500001553,
      "velocity": 0.6456692913385826,
      "name": "C3"
    },
    {
      "midi": 55,
      "frequency": 195.99771799087463,
      "time": 112.333221,
      "duration": 0.31574042500001553,
      "velocity": 0.6456692913385826,
      "name": "G3"
    },
    {
      "midi": 60,
      "frequency": 261.6255653005986,
      "time": 112.333221,
      "duration": 0.31574042500001553,
      "velocity": 0.6456692913385826,
      "name": "C4"
    },
    {
      "midi": 71,
      "frequency": 493.8833012561241,
      "time": 112.444332,
      "duration": 0.42129587499999843,
      "velocity": 0.7244094488188977,
      "name": "B4"
    },
    {
      "midi": 76,
      "frequency": 659.2551138257398,
      "time": 112.444332,
      "duration": 0.42129587499999843,
      "velocity": 0.7244094488188977,
      "name": "E5"
    },
    {
      "midi": 79,
      "frequency": 783.9908719634986,
      "time": 112.444332,
      "duration": 0.42129587499999843,
      "velocity": 0.7244094488188977,
      "name": "G5"
    },
    {
      "midi": 48,
      "frequency": 130.8127826502993,
      "time": 112.666554,
      "duration": 0.21018497499999,
      "velocity": 0.6456692913385826,
      "name": "C3"
    },
    {
      "midi": 55,
      "frequency": 195.99771799087463,
      "time": 112.666554,
      "duration": 0.21018497499999,
      "velocity": 0.6456692913385826,
      "name": "G3"
    },
    {
      "midi": 60,
      "frequency": 261.6255653005986,
      "time": 112.666554,
      "duration": 0.21018497499999,
      "velocity": 0.6456692913385826,
      "name": "C4"
    },
    {
      "midi": 71,
      "frequency": 493.8833012561241,
      "time": 112.88877600000001,
      "duration": 0.4212958749999842,
      "velocity": 0.7244094488188977,
      "name": "B4"
    },
    {
      "midi": 76,
      "frequency": 659.2551138257398,
      "time": 112.88877600000001,
      "duration": 0.4212958749999842,
      "velocity": 0.7244094488188977,
      "name": "E5"
    },
    {
      "midi": 81,
      "frequency": 880,
      "time": 112.88877600000001,
      "duration": 0.4212958749999842,
      "velocity": 0.7244094488188977,
      "name": "A5"
    },
    {
      "midi": 71,
      "frequency": 493.8833012561241,
      "time": 113.33322,
      "duration": 0.42129587499999843,
      "velocity": 0.7244094488188977,
      "name": "B4"
    },
    {
      "midi": 76,
      "frequency": 659.2551138257398,
      "time": 113.33322,
      "duration": 0.42129587499999843,
      "velocity": 0.7244094488188977,
      "name": "E5"
    },
    {
      "midi": 83,
      "frequency": 987.7666025122483,
      "time": 113.33322,
      "duration": 0.42129587499999843,
      "velocity": 0.7244094488188977,
      "name": "B5"
    },
    {
      "midi": 57,
      "frequency": 220,
      "time": 113.33322,
      "duration": 0.21018497500000421,
      "velocity": 0.6456692913385826,
      "name": "A3"
    },
    {
      "midi": 62,
      "frequency": 293.6647679174076,
      "time": 113.33322,
      "duration": 0.21018497500000421,
      "velocity": 0.6456692913385826,
      "name": "D4"
    },
    {
      "midi": 50,
      "frequency": 146.8323839587038,
      "time": 113.555442,
      "duration": 0.21018497500000421,
      "velocity": 0.6456692913385826,
      "name": "D3"
    },
    {
      "midi": 40,
      "frequency": 82.40688922821748,
      "time": 113.777664,
      "duration": 0.3157404250000013,
      "velocity": 0.6456692913385826,
      "name": "E2"
    },
    {
      "midi": 52,
      "frequency": 164.81377845643496,
      "time": 113.777664,
      "duration": 0.3157404250000013,
      "velocity": 0.6456692913385826,
      "name": "E3"
    },
    {
      "midi": 76,
      "frequency": 659.2551138257398,
      "time": 113.999886,
      "duration": 0.1046295249999929,
      "velocity": 0.7244094488188977,
      "name": "E5"
    },
    {
      "midi": 81,
      "frequency": 880,
      "time": 113.999886,
      "duration": 0.1046295249999929,
      "velocity": 0.7244094488188977,
      "name": "A5"
    },
    {
      "midi": 79,
      "frequency": 783.9908719634986,
      "time": 114.110997,
      "duration": 0.1046295249999929,
      "velocity": 0.7244094488188977,
      "name": "G5"
    },
    {
      "midi": 52,
      "frequency": 164.81377845643496,
      "time": 114.110997,
      "duration": 0.3157404250000013,
      "velocity": 0.6456692913385826,
      "name": "E3"
    },
    {
      "midi": 59,
      "frequency": 246.94165062806206,
      "time": 114.110997,
      "duration": 0.3157404250000013,
      "velocity": 0.6456692913385826,
      "name": "B3"
    },
    {
      "midi": 64,
      "frequency": 329.6275569128699,
      "time": 114.110997,
      "duration": 0.3157404250000013,
      "velocity": 0.6456692913385826,
      "name": "E4"
    },
    {
      "midi": 76,
      "frequency": 659.2551138257398,
      "time": 114.222108,
      "duration": 0.21018497499999,
      "velocity": 0.7244094488188977,
      "name": "E5"
    },
    {
      "midi": 81,
      "frequency": 880,
      "time": 114.222108,
      "duration": 0.21018497499999,
      "velocity": 0.7244094488188977,
      "name": "A5"
    },
    {
      "midi": 76,
      "frequency": 659.2551138257398,
      "time": 114.44433000000001,
      "duration": 0.1046295249999929,
      "velocity": 0.7244094488188977,
      "name": "E5"
    },
    {
      "midi": 81,
      "frequency": 880,
      "time": 114.44433000000001,
      "duration": 0.1046295249999929,
      "velocity": 0.7244094488188977,
      "name": "A5"
    },
    {
      "midi": 52,
      "frequency": 164.81377845643496,
      "time": 114.44433000000001,
      "duration": 0.21018497499999,
      "velocity": 0.6456692913385826,
      "name": "E3"
    },
    {
      "midi": 59,
      "frequency": 246.94165062806206,
      "time": 114.44433000000001,
      "duration": 0.21018497499999,
      "velocity": 0.6456692913385826,
      "name": "B3"
    },
    {
      "midi": 64,
      "frequency": 329.6275569128699,
      "time": 114.44433000000001,
      "duration": 0.21018497499999,
      "velocity": 0.6456692913385826,
      "name": "E4"
    },
    {
      "midi": 79,
      "frequency": 783.9908719634986,
      "time": 114.555441,
      "duration": 0.1046295249999929,
      "velocity": 0.7244094488188977,
      "name": "G5"
    },
    {
      "midi": 78,
      "frequency": 739.9888454232689,
      "time": 114.666552,
      "duration": 0.31574042500001553,
      "velocity": 0.7244094488188977,
      "name": "F#5"
    },
    {
      "midi": 76,
      "frequency": 659.2551138257398,
      "time": 114.999885,
      "duration": 0.3157404250000013,
      "velocity": 0.7244094488188977,
      "name": "E5"
    },
    {
      "midi": 59,
      "frequency": 246.94165062806206,
      "time": 115.110996,
      "duration": 0.21018497500000421,
      "velocity": 0.6456692913385826,
      "name": "B3"
    },
    {
      "midi": 64,
      "frequency": 329.6275569128699,
      "time": 115.110996,
      "duration": 0.21018497500000421,
      "velocity": 0.6456692913385826,
      "name": "E4"
    },
    {
      "midi": 74,
      "frequency": 587.3295358348151,
      "time": 115.333218,
      "duration": 0.21018497500000421,
      "velocity": 0.7244094488188977,
      "name": "D5"
    },
    {
      "midi": 52,
      "frequency": 164.81377845643496,
      "time": 115.333218,
      "duration": 0.21018497500000421,
      "velocity": 0.6456692913385826,
      "name": "E3"
    },
    {
      "midi": 40,
      "frequency": 82.40688922821748,
      "time": 115.55544,
      "duration": 0.3157404250000013,
      "velocity": 0.6456692913385826,
      "name": "E2"
    },
    {
      "midi": 52,
      "frequency": 164.81377845643496,
      "time": 115.55544,
      "duration": 0.3157404250000013,
      "velocity": 0.6456692913385826,
      "name": "E3"
    },
    {
      "midi": 76,
      "frequency": 659.2551138257398,
      "time": 115.777662,
      "duration": 0.1046295249999929,
      "velocity": 0.7244094488188977,
      "name": "E5"
    },
    {
      "midi": 81,
      "frequency": 880,
      "time": 115.777662,
      "duration": 0.1046295249999929,
      "velocity": 0.7244094488188977,
      "name": "A5"
    },
    {
      "midi": 79,
      "frequency": 783.9908719634986,
      "time": 115.888773,
      "duration": 0.1046295249999929,
      "velocity": 0.7244094488188977,
      "name": "G5"
    },
    {
      "midi": 52,
      "frequency": 164.81377845643496,
      "time": 115.888773,
      "duration": 0.3157404250000013,
      "velocity": 0.6456692913385826,
      "name": "E3"
    },
    {
      "midi": 59,
      "frequency": 246.94165062806206,
      "time": 115.888773,
      "duration": 0.3157404250000013,
      "velocity": 0.6456692913385826,
      "name": "B3"
    },
    {
      "midi": 64,
      "frequency": 329.6275569128699,
      "time": 115.888773,
      "duration": 0.3157404250000013,
      "velocity": 0.6456692913385826,
      "name": "E4"
    },
    {
      "midi": 76,
      "frequency": 659.2551138257398,
      "time": 115.999884,
      "duration": 0.21018497500000421,
      "velocity": 0.7244094488188977,
      "name": "E5"
    },
    {
      "midi": 81,
      "frequency": 880,
      "time": 115.999884,
      "duration": 0.21018497500000421,
      "velocity": 0.7244094488188977,
      "name": "A5"
    },
    {
      "midi": 76,
      "frequency": 659.2551138257398,
      "time": 116.222106,
      "duration": 0.1046295249999929,
      "velocity": 0.7244094488188977,
      "name": "E5"
    },
    {
      "midi": 81,
      "frequency": 880,
      "time": 116.222106,
      "duration": 0.1046295249999929,
      "velocity": 0.7244094488188977,
      "name": "A5"
    },
    {
      "midi": 52,
      "frequency": 164.81377845643496,
      "time": 116.222106,
      "duration": 0.21018497500000421,
      "velocity": 0.6456692913385826,
      "name": "E3"
    },
    {
      "midi": 59,
      "frequency": 246.94165062806206,
      "time": 116.222106,
      "duration": 0.21018497500000421,
      "velocity": 0.6456692913385826,
      "name": "B3"
    },
    {
      "midi": 64,
      "frequency": 329.6275569128699,
      "time": 116.222106,
      "duration": 0.21018497500000421,
      "velocity": 0.6456692913385826,
      "name": "E4"
    },
    {
      "midi": 81,
      "frequency": 880,
      "time": 116.333217,
      "duration": 0.1046295249999929,
      "velocity": 0.7244094488188977,
      "name": "A5"
    },
    {
      "midi": 76,
      "frequency": 659.2551138257398,
      "time": 116.444328,
      "duration": 0.21018497500000421,
      "velocity": 0.7244094488188977,
      "name": "E5"
    },
    {
      "midi": 81,
      "frequency": 880,
      "time": 116.444328,
      "duration": 0.21018497500000421,
      "velocity": 0.7244094488188977,
      "name": "A5"
    },
    {
      "midi": 84,
      "frequency": 1046.5022612023945,
      "time": 116.66655,
      "duration": 0.21018497500000421,
      "velocity": 0.7244094488188977,
      "name": "C6"
    },
    {
      "midi": 71,
      "frequency": 493.8833012561241,
      "time": 116.888772,
      "duration": 0.21018497499999,
      "velocity": 0.7244094488188977,
      "name": "B4"
    },
    {
      "midi": 76,
      "frequency": 659.2551138257398,
      "time": 116.888772,
      "duration": 0.21018497499999,
      "velocity": 0.7244094488188977,
      "name": "E5"
    },
    {
      "midi": 83,
      "frequency": 987.7666025122483,
      "time": 116.888772,
      "duration": 0.21018497499999,
      "velocity": 0.7244094488188977,
      "name": "B5"
    },
    {
      "midi": 57,
      "frequency": 220,
      "time": 116.888772,
      "duration": 0.21018497499999,
      "velocity": 0.6456692913385826,
      "name": "A3"
    },
    {
      "midi": 62,
      "frequency": 293.6647679174076,
      "time": 116.888772,
      "duration": 0.21018497499999,
      "velocity": 0.6456692913385826,
      "name": "D4"
    },
    {
      "midi": 74,
      "frequency": 587.3295358348151,
      "time": 117.110994,
      "duration": 0.21018497499999,
      "velocity": 0.7244094488188977,
      "name": "D5"
    },
    {
      "midi": 50,
      "frequency": 146.8323839587038,
      "time": 117.110994,
      "duration": 0.21018497499999,
      "velocity": 0.6456692913385826,
      "name": "D3"
    },
    {
      "midi": 71,
      "frequency": 493.8833012561241,
      "time": 117.33321600000001,
      "duration": 0.42129587499999843,
      "velocity": 0.7244094488188977,
      "name": "B4"
    },
    {
      "midi": 76,
      "frequency": 659.2551138257398,
      "time": 117.33321600000001,
      "duration": 0.42129587499999843,
      "velocity": 0.7244094488188977,
      "name": "E5"
    },
    {
      "midi": 83,
      "frequency": 987.7666025122483,
      "time": 117.33321600000001,
      "duration": 0.42129587499999843,
      "velocity": 0.7244094488188977,
      "name": "B5"
    },
    {
      "midi": 40,
      "frequency": 82.40688922821748,
      "time": 117.33321600000001,
      "duration": 0.3157404250000013,
      "velocity": 0.6456692913385826,
      "name": "E2"
    },
    {
      "midi": 52,
      "frequency": 164.81377845643496,
      "time": 117.33321600000001,
      "duration": 0.3157404250000013,
      "velocity": 0.6456692913385826,
      "name": "E3"
    },
    {
      "midi": 40,
      "frequency": 82.40688922821748,
      "time": 117.666549,
      "duration": 0.1046295249999929,
      "velocity": 0.6692913385826772,
      "name": "E2"
    },
    {
      "midi": 72,
      "frequency": 523.2511306011972,
      "time": 117.77766,
      "duration": 0.21018497500000421,
      "velocity": 0.7559055118110236,
      "name": "C5"
    },
    {
      "midi": 84,
      "frequency": 1046.5022612023945,
      "time": 117.77766,
      "duration": 0.21018497500000421,
      "velocity": 0.7559055118110236,
      "name": "C6"
    },
    {
      "midi": 47,
      "frequency": 123.47082531403103,
      "time": 117.77766,
      "duration": 0.21018497500000421,
      "velocity": 0.6771653543307087,
      "name": "B2"
    },
    {
      "midi": 52,
      "frequency": 164.81377845643496,
      "time": 117.77766,
      "duration": 0.21018497500000421,
      "velocity": 0.6771653543307087,
      "name": "E3"
    },
    {
      "midi": 71,
      "frequency": 493.8833012561241,
      "time": 117.999882,
      "duration": 0.42129587500001264,
      "velocity": 0.7716535433070866,
      "name": "B4"
    },
    {
      "midi": 76,
      "frequency": 659.2551138257398,
      "time": 117.999882,
      "duration": 0.42129587500001264,
      "velocity": 0.7716535433070866,
      "name": "E5"
    },
    {
      "midi": 83,
      "frequency": 987.7666025122483,
      "time": 117.999882,
      "duration": 0.42129587500001264,
      "velocity": 0.7716535433070866,
      "name": "B5"
    },
    {
      "midi": 40,
      "frequency": 82.40688922821748,
      "time": 117.999882,
      "duration": 0.21018497500000421,
      "velocity": 0.6929133858267716,
      "name": "E2"
    },
    {
      "midi": 47,
      "frequency": 123.47082531403103,
      "time": 118.222104,
      "duration": 0.21018497500000421,
      "velocity": 0.7086614173228346,
      "name": "B2"
    },
    {
      "midi": 52,
      "frequency": 164.81377845643496,
      "time": 118.222104,
      "duration": 0.21018497500000421,
      "velocity": 0.7086614173228346,
      "name": "E3"
    },
    {
      "midi": 72,
      "frequency": 523.2511306011972,
      "time": 118.444326,
      "duration": 0.21018497499999,
      "velocity": 0.8031496062992126,
      "name": "C5"
    },
    {
      "midi": 84,
      "frequency": 1046.5022612023945,
      "time": 118.444326,
      "duration": 0.21018497499999,
      "velocity": 0.8031496062992126,
      "name": "C6"
    },
    {
      "midi": 40,
      "frequency": 82.40688922821748,
      "time": 118.444326,
      "duration": 0.21018497499999,
      "velocity": 0.7244094488188977,
      "name": "E2"
    },
    {
      "midi": 71,
      "frequency": 493.8833012561241,
      "time": 118.666548,
      "duration": 0.42129587499999843,
      "velocity": 0.8188976377952756,
      "name": "B4"
    },
    {
      "midi": 76,
      "frequency": 659.2551138257398,
      "time": 118.666548,
      "duration": 0.42129587499999843,
      "velocity": 0.8188976377952756,
      "name": "E5"
    },
    {
      "midi": 83,
      "frequency": 987.7666025122483,
      "time": 118.666548,
      "duration": 0.42129587499999843,
      "velocity": 0.8188976377952756,
      "name": "B5"
    },
    {
      "midi": 47,
      "frequency": 123.47082531403103,
      "time": 118.666548,
      "duration": 0.21018497499999,
      "velocity": 0.7401574803149606,
      "name": "B2"
    },
    {
      "midi": 52,
      "frequency": 164.81377845643496,
      "time": 118.666548,
      "duration": 0.21018497499999,
      "velocity": 0.7401574803149606,
      "name": "E3"
    },
    {
      "midi": 40,
      "frequency": 82.40688922821748,
      "time": 118.88877000000001,
      "duration": 0.21018497499999,
      "velocity": 0.7559055118110236,
      "name": "E2"
    },
    {
      "midi": 40,
      "frequency": 82.40688922821748,
      "time": 119.110992,
      "duration": 0.31574042500001553,
      "velocity": 0.7716535433070866,
      "name": "E2"
    },
    {
      "midi": 52,
      "frequency": 164.81377845643496,
      "time": 119.110992,
      "duration": 0.31574042500001553,
      "velocity": 0.7716535433070866,
      "name": "E3"
    },
    {
      "midi": 40,
      "frequency": 82.40688922821748,
      "time": 119.444325,
      "duration": 0.1046295249999929,
      "velocity": 0.7716535433070866,
      "name": "E2"
    },
    {
      "midi": 52,
      "frequency": 164.81377845643496,
      "time": 119.444325,
      "duration": 0.1046295249999929,
      "velocity": 0.7716535433070866,
      "name": "E3"
    },
    {
      "midi": 62,
      "frequency": 293.6647679174076,
      "time": 119.555436,
      "duration": 0.42129587500001264,
      "velocity": 0.8503937007874016,
      "name": "D4"
    },
    {
      "midi": 67,
      "frequency": 391.99543598174927,
      "time": 119.555436,
      "duration": 0.42129587500001264,
      "velocity": 0.8503937007874016,
      "name": "G4"
    },
    {
      "midi": 74,
      "frequency": 587.3295358348151,
      "time": 119.555436,
      "duration": 0.42129587500001264,
      "velocity": 0.8503937007874016,
      "name": "D5"
    },
    {
      "midi": 62,
      "frequency": 293.6647679174076,
      "time": 119.99988,
      "duration": 0.42129587499999843,
      "velocity": 0.8503937007874016,
      "name": "D4"
    },
    {
      "midi": 67,
      "frequency": 391.99543598174927,
      "time": 119.99988,
      "duration": 0.42129587499999843,
      "velocity": 0.8503937007874016,
      "name": "G4"
    },
    {
      "midi": 74,
      "frequency": 587.3295358348151,
      "time": 119.99988,
      "duration": 0.42129587499999843,
      "velocity": 0.8503937007874016,
      "name": "D5"
    },
    {
      "midi": 71,
      "frequency": 493.8833012561241,
      "time": 120.444324,
      "duration": 0.42129587500001264,
      "velocity": 0.8503937007874016,
      "name": "B4"
    },
    {
      "midi": 76,
      "frequency": 659.2551138257398,
      "time": 120.444324,
      "duration": 0.42129587500001264,
      "velocity": 0.8503937007874016,
      "name": "E5"
    },
    {
      "midi": 83,
      "frequency": 987.7666025122483,
      "time": 120.444324,
      "duration": 0.42129587500001264,
      "velocity": 0.8503937007874016,
      "name": "B5"
    },
    {
      "midi": 69,
      "frequency": 440,
      "time": 120.888768,
      "duration": 0.21018497500000421,
      "velocity": 0.8503937007874016,
      "name": "A4"
    },
    {
      "midi": 72,
      "frequency": 523.2511306011972,
      "time": 120.888768,
      "duration": 0.21018497500000421,
      "velocity": 0.8503937007874016,
      "name": "C5"
    },
    {
      "midi": 76,
      "frequency": 659.2551138257398,
      "time": 120.888768,
      "duration": 0.21018497500000421,
      "velocity": 0.8503937007874016,
      "name": "E5"
    },
    {
      "midi": 81,
      "frequency": 880,
      "time": 120.888768,
      "duration": 0.21018497500000421,
      "velocity": 0.8503937007874016,
      "name": "A5"
    },
    {
      "midi": 36,
      "frequency": 65.40639132514966,
      "time": 120.888768,
      "duration": 0.1046295249999929,
      "velocity": 0.7716535433070866,
      "name": "C2"
    },
    {
      "midi": 40,
      "frequency": 82.40688922821748,
      "time": 120.999879,
      "duration": 0.1046295249999929,
      "velocity": 0.7716535433070866,
      "name": "E2"
    },
    {
      "midi": 71,
      "frequency": 493.8833012561241,
      "time": 121.11099,
      "duration": 0.21018497500000421,
      "velocity": 0.8503937007874016,
      "name": "B4"
    },
    {
      "midi": 83,
      "frequency": 987.7666025122483,
      "time": 121.11099,
      "duration": 0.21018497500000421,
      "velocity": 0.8503937007874016,
      "name": "B5"
    },
    {
      "midi": 43,
      "frequency": 97.99885899543733,
      "time": 121.11099,
      "duration": 0.1046295249999929,
      "velocity": 0.7716535433070866,
      "name": "G2"
    },
    {
      "midi": 48,
      "frequency": 130.8127826502993,
      "time": 121.222101,
      "duration": 0.1046295249999929,
      "velocity": 0.7716535433070866,
      "name": "C3"
    },
    {
      "midi": 74,
      "frequency": 587.3295358348151,
      "time": 121.333212,
      "duration": 0.21018497499999,
      "velocity": 0.8503937007874016,
      "name": "D5"
    },
    {
      "midi": 86,
      "frequency": 1174.6590716696303,
      "time": 121.333212,
      "duration": 0.21018497499999,
      "velocity": 0.8503937007874016,
      "name": "D6"
    },
    {
      "midi": 55,
      "frequency": 195.99771799087463,
      "time": 121.333212,
      "duration": 0.21018497499999,
      "velocity": 0.7716535433070866,
      "name": "G3"
    },
    {
      "midi": 60,
      "frequency": 261.6255653005986,
      "time": 121.333212,
      "duration": 0.21018497499999,
      "velocity": 0.7716535433070866,
      "name": "C4"
    },
    {
      "midi": 71,
      "frequency": 493.8833012561241,
      "time": 121.555434,
      "duration": 0.21018497499999,
      "velocity": 0.8503937007874016,
      "name": "B4"
    },
    {
      "midi": 83,
      "frequency": 987.7666025122483,
      "time": 121.555434,
      "duration": 0.21018497499999,
      "velocity": 0.8503937007874016,
      "name": "B5"
    },
    {
      "midi": 48,
      "frequency": 130.8127826502993,
      "time": 121.555434,
      "duration": 0.21018497499999,
      "velocity": 0.7716535433070866,
      "name": "C3"
    },
    {
      "midi": 69,
      "frequency": 440,
      "time": 121.77765600000001,
      "duration": 0.21018497499999,
      "velocity": 0.8503937007874016,
      "name": "A4"
    },
    {
      "midi": 81,
      "frequency": 880,
      "time": 121.77765600000001,
      "duration": 0.21018497499999,
      "velocity": 0.8503937007874016,
      "name": "A5"
    },
    {
      "midi": 60,
      "frequency": 261.6255653005986,
      "time": 121.77765600000001,
      "duration": 0.1046295249999929,
      "velocity": 0.7716535433070866,
      "name": "C4"
    },
    {
      "midi": 55,
      "frequency": 195.99771799087463,
      "time": 121.888767,
      "duration": 0.1046295249999929,
      "velocity": 0.7716535433070866,
      "name": "G3"
    },
    {
      "midi": 71,
      "frequency": 493.8833012561241,
      "time": 121.999878,
      "duration": 0.1046295249999929,
      "velocity": 0.8503937007874016,
      "name": "B4"
    },
    {
      "midi": 83,
      "frequency": 987.7666025122483,
      "time": 121.999878,
      "duration": 0.1046295249999929,
      "velocity": 0.8503937007874016,
      "name": "B5"
    },
    {
      "midi": 52,
      "frequency": 164.81377845643496,
      "time": 121.999878,
      "duration": 0.1046295249999929,
      "velocity": 0.7716535433070866,
      "name": "E3"
    },
    {
      "midi": 71,
      "frequency": 493.8833012561241,
      "time": 122.110989,
      "duration": 0.3157404250000013,
      "velocity": 0.8503937007874016,
      "name": "B4"
    },
    {
      "midi": 83,
      "frequency": 987.7666025122483,
      "time": 122.110989,
      "duration": 0.3157404250000013,
      "velocity": 0.8503937007874016,
      "name": "B5"
    },
    {
      "midi": 48,
      "frequency": 130.8127826502993,
      "time": 122.110989,
      "duration": 0.1046295249999929,
      "velocity": 0.7716535433070866,
      "name": "C3"
    },
    {
      "midi": 60,
      "frequency": 261.6255653005986,
      "time": 122.2221,
      "duration": 0.1046295249999929,
      "velocity": 0.7716535433070866,
      "name": "C4"
    },
    {
      "midi": 55,
      "frequency": 195.99771799087463,
      "time": 122.333211,
      "duration": 0.1046295249999929,
      "velocity": 0.7716535433070866,
      "name": "G3"
    },
    {
      "midi": 67,
      "frequency": 391.99543598174927,
      "time": 122.444322,
      "duration": 0.21018497500000421,
      "velocity": 0.8503937007874016,
      "name": "G4"
    },
    {
      "midi": 79,
      "frequency": 783.9908719634986,
      "time": 122.444322,
      "duration": 0.21018497500000421,
      "velocity": 0.8503937007874016,
      "name": "G5"
    },
    {
      "midi": 52,
      "frequency": 164.81377845643496,
      "time": 122.444322,
      "duration": 0.1046295249999929,
      "velocity": 0.7716535433070866,
      "name": "E3"
    },
    {
      "midi": 48,
      "frequency": 130.8127826502993,
      "time": 122.55543300000001,
      "duration": 0.1046295249999929,
      "velocity": 0.7716535433070866,
      "name": "C3"
    },
    {
      "midi": 69,
      "frequency": 440,
      "time": 122.666544,
      "duration": 0.21018497500000421,
      "velocity": 0.8503937007874016,
      "name": "A4"
    },
    {
      "midi": 74,
      "frequency": 587.3295358348151,
      "time": 122.666544,
      "duration": 0.21018497500000421,
      "velocity": 0.8503937007874016,
      "name": "D5"
    },
    {
      "midi": 78,
      "frequency": 739.9888454232689,
      "time": 122.666544,
      "duration": 0.21018497500000421,
      "velocity": 0.8503937007874016,
      "name": "F#5"
    },
    {
      "midi": 81,
      "frequency": 880,
      "time": 122.666544,
      "duration": 0.21018497500000421,
      "velocity": 0.8503937007874016,
      "name": "A5"
    },
    {
      "midi": 38,
      "frequency": 73.41619197935188,
      "time": 122.666544,
      "duration": 0.1046295249999929,
      "velocity": 0.7716535433070866,
      "name": "D2"
    },
    {
      "midi": 42,
      "frequency": 92.49860567790861,
      "time": 122.777655,
      "duration": 0.1046295249999929,
      "velocity": 0.7716535433070866,
      "name": "F#2"
    },
    {
      "midi": 71,
      "frequency": 493.8833012561241,
      "time": 122.888766,
      "duration": 0.21018497499999,
      "velocity": 0.8503937007874016,
      "name": "B4"
    },
    {
      "midi": 83,
      "frequency": 987.7666025122483,
      "time": 122.888766,
      "duration": 0.21018497499999,
      "velocity": 0.8503937007874016,
      "name": "B5"
    },
    {
      "midi": 45,
      "frequency": 110,
      "time": 122.888766,
      "duration": 0.1046295249999929,
      "velocity": 0.7716535433070866,
      "name": "A2"
    },
    {
      "midi": 50,
      "frequency": 146.8323839587038,
      "time": 122.999877,
      "duration": 0.1046295249999929,
      "velocity": 0.7716535433070866,
      "name": "D3"
    },
    {
      "midi": 74,
      "frequency": 587.3295358348151,
      "time": 123.110988,
      "duration": 0.21018497499999,
      "velocity": 0.8503937007874016,
      "name": "D5"
    },
    {
      "midi": 86,
      "frequency": 1174.6590716696303,
      "time": 123.110988,
      "duration": 0.21018497499999,
      "velocity": 0.8503937007874016,
      "name": "D6"
    },
    {
      "midi": 57,
      "frequency": 220,
      "time": 123.110988,
      "duration": 0.21018497499999,
      "velocity": 0.7716535433070866,
      "name": "A3"
    },
    {
      "midi": 62,
      "frequency": 293.6647679174076,
      "time": 123.110988,
      "duration": 0.21018497499999,
      "velocity": 0.7716535433070866,
      "name": "D4"
    },
    {
      "midi": 71,
      "frequency": 493.8833012561241,
      "time": 123.33321000000001,
      "duration": 0.21018497499999,
      "velocity": 0.8503937007874016,
      "name": "B4"
    },
    {
      "midi": 83,
      "frequency": 987.7666025122483,
      "time": 123.33321000000001,
      "duration": 0.21018497499999,
      "velocity": 0.8503937007874016,
      "name": "B5"
    },
    {
      "midi": 50,
      "frequency": 146.8323839587038,
      "time": 123.33321000000001,
      "duration": 0.21018497499999,
      "velocity": 0.7716535433070866,
      "name": "D3"
    },
    {
      "midi": 69,
      "frequency": 440,
      "time": 123.555432,
      "duration": 0.21018497500000421,
      "velocity": 0.8503937007874016,
      "name": "A4"
    },
    {
      "midi": 81,
      "frequency": 880,
      "time": 123.555432,
      "duration": 0.21018497500000421,
      "velocity": 0.8503937007874016,
      "name": "A5"
    },
    {
      "midi": 62,
      "frequency": 293.6647679174076,
      "time": 123.555432,
      "duration": 0.1046295249999929,
      "velocity": 0.7716535433070866,
      "name": "D4"
    },
    {
      "midi": 57,
      "frequency": 220,
      "time": 123.666543,
      "duration": 0.1046295249999929,
      "velocity": 0.7716535433070866,
      "name": "A3"
    },
    {
      "midi": 71,
      "frequency": 493.8833012561241,
      "time": 123.777654,
      "duration": 0.1046295249999929,
      "velocity": 0.8503937007874016,
      "name": "B4"
    },
    {
      "midi": 83,
      "frequency": 987.7666025122483,
      "time": 123.777654,
      "duration": 0.1046295249999929,
      "velocity": 0.8503937007874016,
      "name": "B5"
    },
    {
      "midi": 54,
      "frequency": 184.99721135581723,
      "time": 123.777654,
      "duration": 0.1046295249999929,
      "velocity": 0.7716535433070866,
      "name": "F#3"
    },
    {
      "midi": 71,
      "frequency": 493.8833012561241,
      "time": 123.888765,
      "duration": 0.3157404250000013,
      "velocity": 0.8503937007874016,
      "name": "B4"
    },
    {
      "midi": 83,
      "frequency": 987.7666025122483,
      "time": 123.888765,
      "duration": 0.3157404250000013,
      "velocity": 0.8503937007874016,
      "name": "B5"
    },
    {
      "midi": 50,
      "frequency": 146.8323839587038,
      "time": 123.888765,
      "duration": 0.1046295249999929,
      "velocity": 0.7716535433070866,
      "name": "D3"
    },
    {
      "midi": 62,
      "frequency": 293.6647679174076,
      "time": 123.999876,
      "duration": 0.1046295249999929,
      "velocity": 0.7716535433070866,
      "name": "D4"
    },
    {
      "midi": 57,
      "frequency": 220,
      "time": 124.11098700000001,
      "duration": 0.1046295249999929,
      "velocity": 0.7716535433070866,
      "name": "A3"
    },
    {
      "midi": 62,
      "frequency": 293.6647679174076,
      "time": 124.222098,
      "duration": 0.21018497500000421,
      "velocity": 0.8503937007874016,
      "name": "D4"
    },
    {
      "midi": 74,
      "frequency": 587.3295358348151,
      "time": 124.222098,
      "duration": 0.21018497500000421,
      "velocity": 0.8503937007874016,
      "name": "D5"
    },
    {
      "midi": 54,
      "frequency": 184.99721135581723,
      "time": 124.222098,
      "duration": 0.1046295249999929,
      "velocity": 0.7716535433070866,
      "name": "F#3"
    },
    {
      "midi": 50,
      "frequency": 146.8323839587038,
      "time": 124.333209,
      "duration": 0.1046295249999929,
      "velocity": 0.7716535433070866,
      "name": "D3"
    },
    {
      "midi": 64,
      "frequency": 329.6275569128699,
      "time": 124.44432,
      "duration": 0.21018497499999,
      "velocity": 0.8503937007874016,
      "name": "E4"
    },
    {
      "midi": 67,
      "frequency": 391.99543598174927,
      "time": 124.44432,
      "duration": 0.21018497499999,
      "velocity": 0.8503937007874016,
      "name": "G4"
    },
    {
      "midi": 71,
      "frequency": 493.8833012561241,
      "time": 124.44432,
      "duration": 0.21018497499999,
      "velocity": 0.8503937007874016,
      "name": "B4"
    },
    {
      "midi": 76,
      "frequency": 659.2551138257398,
      "time": 124.44432,
      "duration": 0.21018497499999,
      "velocity": 0.8503937007874016,
      "name": "E5"
    },
    {
      "midi": 40,
      "frequency": 82.40688922821748,
      "time": 124.44432,
      "duration": 0.1046295249999929,
      "velocity": 0.7716535433070866,
      "name": "E2"
    },
    {
      "midi": 43,
      "frequency": 97.99885899543733,
      "time": 124.555431,
      "duration": 0.1046295249999929,
      "velocity": 0.7716535433070866,
      "name": "G2"
    },
    {
      "midi": 67,
      "frequency": 391.99543598174927,
      "time": 124.666542,
      "duration": 0.1046295249999929,
      "velocity": 0.8503937007874016,
      "name": "G4"
    },
    {
      "midi": 79,
      "frequency": 783.9908719634986,
      "time": 124.666542,
      "duration": 0.1046295249999929,
      "velocity": 0.8503937007874016,
      "name": "G5"
    },
    {
      "midi": 47,
      "frequency": 123.47082531403103,
      "time": 124.666542,
      "duration": 0.1046295249999929,
      "velocity": 0.7716535433070866,
      "name": "B2"
    },
    {
      "midi": 67,
      "frequency": 391.99543598174927,
      "time": 124.777653,
      "duration": 0.3157404250000013,
      "velocity": 0.8503937007874016,
      "name": "G4"
    },
    {
      "midi": 79,
      "frequency": 783.9908719634986,
      "time": 124.777653,
      "duration": 0.3157404250000013,
      "velocity": 0.8503937007874016,
      "name": "G5"
    },
    {
      "midi": 52,
      "frequency": 164.81377845643496,
      "time": 124.777653,
      "duration": 0.1046295249999929,
      "velocity": 0.7716535433070866,
      "name": "E3"
    },
    {
      "midi": 59,
      "frequency": 246.94165062806206,
      "time": 124.888764,
      "duration": 0.21018497500000421,
      "velocity": 0.7716535433070866,
      "name": "B3"
    },
    {
      "midi": 64,
      "frequency": 329.6275569128699,
      "time": 124.888764,
      "duration": 0.21018497500000421,
      "velocity": 0.7716535433070866,
      "name": "E4"
    },
    {
      "midi": 62,
      "frequency": 293.6647679174076,
      "time": 125.110986,
      "duration": 0.21018497500000421,
      "velocity": 0.8503937007874016,
      "name": "D4"
    },
    {
      "midi": 74,
      "frequency": 587.3295358348151,
      "time": 125.110986,
      "duration": 0.21018497500000421,
      "velocity": 0.8503937007874016,
      "name": "D5"
    },
    {
      "midi": 52,
      "frequency": 164.81377845643496,
      "time": 125.110986,
      "duration": 0.21018497500000421,
      "velocity": 0.7716535433070866,
      "name": "E3"
    },
    {
      "midi": 62,
      "frequency": 293.6647679174076,
      "time": 125.333208,
      "duration": 0.21018497500000421,
      "velocity": 0.8503937007874016,
      "name": "D4"
    },
    {
      "midi": 74,
      "frequency": 587.3295358348151,
      "time": 125.333208,
      "duration": 0.21018497500000421,
      "velocity": 0.8503937007874016,
      "name": "D5"
    },
    {
      "midi": 64,
      "frequency": 329.6275569128699,
      "time": 125.333208,
      "duration": 0.1046295249999929,
      "velocity": 0.7716535433070866,
      "name": "E4"
    },
    {
      "midi": 59,
      "frequency": 246.94165062806206,
      "time": 125.44431900000001,
      "duration": 0.1046295249999929,
      "velocity": 0.7716535433070866,
      "name": "B3"
    },
    {
      "midi": 67,
      "frequency": 391.99543598174927,
      "time": 125.55543,
      "duration": 0.21018497500000421,
      "velocity": 0.8503937007874016,
      "name": "G4"
    },
    {
      "midi": 79,
      "frequency": 783.9908719634986,
      "time": 125.55543,
      "duration": 0.21018497500000421,
      "velocity": 0.8503937007874016,
      "name": "G5"
    },
    {
      "midi": 55,
      "frequency": 195.99771799087463,
      "time": 125.55543,
      "duration": 0.1046295249999929,
      "velocity": 0.7716535433070866,
      "name": "G3"
    },
    {
      "midi": 52,
      "frequency": 164.81377845643496,
      "time": 125.666541,
      "duration": 0.1046295249999929,
      "velocity": 0.7716535433070866,
      "name": "E3"
    },
    {
      "midi": 69,
      "frequency": 440,
      "time": 125.777652,
      "duration": 0.21018497499999,
      "velocity": 0.8503937007874016,
      "name": "A4"
    },
    {
      "midi": 81,
      "frequency": 880,
      "time": 125.777652,
      "duration": 0.21018497499999,
      "velocity": 0.8503937007874016,
      "name": "A5"
    },
    {
      "midi": 64,
      "frequency": 329.6275569128699,
      "time": 125.777652,
      "duration": 0.1046295249999929,
      "velocity": 0.7716535433070866,
      "name": "E4"
    },
    {
      "midi": 59,
      "frequency": 246.94165062806206,
      "time": 125.888763,
      "duration": 0.1046295249999929,
      "velocity": 0.7716535433070866,
      "name": "B3"
    },
    {
      "midi": 67,
      "frequency": 391.99543598174927,
      "time": 125.999874,
      "duration": 0.21018497499999,
      "velocity": 0.8503937007874016,
      "name": "G4"
    },
    {
      "midi": 79,
      "frequency": 783.9908719634986,
      "time": 125.999874,
      "duration": 0.21018497499999,
      "velocity": 0.8503937007874016,
      "name": "G5"
    },
    {
      "midi": 55,
      "frequency": 195.99771799087463,
      "time": 125.999874,
      "duration": 0.1046295249999929,
      "velocity": 0.7716535433070866,
      "name": "G3"
    },
    {
      "midi": 52,
      "frequency": 164.81377845643496,
      "time": 126.110985,
      "duration": 0.1046295249999929,
      "velocity": 0.7716535433070866,
      "name": "E3"
    },
    {
      "midi": 74,
      "frequency": 587.3295358348151,
      "time": 126.22209600000001,
      "duration": 0.42129587499999843,
      "velocity": 0.8503937007874016,
      "name": "D5"
    },
    {
      "midi": 78,
      "frequency": 739.9888454232689,
      "time": 126.22209600000001,
      "duration": 0.42129587499999843,
      "velocity": 0.8503937007874016,
      "name": "F#5"
    },
    {
      "midi": 81,
      "frequency": 880,
      "time": 126.22209600000001,
      "duration": 0.42129587499999843,
      "velocity": 0.8503937007874016,
      "name": "A5"
    },
    {
      "midi": 86,
      "frequency": 1174.6590716696303,
      "time": 126.22209600000001,
      "duration": 0.42129587499999843,
      "velocity": 0.8503937007874016,
      "name": "D6"
    },
    {
      "midi": 38,
      "frequency": 73.41619197935188,
      "time": 126.22209600000001,
      "duration": 0.1046295249999929,
      "velocity": 0.7716535433070866,
      "name": "D2"
    },
    {
      "midi": 42,
      "frequency": 92.49860567790861,
      "time": 126.333207,
      "duration": 0.1046295249999929,
      "velocity": 0.7716535433070866,
      "name": "F#2"
    },
    {
      "midi": 45,
      "frequency": 110,
      "time": 126.444318,
      "duration": 0.1046295249999929,
      "velocity": 0.7716535433070866,
      "name": "A2"
    },
    {
      "midi": 50,
      "frequency": 146.8323839587038,
      "time": 126.555429,
      "duration": 0.1046295249999929,
      "velocity": 0.7716535433070866,
      "name": "D3"
    },
    {
      "midi": 72,
      "frequency": 523.2511306011972,
      "time": 126.66654,
      "duration": 0.42129587500001264,
      "velocity": 0.8503937007874016,
      "name": "C5"
    },
    {
      "midi": 78,
      "frequency": 739.9888454232689,
      "time": 126.66654,
      "duration": 0.42129587500001264,
      "velocity": 0.8503937007874016,
      "name": "F#5"
    },
    {
      "midi": 81,
      "frequency": 880,
      "time": 126.66654,
      "duration": 0.42129587500001264,
      "velocity": 0.8503937007874016,
      "name": "A5"
    },
    {
      "midi": 84,
      "frequency": 1046.5022612023945,
      "time": 126.66654,
      "duration": 0.42129587500001264,
      "velocity": 0.8503937007874016,
      "name": "C6"
    },
    {
      "midi": 57,
      "frequency": 220,
      "time": 126.66654,
      "duration": 0.21018497500000421,
      "velocity": 0.7716535433070866,
      "name": "A3"
    },
    {
      "midi": 62,
      "frequency": 293.6647679174076,
      "time": 126.66654,
      "duration": 0.21018497500000421,
      "velocity": 0.7716535433070866,
      "name": "D4"
    },
    {
      "midi": 50,
      "frequency": 146.8323839587038,
      "time": 126.888762,
      "duration": 0.21018497500000421,
      "velocity": 0.7716535433070866,
      "name": "D3"
    },
    {
      "midi": 71,
      "frequency": 493.8833012561241,
      "time": 127.110984,
      "duration": 0.3157404250000013,
      "velocity": 0.8503937007874016,
      "name": "B4"
    },
    {
      "midi": 78,
      "frequency": 739.9888454232689,
      "time": 127.110984,
      "duration": 0.3157404250000013,
      "velocity": 0.8503937007874016,
      "name": "F#5"
    },
    {
      "midi": 83,
      "frequency": 987.7666025122483,
      "time": 127.110984,
      "duration": 0.3157404250000013,
      "velocity": 0.8503937007874016,
      "name": "B5"
    },
    {
      "midi": 62,
      "frequency": 293.6647679174076,
      "time": 127.110984,
      "duration": 0.1046295249999929,
      "velocity": 0.7716535433070866,
      "name": "D4"
    },
    {
      "midi": 57,
      "frequency": 220,
      "time": 127.222095,
      "duration": 0.1046295249999929,
      "velocity": 0.7716535433070866,
      "name": "A3"
    },
    {
      "midi": 54,
      "frequency": 184.99721135581723,
      "time": 127.333206,
      "duration": 0.1046295249999929,
      "velocity": 0.7716535433070866,
      "name": "F#3"
    },
    {
      "midi": 69,
      "frequency": 440,
      "time": 127.444317,
      "duration": 0.3157404250000013,
      "velocity": 0.8503937007874016,
      "name": "A4"
    },
    {
      "midi": 81,
      "frequency": 880,
      "time": 127.444317,
      "duration": 0.3157404250000013,
      "velocity": 0.8503937007874016,
      "name": "A5"
    },
    {
      "midi": 50,
      "frequency": 146.8323839587038,
      "time": 127.444317,
      "duration": 0.1046295249999929,
      "velocity": 0.7716535433070866,
      "name": "D3"
    },
    {
      "midi": 62,
      "frequency": 293.6647679174076,
      "time": 127.555428,
      "duration": 0.1046295249999929,
      "velocity": 0.7716535433070866,
      "name": "D4"
    },
    {
      "midi": 57,
      "frequency": 220,
      "time": 127.666539,
      "duration": 0.1046295249999929,
      "velocity": 0.7716535433070866,
      "name": "A3"
    },
    {
      "midi": 67,
      "frequency": 391.99543598174927,
      "time": 127.77765000000001,
      "duration": 0.21018497499999,
      "velocity": 0.8503937007874016,
      "name": "G4"
    },
    {
      "midi": 79,
      "frequency": 783.9908719634986,
      "time": 127.77765000000001,
      "duration": 0.21018497499999,
      "velocity": 0.8503937007874016,
      "name": "G5"
    },
    {
      "midi": 54,
      "frequency": 184.99721135581723,
      "time": 127.77765000000001,
      "duration": 0.1046295249999929,
      "velocity": 0.7716535433070866,
      "name": "F#3"
    },
    {
      "midi": 50,
      "frequency": 146.8323839587038,
      "time": 127.888761,
      "duration": 0.1046295249999929,
      "velocity": 0.7716535433070866,
      "name": "D3"
    },
    {
      "midi": 67,
      "frequency": 391.99543598174927,
      "time": 127.999872,
      "duration": 0.6324067750000069,
      "velocity": 0.8503937007874016,
      "name": "G4"
    },
    {
      "midi": 72,
      "frequency": 523.2511306011972,
      "time": 127.999872,
      "duration": 0.6324067750000069,
      "velocity": 0.8503937007874016,
      "name": "C5"
    },
    {
      "midi": 76,
      "frequency": 659.2551138257398,
      "time": 127.999872,
      "duration": 0.6324067750000069,
      "velocity": 0.8503937007874016,
      "name": "E5"
    },
    {
      "midi": 79,
      "frequency": 783.9908719634986,
      "time": 127.999872,
      "duration": 0.6324067750000069,
      "velocity": 0.8503937007874016,
      "name": "G5"
    },
    {
      "midi": 36,
      "frequency": 65.40639132514966,
      "time": 127.999872,
      "duration": 0.1046295249999929,
      "velocity": 0.7716535433070866,
      "name": "C2"
    },
    {
      "midi": 40,
      "frequency": 82.40688922821748,
      "time": 128.110983,
      "duration": 0.10462952499997868,
      "velocity": 0.7716535433070866,
      "name": "E2"
    },
    {
      "midi": 43,
      "frequency": 97.99885899543733,
      "time": 128.222094,
      "duration": 0.1046295250000071,
      "velocity": 0.7716535433070866,
      "name": "G2"
    },
    {
      "midi": 48,
      "frequency": 130.8127826502993,
      "time": 128.333205,
      "duration": 0.1046295250000071,
      "velocity": 0.7716535433070866,
      "name": "C3"
    },
    {
      "midi": 55,
      "frequency": 195.99771799087463,
      "time": 128.44431600000001,
      "duration": 0.2101849749999758,
      "velocity": 0.7716535433070866,
      "name": "G3"
    },
    {
      "midi": 60,
      "frequency": 261.6255653005986,
      "time": 128.44431600000001,
      "duration": 0.2101849749999758,
      "velocity": 0.7716535433070866,
      "name": "C4"
    },
    {
      "midi": 67,
      "frequency": 391.99543598174927,
      "time": 128.666538,
      "duration": 0.42129587499999843,
      "velocity": 0.8503937007874016,
      "name": "G4"
    },
    {
      "midi": 79,
      "frequency": 783.9908719634986,
      "time": 128.666538,
      "duration": 0.42129587499999843,
      "velocity": 0.8503937007874016,
      "name": "G5"
    },
    {
      "midi": 48,
      "frequency": 130.8127826502993,
      "time": 128.666538,
      "duration": 0.21018497500000421,
      "velocity": 0.7716535433070866,
      "name": "C3"
    },
    {
      "midi": 60,
      "frequency": 261.6255653005986,
      "time": 128.88876,
      "duration": 0.1046295250000071,
      "velocity": 0.7716535433070866,
      "name": "C4"
    },
    {
      "midi": 55,
      "frequency": 195.99771799087463,
      "time": 128.999871,
      "duration": 0.10462952499997868,
      "velocity": 0.7716535433070866,
      "name": "G3"
    },
    {
      "midi": 69,
      "frequency": 440,
      "time": 129.110982,
      "duration": 0.21018497500000421,
      "velocity": 0.8503937007874016,
      "name": "A4"
    },
    {
      "midi": 81,
      "frequency": 880,
      "time": 129.110982,
      "duration": 0.21018497500000421,
      "velocity": 0.8503937007874016,
      "name": "A5"
    },
    {
      "midi": 52,
      "frequency": 164.81377845643496,
      "time": 129.110982,
      "duration": 0.10462952499997868,
      "velocity": 0.7716535433070866,
      "name": "E3"
    },
    {
      "midi": 48,
      "frequency": 130.8127826502993,
      "time": 129.222093,
      "duration": 0.1046295250000071,
      "velocity": 0.7716535433070866,
      "name": "C3"
    },
    {
      "midi": 71,
      "frequency": 493.8833012561241,
      "time": 129.333204,
      "duration": 0.21018497500000421,
      "velocity": 0.8503937007874016,
      "name": "B4"
    },
    {
      "midi": 83,
      "frequency": 987.7666025122483,
      "time": 129.333204,
      "duration": 0.21018497500000421,
      "velocity": 0.8503937007874016,
      "name": "B5"
    },
    {
      "midi": 60,
      "frequency": 261.6255653005986,
      "time": 129.333204,
      "duration": 0.1046295250000071,
      "velocity": 0.7716535433070866,
      "name": "C4"
    },
    {
      "midi": 55,
      "frequency": 195.99771799087463,
      "time": 129.444315,
      "duration": 0.1046295250000071,
      "velocity": 0.7716535433070866,
      "name": "G3"
    },
    {
      "midi": 69,
      "frequency": 440,
      "time": 129.555426,
      "duration": 0.6324067749999926,
      "velocity": 0.8503937007874016,
      "name": "A4"
    },
    {
      "midi": 75,
      "frequency": 622.2539674441618,
      "time": 129.555426,
      "duration": 0.6324067749999926,
      "velocity": 0.8503937007874016,
      "name": "D#5"
    },
    {
      "midi": 78,
      "frequency": 739.9888454232689,
      "time": 129.555426,
      "duration": 0.6324067749999926,
      "velocity": 0.8503937007874016,
      "name": "F#5"
    },
    {
      "midi": 81,
      "frequency": 880,
      "time": 129.555426,
      "duration": 0.6324067749999926,
      "velocity": 0.8503937007874016,
      "name": "A5"
    },
    {
      "midi": 52,
      "frequency": 164.81377845643496,
      "time": 129.555426,
      "duration": 0.10462952499997868,
      "velocity": 0.7716535433070866,
      "name": "E3"
    },
    {
      "midi": 48,
      "frequency": 130.8127826502993,
      "time": 129.666537,
      "duration": 0.10462952499997868,
      "velocity": 0.7716535433070866,
      "name": "C3"
    },
    {
      "midi": 35,
      "frequency": 61.7354126570155,
      "time": 129.777648,
      "duration": 0.1046295250000071,
      "velocity": 0.7716535433070866,
      "name": "B1"
    },
    {
      "midi": 39,
      "frequency": 77.78174593052022,
      "time": 129.888759,
      "duration": 0.1046295250000071,
      "velocity": 0.7716535433070866,
      "name": "D#2"
    },
    {
      "midi": 42,
      "frequency": 92.49860567790861,
      "time": 129.99987000000002,
      "duration": 0.10462952499997868,
      "velocity": 0.7716535433070866,
      "name": "F#2"
    },
    {
      "midi": 47,
      "frequency": 123.47082531403103,
      "time": 130.110981,
      "duration": 0.10462952499997868,
      "velocity": 0.7716535433070866,
      "name": "B2"
    },
    {
      "midi": 66,
      "frequency": 369.99442271163446,
      "time": 130.222092,
      "duration": 0.21018497500000421,
      "velocity": 0.8503937007874016,
      "name": "F#4"
    },
    {
      "midi": 78,
      "frequency": 739.9888454232689,
      "time": 130.222092,
      "duration": 0.21018497500000421,
      "velocity": 0.8503937007874016,
      "name": "F#5"
    },
    {
      "midi": 54,
      "frequency": 184.99721135581723,
      "time": 130.222092,
      "duration": 0.21018497500000421,
      "velocity": 0.7716535433070866,
      "name": "F#3"
    },
    {
      "midi": 59,
      "frequency": 246.94165062806206,
      "time": 130.222092,
      "duration": 0.21018497500000421,
      "velocity": 0.7716535433070866,
      "name": "B3"
    },
    {
      "midi": 69,
      "frequency": 440,
      "time": 130.444314,
      "duration": 0.42129587500002685,
      "velocity": 0.8503937007874016,
      "name": "A4"
    },
    {
      "midi": 81,
      "frequency": 880,
      "time": 130.444314,
      "duration": 0.42129587500002685,
      "velocity": 0.8503937007874016,
      "name": "A5"
    },
    {
      "midi": 47,
      "frequency": 123.47082531403103,
      "time": 130.444314,
      "duration": 0.21018497500000421,
      "velocity": 0.7716535433070866,
      "name": "B2"
    },
    {
      "midi": 59,
      "frequency": 246.94165062806206,
      "time": 130.666536,
      "duration": 0.10462952499997868,
      "velocity": 0.7716535433070866,
      "name": "B3"
    },
    {
      "midi": 54,
      "frequency": 184.99721135581723,
      "time": 130.777647,
      "duration": 0.1046295250000071,
      "velocity": 0.7716535433070866,
      "name": "F#3"
    },
    {
      "midi": 71,
      "frequency": 493.8833012561241,
      "time": 130.888758,
      "duration": 0.21018497500000421,
      "velocity": 0.8503937007874016,
      "name": "B4"
    },
    {
      "midi": 83,
      "frequency": 987.7666025122483,
      "time": 130.888758,
      "duration": 0.21018497500000421,
      "velocity": 0.8503937007874016,
      "name": "B5"
    },
    {
      "midi": 51,
      "frequency": 155.56349186104043,
      "time": 130.888758,
      "duration": 0.1046295250000071,
      "velocity": 0.7716535433070866,
      "name": "D#3"
    },
    {
      "midi": 47,
      "frequency": 123.47082531403103,
      "time": 130.999869,
      "duration": 0.1046295250000071,
      "velocity": 0.7716535433070866,
      "name": "B2"
    },
    {
      "midi": 74,
      "frequency": 587.3295358348151,
      "time": 131.11098,
      "duration": 0.2101849749999758,
      "velocity": 0.8503937007874016,
      "name": "D5"
    },
    {
      "midi": 86,
      "frequency": 1174.6590716696303,
      "time": 131.11098,
      "duration": 0.2101849749999758,
      "velocity": 0.8503937007874016,
      "name": "D6"
    },
    {
      "midi": 59,
      "frequency": 246.94165062806206,
      "time": 131.11098,
      "duration": 0.10462952499997868,
      "velocity": 0.7716535433070866,
      "name": "B3"
    },
    {
      "midi": 54,
      "frequency": 184.99721135581723,
      "time": 131.222091,
      "duration": 0.10462952499997868,
      "velocity": 0.7716535433070866,
      "name": "F#3"
    },
    {
      "midi": 71,
      "frequency": 493.8833012561241,
      "time": 131.333202,
      "duration": 1.054628574999981,
      "velocity": 0.8503937007874016,
      "name": "B4"
    },
    {
      "midi": 76,
      "frequency": 659.2551138257398,
      "time": 131.333202,
      "duration": 1.054628574999981,
      "velocity": 0.8503937007874016,
      "name": "E5"
    },
    {
      "midi": 79,
      "frequency": 783.9908719634986,
      "time": 131.333202,
      "duration": 1.054628574999981,
      "velocity": 0.8503937007874016,
      "name": "G5"
    },
    {
      "midi": 83,
      "frequency": 987.7666025122483,
      "time": 131.333202,
      "duration": 1.054628574999981,
      "velocity": 0.8503937007874016,
      "name": "B5"
    },
    {
      "midi": 51,
      "frequency": 155.56349186104043,
      "time": 131.333202,
      "duration": 0.1046295250000071,
      "velocity": 0.7716535433070866,
      "name": "D#3"
    },
    {
      "midi": 47,
      "frequency": 123.47082531403103,
      "time": 131.444313,
      "duration": 0.1046295250000071,
      "velocity": 0.7716535433070866,
      "name": "B2"
    },
    {
      "midi": 40,
      "frequency": 82.40688922821748,
      "time": 131.555424,
      "duration": 0.31574042500002975,
      "velocity": 1,
      "name": "E2"
    },
    {
      "midi": 52,
      "frequency": 164.81377845643496,
      "time": 131.555424,
      "duration": 0.31574042500002975,
      "velocity": 1,
      "name": "E3"
    },
    {
      "midi": 57,
      "frequency": 220,
      "time": 131.888757,
      "duration": 0.3157404250000013,
      "velocity": 0.8503937007874016,
      "name": "A3"
    },
    {
      "midi": 62,
      "frequency": 293.6647679174076,
      "time": 131.888757,
      "duration": 0.3157404250000013,
      "velocity": 0.8503937007874016,
      "name": "D4"
    },
    {
      "midi": 38,
      "frequency": 73.41619197935188,
      "time": 131.888757,
      "duration": 0.3157404250000013,
      "velocity": 0.7716535433070866,
      "name": "D2"
    },
    {
      "midi": 50,
      "frequency": 146.8323839587038,
      "time": 131.888757,
      "duration": 0.3157404250000013,
      "velocity": 0.7716535433070866,
      "name": "D3"
    },
    {
      "midi": 59,
      "frequency": 246.94165062806206,
      "time": 132.22209,
      "duration": 0.21018497500000421,
      "velocity": 0.8503937007874016,
      "name": "B3"
    },
    {
      "midi": 64,
      "frequency": 329.6275569128699,
      "time": 132.22209,
      "duration": 0.21018497500000421,
      "velocity": 0.8503937007874016,
      "name": "E4"
    },
    {
      "midi": 40,
      "frequency": 82.40688922821748,
      "time": 132.22209,
      "duration": 0.21018497500000421,
      "velocity": 0.7716535433070866,
      "name": "E2"
    },
    {
      "midi": 52,
      "frequency": 164.81377845643496,
      "time": 132.22209,
      "duration": 0.21018497500000421,
      "velocity": 0.7716535433070866,
      "name": "E3"
    },
    {
      "midi": 59,
      "frequency": 246.94165062806206,
      "time": 132.666534,
      "duration": 0.2101849749999758,
      "velocity": 0.8503937007874016,
      "name": "B3"
    },
    {
      "midi": 38,
      "frequency": 73.41619197935188,
      "time": 132.666534,
      "duration": 0.2101849749999758,
      "velocity": 0.7716535433070866,
      "name": "D2"
    },
    {
      "midi": 50,
      "frequency": 146.8323839587038,
      "time": 132.666534,
      "duration": 0.2101849749999758,
      "velocity": 0.7716535433070866,
      "name": "D3"
    },
    {
      "midi": 64,
      "frequency": 329.6275569128699,
      "time": 132.888756,
      "duration": 0.1046295250000071,
      "velocity": 1,
      "name": "E4"
    },
    {
      "midi": 71,
      "frequency": 493.8833012561241,
      "time": 132.888756,
      "duration": 0.1046295250000071,
      "velocity": 1,
      "name": "B4"
    },
    {
      "midi": 40,
      "frequency": 82.40688922821748,
      "time": 132.888756,
      "duration": 0.21018497500000421,
      "velocity": 0.7716535433070866,
      "name": "E2"
    },
    {
      "midi": 52,
      "frequency": 164.81377845643496,
      "time": 132.888756,
      "duration": 0.21018497500000421,
      "velocity": 0.7716535433070866,
      "name": "E3"
    },
    {
      "midi": 59,
      "frequency": 246.94165062806206,
      "time": 132.999867,
      "duration": 0.1046295250000071,
      "velocity": 0.8503937007874016,
      "name": "B3"
    },
    {
      "midi": 64,
      "frequency": 329.6275569128699,
      "time": 133.110978,
      "duration": 0.1046295250000071,
      "velocity": 0.8503937007874016,
      "name": "E4"
    },
    {
      "midi": 71,
      "frequency": 493.8833012561241,
      "time": 133.110978,
      "duration": 0.1046295250000071,
      "velocity": 0.8503937007874016,
      "name": "B4"
    },
    {
      "midi": 40,
      "frequency": 82.40688922821748,
      "time": 133.110978,
      "duration": 0.21018497500000421,
      "velocity": 0.7716535433070866,
      "name": "E2"
    },
    {
      "midi": 52,
      "frequency": 164.81377845643496,
      "time": 133.110978,
      "duration": 0.21018497500000421,
      "velocity": 0.7716535433070866,
      "name": "E3"
    },
    {
      "midi": 59,
      "frequency": 246.94165062806206,
      "time": 133.222089,
      "duration": 0.10462952499997868,
      "velocity": 0.8503937007874016,
      "name": "B3"
    },
    {
      "midi": 62,
      "frequency": 293.6647679174076,
      "time": 133.3332,
      "duration": 0.10462952499997868,
      "velocity": 1,
      "name": "D4"
    },
    {
      "midi": 69,
      "frequency": 440,
      "time": 133.3332,
      "duration": 0.10462952499997868,
      "velocity": 1,
      "name": "A4"
    },
    {
      "midi": 40,
      "frequency": 82.40688922821748,
      "time": 133.3332,
      "duration": 0.3157404250000013,
      "velocity": 0.7716535433070866,
      "name": "E2"
    },
    {
      "midi": 52,
      "frequency": 164.81377845643496,
      "time": 133.3332,
      "duration": 0.3157404250000013,
      "velocity": 0.7716535433070866,
      "name": "E3"
    },
    {
      "midi": 57,
      "frequency": 220,
      "time": 133.444311,
      "duration": 0.1046295250000071,
      "velocity": 0.8503937007874016,
      "name": "A3"
    },
    {
      "midi": 62,
      "frequency": 293.6647679174076,
      "time": 133.555422,
      "duration": 0.1046295250000071,
      "velocity": 0.8503937007874016,
      "name": "D4"
    },
    {
      "midi": 69,
      "frequency": 440,
      "time": 133.555422,
      "duration": 0.1046295250000071,
      "velocity": 0.8503937007874016,
      "name": "A4"
    },
    {
      "midi": 57,
      "frequency": 220,
      "time": 133.66653300000002,
      "duration": 0.10462952499997868,
      "velocity": 0.8503937007874016,
      "name": "A3"
    },
    {
      "midi": 38,
      "frequency": 73.41619197935188,
      "time": 133.66653300000002,
      "duration": 0.3157404250000013,
      "velocity": 0.7716535433070866,
      "name": "D2"
    },
    {
      "midi": 50,
      "frequency": 146.8323839587038,
      "time": 133.66653300000002,
      "duration": 0.3157404250000013,
      "velocity": 0.7716535433070866,
      "name": "D3"
    },
    {
      "midi": 62,
      "frequency": 293.6647679174076,
      "time": 133.777644,
      "duration": 0.42129587499999843,
      "velocity": 0.8503937007874016,
      "name": "D4"
    },
    {
      "midi": 67,
      "frequency": 391.99543598174927,
      "time": 133.777644,
      "duration": 0.42129587499999843,
      "velocity": 0.8503937007874016,
      "name": "G4"
    },
    {
      "midi": 74,
      "frequency": 587.3295358348151,
      "time": 133.777644,
      "duration": 0.42129587499999843,
      "velocity": 0.8503937007874016,
      "name": "D5"
    },
    {
      "midi": 40,
      "frequency": 82.40688922821748,
      "time": 133.999866,
      "duration": 0.21018497500000421,
      "velocity": 0.7716535433070866,
      "name": "E2"
    },
    {
      "midi": 52,
      "frequency": 164.81377845643496,
      "time": 133.999866,
      "duration": 0.21018497500000421,
      "velocity": 0.7716535433070866,
      "name": "E3"
    },
    {
      "midi": 62,
      "frequency": 293.6647679174076,
      "time": 134.222088,
      "duration": 0.42129587499999843,
      "velocity": 0.8503937007874016,
      "name": "D4"
    },
    {
      "midi": 67,
      "frequency": 391.99543598174927,
      "time": 134.222088,
      "duration": 0.42129587499999843,
      "velocity": 0.8503937007874016,
      "name": "G4"
    },
    {
      "midi": 74,
      "frequency": 587.3295358348151,
      "time": 134.222088,
      "duration": 0.42129587499999843,
      "velocity": 0.8503937007874016,
      "name": "D5"
    },
    {
      "midi": 38,
      "frequency": 73.41619197935188,
      "time": 134.44431,
      "duration": 0.21018497500000421,
      "velocity": 0.7716535433070866,
      "name": "D2"
    },
    {
      "midi": 50,
      "frequency": 146.8323839587038,
      "time": 134.44431,
      "duration": 0.21018497500000421,
      "velocity": 0.7716535433070866,
      "name": "D3"
    },
    {
      "midi": 71,
      "frequency": 493.8833012561241,
      "time": 134.666532,
      "duration": 0.42129587500002685,
      "velocity": 0.8503937007874016,
      "name": "B4"
    },
    {
      "midi": 76,
      "frequency": 659.2551138257398,
      "time": 134.666532,
      "duration": 0.42129587500002685,
      "velocity": 0.8503937007874016,
      "name": "E5"
    },
    {
      "midi": 83,
      "frequency": 987.7666025122483,
      "time": 134.666532,
      "duration": 0.42129587500002685,
      "velocity": 0.8503937007874016,
      "name": "B5"
    },
    {
      "midi": 40,
      "frequency": 82.40688922821748,
      "time": 134.666532,
      "duration": 0.1046295250000071,
      "velocity": 0.7716535433070866,
      "name": "E2"
    },
    {
      "midi": 52,
      "frequency": 164.81377845643496,
      "time": 134.777643,
      "duration": 0.10462952499997868,
      "velocity": 0.7716535433070866,
      "name": "E3"
    },
    {
      "midi": 40,
      "frequency": 82.40688922821748,
      "time": 134.888754,
      "duration": 0.10462952499997868,
      "velocity": 0.7716535433070866,
      "name": "E2"
    },
    {
      "midi": 52,
      "frequency": 164.81377845643496,
      "time": 134.999865,
      "duration": 0.1046295250000071,
      "velocity": 0.7716535433070866,
      "name": "E3"
    },
    {
      "midi": 69,
      "frequency": 440,
      "time": 135.110976,
      "duration": 0.21018497500000421,
      "velocity": 0.8503937007874016,
      "name": "A4"
    },
    {
      "midi": 72,
      "frequency": 523.2511306011972,
      "time": 135.110976,
      "duration": 0.21018497500000421,
      "velocity": 0.8503937007874016,
      "name": "C5"
    },
    {
      "midi": 76,
      "frequency": 659.2551138257398,
      "time": 135.110976,
      "duration": 0.21018497500000421,
      "velocity": 0.8503937007874016,
      "name": "E5"
    },
    {
      "midi": 81,
      "frequency": 880,
      "time": 135.110976,
      "duration": 0.21018497500000421,
      "velocity": 0.8503937007874016,
      "name": "A5"
    },
    {
      "midi": 36,
      "frequency": 65.40639132514966,
      "time": 135.110976,
      "duration": 0.1046295250000071,
      "velocity": 0.7716535433070866,
      "name": "C2"
    },
    {
      "midi": 40,
      "frequency": 82.40688922821748,
      "time": 135.222087,
      "duration": 0.1046295250000071,
      "velocity": 0.7716535433070866,
      "name": "E2"
    },
    {
      "midi": 71,
      "frequency": 493.8833012561241,
      "time": 135.333198,
      "duration": 0.2101849749999758,
      "velocity": 0.8503937007874016,
      "name": "B4"
    },
    {
      "midi": 83,
      "frequency": 987.7666025122483,
      "time": 135.333198,
      "duration": 0.2101849749999758,
      "velocity": 0.8503937007874016,
      "name": "B5"
    },
    {
      "midi": 43,
      "frequency": 97.99885899543733,
      "time": 135.333198,
      "duration": 0.10462952499997868,
      "velocity": 0.7716535433070866,
      "name": "G2"
    },
    {
      "midi": 48,
      "frequency": 130.8127826502993,
      "time": 135.444309,
      "duration": 0.10462952499997868,
      "velocity": 0.7716535433070866,
      "name": "C3"
    },
    {
      "midi": 74,
      "frequency": 587.3295358348151,
      "time": 135.55542,
      "duration": 0.21018497500000421,
      "velocity": 0.8503937007874016,
      "name": "D5"
    },
    {
      "midi": 86,
      "frequency": 1174.6590716696303,
      "time": 135.55542,
      "duration": 0.21018497500000421,
      "velocity": 0.8503937007874016,
      "name": "D6"
    },
    {
      "midi": 55,
      "frequency": 195.99771799087463,
      "time": 135.55542,
      "duration": 0.21018497500000421,
      "velocity": 0.7716535433070866,
      "name": "G3"
    },
    {
      "midi": 60,
      "frequency": 261.6255653005986,
      "time": 135.55542,
      "duration": 0.21018497500000421,
      "velocity": 0.7716535433070866,
      "name": "C4"
    },
    {
      "midi": 71,
      "frequency": 493.8833012561241,
      "time": 135.77764200000001,
      "duration": 0.2101849749999758,
      "velocity": 0.8503937007874016,
      "name": "B4"
    },
    {
      "midi": 83,
      "frequency": 987.7666025122483,
      "time": 135.77764200000001,
      "duration": 0.2101849749999758,
      "velocity": 0.8503937007874016,
      "name": "B5"
    },
    {
      "midi": 48,
      "frequency": 130.8127826502993,
      "time": 135.77764200000001,
      "duration": 0.2101849749999758,
      "velocity": 0.7716535433070866,
      "name": "C3"
    },
    {
      "midi": 69,
      "frequency": 440,
      "time": 135.999864,
      "duration": 0.21018497500000421,
      "velocity": 0.8503937007874016,
      "name": "A4"
    },
    {
      "midi": 81,
      "frequency": 880,
      "time": 135.999864,
      "duration": 0.21018497500000421,
      "velocity": 0.8503937007874016,
      "name": "A5"
    },
    {
      "midi": 60,
      "frequency": 261.6255653005986,
      "time": 135.999864,
      "duration": 0.10462952499997868,
      "velocity": 0.7716535433070866,
      "name": "C4"
    },
    {
      "midi": 55,
      "frequency": 195.99771799087463,
      "time": 136.110975,
      "duration": 0.1046295250000071,
      "velocity": 0.7716535433070866,
      "name": "G3"
    },
    {
      "midi": 71,
      "frequency": 493.8833012561241,
      "time": 136.222086,
      "duration": 0.1046295250000071,
      "velocity": 0.8503937007874016,
      "name": "B4"
    },
    {
      "midi": 83,
      "frequency": 987.7666025122483,
      "time": 136.222086,
      "duration": 0.1046295250000071,
      "velocity": 0.8503937007874016,
      "name": "B5"
    },
    {
      "midi": 52,
      "frequency": 164.81377845643496,
      "time": 136.222086,
      "duration": 0.1046295250000071,
      "velocity": 0.7716535433070866,
      "name": "E3"
    },
    {
      "midi": 71,
      "frequency": 493.8833012561241,
      "time": 136.333197,
      "duration": 0.3157404250000013,
      "velocity": 0.8503937007874016,
      "name": "B4"
    },
    {
      "midi": 83,
      "frequency": 987.7666025122483,
      "time": 136.333197,
      "duration": 0.3157404250000013,
      "velocity": 0.8503937007874016,
      "name": "B5"
    },
    {
      "midi": 48,
      "frequency": 130.8127826502993,
      "time": 136.333197,
      "duration": 0.10462952499997868,
      "velocity": 0.7716535433070866,
      "name": "C3"
    },
    {
      "midi": 60,
      "frequency": 261.6255653005986,
      "time": 136.444308,
      "duration": 0.10462952499997868,
      "velocity": 0.7716535433070866,
      "name": "C4"
    },
    {
      "midi": 55,
      "frequency": 195.99771799087463,
      "time": 136.555419,
      "duration": 0.1046295250000071,
      "velocity": 0.7716535433070866,
      "name": "G3"
    },
    {
      "midi": 67,
      "frequency": 391.99543598174927,
      "time": 136.66653,
      "duration": 0.21018497500000421,
      "velocity": 0.8503937007874016,
      "name": "G4"
    },
    {
      "midi": 79,
      "frequency": 783.9908719634986,
      "time": 136.66653,
      "duration": 0.21018497500000421,
      "velocity": 0.8503937007874016,
      "name": "G5"
    },
    {
      "midi": 52,
      "frequency": 164.81377845643496,
      "time": 136.66653,
      "duration": 0.1046295250000071,
      "velocity": 0.7716535433070866,
      "name": "E3"
    },
    {
      "midi": 48,
      "frequency": 130.8127826502993,
      "time": 136.777641,
      "duration": 0.1046295250000071,
      "velocity": 0.7716535433070866,
      "name": "C3"
    },
    {
      "midi": 69,
      "frequency": 440,
      "time": 136.888752,
      "duration": 0.2101849749999758,
      "velocity": 0.8503937007874016,
      "name": "A4"
    },
    {
      "midi": 74,
      "frequency": 587.3295358348151,
      "time": 136.888752,
      "duration": 0.2101849749999758,
      "velocity": 0.8503937007874016,
      "name": "D5"
    },
    {
      "midi": 78,
      "frequency": 739.9888454232689,
      "time": 136.888752,
      "duration": 0.2101849749999758,
      "velocity": 0.8503937007874016,
      "name": "F#5"
    },
    {
      "midi": 81,
      "frequency": 880,
      "time": 136.888752,
      "duration": 0.2101849749999758,
      "velocity": 0.8503937007874016,
      "name": "A5"
    },
    {
      "midi": 38,
      "frequency": 73.41619197935188,
      "time": 136.888752,
      "duration": 0.10462952499997868,
      "velocity": 0.7716535433070866,
      "name": "D2"
    },
    {
      "midi": 42,
      "frequency": 92.49860567790861,
      "time": 136.999863,
      "duration": 0.10462952499997868,
      "velocity": 0.7716535433070866,
      "name": "F#2"
    },
    {
      "midi": 71,
      "frequency": 493.8833012561241,
      "time": 137.110974,
      "duration": 0.21018497500000421,
      "velocity": 0.8503937007874016,
      "name": "B4"
    },
    {
      "midi": 83,
      "frequency": 987.7666025122483,
      "time": 137.110974,
      "duration": 0.21018497500000421,
      "velocity": 0.8503937007874016,
      "name": "B5"
    },
    {
      "midi": 45,
      "frequency": 110,
      "time": 137.110974,
      "duration": 0.1046295250000071,
      "velocity": 0.7716535433070866,
      "name": "A2"
    },
    {
      "midi": 50,
      "frequency": 146.8323839587038,
      "time": 137.222085,
      "duration": 0.1046295250000071,
      "velocity": 0.7716535433070866,
      "name": "D3"
    },
    {
      "midi": 74,
      "frequency": 587.3295358348151,
      "time": 137.33319600000002,
      "duration": 0.2101849749999758,
      "velocity": 0.8503937007874016,
      "name": "D5"
    },
    {
      "midi": 86,
      "frequency": 1174.6590716696303,
      "time": 137.33319600000002,
      "duration": 0.2101849749999758,
      "velocity": 0.8503937007874016,
      "name": "D6"
    },
    {
      "midi": 57,
      "frequency": 220,
      "time": 137.33319600000002,
      "duration": 0.2101849749999758,
      "velocity": 0.7716535433070866,
      "name": "A3"
    },
    {
      "midi": 62,
      "frequency": 293.6647679174076,
      "time": 137.33319600000002,
      "duration": 0.2101849749999758,
      "velocity": 0.7716535433070866,
      "name": "D4"
    },
    {
      "midi": 71,
      "frequency": 493.8833012561241,
      "time": 137.555418,
      "duration": 0.21018497500000421,
      "velocity": 0.8503937007874016,
      "name": "B4"
    },
    {
      "midi": 83,
      "frequency": 987.7666025122483,
      "time": 137.555418,
      "duration": 0.21018497500000421,
      "velocity": 0.8503937007874016,
      "name": "B5"
    },
    {
      "midi": 50,
      "frequency": 146.8323839587038,
      "time": 137.555418,
      "duration": 0.21018497500000421,
      "velocity": 0.7716535433070866,
      "name": "D3"
    },
    {
      "midi": 69,
      "frequency": 440,
      "time": 137.77764,
      "duration": 0.21018497500000421,
      "velocity": 0.8503937007874016,
      "name": "A4"
    },
    {
      "midi": 81,
      "frequency": 880,
      "time": 137.77764,
      "duration": 0.21018497500000421,
      "velocity": 0.8503937007874016,
      "name": "A5"
    },
    {
      "midi": 62,
      "frequency": 293.6647679174076,
      "time": 137.77764,
      "duration": 0.1046295250000071,
      "velocity": 0.7716535433070866,
      "name": "D4"
    },
    {
      "midi": 57,
      "frequency": 220,
      "time": 137.888751,
      "duration": 0.10462952499997868,
      "velocity": 0.7716535433070866,
      "name": "A3"
    },
    {
      "midi": 71,
      "frequency": 493.8833012561241,
      "time": 137.999862,
      "duration": 0.10462952499997868,
      "velocity": 0.8503937007874016,
      "name": "B4"
    },
    {
      "midi": 83,
      "frequency": 987.7666025122483,
      "time": 137.999862,
      "duration": 0.10462952499997868,
      "velocity": 0.8503937007874016,
      "name": "B5"
    },
    {
      "midi": 54,
      "frequency": 184.99721135581723,
      "time": 137.999862,
      "duration": 0.10462952499997868,
      "velocity": 0.7716535433070866,
      "name": "F#3"
    },
    {
      "midi": 67,
      "frequency": 391.99543598174927,
      "time": 138.110973,
      "duration": 0.3157404250000013,
      "velocity": 0.8503937007874016,
      "name": "G4"
    },
    {
      "midi": 79,
      "frequency": 783.9908719634986,
      "time": 138.110973,
      "duration": 0.3157404250000013,
      "velocity": 0.8503937007874016,
      "name": "G5"
    },
    {
      "midi": 50,
      "frequency": 146.8323839587038,
      "time": 138.110973,
      "duration": 0.1046295250000071,
      "velocity": 0.7716535433070866,
      "name": "D3"
    },
    {
      "midi": 62,
      "frequency": 293.6647679174076,
      "time": 138.222084,
      "duration": 0.1046295250000071,
      "velocity": 0.7716535433070866,
      "name": "D4"
    },
    {
      "midi": 57,
      "frequency": 220,
      "time": 138.333195,
      "duration": 0.1046295250000071,
      "velocity": 0.7716535433070866,
      "name": "A3"
    },
    {
      "midi": 67,
      "frequency": 391.99543598174927,
      "time": 138.444306,
      "duration": 0.2101849749999758,
      "velocity": 0.8503937007874016,
      "name": "G4"
    },
    {
      "midi": 79,
      "frequency": 783.9908719634986,
      "time": 138.444306,
      "duration": 0.2101849749999758,
      "velocity": 0.8503937007874016,
      "name": "G5"
    },
    {
      "midi": 54,
      "frequency": 184.99721135581723,
      "time": 138.444306,
      "duration": 0.10462952499997868,
      "velocity": 0.7716535433070866,
      "name": "F#3"
    },
    {
      "midi": 50,
      "frequency": 146.8323839587038,
      "time": 138.555417,
      "duration": 0.10462952499997868,
      "velocity": 0.7716535433070866,
      "name": "D3"
    },
    {
      "midi": 67,
      "frequency": 391.99543598174927,
      "time": 138.666528,
      "duration": 0.3157404250000013,
      "velocity": 0.8503937007874016,
      "name": "G4"
    },
    {
      "midi": 71,
      "frequency": 493.8833012561241,
      "time": 138.666528,
      "duration": 0.3157404250000013,
      "velocity": 0.8503937007874016,
      "name": "B4"
    },
    {
      "midi": 75,
      "frequency": 622.2539674441618,
      "time": 138.666528,
      "duration": 0.3157404250000013,
      "velocity": 0.8503937007874016,
      "name": "D#5"
    },
    {
      "midi": 79,
      "frequency": 783.9908719634986,
      "time": 138.666528,
      "duration": 0.3157404250000013,
      "velocity": 0.8503937007874016,
      "name": "G5"
    },
    {
      "midi": 35,
      "frequency": 61.7354126570155,
      "time": 138.666528,
      "duration": 0.1046295250000071,
      "velocity": 0.7716535433070866,
      "name": "B1"
    },
    {
      "midi": 39,
      "frequency": 77.78174593052022,
      "time": 138.777639,
      "duration": 0.1046295250000071,
      "velocity": 0.7716535433070866,
      "name": "D#2"
    },
    {
      "midi": 42,
      "frequency": 92.49860567790861,
      "time": 138.88875000000002,
      "duration": 0.10462952499997868,
      "velocity": 0.7716535433070866,
      "name": "F#2"
    },
    {
      "midi": 69,
      "frequency": 440,
      "time": 138.999861,
      "duration": 0.3157404250000013,
      "velocity": 0.8503937007874016,
      "name": "A4"
    },
    {
      "midi": 81,
      "frequency": 880,
      "time": 138.999861,
      "duration": 0.3157404250000013,
      "velocity": 0.8503937007874016,
      "name": "A5"
    },
    {
      "midi": 47,
      "frequency": 123.47082531403103,
      "time": 138.999861,
      "duration": 0.10462952499997868,
      "velocity": 0.7716535433070866,
      "name": "B2"
    },
    {
      "midi": 54,
      "frequency": 184.99721135581723,
      "time": 139.110972,
      "duration": 0.21018497500000421,
      "velocity": 0.7716535433070866,
      "name": "F#3"
    },
    {
      "midi": 59,
      "frequency": 246.94165062806206,
      "time": 139.110972,
      "duration": 0.21018497500000421,
      "velocity": 0.7716535433070866,
      "name": "B3"
    },
    {
      "midi": 71,
      "frequency": 493.8833012561241,
      "time": 139.333194,
      "duration": 0.42129587500002685,
      "velocity": 0.8503937007874016,
      "name": "B4"
    },
    {
      "midi": 78,
      "frequency": 739.9888454232689,
      "time": 139.333194,
      "duration": 0.42129587500002685,
      "velocity": 0.8503937007874016,
      "name": "F#5"
    },
    {
      "midi": 83,
      "frequency": 987.7666025122483,
      "time": 139.333194,
      "duration": 0.42129587500002685,
      "velocity": 0.8503937007874016,
      "name": "B5"
    },
    {
      "midi": 47,
      "frequency": 123.47082531403103,
      "time": 139.333194,
      "duration": 0.21018497500000421,
      "velocity": 0.7716535433070866,
      "name": "B2"
    },
    {
      "midi": 59,
      "frequency": 246.94165062806206,
      "time": 139.555416,
      "duration": 0.10462952499997868,
      "velocity": 0.7716535433070866,
      "name": "B3"
    },
    {
      "midi": 54,
      "frequency": 184.99721135581723,
      "time": 139.666527,
      "duration": 0.1046295250000071,
      "velocity": 0.7716535433070866,
      "name": "F#3"
    },
    {
      "midi": 71,
      "frequency": 493.8833012561241,
      "time": 139.777638,
      "duration": 0.21018497500000421,
      "velocity": 0.8503937007874016,
      "name": "B4"
    },
    {
      "midi": 83,
      "frequency": 987.7666025122483,
      "time": 139.777638,
      "duration": 0.21018497500000421,
      "velocity": 0.8503937007874016,
      "name": "B5"
    },
    {
      "midi": 51,
      "frequency": 155.56349186104043,
      "time": 139.777638,
      "duration": 0.1046295250000071,
      "velocity": 0.7716535433070866,
      "name": "D#3"
    },
    {
      "midi": 47,
      "frequency": 123.47082531403103,
      "time": 139.888749,
      "duration": 0.1046295250000071,
      "velocity": 0.7716535433070866,
      "name": "B2"
    },
    {
      "midi": 79,
      "frequency": 783.9908719634986,
      "time": 139.99986,
      "duration": 0.2101849749999758,
      "velocity": 0.8503937007874016,
      "name": "G5"
    },
    {
      "midi": 91,
      "frequency": 1567.981743926997,
      "time": 139.99986,
      "duration": 0.2101849749999758,
      "velocity": 0.8503937007874016,
      "name": "G6"
    },
    {
      "midi": 59,
      "frequency": 246.94165062806206,
      "time": 139.99986,
      "duration": 0.10462952499997868,
      "velocity": 0.7716535433070866,
      "name": "B3"
    },
    {
      "midi": 54,
      "frequency": 184.99721135581723,
      "time": 140.110971,
      "duration": 0.10462952499997868,
      "velocity": 0.7716535433070866,
      "name": "F#3"
    },
    {
      "midi": 78,
      "frequency": 739.9888454232689,
      "time": 140.222082,
      "duration": 0.6324067749999926,
      "velocity": 0.8503937007874016,
      "name": "F#5"
    },
    {
      "midi": 83,
      "frequency": 987.7666025122483,
      "time": 140.222082,
      "duration": 0.6324067749999926,
      "velocity": 0.8503937007874016,
      "name": "B5"
    },
    {
      "midi": 90,
      "frequency": 1479.9776908465378,
      "time": 140.222082,
      "duration": 0.6324067749999926,
      "velocity": 0.8503937007874016,
      "name": "F#6"
    },
    {
      "midi": 51,
      "frequency": 155.56349186104043,
      "time": 140.222082,
      "duration": 0.1046295250000071,
      "velocity": 0.7716535433070866,
      "name": "D#3"
    },
    {
      "midi": 47,
      "frequency": 123.47082531403103,
      "time": 140.333193,
      "duration": 0.1046295250000071,
      "velocity": 0.7716535433070866,
      "name": "B2"
    },
    {
      "midi": 40,
      "frequency": 82.40688922821748,
      "time": 140.444304,
      "duration": 0.1046295250000071,
      "velocity": 0.7716535433070866,
      "name": "E2"
    },
    {
      "midi": 43,
      "frequency": 97.99885899543733,
      "time": 140.555415,
      "duration": 0.10462952499997868,
      "velocity": 0.7716535433070866,
      "name": "G2"
    },
    {
      "midi": 47,
      "frequency": 123.47082531403103,
      "time": 140.666526,
      "duration": 0.10462952499997868,
      "velocity": 0.7716535433070866,
      "name": "B2"
    },
    {
      "midi": 52,
      "frequency": 164.81377845643496,
      "time": 140.777637,
      "duration": 0.1046295250000071,
      "velocity": 0.7716535433070866,
      "name": "E3"
    },
    {
      "midi": 74,
      "frequency": 587.3295358348151,
      "time": 140.888748,
      "duration": 0.42129587500002685,
      "velocity": 0.8503937007874016,
      "name": "D5"
    },
    {
      "midi": 83,
      "frequency": 987.7666025122483,
      "time": 140.888748,
      "duration": 0.42129587500002685,
      "velocity": 0.8503937007874016,
      "name": "B5"
    },
    {
      "midi": 86,
      "frequency": 1174.6590716696303,
      "time": 140.888748,
      "duration": 0.42129587500002685,
      "velocity": 0.8503937007874016,
      "name": "D6"
    },
    {
      "midi": 59,
      "frequency": 246.94165062806206,
      "time": 140.888748,
      "duration": 0.21018497500000421,
      "velocity": 0.7716535433070866,
      "name": "B3"
    },
    {
      "midi": 64,
      "frequency": 329.6275569128699,
      "time": 140.888748,
      "duration": 0.21018497500000421,
      "velocity": 0.7716535433070866,
      "name": "E4"
    },
    {
      "midi": 52,
      "frequency": 164.81377845643496,
      "time": 141.11097,
      "duration": 0.21018497500000421,
      "velocity": 0.7716535433070866,
      "name": "E3"
    },
    {
      "midi": 71,
      "frequency": 493.8833012561241,
      "time": 141.333192,
      "duration": 0.3157404250000013,
      "velocity": 0.8503937007874016,
      "name": "B4"
    },
    {
      "midi": 76,
      "frequency": 659.2551138257398,
      "time": 141.333192,
      "duration": 0.3157404250000013,
      "velocity": 0.8503937007874016,
      "name": "E5"
    },
    {
      "midi": 83,
      "frequency": 987.7666025122483,
      "time": 141.333192,
      "duration": 0.3157404250000013,
      "velocity": 0.8503937007874016,
      "name": "B5"
    },
    {
      "midi": 64,
      "frequency": 329.6275569128699,
      "time": 141.333192,
      "duration": 0.1046295250000071,
      "velocity": 0.7716535433070866,
      "name": "E4"
    },
    {
      "midi": 59,
      "frequency": 246.94165062806206,
      "time": 141.444303,
      "duration": 0.1046295250000071,
      "velocity": 0.7716535433070866,
      "name": "B3"
    },
    {
      "midi": 55,
      "frequency": 195.99771799087463,
      "time": 141.555414,
      "duration": 0.10462952499997868,
      "velocity": 0.7716535433070866,
      "name": "G3"
    },
    {
      "midi": 69,
      "frequency": 440,
      "time": 141.666525,
      "duration": 0.3157404250000013,
      "velocity": 0.8503937007874016,
      "name": "A4"
    },
    {
      "midi": 76,
      "frequency": 659.2551138257398,
      "time": 141.666525,
      "duration": 0.3157404250000013,
      "velocity": 0.8503937007874016,
      "name": "E5"
    },
    {
      "midi": 81,
      "frequency": 880,
      "time": 141.666525,
      "duration": 0.3157404250000013,
      "velocity": 0.8503937007874016,
      "name": "A5"
    },
    {
      "midi": 52,
      "frequency": 164.81377845643496,
      "time": 141.666525,
      "duration": 0.10462952499997868,
      "velocity": 0.7716535433070866,
      "name": "E3"
    },
    {
      "midi": 64,
      "frequency": 329.6275569128699,
      "time": 141.777636,
      "duration": 0.1046295250000071,
      "velocity": 0.7716535433070866,
      "name": "E4"
    },
    {
      "midi": 59,
      "frequency": 246.94165062806206,
      "time": 141.888747,
      "duration": 0.1046295250000071,
      "velocity": 0.7716535433070866,
      "name": "B3"
    },
    {
      "midi": 67,
      "frequency": 391.99543598174927,
      "time": 141.999858,
      "duration": 0.21018497500000421,
      "velocity": 0.8503937007874016,
      "name": "G4"
    },
    {
      "midi": 79,
      "frequency": 783.9908719634986,
      "time": 141.999858,
      "duration": 0.21018497500000421,
      "velocity": 0.8503937007874016,
      "name": "G5"
    },
    {
      "midi": 55,
      "frequency": 195.99771799087463,
      "time": 141.999858,
      "duration": 0.1046295250000071,
      "velocity": 0.7716535433070866,
      "name": "G3"
    },
    {
      "midi": 52,
      "frequency": 164.81377845643496,
      "time": 142.110969,
      "duration": 0.10462952499997868,
      "velocity": 0.7716535433070866,
      "name": "E3"
    },
    {
      "midi": 67,
      "frequency": 391.99543598174927,
      "time": 142.22208,
      "duration": 0.6324067749999926,
      "velocity": 0.8503937007874016,
      "name": "G4"
    },
    {
      "midi": 72,
      "frequency": 523.2511306011972,
      "time": 142.22208,
      "duration": 0.6324067749999926,
      "velocity": 0.8503937007874016,
      "name": "C5"
    },
    {
      "midi": 76,
      "frequency": 659.2551138257398,
      "time": 142.22208,
      "duration": 0.6324067749999926,
      "velocity": 0.8503937007874016,
      "name": "E5"
    },
    {
      "midi": 79,
      "frequency": 783.9908719634986,
      "time": 142.22208,
      "duration": 0.6324067749999926,
      "velocity": 0.8503937007874016,
      "name": "G5"
    },
    {
      "midi": 36,
      "frequency": 65.40639132514966,
      "time": 142.22208,
      "duration": 0.10462952499997868,
      "velocity": 0.7716535433070866,
      "name": "C2"
    },
    {
      "midi": 40,
      "frequency": 82.40688922821748,
      "time": 142.333191,
      "duration": 0.1046295250000071,
      "velocity": 0.7637795275590551,
      "name": "E2"
    },
    {
      "midi": 43,
      "frequency": 97.99885899543733,
      "time": 142.444302,
      "duration": 0.1046295250000071,
      "velocity": 0.7559055118110236,
      "name": "G2"
    },
    {
      "midi": 48,
      "frequency": 130.8127826502993,
      "time": 142.55541300000002,
      "duration": 0.10462952499997868,
      "velocity": 0.7480314960629921,
      "name": "C3"
    },
    {
      "midi": 55,
      "frequency": 195.99771799087463,
      "time": 142.666524,
      "duration": 0.21018497500000421,
      "velocity": 0.7401574803149606,
      "name": "G3"
    },
    {
      "midi": 60,
      "frequency": 261.6255653005986,
      "time": 142.666524,
      "duration": 0.21018497500000421,
      "velocity": 0.7401574803149606,
      "name": "C4"
    },
    {
      "midi": 67,
      "frequency": 391.99543598174927,
      "time": 142.888746,
      "duration": 0.42129587500002685,
      "velocity": 0.8503937007874016,
      "name": "G4"
    },
    {
      "midi": 79,
      "frequency": 783.9908719634986,
      "time": 142.888746,
      "duration": 0.42129587500002685,
      "velocity": 0.8503937007874016,
      "name": "G5"
    },
    {
      "midi": 48,
      "frequency": 130.8127826502993,
      "time": 142.888746,
      "duration": 0.21018497500000421,
      "velocity": 0.7244094488188977,
      "name": "C3"
    },
    {
      "midi": 60,
      "frequency": 261.6255653005986,
      "time": 143.110968,
      "duration": 0.10462952499997868,
      "velocity": 0.7086614173228346,
      "name": "C4"
    },
    {
      "midi": 55,
      "frequency": 195.99771799087463,
      "time": 143.222079,
      "duration": 0.10462952499997868,
      "velocity": 0.7007874015748031,
      "name": "G3"
    },
    {
      "midi": 69,
      "frequency": 440,
      "time": 143.33319,
      "duration": 0.21018497500000421,
      "velocity": 0.8503937007874016,
      "name": "A4"
    },
    {
      "midi": 81,
      "frequency": 880,
      "time": 143.33319,
      "duration": 0.21018497500000421,
      "velocity": 0.8503937007874016,
      "name": "A5"
    },
    {
      "midi": 52,
      "frequency": 164.81377845643496,
      "time": 143.33319,
      "duration": 0.1046295250000071,
      "velocity": 0.6929133858267716,
      "name": "E3"
    },
    {
      "midi": 48,
      "frequency": 130.8127826502993,
      "time": 143.444301,
      "duration": 0.1046295250000071,
      "velocity": 0.6850393700787402,
      "name": "C3"
    },
    {
      "midi": 71,
      "frequency": 493.8833012561241,
      "time": 143.555412,
      "duration": 0.21018497500000421,
      "velocity": 0.8503937007874016,
      "name": "B4"
    },
    {
      "midi": 83,
      "frequency": 987.7666025122483,
      "time": 143.555412,
      "duration": 0.21018497500000421,
      "velocity": 0.8503937007874016,
      "name": "B5"
    },
    {
      "midi": 60,
      "frequency": 261.6255653005986,
      "time": 143.555412,
      "duration": 0.1046295250000071,
      "velocity": 0.6771653543307087,
      "name": "C4"
    },
    {
      "midi": 55,
      "frequency": 195.99771799087463,
      "time": 143.666523,
      "duration": 0.10462952499997868,
      "velocity": 0.6692913385826772,
      "name": "G3"
    },
    {
      "midi": 69,
      "frequency": 440,
      "time": 143.777634,
      "duration": 0.6324067749999926,
      "velocity": 0.8503937007874016,
      "name": "A4"
    },
    {
      "midi": 81,
      "frequency": 880,
      "time": 143.777634,
      "duration": 0.6324067749999926,
      "velocity": 0.8503937007874016,
      "name": "A5"
    },
    {
      "midi": 52,
      "frequency": 164.81377845643496,
      "time": 143.777634,
      "duration": 0.10462952499997868,
      "velocity": 0.6614173228346457,
      "name": "E3"
    },
    {
      "midi": 48,
      "frequency": 130.8127826502993,
      "time": 143.888745,
      "duration": 0.1046295250000071,
      "velocity": 0.6535433070866141,
      "name": "C3"
    },
    {
      "midi": 50,
      "frequency": 146.8323839587038,
      "time": 143.999856,
      "duration": 0.8435176750000153,
      "velocity": 0.6456692913385826,
      "name": "D3"
    },
    {
      "midi": 57,
      "frequency": 220,
      "time": 143.999856,
      "duration": 0.8435176750000153,
      "velocity": 0.6456692913385826,
      "name": "A3"
    },
    {
      "midi": 62,
      "frequency": 293.6647679174076,
      "time": 143.999856,
      "duration": 0.8435176750000153,
      "velocity": 0.6456692913385826,
      "name": "D4"
    },
    {
      "midi": 69,
      "frequency": 440,
      "time": 144.66652200000001,
      "duration": 0.2101849749999758,
      "velocity": 0.8503937007874016,
      "name": "A4"
    },
    {
      "midi": 74,
      "frequency": 587.3295358348151,
      "time": 144.66652200000001,
      "duration": 0.2101849749999758,
      "velocity": 0.8503937007874016,
      "name": "D5"
    },
    {
      "midi": 81,
      "frequency": 880,
      "time": 144.66652200000001,
      "duration": 0.2101849749999758,
      "velocity": 0.8503937007874016,
      "name": "A5"
    },
    {
      "midi": 69,
      "frequency": 440,
      "time": 144.888744,
      "duration": 0.42129587499999843,
      "velocity": 0.8503937007874016,
      "name": "A4"
    },
    {
      "midi": 74,
      "frequency": 587.3295358348151,
      "time": 144.888744,
      "duration": 0.42129587499999843,
      "velocity": 0.8503937007874016,
      "name": "D5"
    },
    {
      "midi": 81,
      "frequency": 880,
      "time": 144.888744,
      "duration": 0.42129587499999843,
      "velocity": 0.8503937007874016,
      "name": "A5"
    },
    {
      "midi": 71,
      "frequency": 493.8833012561241,
      "time": 145.333188,
      "duration": 2.1101830749999806,
      "velocity": 0.8503937007874016,
      "name": "B4"
    },
    {
      "midi": 76,
      "frequency": 659.2551138257398,
      "time": 145.333188,
      "duration": 2.1101830749999806,
      "velocity": 0.8503937007874016,
      "name": "E5"
    },
    {
      "midi": 83,
      "frequency": 987.7666025122483,
      "time": 145.333188,
      "duration": 2.1101830749999806,
      "velocity": 0.8503937007874016,
      "name": "B5"
    },
    {
      "midi": 36,
      "frequency": 65.40639132514966,
      "time": 145.777632,
      "duration": 1.6879612749999922,
      "velocity": 0.5118110236220472,
      "name": "C2"
    },
    {
      "midi": 48,
      "frequency": 130.8127826502993,
      "time": 145.777632,
      "duration": 1.6879612749999922,
      "velocity": 0.5118110236220472,
      "name": "C3"
    },
    {
      "midi": 59,
      "frequency": 246.94165062806206,
      "time": 146.110965,
      "duration": 0.3157404250000013,
      "velocity": 0.5905511811023622,
      "name": "B3"
    },
    {
      "midi": 64,
      "frequency": 329.6275569128699,
      "time": 146.444298,
      "duration": 1.054628574999981,
      "velocity": 0.5905511811023622,
      "name": "E4"
    },
    {
      "midi": 67,
      "frequency": 391.99543598174927,
      "time": 146.444298,
      "duration": 1.054628574999981,
      "velocity": 0.5905511811023622,
      "name": "G4"
    },
    {
      "midi": 38,
      "frequency": 73.41619197935188,
      "time": 147.555408,
      "duration": 1.6879612749999922,
      "velocity": 0.5118110236220472,
      "name": "D2"
    },
    {
      "midi": 50,
      "frequency": 146.8323839587038,
      "time": 147.555408,
      "duration": 1.6879612749999922,
      "velocity": 0.5118110236220472,
      "name": "D3"
    },
    {
      "midi": 57,
      "frequency": 220,
      "time": 147.888741,
      "duration": 0.3157404250000013,
      "velocity": 0.5905511811023622,
      "name": "A3"
    },
    {
      "midi": 62,
      "frequency": 293.6647679174076,
      "time": 148.222074,
      "duration": 1.0546285750000095,
      "velocity": 0.5905511811023622,
      "name": "D4"
    },
    {
      "midi": 67,
      "frequency": 391.99543598174927,
      "time": 148.222074,
      "duration": 1.0546285750000095,
      "velocity": 0.5905511811023622,
      "name": "G4"
    },
    {
      "midi": 40,
      "frequency": 82.40688922821748,
      "time": 149.333184,
      "duration": 1.6879612750000206,
      "velocity": 0.5118110236220472,
      "name": "E2"
    },
    {
      "midi": 52,
      "frequency": 164.81377845643496,
      "time": 149.333184,
      "duration": 1.6879612750000206,
      "velocity": 0.5118110236220472,
      "name": "E3"
    },
    {
      "midi": 59,
      "frequency": 246.94165062806206,
      "time": 149.666517,
      "duration": 0.3157404250000013,
      "velocity": 0.5905511811023622,
      "name": "B3"
    },
    {
      "midi": 62,
      "frequency": 293.6647679174076,
      "time": 149.99985,
      "duration": 1.054628574999981,
      "velocity": 0.5905511811023622,
      "name": "D4"
    },
    {
      "midi": 67,
      "frequency": 391.99543598174927,
      "time": 149.99985,
      "duration": 1.054628574999981,
      "velocity": 0.5905511811023622,
      "name": "G4"
    },
    {
      "midi": 38,
      "frequency": 73.41619197935188,
      "time": 151.11096,
      "duration": 1.6879612749999922,
      "velocity": 0.5118110236220472,
      "name": "D2"
    },
    {
      "midi": 50,
      "frequency": 146.8323839587038,
      "time": 151.11096,
      "duration": 1.6879612749999922,
      "velocity": 0.5118110236220472,
      "name": "D3"
    },
    {
      "midi": 57,
      "frequency": 220,
      "time": 151.44429300000002,
      "duration": 0.3157404250000013,
      "velocity": 0.5905511811023622,
      "name": "A3"
    },
    {
      "midi": 62,
      "frequency": 293.6647679174076,
      "time": 151.777626,
      "duration": 0.42129587499999843,
      "velocity": 0.5905511811023622,
      "name": "D4"
    },
    {
      "midi": 66,
      "frequency": 369.99442271163446,
      "time": 151.777626,
      "duration": 0.42129587499999843,
      "velocity": 0.5905511811023622,
      "name": "F#4"
    },
    {
      "midi": 67,
      "frequency": 391.99543598174927,
      "time": 152.22207,
      "duration": 0.21018497500000421,
      "velocity": 0.5905511811023622,
      "name": "G4"
    },
    {
      "midi": 66,
      "frequency": 369.99442271163446,
      "time": 152.444292,
      "duration": 0.21018497500000421,
      "velocity": 0.5905511811023622,
      "name": "F#4"
    },
    {
      "midi": 62,
      "frequency": 293.6647679174076,
      "time": 152.666514,
      "duration": 0.21018497500000421,
      "velocity": 0.5905511811023622,
      "name": "D4"
    },
    {
      "midi": 36,
      "frequency": 65.40639132514966,
      "time": 152.888736,
      "duration": 1.6879612749999922,
      "velocity": 0.5118110236220472,
      "name": "C2"
    },
    {
      "midi": 48,
      "frequency": 130.8127826502993,
      "time": 152.888736,
      "duration": 1.6879612749999922,
      "velocity": 0.5118110236220472,
      "name": "C3"
    },
    {
      "midi": 59,
      "frequency": 246.94165062806206,
      "time": 153.222069,
      "duration": 0.3157404250000013,
      "velocity": 0.5905511811023622,
      "name": "B3"
    },
    {
      "midi": 64,
      "frequency": 329.6275569128699,
      "time": 153.55540200000002,
      "duration": 1.054628574999981,
      "velocity": 0.5905511811023622,
      "name": "E4"
    },
    {
      "midi": 67,
      "frequency": 391.99543598174927,
      "time": 153.55540200000002,
      "duration": 1.054628574999981,
      "velocity": 0.5905511811023622,
      "name": "G4"
    },
    {
      "midi": 38,
      "frequency": 73.41619197935188,
      "time": 154.666512,
      "duration": 1.6879612749999922,
      "velocity": 0.5118110236220472,
      "name": "D2"
    },
    {
      "midi": 50,
      "frequency": 146.8323839587038,
      "time": 154.666512,
      "duration": 1.6879612749999922,
      "velocity": 0.5118110236220472,
      "name": "D3"
    },
    {
      "midi": 57,
      "frequency": 220,
      "time": 154.999845,
      "duration": 0.3157404250000013,
      "velocity": 0.5905511811023622,
      "name": "A3"
    },
    {
      "midi": 62,
      "frequency": 293.6647679174076,
      "time": 155.333178,
      "duration": 1.054628574999981,
      "velocity": 0.5905511811023622,
      "name": "D4"
    },
    {
      "midi": 67,
      "frequency": 391.99543598174927,
      "time": 155.333178,
      "duration": 1.054628574999981,
      "velocity": 0.5905511811023622,
      "name": "G4"
    },
    {
      "midi": 40,
      "frequency": 82.40688922821748,
      "time": 156.444288,
      "duration": 1.6879612749999922,
      "velocity": 0.5118110236220472,
      "name": "E2"
    },
    {
      "midi": 52,
      "frequency": 164.81377845643496,
      "time": 156.444288,
      "duration": 1.6879612749999922,
      "velocity": 0.5118110236220472,
      "name": "E3"
    },
    {
      "midi": 59,
      "frequency": 246.94165062806206,
      "time": 156.777621,
      "duration": 0.3157404250000013,
      "velocity": 0.5905511811023622,
      "name": "B3"
    },
    {
      "midi": 62,
      "frequency": 293.6647679174076,
      "time": 157.110954,
      "duration": 1.0546285750000095,
      "velocity": 0.5905511811023622,
      "name": "D4"
    },
    {
      "midi": 67,
      "frequency": 391.99543598174927,
      "time": 157.110954,
      "duration": 1.0546285750000095,
      "velocity": 0.5905511811023622,
      "name": "G4"
    },
    {
      "midi": 38,
      "frequency": 73.41619197935188,
      "time": 158.222064,
      "duration": 1.6879612750000206,
      "velocity": 0.5118110236220472,
      "name": "D2"
    },
    {
      "midi": 50,
      "frequency": 146.8323839587038,
      "time": 158.222064,
      "duration": 1.6879612750000206,
      "velocity": 0.5118110236220472,
      "name": "D3"
    },
    {
      "midi": 57,
      "frequency": 220,
      "time": 158.555397,
      "duration": 0.3157404250000013,
      "velocity": 0.5905511811023622,
      "name": "A3"
    },
    {
      "midi": 62,
      "frequency": 293.6647679174076,
      "time": 158.88873,
      "duration": 0.42129587499999843,
      "velocity": 0.5905511811023622,
      "name": "D4"
    },
    {
      "midi": 66,
      "frequency": 369.99442271163446,
      "time": 158.88873,
      "duration": 0.42129587499999843,
      "velocity": 0.5905511811023622,
      "name": "F#4"
    },
    {
      "midi": 67,
      "frequency": 391.99543598174927,
      "time": 159.333174,
      "duration": 0.2101849749999758,
      "velocity": 0.5905511811023622,
      "name": "G4"
    },
    {
      "midi": 66,
      "frequency": 369.99442271163446,
      "time": 159.555396,
      "duration": 0.21018497500000421,
      "velocity": 0.5905511811023622,
      "name": "F#4"
    },
    {
      "midi": 62,
      "frequency": 293.6647679174076,
      "time": 159.777618,
      "duration": 0.21018497500000421,
      "velocity": 0.5905511811023622,
      "name": "D4"
    },
    {
      "midi": 36,
      "frequency": 65.40639132514966,
      "time": 159.99984,
      "duration": 0.3157404250000013,
      "velocity": 0.5118110236220472,
      "name": "C2"
    },
    {
      "midi": 48,
      "frequency": 130.8127826502993,
      "time": 159.99984,
      "duration": 0.3157404250000013,
      "velocity": 0.5118110236220472,
      "name": "C3"
    },
    {
      "midi": 59,
      "frequency": 246.94165062806206,
      "time": 160.333173,
      "duration": 0.31574042500002975,
      "velocity": 0.5118110236220472,
      "name": "B3"
    },
    {
      "midi": 71,
      "frequency": 493.8833012561241,
      "time": 160.666506,
      "duration": 0.21018497500000421,
      "velocity": 0.5905511811023622,
      "name": "B4"
    },
    {
      "midi": 76,
      "frequency": 659.2551138257398,
      "time": 160.666506,
      "duration": 0.21018497500000421,
      "velocity": 0.5905511811023622,
      "name": "E5"
    },
    {
      "midi": 79,
      "frequency": 783.9908719634986,
      "time": 160.666506,
      "duration": 0.21018497500000421,
      "velocity": 0.5905511811023622,
      "name": "G5"
    },
    {
      "midi": 64,
      "frequency": 329.6275569128699,
      "time": 160.666506,
      "duration": 1.054628574999981,
      "velocity": 0.5118110236220472,
      "name": "E4"
    },
    {
      "midi": 67,
      "frequency": 391.99543598174927,
      "time": 160.666506,
      "duration": 1.054628574999981,
      "velocity": 0.5118110236220472,
      "name": "G4"
    },
    {
      "midi": 71,
      "frequency": 493.8833012561241,
      "time": 160.88872800000001,
      "duration": 0.42129587499999843,
      "velocity": 0.5905511811023622,
      "name": "B4"
    },
    {
      "midi": 76,
      "frequency": 659.2551138257398,
      "time": 160.88872800000001,
      "duration": 0.42129587499999843,
      "velocity": 0.5905511811023622,
      "name": "E5"
    },
    {
      "midi": 79,
      "frequency": 783.9908719634986,
      "time": 160.88872800000001,
      "duration": 0.42129587499999843,
      "velocity": 0.5905511811023622,
      "name": "G5"
    },
    {
      "midi": 69,
      "frequency": 440,
      "time": 161.555394,
      "duration": 0.21018497500000421,
      "velocity": 0.5905511811023622,
      "name": "A4"
    },
    {
      "midi": 74,
      "frequency": 587.3295358348151,
      "time": 161.555394,
      "duration": 0.21018497500000421,
      "velocity": 0.5905511811023622,
      "name": "D5"
    },
    {
      "midi": 78,
      "frequency": 739.9888454232689,
      "time": 161.555394,
      "duration": 0.21018497500000421,
      "velocity": 0.5905511811023622,
      "name": "F#5"
    },
    {
      "midi": 69,
      "frequency": 440,
      "time": 161.777616,
      "duration": 0.42129587500002685,
      "velocity": 0.5905511811023622,
      "name": "A4"
    },
    {
      "midi": 74,
      "frequency": 587.3295358348151,
      "time": 161.777616,
      "duration": 0.42129587500002685,
      "velocity": 0.5905511811023622,
      "name": "D5"
    },
    {
      "midi": 78,
      "frequency": 739.9888454232689,
      "time": 161.777616,
      "duration": 0.42129587500002685,
      "velocity": 0.5905511811023622,
      "name": "F#5"
    },
    {
      "midi": 38,
      "frequency": 73.41619197935188,
      "time": 161.777616,
      "duration": 0.3157404250000013,
      "velocity": 0.5118110236220472,
      "name": "D2"
    },
    {
      "midi": 50,
      "frequency": 146.8323839587038,
      "time": 161.777616,
      "duration": 0.3157404250000013,
      "velocity": 0.5118110236220472,
      "name": "D3"
    },
    {
      "midi": 57,
      "frequency": 220,
      "time": 162.110949,
      "duration": 0.3157404250000013,
      "velocity": 0.5118110236220472,
      "name": "A3"
    },
    {
      "midi": 67,
      "frequency": 391.99543598174927,
      "time": 162.44428200000002,
      "duration": 0,
      "velocity": 0.5905511811023622,
      "name": "G4"
    },
    {
      "midi": 74,
      "frequency": 587.3295358348151,
      "time": 162.44428200000002,
      "duration": 0.2101849749999758,
      "velocity": 0.5905511811023622,
      "name": "D5"
    },
    {
      "midi": 62,
      "frequency": 293.6647679174076,
      "time": 162.44428200000002,
      "duration": 1.054628574999981,
      "velocity": 0.5118110236220472,
      "name": "D4"
    },
    {
      "midi": 67,
      "frequency": 391.99543598174927,
      "time": 162.44428200000002,
      "duration": 0.22222199999998793,
      "velocity": 0.5118110236220472,
      "name": "G4"
    },
    {
      "midi": 67,
      "frequency": 391.99543598174927,
      "time": 162.666504,
      "duration": 0.8324065749999932,
      "velocity": 0.5905511811023622,
      "name": "G4"
    },
    {
      "midi": 74,
      "frequency": 587.3295358348151,
      "time": 162.666504,
      "duration": 0.3157404250000013,
      "velocity": 0.5905511811023622,
      "name": "D5"
    },
    {
      "midi": 71,
      "frequency": 493.8833012561241,
      "time": 162.999837,
      "duration": 0.3157404250000013,
      "velocity": 0.5905511811023622,
      "name": "B4"
    },
    {
      "midi": 69,
      "frequency": 440,
      "time": 163.33317,
      "duration": 0.21018497500000421,
      "velocity": 0.5905511811023622,
      "name": "A4"
    },
    {
      "midi": 40,
      "frequency": 82.40688922821748,
      "time": 163.555392,
      "duration": 0.3157404250000013,
      "velocity": 0.5118110236220472,
      "name": "E2"
    },
    {
      "midi": 52,
      "frequency": 164.81377845643496,
      "time": 163.555392,
      "duration": 0.3157404250000013,
      "velocity": 0.5118110236220472,
      "name": "E3"
    },
    {
      "midi": 59,
      "frequency": 246.94165062806206,
      "time": 163.888725,
      "duration": 0.3157404250000013,
      "velocity": 0.5118110236220472,
      "name": "B3"
    },
    {
      "midi": 71,
      "frequency": 493.8833012561241,
      "time": 164.222058,
      "duration": 0.21018497500000421,
      "velocity": 0.5905511811023622,
      "name": "B4"
    },
    {
      "midi": 76,
      "frequency": 659.2551138257398,
      "time": 164.222058,
      "duration": 0.21018497500000421,
      "velocity": 0.5905511811023622,
      "name": "E5"
    },
    {
      "midi": 79,
      "frequency": 783.9908719634986,
      "time": 164.222058,
      "duration": 0.21018497500000421,
      "velocity": 0.5905511811023622,
      "name": "G5"
    },
    {
      "midi": 64,
      "frequency": 329.6275569128699,
      "time": 164.222058,
      "duration": 1.054628574999981,
      "velocity": 0.5118110236220472,
      "name": "E4"
    },
    {
      "midi": 67,
      "frequency": 391.99543598174927,
      "time": 164.222058,
      "duration": 1.054628574999981,
      "velocity": 0.5118110236220472,
      "name": "G4"
    },
    {
      "midi": 71,
      "frequency": 493.8833012561241,
      "time": 164.44428,
      "duration": 0.42129587500002685,
      "velocity": 0.5905511811023622,
      "name": "B4"
    },
    {
      "midi": 76,
      "frequency": 659.2551138257398,
      "time": 164.44428,
      "duration": 0.42129587500002685,
      "velocity": 0.5905511811023622,
      "name": "E5"
    },
    {
      "midi": 79,
      "frequency": 783.9908719634986,
      "time": 164.44428,
      "duration": 0.42129587500002685,
      "velocity": 0.5905511811023622,
      "name": "G5"
    },
    {
      "midi": 74,
      "frequency": 587.3295358348151,
      "time": 165.110946,
      "duration": 0.2101849749999758,
      "velocity": 0.5905511811023622,
      "name": "D5"
    },
    {
      "midi": 78,
      "frequency": 739.9888454232689,
      "time": 165.110946,
      "duration": 0.2101849749999758,
      "velocity": 0.5905511811023622,
      "name": "F#5"
    },
    {
      "midi": 81,
      "frequency": 880,
      "time": 165.110946,
      "duration": 0.2101849749999758,
      "velocity": 0.5905511811023622,
      "name": "A5"
    },
    {
      "midi": 74,
      "frequency": 587.3295358348151,
      "time": 165.333168,
      "duration": 0.42129587499999843,
      "velocity": 0.5905511811023622,
      "name": "D5"
    },
    {
      "midi": 78,
      "frequency": 739.9888454232689,
      "time": 165.333168,
      "duration": 0.42129587499999843,
      "velocity": 0.5905511811023622,
      "name": "F#5"
    },
    {
      "midi": 81,
      "frequency": 880,
      "time": 165.333168,
      "duration": 0.42129587499999843,
      "velocity": 0.5905511811023622,
      "name": "A5"
    },
    {
      "midi": 38,
      "frequency": 73.41619197935188,
      "time": 165.333168,
      "duration": 0.3157404250000013,
      "velocity": 0.5118110236220472,
      "name": "D2"
    },
    {
      "midi": 50,
      "frequency": 146.8323839587038,
      "time": 165.333168,
      "duration": 0.3157404250000013,
      "velocity": 0.5118110236220472,
      "name": "D3"
    },
    {
      "midi": 57,
      "frequency": 220,
      "time": 165.666501,
      "duration": 0.3157404250000013,
      "velocity": 0.5118110236220472,
      "name": "A3"
    },
    {
      "midi": 83,
      "frequency": 987.7666025122483,
      "time": 165.999834,
      "duration": 0.21018497500000421,
      "velocity": 0.5905511811023622,
      "name": "B5"
    },
    {
      "midi": 62,
      "frequency": 293.6647679174076,
      "time": 165.999834,
      "duration": 0.42129587500002685,
      "velocity": 0.5118110236220472,
      "name": "D4"
    },
    {
      "midi": 66,
      "frequency": 369.99442271163446,
      "time": 165.999834,
      "duration": 0.42129587500002685,
      "velocity": 0.5118110236220472,
      "name": "F#4"
    },
    {
      "midi": 74,
      "frequency": 587.3295358348151,
      "time": 166.222056,
      "duration": 0.3157404250000013,
      "velocity": 0.5905511811023622,
      "name": "D5"
    },
    {
      "midi": 78,
      "frequency": 739.9888454232689,
      "time": 166.222056,
      "duration": 0.3157404250000013,
      "velocity": 0.5905511811023622,
      "name": "F#5"
    },
    {
      "midi": 83,
      "frequency": 987.7666025122483,
      "time": 166.222056,
      "duration": 0.3157404250000013,
      "velocity": 0.5905511811023622,
      "name": "B5"
    },
    {
      "midi": 67,
      "frequency": 391.99543598174927,
      "time": 166.444278,
      "duration": 0.21018497500000421,
      "velocity": 0.5118110236220472,
      "name": "G4"
    },
    {
      "midi": 74,
      "frequency": 587.3295358348151,
      "time": 166.555389,
      "duration": 0.3157404250000013,
      "velocity": 0.5905511811023622,
      "name": "D5"
    },
    {
      "midi": 78,
      "frequency": 739.9888454232689,
      "time": 166.555389,
      "duration": 0.3157404250000013,
      "velocity": 0.5905511811023622,
      "name": "F#5"
    },
    {
      "midi": 66,
      "frequency": 369.99442271163446,
      "time": 166.6665,
      "duration": 0.2101849749999758,
      "velocity": 0.5118110236220472,
      "name": "F#4"
    },
    {
      "midi": 79,
      "frequency": 783.9908719634986,
      "time": 166.888722,
      "duration": 0.21018497500000421,
      "velocity": 0.5905511811023622,
      "name": "G5"
    },
    {
      "midi": 62,
      "frequency": 293.6647679174076,
      "time": 166.888722,
      "duration": 0.21018497500000421,
      "velocity": 0.5118110236220472,
      "name": "D4"
    },
    {
      "midi": 36,
      "frequency": 65.40639132514966,
      "time": 167.110944,
      "duration": 0.31574042500002975,
      "velocity": 0.5118110236220472,
      "name": "C2"
    },
    {
      "midi": 48,
      "frequency": 130.8127826502993,
      "time": 167.110944,
      "duration": 0.31574042500002975,
      "velocity": 0.5118110236220472,
      "name": "C3"
    },
    {
      "midi": 59,
      "frequency": 246.94165062806206,
      "time": 167.444277,
      "duration": 0.3157404250000013,
      "velocity": 0.5118110236220472,
      "name": "B3"
    },
    {
      "midi": 71,
      "frequency": 493.8833012561241,
      "time": 167.77761,
      "duration": 0.21018497500000421,
      "velocity": 0.5905511811023622,
      "name": "B4"
    },
    {
      "midi": 76,
      "frequency": 659.2551138257398,
      "time": 167.77761,
      "duration": 0.21018497500000421,
      "velocity": 0.5905511811023622,
      "name": "E5"
    },
    {
      "midi": 79,
      "frequency": 783.9908719634986,
      "time": 167.77761,
      "duration": 0.21018497500000421,
      "velocity": 0.5905511811023622,
      "name": "G5"
    },
    {
      "midi": 64,
      "frequency": 329.6275569128699,
      "time": 167.77761,
      "duration": 1.054628574999981,
      "velocity": 0.5118110236220472,
      "name": "E4"
    },
    {
      "midi": 67,
      "frequency": 391.99543598174927,
      "time": 167.77761,
      "duration": 1.054628574999981,
      "velocity": 0.5118110236220472,
      "name": "G4"
    },
    {
      "midi": 71,
      "frequency": 493.8833012561241,
      "time": 167.999832,
      "duration": 0.42129587500002685,
      "velocity": 0.5905511811023622,
      "name": "B4"
    },
    {
      "midi": 76,
      "frequency": 659.2551138257398,
      "time": 167.999832,
      "duration": 0.42129587500002685,
      "velocity": 0.5905511811023622,
      "name": "E5"
    },
    {
      "midi": 79,
      "frequency": 783.9908719634986,
      "time": 167.999832,
      "duration": 0.42129587500002685,
      "velocity": 0.5905511811023622,
      "name": "G5"
    },
    {
      "midi": 69,
      "frequency": 440,
      "time": 168.666498,
      "duration": 0.21018497500000421,
      "velocity": 0.5905511811023622,
      "name": "A4"
    },
    {
      "midi": 74,
      "frequency": 587.3295358348151,
      "time": 168.666498,
      "duration": 0.21018497500000421,
      "velocity": 0.5905511811023622,
      "name": "D5"
    },
    {
      "midi": 78,
      "frequency": 739.9888454232689,
      "time": 168.666498,
      "duration": 0.21018497500000421,
      "velocity": 0.5905511811023622,
      "name": "F#5"
    },
    {
      "midi": 69,
      "frequency": 440,
      "time": 168.88872,
      "duration": 0.42129587499999843,
      "velocity": 0.5905511811023622,
      "name": "A4"
    },
    {
      "midi": 74,
      "frequency": 587.3295358348151,
      "time": 168.88872,
      "duration": 0.42129587499999843,
      "velocity": 0.5905511811023622,
      "name": "D5"
    },
    {
      "midi": 78,
      "frequency": 739.9888454232689,
      "time": 168.88872,
      "duration": 0.42129587499999843,
      "velocity": 0.5905511811023622,
      "name": "F#5"
    },
    {
      "midi": 38,
      "frequency": 73.41619197935188,
      "time": 168.88872,
      "duration": 0.3157404250000013,
      "velocity": 0.5118110236220472,
      "name": "D2"
    },
    {
      "midi": 50,
      "frequency": 146.8323839587038,
      "time": 168.88872,
      "duration": 0.3157404250000013,
      "velocity": 0.5118110236220472,
      "name": "D3"
    },
    {
      "midi": 57,
      "frequency": 220,
      "time": 169.222053,
      "duration": 0.31574042500002975,
      "velocity": 0.5118110236220472,
      "name": "A3"
    },
    {
      "midi": 67,
      "frequency": 391.99543598174927,
      "time": 169.555386,
      "duration": 0,
      "velocity": 0.5905511811023622,
      "name": "G4"
    },
    {
      "midi": 74,
      "frequency": 587.3295358348151,
      "time": 169.555386,
      "duration": 0.21018497500000421,
      "velocity": 0.5905511811023622,
      "name": "D5"
    },
    {
      "midi": 62,
      "frequency": 293.6647679174076,
      "time": 169.555386,
      "duration": 1.054628574999981,
      "velocity": 0.5118110236220472,
      "name": "D4"
    },
    {
      "midi": 67,
      "frequency": 391.99543598174927,
      "time": 169.555386,
      "duration": 0.22222200000001635,
      "velocity": 0.5118110236220472,
      "name": "G4"
    },
    {
      "midi": 67,
      "frequency": 391.99543598174927,
      "time": 169.77760800000001,
      "duration": 0.8324065749999647,
      "velocity": 0.5905511811023622,
      "name": "G4"
    },
    {
      "midi": 74,
      "frequency": 587.3295358348151,
      "time": 169.77760800000001,
      "duration": 0.3157404250000013,
      "velocity": 0.5905511811023622,
      "name": "D5"
    },
    {
      "midi": 71,
      "frequency": 493.8833012561241,
      "time": 170.110941,
      "duration": 0.3157404250000013,
      "velocity": 0.5905511811023622,
      "name": "B4"
    },
    {
      "midi": 69,
      "frequency": 440,
      "time": 170.444274,
      "duration": 0.21018497500000421,
      "velocity": 0.5905511811023622,
      "name": "A4"
    },
    {
      "midi": 40,
      "frequency": 82.40688922821748,
      "time": 170.666496,
      "duration": 0.3157404250000013,
      "velocity": 0.5118110236220472,
      "name": "E2"
    },
    {
      "midi": 52,
      "frequency": 164.81377845643496,
      "time": 170.666496,
      "duration": 0.3157404250000013,
      "velocity": 0.5118110236220472,
      "name": "E3"
    },
    {
      "midi": 59,
      "frequency": 246.94165062806206,
      "time": 170.999829,
      "duration": 0.3157404250000013,
      "velocity": 0.5118110236220472,
      "name": "B3"
    },
    {
      "midi": 71,
      "frequency": 493.8833012561241,
      "time": 171.33316200000002,
      "duration": 0.2101849749999758,
      "velocity": 0.5905511811023622,
      "name": "B4"
    },
    {
      "midi": 76,
      "frequency": 659.2551138257398,
      "time": 171.33316200000002,
      "duration": 0.2101849749999758,
      "velocity": 0.5905511811023622,
      "name": "E5"
    },
    {
      "midi": 79,
      "frequency": 783.9908719634986,
      "time": 171.33316200000002,
      "duration": 0.2101849749999758,
      "velocity": 0.5905511811023622,
      "name": "G5"
    },
    {
      "midi": 64,
      "frequency": 329.6275569128699,
      "time": 171.33316200000002,
      "duration": 1.054628574999981,
      "velocity": 0.5118110236220472,
      "name": "E4"
    },
    {
      "midi": 67,
      "frequency": 391.99543598174927,
      "time": 171.33316200000002,
      "duration": 1.054628574999981,
      "velocity": 0.5118110236220472,
      "name": "G4"
    },
    {
      "midi": 71,
      "frequency": 493.8833012561241,
      "time": 171.555384,
      "duration": 0.42129587499999843,
      "velocity": 0.5905511811023622,
      "name": "B4"
    },
    {
      "midi": 76,
      "frequency": 659.2551138257398,
      "time": 171.555384,
      "duration": 0.42129587499999843,
      "velocity": 0.5905511811023622,
      "name": "E5"
    },
    {
      "midi": 79,
      "frequency": 783.9908719634986,
      "time": 171.555384,
      "duration": 0.42129587499999843,
      "velocity": 0.5905511811023622,
      "name": "G5"
    },
    {
      "midi": 74,
      "frequency": 587.3295358348151,
      "time": 172.22205,
      "duration": 0.21018497500000421,
      "velocity": 0.5905511811023622,
      "name": "D5"
    },
    {
      "midi": 78,
      "frequency": 739.9888454232689,
      "time": 172.22205,
      "duration": 0.21018497500000421,
      "velocity": 0.5905511811023622,
      "name": "F#5"
    },
    {
      "midi": 81,
      "frequency": 880,
      "time": 172.22205,
      "duration": 0.21018497500000421,
      "velocity": 0.5905511811023622,
      "name": "A5"
    },
    {
      "midi": 74,
      "frequency": 587.3295358348151,
      "time": 172.444272,
      "duration": 0.42129587499999843,
      "velocity": 0.5905511811023622,
      "name": "D5"
    },
    {
      "midi": 78,
      "frequency": 739.9888454232689,
      "time": 172.444272,
      "duration": 0.42129587499999843,
      "velocity": 0.5905511811023622,
      "name": "F#5"
    },
    {
      "midi": 81,
      "frequency": 880,
      "time": 172.444272,
      "duration": 0.42129587499999843,
      "velocity": 0.5905511811023622,
      "name": "A5"
    },
    {
      "midi": 38,
      "frequency": 73.41619197935188,
      "time": 172.444272,
      "duration": 0.3157404250000013,
      "velocity": 0.5118110236220472,
      "name": "D2"
    },
    {
      "midi": 50,
      "frequency": 146.8323839587038,
      "time": 172.444272,
      "duration": 0.3157404250000013,
      "velocity": 0.5118110236220472,
      "name": "D3"
    },
    {
      "midi": 57,
      "frequency": 220,
      "time": 172.777605,
      "duration": 0.3157404250000013,
      "velocity": 0.5118110236220472,
      "name": "A3"
    },
    {
      "midi": 86,
      "frequency": 1174.6590716696303,
      "time": 173.110938,
      "duration": 0.21018497500000421,
      "velocity": 0.7244094488188977,
      "name": "D6"
    },
    {
      "midi": 62,
      "frequency": 293.6647679174076,
      "time": 173.110938,
      "duration": 0.42129587499999843,
      "velocity": 0.5118110236220472,
      "name": "D4"
    },
    {
      "midi": 66,
      "frequency": 369.99442271163446,
      "time": 173.110938,
      "duration": 0.42129587499999843,
      "velocity": 0.5118110236220472,
      "name": "F#4"
    },
    {
      "midi": 74,
      "frequency": 587.3295358348151,
      "time": 173.33316,
      "duration": 0.3157404250000013,
      "velocity": 0.7244094488188977,
      "name": "D5"
    },
    {
      "midi": 79,
      "frequency": 783.9908719634986,
      "time": 173.33316,
      "duration": 0.3157404250000013,
      "velocity": 0.7244094488188977,
      "name": "G5"
    },
    {
      "midi": 84,
      "frequency": 1046.5022612023945,
      "time": 173.33316,
      "duration": 0.3157404250000013,
      "velocity": 0.7244094488188977,
      "name": "C6"
    },
    {
      "midi": 67,
      "frequency": 391.99543598174927,
      "time": 173.555382,
      "duration": 0.21018497500000421,
      "velocity": 0.5118110236220472,
      "name": "G4"
    },
    {
      "midi": 83,
      "frequency": 987.7666025122483,
      "time": 173.666493,
      "duration": 0.3157404250000013,
      "velocity": 0.7244094488188977,
      "name": "B5"
    },
    {
      "midi": 66,
      "frequency": 369.99442271163446,
      "time": 173.777604,
      "duration": 0.21018497500000421,
      "velocity": 0.5118110236220472,
      "name": "F#4"
    },
    {
      "midi": 79,
      "frequency": 783.9908719634986,
      "time": 173.999826,
      "duration": 0.2101849749999758,
      "velocity": 0.7244094488188977,
      "name": "G5"
    },
    {
      "midi": 62,
      "frequency": 293.6647679174076,
      "time": 173.999826,
      "duration": 0.2101849749999758,
      "velocity": 0.5118110236220472,
      "name": "D4"
    },
    {
      "midi": 36,
      "frequency": 65.40639132514966,
      "time": 174.222048,
      "duration": 0.3157404250000013,
      "velocity": 0.5118110236220472,
      "name": "C2"
    },
    {
      "midi": 48,
      "frequency": 130.8127826502993,
      "time": 174.222048,
      "duration": 0.3157404250000013,
      "velocity": 0.5118110236220472,
      "name": "C3"
    },
    {
      "midi": 59,
      "frequency": 246.94165062806206,
      "time": 174.555381,
      "duration": 0.3157404250000013,
      "velocity": 0.5118110236220472,
      "name": "B3"
    },
    {
      "midi": 71,
      "frequency": 493.8833012561241,
      "time": 174.888714,
      "duration": 0.21018497500000421,
      "velocity": 0.6141732283464567,
      "name": "B4"
    },
    {
      "midi": 76,
      "frequency": 659.2551138257398,
      "time": 174.888714,
      "duration": 0.21018497500000421,
      "velocity": 0.6141732283464567,
      "name": "E5"
    },
    {
      "midi": 79,
      "frequency": 783.9908719634986,
      "time": 174.888714,
      "duration": 0.21018497500000421,
      "velocity": 0.6141732283464567,
      "name": "G5"
    },
    {
      "midi": 64,
      "frequency": 329.6275569128699,
      "time": 174.888714,
      "duration": 0.42129587500002685,
      "velocity": 0.5118110236220472,
      "name": "E4"
    },
    {
      "midi": 67,
      "frequency": 391.99543598174927,
      "time": 174.888714,
      "duration": 0.42129587500002685,
      "velocity": 0.5118110236220472,
      "name": "G4"
    },
    {
      "midi": 71,
      "frequency": 493.8833012561241,
      "time": 175.110936,
      "duration": 0.42129587499999843,
      "velocity": 0.6220472440944882,
      "name": "B4"
    },
    {
      "midi": 76,
      "frequency": 659.2551138257398,
      "time": 175.110936,
      "duration": 0.42129587499999843,
      "velocity": 0.6220472440944882,
      "name": "E5"
    },
    {
      "midi": 79,
      "frequency": 783.9908719634986,
      "time": 175.110936,
      "duration": 0.42129587499999843,
      "velocity": 0.6220472440944882,
      "name": "G5"
    },
    {
      "midi": 48,
      "frequency": 130.8127826502993,
      "time": 175.333158,
      "duration": 0.21018497500000421,
      "velocity": 0.5118110236220472,
      "name": "C3"
    },
    {
      "midi": 55,
      "frequency": 195.99771799087463,
      "time": 175.55538,
      "duration": 0.2101849749999758,
      "velocity": 0.5118110236220472,
      "name": "G3"
    },
    {
      "midi": 69,
      "frequency": 440,
      "time": 175.777602,
      "duration": 0.21018497500000421,
      "velocity": 0.6456692913385826,
      "name": "A4"
    },
    {
      "midi": 74,
      "frequency": 587.3295358348151,
      "time": 175.777602,
      "duration": 0.21018497500000421,
      "velocity": 0.6456692913385826,
      "name": "D5"
    },
    {
      "midi": 78,
      "frequency": 739.9888454232689,
      "time": 175.777602,
      "duration": 0.21018497500000421,
      "velocity": 0.6456692913385826,
      "name": "F#5"
    },
    {
      "midi": 60,
      "frequency": 261.6255653005986,
      "time": 175.777602,
      "duration": 0.21018497500000421,
      "velocity": 0.5118110236220472,
      "name": "C4"
    },
    {
      "midi": 69,
      "frequency": 440,
      "time": 175.999824,
      "duration": 0.42129587500002685,
      "velocity": 0.6535433070866141,
      "name": "A4"
    },
    {
      "midi": 74,
      "frequency": 587.3295358348151,
      "time": 175.999824,
      "duration": 0.42129587500002685,
      "velocity": 0.6535433070866141,
      "name": "D5"
    },
    {
      "midi": 78,
      "frequency": 739.9888454232689,
      "time": 175.999824,
      "duration": 0.42129587500002685,
      "velocity": 0.6535433070866141,
      "name": "F#5"
    },
    {
      "midi": 38,
      "frequency": 73.41619197935188,
      "time": 175.999824,
      "duration": 0.31574042500002975,
      "velocity": 0.5118110236220472,
      "name": "D2"
    },
    {
      "midi": 50,
      "frequency": 146.8323839587038,
      "time": 175.999824,
      "duration": 0.31574042500002975,
      "velocity": 0.5118110236220472,
      "name": "D3"
    },
    {
      "midi": 57,
      "frequency": 220,
      "time": 176.333157,
      "duration": 0.3157404250000013,
      "velocity": 0.5118110236220472,
      "name": "A3"
    },
    {
      "midi": 67,
      "frequency": 391.99543598174927,
      "time": 176.66649,
      "duration": 0,
      "velocity": 0.6771653543307087,
      "name": "G4"
    },
    {
      "midi": 74,
      "frequency": 587.3295358348151,
      "time": 176.66649,
      "duration": 0.21018497500000421,
      "velocity": 0.6771653543307087,
      "name": "D5"
    },
    {
      "midi": 62,
      "frequency": 293.6647679174076,
      "time": 176.66649,
      "duration": 0.42129587499999843,
      "velocity": 0.5118110236220472,
      "name": "D4"
    },
    {
      "midi": 67,
      "frequency": 391.99543598174927,
      "time": 176.66649,
      "duration": 0.22222199999998793,
      "velocity": 0.5118110236220472,
      "name": "G4"
    },
    {
      "midi": 67,
      "frequency": 391.99543598174927,
      "time": 176.888712,
      "duration": 0.3157404250000013,
      "velocity": 0.6850393700787402,
      "name": "G4"
    },
    {
      "midi": 74,
      "frequency": 587.3295358348151,
      "time": 176.888712,
      "duration": 0.3157404250000013,
      "velocity": 0.6850393700787402,
      "name": "D5"
    },
    {
      "midi": 50,
      "frequency": 146.8323839587038,
      "time": 177.11093400000001,
      "duration": 0.2101849749999758,
      "velocity": 0.5118110236220472,
      "name": "D3"
    },
    {
      "midi": 71,
      "frequency": 493.8833012561241,
      "time": 177.222045,
      "duration": 0.3157404250000013,
      "velocity": 0.6929133858267716,
      "name": "B4"
    },
    {
      "midi": 57,
      "frequency": 220,
      "time": 177.333156,
      "duration": 0.21018497500000421,
      "velocity": 0.5118110236220472,
      "name": "A3"
    },
    {
      "midi": 69,
      "frequency": 440,
      "time": 177.555378,
      "duration": 0.21018497500000421,
      "velocity": 0.7007874015748031,
      "name": "A4"
    },
    {
      "midi": 62,
      "frequency": 293.6647679174076,
      "time": 177.555378,
      "duration": 0.21018497500000421,
      "velocity": 0.5118110236220472,
      "name": "D4"
    },
    {
      "midi": 40,
      "frequency": 82.40688922821748,
      "time": 177.7776,
      "duration": 0.3157404250000013,
      "velocity": 0.5118110236220472,
      "name": "E2"
    },
    {
      "midi": 52,
      "frequency": 164.81377845643496,
      "time": 177.7776,
      "duration": 0.3157404250000013,
      "velocity": 0.5118110236220472,
      "name": "E3"
    },
    {
      "midi": 59,
      "frequency": 246.94165062806206,
      "time": 178.110933,
      "duration": 0.31574042500002975,
      "velocity": 0.5118110236220472,
      "name": "B3"
    },
    {
      "midi": 71,
      "frequency": 493.8833012561241,
      "time": 178.444266,
      "duration": 0.21018497500000421,
      "velocity": 0.7322834645669292,
      "name": "B4"
    },
    {
      "midi": 76,
      "frequency": 659.2551138257398,
      "time": 178.444266,
      "duration": 0.21018497500000421,
      "velocity": 0.7322834645669292,
      "name": "E5"
    },
    {
      "midi": 79,
      "frequency": 783.9908719634986,
      "time": 178.444266,
      "duration": 0.21018497500000421,
      "velocity": 0.7322834645669292,
      "name": "G5"
    },
    {
      "midi": 64,
      "frequency": 329.6275569128699,
      "time": 178.444266,
      "duration": 0.42129587499999843,
      "velocity": 0.5118110236220472,
      "name": "E4"
    },
    {
      "midi": 67,
      "frequency": 391.99543598174927,
      "time": 178.444266,
      "duration": 0.42129587499999843,
      "velocity": 0.5118110236220472,
      "name": "G4"
    },
    {
      "midi": 71,
      "frequency": 493.8833012561241,
      "time": 178.66648800000002,
      "duration": 0.42129587499999843,
      "velocity": 0.7401574803149606,
      "name": "B4"
    },
    {
      "midi": 76,
      "frequency": 659.2551138257398,
      "time": 178.66648800000002,
      "duration": 0.42129587499999843,
      "velocity": 0.7401574803149606,
      "name": "E5"
    },
    {
      "midi": 79,
      "frequency": 783.9908719634986,
      "time": 178.66648800000002,
      "duration": 0.42129587499999843,
      "velocity": 0.7401574803149606,
      "name": "G5"
    },
    {
      "midi": 52,
      "frequency": 164.81377845643496,
      "time": 178.88871,
      "duration": 0.21018497500000421,
      "velocity": 0.5118110236220472,
      "name": "E3"
    },
    {
      "midi": 59,
      "frequency": 246.94165062806206,
      "time": 179.110932,
      "duration": 0.21018497500000421,
      "velocity": 0.5118110236220472,
      "name": "B3"
    },
    {
      "midi": 74,
      "frequency": 587.3295358348151,
      "time": 179.333154,
      "duration": 0.21018497500000421,
      "velocity": 0.7637795275590551,
      "name": "D5"
    },
    {
      "midi": 78,
      "frequency": 739.9888454232689,
      "time": 179.333154,
      "duration": 0.21018497500000421,
      "velocity": 0.7637795275590551,
      "name": "F#5"
    },
    {
      "midi": 81,
      "frequency": 880,
      "time": 179.333154,
      "duration": 0.21018497500000421,
      "velocity": 0.7637795275590551,
      "name": "A5"
    },
    {
      "midi": 64,
      "frequency": 329.6275569128699,
      "time": 179.333154,
      "duration": 0.21018497500000421,
      "velocity": 0.5118110236220472,
      "name": "E4"
    },
    {
      "midi": 74,
      "frequency": 587.3295358348151,
      "time": 179.555376,
      "duration": 0.42129587500002685,
      "velocity": 0.7716535433070866,
      "name": "D5"
    },
    {
      "midi": 78,
      "frequency": 739.9888454232689,
      "time": 179.555376,
      "duration": 0.42129587500002685,
      "velocity": 0.7716535433070866,
      "name": "F#5"
    },
    {
      "midi": 81,
      "frequency": 880,
      "time": 179.555376,
      "duration": 0.42129587500002685,
      "velocity": 0.7716535433070866,
      "name": "A5"
    },
    {
      "midi": 38,
      "frequency": 73.41619197935188,
      "time": 179.555376,
      "duration": 0.3157404250000013,
      "velocity": 0.5118110236220472,
      "name": "D2"
    },
    {
      "midi": 50,
      "frequency": 146.8323839587038,
      "time": 179.555376,
      "duration": 0.3157404250000013,
      "velocity": 0.5118110236220472,
      "name": "D3"
    },
    {
      "midi": 57,
      "frequency": 220,
      "time": 179.888709,
      "duration": 0.3157404250000013,
      "velocity": 0.5118110236220472,
      "name": "A3"
    },
    {
      "midi": 83,
      "frequency": 987.7666025122483,
      "time": 180.22204200000002,
      "duration": 0.2101849749999758,
      "velocity": 0.7952755905511811,
      "name": "B5"
    },
    {
      "midi": 62,
      "frequency": 293.6647679174076,
      "time": 180.22204200000002,
      "duration": 0.42129587499999843,
      "velocity": 0.5118110236220472,
      "name": "D4"
    },
    {
      "midi": 66,
      "frequency": 369.99442271163446,
      "time": 180.22204200000002,
      "duration": 0.42129587499999843,
      "velocity": 0.5118110236220472,
      "name": "F#4"
    },
    {
      "midi": 74,
      "frequency": 587.3295358348151,
      "time": 180.444264,
      "duration": 0.3157404250000013,
      "velocity": 0.8031496062992126,
      "name": "D5"
    },
    {
      "midi": 78,
      "frequency": 739.9888454232689,
      "time": 180.444264,
      "duration": 0.3157404250000013,
      "velocity": 0.8031496062992126,
      "name": "F#5"
    },
    {
      "midi": 83,
      "frequency": 987.7666025122483,
      "time": 180.444264,
      "duration": 0.3157404250000013,
      "velocity": 0.8031496062992126,
      "name": "B5"
    },
    {
      "midi": 67,
      "frequency": 391.99543598174927,
      "time": 180.666486,
      "duration": 0.21018497500000421,
      "velocity": 0.5118110236220472,
      "name": "G4"
    },
    {
      "midi": 74,
      "frequency": 587.3295358348151,
      "time": 180.77759700000001,
      "duration": 0.3157404250000013,
      "velocity": 0.8188976377952756,
      "name": "D5"
    },
    {
      "midi": 78,
      "frequency": 739.9888454232689,
      "time": 180.77759700000001,
      "duration": 0.3157404250000013,
      "velocity": 0.8188976377952756,
      "name": "F#5"
    },
    {
      "midi": 66,
      "frequency": 369.99442271163446,
      "time": 180.888708,
      "duration": 0.21018497500000421,
      "velocity": 0.5118110236220472,
      "name": "F#4"
    },
    {
      "midi": 79,
      "frequency": 783.9908719634986,
      "time": 181.11093,
      "duration": 0.21018497500000421,
      "velocity": 0.8346456692913385,
      "name": "G5"
    },
    {
      "midi": 62,
      "frequency": 293.6647679174076,
      "time": 181.11093,
      "duration": 0.21018497500000421,
      "velocity": 0.5118110236220472,
      "name": "D4"
    },
    {
      "midi": 72,
      "frequency": 523.2511306011972,
      "time": 181.333152,
      "duration": 0.3157404250000013,
      "velocity": 0.7244094488188977,
      "name": "C5"
    },
    {
      "midi": 76,
      "frequency": 659.2551138257398,
      "time": 181.333152,
      "duration": 0.3157404250000013,
      "velocity": 0.7244094488188977,
      "name": "E5"
    },
    {
      "midi": 79,
      "frequency": 783.9908719634986,
      "time": 181.333152,
      "duration": 0.3157404250000013,
      "velocity": 0.7244094488188977,
      "name": "G5"
    },
    {
      "midi": 36,
      "frequency": 65.40639132514966,
      "time": 181.333152,
      "duration": 0.42129587499999843,
      "velocity": 0.5118110236220472,
      "name": "C2"
    },
    {
      "midi": 48,
      "frequency": 130.8127826502993,
      "time": 181.333152,
      "duration": 0.42129587499999843,
      "velocity": 0.5118110236220472,
      "name": "C3"
    },
    {
      "midi": 81,
      "frequency": 880,
      "time": 181.666485,
      "duration": 0.3157404250000013,
      "velocity": 0.7244094488188977,
      "name": "A5"
    },
    {
      "midi": 36,
      "frequency": 65.40639132514966,
      "time": 181.777596,
      "duration": 0.42129587500002685,
      "velocity": 0.5275590551181102,
      "name": "C2"
    },
    {
      "midi": 48,
      "frequency": 130.8127826502993,
      "time": 181.777596,
      "duration": 0.42129587500002685,
      "velocity": 0.5275590551181102,
      "name": "C3"
    },
    {
      "midi": 83,
      "frequency": 987.7666025122483,
      "time": 181.999818,
      "duration": 0.21018497500000421,
      "velocity": 0.7244094488188977,
      "name": "B5"
    },
    {
      "midi": 72,
      "frequency": 523.2511306011972,
      "time": 182.22204,
      "duration": 0.42129587500002685,
      "velocity": 0.7244094488188977,
      "name": "C5"
    },
    {
      "midi": 76,
      "frequency": 659.2551138257398,
      "time": 182.22204,
      "duration": 0.42129587500002685,
      "velocity": 0.7244094488188977,
      "name": "E5"
    },
    {
      "midi": 83,
      "frequency": 987.7666025122483,
      "time": 182.22204,
      "duration": 0.42129587500002685,
      "velocity": 0.7244094488188977,
      "name": "B5"
    },
    {
      "midi": 36,
      "frequency": 65.40639132514966,
      "time": 182.22204,
      "duration": 0.42129587500002685,
      "velocity": 0.5433070866141733,
      "name": "C2"
    },
    {
      "midi": 48,
      "frequency": 130.8127826502993,
      "time": 182.22204,
      "duration": 0.42129587500002685,
      "velocity": 0.5433070866141733,
      "name": "C3"
    },
    {
      "midi": 36,
      "frequency": 65.40639132514966,
      "time": 182.666484,
      "duration": 0.42129587500002685,
      "velocity": 0.5590551181102362,
      "name": "C2"
    },
    {
      "midi": 48,
      "frequency": 130.8127826502993,
      "time": 182.666484,
      "duration": 0.42129587500002685,
      "velocity": 0.5590551181102362,
      "name": "C3"
    },
    {
      "midi": 74,
      "frequency": 587.3295358348151,
      "time": 182.888706,
      "duration": 0.2101849749999758,
      "velocity": 0.7244094488188977,
      "name": "D5"
    },
    {
      "midi": 69,
      "frequency": 440,
      "time": 183.110928,
      "duration": 0.3157404250000013,
      "velocity": 0.7244094488188977,
      "name": "A4"
    },
    {
      "midi": 74,
      "frequency": 587.3295358348151,
      "time": 183.110928,
      "duration": 0.3157404250000013,
      "velocity": 0.7244094488188977,
      "name": "D5"
    },
    {
      "midi": 38,
      "frequency": 73.41619197935188,
      "time": 183.110928,
      "duration": 0.42129587499999843,
      "velocity": 0.5748031496062992,
      "name": "D2"
    },
    {
      "midi": 50,
      "frequency": 146.8323839587038,
      "time": 183.110928,
      "duration": 0.42129587499999843,
      "velocity": 0.5748031496062992,
      "name": "D3"
    },
    {
      "midi": 69,
      "frequency": 440,
      "time": 183.444261,
      "duration": 0.3157404250000013,
      "velocity": 0.7244094488188977,
      "name": "A4"
    },
    {
      "midi": 74,
      "frequency": 587.3295358348151,
      "time": 183.444261,
      "duration": 0.3157404250000013,
      "velocity": 0.7244094488188977,
      "name": "D5"
    },
    {
      "midi": 38,
      "frequency": 73.41619197935188,
      "time": 183.555372,
      "duration": 0.42129587499999843,
      "velocity": 0.5905511811023622,
      "name": "D2"
    },
    {
      "midi": 50,
      "frequency": 146.8323839587038,
      "time": 183.555372,
      "duration": 0.42129587499999843,
      "velocity": 0.5905511811023622,
      "name": "D3"
    },
    {
      "midi": 74,
      "frequency": 587.3295358348151,
      "time": 183.777594,
      "duration": 0.21018497500000421,
      "velocity": 0.7244094488188977,
      "name": "D5"
    },
    {
      "midi": 86,
      "frequency": 1174.6590716696303,
      "time": 183.777594,
      "duration": 0.21018497500000421,
      "velocity": 0.7244094488188977,
      "name": "D6"
    },
    {
      "midi": 74,
      "frequency": 587.3295358348151,
      "time": 183.999816,
      "duration": 0.42129587499999843,
      "velocity": 0.7244094488188977,
      "name": "D5"
    },
    {
      "midi": 81,
      "frequency": 880,
      "time": 183.999816,
      "duration": 0.42129587499999843,
      "velocity": 0.7244094488188977,
      "name": "A5"
    },
    {
      "midi": 86,
      "frequency": 1174.6590716696303,
      "time": 183.999816,
      "duration": 0.42129587499999843,
      "velocity": 0.7244094488188977,
      "name": "D6"
    },
    {
      "midi": 38,
      "frequency": 73.41619197935188,
      "time": 183.999816,
      "duration": 0.42129587499999843,
      "velocity": 0.6062992125984252,
      "name": "D2"
    },
    {
      "midi": 50,
      "frequency": 146.8323839587038,
      "time": 183.999816,
      "duration": 0.42129587499999843,
      "velocity": 0.6062992125984252,
      "name": "D3"
    },
    {
      "midi": 38,
      "frequency": 73.41619197935188,
      "time": 184.44426,
      "duration": 0.42129587499999843,
      "velocity": 0.6220472440944882,
      "name": "D2"
    },
    {
      "midi": 50,
      "frequency": 146.8323839587038,
      "time": 184.44426,
      "duration": 0.42129587499999843,
      "velocity": 0.6220472440944882,
      "name": "D3"
    },
    {
      "midi": 81,
      "frequency": 880,
      "time": 184.666482,
      "duration": 0.21018497500000421,
      "velocity": 0.7244094488188977,
      "name": "A5"
    },
    {
      "midi": 69,
      "frequency": 440,
      "time": 184.888704,
      "duration": 0.31574042500002975,
      "velocity": 0.7244094488188977,
      "name": "A4"
    },
    {
      "midi": 76,
      "frequency": 659.2551138257398,
      "time": 184.888704,
      "duration": 0.31574042500002975,
      "velocity": 0.7244094488188977,
      "name": "E5"
    },
    {
      "midi": 81,
      "frequency": 880,
      "time": 184.888704,
      "duration": 0.31574042500002975,
      "velocity": 0.7244094488188977,
      "name": "A5"
    },
    {
      "midi": 40,
      "frequency": 82.40688922821748,
      "time": 184.888704,
      "duration": 0.21018497500000421,
      "velocity": 0.6456692913385826,
      "name": "E2"
    },
    {
      "midi": 52,
      "frequency": 164.81377845643496,
      "time": 184.888704,
      "duration": 0.21018497500000421,
      "velocity": 0.6456692913385826,
      "name": "E3"
    },
    {
      "midi": 40,
      "frequency": 82.40688922821748,
      "time": 185.110926,
      "duration": 0.21018497500000421,
      "velocity": 0.6614173228346457,
      "name": "E2"
    },
    {
      "midi": 52,
      "frequency": 164.81377845643496,
      "time": 185.110926,
      "duration": 0.21018497500000421,
      "velocity": 0.6614173228346457,
      "name": "E3"
    },
    {
      "midi": 69,
      "frequency": 440,
      "time": 185.222037,
      "duration": 0.3157404250000013,
      "velocity": 0.7244094488188977,
      "name": "A4"
    },
    {
      "midi": 81,
      "frequency": 880,
      "time": 185.222037,
      "duration": 0.3157404250000013,
      "velocity": 0.7244094488188977,
      "name": "A5"
    },
    {
      "midi": 40,
      "frequency": 82.40688922821748,
      "time": 185.333148,
      "duration": 0.21018497500000421,
      "velocity": 0.6771653543307087,
      "name": "E2"
    },
    {
      "midi": 52,
      "frequency": 164.81377845643496,
      "time": 185.333148,
      "duration": 0.21018497500000421,
      "velocity": 0.6771653543307087,
      "name": "E3"
    },
    {
      "midi": 71,
      "frequency": 493.8833012561241,
      "time": 185.55537,
      "duration": 0.21018497500000421,
      "velocity": 0.7244094488188977,
      "name": "B4"
    },
    {
      "midi": 83,
      "frequency": 987.7666025122483,
      "time": 185.55537,
      "duration": 0.21018497500000421,
      "velocity": 0.7244094488188977,
      "name": "B5"
    },
    {
      "midi": 40,
      "frequency": 82.40688922821748,
      "time": 185.55537,
      "duration": 0.21018497500000421,
      "velocity": 0.6929133858267716,
      "name": "E2"
    },
    {
      "midi": 52,
      "frequency": 164.81377845643496,
      "time": 185.55537,
      "duration": 0.21018497500000421,
      "velocity": 0.6929133858267716,
      "name": "E3"
    },
    {
      "midi": 71,
      "frequency": 493.8833012561241,
      "time": 185.777592,
      "duration": 0.8435176750000153,
      "velocity": 0.7244094488188977,
      "name": "B4"
    },
    {
      "midi": 76,
      "frequency": 659.2551138257398,
      "time": 185.777592,
      "duration": 0.8435176750000153,
      "velocity": 0.7244094488188977,
      "name": "E5"
    },
    {
      "midi": 83,
      "frequency": 987.7666025122483,
      "time": 185.777592,
      "duration": 0.8435176750000153,
      "velocity": 0.7244094488188977,
      "name": "B5"
    },
    {
      "midi": 40,
      "frequency": 82.40688922821748,
      "time": 185.777592,
      "duration": 0.21018497500000421,
      "velocity": 0.7086614173228346,
      "name": "E2"
    },
    {
      "midi": 52,
      "frequency": 164.81377845643496,
      "time": 185.777592,
      "duration": 0.21018497500000421,
      "velocity": 0.7086614173228346,
      "name": "E3"
    },
    {
      "midi": 66,
      "frequency": 369.99442271163446,
      "time": 185.99981400000001,
      "duration": 0.2101849749999758,
      "velocity": 0.5905511811023622,
      "name": "F#4"
    },
    {
      "midi": 78,
      "frequency": 739.9888454232689,
      "time": 185.99981400000001,
      "duration": 0.2101849749999758,
      "velocity": 0.5905511811023622,
      "name": "F#5"
    },
    {
      "midi": 40,
      "frequency": 82.40688922821748,
      "time": 185.99981400000001,
      "duration": 0.2101849749999758,
      "velocity": 0.7244094488188977,
      "name": "E2"
    },
    {
      "midi": 52,
      "frequency": 164.81377845643496,
      "time": 185.99981400000001,
      "duration": 0.2101849749999758,
      "velocity": 0.7244094488188977,
      "name": "E3"
    },
    {
      "midi": 67,
      "frequency": 391.99543598174927,
      "time": 186.222036,
      "duration": 0.21018497500000421,
      "velocity": 0.6771653543307087,
      "name": "G4"
    },
    {
      "midi": 79,
      "frequency": 783.9908719634986,
      "time": 186.222036,
      "duration": 0.21018497500000421,
      "velocity": 0.6771653543307087,
      "name": "G5"
    },
    {
      "midi": 40,
      "frequency": 82.40688922821748,
      "time": 186.222036,
      "duration": 0.21018497500000421,
      "velocity": 0.7401574803149606,
      "name": "E2"
    },
    {
      "midi": 52,
      "frequency": 164.81377845643496,
      "time": 186.222036,
      "duration": 0.21018497500000421,
      "velocity": 0.7401574803149606,
      "name": "E3"
    },
    {
      "midi": 69,
      "frequency": 440,
      "time": 186.444258,
      "duration": 0.21018497500000421,
      "velocity": 0.7637795275590551,
      "name": "A4"
    },
    {
      "midi": 81,
      "frequency": 880,
      "time": 186.444258,
      "duration": 0.21018497500000421,
      "velocity": 0.7637795275590551,
      "name": "A5"
    },
    {
      "midi": 40,
      "frequency": 82.40688922821748,
      "time": 186.444258,
      "duration": 0.21018497500000421,
      "velocity": 0.7559055118110236,
      "name": "E2"
    },
    {
      "midi": 52,
      "frequency": 164.81377845643496,
      "time": 186.444258,
      "duration": 0.21018497500000421,
      "velocity": 0.7559055118110236,
      "name": "E3"
    },
    {
      "midi": 40,
      "frequency": 82.40688922821748,
      "time": 186.66648,
      "duration": 0.3157404250000013,
      "velocity": 0.7716535433070866,
      "name": "E2"
    },
    {
      "midi": 52,
      "frequency": 164.81377845643496,
      "time": 186.66648,
      "duration": 0.3157404250000013,
      "velocity": 0.7716535433070866,
      "name": "E3"
    },
    {
      "midi": 40,
      "frequency": 82.40688922821748,
      "time": 186.999813,
      "duration": 0.31574042500002975,
      "velocity": 0.7716535433070866,
      "name": "E2"
    },
    {
      "midi": 52,
      "frequency": 164.81377845643496,
      "time": 186.999813,
      "duration": 0.31574042500002975,
      "velocity": 0.7716535433070866,
      "name": "E3"
    },
    {
      "midi": 62,
      "frequency": 293.6647679174076,
      "time": 187.110924,
      "duration": 0.42129587499999843,
      "velocity": 0.8503937007874016,
      "name": "D4"
    },
    {
      "midi": 67,
      "frequency": 391.99543598174927,
      "time": 187.110924,
      "duration": 0.42129587499999843,
      "velocity": 0.8503937007874016,
      "name": "G4"
    },
    {
      "midi": 74,
      "frequency": 587.3295358348151,
      "time": 187.110924,
      "duration": 0.42129587499999843,
      "velocity": 0.8503937007874016,
      "name": "D5"
    },
    {
      "midi": 40,
      "frequency": 82.40688922821748,
      "time": 187.333146,
      "duration": 0.3157404250000013,
      "velocity": 0.7716535433070866,
      "name": "E2"
    },
    {
      "midi": 52,
      "frequency": 164.81377845643496,
      "time": 187.333146,
      "duration": 0.3157404250000013,
      "velocity": 0.7716535433070866,
      "name": "E3"
    },
    {
      "midi": 62,
      "frequency": 293.6647679174076,
      "time": 187.55536800000002,
      "duration": 0.42129587499999843,
      "velocity": 0.8503937007874016,
      "name": "D4"
    },
    {
      "midi": 67,
      "frequency": 391.99543598174927,
      "time": 187.55536800000002,
      "duration": 0.42129587499999843,
      "velocity": 0.8503937007874016,
      "name": "G4"
    },
    {
      "midi": 74,
      "frequency": 587.3295358348151,
      "time": 187.55536800000002,
      "duration": 0.42129587499999843,
      "velocity": 0.8503937007874016,
      "name": "D5"
    },
    {
      "midi": 40,
      "frequency": 82.40688922821748,
      "time": 187.666479,
      "duration": 0.3157404250000013,
      "velocity": 0.7716535433070866,
      "name": "E2"
    },
    {
      "midi": 52,
      "frequency": 164.81377845643496,
      "time": 187.666479,
      "duration": 0.3157404250000013,
      "velocity": 0.7716535433070866,
      "name": "E3"
    },
    {
      "midi": 71,
      "frequency": 493.8833012561241,
      "time": 187.999812,
      "duration": 0.42129587500002685,
      "velocity": 0.8503937007874016,
      "name": "B4"
    },
    {
      "midi": 76,
      "frequency": 659.2551138257398,
      "time": 187.999812,
      "duration": 0.42129587500002685,
      "velocity": 0.8503937007874016,
      "name": "E5"
    },
    {
      "midi": 83,
      "frequency": 987.7666025122483,
      "time": 187.999812,
      "duration": 0.42129587500002685,
      "velocity": 0.8503937007874016,
      "name": "B5"
    },
    {
      "midi": 40,
      "frequency": 82.40688922821748,
      "time": 187.999812,
      "duration": 0.21018497500000421,
      "velocity": 0.7716535433070866,
      "name": "E2"
    },
    {
      "midi": 52,
      "frequency": 164.81377845643496,
      "time": 187.999812,
      "duration": 0.21018497500000421,
      "velocity": 0.7716535433070866,
      "name": "E3"
    },
    {
      "midi": 40,
      "frequency": 82.40688922821748,
      "time": 188.222034,
      "duration": 0.21018497500000421,
      "velocity": 0.7716535433070866,
      "name": "E2"
    },
    {
      "midi": 52,
      "frequency": 164.81377845643496,
      "time": 188.222034,
      "duration": 0.21018497500000421,
      "velocity": 0.7716535433070866,
      "name": "E3"
    },
    {
      "midi": 69,
      "frequency": 440,
      "time": 188.444256,
      "duration": 0.21018497500000421,
      "velocity": 0.8503937007874016,
      "name": "A4"
    },
    {
      "midi": 72,
      "frequency": 523.2511306011972,
      "time": 188.444256,
      "duration": 0.21018497500000421,
      "velocity": 0.8503937007874016,
      "name": "C5"
    },
    {
      "midi": 76,
      "frequency": 659.2551138257398,
      "time": 188.444256,
      "duration": 0.21018497500000421,
      "velocity": 0.8503937007874016,
      "name": "E5"
    },
    {
      "midi": 81,
      "frequency": 880,
      "time": 188.444256,
      "duration": 0.21018497500000421,
      "velocity": 0.8503937007874016,
      "name": "A5"
    },
    {
      "midi": 71,
      "frequency": 493.8833012561241,
      "time": 188.666478,
      "duration": 0.2101849749999758,
      "velocity": 0.8503937007874016,
      "name": "B4"
    },
    {
      "midi": 83,
      "frequency": 987.7666025122483,
      "time": 188.666478,
      "duration": 0.2101849749999758,
      "velocity": 0.8503937007874016,
      "name": "B5"
    },
    {
      "midi": 74,
      "frequency": 587.3295358348151,
      "time": 188.8887,
      "duration": 0.21018497500000421,
      "velocity": 0.8503937007874016,
      "name": "D5"
    },
    {
      "midi": 86,
      "frequency": 1174.6590716696303,
      "time": 188.8887,
      "duration": 0.21018497500000421,
      "velocity": 0.8503937007874016,
      "name": "D6"
    },
    {
      "midi": 36,
      "frequency": 65.40639132514966,
      "time": 188.8887,
      "duration": 0.21018497500000421,
      "velocity": 1,
      "name": "C2"
    },
    {
      "midi": 48,
      "frequency": 130.8127826502993,
      "time": 188.8887,
      "duration": 0.21018497500000421,
      "velocity": 1,
      "name": "C3"
    },
    {
      "midi": 71,
      "frequency": 493.8833012561241,
      "time": 189.11092200000002,
      "duration": 0.2101849749999758,
      "velocity": 0.8503937007874016,
      "name": "B4"
    },
    {
      "midi": 83,
      "frequency": 987.7666025122483,
      "time": 189.11092200000002,
      "duration": 0.2101849749999758,
      "velocity": 0.8503937007874016,
      "name": "B5"
    },
    {
      "midi": 36,
      "frequency": 65.40639132514966,
      "time": 189.11092200000002,
      "duration": 0.2101849749999758,
      "velocity": 1,
      "name": "C2"
    },
    {
      "midi": 48,
      "frequency": 130.8127826502993,
      "time": 189.11092200000002,
      "duration": 0.2101849749999758,
      "velocity": 1,
      "name": "C3"
    },
    {
      "midi": 69,
      "frequency": 440,
      "time": 189.333144,
      "duration": 0.21018497500000421,
      "velocity": 0.8503937007874016,
      "name": "A4"
    },
    {
      "midi": 81,
      "frequency": 880,
      "time": 189.333144,
      "duration": 0.21018497500000421,
      "velocity": 0.8503937007874016,
      "name": "A5"
    },
    {
      "midi": 36,
      "frequency": 65.40639132514966,
      "time": 189.333144,
      "duration": 0.3157404250000013,
      "velocity": 0.7716535433070866,
      "name": "C2"
    },
    {
      "midi": 48,
      "frequency": 130.8127826502993,
      "time": 189.333144,
      "duration": 0.3157404250000013,
      "velocity": 0.7716535433070866,
      "name": "C3"
    },
    {
      "midi": 71,
      "frequency": 493.8833012561241,
      "time": 189.555366,
      "duration": 0.1046295250000071,
      "velocity": 0.8503937007874016,
      "name": "B4"
    },
    {
      "midi": 83,
      "frequency": 987.7666025122483,
      "time": 189.555366,
      "duration": 0.1046295250000071,
      "velocity": 0.8503937007874016,
      "name": "B5"
    },
    {
      "midi": 71,
      "frequency": 493.8833012561241,
      "time": 189.66647700000001,
      "duration": 0.3157404250000013,
      "velocity": 0.8503937007874016,
      "name": "B4"
    },
    {
      "midi": 83,
      "frequency": 987.7666025122483,
      "time": 189.66647700000001,
      "duration": 0.3157404250000013,
      "velocity": 0.8503937007874016,
      "name": "B5"
    },
    {
      "midi": 48,
      "frequency": 130.8127826502993,
      "time": 189.66647700000001,
      "duration": 0.3157404250000013,
      "velocity": 0.7716535433070866,
      "name": "C3"
    },
    {
      "midi": 67,
      "frequency": 391.99543598174927,
      "time": 189.99981,
      "duration": 0.21018497500000421,
      "velocity": 0.8503937007874016,
      "name": "G4"
    },
    {
      "midi": 79,
      "frequency": 783.9908719634986,
      "time": 189.99981,
      "duration": 0.21018497500000421,
      "velocity": 0.8503937007874016,
      "name": "G5"
    },
    {
      "midi": 55,
      "frequency": 195.99771799087463,
      "time": 189.99981,
      "duration": 0.21018497500000421,
      "velocity": 0.7716535433070866,
      "name": "G3"
    },
    {
      "midi": 60,
      "frequency": 261.6255653005986,
      "time": 189.99981,
      "duration": 0.21018497500000421,
      "velocity": 0.7716535433070866,
      "name": "C4"
    },
    {
      "midi": 69,
      "frequency": 440,
      "time": 190.222032,
      "duration": 0.2101849749999758,
      "velocity": 0.8503937007874016,
      "name": "A4"
    },
    {
      "midi": 74,
      "frequency": 587.3295358348151,
      "time": 190.222032,
      "duration": 0.2101849749999758,
      "velocity": 0.8503937007874016,
      "name": "D5"
    },
    {
      "midi": 78,
      "frequency": 739.9888454232689,
      "time": 190.222032,
      "duration": 0.2101849749999758,
      "velocity": 0.8503937007874016,
      "name": "F#5"
    },
    {
      "midi": 81,
      "frequency": 880,
      "time": 190.222032,
      "duration": 0.2101849749999758,
      "velocity": 0.8503937007874016,
      "name": "A5"
    },
    {
      "midi": 38,
      "frequency": 73.41619197935188,
      "time": 190.222032,
      "duration": 0.3157404250000013,
      "velocity": 0.7716535433070866,
      "name": "D2"
    },
    {
      "midi": 50,
      "frequency": 146.8323839587038,
      "time": 190.222032,
      "duration": 0.3157404250000013,
      "velocity": 0.7716535433070866,
      "name": "D3"
    },
    {
      "midi": 71,
      "frequency": 493.8833012561241,
      "time": 190.444254,
      "duration": 0.21018497500000421,
      "velocity": 0.8503937007874016,
      "name": "B4"
    },
    {
      "midi": 83,
      "frequency": 987.7666025122483,
      "time": 190.444254,
      "duration": 0.21018497500000421,
      "velocity": 0.8503937007874016,
      "name": "B5"
    },
    {
      "midi": 50,
      "frequency": 146.8323839587038,
      "time": 190.555365,
      "duration": 0.3157404250000013,
      "velocity": 0.7716535433070866,
      "name": "D3"
    },
    {
      "midi": 74,
      "frequency": 587.3295358348151,
      "time": 190.666476,
      "duration": 0.21018497500000421,
      "velocity": 0.8503937007874016,
      "name": "D5"
    },
    {
      "midi": 86,
      "frequency": 1174.6590716696303,
      "time": 190.666476,
      "duration": 0.21018497500000421,
      "velocity": 0.8503937007874016,
      "name": "D6"
    },
    {
      "midi": 71,
      "frequency": 493.8833012561241,
      "time": 190.888698,
      "duration": 0.21018497500000421,
      "velocity": 0.8503937007874016,
      "name": "B4"
    },
    {
      "midi": 83,
      "frequency": 987.7666025122483,
      "time": 190.888698,
      "duration": 0.21018497500000421,
      "velocity": 0.8503937007874016,
      "name": "B5"
    },
    {
      "midi": 57,
      "frequency": 220,
      "time": 190.888698,
      "duration": 0.21018497500000421,
      "velocity": 0.7716535433070866,
      "name": "A3"
    },
    {
      "midi": 62,
      "frequency": 293.6647679174076,
      "time": 190.888698,
      "duration": 0.21018497500000421,
      "velocity": 0.7716535433070866,
      "name": "D4"
    },
    {
      "midi": 69,
      "frequency": 440,
      "time": 191.11092,
      "duration": 0.21018497500000421,
      "velocity": 0.8503937007874016,
      "name": "A4"
    },
    {
      "midi": 81,
      "frequency": 880,
      "time": 191.11092,
      "duration": 0.21018497500000421,
      "velocity": 0.8503937007874016,
      "name": "A5"
    },
    {
      "midi": 71,
      "frequency": 493.8833012561241,
      "time": 191.333142,
      "duration": 0.10462952499997868,
      "velocity": 0.8503937007874016,
      "name": "B4"
    },
    {
      "midi": 83,
      "frequency": 987.7666025122483,
      "time": 191.333142,
      "duration": 0.10462952499997868,
      "velocity": 0.8503937007874016,
      "name": "B5"
    },
    {
      "midi": 38,
      "frequency": 73.41619197935188,
      "time": 191.333142,
      "duration": 0.21018497500000421,
      "velocity": 0.7716535433070866,
      "name": "D2"
    },
    {
      "midi": 71,
      "frequency": 493.8833012561241,
      "time": 191.444253,
      "duration": 0.3157404250000013,
      "velocity": 0.8503937007874016,
      "name": "B4"
    },
    {
      "midi": 83,
      "frequency": 987.7666025122483,
      "time": 191.444253,
      "duration": 0.3157404250000013,
      "velocity": 0.8503937007874016,
      "name": "B5"
    },
    {
      "midi": 45,
      "frequency": 110,
      "time": 191.555364,
      "duration": 0.21018497500000421,
      "velocity": 0.7716535433070866,
      "name": "A2"
    },
    {
      "midi": 50,
      "frequency": 146.8323839587038,
      "time": 191.555364,
      "duration": 0.21018497500000421,
      "velocity": 0.7716535433070866,
      "name": "D3"
    },
    {
      "midi": 62,
      "frequency": 293.6647679174076,
      "time": 191.777586,
      "duration": 0.2101849749999758,
      "velocity": 0.8503937007874016,
      "name": "D4"
    },
    {
      "midi": 74,
      "frequency": 587.3295358348151,
      "time": 191.777586,
      "duration": 0.2101849749999758,
      "velocity": 0.8503937007874016,
      "name": "D5"
    },
    {
      "midi": 38,
      "frequency": 73.41619197935188,
      "time": 191.777586,
      "duration": 0.2101849749999758,
      "velocity": 0.7716535433070866,
      "name": "D2"
    },
    {
      "midi": 64,
      "frequency": 329.6275569128699,
      "time": 191.999808,
      "duration": 0.21018497500000421,
      "velocity": 0.8503937007874016,
      "name": "E4"
    },
    {
      "midi": 67,
      "frequency": 391.99543598174927,
      "time": 191.999808,
      "duration": 0.21018497500000421,
      "velocity": 0.8503937007874016,
      "name": "G4"
    },
    {
      "midi": 71,
      "frequency": 493.8833012561241,
      "time": 191.999808,
      "duration": 0.21018497500000421,
      "velocity": 0.8503937007874016,
      "name": "B4"
    },
    {
      "midi": 76,
      "frequency": 659.2551138257398,
      "time": 191.999808,
      "duration": 0.21018497500000421,
      "velocity": 0.8503937007874016,
      "name": "E5"
    },
    {
      "midi": 40,
      "frequency": 82.40688922821748,
      "time": 191.999808,
      "duration": 0.3157404250000013,
      "velocity": 0.7716535433070866,
      "name": "E2"
    },
    {
      "midi": 52,
      "frequency": 164.81377845643496,
      "time": 191.999808,
      "duration": 0.3157404250000013,
      "velocity": 0.7716535433070866,
      "name": "E3"
    },
    {
      "midi": 67,
      "frequency": 391.99543598174927,
      "time": 192.22203,
      "duration": 0.1046295250000071,
      "velocity": 0.8503937007874016,
      "name": "G4"
    },
    {
      "midi": 79,
      "frequency": 783.9908719634986,
      "time": 192.22203,
      "duration": 0.1046295250000071,
      "velocity": 0.8503937007874016,
      "name": "G5"
    },
    {
      "midi": 67,
      "frequency": 391.99543598174927,
      "time": 192.333141,
      "duration": 0.3157404250000013,
      "velocity": 0.8503937007874016,
      "name": "G4"
    },
    {
      "midi": 79,
      "frequency": 783.9908719634986,
      "time": 192.333141,
      "duration": 0.3157404250000013,
      "velocity": 0.8503937007874016,
      "name": "G5"
    },
    {
      "midi": 52,
      "frequency": 164.81377845643496,
      "time": 192.333141,
      "duration": 0.3157404250000013,
      "velocity": 0.7716535433070866,
      "name": "E3"
    },
    {
      "midi": 62,
      "frequency": 293.6647679174076,
      "time": 192.666474,
      "duration": 0.21018497500000421,
      "velocity": 0.8503937007874016,
      "name": "D4"
    },
    {
      "midi": 74,
      "frequency": 587.3295358348151,
      "time": 192.666474,
      "duration": 0.21018497500000421,
      "velocity": 0.8503937007874016,
      "name": "D5"
    },
    {
      "midi": 59,
      "frequency": 246.94165062806206,
      "time": 192.666474,
      "duration": 0.21018497500000421,
      "velocity": 0.7716535433070866,
      "name": "B3"
    },
    {
      "midi": 64,
      "frequency": 329.6275569128699,
      "time": 192.666474,
      "duration": 0.21018497500000421,
      "velocity": 0.7716535433070866,
      "name": "E4"
    },
    {
      "midi": 62,
      "frequency": 293.6647679174076,
      "time": 192.888696,
      "duration": 0.21018497500000421,
      "velocity": 0.8503937007874016,
      "name": "D4"
    },
    {
      "midi": 74,
      "frequency": 587.3295358348151,
      "time": 192.888696,
      "duration": 0.21018497500000421,
      "velocity": 0.8503937007874016,
      "name": "D5"
    },
    {
      "midi": 67,
      "frequency": 391.99543598174927,
      "time": 193.110918,
      "duration": 0.21018497500000421,
      "velocity": 0.8503937007874016,
      "name": "G4"
    },
    {
      "midi": 79,
      "frequency": 783.9908719634986,
      "time": 193.110918,
      "duration": 0.21018497500000421,
      "velocity": 0.8503937007874016,
      "name": "G5"
    },
    {
      "midi": 40,
      "frequency": 82.40688922821748,
      "time": 193.110918,
      "duration": 0.21018497500000421,
      "velocity": 0.7716535433070866,
      "name": "E2"
    },
    {
      "midi": 69,
      "frequency": 440,
      "time": 193.33314000000001,
      "duration": 0.2101849749999758,
      "velocity": 0.8503937007874016,
      "name": "A4"
    },
    {
      "midi": 81,
      "frequency": 880,
      "time": 193.33314000000001,
      "duration": 0.2101849749999758,
      "velocity": 0.8503937007874016,
      "name": "A5"
    },
    {
      "midi": 47,
      "frequency": 123.47082531403103,
      "time": 193.33314000000001,
      "duration": 0.2101849749999758,
      "velocity": 0.7716535433070866,
      "name": "B2"
    },
    {
      "midi": 52,
      "frequency": 164.81377845643496,
      "time": 193.33314000000001,
      "duration": 0.2101849749999758,
      "velocity": 0.7716535433070866,
      "name": "E3"
    },
    {
      "midi": 67,
      "frequency": 391.99543598174927,
      "time": 193.555362,
      "duration": 0.21018497500000421,
      "velocity": 0.8503937007874016,
      "name": "G4"
    },
    {
      "midi": 79,
      "frequency": 783.9908719634986,
      "time": 193.555362,
      "duration": 0.21018497500000421,
      "velocity": 0.8503937007874016,
      "name": "G5"
    },
    {
      "midi": 40,
      "frequency": 82.40688922821748,
      "time": 193.555362,
      "duration": 0.21018497500000421,
      "velocity": 0.7716535433070866,
      "name": "E2"
    },
    {
      "midi": 74,
      "frequency": 587.3295358348151,
      "time": 193.777584,
      "duration": 0.42129587500002685,
      "velocity": 0.8503937007874016,
      "name": "D5"
    },
    {
      "midi": 78,
      "frequency": 739.9888454232689,
      "time": 193.777584,
      "duration": 0.42129587500002685,
      "velocity": 0.8503937007874016,
      "name": "F#5"
    },
    {
      "midi": 81,
      "frequency": 880,
      "time": 193.777584,
      "duration": 0.42129587500002685,
      "velocity": 0.8503937007874016,
      "name": "A5"
    },
    {
      "midi": 86,
      "frequency": 1174.6590716696303,
      "time": 193.777584,
      "duration": 0.42129587500002685,
      "velocity": 0.8503937007874016,
      "name": "D6"
    },
    {
      "midi": 38,
      "frequency": 73.41619197935188,
      "time": 193.777584,
      "duration": 0.31574042500002975,
      "velocity": 0.7716535433070866,
      "name": "D2"
    },
    {
      "midi": 50,
      "frequency": 146.8323839587038,
      "time": 193.777584,
      "duration": 0.31574042500002975,
      "velocity": 0.7716535433070866,
      "name": "D3"
    },
    {
      "midi": 50,
      "frequency": 146.8323839587038,
      "time": 194.110917,
      "duration": 0.3157404250000013,
      "velocity": 0.7716535433070866,
      "name": "D3"
    },
    {
      "midi": 72,
      "frequency": 523.2511306011972,
      "time": 194.222028,
      "duration": 0.42129587500002685,
      "velocity": 0.8503937007874016,
      "name": "C5"
    },
    {
      "midi": 78,
      "frequency": 739.9888454232689,
      "time": 194.222028,
      "duration": 0.42129587500002685,
      "velocity": 0.8503937007874016,
      "name": "F#5"
    },
    {
      "midi": 81,
      "frequency": 880,
      "time": 194.222028,
      "duration": 0.42129587500002685,
      "velocity": 0.8503937007874016,
      "name": "A5"
    },
    {
      "midi": 84,
      "frequency": 1046.5022612023945,
      "time": 194.222028,
      "duration": 0.42129587500002685,
      "velocity": 0.8503937007874016,
      "name": "C6"
    },
    {
      "midi": 57,
      "frequency": 220,
      "time": 194.44425,
      "duration": 0.2101849749999758,
      "velocity": 0.7716535433070866,
      "name": "A3"
    },
    {
      "midi": 62,
      "frequency": 293.6647679174076,
      "time": 194.44425,
      "duration": 0.2101849749999758,
      "velocity": 0.7716535433070866,
      "name": "D4"
    },
    {
      "midi": 71,
      "frequency": 493.8833012561241,
      "time": 194.666472,
      "duration": 0.3157404250000013,
      "velocity": 0.8503937007874016,
      "name": "B4"
    },
    {
      "midi": 78,
      "frequency": 739.9888454232689,
      "time": 194.666472,
      "duration": 0.3157404250000013,
      "velocity": 0.8503937007874016,
      "name": "F#5"
    },
    {
      "midi": 83,
      "frequency": 987.7666025122483,
      "time": 194.666472,
      "duration": 0.3157404250000013,
      "velocity": 0.8503937007874016,
      "name": "B5"
    },
    {
      "midi": 38,
      "frequency": 73.41619197935188,
      "time": 194.88869400000002,
      "duration": 0.2101849749999758,
      "velocity": 0.7716535433070866,
      "name": "D2"
    },
    {
      "midi": 69,
      "frequency": 440,
      "time": 194.999805,
      "duration": 0.3157404250000013,
      "velocity": 0.8503937007874016,
      "name": "A4"
    },
    {
      "midi": 81,
      "frequency": 880,
      "time": 194.999805,
      "duration": 0.3157404250000013,
      "velocity": 0.8503937007874016,
      "name": "A5"
    },
    {
      "midi": 45,
      "frequency": 110,
      "time": 195.110916,
      "duration": 0.21018497500000421,
      "velocity": 0.7716535433070866,
      "name": "A2"
    },
    {
      "midi": 50,
      "frequency": 146.8323839587038,
      "time": 195.110916,
      "duration": 0.21018497500000421,
      "velocity": 0.7716535433070866,
      "name": "D3"
    },
    {
      "midi": 67,
      "frequency": 391.99543598174927,
      "time": 195.333138,
      "duration": 0.21018497500000421,
      "velocity": 0.8503937007874016,
      "name": "G4"
    },
    {
      "midi": 79,
      "frequency": 783.9908719634986,
      "time": 195.333138,
      "duration": 0.21018497500000421,
      "velocity": 0.8503937007874016,
      "name": "G5"
    },
    {
      "midi": 38,
      "frequency": 73.41619197935188,
      "time": 195.333138,
      "duration": 0.21018497500000421,
      "velocity": 0.7716535433070866,
      "name": "D2"
    },
    {
      "midi": 67,
      "frequency": 391.99543598174927,
      "time": 195.55536,
      "duration": 0.6324067749999926,
      "velocity": 0.8503937007874016,
      "name": "G4"
    },
    {
      "midi": 72,
      "frequency": 523.2511306011972,
      "time": 195.55536,
      "duration": 0.6324067749999926,
      "velocity": 0.8503937007874016,
      "name": "C5"
    },
    {
      "midi": 76,
      "frequency": 659.2551138257398,
      "time": 195.55536,
      "duration": 0.6324067749999926,
      "velocity": 0.8503937007874016,
      "name": "E5"
    },
    {
      "midi": 79,
      "frequency": 783.9908719634986,
      "time": 195.55536,
      "duration": 0.6324067749999926,
      "velocity": 0.8503937007874016,
      "name": "G5"
    },
    {
      "midi": 36,
      "frequency": 65.40639132514966,
      "time": 195.55536,
      "duration": 0.3157404250000013,
      "velocity": 0.7716535433070866,
      "name": "C2"
    },
    {
      "midi": 48,
      "frequency": 130.8127826502993,
      "time": 195.55536,
      "duration": 0.3157404250000013,
      "velocity": 0.7716535433070866,
      "name": "C3"
    },
    {
      "midi": 48,
      "frequency": 130.8127826502993,
      "time": 195.888693,
      "duration": 0.31574042500002975,
      "velocity": 0.7716535433070866,
      "name": "C3"
    },
    {
      "midi": 67,
      "frequency": 391.99543598174927,
      "time": 196.222026,
      "duration": 0.42129587499999843,
      "velocity": 0.8503937007874016,
      "name": "G4"
    },
    {
      "midi": 79,
      "frequency": 783.9908719634986,
      "time": 196.222026,
      "duration": 0.42129587499999843,
      "velocity": 0.8503937007874016,
      "name": "G5"
    },
    {
      "midi": 55,
      "frequency": 195.99771799087463,
      "time": 196.222026,
      "duration": 0.21018497500000421,
      "velocity": 0.7716535433070866,
      "name": "G3"
    },
    {
      "midi": 60,
      "frequency": 261.6255653005986,
      "time": 196.222026,
      "duration": 0.21018497500000421,
      "velocity": 0.7716535433070866,
      "name": "C4"
    },
    {
      "midi": 69,
      "frequency": 440,
      "time": 196.66647,
      "duration": 0.21018497500000421,
      "velocity": 0.8503937007874016,
      "name": "A4"
    },
    {
      "midi": 81,
      "frequency": 880,
      "time": 196.66647,
      "duration": 0.21018497500000421,
      "velocity": 0.8503937007874016,
      "name": "A5"
    },
    {
      "midi": 36,
      "frequency": 65.40639132514966,
      "time": 196.66647,
      "duration": 0.21018497500000421,
      "velocity": 0.7716535433070866,
      "name": "C2"
    },
    {
      "midi": 71,
      "frequency": 493.8833012561241,
      "time": 196.888692,
      "duration": 0.21018497500000421,
      "velocity": 0.8503937007874016,
      "name": "B4"
    },
    {
      "midi": 83,
      "frequency": 987.7666025122483,
      "time": 196.888692,
      "duration": 0.21018497500000421,
      "velocity": 0.8503937007874016,
      "name": "B5"
    },
    {
      "midi": 43,
      "frequency": 97.99885899543733,
      "time": 196.888692,
      "duration": 0.21018497500000421,
      "velocity": 0.7716535433070866,
      "name": "G2"
    },
    {
      "midi": 48,
      "frequency": 130.8127826502993,
      "time": 196.888692,
      "duration": 0.21018497500000421,
      "velocity": 0.7716535433070866,
      "name": "C3"
    },
    {
      "midi": 69,
      "frequency": 440,
      "time": 197.110914,
      "duration": 0.6324067749999926,
      "velocity": 0.8503937007874016,
      "name": "A4"
    },
    {
      "midi": 75,
      "frequency": 622.2539674441618,
      "time": 197.110914,
      "duration": 0.6324067749999926,
      "velocity": 0.8503937007874016,
      "name": "D#5"
    },
    {
      "midi": 78,
      "frequency": 739.9888454232689,
      "time": 197.110914,
      "duration": 0.6324067749999926,
      "velocity": 0.8503937007874016,
      "name": "F#5"
    },
    {
      "midi": 81,
      "frequency": 880,
      "time": 197.110914,
      "duration": 0.6324067749999926,
      "velocity": 0.8503937007874016,
      "name": "A5"
    },
    {
      "midi": 36,
      "frequency": 65.40639132514966,
      "time": 197.110914,
      "duration": 0.21018497500000421,
      "velocity": 0.7716535433070866,
      "name": "C2"
    },
    {
      "midi": 35,
      "frequency": 61.7354126570155,
      "time": 197.333136,
      "duration": 0.3157404250000013,
      "velocity": 0.7716535433070866,
      "name": "B1"
    },
    {
      "midi": 47,
      "frequency": 123.47082531403103,
      "time": 197.333136,
      "duration": 0.3157404250000013,
      "velocity": 0.7716535433070866,
      "name": "B2"
    },
    {
      "midi": 47,
      "frequency": 123.47082531403103,
      "time": 197.666469,
      "duration": 0.3157404250000013,
      "velocity": 0.7716535433070866,
      "name": "B2"
    },
    {
      "midi": 66,
      "frequency": 369.99442271163446,
      "time": 197.77758,
      "duration": 0.21018497500000421,
      "velocity": 0.8503937007874016,
      "name": "F#4"
    },
    {
      "midi": 78,
      "frequency": 739.9888454232689,
      "time": 197.77758,
      "duration": 0.21018497500000421,
      "velocity": 0.8503937007874016,
      "name": "F#5"
    },
    {
      "midi": 69,
      "frequency": 440,
      "time": 197.99980200000002,
      "duration": 0.42129587499999843,
      "velocity": 0.8503937007874016,
      "name": "A4"
    },
    {
      "midi": 81,
      "frequency": 880,
      "time": 197.99980200000002,
      "duration": 0.42129587499999843,
      "velocity": 0.8503937007874016,
      "name": "A5"
    },
    {
      "midi": 54,
      "frequency": 184.99721135581723,
      "time": 197.99980200000002,
      "duration": 0.2101849749999758,
      "velocity": 0.7716535433070866,
      "name": "F#3"
    },
    {
      "midi": 59,
      "frequency": 246.94165062806206,
      "time": 197.99980200000002,
      "duration": 0.2101849749999758,
      "velocity": 0.7716535433070866,
      "name": "B3"
    },
    {
      "midi": 71,
      "frequency": 493.8833012561241,
      "time": 198.444246,
      "duration": 0.21018497500000421,
      "velocity": 0.8503937007874016,
      "name": "B4"
    },
    {
      "midi": 83,
      "frequency": 987.7666025122483,
      "time": 198.444246,
      "duration": 0.21018497500000421,
      "velocity": 0.8503937007874016,
      "name": "B5"
    },
    {
      "midi": 35,
      "frequency": 61.7354126570155,
      "time": 198.444246,
      "duration": 0.21018497500000421,
      "velocity": 0.7716535433070866,
      "name": "B1"
    },
    {
      "midi": 74,
      "frequency": 587.3295358348151,
      "time": 198.666468,
      "duration": 0.21018497500000421,
      "velocity": 0.8503937007874016,
      "name": "D5"
    },
    {
      "midi": 86,
      "frequency": 1174.6590716696303,
      "time": 198.666468,
      "duration": 0.21018497500000421,
      "velocity": 0.8503937007874016,
      "name": "D6"
    },
    {
      "midi": 42,
      "frequency": 92.49860567790861,
      "time": 198.666468,
      "duration": 0.21018497500000421,
      "velocity": 0.7716535433070866,
      "name": "F#2"
    },
    {
      "midi": 47,
      "frequency": 123.47082531403103,
      "time": 198.666468,
      "duration": 0.21018497500000421,
      "velocity": 0.7716535433070866,
      "name": "B2"
    },
    {
      "midi": 74,
      "frequency": 587.3295358348151,
      "time": 198.88869,
      "duration": 1.054628574999981,
      "velocity": 0.8503937007874016,
      "name": "D5"
    },
    {
      "midi": 79,
      "frequency": 783.9908719634986,
      "time": 198.88869,
      "duration": 1.054628574999981,
      "velocity": 0.8503937007874016,
      "name": "G5"
    },
    {
      "midi": 83,
      "frequency": 987.7666025122483,
      "time": 198.88869,
      "duration": 1.054628574999981,
      "velocity": 0.8503937007874016,
      "name": "B5"
    },
    {
      "midi": 86,
      "frequency": 1174.6590716696303,
      "time": 198.88869,
      "duration": 1.054628574999981,
      "velocity": 0.8503937007874016,
      "name": "D6"
    },
    {
      "midi": 35,
      "frequency": 61.7354126570155,
      "time": 198.88869,
      "duration": 0.21018497500000421,
      "velocity": 0.7716535433070866,
      "name": "B1"
    },
    {
      "midi": 40,
      "frequency": 82.40688922821748,
      "time": 199.110912,
      "duration": 0.3157404250000013,
      "velocity": 1,
      "name": "E2"
    },
    {
      "midi": 52,
      "frequency": 164.81377845643496,
      "time": 199.110912,
      "duration": 0.3157404250000013,
      "velocity": 1,
      "name": "E3"
    },
    {
      "midi": 57,
      "frequency": 220,
      "time": 199.444245,
      "duration": 0.3157404250000013,
      "velocity": 0.8503937007874016,
      "name": "A3"
    },
    {
      "midi": 62,
      "frequency": 293.6647679174076,
      "time": 199.444245,
      "duration": 0.3157404250000013,
      "velocity": 0.8503937007874016,
      "name": "D4"
    },
    {
      "midi": 38,
      "frequency": 73.41619197935188,
      "time": 199.444245,
      "duration": 0.3157404250000013,
      "velocity": 0.7716535433070866,
      "name": "D2"
    },
    {
      "midi": 50,
      "frequency": 146.8323839587038,
      "time": 199.444245,
      "duration": 0.3157404250000013,
      "velocity": 0.7716535433070866,
      "name": "D3"
    },
    {
      "midi": 59,
      "frequency": 246.94165062806206,
      "time": 199.777578,
      "duration": 0.21018497500000421,
      "velocity": 0.8503937007874016,
      "name": "B3"
    },
    {
      "midi": 64,
      "frequency": 329.6275569128699,
      "time": 199.777578,
      "duration": 0.21018497500000421,
      "velocity": 0.8503937007874016,
      "name": "E4"
    },
    {
      "midi": 40,
      "frequency": 82.40688922821748,
      "time": 199.777578,
      "duration": 0.21018497500000421,
      "velocity": 0.7716535433070866,
      "name": "E2"
    },
    {
      "midi": 52,
      "frequency": 164.81377845643496,
      "time": 199.777578,
      "duration": 0.21018497500000421,
      "velocity": 0.7716535433070866,
      "name": "E3"
    },
    {
      "midi": 59,
      "frequency": 246.94165062806206,
      "time": 200.222022,
      "duration": 0.21018497500000421,
      "velocity": 0.8503937007874016,
      "name": "B3"
    },
    {
      "midi": 38,
      "frequency": 73.41619197935188,
      "time": 200.222022,
      "duration": 0.21018497500000421,
      "velocity": 0.7716535433070866,
      "name": "D2"
    },
    {
      "midi": 50,
      "frequency": 146.8323839587038,
      "time": 200.222022,
      "duration": 0.21018497500000421,
      "velocity": 0.7716535433070866,
      "name": "D3"
    },
    {
      "midi": 64,
      "frequency": 329.6275569128699,
      "time": 200.444244,
      "duration": 0.1046295250000071,
      "velocity": 1,
      "name": "E4"
    },
    {
      "midi": 71,
      "frequency": 493.8833012561241,
      "time": 200.444244,
      "duration": 0.1046295250000071,
      "velocity": 1,
      "name": "B4"
    },
    {
      "midi": 40,
      "frequency": 82.40688922821748,
      "time": 200.444244,
      "duration": 0.21018497500000421,
      "velocity": 0.7716535433070866,
      "name": "E2"
    },
    {
      "midi": 52,
      "frequency": 164.81377845643496,
      "time": 200.444244,
      "duration": 0.21018497500000421,
      "velocity": 0.7716535433070866,
      "name": "E3"
    },
    {
      "midi": 59,
      "frequency": 246.94165062806206,
      "time": 200.555355,
      "duration": 0.1046295250000071,
      "velocity": 0.8503937007874016,
      "name": "B3"
    },
    {
      "midi": 64,
      "frequency": 329.6275569128699,
      "time": 200.666466,
      "duration": 0.10462952499997868,
      "velocity": 0.8503937007874016,
      "name": "E4"
    },
    {
      "midi": 71,
      "frequency": 493.8833012561241,
      "time": 200.666466,
      "duration": 0.10462952499997868,
      "velocity": 0.8503937007874016,
      "name": "B4"
    },
    {
      "midi": 40,
      "frequency": 82.40688922821748,
      "time": 200.666466,
      "duration": 0.2101849749999758,
      "velocity": 0.7716535433070866,
      "name": "E2"
    },
    {
      "midi": 52,
      "frequency": 164.81377845643496,
      "time": 200.666466,
      "duration": 0.2101849749999758,
      "velocity": 0.7716535433070866,
      "name": "E3"
    },
    {
      "midi": 59,
      "frequency": 246.94165062806206,
      "time": 200.777577,
      "duration": 0.10462952499997868,
      "velocity": 0.8503937007874016,
      "name": "B3"
    },
    {
      "midi": 62,
      "frequency": 293.6647679174076,
      "time": 200.888688,
      "duration": 0.1046295250000071,
      "velocity": 1,
      "name": "D4"
    },
    {
      "midi": 69,
      "frequency": 440,
      "time": 200.888688,
      "duration": 0.1046295250000071,
      "velocity": 1,
      "name": "A4"
    },
    {
      "midi": 40,
      "frequency": 82.40688922821748,
      "time": 200.888688,
      "duration": 0.3157404250000013,
      "velocity": 0.7716535433070866,
      "name": "E2"
    },
    {
      "midi": 52,
      "frequency": 164.81377845643496,
      "time": 200.888688,
      "duration": 0.3157404250000013,
      "velocity": 0.7716535433070866,
      "name": "E3"
    },
    {
      "midi": 57,
      "frequency": 220,
      "time": 200.999799,
      "duration": 0.1046295250000071,
      "velocity": 0.8503937007874016,
      "name": "A3"
    },
    {
      "midi": 62,
      "frequency": 293.6647679174076,
      "time": 201.11091,
      "duration": 0.1046295250000071,
      "velocity": 0.8503937007874016,
      "name": "D4"
    },
    {
      "midi": 69,
      "frequency": 440,
      "time": 201.11091,
      "duration": 0.1046295250000071,
      "velocity": 0.8503937007874016,
      "name": "A4"
    },
    {
      "midi": 57,
      "frequency": 220,
      "time": 201.222021,
      "duration": 0.10462952499997868,
      "velocity": 0.8503937007874016,
      "name": "A3"
    },
    {
      "midi": 38,
      "frequency": 73.41619197935188,
      "time": 201.222021,
      "duration": 0.3157404250000013,
      "velocity": 0.7716535433070866,
      "name": "D2"
    },
    {
      "midi": 50,
      "frequency": 146.8323839587038,
      "time": 201.222021,
      "duration": 0.3157404250000013,
      "velocity": 0.7716535433070866,
      "name": "D3"
    },
    {
      "midi": 62,
      "frequency": 293.6647679174076,
      "time": 201.333132,
      "duration": 0.42129587499999843,
      "velocity": 0.8503937007874016,
      "name": "D4"
    },
    {
      "midi": 67,
      "frequency": 391.99543598174927,
      "time": 201.333132,
      "duration": 0.42129587499999843,
      "velocity": 0.8503937007874016,
      "name": "G4"
    },
    {
      "midi": 74,
      "frequency": 587.3295358348151,
      "time": 201.333132,
      "duration": 0.42129587499999843,
      "velocity": 0.8503937007874016,
      "name": "D5"
    },
    {
      "midi": 40,
      "frequency": 82.40688922821748,
      "time": 201.555354,
      "duration": 0.21018497500000421,
      "velocity": 0.7716535433070866,
      "name": "E2"
    },
    {
      "midi": 52,
      "frequency": 164.81377845643496,
      "time": 201.555354,
      "duration": 0.21018497500000421,
      "velocity": 0.7716535433070866,
      "name": "E3"
    },
    {
      "midi": 62,
      "frequency": 293.6647679174076,
      "time": 201.777576,
      "duration": 0.42129587499999843,
      "velocity": 0.8503937007874016,
      "name": "D4"
    },
    {
      "midi": 67,
      "frequency": 391.99543598174927,
      "time": 201.777576,
      "duration": 0.42129587499999843,
      "velocity": 0.8503937007874016,
      "name": "G4"
    },
    {
      "midi": 74,
      "frequency": 587.3295358348151,
      "time": 201.777576,
      "duration": 0.42129587499999843,
      "velocity": 0.8503937007874016,
      "name": "D5"
    },
    {
      "midi": 38,
      "frequency": 73.41619197935188,
      "time": 201.999798,
      "duration": 0.21018497500000421,
      "velocity": 0.7716535433070866,
      "name": "D2"
    },
    {
      "midi": 50,
      "frequency": 146.8323839587038,
      "time": 201.999798,
      "duration": 0.21018497500000421,
      "velocity": 0.7716535433070866,
      "name": "D3"
    },
    {
      "midi": 71,
      "frequency": 493.8833012561241,
      "time": 202.22202000000001,
      "duration": 0.42129587499999843,
      "velocity": 0.8503937007874016,
      "name": "B4"
    },
    {
      "midi": 76,
      "frequency": 659.2551138257398,
      "time": 202.22202000000001,
      "duration": 0.42129587499999843,
      "velocity": 0.8503937007874016,
      "name": "E5"
    },
    {
      "midi": 83,
      "frequency": 987.7666025122483,
      "time": 202.22202000000001,
      "duration": 0.42129587499999843,
      "velocity": 0.8503937007874016,
      "name": "B5"
    },
    {
      "midi": 40,
      "frequency": 82.40688922821748,
      "time": 202.22202000000001,
      "duration": 0.10462952499997868,
      "velocity": 0.7716535433070866,
      "name": "E2"
    },
    {
      "midi": 52,
      "frequency": 164.81377845643496,
      "time": 202.333131,
      "duration": 0.10462952499997868,
      "velocity": 0.7716535433070866,
      "name": "E3"
    },
    {
      "midi": 40,
      "frequency": 82.40688922821748,
      "time": 202.444242,
      "duration": 0.1046295250000071,
      "velocity": 0.7716535433070866,
      "name": "E2"
    },
    {
      "midi": 52,
      "frequency": 164.81377845643496,
      "time": 202.555353,
      "duration": 0.1046295250000071,
      "velocity": 0.7716535433070866,
      "name": "E3"
    },
    {
      "midi": 69,
      "frequency": 440,
      "time": 202.666464,
      "duration": 0.21018497500000421,
      "velocity": 0.8503937007874016,
      "name": "A4"
    },
    {
      "midi": 72,
      "frequency": 523.2511306011972,
      "time": 202.666464,
      "duration": 0.21018497500000421,
      "velocity": 0.8503937007874016,
      "name": "C5"
    },
    {
      "midi": 76,
      "frequency": 659.2551138257398,
      "time": 202.666464,
      "duration": 0.21018497500000421,
      "velocity": 0.8503937007874016,
      "name": "E5"
    },
    {
      "midi": 81,
      "frequency": 880,
      "time": 202.666464,
      "duration": 0.21018497500000421,
      "velocity": 0.8503937007874016,
      "name": "A5"
    },
    {
      "midi": 36,
      "frequency": 65.40639132514966,
      "time": 202.666464,
      "duration": 0.1046295250000071,
      "velocity": 0.7716535433070866,
      "name": "C2"
    },
    {
      "midi": 40,
      "frequency": 82.40688922821748,
      "time": 202.777575,
      "duration": 0.10462952499997868,
      "velocity": 0.7716535433070866,
      "name": "E2"
    },
    {
      "midi": 71,
      "frequency": 493.8833012561241,
      "time": 202.888686,
      "duration": 0.21018497500000421,
      "velocity": 0.8503937007874016,
      "name": "B4"
    },
    {
      "midi": 83,
      "frequency": 987.7666025122483,
      "time": 202.888686,
      "duration": 0.21018497500000421,
      "velocity": 0.8503937007874016,
      "name": "B5"
    },
    {
      "midi": 43,
      "frequency": 97.99885899543733,
      "time": 202.888686,
      "duration": 0.10462952499997868,
      "velocity": 0.7716535433070866,
      "name": "G2"
    },
    {
      "midi": 48,
      "frequency": 130.8127826502993,
      "time": 202.999797,
      "duration": 0.1046295250000071,
      "velocity": 0.7716535433070866,
      "name": "C3"
    },
    {
      "midi": 74,
      "frequency": 587.3295358348151,
      "time": 203.110908,
      "duration": 0.21018497500000421,
      "velocity": 0.8503937007874016,
      "name": "D5"
    },
    {
      "midi": 86,
      "frequency": 1174.6590716696303,
      "time": 203.110908,
      "duration": 0.21018497500000421,
      "velocity": 0.8503937007874016,
      "name": "D6"
    },
    {
      "midi": 55,
      "frequency": 195.99771799087463,
      "time": 203.110908,
      "duration": 0.21018497500000421,
      "velocity": 0.7716535433070866,
      "name": "G3"
    },
    {
      "midi": 60,
      "frequency": 261.6255653005986,
      "time": 203.110908,
      "duration": 0.21018497500000421,
      "velocity": 0.7716535433070866,
      "name": "C4"
    },
    {
      "midi": 71,
      "frequency": 493.8833012561241,
      "time": 203.33313,
      "duration": 0.2101849749999758,
      "velocity": 0.8503937007874016,
      "name": "B4"
    },
    {
      "midi": 83,
      "frequency": 987.7666025122483,
      "time": 203.33313,
      "duration": 0.2101849749999758,
      "velocity": 0.8503937007874016,
      "name": "B5"
    },
    {
      "midi": 48,
      "frequency": 130.8127826502993,
      "time": 203.33313,
      "duration": 0.2101849749999758,
      "velocity": 0.7716535433070866,
      "name": "C3"
    },
    {
      "midi": 69,
      "frequency": 440,
      "time": 203.555352,
      "duration": 0.21018497500000421,
      "velocity": 0.8503937007874016,
      "name": "A4"
    },
    {
      "midi": 81,
      "frequency": 880,
      "time": 203.555352,
      "duration": 0.21018497500000421,
      "velocity": 0.8503937007874016,
      "name": "A5"
    },
    {
      "midi": 60,
      "frequency": 261.6255653005986,
      "time": 203.555352,
      "duration": 0.1046295250000071,
      "velocity": 0.7716535433070866,
      "name": "C4"
    },
    {
      "midi": 55,
      "frequency": 195.99771799087463,
      "time": 203.666463,
      "duration": 0.1046295250000071,
      "velocity": 0.7716535433070866,
      "name": "G3"
    },
    {
      "midi": 71,
      "frequency": 493.8833012561241,
      "time": 203.77757400000002,
      "duration": 0.10462952499997868,
      "velocity": 0.8503937007874016,
      "name": "B4"
    },
    {
      "midi": 83,
      "frequency": 987.7666025122483,
      "time": 203.77757400000002,
      "duration": 0.10462952499997868,
      "velocity": 0.8503937007874016,
      "name": "B5"
    },
    {
      "midi": 52,
      "frequency": 164.81377845643496,
      "time": 203.77757400000002,
      "duration": 0.10462952499997868,
      "velocity": 0.7716535433070866,
      "name": "E3"
    },
    {
      "midi": 71,
      "frequency": 493.8833012561241,
      "time": 203.888685,
      "duration": 0.3157404250000013,
      "velocity": 0.8503937007874016,
      "name": "B4"
    },
    {
      "midi": 83,
      "frequency": 987.7666025122483,
      "time": 203.888685,
      "duration": 0.3157404250000013,
      "velocity": 0.8503937007874016,
      "name": "B5"
    },
    {
      "midi": 48,
      "frequency": 130.8127826502993,
      "time": 203.888685,
      "duration": 0.10462952499997868,
      "velocity": 0.7716535433070866,
      "name": "C3"
    },
    {
      "midi": 60,
      "frequency": 261.6255653005986,
      "time": 203.999796,
      "duration": 0.10462952499997868,
      "velocity": 0.7716535433070866,
      "name": "C4"
    },
    {
      "midi": 55,
      "frequency": 195.99771799087463,
      "time": 204.110907,
      "duration": 0.1046295250000071,
      "velocity": 0.7716535433070866,
      "name": "G3"
    },
    {
      "midi": 67,
      "frequency": 391.99543598174927,
      "time": 204.222018,
      "duration": 0.21018497500000421,
      "velocity": 0.8503937007874016,
      "name": "G4"
    },
    {
      "midi": 79,
      "frequency": 783.9908719634986,
      "time": 204.222018,
      "duration": 0.21018497500000421,
      "velocity": 0.8503937007874016,
      "name": "G5"
    },
    {
      "midi": 52,
      "frequency": 164.81377845643496,
      "time": 204.222018,
      "duration": 0.1046295250000071,
      "velocity": 0.7716535433070866,
      "name": "E3"
    },
    {
      "midi": 48,
      "frequency": 130.8127826502993,
      "time": 204.333129,
      "duration": 0.10462952499997868,
      "velocity": 0.7716535433070866,
      "name": "C3"
    },
    {
      "midi": 69,
      "frequency": 440,
      "time": 204.44424,
      "duration": 0.21018497500000421,
      "velocity": 0.8503937007874016,
      "name": "A4"
    },
    {
      "midi": 74,
      "frequency": 587.3295358348151,
      "time": 204.44424,
      "duration": 0.21018497500000421,
      "velocity": 0.8503937007874016,
      "name": "D5"
    },
    {
      "midi": 78,
      "frequency": 739.9888454232689,
      "time": 204.44424,
      "duration": 0.21018497500000421,
      "velocity": 0.8503937007874016,
      "name": "F#5"
    },
    {
      "midi": 81,
      "frequency": 880,
      "time": 204.44424,
      "duration": 0.21018497500000421,
      "velocity": 0.8503937007874016,
      "name": "A5"
    },
    {
      "midi": 38,
      "frequency": 73.41619197935188,
      "time": 204.44424,
      "duration": 0.10462952499997868,
      "velocity": 0.7716535433070866,
      "name": "D2"
    },
    {
      "midi": 42,
      "frequency": 92.49860567790861,
      "time": 204.555351,
      "duration": 0.1046295250000071,
      "velocity": 0.7716535433070866,
      "name": "F#2"
    },
    {
      "midi": 71,
      "frequency": 493.8833012561241,
      "time": 204.666462,
      "duration": 0.21018497500000421,
      "velocity": 0.8503937007874016,
      "name": "B4"
    },
    {
      "midi": 83,
      "frequency": 987.7666025122483,
      "time": 204.666462,
      "duration": 0.21018497500000421,
      "velocity": 0.8503937007874016,
      "name": "B5"
    },
    {
      "midi": 45,
      "frequency": 110,
      "time": 204.666462,
      "duration": 0.1046295250000071,
      "velocity": 0.7716535433070866,
      "name": "A2"
    },
    {
      "midi": 50,
      "frequency": 146.8323839587038,
      "time": 204.777573,
      "duration": 0.1046295250000071,
      "velocity": 0.7716535433070866,
      "name": "D3"
    },
    {
      "midi": 74,
      "frequency": 587.3295358348151,
      "time": 204.888684,
      "duration": 0.2101849749999758,
      "velocity": 0.8503937007874016,
      "name": "D5"
    },
    {
      "midi": 86,
      "frequency": 1174.6590716696303,
      "time": 204.888684,
      "duration": 0.2101849749999758,
      "velocity": 0.8503937007874016,
      "name": "D6"
    },
    {
      "midi": 57,
      "frequency": 220,
      "time": 204.888684,
      "duration": 0.2101849749999758,
      "velocity": 0.7716535433070866,
      "name": "A3"
    },
    {
      "midi": 62,
      "frequency": 293.6647679174076,
      "time": 204.888684,
      "duration": 0.2101849749999758,
      "velocity": 0.7716535433070866,
      "name": "D4"
    },
    {
      "midi": 71,
      "frequency": 493.8833012561241,
      "time": 205.110906,
      "duration": 0.21018497500000421,
      "velocity": 0.8503937007874016,
      "name": "B4"
    },
    {
      "midi": 83,
      "frequency": 987.7666025122483,
      "time": 205.110906,
      "duration": 0.21018497500000421,
      "velocity": 0.8503937007874016,
      "name": "B5"
    },
    {
      "midi": 50,
      "frequency": 146.8323839587038,
      "time": 205.110906,
      "duration": 0.21018497500000421,
      "velocity": 0.7716535433070866,
      "name": "D3"
    },
    {
      "midi": 69,
      "frequency": 440,
      "time": 205.33312800000002,
      "duration": 0.2101849749999758,
      "velocity": 0.8503937007874016,
      "name": "A4"
    },
    {
      "midi": 81,
      "frequency": 880,
      "time": 205.33312800000002,
      "duration": 0.2101849749999758,
      "velocity": 0.8503937007874016,
      "name": "A5"
    },
    {
      "midi": 62,
      "frequency": 293.6647679174076,
      "time": 205.33312800000002,
      "duration": 0.10462952499997868,
      "velocity": 0.7716535433070866,
      "name": "D4"
    },
    {
      "midi": 57,
      "frequency": 220,
      "time": 205.444239,
      "duration": 0.10462952499997868,
      "velocity": 0.7716535433070866,
      "name": "A3"
    },
    {
      "midi": 71,
      "frequency": 493.8833012561241,
      "time": 205.55535,
      "duration": 0.10462952499997868,
      "velocity": 0.8503937007874016,
      "name": "B4"
    },
    {
      "midi": 83,
      "frequency": 987.7666025122483,
      "time": 205.55535,
      "duration": 0.10462952499997868,
      "velocity": 0.8503937007874016,
      "name": "B5"
    },
    {
      "midi": 54,
      "frequency": 184.99721135581723,
      "time": 205.55535,
      "duration": 0.10462952499997868,
      "velocity": 0.7716535433070866,
      "name": "F#3"
    },
    {
      "midi": 67,
      "frequency": 391.99543598174927,
      "time": 205.666461,
      "duration": 0.3157404250000013,
      "velocity": 0.8503937007874016,
      "name": "G4"
    },
    {
      "midi": 79,
      "frequency": 783.9908719634986,
      "time": 205.666461,
      "duration": 0.3157404250000013,
      "velocity": 0.8503937007874016,
      "name": "G5"
    },
    {
      "midi": 50,
      "frequency": 146.8323839587038,
      "time": 205.666461,
      "duration": 0.1046295250000071,
      "velocity": 0.7716535433070866,
      "name": "D3"
    },
    {
      "midi": 62,
      "frequency": 293.6647679174076,
      "time": 205.777572,
      "duration": 0.1046295250000071,
      "velocity": 0.7716535433070866,
      "name": "D4"
    },
    {
      "midi": 57,
      "frequency": 220,
      "time": 205.88868300000001,
      "duration": 0.10462952499997868,
      "velocity": 0.7716535433070866,
      "name": "A3"
    },
    {
      "midi": 67,
      "frequency": 391.99543598174927,
      "time": 205.999794,
      "duration": 0.21018497500000421,
      "velocity": 0.8503937007874016,
      "name": "G4"
    },
    {
      "midi": 79,
      "frequency": 783.9908719634986,
      "time": 205.999794,
      "duration": 0.21018497500000421,
      "velocity": 0.8503937007874016,
      "name": "G5"
    },
    {
      "midi": 54,
      "frequency": 184.99721135581723,
      "time": 205.999794,
      "duration": 0.10462952499997868,
      "velocity": 0.7716535433070866,
      "name": "F#3"
    },
    {
      "midi": 50,
      "frequency": 146.8323839587038,
      "time": 206.110905,
      "duration": 0.1046295250000071,
      "velocity": 0.7716535433070866,
      "name": "D3"
    },
    {
      "midi": 67,
      "frequency": 391.99543598174927,
      "time": 206.222016,
      "duration": 0.42129587500002685,
      "velocity": 0.8503937007874016,
      "name": "G4"
    },
    {
      "midi": 71,
      "frequency": 493.8833012561241,
      "time": 206.222016,
      "duration": 0.42129587500002685,
      "velocity": 0.8503937007874016,
      "name": "B4"
    },
    {
      "midi": 75,
      "frequency": 622.2539674441618,
      "time": 206.222016,
      "duration": 0.42129587500002685,
      "velocity": 0.8503937007874016,
      "name": "D#5"
    },
    {
      "midi": 79,
      "frequency": 783.9908719634986,
      "time": 206.222016,
      "duration": 0.42129587500002685,
      "velocity": 0.8503937007874016,
      "name": "G5"
    },
    {
      "midi": 35,
      "frequency": 61.7354126570155,
      "time": 206.222016,
      "duration": 0.1046295250000071,
      "velocity": 0.7716535433070866,
      "name": "B1"
    },
    {
      "midi": 39,
      "frequency": 77.78174593052022,
      "time": 206.333127,
      "duration": 0.1046295250000071,
      "velocity": 0.7716535433070866,
      "name": "D#2"
    },
    {
      "midi": 42,
      "frequency": 92.49860567790861,
      "time": 206.444238,
      "duration": 0.10462952499997868,
      "velocity": 0.7716535433070866,
      "name": "F#2"
    },
    {
      "midi": 47,
      "frequency": 123.47082531403103,
      "time": 206.555349,
      "duration": 0.10462952499997868,
      "velocity": 0.7716535433070866,
      "name": "B2"
    },
    {
      "midi": 69,
      "frequency": 440,
      "time": 206.66646,
      "duration": 0.21018497500000421,
      "velocity": 0.8503937007874016,
      "name": "A4"
    },
    {
      "midi": 81,
      "frequency": 880,
      "time": 206.66646,
      "duration": 0.21018497500000421,
      "velocity": 0.8503937007874016,
      "name": "A5"
    },
    {
      "midi": 54,
      "frequency": 184.99721135581723,
      "time": 206.66646,
      "duration": 0.21018497500000421,
      "velocity": 0.7716535433070866,
      "name": "F#3"
    },
    {
      "midi": 59,
      "frequency": 246.94165062806206,
      "time": 206.66646,
      "duration": 0.21018497500000421,
      "velocity": 0.7716535433070866,
      "name": "B3"
    },
    {
      "midi": 71,
      "frequency": 493.8833012561241,
      "time": 206.888682,
      "duration": 0.42129587500002685,
      "velocity": 0.8503937007874016,
      "name": "B4"
    },
    {
      "midi": 78,
      "frequency": 739.9888454232689,
      "time": 206.888682,
      "duration": 0.42129587500002685,
      "velocity": 0.8503937007874016,
      "name": "F#5"
    },
    {
      "midi": 83,
      "frequency": 987.7666025122483,
      "time": 206.888682,
      "duration": 0.42129587500002685,
      "velocity": 0.8503937007874016,
      "name": "B5"
    },
    {
      "midi": 47,
      "frequency": 123.47082531403103,
      "time": 206.888682,
      "duration": 0.21018497500000421,
      "velocity": 0.7716535433070866,
      "name": "B2"
    },
    {
      "midi": 59,
      "frequency": 246.94165062806206,
      "time": 207.110904,
      "duration": 0.10462952499997868,
      "velocity": 0.7716535433070866,
      "name": "B3"
    },
    {
      "midi": 54,
      "frequency": 184.99721135581723,
      "time": 207.222015,
      "duration": 0.1046295250000071,
      "velocity": 0.7716535433070866,
      "name": "F#3"
    },
    {
      "midi": 71,
      "frequency": 493.8833012561241,
      "time": 207.333126,
      "duration": 0.21018497500000421,
      "velocity": 0.8503937007874016,
      "name": "B4"
    },
    {
      "midi": 83,
      "frequency": 987.7666025122483,
      "time": 207.333126,
      "duration": 0.21018497500000421,
      "velocity": 0.8503937007874016,
      "name": "B5"
    },
    {
      "midi": 51,
      "frequency": 155.56349186104043,
      "time": 207.333126,
      "duration": 0.1046295250000071,
      "velocity": 0.7716535433070866,
      "name": "D#3"
    },
    {
      "midi": 47,
      "frequency": 123.47082531403103,
      "time": 207.44423700000002,
      "duration": 0.10462952499997868,
      "velocity": 0.7716535433070866,
      "name": "B2"
    },
    {
      "midi": 79,
      "frequency": 783.9908719634986,
      "time": 207.555348,
      "duration": 0.21018497500000421,
      "velocity": 0.8503937007874016,
      "name": "G5"
    },
    {
      "midi": 91,
      "frequency": 1567.981743926997,
      "time": 207.555348,
      "duration": 0.21018497500000421,
      "velocity": 0.8503937007874016,
      "name": "G6"
    },
    {
      "midi": 59,
      "frequency": 246.94165062806206,
      "time": 207.555348,
      "duration": 0.10462952499997868,
      "velocity": 0.7716535433070866,
      "name": "B3"
    },
    {
      "midi": 54,
      "frequency": 184.99721135581723,
      "time": 207.666459,
      "duration": 0.10462952499997868,
      "velocity": 0.7716535433070866,
      "name": "F#3"
    },
    {
      "midi": 78,
      "frequency": 739.9888454232689,
      "time": 207.77757,
      "duration": 0.6324067749999926,
      "velocity": 0.8503937007874016,
      "name": "F#5"
    },
    {
      "midi": 83,
      "frequency": 987.7666025122483,
      "time": 207.77757,
      "duration": 0.6324067749999926,
      "velocity": 0.8503937007874016,
      "name": "B5"
    },
    {
      "midi": 90,
      "frequency": 1479.9776908465378,
      "time": 207.77757,
      "duration": 0.6324067749999926,
      "velocity": 0.8503937007874016,
      "name": "F#6"
    },
    {
      "midi": 51,
      "frequency": 155.56349186104043,
      "time": 207.77757,
      "duration": 0.1046295250000071,
      "velocity": 0.7716535433070866,
      "name": "D#3"
    },
    {
      "midi": 47,
      "frequency": 123.47082531403103,
      "time": 207.888681,
      "duration": 0.1046295250000071,
      "velocity": 0.7716535433070866,
      "name": "B2"
    },
    {
      "midi": 40,
      "frequency": 82.40688922821748,
      "time": 207.999792,
      "duration": 0.10462952499997868,
      "velocity": 0.7716535433070866,
      "name": "E2"
    },
    {
      "midi": 43,
      "frequency": 97.99885899543733,
      "time": 208.110903,
      "duration": 0.10462952499997868,
      "velocity": 0.7716535433070866,
      "name": "G2"
    },
    {
      "midi": 47,
      "frequency": 123.47082531403103,
      "time": 208.222014,
      "duration": 0.1046295250000071,
      "velocity": 0.7716535433070866,
      "name": "B2"
    },
    {
      "midi": 52,
      "frequency": 164.81377845643496,
      "time": 208.333125,
      "duration": 0.1046295250000071,
      "velocity": 0.7716535433070866,
      "name": "E3"
    },
    {
      "midi": 74,
      "frequency": 587.3295358348151,
      "time": 208.444236,
      "duration": 0.42129587500002685,
      "velocity": 0.8503937007874016,
      "name": "D5"
    },
    {
      "midi": 83,
      "frequency": 987.7666025122483,
      "time": 208.444236,
      "duration": 0.42129587500002685,
      "velocity": 0.8503937007874016,
      "name": "B5"
    },
    {
      "midi": 86,
      "frequency": 1174.6590716696303,
      "time": 208.444236,
      "duration": 0.42129587500002685,
      "velocity": 0.8503937007874016,
      "name": "D6"
    },
    {
      "midi": 59,
      "frequency": 246.94165062806206,
      "time": 208.444236,
      "duration": 0.21018497500000421,
      "velocity": 0.7716535433070866,
      "name": "B3"
    },
    {
      "midi": 64,
      "frequency": 329.6275569128699,
      "time": 208.444236,
      "duration": 0.21018497500000421,
      "velocity": 0.7716535433070866,
      "name": "E4"
    },
    {
      "midi": 52,
      "frequency": 164.81377845643496,
      "time": 208.666458,
      "duration": 0.21018497500000421,
      "velocity": 0.7716535433070866,
      "name": "E3"
    },
    {
      "midi": 71,
      "frequency": 493.8833012561241,
      "time": 208.88868,
      "duration": 0.3157404250000013,
      "velocity": 0.8503937007874016,
      "name": "B4"
    },
    {
      "midi": 76,
      "frequency": 659.2551138257398,
      "time": 208.88868,
      "duration": 0.3157404250000013,
      "velocity": 0.8503937007874016,
      "name": "E5"
    },
    {
      "midi": 83,
      "frequency": 987.7666025122483,
      "time": 208.88868,
      "duration": 0.3157404250000013,
      "velocity": 0.8503937007874016,
      "name": "B5"
    },
    {
      "midi": 64,
      "frequency": 329.6275569128699,
      "time": 208.88868,
      "duration": 0.1046295250000071,
      "velocity": 0.7716535433070866,
      "name": "E4"
    },
    {
      "midi": 59,
      "frequency": 246.94165062806206,
      "time": 208.99979100000002,
      "duration": 0.10462952499997868,
      "velocity": 0.7716535433070866,
      "name": "B3"
    },
    {
      "midi": 55,
      "frequency": 195.99771799087463,
      "time": 209.110902,
      "duration": 0.10462952499997868,
      "velocity": 0.7716535433070866,
      "name": "G3"
    },
    {
      "midi": 69,
      "frequency": 440,
      "time": 209.222013,
      "duration": 0.3157404250000013,
      "velocity": 0.8503937007874016,
      "name": "A4"
    },
    {
      "midi": 76,
      "frequency": 659.2551138257398,
      "time": 209.222013,
      "duration": 0.3157404250000013,
      "velocity": 0.8503937007874016,
      "name": "E5"
    },
    {
      "midi": 81,
      "frequency": 880,
      "time": 209.222013,
      "duration": 0.3157404250000013,
      "velocity": 0.8503937007874016,
      "name": "A5"
    },
    {
      "midi": 52,
      "frequency": 164.81377845643496,
      "time": 209.222013,
      "duration": 0.10462952499997868,
      "velocity": 0.7716535433070866,
      "name": "E3"
    },
    {
      "midi": 64,
      "frequency": 329.6275569128699,
      "time": 209.333124,
      "duration": 0.1046295250000071,
      "velocity": 0.7716535433070866,
      "name": "E4"
    },
    {
      "midi": 59,
      "frequency": 246.94165062806206,
      "time": 209.444235,
      "duration": 0.1046295250000071,
      "velocity": 0.7716535433070866,
      "name": "B3"
    },
    {
      "midi": 67,
      "frequency": 391.99543598174927,
      "time": 209.55534600000001,
      "duration": 0.2101849749999758,
      "velocity": 0.8503937007874016,
      "name": "G4"
    },
    {
      "midi": 79,
      "frequency": 783.9908719634986,
      "time": 209.55534600000001,
      "duration": 0.2101849749999758,
      "velocity": 0.8503937007874016,
      "name": "G5"
    },
    {
      "midi": 55,
      "frequency": 195.99771799087463,
      "time": 209.55534600000001,
      "duration": 0.10462952499997868,
      "velocity": 0.7716535433070866,
      "name": "G3"
    },
    {
      "midi": 52,
      "frequency": 164.81377845643496,
      "time": 209.666457,
      "duration": 0.10462952499997868,
      "velocity": 0.7716535433070866,
      "name": "E3"
    },
    {
      "midi": 67,
      "frequency": 391.99543598174927,
      "time": 209.777568,
      "duration": 0.6324067749999926,
      "velocity": 0.8503937007874016,
      "name": "G4"
    },
    {
      "midi": 72,
      "frequency": 523.2511306011972,
      "time": 209.777568,
      "duration": 0.6324067749999926,
      "velocity": 0.8503937007874016,
      "name": "C5"
    },
    {
      "midi": 76,
      "frequency": 659.2551138257398,
      "time": 209.777568,
      "duration": 0.6324067749999926,
      "velocity": 0.8503937007874016,
      "name": "E5"
    },
    {
      "midi": 79,
      "frequency": 783.9908719634986,
      "time": 209.777568,
      "duration": 0.6324067749999926,
      "velocity": 0.8503937007874016,
      "name": "G5"
    },
    {
      "midi": 36,
      "frequency": 65.40639132514966,
      "time": 209.777568,
      "duration": 0.1046295250000071,
      "velocity": 0.7716535433070866,
      "name": "C2"
    },
    {
      "midi": 40,
      "frequency": 82.40688922821748,
      "time": 209.888679,
      "duration": 0.1046295250000071,
      "velocity": 0.7716535433070866,
      "name": "E2"
    },
    {
      "midi": 43,
      "frequency": 97.99885899543733,
      "time": 209.99979,
      "duration": 0.1046295250000071,
      "velocity": 0.7716535433070866,
      "name": "G2"
    },
    {
      "midi": 48,
      "frequency": 130.8127826502993,
      "time": 210.110901,
      "duration": 0.10462952499997868,
      "velocity": 0.7716535433070866,
      "name": "C3"
    },
    {
      "midi": 55,
      "frequency": 195.99771799087463,
      "time": 210.222012,
      "duration": 0.21018497500000421,
      "velocity": 0.7716535433070866,
      "name": "G3"
    },
    {
      "midi": 60,
      "frequency": 261.6255653005986,
      "time": 210.222012,
      "duration": 0.21018497500000421,
      "velocity": 0.7716535433070866,
      "name": "C4"
    },
    {
      "midi": 67,
      "frequency": 391.99543598174927,
      "time": 210.444234,
      "duration": 0.42129587500002685,
      "velocity": 0.8503937007874016,
      "name": "G4"
    },
    {
      "midi": 79,
      "frequency": 783.9908719634986,
      "time": 210.444234,
      "duration": 0.42129587500002685,
      "velocity": 0.8503937007874016,
      "name": "G5"
    },
    {
      "midi": 48,
      "frequency": 130.8127826502993,
      "time": 210.444234,
      "duration": 0.21018497500000421,
      "velocity": 0.7716535433070866,
      "name": "C3"
    },
    {
      "midi": 36,
      "frequency": 65.40639132514966,
      "time": 210.666456,
      "duration": 0.10462952499997868,
      "velocity": 0.7716535433070866,
      "name": "C2"
    },
    {
      "midi": 48,
      "frequency": 130.8127826502993,
      "time": 210.777567,
      "duration": 0.10462952499997868,
      "velocity": 0.7716535433070866,
      "name": "C3"
    },
    {
      "midi": 69,
      "frequency": 440,
      "time": 210.888678,
      "duration": 0.21018497500000421,
      "velocity": 0.8503937007874016,
      "name": "A4"
    },
    {
      "midi": 81,
      "frequency": 880,
      "time": 210.888678,
      "duration": 0.21018497500000421,
      "velocity": 0.8503937007874016,
      "name": "A5"
    },
    {
      "midi": 36,
      "frequency": 65.40639132514966,
      "time": 210.888678,
      "duration": 0.1046295250000071,
      "velocity": 0.7716535433070866,
      "name": "C2"
    },
    {
      "midi": 48,
      "frequency": 130.8127826502993,
      "time": 210.999789,
      "duration": 0.1046295250000071,
      "velocity": 0.7716535433070866,
      "name": "C3"
    },
    {
      "midi": 71,
      "frequency": 493.8833012561241,
      "time": 211.11090000000002,
      "duration": 0.2101849749999758,
      "velocity": 0.8503937007874016,
      "name": "B4"
    },
    {
      "midi": 83,
      "frequency": 987.7666025122483,
      "time": 211.11090000000002,
      "duration": 0.2101849749999758,
      "velocity": 0.8503937007874016,
      "name": "B5"
    },
    {
      "midi": 36,
      "frequency": 65.40639132514966,
      "time": 211.11090000000002,
      "duration": 0.10462952499997868,
      "velocity": 0.7716535433070866,
      "name": "C2"
    },
    {
      "midi": 48,
      "frequency": 130.8127826502993,
      "time": 211.222011,
      "duration": 0.10462952499997868,
      "velocity": 0.7716535433070866,
      "name": "C3"
    },
    {
      "midi": 69,
      "frequency": 440,
      "time": 211.333122,
      "duration": 0.6324067749999926,
      "velocity": 0.8503937007874016,
      "name": "A4"
    },
    {
      "midi": 81,
      "frequency": 880,
      "time": 211.333122,
      "duration": 0.6324067749999926,
      "velocity": 0.8503937007874016,
      "name": "A5"
    },
    {
      "midi": 36,
      "frequency": 65.40639132514966,
      "time": 211.333122,
      "duration": 0.1046295250000071,
      "velocity": 0.7716535433070866,
      "name": "C2"
    },
    {
      "midi": 48,
      "frequency": 130.8127826502993,
      "time": 211.444233,
      "duration": 0.1046295250000071,
      "velocity": 0.7716535433070866,
      "name": "C3"
    },
    {
      "midi": 38,
      "frequency": 73.41619197935188,
      "time": 211.555344,
      "duration": 0.1046295250000071,
      "velocity": 0.7716535433070866,
      "name": "D2"
    },
    {
      "midi": 42,
      "frequency": 92.49860567790861,
      "time": 211.666455,
      "duration": 0.10462952499997868,
      "velocity": 0.7716535433070866,
      "name": "F#2"
    },
    {
      "midi": 45,
      "frequency": 110,
      "time": 211.777566,
      "duration": 0.10462952499997868,
      "velocity": 0.7716535433070866,
      "name": "A2"
    },
    {
      "midi": 50,
      "frequency": 146.8323839587038,
      "time": 211.888677,
      "duration": 0.1046295250000071,
      "velocity": 0.7716535433070866,
      "name": "D3"
    },
    {
      "midi": 57,
      "frequency": 220,
      "time": 211.999788,
      "duration": 0.21018497500000421,
      "velocity": 0.7716535433070866,
      "name": "A3"
    },
    {
      "midi": 62,
      "frequency": 293.6647679174076,
      "time": 211.999788,
      "duration": 0.21018497500000421,
      "velocity": 0.7716535433070866,
      "name": "D4"
    },
    {
      "midi": 69,
      "frequency": 440,
      "time": 212.22201,
      "duration": 0.2101849749999758,
      "velocity": 0.8503937007874016,
      "name": "A4"
    },
    {
      "midi": 74,
      "frequency": 587.3295358348151,
      "time": 212.22201,
      "duration": 0.2101849749999758,
      "velocity": 0.8503937007874016,
      "name": "D5"
    },
    {
      "midi": 81,
      "frequency": 880,
      "time": 212.22201,
      "duration": 0.2101849749999758,
      "velocity": 0.8503937007874016,
      "name": "A5"
    },
    {
      "midi": 50,
      "frequency": 146.8323839587038,
      "time": 212.22201,
      "duration": 0.2101849749999758,
      "velocity": 0.7716535433070866,
      "name": "D3"
    },
    {
      "midi": 69,
      "frequency": 440,
      "time": 212.444232,
      "duration": 0.42129587499999843,
      "velocity": 0.8503937007874016,
      "name": "A4"
    },
    {
      "midi": 74,
      "frequency": 587.3295358348151,
      "time": 212.444232,
      "duration": 0.42129587499999843,
      "velocity": 0.8503937007874016,
      "name": "D5"
    },
    {
      "midi": 81,
      "frequency": 880,
      "time": 212.444232,
      "duration": 0.42129587499999843,
      "velocity": 0.8503937007874016,
      "name": "A5"
    },
    {
      "midi": 62,
      "frequency": 293.6647679174076,
      "time": 212.444232,
      "duration": 0.1046295250000071,
      "velocity": 0.7716535433070866,
      "name": "D4"
    },
    {
      "midi": 57,
      "frequency": 220,
      "time": 212.555343,
      "duration": 0.1046295250000071,
      "velocity": 0.7716535433070866,
      "name": "A3"
    },
    {
      "midi": 54,
      "frequency": 184.99721135581723,
      "time": 212.66645400000002,
      "duration": 0.10462952499997868,
      "velocity": 0.7716535433070866,
      "name": "F#3"
    },
    {
      "midi": 50,
      "frequency": 146.8323839587038,
      "time": 212.777565,
      "duration": 0.10462952499997868,
      "velocity": 0.7716535433070866,
      "name": "D3"
    },
    {
      "midi": 71,
      "frequency": 493.8833012561241,
      "time": 212.888676,
      "duration": 2.1101830749999806,
      "velocity": 0.8503937007874016,
      "name": "B4"
    },
    {
      "midi": 76,
      "frequency": 659.2551138257398,
      "time": 212.888676,
      "duration": 2.1101830749999806,
      "velocity": 0.8503937007874016,
      "name": "E5"
    },
    {
      "midi": 83,
      "frequency": 987.7666025122483,
      "time": 212.888676,
      "duration": 2.1101830749999806,
      "velocity": 0.8503937007874016,
      "name": "B5"
    },
    {
      "midi": 62,
      "frequency": 293.6647679174076,
      "time": 212.888676,
      "duration": 0.10462952499997868,
      "velocity": 0.7716535433070866,
      "name": "D4"
    },
    {
      "midi": 57,
      "frequency": 220,
      "time": 212.999787,
      "duration": 0.1046295250000071,
      "velocity": 0.7716535433070866,
      "name": "A3"
    },
    {
      "midi": 54,
      "frequency": 184.99721135581723,
      "time": 213.110898,
      "duration": 0.1046295250000071,
      "velocity": 0.7716535433070866,
      "name": "F#3"
    },
    {
      "midi": 50,
      "frequency": 146.8323839587038,
      "time": 213.222009,
      "duration": 0.10462952499997868,
      "velocity": 0.7716535433070866,
      "name": "D3"
    },
    {
      "midi": 36,
      "frequency": 65.40639132514966,
      "time": 213.33312,
      "duration": 0.10462952499997868,
      "velocity": 0.7716535433070866,
      "name": "C2"
    },
    {
      "midi": 40,
      "frequency": 82.40688922821748,
      "time": 213.444231,
      "duration": 0.1046295250000071,
      "velocity": 0.7716535433070866,
      "name": "E2"
    },
    {
      "midi": 43,
      "frequency": 97.99885899543733,
      "time": 213.555342,
      "duration": 0.1046295250000071,
      "velocity": 0.7716535433070866,
      "name": "G2"
    },
    {
      "midi": 60,
      "frequency": 261.6255653005986,
      "time": 213.666453,
      "duration": 0.11111100000002239,
      "velocity": 0.6141732283464567,
      "name": "C4"
    },
    {
      "midi": 48,
      "frequency": 130.8127826502993,
      "time": 213.666453,
      "duration": 0.1046295250000071,
      "velocity": 0.7716535433070866,
      "name": "C3"
    },
    {
      "midi": 55,
      "frequency": 195.99771799087463,
      "time": 213.777564,
      "duration": 0.2101849749999758,
      "velocity": 0.7716535433070866,
      "name": "G3"
    },
    {
      "midi": 60,
      "frequency": 261.6255653005986,
      "time": 213.777564,
      "duration": 0.2101849749999758,
      "velocity": 0.7716535433070866,
      "name": "C4"
    },
    {
      "midi": 67,
      "frequency": 391.99543598174927,
      "time": 213.999786,
      "duration": 0.21018497500000421,
      "velocity": 0.6141732283464567,
      "name": "G4"
    },
    {
      "midi": 72,
      "frequency": 523.2511306011972,
      "time": 213.999786,
      "duration": 0.21018497500000421,
      "velocity": 0.6141732283464567,
      "name": "C5"
    },
    {
      "midi": 48,
      "frequency": 130.8127826502993,
      "time": 213.999786,
      "duration": 0.21018497500000421,
      "velocity": 0.7716535433070866,
      "name": "C3"
    },
    {
      "midi": 60,
      "frequency": 261.6255653005986,
      "time": 214.22200800000002,
      "duration": 0.10462952499997868,
      "velocity": 0.7716535433070866,
      "name": "C4"
    },
    {
      "midi": 55,
      "frequency": 195.99771799087463,
      "time": 214.333119,
      "duration": 0.10462952499997868,
      "velocity": 0.7716535433070866,
      "name": "G3"
    },
    {
      "midi": 60,
      "frequency": 261.6255653005986,
      "time": 214.44423,
      "duration": 0.10462952499997868,
      "velocity": 0.6141732283464567,
      "name": "C4"
    },
    {
      "midi": 52,
      "frequency": 164.81377845643496,
      "time": 214.44423,
      "duration": 0.10462952499997868,
      "velocity": 0.7716535433070866,
      "name": "E3"
    },
    {
      "midi": 67,
      "frequency": 391.99543598174927,
      "time": 214.555341,
      "duration": 0.1046295250000071,
      "velocity": 0.6141732283464567,
      "name": "G4"
    },
    {
      "midi": 48,
      "frequency": 130.8127826502993,
      "time": 214.555341,
      "duration": 0.1046295250000071,
      "velocity": 0.7716535433070866,
      "name": "C3"
    },
    {
      "midi": 72,
      "frequency": 523.2511306011972,
      "time": 214.666452,
      "duration": 0.1046295250000071,
      "velocity": 0.6141732283464567,
      "name": "C5"
    },
    {
      "midi": 60,
      "frequency": 261.6255653005986,
      "time": 214.666452,
      "duration": 0.1046295250000071,
      "velocity": 0.7716535433070866,
      "name": "C4"
    },
    {
      "midi": 67,
      "frequency": 391.99543598174927,
      "time": 214.77756300000001,
      "duration": 0.10462952499997868,
      "velocity": 0.6141732283464567,
      "name": "G4"
    },
    {
      "midi": 55,
      "frequency": 195.99771799087463,
      "time": 214.77756300000001,
      "duration": 0.10462952499997868,
      "velocity": 0.7716535433070866,
      "name": "G3"
    },
    {
      "midi": 64,
      "frequency": 329.6275569128699,
      "time": 214.888674,
      "duration": 0.10462952499997868,
      "velocity": 0.6141732283464567,
      "name": "E4"
    },
    {
      "midi": 52,
      "frequency": 164.81377845643496,
      "time": 214.888674,
      "duration": 0.10462952499997868,
      "velocity": 0.7716535433070866,
      "name": "E3"
    },
    {
      "midi": 60,
      "frequency": 261.6255653005986,
      "time": 214.999785,
      "duration": 0.1046295250000071,
      "velocity": 0.6141732283464567,
      "name": "C4"
    },
    {
      "midi": 48,
      "frequency": 130.8127826502993,
      "time": 214.999785,
      "duration": 0.1046295250000071,
      "velocity": 0.7716535433070866,
      "name": "C3"
    },
    {
      "midi": 62,
      "frequency": 293.6647679174076,
      "time": 215.110896,
      "duration": 0.3157404250000013,
      "velocity": 0.6141732283464567,
      "name": "D4"
    },
    {
      "midi": 38,
      "frequency": 73.41619197935188,
      "time": 215.110896,
      "duration": 0.1046295250000071,
      "velocity": 0.7716535433070866,
      "name": "D2"
    },
    {
      "midi": 42,
      "frequency": 92.49860567790861,
      "time": 215.222007,
      "duration": 0.1046295250000071,
      "velocity": 0.7716535433070866,
      "name": "F#2"
    },
    {
      "midi": 45,
      "frequency": 110,
      "time": 215.333118,
      "duration": 0.10462952499997868,
      "velocity": 0.7716535433070866,
      "name": "A2"
    },
    {
      "midi": 62,
      "frequency": 293.6647679174076,
      "time": 215.444229,
      "duration": 0.11111099999999396,
      "velocity": 0.6141732283464567,
      "name": "D4"
    },
    {
      "midi": 50,
      "frequency": 146.8323839587038,
      "time": 215.444229,
      "duration": 0.10462952499997868,
      "velocity": 0.7716535433070866,
      "name": "D3"
    },
    {
      "midi": 57,
      "frequency": 220,
      "time": 215.55534,
      "duration": 0.21018497500000421,
      "velocity": 0.7716535433070866,
      "name": "A3"
    },
    {
      "midi": 62,
      "frequency": 293.6647679174076,
      "time": 215.55534,
      "duration": 0.21018497500000421,
      "velocity": 0.7716535433070866,
      "name": "D4"
    },
    {
      "midi": 69,
      "frequency": 440,
      "time": 215.777562,
      "duration": 0.21018497500000421,
      "velocity": 0.6141732283464567,
      "name": "A4"
    },
    {
      "midi": 74,
      "frequency": 587.3295358348151,
      "time": 215.777562,
      "duration": 0.21018497500000421,
      "velocity": 0.6141732283464567,
      "name": "D5"
    },
    {
      "midi": 50,
      "frequency": 146.8323839587038,
      "time": 215.777562,
      "duration": 0.21018497500000421,
      "velocity": 0.7716535433070866,
      "name": "D3"
    },
    {
      "midi": 62,
      "frequency": 293.6647679174076,
      "time": 215.999784,
      "duration": 0.10462952499997868,
      "velocity": 0.7716535433070866,
      "name": "D4"
    },
    {
      "midi": 57,
      "frequency": 220,
      "time": 216.110895,
      "duration": 0.1046295250000071,
      "velocity": 0.7716535433070866,
      "name": "A3"
    },
    {
      "midi": 62,
      "frequency": 293.6647679174076,
      "time": 216.222006,
      "duration": 0.1046295250000071,
      "velocity": 0.6141732283464567,
      "name": "D4"
    },
    {
      "midi": 54,
      "frequency": 184.99721135581723,
      "time": 216.222006,
      "duration": 0.1046295250000071,
      "velocity": 0.7716535433070866,
      "name": "F#3"
    },
    {
      "midi": 69,
      "frequency": 440,
      "time": 216.33311700000002,
      "duration": 0.10462952499997868,
      "velocity": 0.6141732283464567,
      "name": "A4"
    },
    {
      "midi": 50,
      "frequency": 146.8323839587038,
      "time": 216.33311700000002,
      "duration": 0.10462952499997868,
      "velocity": 0.7716535433070866,
      "name": "D3"
    },
    {
      "midi": 74,
      "frequency": 587.3295358348151,
      "time": 216.444228,
      "duration": 0.10462952499997868,
      "velocity": 0.6141732283464567,
      "name": "D5"
    },
    {
      "midi": 62,
      "frequency": 293.6647679174076,
      "time": 216.444228,
      "duration": 0.10462952499997868,
      "velocity": 0.7716535433070866,
      "name": "D4"
    },
    {
      "midi": 69,
      "frequency": 440,
      "time": 216.555339,
      "duration": 0.10462952499997868,
      "velocity": 0.6141732283464567,
      "name": "A4"
    },
    {
      "midi": 57,
      "frequency": 220,
      "time": 216.555339,
      "duration": 0.10462952499997868,
      "velocity": 0.7716535433070866,
      "name": "A3"
    },
    {
      "midi": 66,
      "frequency": 369.99442271163446,
      "time": 216.66645,
      "duration": 0.1046295250000071,
      "velocity": 0.6141732283464567,
      "name": "F#4"
    },
    {
      "midi": 54,
      "frequency": 184.99721135581723,
      "time": 216.66645,
      "duration": 0.1046295250000071,
      "velocity": 0.7716535433070866,
      "name": "F#3"
    },
    {
      "midi": 62,
      "frequency": 293.6647679174076,
      "time": 216.777561,
      "duration": 0.1046295250000071,
      "velocity": 0.6141732283464567,
      "name": "D4"
    },
    {
      "midi": 50,
      "frequency": 146.8323839587038,
      "time": 216.777561,
      "duration": 0.1046295250000071,
      "velocity": 0.7716535433070866,
      "name": "D3"
    },
    {
      "midi": 64,
      "frequency": 329.6275569128699,
      "time": 216.888672,
      "duration": 0.3157404250000013,
      "velocity": 0.6141732283464567,
      "name": "E4"
    },
    {
      "midi": 40,
      "frequency": 82.40688922821748,
      "time": 216.888672,
      "duration": 0.10462952499997868,
      "velocity": 0.7716535433070866,
      "name": "E2"
    },
    {
      "midi": 43,
      "frequency": 97.99885899543733,
      "time": 216.999783,
      "duration": 0.10462952499997868,
      "velocity": 0.7716535433070866,
      "name": "G2"
    },
    {
      "midi": 47,
      "frequency": 123.47082531403103,
      "time": 217.110894,
      "duration": 0.1046295250000071,
      "velocity": 0.7716535433070866,
      "name": "B2"
    },
    {
      "midi": 64,
      "frequency": 329.6275569128699,
      "time": 217.222005,
      "duration": 0.11111099999999396,
      "velocity": 0.6141732283464567,
      "name": "E4"
    },
    {
      "midi": 52,
      "frequency": 164.81377845643496,
      "time": 217.222005,
      "duration": 0.1046295250000071,
      "velocity": 0.7716535433070866,
      "name": "E3"
    },
    {
      "midi": 59,
      "frequency": 246.94165062806206,
      "time": 217.333116,
      "duration": 0.21018497500000421,
      "velocity": 0.7716535433070866,
      "name": "B3"
    },
    {
      "midi": 64,
      "frequency": 329.6275569128699,
      "time": 217.333116,
      "duration": 0.21018497500000421,
      "velocity": 0.7716535433070866,
      "name": "E4"
    },
    {
      "midi": 71,
      "frequency": 493.8833012561241,
      "time": 217.555338,
      "duration": 0.21018497500000421,
      "velocity": 0.6141732283464567,
      "name": "B4"
    },
    {
      "midi": 76,
      "frequency": 659.2551138257398,
      "time": 217.555338,
      "duration": 0.21018497500000421,
      "velocity": 0.6141732283464567,
      "name": "E5"
    },
    {
      "midi": 52,
      "frequency": 164.81377845643496,
      "time": 217.555338,
      "duration": 0.21018497500000421,
      "velocity": 0.7716535433070866,
      "name": "E3"
    },
    {
      "midi": 64,
      "frequency": 329.6275569128699,
      "time": 217.77756,
      "duration": 0.1046295250000071,
      "velocity": 0.7716535433070866,
      "name": "E4"
    },
    {
      "midi": 59,
      "frequency": 246.94165062806206,
      "time": 217.88867100000002,
      "duration": 0.10462952499997868,
      "velocity": 0.7716535433070866,
      "name": "B3"
    },
    {
      "midi": 64,
      "frequency": 329.6275569128699,
      "time": 217.999782,
      "duration": 0.10462952499997868,
      "velocity": 0.6141732283464567,
      "name": "E4"
    },
    {
      "midi": 55,
      "frequency": 195.99771799087463,
      "time": 217.999782,
      "duration": 0.10462952499997868,
      "velocity": 0.7716535433070866,
      "name": "G3"
    },
    {
      "midi": 71,
      "frequency": 493.8833012561241,
      "time": 218.110893,
      "duration": 0.10462952499997868,
      "velocity": 0.6141732283464567,
      "name": "B4"
    },
    {
      "midi": 52,
      "frequency": 164.81377845643496,
      "time": 218.110893,
      "duration": 0.10462952499997868,
      "velocity": 0.7716535433070866,
      "name": "E3"
    },
    {
      "midi": 76,
      "frequency": 659.2551138257398,
      "time": 218.222004,
      "duration": 0.1046295250000071,
      "velocity": 0.6141732283464567,
      "name": "E5"
    },
    {
      "midi": 64,
      "frequency": 329.6275569128699,
      "time": 218.222004,
      "duration": 0.1046295250000071,
      "velocity": 0.7716535433070866,
      "name": "E4"
    },
    {
      "midi": 71,
      "frequency": 493.8833012561241,
      "time": 218.333115,
      "duration": 0.1046295250000071,
      "velocity": 0.6141732283464567,
      "name": "B4"
    },
    {
      "midi": 59,
      "frequency": 246.94165062806206,
      "time": 218.333115,
      "duration": 0.1046295250000071,
      "velocity": 0.7716535433070866,
      "name": "B3"
    },
    {
      "midi": 67,
      "frequency": 391.99543598174927,
      "time": 218.44422600000001,
      "duration": 0.10462952499997868,
      "velocity": 0.6141732283464567,
      "name": "G4"
    },
    {
      "midi": 55,
      "frequency": 195.99771799087463,
      "time": 218.44422600000001,
      "duration": 0.10462952499997868,
      "velocity": 0.7716535433070866,
      "name": "G3"
    },
    {
      "midi": 64,
      "frequency": 329.6275569128699,
      "time": 218.555337,
      "duration": 0.10462952499997868,
      "velocity": 0.6141732283464567,
      "name": "E4"
    },
    {
      "midi": 52,
      "frequency": 164.81377845643496,
      "time": 218.555337,
      "duration": 0.10462952499997868,
      "velocity": 0.7716535433070866,
      "name": "E3"
    },
    {
      "midi": 62,
      "frequency": 293.6647679174076,
      "time": 218.666448,
      "duration": 0.3157404250000013,
      "velocity": 0.6141732283464567,
      "name": "D4"
    },
    {
      "midi": 38,
      "frequency": 73.41619197935188,
      "time": 218.666448,
      "duration": 0.1046295250000071,
      "velocity": 0.7716535433070866,
      "name": "D2"
    },
    {
      "midi": 42,
      "frequency": 92.49860567790861,
      "time": 218.777559,
      "duration": 0.1046295250000071,
      "velocity": 0.7716535433070866,
      "name": "F#2"
    },
    {
      "midi": 45,
      "frequency": 110,
      "time": 218.88867,
      "duration": 0.1046295250000071,
      "velocity": 0.7716535433070866,
      "name": "A2"
    },
    {
      "midi": 62,
      "frequency": 293.6647679174076,
      "time": 218.999781,
      "duration": 0.11111099999999396,
      "velocity": 0.6141732283464567,
      "name": "D4"
    },
    {
      "midi": 50,
      "frequency": 146.8323839587038,
      "time": 218.999781,
      "duration": 0.10462952499997868,
      "velocity": 0.7716535433070866,
      "name": "D3"
    },
    {
      "midi": 57,
      "frequency": 220,
      "time": 219.110892,
      "duration": 0.21018497500000421,
      "velocity": 0.7716535433070866,
      "name": "A3"
    },
    {
      "midi": 62,
      "frequency": 293.6647679174076,
      "time": 219.110892,
      "duration": 0.21018497500000421,
      "velocity": 0.7716535433070866,
      "name": "D4"
    },
    {
      "midi": 69,
      "frequency": 440,
      "time": 219.333114,
      "duration": 0.21018497500000421,
      "velocity": 0.6141732283464567,
      "name": "A4"
    },
    {
      "midi": 74,
      "frequency": 587.3295358348151,
      "time": 219.333114,
      "duration": 0.21018497500000421,
      "velocity": 0.6141732283464567,
      "name": "D5"
    },
    {
      "midi": 50,
      "frequency": 146.8323839587038,
      "time": 219.333114,
      "duration": 0.21018497500000421,
      "velocity": 0.7716535433070866,
      "name": "D3"
    },
    {
      "midi": 62,
      "frequency": 293.6647679174076,
      "time": 219.555336,
      "duration": 0.10462952499997868,
      "velocity": 0.7716535433070866,
      "name": "D4"
    },
    {
      "midi": 57,
      "frequency": 220,
      "time": 219.666447,
      "duration": 0.10462952499997868,
      "velocity": 0.7716535433070866,
      "name": "A3"
    },
    {
      "midi": 62,
      "frequency": 293.6647679174076,
      "time": 219.777558,
      "duration": 0.1046295250000071,
      "velocity": 0.6141732283464567,
      "name": "D4"
    },
    {
      "midi": 54,
      "frequency": 184.99721135581723,
      "time": 219.777558,
      "duration": 0.1046295250000071,
      "velocity": 0.7716535433070866,
      "name": "F#3"
    },
    {
      "midi": 69,
      "frequency": 440,
      "time": 219.888669,
      "duration": 0.1046295250000071,
      "velocity": 0.6141732283464567,
      "name": "A4"
    },
    {
      "midi": 50,
      "frequency": 146.8323839587038,
      "time": 219.888669,
      "duration": 0.1046295250000071,
      "velocity": 0.7716535433070866,
      "name": "D3"
    },
    {
      "midi": 74,
      "frequency": 587.3295358348151,
      "time": 219.99978000000002,
      "duration": 0.10462952499997868,
      "velocity": 0.6141732283464567,
      "name": "D5"
    },
    {
      "midi": 62,
      "frequency": 293.6647679174076,
      "time": 219.99978000000002,
      "duration": 0.10462952499997868,
      "velocity": 0.7716535433070866,
      "name": "D4"
    },
    {
      "midi": 69,
      "frequency": 440,
      "time": 220.110891,
      "duration": 0.10462952499997868,
      "velocity": 0.6141732283464567,
      "name": "A4"
    },
    {
      "midi": 57,
      "frequency": 220,
      "time": 220.110891,
      "duration": 0.10462952499997868,
      "velocity": 0.7716535433070866,
      "name": "A3"
    },
    {
      "midi": 66,
      "frequency": 369.99442271163446,
      "time": 220.222002,
      "duration": 0.10462952499997868,
      "velocity": 0.6141732283464567,
      "name": "F#4"
    },
    {
      "midi": 54,
      "frequency": 184.99721135581723,
      "time": 220.222002,
      "duration": 0.10462952499997868,
      "velocity": 0.7716535433070866,
      "name": "F#3"
    },
    {
      "midi": 62,
      "frequency": 293.6647679174076,
      "time": 220.333113,
      "duration": 0.1046295250000071,
      "velocity": 0.6141732283464567,
      "name": "D4"
    },
    {
      "midi": 50,
      "frequency": 146.8323839587038,
      "time": 220.333113,
      "duration": 0.1046295250000071,
      "velocity": 0.7716535433070866,
      "name": "D3"
    },
    {
      "midi": 60,
      "frequency": 261.6255653005986,
      "time": 220.444224,
      "duration": 0.3157404250000013,
      "velocity": 0.6141732283464567,
      "name": "C4"
    },
    {
      "midi": 36,
      "frequency": 65.40639132514966,
      "time": 220.444224,
      "duration": 0.1046295250000071,
      "velocity": 0.7716535433070866,
      "name": "C2"
    },
    {
      "midi": 40,
      "frequency": 82.40688922821748,
      "time": 220.555335,
      "duration": 0.10462952499997868,
      "velocity": 0.7716535433070866,
      "name": "E2"
    },
    {
      "midi": 43,
      "frequency": 97.99885899543733,
      "time": 220.666446,
      "duration": 0.10462952499997868,
      "velocity": 0.7716535433070866,
      "name": "G2"
    },
    {
      "midi": 60,
      "frequency": 261.6255653005986,
      "time": 220.777557,
      "duration": 0.1046295250000071,
      "velocity": 0.6141732283464567,
      "name": "C4"
    },
    {
      "midi": 48,
      "frequency": 130.8127826502993,
      "time": 220.777557,
      "duration": 0.1046295250000071,
      "velocity": 0.7716535433070866,
      "name": "C3"
    },
    {
      "midi": 55,
      "frequency": 195.99771799087463,
      "time": 220.888668,
      "duration": 0.21018497500000421,
      "velocity": 0.7716535433070866,
      "name": "G3"
    },
    {
      "midi": 60,
      "frequency": 261.6255653005986,
      "time": 220.888668,
      "duration": 0.21018497500000421,
      "velocity": 0.7716535433070866,
      "name": "C4"
    },
    {
      "midi": 67,
      "frequency": 391.99543598174927,
      "time": 221.11089,
      "duration": 0.42129587499999843,
      "velocity": 0.8503937007874016,
      "name": "G4"
    },
    {
      "midi": 72,
      "frequency": 523.2511306011972,
      "time": 221.11089,
      "duration": 0.42129587499999843,
      "velocity": 0.8503937007874016,
      "name": "C5"
    },
    {
      "midi": 79,
      "frequency": 783.9908719634986,
      "time": 221.11089,
      "duration": 0.42129587499999843,
      "velocity": 0.8503937007874016,
      "name": "G5"
    },
    {
      "midi": 48,
      "frequency": 130.8127826502993,
      "time": 221.11089,
      "duration": 0.2101849749999758,
      "velocity": 0.7716535433070866,
      "name": "C3"
    },
    {
      "midi": 69,
      "frequency": 440,
      "time": 221.55533400000002,
      "duration": 0.2101849749999758,
      "velocity": 0.8503937007874016,
      "name": "A4"
    },
    {
      "midi": 81,
      "frequency": 880,
      "time": 221.55533400000002,
      "duration": 0.2101849749999758,
      "velocity": 0.8503937007874016,
      "name": "A5"
    },
    {
      "midi": 36,
      "frequency": 65.40639132514966,
      "time": 221.55533400000002,
      "duration": 0.10462952499997868,
      "velocity": 0.7716535433070866,
      "name": "C2"
    },
    {
      "midi": 48,
      "frequency": 130.8127826502993,
      "time": 221.666445,
      "duration": 0.10462952499997868,
      "velocity": 0.7716535433070866,
      "name": "C3"
    },
    {
      "midi": 71,
      "frequency": 493.8833012561241,
      "time": 221.777556,
      "duration": 0.21018497500000421,
      "velocity": 0.8503937007874016,
      "name": "B4"
    },
    {
      "midi": 83,
      "frequency": 987.7666025122483,
      "time": 221.777556,
      "duration": 0.21018497500000421,
      "velocity": 0.8503937007874016,
      "name": "B5"
    },
    {
      "midi": 60,
      "frequency": 261.6255653005986,
      "time": 221.777556,
      "duration": 0.10462952499997868,
      "velocity": 0.7716535433070866,
      "name": "C4"
    },
    {
      "midi": 55,
      "frequency": 195.99771799087463,
      "time": 221.888667,
      "duration": 0.1046295250000071,
      "velocity": 0.7716535433070866,
      "name": "G3"
    },
    {
      "midi": 69,
      "frequency": 440,
      "time": 221.999778,
      "duration": 0.21018497500000421,
      "velocity": 0.8503937007874016,
      "name": "A4"
    },
    {
      "midi": 74,
      "frequency": 587.3295358348151,
      "time": 221.999778,
      "duration": 0.21018497500000421,
      "velocity": 0.8503937007874016,
      "name": "D5"
    },
    {
      "midi": 78,
      "frequency": 739.9888454232689,
      "time": 221.999778,
      "duration": 0.21018497500000421,
      "velocity": 0.8503937007874016,
      "name": "F#5"
    },
    {
      "midi": 81,
      "frequency": 880,
      "time": 221.999778,
      "duration": 0.21018497500000421,
      "velocity": 0.8503937007874016,
      "name": "A5"
    },
    {
      "midi": 52,
      "frequency": 164.81377845643496,
      "time": 221.999778,
      "duration": 0.1046295250000071,
      "velocity": 0.7716535433070866,
      "name": "E3"
    },
    {
      "midi": 48,
      "frequency": 130.8127826502993,
      "time": 222.11088900000001,
      "duration": 0.10462952499997868,
      "velocity": 0.7716535433070866,
      "name": "C3"
    },
    {
      "midi": 38,
      "frequency": 73.41619197935188,
      "time": 222.222,
      "duration": 0.42129587499999843,
      "velocity": 0.7716535433070866,
      "name": "D2"
    },
    {
      "midi": 50,
      "frequency": 146.8323839587038,
      "time": 222.222,
      "duration": 0.42129587499999843,
      "velocity": 0.7716535433070866,
      "name": "D3"
    },
    {
      "midi": 69,
      "frequency": 440,
      "time": 222.888666,
      "duration": 0.21018497500000421,
      "velocity": 0.7244094488188977,
      "name": "A4"
    },
    {
      "midi": 74,
      "frequency": 587.3295358348151,
      "time": 222.888666,
      "duration": 0.21018497500000421,
      "velocity": 0.7244094488188977,
      "name": "D5"
    },
    {
      "midi": 69,
      "frequency": 440,
      "time": 223.11088800000002,
      "duration": 0.42129587499999843,
      "velocity": 0.7244094488188977,
      "name": "A4"
    },
    {
      "midi": 74,
      "frequency": 587.3295358348151,
      "time": 223.11088800000002,
      "duration": 0.42129587499999843,
      "velocity": 0.7244094488188977,
      "name": "D5"
    },
    {
      "midi": 71,
      "frequency": 493.8833012561241,
      "time": 223.555332,
      "duration": 0.42129587500002685,
      "velocity": 0.7244094488188977,
      "name": "B4"
    },
    {
      "midi": 76,
      "frequency": 659.2551138257398,
      "time": 223.555332,
      "duration": 0.42129587500002685,
      "velocity": 0.7244094488188977,
      "name": "E5"
    },
    {
      "midi": 59,
      "frequency": 246.94165062806206,
      "time": 223.999776,
      "duration": 0.3157404250000013,
      "velocity": 0.7244094488188977,
      "name": "B3"
    },
    {
      "midi": 64,
      "frequency": 329.6275569128699,
      "time": 223.999776,
      "duration": 0.3157404250000013,
      "velocity": 0.7244094488188977,
      "name": "E4"
    },
    {
      "midi": 40,
      "frequency": 82.40688922821748,
      "time": 223.999776,
      "duration": 0.3157404250000013,
      "velocity": 0.7716535433070866,
      "name": "E2"
    },
    {
      "midi": 52,
      "frequency": 164.81377845643496,
      "time": 223.999776,
      "duration": 0.3157404250000013,
      "velocity": 0.7716535433070866,
      "name": "E3"
    },
    {
      "midi": 57,
      "frequency": 220,
      "time": 224.333109,
      "duration": 0.3157404250000013,
      "velocity": 0.7244094488188977,
      "name": "A3"
    },
    {
      "midi": 62,
      "frequency": 293.6647679174076,
      "time": 224.333109,
      "duration": 0.3157404250000013,
      "velocity": 0.7244094488188977,
      "name": "D4"
    },
    {
      "midi": 38,
      "frequency": 73.41619197935188,
      "time": 224.333109,
      "duration": 0.3157404250000013,
      "velocity": 0.7716535433070866,
      "name": "D2"
    },
    {
      "midi": 50,
      "frequency": 146.8323839587038,
      "time": 224.333109,
      "duration": 0.3157404250000013,
      "velocity": 0.7716535433070866,
      "name": "D3"
    },
    {
      "midi": 59,
      "frequency": 246.94165062806206,
      "time": 224.666442,
      "duration": 0.21018497500000421,
      "velocity": 0.7244094488188977,
      "name": "B3"
    },
    {
      "midi": 64,
      "frequency": 329.6275569128699,
      "time": 224.666442,
      "duration": 0.21018497500000421,
      "velocity": 0.7244094488188977,
      "name": "E4"
    },
    {
      "midi": 40,
      "frequency": 82.40688922821748,
      "time": 224.666442,
      "duration": 0.21018497500000421,
      "velocity": 0.7716535433070866,
      "name": "E2"
    },
    {
      "midi": 52,
      "frequency": 164.81377845643496,
      "time": 224.666442,
      "duration": 0.21018497500000421,
      "velocity": 0.7716535433070866,
      "name": "E3"
    },
    {
      "midi": 59,
      "frequency": 246.94165062806206,
      "time": 225.110886,
      "duration": 0.21018497500000421,
      "velocity": 0.7244094488188977,
      "name": "B3"
    },
    {
      "midi": 38,
      "frequency": 73.41619197935188,
      "time": 225.110886,
      "duration": 0.21018497500000421,
      "velocity": 0.7716535433070866,
      "name": "D2"
    },
    {
      "midi": 50,
      "frequency": 146.8323839587038,
      "time": 225.110886,
      "duration": 0.21018497500000421,
      "velocity": 0.7716535433070866,
      "name": "D3"
    },
    {
      "midi": 64,
      "frequency": 329.6275569128699,
      "time": 225.333108,
      "duration": 0.10462952499997868,
      "velocity": 1,
      "name": "E4"
    },
    {
      "midi": 71,
      "frequency": 493.8833012561241,
      "time": 225.333108,
      "duration": 0.10462952499997868,
      "velocity": 1,
      "name": "B4"
    },
    {
      "midi": 40,
      "frequency": 82.40688922821748,
      "time": 225.333108,
      "duration": 0.21018497500000421,
      "velocity": 0.7716535433070866,
      "name": "E2"
    },
    {
      "midi": 52,
      "frequency": 164.81377845643496,
      "time": 225.333108,
      "duration": 0.21018497500000421,
      "velocity": 0.7716535433070866,
      "name": "E3"
    },
    {
      "midi": 59,
      "frequency": 246.94165062806206,
      "time": 225.444219,
      "duration": 0.10462952499997868,
      "velocity": 0.7244094488188977,
      "name": "B3"
    },
    {
      "midi": 64,
      "frequency": 329.6275569128699,
      "time": 225.55533,
      "duration": 0.1046295250000071,
      "velocity": 0.7244094488188977,
      "name": "E4"
    },
    {
      "midi": 71,
      "frequency": 493.8833012561241,
      "time": 225.55533,
      "duration": 0.1046295250000071,
      "velocity": 0.7244094488188977,
      "name": "B4"
    },
    {
      "midi": 40,
      "frequency": 82.40688922821748,
      "time": 225.55533,
      "duration": 0.21018497500000421,
      "velocity": 0.7716535433070866,
      "name": "E2"
    },
    {
      "midi": 52,
      "frequency": 164.81377845643496,
      "time": 225.55533,
      "duration": 0.21018497500000421,
      "velocity": 0.7716535433070866,
      "name": "E3"
    },
    {
      "midi": 59,
      "frequency": 246.94165062806206,
      "time": 225.666441,
      "duration": 0.1046295250000071,
      "velocity": 0.7244094488188977,
      "name": "B3"
    },
    {
      "midi": 59,
      "frequency": 246.94165062806206,
      "time": 225.77755200000001,
      "duration": 0.3157404250000013,
      "velocity": 0.7244094488188977,
      "name": "B3"
    },
    {
      "midi": 64,
      "frequency": 329.6275569128699,
      "time": 225.77755200000001,
      "duration": 0.3157404250000013,
      "velocity": 0.7244094488188977,
      "name": "E4"
    },
    {
      "midi": 40,
      "frequency": 82.40688922821748,
      "time": 225.77755200000001,
      "duration": 0.3157404250000013,
      "velocity": 0.7716535433070866,
      "name": "E2"
    },
    {
      "midi": 52,
      "frequency": 164.81377845643496,
      "time": 225.77755200000001,
      "duration": 0.3157404250000013,
      "velocity": 0.7716535433070866,
      "name": "E3"
    },
    {
      "midi": 57,
      "frequency": 220,
      "time": 226.110885,
      "duration": 0.3157404250000013,
      "velocity": 0.7244094488188977,
      "name": "A3"
    },
    {
      "midi": 62,
      "frequency": 293.6647679174076,
      "time": 226.110885,
      "duration": 0.3157404250000013,
      "velocity": 0.7244094488188977,
      "name": "D4"
    },
    {
      "midi": 38,
      "frequency": 73.41619197935188,
      "time": 226.110885,
      "duration": 0.3157404250000013,
      "velocity": 0.7716535433070866,
      "name": "D2"
    },
    {
      "midi": 50,
      "frequency": 146.8323839587038,
      "time": 226.110885,
      "duration": 0.3157404250000013,
      "velocity": 0.7716535433070866,
      "name": "D3"
    },
    {
      "midi": 59,
      "frequency": 246.94165062806206,
      "time": 226.444218,
      "duration": 0.21018497500000421,
      "velocity": 0.7244094488188977,
      "name": "B3"
    },
    {
      "midi": 64,
      "frequency": 329.6275569128699,
      "time": 226.444218,
      "duration": 0.21018497500000421,
      "velocity": 0.7244094488188977,
      "name": "E4"
    },
    {
      "midi": 40,
      "frequency": 82.40688922821748,
      "time": 226.444218,
      "duration": 0.21018497500000421,
      "velocity": 0.7716535433070866,
      "name": "E2"
    },
    {
      "midi": 52,
      "frequency": 164.81377845643496,
      "time": 226.444218,
      "duration": 0.21018497500000421,
      "velocity": 0.7716535433070866,
      "name": "E3"
    },
    {
      "midi": 59,
      "frequency": 246.94165062806206,
      "time": 226.888662,
      "duration": 0.21018497500000421,
      "velocity": 0.7244094488188977,
      "name": "B3"
    },
    {
      "midi": 38,
      "frequency": 73.41619197935188,
      "time": 226.888662,
      "duration": 0.21018497500000421,
      "velocity": 0.7716535433070866,
      "name": "D2"
    },
    {
      "midi": 50,
      "frequency": 146.8323839587038,
      "time": 226.888662,
      "duration": 0.21018497500000421,
      "velocity": 0.7716535433070866,
      "name": "D3"
    },
    {
      "midi": 64,
      "frequency": 329.6275569128699,
      "time": 227.110884,
      "duration": 0.1046295250000071,
      "velocity": 1,
      "name": "E4"
    },
    {
      "midi": 71,
      "frequency": 493.8833012561241,
      "time": 227.110884,
      "duration": 0.1046295250000071,
      "velocity": 1,
      "name": "B4"
    },
    {
      "midi": 40,
      "frequency": 82.40688922821748,
      "time": 227.110884,
      "duration": 0.21018497500000421,
      "velocity": 0.7716535433070866,
      "name": "E2"
    },
    {
      "midi": 52,
      "frequency": 164.81377845643496,
      "time": 227.110884,
      "duration": 0.21018497500000421,
      "velocity": 0.7716535433070866,
      "name": "E3"
    },
    {
      "midi": 59,
      "frequency": 246.94165062806206,
      "time": 227.221995,
      "duration": 0.1046295250000071,
      "velocity": 0.7244094488188977,
      "name": "B3"
    },
    {
      "midi": 64,
      "frequency": 329.6275569128699,
      "time": 227.33310600000002,
      "duration": 0.10462952499997868,
      "velocity": 0.7244094488188977,
      "name": "E4"
    },
    {
      "midi": 71,
      "frequency": 493.8833012561241,
      "time": 227.33310600000002,
      "duration": 0.10462952499997868,
      "velocity": 0.7244094488188977,
      "name": "B4"
    },
    {
      "midi": 40,
      "frequency": 82.40688922821748,
      "time": 227.33310600000002,
      "duration": 0.2101849749999758,
      "velocity": 0.7716535433070866,
      "name": "E2"
    },
    {
      "midi": 52,
      "frequency": 164.81377845643496,
      "time": 227.33310600000002,
      "duration": 0.2101849749999758,
      "velocity": 0.7716535433070866,
      "name": "E3"
    },
    {
      "midi": 59,
      "frequency": 246.94165062806206,
      "time": 227.444217,
      "duration": 0.10462952499997868,
      "velocity": 0.7244094488188977,
      "name": "B3"
    },
    {
      "midi": 59,
      "frequency": 246.94165062806206,
      "time": 227.555328,
      "duration": 0.3157404250000013,
      "velocity": 0.7244094488188977,
      "name": "B3"
    },
    {
      "midi": 64,
      "frequency": 329.6275569128699,
      "time": 227.555328,
      "duration": 0.3157404250000013,
      "velocity": 0.7244094488188977,
      "name": "E4"
    },
    {
      "midi": 40,
      "frequency": 82.40688922821748,
      "time": 227.555328,
      "duration": 0.3157404250000013,
      "velocity": 0.7716535433070866,
      "name": "E2"
    },
    {
      "midi": 52,
      "frequency": 164.81377845643496,
      "time": 227.555328,
      "duration": 0.3157404250000013,
      "velocity": 0.7716535433070866,
      "name": "E3"
    },
    {
      "midi": 57,
      "frequency": 220,
      "time": 227.888661,
      "duration": 0.3157404250000013,
      "velocity": 0.7244094488188977,
      "name": "A3"
    },
    {
      "midi": 62,
      "frequency": 293.6647679174076,
      "time": 227.888661,
      "duration": 0.3157404250000013,
      "velocity": 0.7244094488188977,
      "name": "D4"
    },
    {
      "midi": 38,
      "frequency": 73.41619197935188,
      "time": 227.888661,
      "duration": 0.3157404250000013,
      "velocity": 0.7716535433070866,
      "name": "D2"
    },
    {
      "midi": 50,
      "frequency": 146.8323839587038,
      "time": 227.888661,
      "duration": 0.3157404250000013,
      "velocity": 0.7716535433070866,
      "name": "D3"
    },
    {
      "midi": 59,
      "frequency": 246.94165062806206,
      "time": 228.221994,
      "duration": 0.21018497500003264,
      "velocity": 0.7244094488188977,
      "name": "B3"
    },
    {
      "midi": 64,
      "frequency": 329.6275569128699,
      "time": 228.221994,
      "duration": 0.21018497500003264,
      "velocity": 0.7244094488188977,
      "name": "E4"
    },
    {
      "midi": 40,
      "frequency": 82.40688922821748,
      "time": 228.221994,
      "duration": 0.21018497500003264,
      "velocity": 0.7716535433070866,
      "name": "E2"
    },
    {
      "midi": 52,
      "frequency": 164.81377845643496,
      "time": 228.221994,
      "duration": 0.21018497500003264,
      "velocity": 0.7716535433070866,
      "name": "E3"
    },
    {
      "midi": 59,
      "frequency": 246.94165062806206,
      "time": 228.666438,
      "duration": 0.21018497500003264,
      "velocity": 0.7244094488188977,
      "name": "B3"
    },
    {
      "midi": 38,
      "frequency": 73.41619197935188,
      "time": 228.666438,
      "duration": 0.21018497500003264,
      "velocity": 0.7716535433070866,
      "name": "D2"
    },
    {
      "midi": 50,
      "frequency": 146.8323839587038,
      "time": 228.666438,
      "duration": 0.21018497500003264,
      "velocity": 0.7716535433070866,
      "name": "D3"
    },
    {
      "midi": 64,
      "frequency": 329.6275569128699,
      "time": 228.88866000000002,
      "duration": 0.10462952499997868,
      "velocity": 1,
      "name": "E4"
    },
    {
      "midi": 71,
      "frequency": 493.8833012561241,
      "time": 228.88866000000002,
      "duration": 0.10462952499997868,
      "velocity": 1,
      "name": "B4"
    },
    {
      "midi": 40,
      "frequency": 82.40688922821748,
      "time": 228.88866000000002,
      "duration": 0.21018497500000421,
      "velocity": 0.7716535433070866,
      "name": "E2"
    },
    {
      "midi": 52,
      "frequency": 164.81377845643496,
      "time": 228.88866000000002,
      "duration": 0.21018497500000421,
      "velocity": 0.7716535433070866,
      "name": "E3"
    },
    {
      "midi": 59,
      "frequency": 246.94165062806206,
      "time": 228.999771,
      "duration": 0.10462952499997868,
      "velocity": 0.7244094488188977,
      "name": "B3"
    },
    {
      "midi": 64,
      "frequency": 329.6275569128699,
      "time": 229.110882,
      "duration": 0.10462952499997868,
      "velocity": 0.7244094488188977,
      "name": "E4"
    },
    {
      "midi": 71,
      "frequency": 493.8833012561241,
      "time": 229.110882,
      "duration": 0.10462952499997868,
      "velocity": 0.7244094488188977,
      "name": "B4"
    },
    {
      "midi": 40,
      "frequency": 82.40688922821748,
      "time": 229.110882,
      "duration": 0.21018497500003264,
      "velocity": 0.7716535433070866,
      "name": "E2"
    },
    {
      "midi": 52,
      "frequency": 164.81377845643496,
      "time": 229.110882,
      "duration": 0.21018497500003264,
      "velocity": 0.7716535433070866,
      "name": "E3"
    },
    {
      "midi": 59,
      "frequency": 246.94165062806206,
      "time": 229.221993,
      "duration": 0.1046295250000071,
      "velocity": 0.7244094488188977,
      "name": "B3"
    },
    {
      "midi": 59,
      "frequency": 246.94165062806206,
      "time": 229.333104,
      "duration": 0.3157404250000013,
      "velocity": 0.7244094488188977,
      "name": "B3"
    },
    {
      "midi": 64,
      "frequency": 329.6275569128699,
      "time": 229.333104,
      "duration": 0.3157404250000013,
      "velocity": 0.7244094488188977,
      "name": "E4"
    },
    {
      "midi": 40,
      "frequency": 82.40688922821748,
      "time": 229.333104,
      "duration": 0.3157404250000013,
      "velocity": 0.7716535433070866,
      "name": "E2"
    },
    {
      "midi": 52,
      "frequency": 164.81377845643496,
      "time": 229.333104,
      "duration": 0.3157404250000013,
      "velocity": 0.7716535433070866,
      "name": "E3"
    },
    {
      "midi": 57,
      "frequency": 220,
      "time": 229.666437,
      "duration": 0.3157404250000013,
      "velocity": 0.7244094488188977,
      "name": "A3"
    },
    {
      "midi": 62,
      "frequency": 293.6647679174076,
      "time": 229.666437,
      "duration": 0.3157404250000013,
      "velocity": 0.7244094488188977,
      "name": "D4"
    },
    {
      "midi": 38,
      "frequency": 73.41619197935188,
      "time": 229.666437,
      "duration": 0.3157404250000013,
      "velocity": 0.7716535433070866,
      "name": "D2"
    },
    {
      "midi": 50,
      "frequency": 146.8323839587038,
      "time": 229.666437,
      "duration": 0.3157404250000013,
      "velocity": 0.7716535433070866,
      "name": "D3"
    },
    {
      "midi": 59,
      "frequency": 246.94165062806206,
      "time": 229.99977,
      "duration": 0.21018497500000421,
      "velocity": 0.7244094488188977,
      "name": "B3"
    },
    {
      "midi": 64,
      "frequency": 329.6275569128699,
      "time": 229.99977,
      "duration": 0.21018497500000421,
      "velocity": 0.7244094488188977,
      "name": "E4"
    },
    {
      "midi": 40,
      "frequency": 82.40688922821748,
      "time": 229.99977,
      "duration": 0.21018497500000421,
      "velocity": 0.7716535433070866,
      "name": "E2"
    },
    {
      "midi": 52,
      "frequency": 164.81377845643496,
      "time": 229.99977,
      "duration": 0.21018497500000421,
      "velocity": 0.7716535433070866,
      "name": "E3"
    },
    {
      "midi": 59,
      "frequency": 246.94165062806206,
      "time": 230.44421400000002,
      "duration": 0.21018497500000421,
      "velocity": 0.7244094488188977,
      "name": "B3"
    },
    {
      "midi": 38,
      "frequency": 73.41619197935188,
      "time": 230.44421400000002,
      "duration": 0.21018497500000421,
      "velocity": 0.7716535433070866,
      "name": "D2"
    },
    {
      "midi": 50,
      "frequency": 146.8323839587038,
      "time": 230.44421400000002,
      "duration": 0.21018497500000421,
      "velocity": 0.7716535433070866,
      "name": "D3"
    },
    {
      "midi": 64,
      "frequency": 329.6275569128699,
      "time": 230.666436,
      "duration": 0.10462952499997868,
      "velocity": 1,
      "name": "E4"
    },
    {
      "midi": 71,
      "frequency": 493.8833012561241,
      "time": 230.666436,
      "duration": 0.10462952499997868,
      "velocity": 1,
      "name": "B4"
    },
    {
      "midi": 40,
      "frequency": 82.40688922821748,
      "time": 230.666436,
      "duration": 0.21018497500003264,
      "velocity": 0.7716535433070866,
      "name": "E2"
    },
    {
      "midi": 52,
      "frequency": 164.81377845643496,
      "time": 230.666436,
      "duration": 0.21018497500003264,
      "velocity": 0.7716535433070866,
      "name": "E3"
    },
    {
      "midi": 59,
      "frequency": 246.94165062806206,
      "time": 230.777547,
      "duration": 0.1046295250000071,
      "velocity": 0.7244094488188977,
      "name": "B3"
    },
    {
      "midi": 64,
      "frequency": 329.6275569128699,
      "time": 230.888658,
      "duration": 0.1046295250000071,
      "velocity": 0.7244094488188977,
      "name": "E4"
    },
    {
      "midi": 71,
      "frequency": 493.8833012561241,
      "time": 230.888658,
      "duration": 0.1046295250000071,
      "velocity": 0.7244094488188977,
      "name": "B4"
    },
    {
      "midi": 40,
      "frequency": 82.40688922821748,
      "time": 230.888658,
      "duration": 0.21018497500003264,
      "velocity": 0.7716535433070866,
      "name": "E2"
    },
    {
      "midi": 52,
      "frequency": 164.81377845643496,
      "time": 230.888658,
      "duration": 0.21018497500003264,
      "velocity": 0.7716535433070866,
      "name": "E3"
    },
    {
      "midi": 59,
      "frequency": 246.94165062806206,
      "time": 230.99976900000001,
      "duration": 0.10462952499997868,
      "velocity": 0.7244094488188977,
      "name": "B3"
    }
  ],
  "backgroundFrequencies": [
    130.81,
    196,
    130.81,
    146.83,
    220,
    146.83,
    164.81,
    246.94,
    164.81,
    146.83,
    220,
    65.41,
    130.81,
    130.81,
    196,
    246.94,
    146.83,
    220,
    82.41,
    164.81,
    73.42,
    146.83,
    82.41,
    164.81,
    73.42,
    146.83,
    82.41,
    164.81,
    246.94,
    82.41,
    164.81,
    246.94,
    246.94,
    82.41,
    164.81,
    220,
    73.42,
    146.83,
    246.94,
    82.41,
    164.81,
    246.94,
    73.42,
    146.83,
    82.41,
    164.81,
    246.94,
    82.41,
    164.81,
    246.94,
    246.94,
    82.41,
    164.81,
    220,
    73.42,
    146.83,
    246.94,
    82.41,
    164.81,
    246.94,
    73.42,
    146.83,
    82.41,
    164.81,
    246.94,
    82.41,
    164.81,
    246.94,
    246.94,
    82.41,
    164.81,
    220,
    73.42,
    146.83,
    246.94,
    82.41,
    164.81,
    246.94,
    73.42,
    146.83,
    73.42,
    146.83,
    220,
    73.42,
    146.83,
    220,
    82.41,
    164.81,
    164.81,
    246.94,
    164.81,
    73.42,
    146.83,
    220,
    220,
    146.83,
    65.41,
    130.81,
    130.81,
    196,
    246.94,
    164.81,
    73.42,
    146.83,
    220,
    185,
    146.83,
    196,
    185,
    196,
    220,
    82.41,
    164.81,
    164.81,
    246.94,
    164.81,
    73.42,
    146.83,
    220,
    220,
    146.83,
    65.41,
    130.81,
    196,
    164.81,
    73.42,
    146.83,
    220,
    220,
    146.83,
    82.41,
    164.81,
    164.81,
    246.94,
    164.81,
    73.42,
    146.83,
    220,
    220,
    146.83,
    65.41,
    130.81,
    130.81,
    196,
    130.81,
    73.42,
    146.83,
    220,
    220,
    220,
    82.41,
    164.81,
    164.81,
    246.94,
    164.81,
    73.42,
    146.83,
    220,
    220,
    146.83,
    65.41,
    130.81,
    130.81,
    196,
    130.81,
    196,
    73.42,
    146.83,
    220,
    220,
    146.83,
    185,
    220,
    130.81,
    196,
    130.81,
    146.83,
    220,
    146.83,
    164.81,
    246.94,
    164.81,
    146.83,
    220,
    65.41,
    130.81,
    65.41,
    130.81,
    65.41,
    130.81,
    65.41,
    130.81,
    73.42,
    146.83,
    73.42,
    146.83,
    73.42,
    146.83,
    73.42,
    146.83,
    82.41,
    164.81,
    246.94,
    82.41,
    164.81,
    246.94,
    82.41,
    164.81,
    246.94,
    82.41,
    164.81,
    82.41,
    164.81,
    82.41,
    164.81,
    82.41,
    164.81,
    82.41,
    164.81,
    164.81,
    123.47,
    98,
    123.47,
    82.41,
    164.81,
    65.41,
    82.41,
    98,
    130.81,
    196,
    130.81,
    196,
    164.81,
    130.81,
    196,
    164.81,
    130.81,
    73.42,
    92.5,
    110,
    146.83,
    220,
    146.83,
    220,
    185,
    146.83,
    220,
    185,
    146.83,
    82.41,
    98,
    123.47,
    164.81,
    246.94,
    164.81,
    246.94,
    196,
    164.81,
    246.94,
    196,
    164.81,
    73.42,
    92.5,
    110,
    146.83,
    220,
    146.83,
    220,
    185,
    146.83,
    220,
    185,
    146.83,
    65.41,
    82.41,
    98,
    130.81,
    196,
    130.81,
    196,
    164.81,
    130.81,
    196,
    164.81,
    130.81,
    61.74,
    77.78,
    92.5,
    123.47,
    185,
    246.94,
    123.47,
    246.94,
    185,
    155.56,
    123.47,
    246.94,
    185,
    155.56,
    123.47,
    82.41,
    164.81,
    220,
    73.42,
    146.83,
    246.94,
    82.41,
    164.81,
    246.94,
    73.42,
    146.83,
    82.41,
    164.81,
    246.94,
    82.41,
    164.81,
    246.94,
    82.41,
    164.81,
    220,
    220,
    73.42,
    146.83,
    82.41,
    164.81,
    73.42,
    146.83,
    82.41,
    164.81,
    82.41,
    164.81,
    65.41,
    82.41,
    98,
    130.81,
    196,
    130.81,
    196,
    164.81,
    130.81,
    196,
    164.81,
    130.81,
    73.42,
    92.5,
    110,
    146.83,
    220,
    146.83,
    220,
    185,
    146.83,
    220,
    185,
    146.83,
    61.74,
    77.78,
    92.5,
    123.47,
    185,
    246.94,
    123.47,
    246.94,
    185,
    155.56,
    123.47,
    246.94,
    185,
    155.56,
    123.47,
    82.41,
    98,
    123.47,
    164.81,
    246.94,
    164.81,
    246.94,
    196,
    164.81,
    246.94,
    196,
    164.81,
    65.41,
    82.41,
    98,
    130.81,
    196,
    130.81,
    196,
    164.81,
    130.81,
    196,
    164.81,
    130.81,
    146.83,
    220,
    220,
    220,
    246.94,
    82.41,
    164.81,
    73.42,
    146.83,
    82.41,
    164.81,
    73.42,
    146.83,
    82.41,
    164.81,
    246.94,
    82.41,
    164.81,
    246.94,
    246.94,
    82.41,
    164.81,
    220,
    73.42,
    146.83,
    246.94,
    82.41,
    164.81,
    246.94,
    73.42,
    146.83,
    82.41,
    164.81,
    246.94,
    82.41,
    164.81,
    246.94,
    246.94,
    82.41,
    164.81,
    220,
    73.42,
    146.83,
    246.94,
    82.41,
    164.81,
    246.94,
    73.42,
    146.83,
    82.41,
    164.81,
    246.94,
    82.41,
    164.81,
    246.94,
    246.94,
    82.41,
    164.81,
    220,
    73.42,
    146.83,
    246.94,
    82.41,
    164.81,
    246.94,
    73.42,
    146.83,
    73.42,
    146.83,
    220,
    73.42,
    146.83,
    220,
    82.41,
    164.81,
    164.81,
    246.94,
    164.81,
    246.94,
    73.42,
    146.83,
    220,
    220,
    146.83,
    220,
    65.41,
    130.81,
    130.81,
    196,
    246.94,
    130.81,
    196,
    246.94,
    73.42,
    146.83,
    220,
    185,
    146.83,
    196,
    185,
    196,
    220,
    82.41,
    164.81,
    164.81,
    246.94,
    164.81,
    246.94,
    73.42,
    146.83,
    220,
    220,
    146.83,
    220,
    65.41,
    130.81,
    130.81,
    196,
    246.94,
    130.81,
    196,
    246.94,
    73.42,
    146.83,
    220,
    220,
    73.42,
    110,
    146.83,
    82.41,
    164.81,
    164.81,
    246.94,
    164.81,
    246.94,
    246.94,
    164.81,
    82.41,
    164.81,
    164.81,
    246.94,
    164.81,
    246.94,
    246.94,
    164.81,
    82.41,
    164.81,
    164.81,
    246.94,
    164.81,
    246.94,
    246.94,
    164.81,
    65.41,
    130.81,
    130.81,
    196,
    130.81,
    196,
    220,
    146.83,
    82.41,
    164.81,
    164.81,
    246.94,
    164.81,
    246.94,
    246.94,
    164.81,
    82.41,
    164.81,
    164.81,
    246.94,
    164.81,
    246.94,
    220,
    146.83,
    82.41,
    164.81,
    82.41,
    123.47,
    164.81,
    82.41,
    123.47,
    164.81,
    82.41,
    123.47,
    164.81,
    82.41,
    82.41,
    164.81,
    82.41,
    164.81,
    65.41,
    82.41,
    98,
    130.81,
    196,
    130.81,
    196,
    164.81,
    130.81,
    196,
    164.81,
    130.81,
    73.42,
    92.5,
    110,
    146.83,
    220,
    146.83,
    220,
    185,
    146.83,
    220,
    185,
    146.83,
    82.41,
    98,
    123.47,
    164.81,
    246.94,
    164.81,
    246.94,
    196,
    164.81,
    246.94,
    196,
    164.81,
    73.42,
    92.5,
    110,
    146.83,
    220,
    146.83,
    220,
    185,
    146.83,
    220,
    185,
    146.83,
    65.41,
    82.41,
    98,
    130.81,
    196,
    130.81,
    196,
    164.81,
    130.81,
    196,
    164.81,
    130.81,
    61.74,
    77.78,
    92.5,
    123.47,
    185,
    246.94,
    123.47,
    246.94,
    185,
    155.56,
    123.47,
    246.94,
    185,
    155.56,
    123.47,
    82.41,
    164.81,
    220,
    73.42,
    146.83,
    246.94,
    82.41,
    164.81,
    246.94,
    73.42,
    146.83,
    82.41,
    164.81,
    246.94,
    82.41,
    164.81,
    246.94,
    82.41,
    164.81,
    220,
    220,
    73.42,
    146.83,
    82.41,
    164.81,
    73.42,
    146.83,
    82.41,
    164.81,
    82.41,
    164.81,
    65.41,
    82.41,
    98,
    130.81,
    196,
    130.81,
    196,
    164.81,
    130.81,
    196,
    164.81,
    130.81,
    73.42,
    92.5,
    110,
    146.83,
    220,
    146.83,
    220,
    185,
    146.83,
    220,
    185,
    146.83,
    61.74,
    77.78,
    92.5,
    123.47,
    185,
    246.94,
    123.47,
    246.94,
    185,
    155.56,
    123.47,
    246.94,
    185,
    155.56,
    123.47,
    82.41,
    98,
    123.47,
    164.81,
    246.94,
    164.81,
    246.94,
    196,
    164.81,
    246.94,
    196,
    164.81,
    65.41,
    82.41,
    98,
    130.81,
    196,
    130.81,
    196,
    164.81,
    130.81,
    196,
    164.81,
    130.81,
    146.83,
    220,
    65.41,
    130.81,
    246.94,
    73.42,
    146.83,
    220,
    82.41,
    164.81,
    246.94,
    73.42,
    146.83,
    220,
    65.41,
    130.81,
    246.94,
    73.42,
    146.83,
    220,
    82.41,
    164.81,
    246.94,
    73.42,
    146.83,
    220,
    65.41,
    130.81,
    246.94,
    73.42,
    146.83,
    220,
    82.41,
    164.81,
    246.94,
    73.42,
    146.83,
    220,
    65.41,
    130.81,
    246.94,
    73.42,
    146.83,
    220,
    82.41,
    164.81,
    246.94,
    73.42,
    146.83,
    220,
    65.41,
    130.81,
    246.94,
    130.81,
    196,
    73.42,
    146.83,
    220,
    146.83,
    220,
    82.41,
    164.81,
    246.94,
    164.81,
    246.94,
    73.42,
    146.83,
    220,
    65.41,
    130.81,
    65.41,
    130.81,
    65.41,
    130.81,
    65.41,
    130.81,
    73.42,
    146.83,
    73.42,
    146.83,
    73.42,
    146.83,
    73.42,
    146.83,
    82.41,
    164.81,
    82.41,
    164.81,
    82.41,
    164.81,
    82.41,
    164.81,
    82.41,
    164.81,
    82.41,
    164.81,
    82.41,
    164.81,
    82.41,
    164.81,
    82.41,
    164.81,
    82.41,
    164.81,
    82.41,
    164.81,
    82.41,
    164.81,
    82.41,
    164.81,
    82.41,
    164.81,
    65.41,
    130.81,
    65.41,
    130.81,
    65.41,
    130.81,
    130.81,
    196,
    73.42,
    146.83,
    146.83,
    220,
    73.42,
    110,
    146.83,
    73.42,
    82.41,
    164.81,
    164.81,
    246.94,
    82.41,
    123.47,
    164.81,
    82.41,
    73.42,
    146.83,
    146.83,
    220,
    73.42,
    110,
    146.83,
    73.42,
    65.41,
    130.81,
    130.81,
    196,
    65.41,
    98,
    130.81,
    65.41,
    61.74,
    123.47,
    123.47,
    185,
    246.94,
    61.74,
    92.5,
    123.47,
    61.74,
    82.41,
    164.81,
    220,
    73.42,
    146.83,
    246.94,
    82.41,
    164.81,
    246.94,
    73.42,
    146.83,
    82.41,
    164.81,
    246.94,
    82.41,
    164.81,
    246.94,
    82.41,
    164.81,
    220,
    220,
    73.42,
    146.83,
    82.41,
    164.81,
    73.42,
    146.83,
    82.41,
    164.81,
    82.41,
    164.81,
    65.41,
    82.41,
    98,
    130.81,
    196,
    130.81,
    196,
    164.81,
    130.81,
    196,
    164.81,
    130.81,
    73.42,
    92.5,
    110,
    146.83,
    220,
    146.83,
    220,
    185,
    146.83,
    220,
    185,
    146.83,
    61.74,
    77.78,
    92.5,
    123.47,
    185,
    246.94,
    123.47,
    246.94,
    185,
    155.56,
    123.47,
    246.94,
    185,
    155.56,
    123.47,
    82.41,
    98,
    123.47,
    164.81,
    246.94,
    164.81,
    246.94,
    196,
    164.81,
    246.94,
    196,
    164.81,
    65.41,
    82.41,
    98,
    130.81,
    196,
    130.81,
    65.41,
    130.81,
    65.41,
    130.81,
    65.41,
    130.81,
    65.41,
    130.81,
    73.42,
    92.5,
    110,
    146.83,
    220,
    146.83,
    220,
    185,
    146.83,
    220,
    185,
    146.83,
    65.41,
    82.41,
    98,
    130.81,
    196,
    130.81,
    196,
    164.81,
    130.81,
    196,
    164.81,
    130.81,
    73.42,
    92.5,
    110,
    146.83,
    220,
    146.83,
    220,
    185,
    146.83,
    220,
    185,
    146.83,
    82.41,
    98,
    123.47,
    164.81,
    246.94,
    164.81,
    246.94,
    196,
    164.81,
    246.94,
    196,
    164.81,
    73.42,
    92.5,
    110,
    146.83,
    220,
    146.83,
    220,
    185,
    146.83,
    220,
    185,
    146.83,
    65.41,
    82.41,
    98,
    130.81,
    196,
    130.81,
    65.41,
    130.81,
    196,
    164.81,
    130.81,
    73.42,
    146.83,
    246.94,
    82.41,
    164.81,
    220,
    73.42,
    146.83,
    246.94,
    82.41,
    164.81,
    246.94,
    73.42,
    146.83,
    82.41,
    164.81,
    246.94,
    82.41,
    164.81,
    246.94,
    246.94,
    82.41,
    164.81,
    220,
    73.42,
    146.83,
    246.94,
    82.41,
    164.81,
    246.94,
    73.42,
    146.83,
    82.41,
    164.81,
    246.94,
    82.41,
    164.81,
    246.94,
    246.94,
    82.41,
    164.81,
    220,
    73.42,
    146.83,
    246.94,
    82.41,
    164.81,
    246.94,
    73.42,
    146.83,
    82.41,
    164.81,
    246.94,
    82.41,
    164.81,
    246.94,
    246.94,
    82.41,
    164.81,
    220,
    73.42,
    146.83,
    246.94,
    82.41,
    164.81,
    246.94,
    73.42,
    146.83,
    82.41,
    164.81,
    246.94,
    82.41,
    164.81,
    246.94
  ],
  "melodyFrequencies": [
    783.99,
    523.25,
    659.26,
    261.63,
    739.99,
    783.99,
    261.63,
    329.63,
    783.99,
    440,
    587.33,
    293.66,
    739.99,
    783.99,
    293.66,
    369.99,
    493.88,
    783.99,
    392,
    493.88,
    739.99,
    493.88,
    659.26,
    329.63,
    392,
    440,
    587.33,
    293.66,
    293.66,
    369.99,
    493.88,
    392,
    369.99,
    587.33,
    293.66,
    329.63,
    523.25,
    659.26,
    523.25,
    659.26,
    783.99,
    587.33,
    739.99,
    880,
    293.66,
    493.88,
    659.26,
    783.99,
    880,
    493.88,
    659.26,
    987.77,
    329.63,
    493.88,
    329.63,
    493.88,
    329.63,
    293.66,
    329.63,
    329.63,
    493.88,
    329.63,
    493.88,
    329.63,
    293.66,
    329.63,
    329.63,
    493.88,
    329.63,
    493.88,
    329.63,
    293.66,
    329.63,
    293.66,
    440,
    293.66,
    440,
    659.26,
    392,
    493.88,
    783.99,
    739.99,
    329.63,
    587.33,
    659.26,
    369.99,
    440,
    587.33,
    293.66,
    392,
    329.63,
    440,
    329.63,
    440,
    392,
    329.63,
    440,
    440,
    523.25,
    392,
    493.88,
    329.63,
    293.66,
    293.66,
    392,
    440,
    369.99,
    493.88,
    440,
    369.99,
    493.88,
    440,
    587.33,
    659.26,
    392,
    493.88,
    783.99,
    739.99,
    329.63,
    587.33,
    659.26,
    369.99,
    440,
    587.33,
    587.33,
    293.66,
    392,
    783.99,
    987.77,
    739.99,
    880,
    783.99,
    987.77,
    739.99,
    880,
    783.99,
    987.77,
    880,
    1046.5,
    783.99,
    987.77,
    523.25,
    783.99,
    261.63,
    329.63,
    783.99,
    440,
    587.33,
    739.99,
    440,
    587.33,
    739.99,
    440,
    587.33,
    783.99,
    293.66,
    392,
    587.33,
    880,
    783.99,
    493.88,
    659.26,
    880,
    659.26,
    783.99,
    493.88,
    659.26,
    329.63,
    783.99,
    987.77,
    739.99,
    880,
    369.99,
    440,
    369.99,
    440,
    369.99,
    440,
    293.66,
    392,
    392,
    369.99,
    440,
    493.88,
    392,
    783.99,
    493.88,
    659.26,
    880,
    659.26,
    783.99,
    493.88,
    659.26,
    261.63,
    783.99,
    659.26,
    1174.66,
    440,
    440,
    440,
    293.66,
    392,
    392,
    440,
    369.99,
    392,
    293.66,
    392,
    783.99,
    493.88,
    659.26,
    880,
    659.26,
    783.99,
    493.88,
    659.26,
    329.63,
    783.99,
    987.77,
    739.99,
    880,
    739.99,
    880,
    587.33,
    739.99,
    987.77,
    293.66,
    392,
    587.33,
    739.99,
    987.77,
    1174.66,
    987.77,
    523.25,
    659.26,
    880,
    523.25,
    659.26,
    783.99,
    261.63,
    783.99,
    261.63,
    440,
    587.33,
    739.99,
    440,
    587.33,
    739.99,
    440,
    587.33,
    783.99,
    293.66,
    392,
    440,
    587.33,
    880,
    293.66,
    369.99,
    440,
    587.33,
    739.99,
    783.99,
    523.25,
    659.26,
    261.63,
    739.99,
    783.99,
    261.63,
    329.63,
    783.99,
    440,
    587.33,
    293.66,
    739.99,
    783.99,
    293.66,
    369.99,
    493.88,
    783.99,
    392,
    493.88,
    739.99,
    493.88,
    659.26,
    329.63,
    392,
    440,
    587.33,
    293.66,
    293.66,
    369.99,
    493.88,
    392,
    369.99,
    587.33,
    293.66,
    329.63,
    523.25,
    659.26,
    523.25,
    659.26,
    783.99,
    587.33,
    739.99,
    880,
    493.88,
    659.26,
    783.99,
    880,
    493.88,
    659.26,
    987.77,
    329.63,
    329.63,
    329.63,
    329.63,
    659.26,
    369.99,
    739.99,
    392,
    783.99,
    440,
    880,
    293.66,
    392,
    587.33,
    293.66,
    392,
    587.33,
    493.88,
    659.26,
    987.77,
    440,
    523.25,
    659.26,
    880,
    493.88,
    987.77,
    587.33,
    1174.66,
    261.63,
    493.88,
    987.77,
    440,
    880,
    261.63,
    493.88,
    987.77,
    493.88,
    987.77,
    261.63,
    392,
    783.99,
    440,
    587.33,
    739.99,
    880,
    493.88,
    987.77,
    587.33,
    1174.66,
    293.66,
    493.88,
    987.77,
    440,
    880,
    293.66,
    493.88,
    987.77,
    493.88,
    987.77,
    293.66,
    293.66,
    587.33,
    329.63,
    392,
    493.88,
    659.26,
    392,
    783.99,
    392,
    783.99,
    329.63,
    293.66,
    587.33,
    293.66,
    587.33,
    329.63,
    392,
    783.99,
    440,
    880,
    329.63,
    392,
    783.99,
    587.33,
    739.99,
    880,
    1174.66,
    523.25,
    739.99,
    880,
    1046.5,
    293.66,
    493.88,
    739.99,
    987.77,
    293.66,
    440,
    880,
    293.66,
    392,
    783.99,
    392,
    523.25,
    659.26,
    783.99,
    261.63,
    392,
    783.99,
    261.63,
    440,
    880,
    493.88,
    987.77,
    261.63,
    440,
    622.25,
    739.99,
    880,
    369.99,
    739.99,
    440,
    880,
    493.88,
    987.77,
    587.33,
    1174.66,
    493.88,
    659.26,
    783.99,
    987.77,
    293.66,
    329.63,
    329.63,
    493.88,
    329.63,
    493.88,
    293.66,
    440,
    293.66,
    440,
    293.66,
    392,
    587.33,
    293.66,
    392,
    587.33,
    493.88,
    659.26,
    987.77,
    440,
    523.25,
    659.26,
    880,
    493.88,
    987.77,
    587.33,
    1174.66,
    261.63,
    493.88,
    987.77,
    440,
    880,
    261.63,
    493.88,
    987.77,
    493.88,
    987.77,
    261.63,
    392,
    783.99,
    440,
    587.33,
    739.99,
    880,
    493.88,
    987.77,
    587.33,
    1174.66,
    293.66,
    493.88,
    987.77,
    440,
    880,
    293.66,
    493.88,
    987.77,
    392,
    783.99,
    293.66,
    392,
    783.99,
    392,
    493.88,
    622.25,
    783.99,
    440,
    880,
    493.88,
    739.99,
    987.77,
    493.88,
    987.77,
    783.99,
    1567.98,
    739.99,
    987.77,
    1479.98,
    587.33,
    987.77,
    1174.66,
    329.63,
    493.88,
    659.26,
    987.77,
    329.63,
    440,
    659.26,
    880,
    329.63,
    392,
    783.99,
    392,
    523.25,
    659.26,
    783.99,
    261.63,
    392,
    783.99,
    261.63,
    440,
    880,
    493.88,
    987.77,
    261.63,
    440,
    880,
    293.66,
    293.66,
    293.66,
    329.63,
    329.63,
    493.88,
    329.63,
    493.88,
    329.63,
    293.66,
    329.63,
    329.63,
    493.88,
    329.63,
    493.88,
    329.63,
    293.66,
    329.63,
    329.63,
    493.88,
    329.63,
    493.88,
    329.63,
    293.66,
    329.63,
    293.66,
    440,
    293.66,
    440,
    659.26,
    392,
    493.88,
    783.99,
    739.99,
    329.63,
    587.33,
    659.26,
    369.99,
    440,
    587.33,
    329.63,
    293.66,
    392,
    329.63,
    440,
    329.63,
    440,
    392,
    329.63,
    440,
    440,
    523.25,
    293.66,
    392,
    493.88,
    329.63,
    293.66,
    293.66,
    392,
    440,
    369.99,
    493.88,
    440,
    369.99,
    493.88,
    440,
    587.33,
    659.26,
    392,
    493.88,
    783.99,
    739.99,
    329.63,
    587.33,
    659.26,
    369.99,
    440,
    587.33,
    329.63,
    587.33,
    293.66,
    392,
    783.99,
    987.77,
    739.99,
    880,
    783.99,
    987.77,
    739.99,
    880,
    783.99,
    987.77,
    880,
    1046.5,
    293.66,
    783.99,
    987.77,
    523.25,
    783.99,
    783.99,
    440,
    587.33,
    739.99,
    440,
    587.33,
    739.99,
    440,
    587.33,
    783.99,
    293.66,
    392,
    587.33,
    880,
    493.88,
    659.26,
    987.77,
    659.26,
    880,
    783.99,
    329.63,
    659.26,
    880,
    659.26,
    880,
    329.63,
    880,
    659.26,
    880,
    659.26,
    880,
    880,
    659.26,
    880,
    329.63,
    783.99,
    659.26,
    659.26,
    880,
    783.99,
    329.63,
    659.26,
    880,
    659.26,
    880,
    329.63,
    880,
    659.26,
    880,
    659.26,
    880,
    987.77,
    880,
    329.63,
    783.99,
    1174.66,
    1174.66,
    329.63,
    659.26,
    1174.66,
    1046.5,
    329.63,
    987.77,
    659.26,
    1046.5,
    987.77,
    880,
    659.26,
    987.77,
    329.63,
    880,
    783.99,
    392,
    493.88,
    659.26,
    261.63,
    493.88,
    659.26,
    783.99,
    261.63,
    493.88,
    659.26,
    880,
    493.88,
    659.26,
    987.77,
    293.66,
    659.26,
    880,
    783.99,
    329.63,
    659.26,
    880,
    659.26,
    880,
    329.63,
    783.99,
    739.99,
    659.26,
    329.63,
    587.33,
    659.26,
    880,
    783.99,
    329.63,
    659.26,
    880,
    659.26,
    880,
    329.63,
    880,
    659.26,
    880,
    1046.5,
    493.88,
    659.26,
    987.77,
    293.66,
    587.33,
    493.88,
    659.26,
    987.77,
    523.25,
    1046.5,
    493.88,
    659.26,
    987.77,
    523.25,
    1046.5,
    493.88,
    659.26,
    987.77,
    293.66,
    392,
    587.33,
    293.66,
    392,
    587.33,
    493.88,
    659.26,
    987.77,
    440,
    523.25,
    659.26,
    880,
    493.88,
    987.77,
    587.33,
    1174.66,
    261.63,
    493.88,
    987.77,
    440,
    880,
    261.63,
    493.88,
    987.77,
    493.88,
    987.77,
    261.63,
    392,
    783.99,
    440,
    587.33,
    739.99,
    880,
    493.88,
    987.77,
    587.33,
    1174.66,
    293.66,
    493.88,
    987.77,
    440,
    880,
    293.66,
    493.88,
    987.77,
    493.88,
    987.77,
    293.66,
    293.66,
    587.33,
    329.63,
    392,
    493.88,
    659.26,
    392,
    783.99,
    392,
    783.99,
    329.63,
    293.66,
    587.33,
    293.66,
    587.33,
    329.63,
    392,
    783.99,
    440,
    880,
    329.63,
    392,
    783.99,
    587.33,
    739.99,
    880,
    1174.66,
    523.25,
    739.99,
    880,
    1046.5,
    293.66,
    493.88,
    739.99,
    987.77,
    293.66,
    440,
    880,
    293.66,
    392,
    783.99,
    392,
    523.25,
    659.26,
    783.99,
    261.63,
    392,
    783.99,
    261.63,
    440,
    880,
    493.88,
    987.77,
    261.63,
    440,
    622.25,
    739.99,
    880,
    369.99,
    739.99,
    440,
    880,
    493.88,
    987.77,
    587.33,
    1174.66,
    493.88,
    659.26,
    783.99,
    987.77,
    293.66,
    329.63,
    329.63,
    493.88,
    329.63,
    493.88,
    293.66,
    440,
    293.66,
    440,
    293.66,
    392,
    587.33,
    293.66,
    392,
    587.33,
    493.88,
    659.26,
    987.77,
    440,
    523.25,
    659.26,
    880,
    493.88,
    987.77,
    587.33,
    1174.66,
    261.63,
    493.88,
    987.77,
    440,
    880,
    261.63,
    493.88,
    987.77,
    493.88,
    987.77,
    261.63,
    392,
    783.99,
    440,
    587.33,
    739.99,
    880,
    493.88,
    987.77,
    587.33,
    1174.66,
    293.66,
    493.88,
    987.77,
    440,
    880,
    293.66,
    493.88,
    987.77,
    392,
    783.99,
    293.66,
    392,
    783.99,
    392,
    493.88,
    622.25,
    783.99,
    440,
    880,
    493.88,
    739.99,
    987.77,
    493.88,
    987.77,
    783.99,
    1567.98,
    739.99,
    987.77,
    1479.98,
    587.33,
    987.77,
    1174.66,
    329.63,
    493.88,
    659.26,
    987.77,
    329.63,
    440,
    659.26,
    880,
    329.63,
    392,
    783.99,
    392,
    523.25,
    659.26,
    783.99,
    261.63,
    392,
    783.99,
    261.63,
    440,
    880,
    493.88,
    987.77,
    261.63,
    440,
    880,
    293.66,
    440,
    587.33,
    880,
    440,
    587.33,
    880,
    493.88,
    659.26,
    987.77,
    329.63,
    392,
    293.66,
    392,
    293.66,
    392,
    293.66,
    369.99,
    392,
    369.99,
    293.66,
    329.63,
    392,
    293.66,
    392,
    293.66,
    392,
    293.66,
    369.99,
    392,
    369.99,
    293.66,
    493.88,
    659.26,
    783.99,
    329.63,
    392,
    493.88,
    659.26,
    783.99,
    440,
    587.33,
    739.99,
    440,
    587.33,
    739.99,
    392,
    587.33,
    293.66,
    392,
    392,
    587.33,
    493.88,
    440,
    493.88,
    659.26,
    783.99,
    329.63,
    392,
    493.88,
    659.26,
    783.99,
    587.33,
    739.99,
    880,
    587.33,
    739.99,
    880,
    987.77,
    293.66,
    369.99,
    587.33,
    739.99,
    987.77,
    392,
    587.33,
    739.99,
    369.99,
    783.99,
    293.66,
    493.88,
    659.26,
    783.99,
    329.63,
    392,
    493.88,
    659.26,
    783.99,
    440,
    587.33,
    739.99,
    440,
    587.33,
    739.99,
    392,
    587.33,
    293.66,
    392,
    392,
    587.33,
    493.88,
    440,
    493.88,
    659.26,
    783.99,
    329.63,
    392,
    493.88,
    659.26,
    783.99,
    587.33,
    739.99,
    880,
    587.33,
    739.99,
    880,
    1174.66,
    293.66,
    369.99,
    587.33,
    783.99,
    1046.5,
    392,
    987.77,
    369.99,
    783.99,
    293.66,
    493.88,
    659.26,
    783.99,
    329.63,
    392,
    493.88,
    659.26,
    783.99,
    440,
    587.33,
    739.99,
    261.63,
    440,
    587.33,
    739.99,
    392,
    587.33,
    293.66,
    392,
    392,
    587.33,
    493.88,
    440,
    293.66,
    493.88,
    659.26,
    783.99,
    329.63,
    392,
    493.88,
    659.26,
    783.99,
    587.33,
    739.99,
    880,
    329.63,
    587.33,
    739.99,
    880,
    987.77,
    293.66,
    369.99,
    587.33,
    739.99,
    987.77,
    392,
    587.33,
    739.99,
    369.99,
    783.99,
    293.66,
    523.25,
    659.26,
    783.99,
    880,
    987.77,
    523.25,
    659.26,
    987.77,
    587.33,
    440,
    587.33,
    440,
    587.33,
    587.33,
    1174.66,
    587.33,
    880,
    1174.66,
    880,
    440,
    659.26,
    880,
    440,
    880,
    493.88,
    987.77,
    493.88,
    659.26,
    987.77,
    369.99,
    739.99,
    392,
    783.99,
    440,
    880,
    293.66,
    392,
    587.33,
    293.66,
    392,
    587.33,
    493.88,
    659.26,
    987.77,
    440,
    523.25,
    659.26,
    880,
    493.88,
    987.77,
    587.33,
    1174.66,
    493.88,
    987.77,
    440,
    880,
    493.88,
    987.77,
    493.88,
    987.77,
    392,
    783.99,
    261.63,
    440,
    587.33,
    739.99,
    880,
    493.88,
    987.77,
    587.33,
    1174.66,
    493.88,
    987.77,
    293.66,
    440,
    880,
    493.88,
    987.77,
    493.88,
    987.77,
    293.66,
    587.33,
    329.63,
    392,
    493.88,
    659.26,
    392,
    783.99,
    392,
    783.99,
    293.66,
    587.33,
    329.63,
    293.66,
    587.33,
    392,
    783.99,
    440,
    880,
    392,
    783.99,
    587.33,
    739.99,
    880,
    1174.66,
    523.25,
    739.99,
    880,
    1046.5,
    293.66,
    493.88,
    739.99,
    987.77,
    440,
    880,
    392,
    783.99,
    392,
    523.25,
    659.26,
    783.99,
    392,
    783.99,
    261.63,
    440,
    880,
    493.88,
    987.77,
    440,
    622.25,
    739.99,
    880,
    369.99,
    739.99,
    440,
    880,
    493.88,
    987.77,
    587.33,
    1174.66,
    587.33,
    783.99,
    987.77,
    1174.66,
    293.66,
    329.63,
    329.63,
    493.88,
    329.63,
    493.88,
    293.66,
    440,
    293.66,
    440,
    293.66,
    392,
    587.33,
    293.66,
    392,
    587.33,
    493.88,
    659.26,
    987.77,
    440,
    523.25,
    659.26,
    880,
    493.88,
    987.77,
    587.33,
    1174.66,
    261.63,
    493.88,
    987.77,
    440,
    880,
    261.63,
    493.88,
    987.77,
    493.88,
    987.77,
    261.63,
    392,
    783.99,
    440,
    587.33,
    739.99,
    880,
    493.88,
    987.77,
    587.33,
    1174.66,
    293.66,
    493.88,
    987.77,
    440,
    880,
    293.66,
    493.88,
    987.77,
    392,
    783.99,
    293.66,
    392,
    783.99,
    392,
    493.88,
    622.25,
    783.99,
    440,
    880,
    493.88,
    739.99,
    987.77,
    493.88,
    987.77,
    783.99,
    1567.98,
    739.99,
    987.77,
    1479.98,
    587.33,
    987.77,
    1174.66,
    329.63,
    493.88,
    659.26,
    987.77,
    329.63,
    440,
    659.26,
    880,
    329.63,
    392,
    783.99,
    392,
    523.25,
    659.26,
    783.99,
    261.63,
    392,
    783.99,
    440,
    880,
    493.88,
    987.77,
    440,
    880,
    293.66,
    440,
    587.33,
    880,
    440,
    587.33,
    880,
    293.66,
    493.88,
    659.26,
    987.77,
    293.66,
    261.63,
    261.63,
    392,
    523.25,
    261.63,
    261.63,
    392,
    523.25,
    261.63,
    392,
    329.63,
    261.63,
    293.66,
    293.66,
    293.66,
    440,
    587.33,
    293.66,
    293.66,
    440,
    587.33,
    293.66,
    440,
    369.99,
    293.66,
    329.63,
    329.63,
    329.63,
    493.88,
    659.26,
    329.63,
    329.63,
    493.88,
    659.26,
    329.63,
    493.88,
    392,
    329.63,
    293.66,
    293.66,
    293.66,
    440,
    587.33,
    293.66,
    293.66,
    440,
    587.33,
    293.66,
    440,
    369.99,
    293.66,
    261.63,
    261.63,
    261.63,
    392,
    523.25,
    783.99,
    440,
    880,
    493.88,
    987.77,
    261.63,
    440,
    587.33,
    739.99,
    880,
    440,
    587.33,
    440,
    587.33,
    493.88,
    659.26,
    329.63,
    293.66,
    329.63,
    329.63,
    493.88,
    329.63,
    493.88,
    329.63,
    293.66,
    329.63,
    329.63,
    493.88,
    329.63,
    493.88,
    329.63,
    293.66,
    329.63,
    329.63,
    493.88,
    329.63,
    493.88,
    329.63,
    293.66,
    329.63,
    329.63,
    493.88,
    329.63,
    493.88
  ]
}