{
  "metadata": {
    "name": "",
    "duration": 166.98324891666667,
    "tempo": 64.99978333405555,
    "timeSignature": [
      4,
      4
    ],
    "totalNotes": 840,
    "backgroundNotes": 211,
    "melodyNotes": 629,
    "c4Threshold": 261.6255653005986
  },
  "allNotes": [
    {
      "midi": 81,
      "frequency": 880,
      "time": 0,
      "duration": 0.43653991666666664,
      "velocity": 0.5039370078740157,
      "name": "A5"
    },
    {
      "midi": 54,
      "frequency": 184.99721135581723,
      "time": 0,
      "duration": 0.43653991666666664,
      "velocity": 0.5039370078740157,
      "name": "F#3"
    },
    {
      "midi": 80,
      "frequency": 830.6093951598903,
      "time": 0.46154,
      "duration": 0.43653991666666664,
      "velocity": 0.5039370078740157,
      "name": "G#5"
    },
    {
      "midi": 61,
      "frequency": 277.1826309768721,
      "time": 0.46154,
      "duration": 0.43653991666666664,
      "velocity": 0.5039370078740157,
      "name": "C#4"
    },
    {
      "midi": 81,
      "frequency": 880,
      "time": 0.92308,
      "duration": 0.4365399166666667,
      "velocity": 0.5039370078740157,
      "name": "A5"
    },
    {
      "midi": 66,
      "frequency": 369.99442271163446,
      "time": 0.92308,
      "duration": 0.8750029166666667,
      "velocity": 0.5039370078740157,
      "name": "F#4"
    },
    {
      "midi": 80,
      "frequency": 830.6093951598903,
      "time": 1.38462,
      "duration": 0.4365399166666668,
      "velocity": 0.5039370078740157,
      "name": "G#5"
    },
    {
      "midi": 81,
      "frequency": 880,
      "time": 1.84616,
      "duration": 0.436539916666667,
      "velocity": 0.5039370078740157,
      "name": "A5"
    },
    {
      "midi": 50,
      "frequency": 146.8323839587038,
      "time": 1.84616,
      "duration": 0.436539916666667,
      "velocity": 0.5039370078740157,
      "name": "D3"
    },
    {
      "midi": 76,
      "frequency": 659.2551138257398,
      "time": 2.3077,
      "duration": 0.4365399166666668,
      "velocity": 0.5039370078740157,
      "name": "E5"
    },
    {
      "midi": 57,
      "frequency": 220,
      "time": 2.3077,
      "duration": 0.4365399166666668,
      "velocity": 0.5039370078740157,
      "name": "A3"
    },
    {
      "midi": 81,
      "frequency": 880,
      "time": 2.76924,
      "duration": 0.4365399166666668,
      "velocity": 0.5039370078740157,
      "name": "A5"
    },
    {
      "midi": 64,
      "frequency": 329.6275569128699,
      "time": 2.76924,
      "duration": 4.382706916666667,
      "velocity": 0.5039370078740157,
      "name": "E4"
    },
    {
      "midi": 74,
      "frequency": 587.3295358348151,
      "time": 3.23078,
      "duration": 3.5057809166666667,
      "velocity": 0.5039370078740157,
      "name": "D5"
    },
    {
      "midi": 69,
      "frequency": 440,
      "time": 6.9231,
      "duration": 0.21730841666666656,
      "velocity": 0.5039370078740157,
      "name": "A4"
    },
    {
      "midi": 73,
      "frequency": 554.3652619537442,
      "time": 7.15387,
      "duration": 0.21730841666666656,
      "velocity": 0.5039370078740157,
      "name": "C#5"
    },
    {
      "midi": 81,
      "frequency": 880,
      "time": 7.38464,
      "duration": 0.4365399166666668,
      "velocity": 0.5039370078740157,
      "name": "A5"
    },
    {
      "midi": 54,
      "frequency": 184.99721135581723,
      "time": 7.38464,
      "duration": 0.4365399166666668,
      "velocity": 0.5039370078740157,
      "name": "F#3"
    },
    {
      "midi": 80,
      "frequency": 830.6093951598903,
      "time": 7.84618,
      "duration": 0.4365399166666659,
      "velocity": 0.5039370078740157,
      "name": "G#5"
    },
    {
      "midi": 61,
      "frequency": 277.1826309768721,
      "time": 7.84618,
      "duration": 0.4365399166666659,
      "velocity": 0.5039370078740157,
      "name": "C#4"
    },
    {
      "midi": 81,
      "frequency": 880,
      "time": 8.30772,
      "duration": 0.4365399166666659,
      "velocity": 0.5039370078740157,
      "name": "A5"
    },
    {
      "midi": 66,
      "frequency": 369.99442271163446,
      "time": 8.30772,
      "duration": 0.8750029166666664,
      "velocity": 0.5039370078740157,
      "name": "F#4"
    },
    {
      "midi": 80,
      "frequency": 830.6093951598903,
      "time": 8.769260000000001,
      "duration": 0.4365399166666659,
      "velocity": 0.5039370078740157,
      "name": "G#5"
    },
    {
      "midi": 81,
      "frequency": 880,
      "time": 9.2308,
      "duration": 0.4365399166666659,
      "velocity": 0.5039370078740157,
      "name": "A5"
    },
    {
      "midi": 50,
      "frequency": 146.8323839587038,
      "time": 9.2308,
      "duration": 0.4365399166666659,
      "velocity": 0.5039370078740157,
      "name": "D3"
    },
    {
      "midi": 76,
      "frequency": 659.2551138257398,
      "time": 9.69234,
      "duration": 0.4365399166666677,
      "velocity": 0.5039370078740157,
      "name": "E5"
    },
    {
      "midi": 57,
      "frequency": 220,
      "time": 9.69234,
      "duration": 0.4365399166666677,
      "velocity": 0.5039370078740157,
      "name": "A3"
    },
    {
      "midi": 81,
      "frequency": 880,
      "time": 10.153880000000001,
      "duration": 0.4365399166666659,
      "velocity": 0.5039370078740157,
      "name": "A5"
    },
    {
      "midi": 64,
      "frequency": 329.6275569128699,
      "time": 10.153880000000001,
      "duration": 4.382706916666667,
      "velocity": 0.5039370078740157,
      "name": "E4"
    },
    {
      "midi": 74,
      "frequency": 587.3295358348151,
      "time": 10.61542,
      "duration": 3.5057809166666676,
      "velocity": 0.5039370078740157,
      "name": "D5"
    },
    {
      "midi": 69,
      "frequency": 440,
      "time": 14.30774,
      "duration": 0.21730841666666656,
      "velocity": 0.5039370078740157,
      "name": "A4"
    },
    {
      "midi": 73,
      "frequency": 554.3652619537442,
      "time": 14.53851,
      "duration": 0.21730841666666656,
      "velocity": 0.5039370078740157,
      "name": "C#5"
    },
    {
      "midi": 81,
      "frequency": 880,
      "time": 14.76928,
      "duration": 0.4365399166666659,
      "velocity": 0.5039370078740157,
      "name": "A5"
    },
    {
      "midi": 54,
      "frequency": 184.99721135581723,
      "time": 14.76928,
      "duration": 0.4365399166666659,
      "velocity": 0.5039370078740157,
      "name": "F#3"
    },
    {
      "midi": 80,
      "frequency": 830.6093951598903,
      "time": 15.23082,
      "duration": 0.21730841666666656,
      "velocity": 0.5039370078740157,
      "name": "G#5"
    },
    {
      "midi": 61,
      "frequency": 277.1826309768721,
      "time": 15.23082,
      "duration": 0.4365399166666677,
      "velocity": 0.5039370078740157,
      "name": "C#4"
    },
    {
      "midi": 81,
      "frequency": 880,
      "time": 15.461590000000001,
      "duration": 0.4365399166666659,
      "velocity": 0.5039370078740157,
      "name": "A5"
    },
    {
      "midi": 66,
      "frequency": 369.99442271163446,
      "time": 15.69236,
      "duration": 0.8750029166666664,
      "velocity": 0.5039370078740157,
      "name": "F#4"
    },
    {
      "midi": 69,
      "frequency": 440,
      "time": 15.92313,
      "duration": 0.21730841666666478,
      "velocity": 0.5039370078740157,
      "name": "A4"
    },
    {
      "midi": 80,
      "frequency": 830.6093951598903,
      "time": 16.1539,
      "duration": 0.21730841666666478,
      "velocity": 0.5039370078740157,
      "name": "G#5"
    },
    {
      "midi": 81,
      "frequency": 880,
      "time": 16.38467,
      "duration": 0.4365399166666677,
      "velocity": 0.5039370078740157,
      "name": "A5"
    },
    {
      "midi": 50,
      "frequency": 146.8323839587038,
      "time": 16.61544,
      "duration": 0.4365399166666677,
      "velocity": 0.5039370078740157,
      "name": "D3"
    },
    {
      "midi": 69,
      "frequency": 440,
      "time": 16.84621,
      "duration": 0.21730841666666834,
      "velocity": 0.5039370078740157,
      "name": "A4"
    },
    {
      "midi": 76,
      "frequency": 659.2551138257398,
      "time": 17.07698,
      "duration": 0.21730841666666834,
      "velocity": 0.5039370078740157,
      "name": "E5"
    },
    {
      "midi": 57,
      "frequency": 220,
      "time": 17.07698,
      "duration": 0.4365399166666677,
      "velocity": 0.5039370078740157,
      "name": "A3"
    },
    {
      "midi": 81,
      "frequency": 880,
      "time": 17.30775,
      "duration": 0.4365399166666677,
      "velocity": 0.5039370078740157,
      "name": "A5"
    },
    {
      "midi": 64,
      "frequency": 329.6275569128699,
      "time": 17.538520000000002,
      "duration": 0.43653991666666414,
      "velocity": 0.5039370078740157,
      "name": "E4"
    },
    {
      "midi": 69,
      "frequency": 440,
      "time": 17.76929,
      "duration": 0.21730841666666478,
      "velocity": 0.5039370078740157,
      "name": "A4"
    },
    {
      "midi": 74,
      "frequency": 587.3295358348151,
      "time": 18.00006,
      "duration": 0.21730841666666478,
      "velocity": 0.5039370078740157,
      "name": "D5"
    },
    {
      "midi": 50,
      "frequency": 146.8323839587038,
      "time": 18.00006,
      "duration": 0.43653991666666414,
      "velocity": 0.5039370078740157,
      "name": "D3"
    },
    {
      "midi": 69,
      "frequency": 440,
      "time": 18.23083,
      "duration": 0.21730841666666478,
      "velocity": 0.5039370078740157,
      "name": "A4"
    },
    {
      "midi": 71,
      "frequency": 493.8833012561241,
      "time": 18.4616,
      "duration": 0.0615386666666673,
      "velocity": 0.5039370078740157,
      "name": "B4"
    },
    {
      "midi": 45,
      "frequency": 110,
      "time": 18.4616,
      "duration": 0.4365399166666677,
      "velocity": 0.5039370078740157,
      "name": "A2"
    },
    {
      "midi": 73,
      "frequency": 554.3652619537442,
      "time": 18.525061750000003,
      "duration": 0.3750012500000004,
      "velocity": 0.5039370078740157,
      "name": "C#5"
    },
    {
      "midi": 74,
      "frequency": 587.3295358348151,
      "time": 18.92314,
      "duration": 0.4365399166666677,
      "velocity": 0.5039370078740157,
      "name": "D5"
    },
    {
      "midi": 52,
      "frequency": 164.81377845643496,
      "time": 18.92314,
      "duration": 0.4365399166666677,
      "velocity": 0.5039370078740157,
      "name": "E3"
    },
    {
      "midi": 69,
      "frequency": 440,
      "time": 19.38468,
      "duration": 0.4365399166666677,
      "velocity": 0.5039370078740157,
      "name": "A4"
    },
    {
      "midi": 76,
      "frequency": 659.2551138257398,
      "time": 19.38468,
      "duration": 0.4365399166666677,
      "velocity": 0.5039370078740157,
      "name": "E5"
    },
    {
      "midi": 61,
      "frequency": 277.1826309768721,
      "time": 19.38468,
      "duration": 0.87500291666667,
      "velocity": 0.5039370078740157,
      "name": "C#4"
    },
    {
      "midi": 73,
      "frequency": 554.3652619537442,
      "time": 19.84622,
      "duration": 0.4365399166666677,
      "velocity": 0.5039370078740157,
      "name": "C#5"
    },
    {
      "midi": 68,
      "frequency": 415.3046975799451,
      "time": 20.307760000000002,
      "duration": 1.3134659166666651,
      "velocity": 0.5039370078740157,
      "name": "G#4"
    },
    {
      "midi": 71,
      "frequency": 493.8833012561241,
      "time": 20.307760000000002,
      "duration": 1.3134659166666651,
      "velocity": 0.5039370078740157,
      "name": "B4"
    },
    {
      "midi": 52,
      "frequency": 164.81377845643496,
      "time": 20.307760000000002,
      "duration": 0.43653991666666414,
      "velocity": 0.5039370078740157,
      "name": "E3"
    },
    {
      "midi": 59,
      "frequency": 246.94165062806206,
      "time": 20.7693,
      "duration": 0.43653991666666414,
      "velocity": 0.5039370078740157,
      "name": "B3"
    },
    {
      "midi": 64,
      "frequency": 329.6275569128699,
      "time": 21.23084,
      "duration": 0.8750029166666664,
      "velocity": 0.5039370078740157,
      "name": "E4"
    },
    {
      "midi": 69,
      "frequency": 440,
      "time": 21.69238,
      "duration": 0.21730841666666478,
      "velocity": 0.5039370078740157,
      "name": "A4"
    },
    {
      "midi": 68,
      "frequency": 415.3046975799451,
      "time": 21.92315,
      "duration": 0.21730841666666478,
      "velocity": 0.5039370078740157,
      "name": "G#4"
    },
    {
      "midi": 69,
      "frequency": 440,
      "time": 22.15392,
      "duration": 1.0942344166666658,
      "velocity": 0.5039370078740157,
      "name": "A4"
    },
    {
      "midi": 54,
      "frequency": 184.99721135581723,
      "time": 22.15392,
      "duration": 0.4365399166666677,
      "velocity": 0.5039370078740157,
      "name": "F#3"
    },
    {
      "midi": 61,
      "frequency": 277.1826309768721,
      "time": 22.61546,
      "duration": 0.4365399166666677,
      "velocity": 0.5039370078740157,
      "name": "C#4"
    },
    {
      "midi": 66,
      "frequency": 369.99442271163446,
      "time": 23.077,
      "duration": 0.8750029166666664,
      "velocity": 0.5039370078740157,
      "name": "F#4"
    },
    {
      "midi": 64,
      "frequency": 329.6275569128699,
      "time": 23.30777,
      "duration": 0.21730841666666478,
      "velocity": 0.5039370078740157,
      "name": "E4"
    },
    {
      "midi": 69,
      "frequency": 440,
      "time": 23.53854,
      "duration": 0.21730841666666478,
      "velocity": 0.5039370078740157,
      "name": "A4"
    },
    {
      "midi": 71,
      "frequency": 493.8833012561241,
      "time": 23.76931,
      "duration": 0.21730841666666478,
      "velocity": 0.5039370078740157,
      "name": "B4"
    },
    {
      "midi": 73,
      "frequency": 554.3652619537442,
      "time": 24.00008,
      "duration": 1.3134659166666651,
      "velocity": 0.5039370078740157,
      "name": "C#5"
    },
    {
      "midi": 50,
      "frequency": 146.8323839587038,
      "time": 24.00008,
      "duration": 0.4365399166666677,
      "velocity": 0.5039370078740157,
      "name": "D3"
    },
    {
      "midi": 57,
      "frequency": 220,
      "time": 24.46162,
      "duration": 0.4365399166666677,
      "velocity": 0.5039370078740157,
      "name": "A3"
    },
    {
      "midi": 64,
      "frequency": 329.6275569128699,
      "time": 24.92316,
      "duration": 0.87500291666667,
      "velocity": 0.5039370078740157,
      "name": "E4"
    },
    {
      "midi": 73,
      "frequency": 554.3652619537442,
      "time": 25.3847,
      "duration": 0.21730841666666834,
      "velocity": 0.5039370078740157,
      "name": "C#5"
    },
    {
      "midi": 74,
      "frequency": 587.3295358348151,
      "time": 25.615470000000002,
      "duration": 0.21730841666666478,
      "velocity": 0.5039370078740157,
      "name": "D5"
    },
    {
      "midi": 76,
      "frequency": 659.2551138257398,
      "time": 25.84624,
      "duration": 1.3134659166666651,
      "velocity": 0.5039370078740157,
      "name": "E5"
    },
    {
      "midi": 45,
      "frequency": 110,
      "time": 25.84624,
      "duration": 0.43653991666666414,
      "velocity": 0.5039370078740157,
      "name": "A2"
    },
    {
      "midi": 52,
      "frequency": 164.81377845643496,
      "time": 26.30778,
      "duration": 0.43653991666666414,
      "velocity": 0.5039370078740157,
      "name": "E3"
    },
    {
      "midi": 61,
      "frequency": 277.1826309768721,
      "time": 26.76932,
      "duration": 0.8750029166666664,
      "velocity": 0.5039370078740157,
      "name": "C#4"
    },
    {
      "midi": 74,
      "frequency": 587.3295358348151,
      "time": 27.23086,
      "duration": 0.21730841666666478,
      "velocity": 0.5039370078740157,
      "name": "D5"
    },
    {
      "midi": 73,
      "frequency": 554.3652619537442,
      "time": 27.46163,
      "duration": 0.21730841666666834,
      "velocity": 0.5039370078740157,
      "name": "C#5"
    },
    {
      "midi": 71,
      "frequency": 493.8833012561241,
      "time": 27.6924,
      "duration": 1.7519289166666674,
      "velocity": 0.5039370078740157,
      "name": "B4"
    },
    {
      "midi": 52,
      "frequency": 164.81377845643496,
      "time": 27.6924,
      "duration": 0.4365399166666677,
      "velocity": 0.5039370078740157,
      "name": "E3"
    },
    {
      "midi": 59,
      "frequency": 246.94165062806206,
      "time": 28.15394,
      "duration": 0.4365399166666677,
      "velocity": 0.5039370078740157,
      "name": "B3"
    },
    {
      "midi": 68,
      "frequency": 415.3046975799451,
      "time": 28.61548,
      "duration": 0.8750029166666664,
      "velocity": 0.5039370078740157,
      "name": "G#4"
    },
    {
      "midi": 69,
      "frequency": 440,
      "time": 29.53856,
      "duration": 0.11346191666666883,
      "velocity": 0.5039370078740157,
      "name": "A4"
    },
    {
      "midi": 54,
      "frequency": 184.99721135581723,
      "time": 29.53856,
      "duration": 0.43653991666667125,
      "velocity": 0.5039370078740157,
      "name": "F#3"
    },
    {
      "midi": 73,
      "frequency": 554.3652619537442,
      "time": 29.653945,
      "duration": 0.11346191666666883,
      "velocity": 0.5039370078740157,
      "name": "C#5"
    },
    {
      "midi": 81,
      "frequency": 880,
      "time": 29.76933,
      "duration": 0.21730841666666478,
      "velocity": 0.5039370078740157,
      "name": "A5"
    },
    {
      "midi": 80,
      "frequency": 830.6093951598903,
      "time": 30.0001,
      "duration": 0.21730841666666478,
      "velocity": 0.5039370078740157,
      "name": "G#5"
    },
    {
      "midi": 61,
      "frequency": 277.1826309768721,
      "time": 30.0001,
      "duration": 0.43653991666667125,
      "velocity": 0.5039370078740157,
      "name": "C#4"
    },
    {
      "midi": 81,
      "frequency": 880,
      "time": 30.23087,
      "duration": 0.43653991666667125,
      "velocity": 0.5039370078740157,
      "name": "A5"
    },
    {
      "midi": 66,
      "frequency": 369.99442271163446,
      "time": 30.46164,
      "duration": 0.8750029166666664,
      "velocity": 0.5039370078740157,
      "name": "F#4"
    },
    {
      "midi": 69,
      "frequency": 440,
      "time": 30.69241,
      "duration": 0.21730841666666834,
      "velocity": 0.5039370078740157,
      "name": "A4"
    },
    {
      "midi": 80,
      "frequency": 830.6093951598903,
      "time": 30.923180000000002,
      "duration": 0.21730841666666478,
      "velocity": 0.5039370078740157,
      "name": "G#5"
    },
    {
      "midi": 81,
      "frequency": 880,
      "time": 31.153950000000002,
      "duration": 0.4365399166666677,
      "velocity": 0.5039370078740157,
      "name": "A5"
    },
    {
      "midi": 50,
      "frequency": 146.8323839587038,
      "time": 31.38472,
      "duration": 0.4365399166666677,
      "velocity": 0.5039370078740157,
      "name": "D3"
    },
    {
      "midi": 69,
      "frequency": 440,
      "time": 31.61549,
      "duration": 0.21730841666666478,
      "velocity": 0.5039370078740157,
      "name": "A4"
    },
    {
      "midi": 76,
      "frequency": 659.2551138257398,
      "time": 31.84626,
      "duration": 0.21730841666666834,
      "velocity": 0.5039370078740157,
      "name": "E5"
    },
    {
      "midi": 57,
      "frequency": 220,
      "time": 31.84626,
      "duration": 0.4365399166666677,
      "velocity": 0.5039370078740157,
      "name": "A3"
    },
    {
      "midi": 81,
      "frequency": 880,
      "time": 32.07703,
      "duration": 0.4365399166666677,
      "velocity": 0.5039370078740157,
      "name": "A5"
    },
    {
      "midi": 64,
      "frequency": 329.6275569128699,
      "time": 32.3078,
      "duration": 0.4365399166666677,
      "velocity": 0.5039370078740157,
      "name": "E4"
    },
    {
      "midi": 69,
      "frequency": 440,
      "time": 32.53857,
      "duration": 0.21730841666666834,
      "velocity": 0.5039370078740157,
      "name": "A4"
    },
    {
      "midi": 74,
      "frequency": 587.3295358348151,
      "time": 32.76934,
      "duration": 0.21730841666666834,
      "velocity": 0.5039370078740157,
      "name": "D5"
    },
    {
      "midi": 50,
      "frequency": 146.8323839587038,
      "time": 32.76934,
      "duration": 0.4365399166666677,
      "velocity": 0.5039370078740157,
      "name": "D3"
    },
    {
      "midi": 69,
      "frequency": 440,
      "time": 33.00011,
      "duration": 0.21730841666666834,
      "velocity": 0.5039370078740157,
      "name": "A4"
    },
    {
      "midi": 71,
      "frequency": 493.8833012561241,
      "time": 33.23088,
      "duration": 0.06153866666667085,
      "velocity": 0.5039370078740157,
      "name": "B4"
    },
    {
      "midi": 45,
      "frequency": 110,
      "time": 33.23088,
      "duration": 0.4365399166666677,
      "velocity": 0.5039370078740157,
      "name": "A2"
    },
    {
      "midi": 73,
      "frequency": 554.3652619537442,
      "time": 33.29434175,
      "duration": 0.37500125000000395,
      "velocity": 0.5039370078740157,
      "name": "C#5"
    },
    {
      "midi": 74,
      "frequency": 587.3295358348151,
      "time": 33.69242,
      "duration": 0.4365399166666748,
      "velocity": 0.5039370078740157,
      "name": "D5"
    },
    {
      "midi": 52,
      "frequency": 164.81377845643496,
      "time": 33.69242,
      "duration": 0.4365399166666748,
      "velocity": 0.5039370078740157,
      "name": "E3"
    },
    {
      "midi": 76,
      "frequency": 659.2551138257398,
      "time": 34.15396,
      "duration": 0.4365399166666748,
      "velocity": 0.5039370078740157,
      "name": "E5"
    },
    {
      "midi": 61,
      "frequency": 277.1826309768721,
      "time": 34.15396,
      "duration": 0.4365399166666748,
      "velocity": 0.5039370078740157,
      "name": "C#4"
    },
    {
      "midi": 85,
      "frequency": 1108.7305239074883,
      "time": 34.6155,
      "duration": 0.4365399166666748,
      "velocity": 0.5039370078740157,
      "name": "C#6"
    },
    {
      "midi": 45,
      "frequency": 110,
      "time": 34.6155,
      "duration": 0.4365399166666748,
      "velocity": 0.5039370078740157,
      "name": "A2"
    },
    {
      "midi": 83,
      "frequency": 987.7666025122483,
      "time": 35.077040000000004,
      "duration": 0.4365399166666677,
      "velocity": 0.5039370078740157,
      "name": "B5"
    },
    {
      "midi": 52,
      "frequency": 164.81377845643496,
      "time": 35.077040000000004,
      "duration": 0.4365399166666677,
      "velocity": 0.5039370078740157,
      "name": "E3"
    },
    {
      "midi": 76,
      "frequency": 659.2551138257398,
      "time": 35.53858,
      "duration": 0.4365399166666677,
      "velocity": 0.5039370078740157,
      "name": "E5"
    },
    {
      "midi": 59,
      "frequency": 246.94165062806206,
      "time": 35.53858,
      "duration": 0.4365399166666677,
      "velocity": 0.5039370078740157,
      "name": "B3"
    },
    {
      "midi": 83,
      "frequency": 987.7666025122483,
      "time": 36.00012,
      "duration": 0.11346191666666527,
      "velocity": 0.5039370078740157,
      "name": "B5"
    },
    {
      "midi": 64,
      "frequency": 329.6275569128699,
      "time": 36.00012,
      "duration": 0.8750029166666593,
      "velocity": 0.5039370078740157,
      "name": "E4"
    },
    {
      "midi": 85,
      "frequency": 1108.7305239074883,
      "time": 36.115505,
      "duration": 0.11346191666667238,
      "velocity": 0.5039370078740157,
      "name": "C#6"
    },
    {
      "midi": 83,
      "frequency": 987.7666025122483,
      "time": 36.23089,
      "duration": 0.21730841666666123,
      "velocity": 0.5039370078740157,
      "name": "B5"
    },
    {
      "midi": 81,
      "frequency": 880,
      "time": 36.46166,
      "duration": 0.21730841666666123,
      "velocity": 0.5039370078740157,
      "name": "A5"
    },
    {
      "midi": 80,
      "frequency": 830.6093951598903,
      "time": 36.69243,
      "duration": 0.21730841666666123,
      "velocity": 0.5039370078740157,
      "name": "G#5"
    },
    {
      "midi": 76,
      "frequency": 659.2551138257398,
      "time": 36.9232,
      "duration": 1.3134659166666651,
      "velocity": 0.5039370078740157,
      "name": "E5"
    },
    {
      "midi": 81,
      "frequency": 880,
      "time": 36.9232,
      "duration": 1.3134659166666651,
      "velocity": 0.5039370078740157,
      "name": "A5"
    },
    {
      "midi": 54,
      "frequency": 184.99721135581723,
      "time": 36.9232,
      "duration": 0.4365399166666677,
      "velocity": 0.5039370078740157,
      "name": "F#3"
    },
    {
      "midi": 61,
      "frequency": 277.1826309768721,
      "time": 37.38474,
      "duration": 0.4365399166666677,
      "velocity": 0.5039370078740157,
      "name": "C#4"
    },
    {
      "midi": 66,
      "frequency": 369.99442271163446,
      "time": 37.84628,
      "duration": 0.8750029166666664,
      "velocity": 0.5039370078740157,
      "name": "F#4"
    },
    {
      "midi": 69,
      "frequency": 440,
      "time": 38.30782,
      "duration": 0.21730841666666834,
      "velocity": 0.5039370078740157,
      "name": "A4"
    },
    {
      "midi": 71,
      "frequency": 493.8833012561241,
      "time": 38.53859,
      "duration": 0.21730841666666834,
      "velocity": 0.5039370078740157,
      "name": "B4"
    },
    {
      "midi": 73,
      "frequency": 554.3652619537442,
      "time": 38.76936,
      "duration": 0.4365399166666748,
      "velocity": 0.5039370078740157,
      "name": "C#5"
    },
    {
      "midi": 50,
      "frequency": 146.8323839587038,
      "time": 38.76936,
      "duration": 0.4365399166666748,
      "velocity": 0.5039370078740157,
      "name": "D3"
    },
    {
      "midi": 64,
      "frequency": 329.6275569128699,
      "time": 39.2309,
      "duration": 0.4365399166666748,
      "velocity": 0.5039370078740157,
      "name": "E4"
    },
    {
      "midi": 59,
      "frequency": 246.94165062806206,
      "time": 39.2309,
      "duration": 0.4365399166666748,
      "velocity": 0.5039370078740157,
      "name": "B3"
    },
    {
      "midi": 69,
      "frequency": 440,
      "time": 39.69244,
      "duration": 0.4365399166666748,
      "velocity": 0.5039370078740157,
      "name": "A4"
    },
    {
      "midi": 64,
      "frequency": 329.6275569128699,
      "time": 39.69244,
      "duration": 0.8750029166666664,
      "velocity": 0.5039370078740157,
      "name": "E4"
    },
    {
      "midi": 73,
      "frequency": 554.3652619537442,
      "time": 40.15398,
      "duration": 0.21730841666666834,
      "velocity": 0.5039370078740157,
      "name": "C#5"
    },
    {
      "midi": 74,
      "frequency": 587.3295358348151,
      "time": 40.384750000000004,
      "duration": 0.21730841666666123,
      "velocity": 0.5039370078740157,
      "name": "D5"
    },
    {
      "midi": 76,
      "frequency": 659.2551138257398,
      "time": 40.615520000000004,
      "duration": 0.4365399166666677,
      "velocity": 0.5039370078740157,
      "name": "E5"
    },
    {
      "midi": 45,
      "frequency": 110,
      "time": 40.615520000000004,
      "duration": 0.4365399166666677,
      "velocity": 0.5039370078740157,
      "name": "A2"
    },
    {
      "midi": 64,
      "frequency": 329.6275569128699,
      "time": 41.07706,
      "duration": 0.4365399166666677,
      "velocity": 0.5039370078740157,
      "name": "E4"
    },
    {
      "midi": 52,
      "frequency": 164.81377845643496,
      "time": 41.07706,
      "duration": 0.4365399166666677,
      "velocity": 0.5039370078740157,
      "name": "E3"
    },
    {
      "midi": 73,
      "frequency": 554.3652619537442,
      "time": 41.5386,
      "duration": 0.4365399166666677,
      "velocity": 0.5039370078740157,
      "name": "C#5"
    },
    {
      "midi": 61,
      "frequency": 277.1826309768721,
      "time": 41.5386,
      "duration": 0.8750029166666593,
      "velocity": 0.5039370078740157,
      "name": "C#4"
    },
    {
      "midi": 74,
      "frequency": 587.3295358348151,
      "time": 42.00014,
      "duration": 0.21730841666666123,
      "velocity": 0.5039370078740157,
      "name": "D5"
    },
    {
      "midi": 73,
      "frequency": 554.3652619537442,
      "time": 42.23091,
      "duration": 0.21730841666666834,
      "velocity": 0.5039370078740157,
      "name": "C#5"
    },
    {
      "midi": 71,
      "frequency": 493.8833012561241,
      "time": 42.46168,
      "duration": 0.8750029166666664,
      "velocity": 0.5039370078740157,
      "name": "B4"
    },
    {
      "midi": 52,
      "frequency": 164.81377845643496,
      "time": 42.46168,
      "duration": 0.4365399166666677,
      "velocity": 0.5039370078740157,
      "name": "E3"
    },
    {
      "midi": 59,
      "frequency": 246.94165062806206,
      "time": 42.92322,
      "duration": 0.4365399166666677,
      "velocity": 0.5039370078740157,
      "name": "B3"
    },
    {
      "midi": 81,
      "frequency": 880,
      "time": 43.38476,
      "duration": 0.21730841666666834,
      "velocity": 0.5039370078740157,
      "name": "A5"
    },
    {
      "midi": 64,
      "frequency": 329.6275569128699,
      "time": 43.38476,
      "duration": 0.8750029166666664,
      "velocity": 0.5039370078740157,
      "name": "E4"
    },
    {
      "midi": 83,
      "frequency": 987.7666025122483,
      "time": 43.61553,
      "duration": 0.21730841666666834,
      "velocity": 0.5039370078740157,
      "name": "B5"
    },
    {
      "midi": 81,
      "frequency": 880,
      "time": 43.8463,
      "duration": 0.21730841666666834,
      "velocity": 0.5039370078740157,
      "name": "A5"
    },
    {
      "midi": 80,
      "frequency": 830.6093951598903,
      "time": 44.07707,
      "duration": 0.21730841666666834,
      "velocity": 0.5039370078740157,
      "name": "G#5"
    },
    {
      "midi": 81,
      "frequency": 880,
      "time": 44.30784,
      "duration": 0.21730841666666834,
      "velocity": 0.5039370078740157,
      "name": "A5"
    },
    {
      "midi": 54,
      "frequency": 184.99721135581723,
      "time": 44.30784,
      "duration": 0.4365399166666748,
      "velocity": 0.5039370078740157,
      "name": "F#3"
    },
    {
      "midi": 69,
      "frequency": 440,
      "time": 44.53861,
      "duration": 0.21730841666666834,
      "velocity": 0.5039370078740157,
      "name": "A4"
    },
    {
      "midi": 76,
      "frequency": 659.2551138257398,
      "time": 44.76938,
      "duration": 0.21730841666666834,
      "velocity": 0.5039370078740157,
      "name": "E5"
    },
    {
      "midi": 61,
      "frequency": 277.1826309768721,
      "time": 44.76938,
      "duration": 0.4365399166666748,
      "velocity": 0.5039370078740157,
      "name": "C#4"
    },
    {
      "midi": 69,
      "frequency": 440,
      "time": 45.00015,
      "duration": 0.21730841666666834,
      "velocity": 0.5039370078740157,
      "name": "A4"
    },
    {
      "midi": 81,
      "frequency": 880,
      "time": 45.23092,
      "duration": 0.21730841666666834,
      "velocity": 0.5039370078740157,
      "name": "A5"
    },
    {
      "midi": 66,
      "frequency": 369.99442271163446,
      "time": 45.23092,
      "duration": 0.4365399166666748,
      "velocity": 0.5039370078740157,
      "name": "F#4"
    },
    {
      "midi": 83,
      "frequency": 987.7666025122483,
      "time": 45.46169,
      "duration": 0.21730841666666834,
      "velocity": 0.5039370078740157,
      "name": "B5"
    },
    {
      "midi": 81,
      "frequency": 880,
      "time": 45.692460000000004,
      "duration": 0.21730841666666123,
      "velocity": 0.5039370078740157,
      "name": "A5"
    },
    {
      "midi": 54,
      "frequency": 184.99721135581723,
      "time": 45.692460000000004,
      "duration": 0.4365399166666677,
      "velocity": 0.5039370078740157,
      "name": "F#3"
    },
    {
      "midi": 80,
      "frequency": 830.6093951598903,
      "time": 45.923230000000004,
      "duration": 0.21730841666666123,
      "velocity": 0.5039370078740157,
      "name": "G#5"
    },
    {
      "midi": 81,
      "frequency": 880,
      "time": 46.154,
      "duration": 0.21730841666666123,
      "velocity": 0.5039370078740157,
      "name": "A5"
    },
    {
      "midi": 50,
      "frequency": 146.8323839587038,
      "time": 46.154,
      "duration": 0.4365399166666677,
      "velocity": 0.5039370078740157,
      "name": "D3"
    },
    {
      "midi": 69,
      "frequency": 440,
      "time": 46.38477,
      "duration": 0.21730841666666123,
      "velocity": 0.5039370078740157,
      "name": "A4"
    },
    {
      "midi": 76,
      "frequency": 659.2551138257398,
      "time": 46.61554,
      "duration": 0.21730841666666123,
      "velocity": 0.5039370078740157,
      "name": "E5"
    },
    {
      "midi": 57,
      "frequency": 220,
      "time": 46.61554,
      "duration": 0.4365399166666677,
      "velocity": 0.5039370078740157,
      "name": "A3"
    },
    {
      "midi": 69,
      "frequency": 440,
      "time": 46.84631,
      "duration": 0.21730841666666123,
      "velocity": 0.5039370078740157,
      "name": "A4"
    },
    {
      "midi": 81,
      "frequency": 880,
      "time": 47.07708,
      "duration": 0.21730841666666123,
      "velocity": 0.5039370078740157,
      "name": "A5"
    },
    {
      "midi": 64,
      "frequency": 329.6275569128699,
      "time": 47.07708,
      "duration": 0.4365399166666677,
      "velocity": 0.5039370078740157,
      "name": "E4"
    },
    {
      "midi": 83,
      "frequency": 987.7666025122483,
      "time": 47.30785,
      "duration": 0.21730841666666123,
      "velocity": 0.5039370078740157,
      "name": "B5"
    },
    {
      "midi": 81,
      "frequency": 880,
      "time": 47.53862,
      "duration": 0.21730841666666123,
      "velocity": 0.5039370078740157,
      "name": "A5"
    },
    {
      "midi": 50,
      "frequency": 146.8323839587038,
      "time": 47.53862,
      "duration": 0.4365399166666677,
      "velocity": 0.5039370078740157,
      "name": "D3"
    },
    {
      "midi": 80,
      "frequency": 830.6093951598903,
      "time": 47.76939,
      "duration": 0.21730841666666834,
      "velocity": 0.5039370078740157,
      "name": "G#5"
    },
    {
      "midi": 81,
      "frequency": 880,
      "time": 48.00016,
      "duration": 0.21730841666666834,
      "velocity": 0.5039370078740157,
      "name": "A5"
    },
    {
      "midi": 45,
      "frequency": 110,
      "time": 48.00016,
      "duration": 0.4365399166666677,
      "velocity": 0.5039370078740157,
      "name": "A2"
    },
    {
      "midi": 83,
      "frequency": 987.7666025122483,
      "time": 48.23093,
      "duration": 0.21730841666666834,
      "velocity": 0.5039370078740157,
      "name": "B5"
    },
    {
      "midi": 85,
      "frequency": 1108.7305239074883,
      "time": 48.4617,
      "duration": 0.21730841666666834,
      "velocity": 0.5039370078740157,
      "name": "C#6"
    },
    {
      "midi": 52,
      "frequency": 164.81377845643496,
      "time": 48.4617,
      "duration": 0.4365399166666677,
      "velocity": 0.5039370078740157,
      "name": "E3"
    },
    {
      "midi": 86,
      "frequency": 1174.6590716696303,
      "time": 48.69247,
      "duration": 0.21730841666666834,
      "velocity": 0.5039370078740157,
      "name": "D6"
    },
    {
      "midi": 88,
      "frequency": 1318.5102276514797,
      "time": 48.92324,
      "duration": 0.21730841666666834,
      "velocity": 0.5039370078740157,
      "name": "E6"
    },
    {
      "midi": 61,
      "frequency": 277.1826309768721,
      "time": 48.92324,
      "duration": 0.4365399166666677,
      "velocity": 0.5039370078740157,
      "name": "C#4"
    },
    {
      "midi": 85,
      "frequency": 1108.7305239074883,
      "time": 49.15401,
      "duration": 0.21730841666666834,
      "velocity": 0.5039370078740157,
      "name": "C#6"
    },
    {
      "midi": 83,
      "frequency": 987.7666025122483,
      "time": 49.38478,
      "duration": 0.21730841666666834,
      "velocity": 0.5039370078740157,
      "name": "B5"
    },
    {
      "midi": 45,
      "frequency": 110,
      "time": 49.38478,
      "duration": 0.4365399166666677,
      "velocity": 0.5039370078740157,
      "name": "A2"
    },
    {
      "midi": 81,
      "frequency": 880,
      "time": 49.61555,
      "duration": 0.21730841666666834,
      "velocity": 0.5039370078740157,
      "name": "A5"
    },
    {
      "midi": 80,
      "frequency": 830.6093951598903,
      "time": 49.84632,
      "duration": 0.4365399166666748,
      "velocity": 0.5039370078740157,
      "name": "G#5"
    },
    {
      "midi": 52,
      "frequency": 164.81377845643496,
      "time": 49.84632,
      "duration": 0.4365399166666748,
      "velocity": 0.5039370078740157,
      "name": "E3"
    },
    {
      "midi": 71,
      "frequency": 493.8833012561241,
      "time": 50.30786,
      "duration": 0.4365399166666748,
      "velocity": 0.5039370078740157,
      "name": "B4"
    },
    {
      "midi": 59,
      "frequency": 246.94165062806206,
      "time": 50.30786,
      "duration": 0.4365399166666748,
      "velocity": 0.5039370078740157,
      "name": "B3"
    },
    {
      "midi": 81,
      "frequency": 880,
      "time": 50.7694,
      "duration": 0.21730841666666834,
      "velocity": 0.5039370078740157,
      "name": "A5"
    },
    {
      "midi": 64,
      "frequency": 329.6275569128699,
      "time": 50.7694,
      "duration": 0.4365399166666748,
      "velocity": 0.5039370078740157,
      "name": "E4"
    },
    {
      "midi": 83,
      "frequency": 987.7666025122483,
      "time": 51.00017,
      "duration": 0.21730841666666834,
      "velocity": 0.5039370078740157,
      "name": "B5"
    },
    {
      "midi": 81,
      "frequency": 880,
      "time": 51.230940000000004,
      "duration": 0.21730841666666123,
      "velocity": 0.5039370078740157,
      "name": "A5"
    },
    {
      "midi": 52,
      "frequency": 164.81377845643496,
      "time": 51.230940000000004,
      "duration": 0.4365399166666677,
      "velocity": 0.5039370078740157,
      "name": "E3"
    },
    {
      "midi": 80,
      "frequency": 830.6093951598903,
      "time": 51.461710000000004,
      "duration": 0.21730841666666123,
      "velocity": 0.5039370078740157,
      "name": "G#5"
    },
    {
      "midi": 81,
      "frequency": 880,
      "time": 51.69248,
      "duration": 0.21730841666666123,
      "velocity": 0.5039370078740157,
      "name": "A5"
    },
    {
      "midi": 54,
      "frequency": 184.99721135581723,
      "time": 51.69248,
      "duration": 0.4365399166666677,
      "velocity": 0.5039370078740157,
      "name": "F#3"
    },
    {
      "midi": 69,
      "frequency": 440,
      "time": 51.92325,
      "duration": 0.21730841666666123,
      "velocity": 0.5039370078740157,
      "name": "A4"
    },
    {
      "midi": 76,
      "frequency": 659.2551138257398,
      "time": 52.15402,
      "duration": 0.21730841666666123,
      "velocity": 0.5039370078740157,
      "name": "E5"
    },
    {
      "midi": 61,
      "frequency": 277.1826309768721,
      "time": 52.15402,
      "duration": 0.4365399166666677,
      "velocity": 0.5039370078740157,
      "name": "C#4"
    },
    {
      "midi": 69,
      "frequency": 440,
      "time": 52.38479,
      "duration": 0.21730841666666123,
      "velocity": 0.5039370078740157,
      "name": "A4"
    },
    {
      "midi": 81,
      "frequency": 880,
      "time": 52.61556,
      "duration": 0.21730841666666123,
      "velocity": 0.5039370078740157,
      "name": "A5"
    },
    {
      "midi": 64,
      "frequency": 329.6275569128699,
      "time": 52.61556,
      "duration": 0.4365399166666677,
      "velocity": 0.5039370078740157,
      "name": "E4"
    },
    {
      "midi": 83,
      "frequency": 987.7666025122483,
      "time": 52.84633,
      "duration": 0.21730841666666123,
      "velocity": 0.5039370078740157,
      "name": "B5"
    },
    {
      "midi": 81,
      "frequency": 880,
      "time": 53.0771,
      "duration": 0.21730841666666834,
      "velocity": 0.5039370078740157,
      "name": "A5"
    },
    {
      "midi": 54,
      "frequency": 184.99721135581723,
      "time": 53.0771,
      "duration": 0.4365399166666677,
      "velocity": 0.5039370078740157,
      "name": "F#3"
    },
    {
      "midi": 80,
      "frequency": 830.6093951598903,
      "time": 53.30787,
      "duration": 0.21730841666666834,
      "velocity": 0.5039370078740157,
      "name": "G#5"
    },
    {
      "midi": 81,
      "frequency": 880,
      "time": 53.53864,
      "duration": 0.21730841666666834,
      "velocity": 0.5039370078740157,
      "name": "A5"
    },
    {
      "midi": 50,
      "frequency": 146.8323839587038,
      "time": 53.53864,
      "duration": 0.4365399166666677,
      "velocity": 0.5039370078740157,
      "name": "D3"
    },
    {
      "midi": 69,
      "frequency": 440,
      "time": 53.76941,
      "duration": 0.21730841666666834,
      "velocity": 0.5039370078740157,
      "name": "A4"
    },
    {
      "midi": 76,
      "frequency": 659.2551138257398,
      "time": 54.00018,
      "duration": 0.21730841666666834,
      "velocity": 0.5039370078740157,
      "name": "E5"
    },
    {
      "midi": 59,
      "frequency": 246.94165062806206,
      "time": 54.00018,
      "duration": 0.4365399166666677,
      "velocity": 0.5039370078740157,
      "name": "B3"
    },
    {
      "midi": 69,
      "frequency": 440,
      "time": 54.23095,
      "duration": 0.21730841666666834,
      "velocity": 0.5039370078740157,
      "name": "A4"
    },
    {
      "midi": 81,
      "frequency": 880,
      "time": 54.46172,
      "duration": 0.21730841666666834,
      "velocity": 0.5039370078740157,
      "name": "A5"
    },
    {
      "midi": 64,
      "frequency": 329.6275569128699,
      "time": 54.46172,
      "duration": 0.4365399166666677,
      "velocity": 0.5039370078740157,
      "name": "E4"
    },
    {
      "midi": 83,
      "frequency": 987.7666025122483,
      "time": 54.69249,
      "duration": 0.21730841666666834,
      "velocity": 0.5039370078740157,
      "name": "B5"
    },
    {
      "midi": 81,
      "frequency": 880,
      "time": 54.92326,
      "duration": 0.21730841666666834,
      "velocity": 0.5039370078740157,
      "name": "A5"
    },
    {
      "midi": 50,
      "frequency": 146.8323839587038,
      "time": 54.92326,
      "duration": 0.4365399166666748,
      "velocity": 0.5039370078740157,
      "name": "D3"
    },
    {
      "midi": 80,
      "frequency": 830.6093951598903,
      "time": 55.15403,
      "duration": 0.21730841666666834,
      "velocity": 0.5039370078740157,
      "name": "G#5"
    },
    {
      "midi": 81,
      "frequency": 880,
      "time": 55.3848,
      "duration": 0.21730841666666834,
      "velocity": 0.5039370078740157,
      "name": "A5"
    },
    {
      "midi": 45,
      "frequency": 110,
      "time": 55.3848,
      "duration": 0.4365399166666748,
      "velocity": 0.5039370078740157,
      "name": "A2"
    },
    {
      "midi": 83,
      "frequency": 987.7666025122483,
      "time": 55.61557,
      "duration": 0.21730841666666834,
      "velocity": 0.5039370078740157,
      "name": "B5"
    },
    {
      "midi": 85,
      "frequency": 1108.7305239074883,
      "time": 55.84634,
      "duration": 0.21730841666666834,
      "velocity": 0.5039370078740157,
      "name": "C#6"
    },
    {
      "midi": 52,
      "frequency": 164.81377845643496,
      "time": 55.84634,
      "duration": 0.4365399166666748,
      "velocity": 0.5039370078740157,
      "name": "E3"
    },
    {
      "midi": 86,
      "frequency": 1174.6590716696303,
      "time": 56.07711,
      "duration": 0.21730841666666834,
      "velocity": 0.5039370078740157,
      "name": "D6"
    },
    {
      "midi": 88,
      "frequency": 1318.5102276514797,
      "time": 56.30788,
      "duration": 0.21730841666666834,
      "velocity": 0.5039370078740157,
      "name": "E6"
    },
    {
      "midi": 61,
      "frequency": 277.1826309768721,
      "time": 56.30788,
      "duration": 0.4365399166666748,
      "velocity": 0.5039370078740157,
      "name": "C#4"
    },
    {
      "midi": 85,
      "frequency": 1108.7305239074883,
      "time": 56.538650000000004,
      "duration": 0.21730841666666123,
      "velocity": 0.5039370078740157,
      "name": "C#6"
    },
    {
      "midi": 83,
      "frequency": 987.7666025122483,
      "time": 56.769420000000004,
      "duration": 0.21730841666666123,
      "velocity": 0.5039370078740157,
      "name": "B5"
    },
    {
      "midi": 45,
      "frequency": 110,
      "time": 56.769420000000004,
      "duration": 0.4365399166666677,
      "velocity": 0.5039370078740157,
      "name": "A2"
    },
    {
      "midi": 81,
      "frequency": 880,
      "time": 57.00019,
      "duration": 0.21730841666666123,
      "velocity": 0.5039370078740157,
      "name": "A5"
    },
    {
      "midi": 80,
      "frequency": 830.6093951598903,
      "time": 57.23096,
      "duration": 0.4365399166666677,
      "velocity": 0.5039370078740157,
      "name": "G#5"
    },
    {
      "midi": 52,
      "frequency": 164.81377845643496,
      "time": 57.23096,
      "duration": 0.4365399166666677,
      "velocity": 0.5039370078740157,
      "name": "E3"
    },
    {
      "midi": 71,
      "frequency": 493.8833012561241,
      "time": 57.6925,
      "duration": 0.4365399166666677,
      "velocity": 0.5039370078740157,
      "name": "B4"
    },
    {
      "midi": 59,
      "frequency": 246.94165062806206,
      "time": 57.6925,
      "duration": 0.4365399166666677,
      "velocity": 0.5039370078740157,
      "name": "B3"
    },
    {
      "midi": 81,
      "frequency": 880,
      "time": 58.15404,
      "duration": 0.21730841666666123,
      "velocity": 0.5039370078740157,
      "name": "A5"
    },
    {
      "midi": 64,
      "frequency": 329.6275569128699,
      "time": 58.15404,
      "duration": 0.4365399166666677,
      "velocity": 0.5039370078740157,
      "name": "E4"
    },
    {
      "midi": 81,
      "frequency": 880,
      "time": 58.38481,
      "duration": 0.1076926666666651,
      "velocity": 0.5039370078740157,
      "name": "A5"
    },
    {
      "midi": 83,
      "frequency": 987.7666025122483,
      "time": 58.500195,
      "duration": 0.10769266666667221,
      "velocity": 0.5039370078740157,
      "name": "B5"
    },
    {
      "midi": 81,
      "frequency": 880,
      "time": 58.61558,
      "duration": 0.21730841666666834,
      "velocity": 0.5039370078740157,
      "name": "A5"
    },
    {
      "midi": 52,
      "frequency": 164.81377845643496,
      "time": 58.61558,
      "duration": 0.4365399166666677,
      "velocity": 0.5039370078740157,
      "name": "E3"
    },
    {
      "midi": 80,
      "frequency": 830.6093951598903,
      "time": 58.84635,
      "duration": 0.21730841666666834,
      "velocity": 0.5039370078740157,
      "name": "G#5"
    },
    {
      "midi": 81,
      "frequency": 880,
      "time": 59.07712,
      "duration": 0.21730841666666834,
      "velocity": 0.5039370078740157,
      "name": "A5"
    },
    {
      "midi": 42,
      "frequency": 92.49860567790861,
      "time": 59.07712,
      "duration": 0.4365399166666606,
      "velocity": 0.5039370078740157,
      "name": "F#2"
    },
    {
      "midi": 69,
      "frequency": 440,
      "time": 59.30789,
      "duration": 0.21730841666666834,
      "velocity": 0.5039370078740157,
      "name": "A4"
    },
    {
      "midi": 76,
      "frequency": 659.2551138257398,
      "time": 59.53866,
      "duration": 0.21730841666666834,
      "velocity": 0.5039370078740157,
      "name": "E5"
    },
    {
      "midi": 49,
      "frequency": 138.59131548843604,
      "time": 59.53866,
      "duration": 0.4365399166666606,
      "velocity": 0.5039370078740157,
      "name": "C#3"
    },
    {
      "midi": 69,
      "frequency": 440,
      "time": 59.76943,
      "duration": 0.21730841666666834,
      "velocity": 0.5039370078740157,
      "name": "A4"
    },
    {
      "midi": 81,
      "frequency": 880,
      "time": 60.0002,
      "duration": 0.21730841666666834,
      "velocity": 0.5039370078740157,
      "name": "A5"
    },
    {
      "midi": 54,
      "frequency": 184.99721135581723,
      "time": 60.0002,
      "duration": 0.4365399166666677,
      "velocity": 0.5039370078740157,
      "name": "F#3"
    },
    {
      "midi": 81,
      "frequency": 880,
      "time": 60.23097,
      "duration": 0.1076926666666651,
      "velocity": 0.5039370078740157,
      "name": "A5"
    },
    {
      "midi": 83,
      "frequency": 987.7666025122483,
      "time": 60.346355,
      "duration": 0.107692666666658,
      "velocity": 0.5039370078740157,
      "name": "B5"
    },
    {
      "midi": 81,
      "frequency": 880,
      "time": 60.46174,
      "duration": 0.21730841666666834,
      "velocity": 0.5039370078740157,
      "name": "A5"
    },
    {
      "midi": 42,
      "frequency": 92.49860567790861,
      "time": 60.46174,
      "duration": 0.4365399166666677,
      "velocity": 0.5039370078740157,
      "name": "F#2"
    },
    {
      "midi": 80,
      "frequency": 830.6093951598903,
      "time": 60.69251,
      "duration": 0.21730841666666834,
      "velocity": 0.5039370078740157,
      "name": "G#5"
    },
    {
      "midi": 81,
      "frequency": 880,
      "time": 60.92328,
      "duration": 0.21730841666666834,
      "velocity": 0.5039370078740157,
      "name": "A5"
    },
    {
      "midi": 50,
      "frequency": 146.8323839587038,
      "time": 60.92328,
      "duration": 0.4365399166666677,
      "velocity": 0.5039370078740157,
      "name": "D3"
    },
    {
      "midi": 69,
      "frequency": 440,
      "time": 61.15405,
      "duration": 0.21730841666666834,
      "velocity": 0.5039370078740157,
      "name": "A4"
    },
    {
      "midi": 76,
      "frequency": 659.2551138257398,
      "time": 61.38482,
      "duration": 0.21730841666666834,
      "velocity": 0.5039370078740157,
      "name": "E5"
    },
    {
      "midi": 57,
      "frequency": 220,
      "time": 61.38482,
      "duration": 0.4365399166666677,
      "velocity": 0.5039370078740157,
      "name": "A3"
    },
    {
      "midi": 69,
      "frequency": 440,
      "time": 61.61559,
      "duration": 0.21730841666666834,
      "velocity": 0.5039370078740157,
      "name": "A4"
    },
    {
      "midi": 81,
      "frequency": 880,
      "time": 61.846360000000004,
      "duration": 0.21730841666666123,
      "velocity": 0.5039370078740157,
      "name": "A5"
    },
    {
      "midi": 61,
      "frequency": 277.1826309768721,
      "time": 61.846360000000004,
      "duration": 0.4365399166666606,
      "velocity": 0.5039370078740157,
      "name": "C#4"
    },
    {
      "midi": 81,
      "frequency": 880,
      "time": 62.077130000000004,
      "duration": 0.107692666666658,
      "velocity": 0.5039370078740157,
      "name": "A5"
    },
    {
      "midi": 83,
      "frequency": 987.7666025122483,
      "time": 62.192515,
      "duration": 0.107692666666658,
      "velocity": 0.5039370078740157,
      "name": "B5"
    },
    {
      "midi": 81,
      "frequency": 880,
      "time": 62.307900000000004,
      "duration": 0.21730841666666123,
      "velocity": 0.5039370078740157,
      "name": "A5"
    },
    {
      "midi": 50,
      "frequency": 146.8323839587038,
      "time": 62.307900000000004,
      "duration": 0.4365399166666606,
      "velocity": 0.5039370078740157,
      "name": "D3"
    },
    {
      "midi": 80,
      "frequency": 830.6093951598903,
      "time": 62.53867,
      "duration": 0.21730841666666123,
      "velocity": 0.5039370078740157,
      "name": "G#5"
    },
    {
      "midi": 81,
      "frequency": 880,
      "time": 62.76944,
      "duration": 0.21730841666666123,
      "velocity": 0.5039370078740157,
      "name": "A5"
    },
    {
      "midi": 45,
      "frequency": 110,
      "time": 62.76944,
      "duration": 0.4365399166666606,
      "velocity": 0.5039370078740157,
      "name": "A2"
    },
    {
      "midi": 83,
      "frequency": 987.7666025122483,
      "time": 63.00021,
      "duration": 0.21730841666666123,
      "velocity": 0.5039370078740157,
      "name": "B5"
    },
    {
      "midi": 85,
      "frequency": 1108.7305239074883,
      "time": 63.23098,
      "duration": 0.21730841666666123,
      "velocity": 0.5039370078740157,
      "name": "C#6"
    },
    {
      "midi": 52,
      "frequency": 164.81377845643496,
      "time": 63.23098,
      "duration": 0.4365399166666606,
      "velocity": 0.5039370078740157,
      "name": "E3"
    },
    {
      "midi": 86,
      "frequency": 1174.6590716696303,
      "time": 63.46175,
      "duration": 0.21730841666666123,
      "velocity": 0.5039370078740157,
      "name": "D6"
    },
    {
      "midi": 88,
      "frequency": 1318.5102276514797,
      "time": 63.69252,
      "duration": 0.21730841666666834,
      "velocity": 0.5039370078740157,
      "name": "E6"
    },
    {
      "midi": 61,
      "frequency": 277.1826309768721,
      "time": 63.69252,
      "duration": 0.4365399166666606,
      "velocity": 0.5039370078740157,
      "name": "C#4"
    },
    {
      "midi": 85,
      "frequency": 1108.7305239074883,
      "time": 63.92329,
      "duration": 0.21730841666666123,
      "velocity": 0.5039370078740157,
      "name": "C#6"
    },
    {
      "midi": 83,
      "frequency": 987.7666025122483,
      "time": 64.15406,
      "duration": 0.21730841666666834,
      "velocity": 0.5039370078740157,
      "name": "B5"
    },
    {
      "midi": 45,
      "frequency": 110,
      "time": 64.15406,
      "duration": 0.4365399166666606,
      "velocity": 0.5039370078740157,
      "name": "A2"
    },
    {
      "midi": 81,
      "frequency": 880,
      "time": 64.38483,
      "duration": 0.21730841666666834,
      "velocity": 0.5039370078740157,
      "name": "A5"
    },
    {
      "midi": 80,
      "frequency": 830.6093951598903,
      "time": 64.6156,
      "duration": 0.4365399166666606,
      "velocity": 0.5039370078740157,
      "name": "G#5"
    },
    {
      "midi": 40,
      "frequency": 82.40688922821748,
      "time": 64.6156,
      "duration": 0.4365399166666606,
      "velocity": 0.5039370078740157,
      "name": "E2"
    },
    {
      "midi": 71,
      "frequency": 493.8833012561241,
      "time": 65.07714,
      "duration": 0.4365399166666606,
      "velocity": 0.5039370078740157,
      "name": "B4"
    },
    {
      "midi": 47,
      "frequency": 123.47082531403103,
      "time": 65.07714,
      "duration": 0.4365399166666606,
      "velocity": 0.5039370078740157,
      "name": "B2"
    },
    {
      "midi": 81,
      "frequency": 880,
      "time": 65.53868,
      "duration": 0.21730841666666834,
      "velocity": 0.5039370078740157,
      "name": "A5"
    },
    {
      "midi": 56,
      "frequency": 207.65234878997256,
      "time": 65.53868,
      "duration": 0.4365399166666606,
      "velocity": 0.5039370078740157,
      "name": "G#3"
    },
    {
      "midi": 81,
      "frequency": 880,
      "time": 65.76945,
      "duration": 0.1076926666666509,
      "velocity": 0.5039370078740157,
      "name": "A5"
    },
    {
      "midi": 83,
      "frequency": 987.7666025122483,
      "time": 65.884835,
      "duration": 0.1076926666666651,
      "velocity": 0.5039370078740157,
      "name": "B5"
    },
    {
      "midi": 81,
      "frequency": 880,
      "time": 66.00022,
      "duration": 0.21730841666666834,
      "velocity": 0.5039370078740157,
      "name": "A5"
    },
    {
      "midi": 40,
      "frequency": 82.40688922821748,
      "time": 66.00022,
      "duration": 0.4365399166666606,
      "velocity": 0.5039370078740157,
      "name": "E2"
    },
    {
      "midi": 80,
      "frequency": 830.6093951598903,
      "time": 66.23099,
      "duration": 0.21730841666665413,
      "velocity": 0.5039370078740157,
      "name": "G#5"
    },
    {
      "midi": 81,
      "frequency": 880,
      "time": 66.46176,
      "duration": 0.21730841666666834,
      "velocity": 0.5039370078740157,
      "name": "A5"
    },
    {
      "midi": 42,
      "frequency": 92.49860567790861,
      "time": 66.46176,
      "duration": 0.4365399166666606,
      "velocity": 0.5039370078740157,
      "name": "F#2"
    },
    {
      "midi": 69,
      "frequency": 440,
      "time": 66.69253,
      "duration": 0.21730841666666834,
      "velocity": 0.5039370078740157,
      "name": "A4"
    },
    {
      "midi": 76,
      "frequency": 659.2551138257398,
      "time": 66.9233,
      "duration": 0.21730841666666834,
      "velocity": 0.5039370078740157,
      "name": "E5"
    },
    {
      "midi": 49,
      "frequency": 138.59131548843604,
      "time": 66.9233,
      "duration": 0.4365399166666606,
      "velocity": 0.5039370078740157,
      "name": "C#3"
    },
    {
      "midi": 69,
      "frequency": 440,
      "time": 67.15407,
      "duration": 0.21730841666666834,
      "velocity": 0.5039370078740157,
      "name": "A4"
    },
    {
      "midi": 81,
      "frequency": 880,
      "time": 67.38484,
      "duration": 0.21730841666666834,
      "velocity": 0.5039370078740157,
      "name": "A5"
    },
    {
      "midi": 54,
      "frequency": 184.99721135581723,
      "time": 67.38484,
      "duration": 0.4365399166666606,
      "velocity": 0.5039370078740157,
      "name": "F#3"
    },
    {
      "midi": 81,
      "frequency": 880,
      "time": 67.61561,
      "duration": 0.1076926666666509,
      "velocity": 0.5039370078740157,
      "name": "A5"
    },
    {
      "midi": 83,
      "frequency": 987.7666025122483,
      "time": 67.73099500000001,
      "duration": 0.1076926666666509,
      "velocity": 0.5039370078740157,
      "name": "B5"
    },
    {
      "midi": 81,
      "frequency": 880,
      "time": 67.84638,
      "duration": 0.21730841666666834,
      "velocity": 0.5039370078740157,
      "name": "A5"
    },
    {
      "midi": 42,
      "frequency": 92.49860567790861,
      "time": 67.84638,
      "duration": 0.4365399166666606,
      "velocity": 0.5039370078740157,
      "name": "F#2"
    },
    {
      "midi": 80,
      "frequency": 830.6093951598903,
      "time": 68.07715,
      "duration": 0.21730841666666834,
      "velocity": 0.5039370078740157,
      "name": "G#5"
    },
    {
      "midi": 81,
      "frequency": 880,
      "time": 68.30792,
      "duration": 0.21730841666666834,
      "velocity": 0.5039370078740157,
      "name": "A5"
    },
    {
      "midi": 50,
      "frequency": 146.8323839587038,
      "time": 68.30792,
      "duration": 0.4365399166666748,
      "velocity": 0.5039370078740157,
      "name": "D3"
    },
    {
      "midi": 69,
      "frequency": 440,
      "time": 68.53869,
      "duration": 0.21730841666666834,
      "velocity": 0.5039370078740157,
      "name": "A4"
    },
    {
      "midi": 76,
      "frequency": 659.2551138257398,
      "time": 68.76946,
      "duration": 0.21730841666666834,
      "velocity": 0.5039370078740157,
      "name": "E5"
    },
    {
      "midi": 57,
      "frequency": 220,
      "time": 68.76946,
      "duration": 0.4365399166666748,
      "velocity": 0.5039370078740157,
      "name": "A3"
    },
    {
      "midi": 69,
      "frequency": 440,
      "time": 69.00023,
      "duration": 0.21730841666666834,
      "velocity": 0.5039370078740157,
      "name": "A4"
    },
    {
      "midi": 81,
      "frequency": 880,
      "time": 69.231,
      "duration": 0.21730841666666834,
      "velocity": 0.5039370078740157,
      "name": "A5"
    },
    {
      "midi": 64,
      "frequency": 329.6275569128699,
      "time": 69.231,
      "duration": 0.4365399166666748,
      "velocity": 0.5039370078740157,
      "name": "E4"
    },
    {
      "midi": 83,
      "frequency": 987.7666025122483,
      "time": 69.46177,
      "duration": 0.21730841666666834,
      "velocity": 0.5039370078740157,
      "name": "B5"
    },
    {
      "midi": 81,
      "frequency": 880,
      "time": 69.69254,
      "duration": 0.21730841666666834,
      "velocity": 0.5039370078740157,
      "name": "A5"
    },
    {
      "midi": 50,
      "frequency": 146.8323839587038,
      "time": 69.69254,
      "duration": 0.4365399166666748,
      "velocity": 0.5039370078740157,
      "name": "D3"
    },
    {
      "midi": 80,
      "frequency": 830.6093951598903,
      "time": 69.92331,
      "duration": 0.21730841666666834,
      "velocity": 0.5039370078740157,
      "name": "G#5"
    },
    {
      "midi": 81,
      "frequency": 880,
      "time": 70.15408000000001,
      "duration": 0.21730841666665413,
      "velocity": 0.5039370078740157,
      "name": "A5"
    },
    {
      "midi": 45,
      "frequency": 110,
      "time": 70.15408000000001,
      "duration": 0.4365399166666606,
      "velocity": 0.5039370078740157,
      "name": "A2"
    },
    {
      "midi": 83,
      "frequency": 987.7666025122483,
      "time": 70.38485,
      "duration": 0.21730841666666834,
      "velocity": 0.5039370078740157,
      "name": "B5"
    },
    {
      "midi": 85,
      "frequency": 1108.7305239074883,
      "time": 70.61562,
      "duration": 0.21730841666665413,
      "velocity": 0.5039370078740157,
      "name": "C#6"
    },
    {
      "midi": 52,
      "frequency": 164.81377845643496,
      "time": 70.61562,
      "duration": 0.4365399166666606,
      "velocity": 0.5039370078740157,
      "name": "E3"
    },
    {
      "midi": 86,
      "frequency": 1174.6590716696303,
      "time": 70.84639,
      "duration": 0.21730841666666834,
      "velocity": 0.5039370078740157,
      "name": "D6"
    },
    {
      "midi": 88,
      "frequency": 1318.5102276514797,
      "time": 71.07716,
      "duration": 0.21730841666665413,
      "velocity": 0.5039370078740157,
      "name": "E6"
    },
    {
      "midi": 61,
      "frequency": 277.1826309768721,
      "time": 71.07716,
      "duration": 0.4365399166666606,
      "velocity": 0.5039370078740157,
      "name": "C#4"
    },
    {
      "midi": 85,
      "frequency": 1108.7305239074883,
      "time": 71.30793,
      "duration": 0.21730841666666834,
      "velocity": 0.5039370078740157,
      "name": "C#6"
    },
    {
      "midi": 83,
      "frequency": 987.7666025122483,
      "time": 71.5387,
      "duration": 0.21730841666665413,
      "velocity": 0.5039370078740157,
      "name": "B5"
    },
    {
      "midi": 45,
      "frequency": 110,
      "time": 71.5387,
      "duration": 0.4365399166666606,
      "velocity": 0.5039370078740157,
      "name": "A2"
    },
    {
      "midi": 81,
      "frequency": 880,
      "time": 71.76947,
      "duration": 0.21730841666666834,
      "velocity": 0.5039370078740157,
      "name": "A5"
    },
    {
      "midi": 80,
      "frequency": 830.6093951598903,
      "time": 72.00024,
      "duration": 0.4365399166666606,
      "velocity": 0.5039370078740157,
      "name": "G#5"
    },
    {
      "midi": 40,
      "frequency": 82.40688922821748,
      "time": 72.00024,
      "duration": 0.4365399166666606,
      "velocity": 0.5039370078740157,
      "name": "E2"
    },
    {
      "midi": 71,
      "frequency": 493.8833012561241,
      "time": 72.46178,
      "duration": 0.4365399166666606,
      "velocity": 0.5039370078740157,
      "name": "B4"
    },
    {
      "midi": 47,
      "frequency": 123.47082531403103,
      "time": 72.46178,
      "duration": 0.4365399166666606,
      "velocity": 0.5039370078740157,
      "name": "B2"
    },
    {
      "midi": 68,
      "frequency": 415.3046975799451,
      "time": 72.92332,
      "duration": 0.4365399166666606,
      "velocity": 0.5039370078740157,
      "name": "G#4"
    },
    {
      "midi": 56,
      "frequency": 207.65234878997256,
      "time": 72.92332,
      "duration": 1.7519289166666567,
      "velocity": 0.5039370078740157,
      "name": "G#3"
    },
    {
      "midi": 64,
      "frequency": 329.6275569128699,
      "time": 73.38486,
      "duration": 0.8750029166666735,
      "velocity": 0.5039370078740157,
      "name": "E4"
    },
    {
      "midi": 69,
      "frequency": 440,
      "time": 74.30794,
      "duration": 0.21730841666666834,
      "velocity": 0.5039370078740157,
      "name": "A4"
    },
    {
      "midi": 73,
      "frequency": 554.3652619537442,
      "time": 74.53871,
      "duration": 0.21730841666666834,
      "velocity": 0.5039370078740157,
      "name": "C#5"
    },
    {
      "midi": 81,
      "frequency": 880,
      "time": 74.76948,
      "duration": 0.4365399166666606,
      "velocity": 0.5039370078740157,
      "name": "A5"
    },
    {
      "midi": 54,
      "frequency": 184.99721135581723,
      "time": 74.76948,
      "duration": 0.4365399166666606,
      "velocity": 0.5039370078740157,
      "name": "F#3"
    },
    {
      "midi": 80,
      "frequency": 830.6093951598903,
      "time": 75.23102,
      "duration": 0.21730841666666834,
      "velocity": 0.5039370078740157,
      "name": "G#5"
    },
    {
      "midi": 61,
      "frequency": 277.1826309768721,
      "time": 75.23102,
      "duration": 0.4365399166666606,
      "velocity": 0.5039370078740157,
      "name": "C#4"
    },
    {
      "midi": 81,
      "frequency": 880,
      "time": 75.46179000000001,
      "duration": 0.4365399166666606,
      "velocity": 0.5039370078740157,
      "name": "A5"
    },
    {
      "midi": 66,
      "frequency": 369.99442271163446,
      "time": 75.69256,
      "duration": 0.8750029166666735,
      "velocity": 0.5039370078740157,
      "name": "F#4"
    },
    {
      "midi": 69,
      "frequency": 440,
      "time": 75.92333,
      "duration": 0.21730841666665413,
      "velocity": 0.5039370078740157,
      "name": "A4"
    },
    {
      "midi": 80,
      "frequency": 830.6093951598903,
      "time": 76.1541,
      "duration": 0.21730841666666834,
      "velocity": 0.5039370078740157,
      "name": "G#5"
    },
    {
      "midi": 81,
      "frequency": 880,
      "time": 76.38487,
      "duration": 0.4365399166666606,
      "velocity": 0.5039370078740157,
      "name": "A5"
    },
    {
      "midi": 50,
      "frequency": 146.8323839587038,
      "time": 76.61564,
      "duration": 0.4365399166666606,
      "velocity": 0.5039370078740157,
      "name": "D3"
    },
    {
      "midi": 69,
      "frequency": 440,
      "time": 76.84641,
      "duration": 0.21730841666665413,
      "velocity": 0.5039370078740157,
      "name": "A4"
    },
    {
      "midi": 80,
      "frequency": 830.6093951598903,
      "time": 77.07718,
      "duration": 0.21730841666666834,
      "velocity": 0.5039370078740157,
      "name": "G#5"
    },
    {
      "midi": 57,
      "frequency": 220,
      "time": 77.07718,
      "duration": 0.4365399166666606,
      "velocity": 0.5039370078740157,
      "name": "A3"
    },
    {
      "midi": 81,
      "frequency": 880,
      "time": 77.30795,
      "duration": 0.4365399166666606,
      "velocity": 0.5039370078740157,
      "name": "A5"
    },
    {
      "midi": 64,
      "frequency": 329.6275569128699,
      "time": 77.53872,
      "duration": 0.4365399166666606,
      "velocity": 0.5039370078740157,
      "name": "E4"
    },
    {
      "midi": 69,
      "frequency": 440,
      "time": 77.76949,
      "duration": 0.21730841666666834,
      "velocity": 0.5039370078740157,
      "name": "A4"
    },
    {
      "midi": 74,
      "frequency": 587.3295358348151,
      "time": 78.00026,
      "duration": 0.21730841666666834,
      "velocity": 0.5039370078740157,
      "name": "D5"
    },
    {
      "midi": 50,
      "frequency": 146.8323839587038,
      "time": 78.00026,
      "duration": 0.4365399166666606,
      "velocity": 0.5039370078740157,
      "name": "D3"
    },
    {
      "midi": 69,
      "frequency": 440,
      "time": 78.23103,
      "duration": 0.21730841666666834,
      "velocity": 0.5039370078740157,
      "name": "A4"
    },
    {
      "midi": 71,
      "frequency": 493.8833012561241,
      "time": 78.4618,
      "duration": 0.061538666666663744,
      "velocity": 0.5039370078740157,
      "name": "B4"
    },
    {
      "midi": 45,
      "frequency": 110,
      "time": 78.4618,
      "duration": 0.4365399166666606,
      "velocity": 0.5039370078740157,
      "name": "A2"
    },
    {
      "midi": 73,
      "frequency": 554.3652619537442,
      "time": 78.52526175,
      "duration": 0.37500124999999684,
      "velocity": 0.5039370078740157,
      "name": "C#5"
    },
    {
      "midi": 74,
      "frequency": 587.3295358348151,
      "time": 78.92334,
      "duration": 0.4365399166666748,
      "velocity": 0.5039370078740157,
      "name": "D5"
    },
    {
      "midi": 52,
      "frequency": 164.81377845643496,
      "time": 78.92334,
      "duration": 0.4365399166666748,
      "velocity": 0.5039370078740157,
      "name": "E3"
    },
    {
      "midi": 69,
      "frequency": 440,
      "time": 79.38488,
      "duration": 0.4365399166666748,
      "velocity": 0.5039370078740157,
      "name": "A4"
    },
    {
      "midi": 76,
      "frequency": 659.2551138257398,
      "time": 79.38488,
      "duration": 0.4365399166666748,
      "velocity": 0.5039370078740157,
      "name": "E5"
    },
    {
      "midi": 61,
      "frequency": 277.1826309768721,
      "time": 79.38488,
      "duration": 0.4365399166666748,
      "velocity": 0.5039370078740157,
      "name": "C#4"
    },
    {
      "midi": 73,
      "frequency": 554.3652619537442,
      "time": 79.84642,
      "duration": 0.4365399166666748,
      "velocity": 0.5039370078740157,
      "name": "C#5"
    },
    {
      "midi": 45,
      "frequency": 110,
      "time": 79.84642,
      "duration": 0.4365399166666748,
      "velocity": 0.5039370078740157,
      "name": "A2"
    },
    {
      "midi": 68,
      "frequency": 415.3046975799451,
      "time": 80.30796,
      "duration": 1.3134659166666722,
      "velocity": 0.5039370078740157,
      "name": "G#4"
    },
    {
      "midi": 71,
      "frequency": 493.8833012561241,
      "time": 80.30796,
      "duration": 1.3134659166666722,
      "velocity": 0.5039370078740157,
      "name": "B4"
    },
    {
      "midi": 52,
      "frequency": 164.81377845643496,
      "time": 80.30796,
      "duration": 0.4365399166666748,
      "velocity": 0.5039370078740157,
      "name": "E3"
    },
    {
      "midi": 59,
      "frequency": 246.94165062806206,
      "time": 80.76950000000001,
      "duration": 0.4365399166666606,
      "velocity": 0.5039370078740157,
      "name": "B3"
    },
    {
      "midi": 64,
      "frequency": 329.6275569128699,
      "time": 81.23104000000001,
      "duration": 0.8750029166666593,
      "velocity": 0.5039370078740157,
      "name": "E4"
    },
    {
      "midi": 69,
      "frequency": 440,
      "time": 81.69258,
      "duration": 0.21730841666665413,
      "velocity": 0.5039370078740157,
      "name": "A4"
    },
    {
      "midi": 68,
      "frequency": 415.3046975799451,
      "time": 81.92335,
      "duration": 0.21730841666666834,
      "velocity": 0.5039370078740157,
      "name": "G#4"
    },
    {
      "midi": 64,
      "frequency": 329.6275569128699,
      "time": 82.15412,
      "duration": 0.9211569166666607,
      "velocity": 0.5039370078740157,
      "name": "E4"
    },
    {
      "midi": 69,
      "frequency": 440,
      "time": 82.15412,
      "duration": 0.9211569166666607,
      "velocity": 0.5039370078740157,
      "name": "A4"
    },
    {
      "midi": 54,
      "frequency": 184.99721135581723,
      "time": 82.15412,
      "duration": 0.4365399166666606,
      "velocity": 0.5039370078740157,
      "name": "F#3"
    },
    {
      "midi": 61,
      "frequency": 277.1826309768721,
      "time": 82.61566,
      "duration": 1.313465916666658,
      "velocity": 0.5039370078740157,
      "name": "C#4"
    },
    {
      "midi": 64,
      "frequency": 329.6275569128699,
      "time": 83.0772,
      "duration": 0.21730841666666834,
      "velocity": 0.5039370078740157,
      "name": "E4"
    },
    {
      "midi": 69,
      "frequency": 440,
      "time": 83.0772,
      "duration": 0.21730841666666834,
      "velocity": 0.5039370078740157,
      "name": "A4"
    },
    {
      "midi": 64,
      "frequency": 329.6275569128699,
      "time": 83.30797,
      "duration": 0.21730841666666834,
      "velocity": 0.5039370078740157,
      "name": "E4"
    },
    {
      "midi": 69,
      "frequency": 440,
      "time": 83.53874,
      "duration": 0.21730841666666834,
      "velocity": 0.5039370078740157,
      "name": "A4"
    },
    {
      "midi": 71,
      "frequency": 493.8833012561241,
      "time": 83.76951,
      "duration": 0.21730841666666834,
      "velocity": 0.5039370078740157,
      "name": "B4"
    },
    {
      "midi": 73,
      "frequency": 554.3652619537442,
      "time": 84.00028,
      "duration": 0.21730841666666834,
      "velocity": 0.5039370078740157,
      "name": "C#5"
    },
    {
      "midi": 50,
      "frequency": 146.8323839587038,
      "time": 84.00028,
      "duration": 0.4365399166666606,
      "velocity": 0.5039370078740157,
      "name": "D3"
    },
    {
      "midi": 64,
      "frequency": 329.6275569128699,
      "time": 84.23105,
      "duration": 0.21730841666666834,
      "velocity": 0.5039370078740157,
      "name": "E4"
    },
    {
      "midi": 69,
      "frequency": 440,
      "time": 84.46182,
      "duration": 0.21730841666666834,
      "velocity": 0.5039370078740157,
      "name": "A4"
    },
    {
      "midi": 57,
      "frequency": 220,
      "time": 84.46182,
      "duration": 0.4365399166666606,
      "velocity": 0.5039370078740157,
      "name": "A3"
    },
    {
      "midi": 71,
      "frequency": 493.8833012561241,
      "time": 84.69259,
      "duration": 0.21730841666666834,
      "velocity": 0.5039370078740157,
      "name": "B4"
    },
    {
      "midi": 73,
      "frequency": 554.3652619537442,
      "time": 84.92336,
      "duration": 0.21730841666666834,
      "velocity": 0.5039370078740157,
      "name": "C#5"
    },
    {
      "midi": 62,
      "frequency": 293.6647679174076,
      "time": 84.92336,
      "duration": 0.8750029166666735,
      "velocity": 0.5039370078740157,
      "name": "D4"
    },
    {
      "midi": 64,
      "frequency": 329.6275569128699,
      "time": 85.15413,
      "duration": 0.21730841666666834,
      "velocity": 0.5039370078740157,
      "name": "E4"
    },
    {
      "midi": 73,
      "frequency": 554.3652619537442,
      "time": 85.3849,
      "duration": 0.21730841666666834,
      "velocity": 0.5039370078740157,
      "name": "C#5"
    },
    {
      "midi": 74,
      "frequency": 587.3295358348151,
      "time": 85.61567,
      "duration": 0.21730841666666834,
      "velocity": 0.5039370078740157,
      "name": "D5"
    },
    {
      "midi": 76,
      "frequency": 659.2551138257398,
      "time": 85.84644,
      "duration": 0.21730841666666834,
      "velocity": 0.5039370078740157,
      "name": "E5"
    },
    {
      "midi": 45,
      "frequency": 110,
      "time": 85.84644,
      "duration": 0.4365399166666606,
      "velocity": 0.5039370078740157,
      "name": "A2"
    },
    {
      "midi": 64,
      "frequency": 329.6275569128699,
      "time": 86.07721000000001,
      "duration": 0.21730841666665413,
      "velocity": 0.5039370078740157,
      "name": "E4"
    },
    {
      "midi": 73,
      "frequency": 554.3652619537442,
      "time": 86.30798,
      "duration": 0.21730841666666834,
      "velocity": 0.5039370078740157,
      "name": "C#5"
    },
    {
      "midi": 52,
      "frequency": 164.81377845643496,
      "time": 86.30798,
      "duration": 0.4365399166666606,
      "velocity": 0.5039370078740157,
      "name": "E3"
    },
    {
      "midi": 74,
      "frequency": 587.3295358348151,
      "time": 86.53875000000001,
      "duration": 0.21730841666665413,
      "velocity": 0.5039370078740157,
      "name": "D5"
    },
    {
      "midi": 76,
      "frequency": 659.2551138257398,
      "time": 86.76952,
      "duration": 0.21730841666666834,
      "velocity": 0.5039370078740157,
      "name": "E5"
    },
    {
      "midi": 61,
      "frequency": 277.1826309768721,
      "time": 86.76952,
      "duration": 0.4365399166666606,
      "velocity": 0.5039370078740157,
      "name": "C#4"
    },
    {
      "midi": 64,
      "frequency": 329.6275569128699,
      "time": 87.00029,
      "duration": 0.21730841666665413,
      "velocity": 0.5039370078740157,
      "name": "E4"
    },
    {
      "midi": 74,
      "frequency": 587.3295358348151,
      "time": 87.23106,
      "duration": 0.21730841666666834,
      "velocity": 0.5039370078740157,
      "name": "D5"
    },
    {
      "midi": 45,
      "frequency": 110,
      "time": 87.23106,
      "duration": 0.4365399166666606,
      "velocity": 0.5039370078740157,
      "name": "A2"
    },
    {
      "midi": 73,
      "frequency": 554.3652619537442,
      "time": 87.46183,
      "duration": 0.21730841666665413,
      "velocity": 0.5039370078740157,
      "name": "C#5"
    },
    {
      "midi": 71,
      "frequency": 493.8833012561241,
      "time": 87.6926,
      "duration": 0.21730841666666834,
      "velocity": 0.5039370078740157,
      "name": "B4"
    },
    {
      "midi": 52,
      "frequency": 164.81377845643496,
      "time": 87.6926,
      "duration": 0.4365399166666606,
      "velocity": 0.5039370078740157,
      "name": "E3"
    },
    {
      "midi": 64,
      "frequency": 329.6275569128699,
      "time": 87.92337,
      "duration": 0.21730841666666834,
      "velocity": 0.5039370078740157,
      "name": "E4"
    },
    {
      "midi": 74,
      "frequency": 587.3295358348151,
      "time": 88.15414,
      "duration": 0.21730841666666834,
      "velocity": 0.5039370078740157,
      "name": "D5"
    },
    {
      "midi": 59,
      "frequency": 246.94165062806206,
      "time": 88.15414,
      "duration": 0.4365399166666606,
      "velocity": 0.5039370078740157,
      "name": "B3"
    },
    {
      "midi": 73,
      "frequency": 554.3652619537442,
      "time": 88.38491,
      "duration": 0.21730841666666834,
      "velocity": 0.5039370078740157,
      "name": "C#5"
    },
    {
      "midi": 71,
      "frequency": 493.8833012561241,
      "time": 88.61568,
      "duration": 0.4365399166666606,
      "velocity": 0.5039370078740157,
      "name": "B4"
    },
    {
      "midi": 64,
      "frequency": 329.6275569128699,
      "time": 88.61568,
      "duration": 0.8750029166666735,
      "velocity": 0.5039370078740157,
      "name": "E4"
    },
    {
      "midi": 68,
      "frequency": 415.3046975799451,
      "time": 89.07722,
      "duration": 0.4365399166666606,
      "velocity": 0.5039370078740157,
      "name": "G#4"
    },
    {
      "midi": 73,
      "frequency": 554.3652619537442,
      "time": 89.53876,
      "duration": 0.061538666666663744,
      "velocity": 0.5039370078740157,
      "name": "C#5"
    },
    {
      "midi": 54,
      "frequency": 184.99721135581723,
      "time": 89.53876,
      "duration": 0.4365399166666748,
      "velocity": 0.5039370078740157,
      "name": "F#3"
    },
    {
      "midi": 81,
      "frequency": 880,
      "time": 89.60222175,
      "duration": 0.37500124999999684,
      "velocity": 0.5039370078740157,
      "name": "A5"
    },
    {
      "midi": 80,
      "frequency": 830.6093951598903,
      "time": 90.0003,
      "duration": 0.21730841666666834,
      "velocity": 0.5039370078740157,
      "name": "G#5"
    },
    {
      "midi": 61,
      "frequency": 277.1826309768721,
      "time": 90.0003,
      "duration": 0.4365399166666748,
      "velocity": 0.5039370078740157,
      "name": "C#4"
    },
    {
      "midi": 81,
      "frequency": 880,
      "time": 90.23107,
      "duration": 0.4365399166666606,
      "velocity": 0.5039370078740157,
      "name": "A5"
    },
    {
      "midi": 66,
      "frequency": 369.99442271163446,
      "time": 90.46184,
      "duration": 0.4365399166666748,
      "velocity": 0.5039370078740157,
      "name": "F#4"
    },
    {
      "midi": 69,
      "frequency": 440,
      "time": 90.69261,
      "duration": 0.21730841666666834,
      "velocity": 0.5039370078740157,
      "name": "A4"
    },
    {
      "midi": 80,
      "frequency": 830.6093951598903,
      "time": 90.92338,
      "duration": 0.21730841666666834,
      "velocity": 0.5039370078740157,
      "name": "G#5"
    },
    {
      "midi": 54,
      "frequency": 184.99721135581723,
      "time": 90.92338,
      "duration": 0.4365399166666748,
      "velocity": 0.5039370078740157,
      "name": "F#3"
    },
    {
      "midi": 81,
      "frequency": 880,
      "time": 91.15415,
      "duration": 0.4365399166666606,
      "velocity": 0.5039370078740157,
      "name": "A5"
    },
    {
      "midi": 50,
      "frequency": 146.8323839587038,
      "time": 91.38492000000001,
      "duration": 0.4365399166666606,
      "velocity": 0.5039370078740157,
      "name": "D3"
    },
    {
      "midi": 69,
      "frequency": 440,
      "time": 91.61569,
      "duration": 0.21730841666666834,
      "velocity": 0.5039370078740157,
      "name": "A4"
    },
    {
      "midi": 76,
      "frequency": 659.2551138257398,
      "time": 91.84646000000001,
      "duration": 0.21730841666665413,
      "velocity": 0.5039370078740157,
      "name": "E5"
    },
    {
      "midi": 57,
      "frequency": 220,
      "time": 91.84646000000001,
      "duration": 0.4365399166666606,
      "velocity": 0.5039370078740157,
      "name": "A3"
    },
    {
      "midi": 81,
      "frequency": 880,
      "time": 92.07723,
      "duration": 0.4365399166666606,
      "velocity": 0.5039370078740157,
      "name": "A5"
    },
    {
      "midi": 64,
      "frequency": 329.6275569128699,
      "time": 92.308,
      "duration": 0.4365399166666606,
      "velocity": 0.5039370078740157,
      "name": "E4"
    },
    {
      "midi": 69,
      "frequency": 440,
      "time": 92.53877,
      "duration": 0.21730841666666834,
      "velocity": 0.5039370078740157,
      "name": "A4"
    },
    {
      "midi": 74,
      "frequency": 587.3295358348151,
      "time": 92.76954,
      "duration": 0.21730841666665413,
      "velocity": 0.5039370078740157,
      "name": "D5"
    },
    {
      "midi": 50,
      "frequency": 146.8323839587038,
      "time": 92.76954,
      "duration": 0.4365399166666606,
      "velocity": 0.5039370078740157,
      "name": "D3"
    },
    {
      "midi": 69,
      "frequency": 440,
      "time": 93.00031,
      "duration": 0.21730841666666834,
      "velocity": 0.5039370078740157,
      "name": "A4"
    },
    {
      "midi": 71,
      "frequency": 493.8833012561241,
      "time": 93.23108,
      "duration": 0.061538666666663744,
      "velocity": 0.5039370078740157,
      "name": "B4"
    },
    {
      "midi": 45,
      "frequency": 110,
      "time": 93.23108,
      "duration": 0.4365399166666606,
      "velocity": 0.5039370078740157,
      "name": "A2"
    },
    {
      "midi": 73,
      "frequency": 554.3652619537442,
      "time": 93.29454175,
      "duration": 0.37500124999999684,
      "velocity": 0.5039370078740157,
      "name": "C#5"
    },
    {
      "midi": 74,
      "frequency": 587.3295358348151,
      "time": 93.69262,
      "duration": 0.4365399166666606,
      "velocity": 0.5039370078740157,
      "name": "D5"
    },
    {
      "midi": 52,
      "frequency": 164.81377845643496,
      "time": 93.69262,
      "duration": 0.4365399166666606,
      "velocity": 0.5039370078740157,
      "name": "E3"
    },
    {
      "midi": 76,
      "frequency": 659.2551138257398,
      "time": 94.15416,
      "duration": 0.4365399166666606,
      "velocity": 0.5039370078740157,
      "name": "E5"
    },
    {
      "midi": 61,
      "frequency": 277.1826309768721,
      "time": 94.15416,
      "duration": 0.4365399166666606,
      "velocity": 0.5039370078740157,
      "name": "C#4"
    },
    {
      "midi": 85,
      "frequency": 1108.7305239074883,
      "time": 94.6157,
      "duration": 0.4365399166666606,
      "velocity": 0.5039370078740157,
      "name": "C#6"
    },
    {
      "midi": 45,
      "frequency": 110,
      "time": 94.6157,
      "duration": 0.4365399166666606,
      "velocity": 0.5039370078740157,
      "name": "A2"
    },
    {
      "midi": 83,
      "frequency": 987.7666025122483,
      "time": 95.07724,
      "duration": 0.4365399166666606,
      "velocity": 0.5039370078740157,
      "name": "B5"
    },
    {
      "midi": 52,
      "frequency": 164.81377845643496,
      "time": 95.07724,
      "duration": 0.4365399166666606,
      "velocity": 0.5039370078740157,
      "name": "E3"
    },
    {
      "midi": 76,
      "frequency": 659.2551138257398,
      "time": 95.53878,
      "duration": 0.4365399166666606,
      "velocity": 0.5039370078740157,
      "name": "E5"
    },
    {
      "midi": 59,
      "frequency": 246.94165062806206,
      "time": 95.53878,
      "duration": 0.4365399166666606,
      "velocity": 0.5039370078740157,
      "name": "B3"
    },
    {
      "midi": 76,
      "frequency": 659.2551138257398,
      "time": 96.00032,
      "duration": 0.11346191666666527,
      "velocity": 0.5039370078740157,
      "name": "E5"
    },
    {
      "midi": 64,
      "frequency": 329.6275569128699,
      "time": 96.00032,
      "duration": 0.4365399166666606,
      "velocity": 0.5039370078740157,
      "name": "E4"
    },
    {
      "midi": 85,
      "frequency": 1108.7305239074883,
      "time": 96.115705,
      "duration": 0.11346191666666527,
      "velocity": 0.5039370078740157,
      "name": "C#6"
    },
    {
      "midi": 83,
      "frequency": 987.7666025122483,
      "time": 96.23109,
      "duration": 0.21730841666666834,
      "velocity": 0.5039370078740157,
      "name": "B5"
    },
    {
      "midi": 81,
      "frequency": 880,
      "time": 96.46186,
      "duration": 0.21730841666666834,
      "velocity": 0.5039370078740157,
      "name": "A5"
    },
    {
      "midi": 52,
      "frequency": 164.81377845643496,
      "time": 96.46186,
      "duration": 0.4365399166666606,
      "velocity": 0.5039370078740157,
      "name": "E3"
    },
    {
      "midi": 80,
      "frequency": 830.6093951598903,
      "time": 96.69263000000001,
      "duration": 0.21730841666665413,
      "velocity": 0.5039370078740157,
      "name": "G#5"
    },
    {
      "midi": 76,
      "frequency": 659.2551138257398,
      "time": 96.9234,
      "duration": 1.3134659166666722,
      "velocity": 0.5039370078740157,
      "name": "E5"
    },
    {
      "midi": 81,
      "frequency": 880,
      "time": 96.9234,
      "duration": 1.3134659166666722,
      "velocity": 0.5039370078740157,
      "name": "A5"
    },
    {
      "midi": 54,
      "frequency": 184.99721135581723,
      "time": 96.9234,
      "duration": 0.4365399166666606,
      "velocity": 0.5039370078740157,
      "name": "F#3"
    },
    {
      "midi": 61,
      "frequency": 277.1826309768721,
      "time": 97.38494,
      "duration": 0.4365399166666606,
      "velocity": 0.5039370078740157,
      "name": "C#4"
    },
    {
      "midi": 66,
      "frequency": 369.99442271163446,
      "time": 97.84648,
      "duration": 0.8750029166666735,
      "velocity": 0.5039370078740157,
      "name": "F#4"
    },
    {
      "midi": 69,
      "frequency": 440,
      "time": 98.30802,
      "duration": 0.21730841666666834,
      "velocity": 0.5039370078740157,
      "name": "A4"
    },
    {
      "midi": 71,
      "frequency": 493.8833012561241,
      "time": 98.53879,
      "duration": 0.21730841666665413,
      "velocity": 0.5039370078740157,
      "name": "B4"
    },
    {
      "midi": 73,
      "frequency": 554.3652619537442,
      "time": 98.76956,
      "duration": 0.21730841666666834,
      "velocity": 0.5039370078740157,
      "name": "C#5"
    },
    {
      "midi": 50,
      "frequency": 146.8323839587038,
      "time": 98.76956,
      "duration": 0.4365399166666606,
      "velocity": 0.5039370078740157,
      "name": "D3"
    },
    {
      "midi": 64,
      "frequency": 329.6275569128699,
      "time": 99.00033,
      "duration": 0.21730841666666834,
      "velocity": 0.5039370078740157,
      "name": "E4"
    },
    {
      "midi": 69,
      "frequency": 440,
      "time": 99.2311,
      "duration": 0.21730841666666834,
      "velocity": 0.5039370078740157,
      "name": "A4"
    },
    {
      "midi": 57,
      "frequency": 220,
      "time": 99.2311,
      "duration": 0.4365399166666606,
      "velocity": 0.5039370078740157,
      "name": "A3"
    },
    {
      "midi": 71,
      "frequency": 493.8833012561241,
      "time": 99.46187,
      "duration": 0.21730841666666834,
      "velocity": 0.5039370078740157,
      "name": "B4"
    },
    {
      "midi": 73,
      "frequency": 554.3652619537442,
      "time": 99.69264,
      "duration": 0.21730841666666834,
      "velocity": 0.5039370078740157,
      "name": "C#5"
    },
    {
      "midi": 62,
      "frequency": 293.6647679174076,
      "time": 99.69264,
      "duration": 0.4365399166666606,
      "velocity": 0.5039370078740157,
      "name": "D4"
    },
    {
      "midi": 64,
      "frequency": 329.6275569128699,
      "time": 99.92341,
      "duration": 0.21730841666666834,
      "velocity": 0.5039370078740157,
      "name": "E4"
    },
    {
      "midi": 73,
      "frequency": 554.3652619537442,
      "time": 100.15418,
      "duration": 0.21730841666666834,
      "velocity": 0.5039370078740157,
      "name": "C#5"
    },
    {
      "midi": 50,
      "frequency": 146.8323839587038,
      "time": 100.15418,
      "duration": 0.4365399166666748,
      "velocity": 0.5039370078740157,
      "name": "D3"
    },
    {
      "midi": 74,
      "frequency": 587.3295358348151,
      "time": 100.38495,
      "duration": 0.21730841666666834,
      "velocity": 0.5039370078740157,
      "name": "D5"
    },
    {
      "midi": 76,
      "frequency": 659.2551138257398,
      "time": 100.61572,
      "duration": 0.21730841666666834,
      "velocity": 0.5039370078740157,
      "name": "E5"
    },
    {
      "midi": 45,
      "frequency": 110,
      "time": 100.61572,
      "duration": 0.4365399166666748,
      "velocity": 0.5039370078740157,
      "name": "A2"
    },
    {
      "midi": 64,
      "frequency": 329.6275569128699,
      "time": 100.84649,
      "duration": 0.21730841666666834,
      "velocity": 0.5039370078740157,
      "name": "E4"
    },
    {
      "midi": 73,
      "frequency": 554.3652619537442,
      "time": 101.07726,
      "duration": 0.21730841666666834,
      "velocity": 0.5039370078740157,
      "name": "C#5"
    },
    {
      "midi": 52,
      "frequency": 164.81377845643496,
      "time": 101.07726,
      "duration": 0.4365399166666748,
      "velocity": 0.5039370078740157,
      "name": "E3"
    },
    {
      "midi": 74,
      "frequency": 587.3295358348151,
      "time": 101.30803,
      "duration": 0.21730841666666834,
      "velocity": 0.5039370078740157,
      "name": "D5"
    },
    {
      "midi": 76,
      "frequency": 659.2551138257398,
      "time": 101.5388,
      "duration": 0.21730841666666834,
      "velocity": 0.5039370078740157,
      "name": "E5"
    },
    {
      "midi": 61,
      "frequency": 277.1826309768721,
      "time": 101.5388,
      "duration": 0.4365399166666748,
      "velocity": 0.5039370078740157,
      "name": "C#4"
    },
    {
      "midi": 64,
      "frequency": 329.6275569128699,
      "time": 101.76957,
      "duration": 0.21730841666666834,
      "velocity": 0.5039370078740157,
      "name": "E4"
    },
    {
      "midi": 74,
      "frequency": 587.3295358348151,
      "time": 102.00034,
      "duration": 0.21730841666666834,
      "velocity": 0.5039370078740157,
      "name": "D5"
    },
    {
      "midi": 45,
      "frequency": 110,
      "time": 102.00034,
      "duration": 0.4365399166666748,
      "velocity": 0.5039370078740157,
      "name": "A2"
    },
    {
      "midi": 73,
      "frequency": 554.3652619537442,
      "time": 102.23111,
      "duration": 0.21730841666666834,
      "velocity": 0.5039370078740157,
      "name": "C#5"
    },
    {
      "midi": 71,
      "frequency": 493.8833012561241,
      "time": 102.46188000000001,
      "duration": 0.21730841666665413,
      "velocity": 0.5039370078740157,
      "name": "B4"
    },
    {
      "midi": 40,
      "frequency": 82.40688922821748,
      "time": 102.46188000000001,
      "duration": 0.4365399166666606,
      "velocity": 0.5039370078740157,
      "name": "E2"
    },
    {
      "midi": 64,
      "frequency": 329.6275569128699,
      "time": 102.69265,
      "duration": 0.21730841666666834,
      "velocity": 0.5039370078740157,
      "name": "E4"
    },
    {
      "midi": 68,
      "frequency": 415.3046975799451,
      "time": 102.92342000000001,
      "duration": 0.21730841666665413,
      "velocity": 0.5039370078740157,
      "name": "G#4"
    },
    {
      "midi": 47,
      "frequency": 123.47082531403103,
      "time": 102.92342000000001,
      "duration": 0.4365399166666606,
      "velocity": 0.5039370078740157,
      "name": "B2"
    },
    {
      "midi": 71,
      "frequency": 493.8833012561241,
      "time": 103.15419,
      "duration": 0.21730841666666834,
      "velocity": 0.5039370078740157,
      "name": "B4"
    },
    {
      "midi": 81,
      "frequency": 880,
      "time": 103.38496,
      "duration": 0.21730841666665413,
      "velocity": 0.5039370078740157,
      "name": "A5"
    },
    {
      "midi": 56,
      "frequency": 207.65234878997256,
      "time": 103.38496,
      "duration": 0.4365399166666606,
      "velocity": 0.5039370078740157,
      "name": "G#3"
    },
    {
      "midi": 83,
      "frequency": 987.7666025122483,
      "time": 103.61573,
      "duration": 0.21730841666666834,
      "velocity": 0.5039370078740157,
      "name": "B5"
    },
    {
      "midi": 81,
      "frequency": 880,
      "time": 103.8465,
      "duration": 0.21730841666665413,
      "velocity": 0.5039370078740157,
      "name": "A5"
    },
    {
      "midi": 40,
      "frequency": 82.40688922821748,
      "time": 103.8465,
      "duration": 0.4365399166666606,
      "velocity": 0.5039370078740157,
      "name": "E2"
    },
    {
      "midi": 80,
      "frequency": 830.6093951598903,
      "time": 104.07727,
      "duration": 0.21730841666666834,
      "velocity": 0.5039370078740157,
      "name": "G#5"
    },
    {
      "midi": 81,
      "frequency": 880,
      "time": 104.30804,
      "duration": 0.21730841666666834,
      "velocity": 0.5039370078740157,
      "name": "A5"
    },
    {
      "midi": 42,
      "frequency": 92.49860567790861,
      "time": 104.30804,
      "duration": 0.4365399166666606,
      "velocity": 0.5039370078740157,
      "name": "F#2"
    },
    {
      "midi": 69,
      "frequency": 440,
      "time": 104.53881,
      "duration": 0.21730841666666834,
      "velocity": 0.5039370078740157,
      "name": "A4"
    },
    {
      "midi": 76,
      "frequency": 659.2551138257398,
      "time": 104.76958,
      "duration": 0.21730841666666834,
      "velocity": 0.5039370078740157,
      "name": "E5"
    },
    {
      "midi": 49,
      "frequency": 138.59131548843604,
      "time": 104.76958,
      "duration": 0.4365399166666606,
      "velocity": 0.5039370078740157,
      "name": "C#3"
    },
    {
      "midi": 69,
      "frequency": 440,
      "time": 105.00035,
      "duration": 0.21730841666666834,
      "velocity": 0.5039370078740157,
      "name": "A4"
    },
    {
      "midi": 81,
      "frequency": 880,
      "time": 105.23112,
      "duration": 0.21730841666666834,
      "velocity": 0.5039370078740157,
      "name": "A5"
    },
    {
      "midi": 66,
      "frequency": 369.99442271163446,
      "time": 105.23112,
      "duration": 0.4365399166666606,
      "velocity": 0.5039370078740157,
      "name": "F#4"
    },
    {
      "midi": 81,
      "frequency": 880,
      "time": 105.46189,
      "duration": 0.1076926666666651,
      "velocity": 0.5039370078740157,
      "name": "A5"
    },
    {
      "midi": 83,
      "frequency": 987.7666025122483,
      "time": 105.577275,
      "duration": 0.1076926666666651,
      "velocity": 0.5039370078740157,
      "name": "B5"
    },
    {
      "midi": 81,
      "frequency": 880,
      "time": 105.69266,
      "duration": 0.21730841666666834,
      "velocity": 0.5039370078740157,
      "name": "A5"
    },
    {
      "midi": 54,
      "frequency": 184.99721135581723,
      "time": 105.69266,
      "duration": 0.4365399166666606,
      "velocity": 0.5039370078740157,
      "name": "F#3"
    },
    {
      "midi": 80,
      "frequency": 830.6093951598903,
      "time": 105.92343,
      "duration": 0.21730841666666834,
      "velocity": 0.5039370078740157,
      "name": "G#5"
    },
    {
      "midi": 81,
      "frequency": 880,
      "time": 106.1542,
      "duration": 0.21730841666666834,
      "velocity": 0.5039370078740157,
      "name": "A5"
    },
    {
      "midi": 50,
      "frequency": 146.8323839587038,
      "time": 106.1542,
      "duration": 0.4365399166666606,
      "velocity": 0.5039370078740157,
      "name": "D3"
    },
    {
      "midi": 69,
      "frequency": 440,
      "time": 106.38497,
      "duration": 0.21730841666666834,
      "velocity": 0.5039370078740157,
      "name": "A4"
    },
    {
      "midi": 76,
      "frequency": 659.2551138257398,
      "time": 106.61574,
      "duration": 0.21730841666666834,
      "velocity": 0.5039370078740157,
      "name": "E5"
    },
    {
      "midi": 57,
      "frequency": 220,
      "time": 106.61574,
      "duration": 0.4365399166666606,
      "velocity": 0.5039370078740157,
      "name": "A3"
    },
    {
      "midi": 69,
      "frequency": 440,
      "time": 106.84651,
      "duration": 0.21730841666666834,
      "velocity": 0.5039370078740157,
      "name": "A4"
    },
    {
      "midi": 81,
      "frequency": 880,
      "time": 107.07728,
      "duration": 0.21730841666666834,
      "velocity": 0.5039370078740157,
      "name": "A5"
    },
    {
      "midi": 64,
      "frequency": 329.6275569128699,
      "time": 107.07728,
      "duration": 0.4365399166666606,
      "velocity": 0.5039370078740157,
      "name": "E4"
    },
    {
      "midi": 81,
      "frequency": 880,
      "time": 107.30805,
      "duration": 0.1076926666666651,
      "velocity": 0.5039370078740157,
      "name": "A5"
    },
    {
      "midi": 83,
      "frequency": 987.7666025122483,
      "time": 107.423435,
      "duration": 0.1076926666666651,
      "velocity": 0.5039370078740157,
      "name": "B5"
    },
    {
      "midi": 81,
      "frequency": 880,
      "time": 107.53882,
      "duration": 0.21730841666666834,
      "velocity": 0.5039370078740157,
      "name": "A5"
    },
    {
      "midi": 50,
      "frequency": 146.8323839587038,
      "time": 107.53882,
      "duration": 0.4365399166666606,
      "velocity": 0.5039370078740157,
      "name": "D3"
    },
    {
      "midi": 80,
      "frequency": 830.6093951598903,
      "time": 107.76959000000001,
      "duration": 0.21730841666665413,
      "velocity": 0.5039370078740157,
      "name": "G#5"
    },
    {
      "midi": 81,
      "frequency": 880,
      "time": 108.00036,
      "duration": 0.21730841666666834,
      "velocity": 0.5039370078740157,
      "name": "A5"
    },
    {
      "midi": 45,
      "frequency": 110,
      "time": 108.00036,
      "duration": 0.4365399166666606,
      "velocity": 0.5039370078740157,
      "name": "A2"
    },
    {
      "midi": 83,
      "frequency": 987.7666025122483,
      "time": 108.23113000000001,
      "duration": 0.21730841666665413,
      "velocity": 0.5039370078740157,
      "name": "B5"
    },
    {
      "midi": 85,
      "frequency": 1108.7305239074883,
      "time": 108.4619,
      "duration": 0.21730841666666834,
      "velocity": 0.5039370078740157,
      "name": "C#6"
    },
    {
      "midi": 52,
      "frequency": 164.81377845643496,
      "time": 108.4619,
      "duration": 0.4365399166666606,
      "velocity": 0.5039370078740157,
      "name": "E3"
    },
    {
      "midi": 86,
      "frequency": 1174.6590716696303,
      "time": 108.69267,
      "duration": 0.21730841666665413,
      "velocity": 0.5039370078740157,
      "name": "D6"
    },
    {
      "midi": 88,
      "frequency": 1318.5102276514797,
      "time": 108.92344,
      "duration": 0.21730841666666834,
      "velocity": 0.5039370078740157,
      "name": "E6"
    },
    {
      "midi": 61,
      "frequency": 277.1826309768721,
      "time": 108.92344,
      "duration": 0.4365399166666606,
      "velocity": 0.5039370078740157,
      "name": "C#4"
    },
    {
      "midi": 85,
      "frequency": 1108.7305239074883,
      "time": 109.15421,
      "duration": 0.21730841666665413,
      "velocity": 0.5039370078740157,
      "name": "C#6"
    },
    {
      "midi": 83,
      "frequency": 987.7666025122483,
      "time": 109.38498,
      "duration": 0.055769416666677785,
      "velocity": 0.5039370078740157,
      "name": "B5"
    },
    {
      "midi": 45,
      "frequency": 110,
      "time": 109.38498,
      "duration": 0.4365399166666606,
      "velocity": 0.5039370078740157,
      "name": "A2"
    },
    {
      "midi": 85,
      "frequency": 1108.7305239074883,
      "time": 109.4426725,
      "duration": 0.055769416666663574,
      "velocity": 0.5039370078740157,
      "name": "C#6"
    },
    {
      "midi": 83,
      "frequency": 987.7666025122483,
      "time": 109.500365,
      "duration": 0.1076926666666651,
      "velocity": 0.5039370078740157,
      "name": "B5"
    },
    {
      "midi": 81,
      "frequency": 880,
      "time": 109.61575,
      "duration": 0.21730841666666834,
      "velocity": 0.5039370078740157,
      "name": "A5"
    },
    {
      "midi": 80,
      "frequency": 830.6093951598903,
      "time": 109.84652,
      "duration": 0.21730841666666834,
      "velocity": 0.5039370078740157,
      "name": "G#5"
    },
    {
      "midi": 40,
      "frequency": 82.40688922821748,
      "time": 109.84652,
      "duration": 0.4365399166666606,
      "velocity": 0.5039370078740157,
      "name": "E2"
    },
    {
      "midi": 69,
      "frequency": 440,
      "time": 110.07729,
      "duration": 0.21730841666666834,
      "velocity": 0.5039370078740157,
      "name": "A4"
    },
    {
      "midi": 76,
      "frequency": 659.2551138257398,
      "time": 110.30806,
      "duration": 0.21730841666666834,
      "velocity": 0.5039370078740157,
      "name": "E5"
    },
    {
      "midi": 47,
      "frequency": 123.47082531403103,
      "time": 110.30806,
      "duration": 0.4365399166666606,
      "velocity": 0.5039370078740157,
      "name": "B2"
    },
    {
      "midi": 69,
      "frequency": 440,
      "time": 110.53883,
      "duration": 0.21730841666666834,
      "velocity": 0.5039370078740157,
      "name": "A4"
    },
    {
      "midi": 81,
      "frequency": 880,
      "time": 110.7696,
      "duration": 0.21730841666666834,
      "velocity": 0.5039370078740157,
      "name": "A5"
    },
    {
      "midi": 56,
      "frequency": 207.65234878997256,
      "time": 110.7696,
      "duration": 0.4365399166666606,
      "velocity": 0.5039370078740157,
      "name": "G#3"
    },
    {
      "midi": 81,
      "frequency": 880,
      "time": 111.00037,
      "duration": 0.1076926666666651,
      "velocity": 0.5039370078740157,
      "name": "A5"
    },
    {
      "midi": 83,
      "frequency": 987.7666025122483,
      "time": 111.11575500000001,
      "duration": 0.1076926666666509,
      "velocity": 0.5039370078740157,
      "name": "B5"
    },
    {
      "midi": 81,
      "frequency": 880,
      "time": 111.23114,
      "duration": 0.21730841666666834,
      "velocity": 0.5039370078740157,
      "name": "A5"
    },
    {
      "midi": 40,
      "frequency": 82.40688922821748,
      "time": 111.23114,
      "duration": 0.4365399166666748,
      "velocity": 0.5039370078740157,
      "name": "E2"
    },
    {
      "midi": 80,
      "frequency": 830.6093951598903,
      "time": 111.46191,
      "duration": 0.21730841666666834,
      "velocity": 0.5039370078740157,
      "name": "G#5"
    },
    {
      "midi": 81,
      "frequency": 880,
      "time": 111.69268,
      "duration": 0.21730841666666834,
      "velocity": 0.5039370078740157,
      "name": "A5"
    },
    {
      "midi": 42,
      "frequency": 92.49860567790861,
      "time": 111.69268,
      "duration": 0.4365399166666748,
      "velocity": 0.5039370078740157,
      "name": "F#2"
    },
    {
      "midi": 69,
      "frequency": 440,
      "time": 111.92345,
      "duration": 0.21730841666666834,
      "velocity": 0.5039370078740157,
      "name": "A4"
    },
    {
      "midi": 76,
      "frequency": 659.2551138257398,
      "time": 112.15422,
      "duration": 0.21730841666666834,
      "velocity": 0.5039370078740157,
      "name": "E5"
    },
    {
      "midi": 49,
      "frequency": 138.59131548843604,
      "time": 112.15422,
      "duration": 0.4365399166666748,
      "velocity": 0.5039370078740157,
      "name": "C#3"
    },
    {
      "midi": 69,
      "frequency": 440,
      "time": 112.38499,
      "duration": 0.21730841666666834,
      "velocity": 0.5039370078740157,
      "name": "A4"
    },
    {
      "midi": 81,
      "frequency": 880,
      "time": 112.61576,
      "duration": 0.21730841666666834,
      "velocity": 0.5039370078740157,
      "name": "A5"
    },
    {
      "midi": 66,
      "frequency": 369.99442271163446,
      "time": 112.61576,
      "duration": 0.4365399166666748,
      "velocity": 0.5039370078740157,
      "name": "F#4"
    },
    {
      "midi": 81,
      "frequency": 880,
      "time": 112.84653,
      "duration": 0.1076926666666651,
      "velocity": 0.5039370078740157,
      "name": "A5"
    },
    {
      "midi": 83,
      "frequency": 987.7666025122483,
      "time": 112.961915,
      "duration": 0.1076926666666509,
      "velocity": 0.5039370078740157,
      "name": "B5"
    },
    {
      "midi": 81,
      "frequency": 880,
      "time": 113.07730000000001,
      "duration": 0.21730841666665413,
      "velocity": 0.5039370078740157,
      "name": "A5"
    },
    {
      "midi": 54,
      "frequency": 184.99721135581723,
      "time": 113.07730000000001,
      "duration": 0.4365399166666606,
      "velocity": 0.5039370078740157,
      "name": "F#3"
    },
    {
      "midi": 80,
      "frequency": 830.6093951598903,
      "time": 113.30807,
      "duration": 0.21730841666666834,
      "velocity": 0.5039370078740157,
      "name": "G#5"
    },
    {
      "midi": 81,
      "frequency": 880,
      "time": 113.53884000000001,
      "duration": 0.21730841666665413,
      "velocity": 0.5039370078740157,
      "name": "A5"
    },
    {
      "midi": 50,
      "frequency": 146.8323839587038,
      "time": 113.53884000000001,
      "duration": 0.4365399166666606,
      "velocity": 0.5039370078740157,
      "name": "D3"
    },
    {
      "midi": 69,
      "frequency": 440,
      "time": 113.76961,
      "duration": 0.21730841666666834,
      "velocity": 0.5039370078740157,
      "name": "A4"
    },
    {
      "midi": 76,
      "frequency": 659.2551138257398,
      "time": 114.00038,
      "duration": 0.21730841666665413,
      "velocity": 0.5039370078740157,
      "name": "E5"
    },
    {
      "midi": 57,
      "frequency": 220,
      "time": 114.00038,
      "duration": 0.4365399166666606,
      "velocity": 0.5039370078740157,
      "name": "A3"
    },
    {
      "midi": 69,
      "frequency": 440,
      "time": 114.23115,
      "duration": 0.21730841666666834,
      "velocity": 0.5039370078740157,
      "name": "A4"
    },
    {
      "midi": 81,
      "frequency": 880,
      "time": 114.46192,
      "duration": 0.21730841666665413,
      "velocity": 0.5039370078740157,
      "name": "A5"
    },
    {
      "midi": 64,
      "frequency": 329.6275569128699,
      "time": 114.46192,
      "duration": 0.4365399166666606,
      "velocity": 0.5039370078740157,
      "name": "E4"
    },
    {
      "midi": 81,
      "frequency": 880,
      "time": 114.69269,
      "duration": 0.1076926666666651,
      "velocity": 0.5039370078740157,
      "name": "A5"
    },
    {
      "midi": 83,
      "frequency": 987.7666025122483,
      "time": 114.808075,
      "duration": 0.1076926666666651,
      "velocity": 0.5039370078740157,
      "name": "B5"
    },
    {
      "midi": 81,
      "frequency": 880,
      "time": 114.92346,
      "duration": 0.21730841666666834,
      "velocity": 0.5039370078740157,
      "name": "A5"
    },
    {
      "midi": 50,
      "frequency": 146.8323839587038,
      "time": 114.92346,
      "duration": 0.4365399166666606,
      "velocity": 0.5039370078740157,
      "name": "D3"
    },
    {
      "midi": 80,
      "frequency": 830.6093951598903,
      "time": 115.15423,
      "duration": 0.21730841666666834,
      "velocity": 0.5039370078740157,
      "name": "G#5"
    },
    {
      "midi": 81,
      "frequency": 880,
      "time": 115.385,
      "duration": 0.21730841666666834,
      "velocity": 0.5039370078740157,
      "name": "A5"
    },
    {
      "midi": 45,
      "frequency": 110,
      "time": 115.385,
      "duration": 0.4365399166666606,
      "velocity": 0.5039370078740157,
      "name": "A2"
    },
    {
      "midi": 83,
      "frequency": 987.7666025122483,
      "time": 115.61577,
      "duration": 0.21730841666666834,
      "velocity": 0.5039370078740157,
      "name": "B5"
    },
    {
      "midi": 85,
      "frequency": 1108.7305239074883,
      "time": 115.84654,
      "duration": 0.21730841666666834,
      "velocity": 0.5039370078740157,
      "name": "C#6"
    },
    {
      "midi": 52,
      "frequency": 164.81377845643496,
      "time": 115.84654,
      "duration": 0.4365399166666606,
      "velocity": 0.5039370078740157,
      "name": "E3"
    },
    {
      "midi": 86,
      "frequency": 1174.6590716696303,
      "time": 116.07731,
      "duration": 0.21730841666666834,
      "velocity": 0.5039370078740157,
      "name": "D6"
    },
    {
      "midi": 88,
      "frequency": 1318.5102276514797,
      "time": 116.30808,
      "duration": 0.21730841666666834,
      "velocity": 0.5039370078740157,
      "name": "E6"
    },
    {
      "midi": 61,
      "frequency": 277.1826309768721,
      "time": 116.30808,
      "duration": 0.4365399166666606,
      "velocity": 0.5039370078740157,
      "name": "C#4"
    },
    {
      "midi": 85,
      "frequency": 1108.7305239074883,
      "time": 116.53885,
      "duration": 0.21730841666666834,
      "velocity": 0.5039370078740157,
      "name": "C#6"
    },
    {
      "midi": 83,
      "frequency": 987.7666025122483,
      "time": 116.76962,
      "duration": 0.055769416666663574,
      "velocity": 0.5039370078740157,
      "name": "B5"
    },
    {
      "midi": 45,
      "frequency": 110,
      "time": 116.76962,
      "duration": 0.4365399166666606,
      "velocity": 0.5039370078740157,
      "name": "A2"
    },
    {
      "midi": 85,
      "frequency": 1108.7305239074883,
      "time": 116.8273125,
      "duration": 0.055769416666663574,
      "velocity": 0.5039370078740157,
      "name": "C#6"
    },
    {
      "midi": 83,
      "frequency": 987.7666025122483,
      "time": 116.885005,
      "duration": 0.1076926666666509,
      "velocity": 0.5039370078740157,
      "name": "B5"
    },
    {
      "midi": 81,
      "frequency": 880,
      "time": 117.00039,
      "duration": 0.21730841666666834,
      "velocity": 0.5039370078740157,
      "name": "A5"
    },
    {
      "midi": 80,
      "frequency": 830.6093951598903,
      "time": 117.23116,
      "duration": 0.21730841666666834,
      "velocity": 0.5039370078740157,
      "name": "G#5"
    },
    {
      "midi": 40,
      "frequency": 82.40688922821748,
      "time": 117.23116,
      "duration": 0.4365399166666606,
      "velocity": 0.5039370078740157,
      "name": "E2"
    },
    {
      "midi": 69,
      "frequency": 440,
      "time": 117.46193,
      "duration": 0.21730841666666834,
      "velocity": 0.5039370078740157,
      "name": "A4"
    },
    {
      "midi": 76,
      "frequency": 659.2551138257398,
      "time": 117.6927,
      "duration": 0.21730841666666834,
      "velocity": 0.5039370078740157,
      "name": "E5"
    },
    {
      "midi": 47,
      "frequency": 123.47082531403103,
      "time": 117.6927,
      "duration": 0.4365399166666606,
      "velocity": 0.5039370078740157,
      "name": "B2"
    },
    {
      "midi": 69,
      "frequency": 440,
      "time": 117.92347,
      "duration": 0.21730841666666834,
      "velocity": 0.5039370078740157,
      "name": "A4"
    },
    {
      "midi": 81,
      "frequency": 880,
      "time": 118.15424,
      "duration": 0.21730841666668255,
      "velocity": 0.5039370078740157,
      "name": "A5"
    },
    {
      "midi": 56,
      "frequency": 207.65234878997256,
      "time": 118.15424,
      "duration": 0.4365399166666606,
      "velocity": 0.5039370078740157,
      "name": "G#3"
    },
    {
      "midi": 81,
      "frequency": 880,
      "time": 118.38501000000001,
      "duration": 0.1076926666666651,
      "velocity": 0.5039370078740157,
      "name": "A5"
    },
    {
      "midi": 83,
      "frequency": 987.7666025122483,
      "time": 118.500395,
      "duration": 0.10769266666667932,
      "velocity": 0.5039370078740157,
      "name": "B5"
    },
    {
      "midi": 81,
      "frequency": 880,
      "time": 118.61578,
      "duration": 0.21730841666668255,
      "velocity": 0.5039370078740157,
      "name": "A5"
    },
    {
      "midi": 40,
      "frequency": 82.40688922821748,
      "time": 118.61578,
      "duration": 0.4365399166666606,
      "velocity": 0.5039370078740157,
      "name": "E2"
    },
    {
      "midi": 80,
      "frequency": 830.6093951598903,
      "time": 118.84655000000001,
      "duration": 0.21730841666666834,
      "velocity": 0.5039370078740157,
      "name": "G#5"
    },
    {
      "midi": 81,
      "frequency": 880,
      "time": 119.07732,
      "duration": 0.21730841666668255,
      "velocity": 0.5039370078740157,
      "name": "A5"
    },
    {
      "midi": 42,
      "frequency": 92.49860567790861,
      "time": 119.07732,
      "duration": 0.4365399166666606,
      "velocity": 0.5039370078740157,
      "name": "F#2"
    },
    {
      "midi": 69,
      "frequency": 440,
      "time": 119.30809,
      "duration": 0.21730841666666834,
      "velocity": 0.5039370078740157,
      "name": "A4"
    },
    {
      "midi": 76,
      "frequency": 659.2551138257398,
      "time": 119.53886,
      "duration": 0.21730841666668255,
      "velocity": 0.5039370078740157,
      "name": "E5"
    },
    {
      "midi": 49,
      "frequency": 138.59131548843604,
      "time": 119.53886,
      "duration": 0.4365399166666606,
      "velocity": 0.5039370078740157,
      "name": "C#3"
    },
    {
      "midi": 69,
      "frequency": 440,
      "time": 119.76963,
      "duration": 0.21730841666666834,
      "velocity": 0.5039370078740157,
      "name": "A4"
    },
    {
      "midi": 81,
      "frequency": 880,
      "time": 120.0004,
      "duration": 0.21730841666668255,
      "velocity": 0.5039370078740157,
      "name": "A5"
    },
    {
      "midi": 66,
      "frequency": 369.99442271163446,
      "time": 120.0004,
      "duration": 0.4365399166666606,
      "velocity": 0.5039370078740157,
      "name": "F#4"
    },
    {
      "midi": 83,
      "frequency": 987.7666025122483,
      "time": 120.23117,
      "duration": 0.21730841666666834,
      "velocity": 0.5039370078740157,
      "name": "B5"
    },
    {
      "midi": 81,
      "frequency": 880,
      "time": 120.46194,
      "duration": 0.21730841666668255,
      "velocity": 0.5039370078740157,
      "name": "A5"
    },
    {
      "midi": 54,
      "frequency": 184.99721135581723,
      "time": 120.46194,
      "duration": 0.4365399166666606,
      "velocity": 0.5039370078740157,
      "name": "F#3"
    },
    {
      "midi": 80,
      "frequency": 830.6093951598903,
      "time": 120.69271,
      "duration": 0.21730841666666834,
      "velocity": 0.5039370078740157,
      "name": "G#5"
    },
    {
      "midi": 81,
      "frequency": 880,
      "time": 120.92348,
      "duration": 0.21730841666668255,
      "velocity": 0.5039370078740157,
      "name": "A5"
    },
    {
      "midi": 50,
      "frequency": 146.8323839587038,
      "time": 120.92348,
      "duration": 0.4365399166666606,
      "velocity": 0.5039370078740157,
      "name": "D3"
    },
    {
      "midi": 69,
      "frequency": 440,
      "time": 121.15425,
      "duration": 0.21730841666668255,
      "velocity": 0.5039370078740157,
      "name": "A4"
    },
    {
      "midi": 76,
      "frequency": 659.2551138257398,
      "time": 121.38502,
      "duration": 0.21730841666668255,
      "velocity": 0.5039370078740157,
      "name": "E5"
    },
    {
      "midi": 57,
      "frequency": 220,
      "time": 121.38502,
      "duration": 0.4365399166666606,
      "velocity": 0.5039370078740157,
      "name": "A3"
    },
    {
      "midi": 69,
      "frequency": 440,
      "time": 121.61579,
      "duration": 0.21730841666668255,
      "velocity": 0.5039370078740157,
      "name": "A4"
    },
    {
      "midi": 81,
      "frequency": 880,
      "time": 121.84656,
      "duration": 0.21730841666668255,
      "velocity": 0.5039370078740157,
      "name": "A5"
    },
    {
      "midi": 64,
      "frequency": 329.6275569128699,
      "time": 121.84656,
      "duration": 0.4365399166666748,
      "velocity": 0.5039370078740157,
      "name": "E4"
    },
    {
      "midi": 81,
      "frequency": 880,
      "time": 122.07733,
      "duration": 0.1076926666666651,
      "velocity": 0.5039370078740157,
      "name": "A5"
    },
    {
      "midi": 83,
      "frequency": 987.7666025122483,
      "time": 122.192715,
      "duration": 0.1076926666666651,
      "velocity": 0.5039370078740157,
      "name": "B5"
    },
    {
      "midi": 81,
      "frequency": 880,
      "time": 122.3081,
      "duration": 0.21730841666668255,
      "velocity": 0.5039370078740157,
      "name": "A5"
    },
    {
      "midi": 50,
      "frequency": 146.8323839587038,
      "time": 122.3081,
      "duration": 0.4365399166666748,
      "velocity": 0.5039370078740157,
      "name": "D3"
    },
    {
      "midi": 80,
      "frequency": 830.6093951598903,
      "time": 122.53887,
      "duration": 0.21730841666668255,
      "velocity": 0.5039370078740157,
      "name": "G#5"
    },
    {
      "midi": 81,
      "frequency": 880,
      "time": 122.76964,
      "duration": 0.21730841666668255,
      "velocity": 0.5039370078740157,
      "name": "A5"
    },
    {
      "midi": 45,
      "frequency": 110,
      "time": 122.76964,
      "duration": 0.4365399166666748,
      "velocity": 0.5039370078740157,
      "name": "A2"
    },
    {
      "midi": 83,
      "frequency": 987.7666025122483,
      "time": 123.00041,
      "duration": 0.21730841666668255,
      "velocity": 0.5039370078740157,
      "name": "B5"
    },
    {
      "midi": 85,
      "frequency": 1108.7305239074883,
      "time": 123.23118,
      "duration": 0.21730841666668255,
      "velocity": 0.5039370078740157,
      "name": "C#6"
    },
    {
      "midi": 52,
      "frequency": 164.81377845643496,
      "time": 123.23118,
      "duration": 0.4365399166666748,
      "velocity": 0.5039370078740157,
      "name": "E3"
    },
    {
      "midi": 86,
      "frequency": 1174.6590716696303,
      "time": 123.46195,
      "duration": 0.21730841666668255,
      "velocity": 0.5039370078740157,
      "name": "D6"
    },
    {
      "midi": 88,
      "frequency": 1318.5102276514797,
      "time": 123.69272000000001,
      "duration": 0.21730841666666834,
      "velocity": 0.5039370078740157,
      "name": "E6"
    },
    {
      "midi": 61,
      "frequency": 277.1826309768721,
      "time": 123.69272000000001,
      "duration": 0.4365399166666606,
      "velocity": 0.5039370078740157,
      "name": "C#4"
    },
    {
      "midi": 85,
      "frequency": 1108.7305239074883,
      "time": 123.92349,
      "duration": 0.21730841666668255,
      "velocity": 0.5039370078740157,
      "name": "C#6"
    },
    {
      "midi": 83,
      "frequency": 987.7666025122483,
      "time": 124.15426000000001,
      "duration": 0.21730841666666834,
      "velocity": 0.5039370078740157,
      "name": "B5"
    },
    {
      "midi": 45,
      "frequency": 110,
      "time": 124.15426000000001,
      "duration": 0.4365399166666606,
      "velocity": 0.5039370078740157,
      "name": "A2"
    },
    {
      "midi": 81,
      "frequency": 880,
      "time": 124.38503,
      "duration": 0.21730841666668255,
      "velocity": 0.5039370078740157,
      "name": "A5"
    },
    {
      "midi": 80,
      "frequency": 830.6093951598903,
      "time": 124.61580000000001,
      "duration": 0.4365399166666606,
      "velocity": 0.5039370078740157,
      "name": "G#5"
    },
    {
      "midi": 40,
      "frequency": 82.40688922821748,
      "time": 124.61580000000001,
      "duration": 0.4365399166666606,
      "velocity": 0.5039370078740157,
      "name": "E2"
    },
    {
      "midi": 71,
      "frequency": 493.8833012561241,
      "time": 125.07734,
      "duration": 0.4365399166666606,
      "velocity": 0.5039370078740157,
      "name": "B4"
    },
    {
      "midi": 47,
      "frequency": 123.47082531403103,
      "time": 125.07734,
      "duration": 0.4365399166666606,
      "velocity": 0.5039370078740157,
      "name": "B2"
    },
    {
      "midi": 81,
      "frequency": 880,
      "time": 125.53888,
      "duration": 0.21730841666666834,
      "velocity": 0.5039370078740157,
      "name": "A5"
    },
    {
      "midi": 56,
      "frequency": 207.65234878997256,
      "time": 125.53888,
      "duration": 0.4365399166666606,
      "velocity": 0.5039370078740157,
      "name": "G#3"
    },
    {
      "midi": 81,
      "frequency": 880,
      "time": 125.76965,
      "duration": 0.10769266666667932,
      "velocity": 0.5039370078740157,
      "name": "A5"
    },
    {
      "midi": 83,
      "frequency": 987.7666025122483,
      "time": 125.885035,
      "duration": 0.10769266666667932,
      "velocity": 0.5039370078740157,
      "name": "B5"
    },
    {
      "midi": 81,
      "frequency": 880,
      "time": 126.00042,
      "duration": 0.21730841666666834,
      "velocity": 0.5039370078740157,
      "name": "A5"
    },
    {
      "midi": 40,
      "frequency": 82.40688922821748,
      "time": 126.00042,
      "duration": 0.4365399166666606,
      "velocity": 0.5039370078740157,
      "name": "E2"
    },
    {
      "midi": 80,
      "frequency": 830.6093951598903,
      "time": 126.23119,
      "duration": 0.21730841666668255,
      "velocity": 0.5039370078740157,
      "name": "G#5"
    },
    {
      "midi": 81,
      "frequency": 880,
      "time": 126.46196,
      "duration": 0.21730841666668255,
      "velocity": 0.5039370078740157,
      "name": "A5"
    },
    {
      "midi": 42,
      "frequency": 92.49860567790861,
      "time": 126.46196,
      "duration": 0.4365399166666606,
      "velocity": 0.5039370078740157,
      "name": "F#2"
    },
    {
      "midi": 69,
      "frequency": 440,
      "time": 126.69273,
      "duration": 0.21730841666668255,
      "velocity": 0.5039370078740157,
      "name": "A4"
    },
    {
      "midi": 76,
      "frequency": 659.2551138257398,
      "time": 126.9235,
      "duration": 0.21730841666668255,
      "velocity": 0.5039370078740157,
      "name": "E5"
    },
    {
      "midi": 49,
      "frequency": 138.59131548843604,
      "time": 126.9235,
      "duration": 0.4365399166666606,
      "velocity": 0.5039370078740157,
      "name": "C#3"
    },
    {
      "midi": 69,
      "frequency": 440,
      "time": 127.15427,
      "duration": 0.21730841666668255,
      "velocity": 0.5039370078740157,
      "name": "A4"
    },
    {
      "midi": 81,
      "frequency": 880,
      "time": 127.38504,
      "duration": 0.21730841666668255,
      "velocity": 0.5039370078740157,
      "name": "A5"
    },
    {
      "midi": 66,
      "frequency": 369.99442271163446,
      "time": 127.38504,
      "duration": 0.4365399166666606,
      "velocity": 0.5039370078740157,
      "name": "F#4"
    },
    {
      "midi": 81,
      "frequency": 880,
      "time": 127.61581,
      "duration": 0.10769266666667932,
      "velocity": 0.5039370078740157,
      "name": "A5"
    },
    {
      "midi": 83,
      "frequency": 987.7666025122483,
      "time": 127.731195,
      "duration": 0.10769266666667932,
      "velocity": 0.5039370078740157,
      "name": "B5"
    },
    {
      "midi": 81,
      "frequency": 880,
      "time": 127.84658,
      "duration": 0.21730841666668255,
      "velocity": 0.5039370078740157,
      "name": "A5"
    },
    {
      "midi": 54,
      "frequency": 184.99721135581723,
      "time": 127.84658,
      "duration": 0.4365399166666606,
      "velocity": 0.5039370078740157,
      "name": "F#3"
    },
    {
      "midi": 80,
      "frequency": 830.6093951598903,
      "time": 128.07735,
      "duration": 0.21730841666669676,
      "velocity": 0.5039370078740157,
      "name": "G#5"
    },
    {
      "midi": 81,
      "frequency": 880,
      "time": 128.30812,
      "duration": 0.21730841666666834,
      "velocity": 0.5039370078740157,
      "name": "A5"
    },
    {
      "midi": 50,
      "frequency": 146.8323839587038,
      "time": 128.30812,
      "duration": 0.4365399166666748,
      "velocity": 0.5039370078740157,
      "name": "D3"
    },
    {
      "midi": 69,
      "frequency": 440,
      "time": 128.53889,
      "duration": 0.21730841666666834,
      "velocity": 0.5039370078740157,
      "name": "A4"
    },
    {
      "midi": 76,
      "frequency": 659.2551138257398,
      "time": 128.76966,
      "duration": 0.21730841666669676,
      "velocity": 0.5039370078740157,
      "name": "E5"
    },
    {
      "midi": 57,
      "frequency": 220,
      "time": 128.76966,
      "duration": 0.4365399166666748,
      "velocity": 0.5039370078740157,
      "name": "A3"
    },
    {
      "midi": 69,
      "frequency": 440,
      "time": 129.00043,
      "duration": 0.21730841666669676,
      "velocity": 0.5039370078740157,
      "name": "A4"
    },
    {
      "midi": 81,
      "frequency": 880,
      "time": 129.2312,
      "duration": 0.21730841666666834,
      "velocity": 0.5039370078740157,
      "name": "A5"
    },
    {
      "midi": 64,
      "frequency": 329.6275569128699,
      "time": 129.2312,
      "duration": 0.4365399166666748,
      "velocity": 0.5039370078740157,
      "name": "E4"
    },
    {
      "midi": 81,
      "frequency": 880,
      "time": 129.46197,
      "duration": 0.10769266666667932,
      "velocity": 0.5039370078740157,
      "name": "A5"
    },
    {
      "midi": 83,
      "frequency": 987.7666025122483,
      "time": 129.577355,
      "duration": 0.1076926666666509,
      "velocity": 0.5039370078740157,
      "name": "B5"
    },
    {
      "midi": 81,
      "frequency": 880,
      "time": 129.69274000000001,
      "duration": 0.21730841666666834,
      "velocity": 0.5039370078740157,
      "name": "A5"
    },
    {
      "midi": 50,
      "frequency": 146.8323839587038,
      "time": 129.69274000000001,
      "duration": 0.4365399166666464,
      "velocity": 0.5039370078740157,
      "name": "D3"
    },
    {
      "midi": 80,
      "frequency": 830.6093951598903,
      "time": 129.92351,
      "duration": 0.21730841666669676,
      "velocity": 0.5039370078740157,
      "name": "G#5"
    },
    {
      "midi": 81,
      "frequency": 880,
      "time": 130.15428,
      "duration": 0.21730841666666834,
      "velocity": 0.5039370078740157,
      "name": "A5"
    },
    {
      "midi": 45,
      "frequency": 110,
      "time": 130.15428,
      "duration": 0.4365399166666748,
      "velocity": 0.5039370078740157,
      "name": "A2"
    },
    {
      "midi": 83,
      "frequency": 987.7666025122483,
      "time": 130.38505,
      "duration": 0.21730841666666834,
      "velocity": 0.5039370078740157,
      "name": "B5"
    },
    {
      "midi": 85,
      "frequency": 1108.7305239074883,
      "time": 130.61582,
      "duration": 0.21730841666666834,
      "velocity": 0.5039370078740157,
      "name": "C#6"
    },
    {
      "midi": 52,
      "frequency": 164.81377845643496,
      "time": 130.61582,
      "duration": 0.4365399166666464,
      "velocity": 0.5039370078740157,
      "name": "E3"
    },
    {
      "midi": 86,
      "frequency": 1174.6590716696303,
      "time": 130.84659,
      "duration": 0.21730841666669676,
      "velocity": 0.5039370078740157,
      "name": "D6"
    },
    {
      "midi": 88,
      "frequency": 1318.5102276514797,
      "time": 131.07736,
      "duration": 0.21730841666666834,
      "velocity": 0.5039370078740157,
      "name": "E6"
    },
    {
      "midi": 61,
      "frequency": 277.1826309768721,
      "time": 131.07736,
      "duration": 0.4365399166666748,
      "velocity": 0.5039370078740157,
      "name": "C#4"
    },
    {
      "midi": 85,
      "frequency": 1108.7305239074883,
      "time": 131.30813,
      "duration": 0.21730841666666834,
      "velocity": 0.5039370078740157,
      "name": "C#6"
    },
    {
      "midi": 83,
      "frequency": 987.7666025122483,
      "time": 131.5389,
      "duration": 0.21730841666666834,
      "velocity": 0.5039370078740157,
      "name": "B5"
    },
    {
      "midi": 45,
      "frequency": 110,
      "time": 131.5389,
      "duration": 0.4365399166666464,
      "velocity": 0.5039370078740157,
      "name": "A2"
    },
    {
      "midi": 81,
      "frequency": 880,
      "time": 131.76967,
      "duration": 0.21730841666669676,
      "velocity": 0.5039370078740157,
      "name": "A5"
    },
    {
      "midi": 80,
      "frequency": 830.6093951598903,
      "time": 132.00044,
      "duration": 0.4365399166666748,
      "velocity": 0.5039370078740157,
      "name": "G#5"
    },
    {
      "midi": 40,
      "frequency": 82.40688922821748,
      "time": 132.00044,
      "duration": 0.4365399166666748,
      "velocity": 0.5039370078740157,
      "name": "E2"
    },
    {
      "midi": 71,
      "frequency": 493.8833012561241,
      "time": 132.46198,
      "duration": 0.4365399166666464,
      "velocity": 0.5039370078740157,
      "name": "B4"
    },
    {
      "midi": 47,
      "frequency": 123.47082531403103,
      "time": 132.46198,
      "duration": 0.4365399166666464,
      "velocity": 0.5039370078740157,
      "name": "B2"
    },
    {
      "midi": 68,
      "frequency": 415.3046975799451,
      "time": 132.92352,
      "duration": 0.4365399166666748,
      "velocity": 0.5039370078740157,
      "name": "G#4"
    },
    {
      "midi": 56,
      "frequency": 207.65234878997256,
      "time": 132.92352,
      "duration": 0.8750029166666593,
      "velocity": 0.5039370078740157,
      "name": "G#3"
    },
    {
      "midi": 64,
      "frequency": 329.6275569128699,
      "time": 133.38506,
      "duration": 0.4365399166666464,
      "velocity": 0.5039370078740157,
      "name": "E4"
    },
    {
      "midi": 69,
      "frequency": 440,
      "time": 133.8466,
      "duration": 0.11346191666666527,
      "velocity": 0.5039370078740157,
      "name": "A4"
    },
    {
      "midi": 54,
      "frequency": 184.99721135581723,
      "time": 133.8466,
      "duration": 1.7519289166666852,
      "velocity": 0.5039370078740157,
      "name": "F#3"
    },
    {
      "midi": 61,
      "frequency": 277.1826309768721,
      "time": 133.8466,
      "duration": 1.7519289166666852,
      "velocity": 0.5039370078740157,
      "name": "C#4"
    },
    {
      "midi": 73,
      "frequency": 554.3652619537442,
      "time": 133.961985,
      "duration": 0.11346191666666527,
      "velocity": 0.5039370078740157,
      "name": "C#5"
    },
    {
      "midi": 81,
      "frequency": 880,
      "time": 134.07737,
      "duration": 0.21730841666666834,
      "velocity": 0.5039370078740157,
      "name": "A5"
    },
    {
      "midi": 80,
      "frequency": 830.6093951598903,
      "time": 134.30814,
      "duration": 0.4365399166666464,
      "velocity": 0.5039370078740157,
      "name": "G#5"
    },
    {
      "midi": 81,
      "frequency": 880,
      "time": 134.76968,
      "duration": 0.4365399166666748,
      "velocity": 0.5039370078740157,
      "name": "A5"
    },
    {
      "midi": 80,
      "frequency": 830.6093951598903,
      "time": 135.23122,
      "duration": 0.4365399166666464,
      "velocity": 0.5039370078740157,
      "name": "G#5"
    },
    {
      "midi": 69,
      "frequency": 440,
      "time": 135.69276,
      "duration": 0.4365399166666748,
      "velocity": 0.5039370078740157,
      "name": "A4"
    },
    {
      "midi": 73,
      "frequency": 554.3652619537442,
      "time": 135.69276,
      "duration": 0.4365399166666748,
      "velocity": 0.5039370078740157,
      "name": "C#5"
    },
    {
      "midi": 81,
      "frequency": 880,
      "time": 135.69276,
      "duration": 0.4365399166666748,
      "velocity": 0.5039370078740157,
      "name": "A5"
    },
    {
      "midi": 52,
      "frequency": 164.81377845643496,
      "time": 135.69276,
      "duration": 0.4365399166666748,
      "velocity": 0.5039370078740157,
      "name": "E3"
    },
    {
      "midi": 76,
      "frequency": 659.2551138257398,
      "time": 136.1543,
      "duration": 0.4365399166666464,
      "velocity": 0.5039370078740157,
      "name": "E5"
    },
    {
      "midi": 62,
      "frequency": 293.6647679174076,
      "time": 136.1543,
      "duration": 0.4365399166666464,
      "velocity": 0.5039370078740157,
      "name": "D4"
    },
    {
      "midi": 81,
      "frequency": 880,
      "time": 136.61584,
      "duration": 0.4365399166666748,
      "velocity": 0.5039370078740157,
      "name": "A5"
    },
    {
      "midi": 66,
      "frequency": 369.99442271163446,
      "time": 136.61584,
      "duration": 0.4365399166666748,
      "velocity": 0.5039370078740157,
      "name": "F#4"
    },
    {
      "midi": 74,
      "frequency": 587.3295358348151,
      "time": 137.07738,
      "duration": 0.4365399166666464,
      "velocity": 0.5039370078740157,
      "name": "D5"
    },
    {
      "midi": 52,
      "frequency": 164.81377845643496,
      "time": 137.07738,
      "duration": 0.4365399166666464,
      "velocity": 0.5039370078740157,
      "name": "E3"
    },
    {
      "midi": 69,
      "frequency": 440,
      "time": 137.53892,
      "duration": 0.4365399166666748,
      "velocity": 0.5039370078740157,
      "name": "A4"
    },
    {
      "midi": 73,
      "frequency": 554.3652619537442,
      "time": 137.53892,
      "duration": 0.4365399166666748,
      "velocity": 0.5039370078740157,
      "name": "C#5"
    },
    {
      "midi": 52,
      "frequency": 164.81377845643496,
      "time": 137.53892,
      "duration": 0.4365399166666748,
      "velocity": 0.5039370078740157,
      "name": "E3"
    },
    {
      "midi": 74,
      "frequency": 587.3295358348151,
      "time": 138.00046,
      "duration": 0.4365399166666748,
      "velocity": 0.5039370078740157,
      "name": "D5"
    },
    {
      "midi": 61,
      "frequency": 277.1826309768721,
      "time": 138.00046,
      "duration": 0.4365399166666748,
      "velocity": 0.5039370078740157,
      "name": "C#4"
    },
    {
      "midi": 69,
      "frequency": 440,
      "time": 138.462,
      "duration": 0.4365399166666748,
      "velocity": 0.5039370078740157,
      "name": "A4"
    },
    {
      "midi": 76,
      "frequency": 659.2551138257398,
      "time": 138.462,
      "duration": 0.4365399166666748,
      "velocity": 0.5039370078740157,
      "name": "E5"
    },
    {
      "midi": 57,
      "frequency": 220,
      "time": 138.462,
      "duration": 0.8750029166666593,
      "velocity": 0.5039370078740157,
      "name": "A3"
    },
    {
      "midi": 73,
      "frequency": 554.3652619537442,
      "time": 138.92354,
      "duration": 0.4365399166666748,
      "velocity": 0.5039370078740157,
      "name": "C#5"
    },
    {
      "midi": 71,
      "frequency": 493.8833012561241,
      "time": 139.38508,
      "duration": 0.8750029166666593,
      "velocity": 0.5039370078740157,
      "name": "B4"
    },
    {
      "midi": 64,
      "frequency": 329.6275569128699,
      "time": 139.38508,
      "duration": 1.7519289166666852,
      "velocity": 0.5039370078740157,
      "name": "E4"
    },
    {
      "midi": 68,
      "frequency": 415.3046975799451,
      "time": 139.38508,
      "duration": 1.3846200000000124,
      "velocity": 0.5039370078740157,
      "name": "G#4"
    },
    {
      "midi": 69,
      "frequency": 440,
      "time": 140.30816000000002,
      "duration": 0.4365399166666464,
      "velocity": 0.5039370078740157,
      "name": "A4"
    },
    {
      "midi": 68,
      "frequency": 415.3046975799451,
      "time": 140.7697,
      "duration": 0.4365399166666748,
      "velocity": 0.5039370078740157,
      "name": "G#4"
    },
    {
      "midi": 61,
      "frequency": 277.1826309768721,
      "time": 141.23124,
      "duration": 0.9211569166666607,
      "velocity": 0.5039370078740157,
      "name": "C#4"
    },
    {
      "midi": 42,
      "frequency": 92.49860567790861,
      "time": 141.23124,
      "duration": 0.4365399166666464,
      "velocity": 0.5039370078740157,
      "name": "F#2"
    },
    {
      "midi": 64,
      "frequency": 329.6275569128699,
      "time": 141.35239425,
      "duration": 0.7980795833333332,
      "velocity": 0.5039370078740157,
      "name": "E4"
    },
    {
      "midi": 69,
      "frequency": 440,
      "time": 141.47547158333333,
      "duration": 0.6750022500000057,
      "velocity": 0.5039370078740157,
      "name": "A4"
    },
    {
      "midi": 49,
      "frequency": 138.59131548843604,
      "time": 141.69278,
      "duration": 1.3134659166666722,
      "velocity": 0.5039370078740157,
      "name": "C#3"
    },
    {
      "midi": 64,
      "frequency": 329.6275569128699,
      "time": 142.15432,
      "duration": 0.4365399166666464,
      "velocity": 0.5039370078740157,
      "name": "E4"
    },
    {
      "midi": 69,
      "frequency": 440,
      "time": 142.61586,
      "duration": 0.21730841666669676,
      "velocity": 0.5039370078740157,
      "name": "A4"
    },
    {
      "midi": 71,
      "frequency": 493.8833012561241,
      "time": 142.84663,
      "duration": 0.21730841666666834,
      "velocity": 0.5039370078740157,
      "name": "B4"
    },
    {
      "midi": 73,
      "frequency": 554.3652619537442,
      "time": 143.0774,
      "duration": 0.4365399166666464,
      "velocity": 0.5039370078740157,
      "name": "C#5"
    },
    {
      "midi": 50,
      "frequency": 146.8323839587038,
      "time": 143.0774,
      "duration": 0.4365399166666464,
      "velocity": 0.5039370078740157,
      "name": "D3"
    },
    {
      "midi": 64,
      "frequency": 329.6275569128699,
      "time": 143.53894,
      "duration": 0.4365399166666748,
      "velocity": 0.5039370078740157,
      "name": "E4"
    },
    {
      "midi": 57,
      "frequency": 220,
      "time": 143.53894,
      "duration": 0.4365399166666748,
      "velocity": 0.5039370078740157,
      "name": "A3"
    },
    {
      "midi": 69,
      "frequency": 440,
      "time": 144.00048,
      "duration": 0.4365399166666464,
      "velocity": 0.5039370078740157,
      "name": "A4"
    },
    {
      "midi": 64,
      "frequency": 329.6275569128699,
      "time": 144.00048,
      "duration": 0.8750029166666593,
      "velocity": 0.5039370078740157,
      "name": "E4"
    },
    {
      "midi": 73,
      "frequency": 554.3652619537442,
      "time": 144.46202,
      "duration": 0.21730841666669676,
      "velocity": 0.5039370078740157,
      "name": "C#5"
    },
    {
      "midi": 74,
      "frequency": 587.3295358348151,
      "time": 144.69279,
      "duration": 0.21730841666666834,
      "velocity": 0.5039370078740157,
      "name": "D5"
    },
    {
      "midi": 76,
      "frequency": 659.2551138257398,
      "time": 144.92356,
      "duration": 0.4365399166666464,
      "velocity": 0.5039370078740157,
      "name": "E5"
    },
    {
      "midi": 45,
      "frequency": 110,
      "time": 144.92356,
      "duration": 0.4365399166666464,
      "velocity": 0.5039370078740157,
      "name": "A2"
    },
    {
      "midi": 64,
      "frequency": 329.6275569128699,
      "time": 145.3851,
      "duration": 0.4365399166666748,
      "velocity": 0.5039370078740157,
      "name": "E4"
    },
    {
      "midi": 52,
      "frequency": 164.81377845643496,
      "time": 145.3851,
      "duration": 0.4365399166666748,
      "velocity": 0.5039370078740157,
      "name": "E3"
    },
    {
      "midi": 73,
      "frequency": 554.3652619537442,
      "time": 145.84664,
      "duration": 0.4365399166666464,
      "velocity": 0.5039370078740157,
      "name": "C#5"
    },
    {
      "midi": 61,
      "frequency": 277.1826309768721,
      "time": 145.84664,
      "duration": 0.8750029166666593,
      "velocity": 0.5039370078740157,
      "name": "C#4"
    },
    {
      "midi": 74,
      "frequency": 587.3295358348151,
      "time": 146.30818,
      "duration": 0.21730841666669676,
      "velocity": 0.5039370078740157,
      "name": "D5"
    },
    {
      "midi": 73,
      "frequency": 554.3652619537442,
      "time": 146.53895,
      "duration": 0.21730841666666834,
      "velocity": 0.5039370078740157,
      "name": "C#5"
    },
    {
      "midi": 71,
      "frequency": 493.8833012561241,
      "time": 146.76972,
      "duration": 1.5326974166666503,
      "velocity": 0.5039370078740157,
      "name": "B4"
    },
    {
      "midi": 52,
      "frequency": 164.81377845643496,
      "time": 146.76972,
      "duration": 0.4365399166666464,
      "velocity": 0.5039370078740157,
      "name": "E3"
    },
    {
      "midi": 59,
      "frequency": 246.94165062806206,
      "time": 147.23126,
      "duration": 0.4365399166666748,
      "velocity": 0.5039370078740157,
      "name": "B3"
    },
    {
      "midi": 64,
      "frequency": 329.6275569128699,
      "time": 147.6928,
      "duration": 0.8750029166666593,
      "velocity": 0.5039370078740157,
      "name": "E4"
    },
    {
      "midi": 69,
      "frequency": 440,
      "time": 148.38511,
      "duration": 0.10769266666667932,
      "velocity": 0.5039370078740157,
      "name": "A4"
    },
    {
      "midi": 73,
      "frequency": 554.3652619537442,
      "time": 148.500495,
      "duration": 0.10769266666667932,
      "velocity": 0.5039370078740157,
      "name": "C#5"
    },
    {
      "midi": 81,
      "frequency": 880,
      "time": 148.61588,
      "duration": 0.4365399166666748,
      "velocity": 0.5039370078740157,
      "name": "A5"
    },
    {
      "midi": 54,
      "frequency": 184.99721135581723,
      "time": 148.61588,
      "duration": 0.4365399166666748,
      "velocity": 0.5039370078740157,
      "name": "F#3"
    },
    {
      "midi": 80,
      "frequency": 830.6093951598903,
      "time": 149.07742,
      "duration": 0.4365399166666748,
      "velocity": 0.5039370078740157,
      "name": "G#5"
    },
    {
      "midi": 61,
      "frequency": 277.1826309768721,
      "time": 149.07742,
      "duration": 0.4365399166666748,
      "velocity": 0.5039370078740157,
      "name": "C#4"
    },
    {
      "midi": 81,
      "frequency": 880,
      "time": 149.53896,
      "duration": 0.4365399166666748,
      "velocity": 0.5039370078740157,
      "name": "A5"
    },
    {
      "midi": 66,
      "frequency": 369.99442271163446,
      "time": 149.53896,
      "duration": 0.8750029166666593,
      "velocity": 0.5039370078740157,
      "name": "F#4"
    },
    {
      "midi": 80,
      "frequency": 830.6093951598903,
      "time": 150.0005,
      "duration": 0.4365399166666748,
      "velocity": 0.5039370078740157,
      "name": "G#5"
    },
    {
      "midi": 69,
      "frequency": 440,
      "time": 150.46204,
      "duration": 0.4596169166666755,
      "velocity": 0.5039370078740157,
      "name": "A4"
    },
    {
      "midi": 50,
      "frequency": 146.8323839587038,
      "time": 150.46204,
      "duration": 0.4365399166666748,
      "velocity": 0.5039370078740157,
      "name": "D3"
    },
    {
      "midi": 76,
      "frequency": 659.2551138257398,
      "time": 150.58319425,
      "duration": 0.336539583333348,
      "velocity": 0.5039370078740157,
      "name": "E5"
    },
    {
      "midi": 81,
      "frequency": 880,
      "time": 150.70627158333332,
      "duration": 0.2134622500000205,
      "velocity": 0.5039370078740157,
      "name": "A5"
    },
    {
      "midi": 76,
      "frequency": 659.2551138257398,
      "time": 150.92358000000002,
      "duration": 0.4365399166666464,
      "velocity": 0.5039370078740157,
      "name": "E5"
    },
    {
      "midi": 57,
      "frequency": 220,
      "time": 150.92358000000002,
      "duration": 0.4365399166666464,
      "velocity": 0.5039370078740157,
      "name": "A3"
    },
    {
      "midi": 81,
      "frequency": 880,
      "time": 151.38512,
      "duration": 0.4365399166666748,
      "velocity": 0.5039370078740157,
      "name": "A5"
    },
    {
      "midi": 64,
      "frequency": 329.6275569128699,
      "time": 151.38512,
      "duration": 0.4365399166666748,
      "velocity": 0.5039370078740157,
      "name": "E4"
    },
    {
      "midi": 74,
      "frequency": 587.3295358348151,
      "time": 151.84666,
      "duration": 0.4365399166666464,
      "velocity": 0.5039370078740157,
      "name": "D5"
    },
    {
      "midi": 50,
      "frequency": 146.8323839587038,
      "time": 151.84666,
      "duration": 0.4365399166666464,
      "velocity": 0.5039370078740157,
      "name": "D3"
    },
    {
      "midi": 71,
      "frequency": 493.8833012561241,
      "time": 152.3082,
      "duration": 0.061538666666677955,
      "velocity": 0.5039370078740157,
      "name": "B4"
    },
    {
      "midi": 45,
      "frequency": 110,
      "time": 152.3082,
      "duration": 0.4365399166666748,
      "velocity": 0.5039370078740157,
      "name": "A2"
    },
    {
      "midi": 73,
      "frequency": 554.3652619537442,
      "time": 152.37166175,
      "duration": 0.37500124999999684,
      "velocity": 0.5039370078740157,
      "name": "C#5"
    },
    {
      "midi": 74,
      "frequency": 587.3295358348151,
      "time": 152.76974,
      "duration": 0.4365399166666464,
      "velocity": 0.5039370078740157,
      "name": "D5"
    },
    {
      "midi": 52,
      "frequency": 164.81377845643496,
      "time": 152.76974,
      "duration": 0.4365399166666464,
      "velocity": 0.5039370078740157,
      "name": "E3"
    },
    {
      "midi": 76,
      "frequency": 659.2551138257398,
      "time": 153.23128,
      "duration": 0.4365399166666748,
      "velocity": 0.5039370078740157,
      "name": "E5"
    },
    {
      "midi": 61,
      "frequency": 277.1826309768721,
      "time": 153.23128,
      "duration": 0.8750029166666593,
      "velocity": 0.5039370078740157,
      "name": "C#4"
    },
    {
      "midi": 85,
      "frequency": 1108.7305239074883,
      "time": 153.69282,
      "duration": 0.4365399166666464,
      "velocity": 0.5039370078740157,
      "name": "C#6"
    },
    {
      "midi": 76,
      "frequency": 659.2551138257398,
      "time": 154.15436,
      "duration": 1.3134659166666722,
      "velocity": 0.5039370078740157,
      "name": "E5"
    },
    {
      "midi": 83,
      "frequency": 987.7666025122483,
      "time": 154.15436,
      "duration": 1.3134659166666722,
      "velocity": 0.5039370078740157,
      "name": "B5"
    },
    {
      "midi": 52,
      "frequency": 164.81377845643496,
      "time": 154.15436,
      "duration": 0.4365399166666748,
      "velocity": 0.5039370078740157,
      "name": "E3"
    },
    {
      "midi": 59,
      "frequency": 246.94165062806206,
      "time": 154.6159,
      "duration": 0.4365399166666464,
      "velocity": 0.5039370078740157,
      "name": "B3"
    },
    {
      "midi": 68,
      "frequency": 415.3046975799451,
      "time": 155.07744,
      "duration": 0.8750029166666593,
      "velocity": 0.5039370078740157,
      "name": "G#4"
    },
    {
      "midi": 69,
      "frequency": 440,
      "time": 155.53898,
      "duration": 0.21730841666666834,
      "velocity": 0.5039370078740157,
      "name": "A4"
    },
    {
      "midi": 64,
      "frequency": 329.6275569128699,
      "time": 156.00052,
      "duration": 1.3134659166666722,
      "velocity": 0.5039370078740157,
      "name": "E4"
    },
    {
      "midi": 69,
      "frequency": 440,
      "time": 156.00052,
      "duration": 1.3134659166666722,
      "velocity": 0.5039370078740157,
      "name": "A4"
    },
    {
      "midi": 42,
      "frequency": 92.49860567790861,
      "time": 156.00052,
      "duration": 0.4365399166666748,
      "velocity": 0.5039370078740157,
      "name": "F#2"
    },
    {
      "midi": 49,
      "frequency": 138.59131548843604,
      "time": 156.46206,
      "duration": 0.4365399166666464,
      "velocity": 0.5039370078740157,
      "name": "C#3"
    },
    {
      "midi": 54,
      "frequency": 184.99721135581723,
      "time": 156.9236,
      "duration": 0.8750029166666593,
      "velocity": 0.5039370078740157,
      "name": "F#3"
    },
    {
      "midi": 69,
      "frequency": 440,
      "time": 157.38514,
      "duration": 0.21730841666666834,
      "velocity": 0.5039370078740157,
      "name": "A4"
    },
    {
      "midi": 71,
      "frequency": 493.8833012561241,
      "time": 157.61591,
      "duration": 0.21730841666666834,
      "velocity": 0.5039370078740157,
      "name": "B4"
    },
    {
      "midi": 73,
      "frequency": 554.3652619537442,
      "time": 157.84668,
      "duration": 0.4365399166666748,
      "velocity": 0.5039370078740157,
      "name": "C#5"
    },
    {
      "midi": 50,
      "frequency": 146.8323839587038,
      "time": 157.84668,
      "duration": 0.4365399166666748,
      "velocity": 0.5039370078740157,
      "name": "D3"
    },
    {
      "midi": 64,
      "frequency": 329.6275569128699,
      "time": 158.30822,
      "duration": 0.4365399166666464,
      "velocity": 0.5039370078740157,
      "name": "E4"
    },
    {
      "midi": 57,
      "frequency": 220,
      "time": 158.30822,
      "duration": 0.4365399166666464,
      "velocity": 0.5039370078740157,
      "name": "A3"
    },
    {
      "midi": 69,
      "frequency": 440,
      "time": 158.76976,
      "duration": 0.4365399166666748,
      "velocity": 0.5039370078740157,
      "name": "A4"
    },
    {
      "midi": 62,
      "frequency": 293.6647679174076,
      "time": 158.76976,
      "duration": 0.8750029166666593,
      "velocity": 0.5039370078740157,
      "name": "D4"
    },
    {
      "midi": 73,
      "frequency": 554.3652619537442,
      "time": 159.2313,
      "duration": 0.21730841666666834,
      "velocity": 0.5039370078740157,
      "name": "C#5"
    },
    {
      "midi": 74,
      "frequency": 587.3295358348151,
      "time": 159.46207,
      "duration": 0.21730841666666834,
      "velocity": 0.5039370078740157,
      "name": "D5"
    },
    {
      "midi": 76,
      "frequency": 659.2551138257398,
      "time": 159.69284,
      "duration": 0.4365399166666748,
      "velocity": 0.5039370078740157,
      "name": "E5"
    },
    {
      "midi": 45,
      "frequency": 110,
      "time": 159.69284,
      "duration": 0.4365399166666748,
      "velocity": 0.5039370078740157,
      "name": "A2"
    },
    {
      "midi": 64,
      "frequency": 329.6275569128699,
      "time": 160.15438,
      "duration": 0.4365399166666748,
      "velocity": 0.5039370078740157,
      "name": "E4"
    },
    {
      "midi": 52,
      "frequency": 164.81377845643496,
      "time": 160.15438,
      "duration": 0.4365399166666748,
      "velocity": 0.5039370078740157,
      "name": "E3"
    },
    {
      "midi": 69,
      "frequency": 440,
      "time": 160.61592,
      "duration": 0.4365399166666748,
      "velocity": 0.5039370078740157,
      "name": "A4"
    },
    {
      "midi": 61,
      "frequency": 277.1826309768721,
      "time": 160.61592,
      "duration": 0.8750029166666593,
      "velocity": 0.5039370078740157,
      "name": "C#4"
    },
    {
      "midi": 74,
      "frequency": 587.3295358348151,
      "time": 161.07746,
      "duration": 0.21730841666666834,
      "velocity": 0.5039370078740157,
      "name": "D5"
    },
    {
      "midi": 73,
      "frequency": 554.3652619537442,
      "time": 161.30823,
      "duration": 0.21730841666666834,
      "velocity": 0.5039370078740157,
      "name": "C#5"
    },
    {
      "midi": 71,
      "frequency": 493.8833012561241,
      "time": 161.53900000000002,
      "duration": 0.8750029166666309,
      "velocity": 0.5039370078740157,
      "name": "B4"
    },
    {
      "midi": 40,
      "frequency": 82.40688922821748,
      "time": 161.53900000000002,
      "duration": 0.4365399166666464,
      "velocity": 0.5039370078740157,
      "name": "E2"
    },
    {
      "midi": 47,
      "frequency": 123.47082531403103,
      "time": 162.00054,
      "duration": 0.4365399166666748,
      "velocity": 0.5039370078740157,
      "name": "B2"
    },
    {
      "midi": 64,
      "frequency": 329.6275569128699,
      "time": 162.46208000000001,
      "duration": 0.8750029166666593,
      "velocity": 0.5039370078740157,
      "name": "E4"
    },
    {
      "midi": 56,
      "frequency": 207.65234878997256,
      "time": 162.46208000000001,
      "duration": 0.8750029166666593,
      "velocity": 0.5039370078740157,
      "name": "G#3"
    },
    {
      "midi": 69,
      "frequency": 440,
      "time": 163.38516,
      "duration": 0.4365399166666464,
      "velocity": 0.5039370078740157,
      "name": "A4"
    },
    {
      "midi": 42,
      "frequency": 92.49860567790861,
      "time": 163.38516,
      "duration": 0.4365399166666464,
      "velocity": 0.5039370078740157,
      "name": "F#2"
    },
    {
      "midi": 57,
      "frequency": 220,
      "time": 163.8467,
      "duration": 0.4365399166666748,
      "velocity": 0.5039370078740157,
      "name": "A3"
    },
    {
      "midi": 49,
      "frequency": 138.59131548843604,
      "time": 163.8467,
      "duration": 0.4365399166666748,
      "velocity": 0.5039370078740157,
      "name": "C#3"
    },
    {
      "midi": 61,
      "frequency": 277.1826309768721,
      "time": 164.30824,
      "duration": 0.4365399166666464,
      "velocity": 0.5039370078740157,
      "name": "C#4"
    },
    {
      "midi": 54,
      "frequency": 184.99721135581723,
      "time": 164.30824,
      "duration": 0.8750029166666593,
      "velocity": 0.5039370078740157,
      "name": "F#3"
    },
    {
      "midi": 66,
      "frequency": 369.99442271163446,
      "time": 164.76978,
      "duration": 0.4365399166666748,
      "velocity": 0.5039370078740157,
      "name": "F#4"
    },
    {
      "midi": 69,
      "frequency": 440,
      "time": 165.23132,
      "duration": 1.7519289166666567,
      "velocity": 0.5039370078740157,
      "name": "A4"
    },
    {
      "midi": 81,
      "frequency": 880,
      "time": 165.23132,
      "duration": 1.7519289166666567,
      "velocity": 0.5039370078740157,
      "name": "A5"
    },
    {
      "midi": 61,
      "frequency": 277.1826309768721,
      "time": 165.23132,
      "duration": 1.7519289166666567,
      "velocity": 0.5039370078740157,
      "name": "C#4"
    }
  ],
  "backgroundFrequencies": [
    185,
    146.83,
    220,
    185,
    146.83,
    220,
    185,
    146.83,
    220,
    146.83,
    110,
    164.81,
    164.81,
    246.94,
    185,
    146.83,
    220,
    110,
    164.81,
    164.81,
    246.94,
    185,
    146.83,
    220,
    146.83,
    110,
    164.81,
    110,
    164.81,
    246.94,
    185,
    146.83,
    246.94,
    110,
    164.81,
    164.81,
    246.94,
    185,
    185,
    146.83,
    220,
    146.83,
    110,
    164.81,
    110,
    164.81,
    246.94,
    164.81,
    185,
    185,
    146.83,
    246.94,
    146.83,
    110,
    164.81,
    110,
    164.81,
    246.94,
    164.81,
    92.5,
    138.59,
    185,
    92.5,
    146.83,
    220,
    146.83,
    110,
    164.81,
    110,
    82.41,
    123.47,
    207.65,
    82.41,
    92.5,
    138.59,
    185,
    92.5,
    146.83,
    220,
    146.83,
    110,
    164.81,
    110,
    82.41,
    123.47,
    207.65,
    185,
    146.83,
    220,
    146.83,
    110,
    164.81,
    110,
    164.81,
    246.94,
    185,
    146.83,
    220,
    110,
    164.81,
    110,
    164.81,
    246.94,
    185,
    185,
    146.83,
    220,
    146.83,
    110,
    164.81,
    110,
    164.81,
    246.94,
    164.81,
    185,
    146.83,
    220,
    146.83,
    110,
    164.81,
    110,
    82.41,
    123.47,
    207.65,
    82.41,
    92.5,
    138.59,
    185,
    146.83,
    220,
    146.83,
    110,
    164.81,
    110,
    82.41,
    123.47,
    207.65,
    82.41,
    92.5,
    138.59,
    185,
    146.83,
    220,
    146.83,
    110,
    164.81,
    110,
    82.41,
    123.47,
    207.65,
    82.41,
    92.5,
    138.59,
    185,
    146.83,
    220,
    146.83,
    110,
    164.81,
    110,
    82.41,
    123.47,
    207.65,
    82.41,
    92.5,
    138.59,
    185,
    146.83,
    220,
    146.83,
    110,
    164.81,
    110,
    82.41,
    123.47,
    207.65,
    185,
    164.81,
    164.81,
    164.81,
    220,
    92.5,
    138.59,
    146.83,
    220,
    110,
    164.81,
    164.81,
    246.94,
    185,
    146.83,
    220,
    146.83,
    110,
    164.81,
    164.81,
    246.94,
    92.5,
    138.59,
    185,
    146.83,
    220,
    110,
    164.81,
    82.41,
    123.47,
    207.65,
    92.5,
    220,
    138.59,
    185
  ],
  "melodyFrequencies": [
    880,
    830.61,
    277.18,
    880,
    369.99,
    830.61,
    880,
    659.26,
    880,
    329.63,
    587.33,
    440,
    554.37,
    880,
    830.61,
    277.18,
    880,
    369.99,
    830.61,
    880,
    659.26,
    880,
    329.63,
    587.33,
    440,
    554.37,
    880,
    830.61,
    277.18,
    880,
    369.99,
    440,
    830.61,
    880,
    440,
    659.26,
    880,
    329.63,
    440,
    587.33,
    440,
    493.88,
    554.37,
    587.33,
    440,
    659.26,
    277.18,
    554.37,
    415.3,
    493.88,
    329.63,
    440,
    415.3,
    440,
    277.18,
    369.99,
    329.63,
    440,
    493.88,
    554.37,
    329.63,
    554.37,
    587.33,
    659.26,
    277.18,
    587.33,
    554.37,
    493.88,
    415.3,
    440,
    554.37,
    880,
    830.61,
    277.18,
    880,
    369.99,
    440,
    830.61,
    880,
    440,
    659.26,
    880,
    329.63,
    440,
    587.33,
    440,
    493.88,
    554.37,
    587.33,
    659.26,
    277.18,
    1108.73,
    987.77,
    659.26,
    987.77,
    329.63,
    1108.73,
    987.77,
    880,
    830.61,
    659.26,
    880,
    277.18,
    369.99,
    440,
    493.88,
    554.37,
    329.63,
    440,
    329.63,
    554.37,
    587.33,
    659.26,
    329.63,
    554.37,
    277.18,
    587.33,
    554.37,
    493.88,
    880,
    329.63,
    987.77,
    880,
    830.61,
    880,
    440,
    659.26,
    277.18,
    440,
    880,
    369.99,
    987.77,
    880,
    830.61,
    880,
    440,
    659.26,
    440,
    880,
    329.63,
    987.77,
    880,
    830.61,
    880,
    987.77,
    1108.73,
    1174.66,
    1318.51,
    277.18,
    1108.73,
    987.77,
    880,
    830.61,
    493.88,
    880,
    329.63,
    987.77,
    880,
    830.61,
    880,
    440,
    659.26,
    277.18,
    440,
    880,
    329.63,
    987.77,
    880,
    830.61,
    880,
    440,
    659.26,
    440,
    880,
    329.63,
    987.77,
    880,
    830.61,
    880,
    987.77,
    1108.73,
    1174.66,
    1318.51,
    277.18,
    1108.73,
    987.77,
    880,
    830.61,
    493.88,
    880,
    329.63,
    880,
    987.77,
    880,
    830.61,
    880,
    440,
    659.26,
    440,
    880,
    880,
    987.77,
    880,
    830.61,
    880,
    440,
    659.26,
    440,
    880,
    277.18,
    880,
    987.77,
    880,
    830.61,
    880,
    987.77,
    1108.73,
    1174.66,
    1318.51,
    277.18,
    1108.73,
    987.77,
    880,
    830.61,
    493.88,
    880,
    880,
    987.77,
    880,
    830.61,
    880,
    440,
    659.26,
    440,
    880,
    880,
    987.77,
    880,
    830.61,
    880,
    440,
    659.26,
    440,
    880,
    329.63,
    987.77,
    880,
    830.61,
    880,
    987.77,
    1108.73,
    1174.66,
    1318.51,
    277.18,
    1108.73,
    987.77,
    880,
    830.61,
    493.88,
    415.3,
    329.63,
    440,
    554.37,
    880,
    830.61,
    277.18,
    880,
    369.99,
    440,
    830.61,
    880,
    440,
    830.61,
    880,
    329.63,
    440,
    587.33,
    440,
    493.88,
    554.37,
    587.33,
    440,
    659.26,
    277.18,
    554.37,
    415.3,
    493.88,
    329.63,
    440,
    415.3,
    329.63,
    440,
    277.18,
    329.63,
    440,
    329.63,
    440,
    493.88,
    554.37,
    329.63,
    440,
    493.88,
    554.37,
    293.66,
    329.63,
    554.37,
    587.33,
    659.26,
    329.63,
    554.37,
    587.33,
    659.26,
    277.18,
    329.63,
    587.33,
    554.37,
    493.88,
    329.63,
    587.33,
    554.37,
    493.88,
    329.63,
    415.3,
    554.37,
    880,
    830.61,
    277.18,
    880,
    369.99,
    440,
    830.61,
    880,
    440,
    659.26,
    880,
    329.63,
    440,
    587.33,
    440,
    493.88,
    554.37,
    587.33,
    659.26,
    277.18,
    1108.73,
    987.77,
    659.26,
    659.26,
    329.63,
    1108.73,
    987.77,
    880,
    830.61,
    659.26,
    880,
    277.18,
    369.99,
    440,
    493.88,
    554.37,
    329.63,
    440,
    493.88,
    554.37,
    293.66,
    329.63,
    554.37,
    587.33,
    659.26,
    329.63,
    554.37,
    587.33,
    659.26,
    277.18,
    329.63,
    587.33,
    554.37,
    493.88,
    329.63,
    415.3,
    493.88,
    880,
    987.77,
    880,
    830.61,
    880,
    440,
    659.26,
    440,
    880,
    369.99,
    880,
    987.77,
    880,
    830.61,
    880,
    440,
    659.26,
    440,
    880,
    329.63,
    880,
    987.77,
    880,
    830.61,
    880,
    987.77,
    1108.73,
    1174.66,
    1318.51,
    277.18,
    1108.73,
    987.77,
    1108.73,
    987.77,
    880,
    830.61,
    440,
    659.26,
    440,
    880,
    880,
    987.77,
    880,
    830.61,
    880,
    440,
    659.26,
    440,
    880,
    369.99,
    880,
    987.77,
    880,
    830.61,
    880,
    440,
    659.26,
    440,
    880,
    329.63,
    880,
    987.77,
    880,
    830.61,
    880,
    987.77,
    1108.73,
    1174.66,
    1318.51,
    277.18,
    1108.73,
    987.77,
    1108.73,
    987.77,
    880,
    830.61,
    440,
    659.26,
    440,
    880,
    880,
    987.77,
    880,
    830.61,
    880,
    440,
    659.26,
    440,
    880,
    369.99,
    987.77,
    880,
    830.61,
    880,
    440,
    659.26,
    440,
    880,
    329.63,
    880,
    987.77,
    880,
    830.61,
    880,
    987.77,
    1108.73,
    1174.66,
    1318.51,
    277.18,
    1108.73,
    987.77,
    880,
    830.61,
    493.88,
    880,
    880,
    987.77,
    880,
    830.61,
    880,
    440,
    659.26,
    440,
    880,
    369.99,
    880,
    987.77,
    880,
    830.61,
    880,
    440,
    659.26,
    440,
    880,
    329.63,
    880,
    987.77,
    880,
    830.61,
    880,
    987.77,
    1108.73,
    1174.66,
    1318.51,
    277.18,
    1108.73,
    987.77,
    880,
    830.61,
    493.88,
    415.3,
    329.63,
    440,
    277.18,
    554.37,
    880,
    830.61,
    880,
    830.61,
    440,
    554.37,
    880,
    659.26,
    293.66,
    880,
    369.99,
    587.33,
    440,
    554.37,
    587.33,
    277.18,
    440,
    659.26,
    554.37,
    493.88,
    329.63,
    415.3,
    440,
    415.3,
    277.18,
    329.63,
    440,
    329.63,
    440,
    493.88,
    554.37,
    329.63,
    440,
    329.63,
    554.37,
    587.33,
    659.26,
    329.63,
    554.37,
    277.18,
    587.33,
    554.37,
    493.88,
    329.63,
    440,
    554.37,
    880,
    830.61,
    277.18,
    880,
    369.99,
    830.61,
    440,
    659.26,
    880,
    659.26,
    880,
    329.63,
    587.33,
    493.88,
    554.37,
    587.33,
    659.26,
    277.18,
    1108.73,
    659.26,
    987.77,
    415.3,
    440,
    329.63,
    440,
    440,
    493.88,
    554.37,
    329.63,
    440,
    293.66,
    554.37,
    587.33,
    659.26,
    329.63,
    440,
    277.18,
    587.33,
    554.37,
    493.88,
    329.63,
    440,
    277.18,
    369.99,
    440,
    880,
    277.18
  ]
}