{
  "metadata": {
    "name": "Kiss The Rain",
    "artist": "Yiruma",
    "duration": 279.7747752979167,
    "tempo": 58.00004253336452,
    "timeSignature": [
      1,
      4
    ],
    "totalNotes": 1104,
    "backgroundNotes": 341,
    "melodyNotes": 763,
    "c4Threshold": 261.63
  },
  "allNotes": [
    {
      "midi": 75,
      "frequency": 622.25,
      "time": 0.25862050000000003,
      "duration": 0.25646532916666676,
      "velocity": 0.6299212598425197,
      "name": "D#5"
    },
    {
      "midi": 80,
      "frequency": 830.61,
      "time": 0.5172410000000001,
      "duration": 0.25646532916666676,
      "velocity": 0.6299212598425197,
      "name": "G#5"
    },
    {
      "midi": 82,
      "frequency": 932.33,
      "time": 0.7758615000000001,
      "duration": 0.25646532916666664,
      "velocity": 0.6299212598425197,
      "name": "A#5"
    },
    {
      "midi": 82,
      "frequency": 932.33,
      "time": 1.0344820000000001,
      "duration": 0.5150858291666667,
      "velocity": 0.6299212598425197,
      "name": "A#5"
    },
    {
      "midi": 56,
      "frequency": 207.65,
      "time": 1.0344820000000001,
      "duration": 0.5150858291666667,
      "velocity": 0.6299212598425197,
      "name": "G#3"
    },
    {
      "midi": 84,
      "frequency": 1046.5,
      "time": 1.5517230000000002,
      "duration": 0.5150858291666667,
      "velocity": 0.6299212598425197,
      "name": "C6"
    },
    {
      "midi": 63,
      "frequency": 311.13,
      "time": 1.5517230000000002,
      "duration": 0.5150858291666667,
      "velocity": 0.6299212598425197,
      "name": "D#4"
    },
    {
      "midi": 84,
      "frequency": 1046.5,
      "time": 2.0689640000000002,
      "duration": 1.963360629166667,
      "velocity": 0.6299212598425197,
      "name": "C6"
    },
    {
      "midi": 70,
      "frequency": 466.16,
      "time": 2.0689640000000002,
      "duration": 0.5150858291666669,
      "velocity": 0.6299212598425197,
      "name": "A#4"
    },
    {
      "midi": 63,
      "frequency": 311.13,
      "time": 2.5862050000000005,
      "duration": 0.5150858291666665,
      "velocity": 0.6299212598425197,
      "name": "D#4"
    },
    {
      "midi": 68,
      "frequency": 415.3,
      "time": 3.1034460000000004,
      "duration": 1.9633606291666665,
      "velocity": 0.6299212598425197,
      "name": "G#4"
    },
    {
      "midi": 80,
      "frequency": 830.61,
      "time": 4.396548500000001,
      "duration": 0.25646532916666676,
      "velocity": 0.6299212598425197,
      "name": "G#5"
    },
    {
      "midi": 82,
      "frequency": 932.33,
      "time": 4.655169000000001,
      "duration": 0.25646532916666676,
      "velocity": 0.6299212598425197,
      "name": "A#5"
    },
    {
      "midi": 84,
      "frequency": 1046.5,
      "time": 4.913789500000001,
      "duration": 0.25646532916666676,
      "velocity": 0.6299212598425197,
      "name": "C6"
    },
    {
      "midi": 82,
      "frequency": 932.33,
      "time": 5.172410000000001,
      "duration": 0.515085829166666,
      "velocity": 0.6299212598425197,
      "name": "A#5"
    },
    {
      "midi": 75,
      "frequency": 622.25,
      "time": 5.172410000000001,
      "duration": 2.066808829166667,
      "velocity": 0.6299212598425197,
      "name": "D#5"
    },
    {
      "midi": 60,
      "frequency": 261.63,
      "time": 5.172410000000001,
      "duration": 0.515085829166666,
      "velocity": 0.6299212598425197,
      "name": "C4"
    },
    {
      "midi": 87,
      "frequency": 1244.51,
      "time": 5.6896510000000005,
      "duration": 0.5150858291666669,
      "velocity": 0.6299212598425197,
      "name": "D#6"
    },
    {
      "midi": 67,
      "frequency": 392,
      "time": 5.6896510000000005,
      "duration": 0.5150858291666669,
      "velocity": 0.6299212598425197,
      "name": "G4"
    },
    {
      "midi": 87,
      "frequency": 1244.51,
      "time": 6.206892000000001,
      "duration": 1.963360629166666,
      "velocity": 0.6299212598425197,
      "name": "D#6"
    },
    {
      "midi": 72,
      "frequency": 523.25,
      "time": 6.206892000000001,
      "duration": 0.5150858291666669,
      "velocity": 0.6299212598425197,
      "name": "C5"
    },
    {
      "midi": 67,
      "frequency": 392,
      "time": 6.724133000000001,
      "duration": 0.5150858291666669,
      "velocity": 0.6299212598425197,
      "name": "G4"
    },
    {
      "midi": 75,
      "frequency": 622.25,
      "time": 7.241374,
      "duration": 1.963360629166667,
      "velocity": 0.6299212598425197,
      "name": "D#5"
    },
    {
      "midi": 87,
      "frequency": 1244.51,
      "time": 8.5344765,
      "duration": 0.25646532916666764,
      "velocity": 0.6299212598425197,
      "name": "D#6"
    },
    {
      "midi": 89,
      "frequency": 1396.91,
      "time": 8.793097000000001,
      "duration": 0.25646532916666587,
      "velocity": 0.6299212598425197,
      "name": "F6"
    },
    {
      "midi": 91,
      "frequency": 1567.98,
      "time": 9.0517175,
      "duration": 0.25646532916666764,
      "velocity": 0.6299212598425197,
      "name": "G6"
    },
    {
      "midi": 91,
      "frequency": 1567.98,
      "time": 9.310338000000002,
      "duration": 0.5150858291666669,
      "velocity": 0.6299212598425197,
      "name": "G6"
    },
    {
      "midi": 80,
      "frequency": 830.61,
      "time": 9.310338000000002,
      "duration": 3.1012908291666665,
      "velocity": 0.6299212598425197,
      "name": "G#5"
    },
    {
      "midi": 87,
      "frequency": 1244.51,
      "time": 9.310338000000002,
      "duration": 3.1012908291666665,
      "velocity": 0.6299212598425197,
      "name": "D#6"
    },
    {
      "midi": 65,
      "frequency": 349.23,
      "time": 9.310338000000002,
      "duration": 0.5150858291666669,
      "velocity": 0.6299212598425197,
      "name": "F4"
    },
    {
      "midi": 92,
      "frequency": 1661.22,
      "time": 9.827579000000002,
      "duration": 0.5150858291666669,
      "velocity": 0.6299212598425197,
      "name": "G#6"
    },
    {
      "midi": 72,
      "frequency": 523.25,
      "time": 9.827579000000002,
      "duration": 0.5150858291666669,
      "velocity": 0.6299212598425197,
      "name": "C5"
    },
    {
      "midi": 92,
      "frequency": 1661.22,
      "time": 10.344820000000002,
      "duration": 1.5495678291666657,
      "velocity": 0.6299212598425197,
      "name": "G#6"
    },
    {
      "midi": 79,
      "frequency": 783.99,
      "time": 10.344820000000002,
      "duration": 0.5150858291666651,
      "velocity": 0.6299212598425197,
      "name": "G5"
    },
    {
      "midi": 72,
      "frequency": 523.25,
      "time": 10.862061,
      "duration": 0.5150858291666669,
      "velocity": 0.6299212598425197,
      "name": "C5"
    },
    {
      "midi": 77,
      "frequency": 698.46,
      "time": 11.379302000000001,
      "duration": 0.5150858291666669,
      "velocity": 0.6299212598425197,
      "name": "F5"
    },
    {
      "midi": 94,
      "frequency": 1864.66,
      "time": 11.896543000000001,
      "duration": 0.5150858291666669,
      "velocity": 0.6299212598425197,
      "name": "A#6"
    },
    {
      "midi": 72,
      "frequency": 523.25,
      "time": 11.896543000000001,
      "duration": 0.5150858291666669,
      "velocity": 0.6299212598425197,
      "name": "C5"
    },
    {
      "midi": 94,
      "frequency": 1864.66,
      "time": 12.413784000000001,
      "duration": 0.06249995416666643,
      "velocity": 0.6299212598425197,
      "name": "A#6"
    },
    {
      "midi": 84,
      "frequency": 1046.5,
      "time": 12.413784000000001,
      "duration": 1.0323268291666672,
      "velocity": 0.6299212598425197,
      "name": "C6"
    },
    {
      "midi": 79,
      "frequency": 783.99,
      "time": 12.413784000000001,
      "duration": 0.9806027291666659,
      "velocity": 0.6299212598425197,
      "name": "G5"
    },
    {
      "midi": 96,
      "frequency": 2093,
      "time": 12.478439125000001,
      "duration": 0.2758618666666681,
      "velocity": 0.6299212598425197,
      "name": "C7"
    },
    {
      "midi": 94,
      "frequency": 1864.66,
      "time": 12.758611333333336,
      "duration": 0.34267216249999777,
      "velocity": 0.6299212598425197,
      "name": "A#6"
    },
    {
      "midi": 92,
      "frequency": 1661.22,
      "time": 13.103438666666667,
      "duration": 0.3426721625000013,
      "velocity": 0.6299212598425197,
      "name": "G#6"
    },
    {
      "midi": 91,
      "frequency": 1567.98,
      "time": 13.448266000000002,
      "duration": 1.963360629166667,
      "velocity": 0.6299212598425197,
      "name": "G6"
    },
    {
      "midi": 84,
      "frequency": 1046.5,
      "time": 13.448266000000002,
      "duration": 0.9806027291666659,
      "velocity": 0.6299212598425197,
      "name": "C6"
    },
    {
      "midi": 63,
      "frequency": 311.13,
      "time": 13.448266000000002,
      "duration": 0.5150858291666669,
      "velocity": 0.6299212598425197,
      "name": "D#4"
    },
    {
      "midi": 72,
      "frequency": 523.25,
      "time": 13.965507000000002,
      "duration": 0.5150858291666669,
      "velocity": 0.6299212598425197,
      "name": "C5"
    },
    {
      "midi": 79,
      "frequency": 783.99,
      "time": 14.482748,
      "duration": 0.9806027291666677,
      "velocity": 0.6299212598425197,
      "name": "G5"
    },
    {
      "midi": 75,
      "frequency": 622.25,
      "time": 14.482748,
      "duration": 0.5150858291666669,
      "velocity": 0.6299212598425197,
      "name": "D#5"
    },
    {
      "midi": 72,
      "frequency": 523.25,
      "time": 14.999989000000001,
      "duration": 0.5150858291666669,
      "velocity": 0.6299212598425197,
      "name": "C5"
    },
    {
      "midi": 84,
      "frequency": 1046.5,
      "time": 15.517230000000001,
      "duration": 1.9633606291666688,
      "velocity": 0.6299212598425197,
      "name": "C6"
    },
    {
      "midi": 75,
      "frequency": 622.25,
      "time": 15.517230000000001,
      "duration": 1.9633606291666688,
      "velocity": 0.6299212598425197,
      "name": "D#5"
    },
    {
      "midi": 92,
      "frequency": 1661.22,
      "time": 16.034471000000003,
      "duration": 0.5150858291666651,
      "velocity": 0.6299212598425197,
      "name": "G#6"
    },
    {
      "midi": 91,
      "frequency": 1567.98,
      "time": 16.551712000000002,
      "duration": 0.5150858291666651,
      "velocity": 0.6299212598425197,
      "name": "G6"
    },
    {
      "midi": 87,
      "frequency": 1244.51,
      "time": 17.068953,
      "duration": 0.5150858291666651,
      "velocity": 0.6299212598425197,
      "name": "D#6"
    },
    {
      "midi": 87,
      "frequency": 1244.51,
      "time": 17.586194000000003,
      "duration": 0.5150858291666651,
      "velocity": 0.6299212598425197,
      "name": "D#6"
    },
    {
      "midi": 80,
      "frequency": 830.61,
      "time": 17.586194000000003,
      "duration": 1.0323268291666636,
      "velocity": 0.6299212598425197,
      "name": "G#5"
    },
    {
      "midi": 61,
      "frequency": 277.18,
      "time": 17.586194000000003,
      "duration": 0.5150858291666651,
      "velocity": 0.6299212598425197,
      "name": "C#4"
    },
    {
      "midi": 89,
      "frequency": 1396.91,
      "time": 18.103435,
      "duration": 0.5150858291666651,
      "velocity": 0.6299212598425197,
      "name": "F6"
    },
    {
      "midi": 68,
      "frequency": 415.3,
      "time": 18.103435,
      "duration": 0.5150858291666651,
      "velocity": 0.6299212598425197,
      "name": "G#4"
    },
    {
      "midi": 89,
      "frequency": 1396.91,
      "time": 18.620676000000003,
      "duration": 1.9633606291666652,
      "velocity": 0.6299212598425197,
      "name": "F6"
    },
    {
      "midi": 80,
      "frequency": 830.61,
      "time": 18.620676000000003,
      "duration": 0.9806027291666659,
      "velocity": 0.6299212598425197,
      "name": "G#5"
    },
    {
      "midi": 75,
      "frequency": 622.25,
      "time": 18.620676000000003,
      "duration": 0.5150858291666651,
      "velocity": 0.6299212598425197,
      "name": "D#5"
    },
    {
      "midi": 68,
      "frequency": 415.3,
      "time": 19.137917,
      "duration": 0.5150858291666651,
      "velocity": 0.6299212598425197,
      "name": "G#4"
    },
    {
      "midi": 77,
      "frequency": 698.46,
      "time": 19.655158000000004,
      "duration": 0.9806027291666659,
      "velocity": 0.6299212598425197,
      "name": "F5"
    },
    {
      "midi": 73,
      "frequency": 554.37,
      "time": 19.655158000000004,
      "duration": 0.5150858291666651,
      "velocity": 0.6299212598425197,
      "name": "C#5"
    },
    {
      "midi": 68,
      "frequency": 415.3,
      "time": 20.172399000000002,
      "duration": 0.5150858291666651,
      "velocity": 0.6299212598425197,
      "name": "G#4"
    },
    {
      "midi": 80,
      "frequency": 830.61,
      "time": 20.689640000000004,
      "duration": 0.9806027291666659,
      "velocity": 0.6299212598425197,
      "name": "G#5"
    },
    {
      "midi": 75,
      "frequency": 622.25,
      "time": 20.689640000000004,
      "duration": 0.9806027291666659,
      "velocity": 0.6299212598425197,
      "name": "D#5"
    },
    {
      "midi": 87,
      "frequency": 1244.51,
      "time": 21.206881000000003,
      "duration": 0.25646532916666587,
      "velocity": 0.6299212598425197,
      "name": "D#6"
    },
    {
      "midi": 85,
      "frequency": 1108.73,
      "time": 21.465501500000002,
      "duration": 0.25646532916666587,
      "velocity": 0.6299212598425197,
      "name": "C#6"
    },
    {
      "midi": 85,
      "frequency": 1108.73,
      "time": 21.724122,
      "duration": 0.5150858291666651,
      "velocity": 0.6299212598425197,
      "name": "C#6"
    },
    {
      "midi": 75,
      "frequency": 622.25,
      "time": 21.724122,
      "duration": 2.0668088291666677,
      "velocity": 0.6299212598425197,
      "name": "D#5"
    },
    {
      "midi": 82,
      "frequency": 932.33,
      "time": 21.724122,
      "duration": 2.0668088291666677,
      "velocity": 0.6299212598425197,
      "name": "A#5"
    },
    {
      "midi": 60,
      "frequency": 261.63,
      "time": 21.724122,
      "duration": 0.5150858291666651,
      "velocity": 0.6299212598425197,
      "name": "C4"
    },
    {
      "midi": 87,
      "frequency": 1244.51,
      "time": 22.241363000000003,
      "duration": 0.5150858291666651,
      "velocity": 0.6299212598425197,
      "name": "D#6"
    },
    {
      "midi": 68,
      "frequency": 415.3,
      "time": 22.241363000000003,
      "duration": 0.5150858291666651,
      "velocity": 0.6299212598425197,
      "name": "G#4"
    },
    {
      "midi": 87,
      "frequency": 1244.51,
      "time": 22.758604000000002,
      "duration": 1.9633606291666688,
      "velocity": 0.6299212598425197,
      "name": "D#6"
    },
    {
      "midi": 72,
      "frequency": 523.25,
      "time": 22.758604000000002,
      "duration": 0.5150858291666651,
      "velocity": 0.6299212598425197,
      "name": "C5"
    },
    {
      "midi": 68,
      "frequency": 415.3,
      "time": 23.275845000000004,
      "duration": 0.5150858291666651,
      "velocity": 0.6299212598425197,
      "name": "G#4"
    },
    {
      "midi": 75,
      "frequency": 622.25,
      "time": 23.793086000000002,
      "duration": 0.5150858291666651,
      "velocity": 0.6299212598425197,
      "name": "D#5"
    },
    {
      "midi": 68,
      "frequency": 415.3,
      "time": 24.310327000000004,
      "duration": 0.5150858291666651,
      "velocity": 0.6299212598425197,
      "name": "G#4"
    },
    {
      "midi": 72,
      "frequency": 523.25,
      "time": 24.827568000000003,
      "duration": 0.9806027291666695,
      "velocity": 0.6299212598425197,
      "name": "C5"
    },
    {
      "midi": 80,
      "frequency": 830.61,
      "time": 25.344809,
      "duration": 0.25646532916666587,
      "velocity": 0.6299212598425197,
      "name": "G#5"
    },
    {
      "midi": 82,
      "frequency": 932.33,
      "time": 25.603429500000004,
      "duration": 0.2564653291666623,
      "velocity": 0.6299212598425197,
      "name": "A#5"
    },
    {
      "midi": 84,
      "frequency": 1046.5,
      "time": 25.862050000000004,
      "duration": 0.5150858291666651,
      "velocity": 0.6299212598425197,
      "name": "C6"
    },
    {
      "midi": 73,
      "frequency": 554.37,
      "time": 25.862050000000004,
      "duration": 2.066808829166664,
      "velocity": 0.6299212598425197,
      "name": "C#5"
    },
    {
      "midi": 58,
      "frequency": 233.08,
      "time": 25.862050000000004,
      "duration": 0.5150858291666651,
      "velocity": 0.6299212598425197,
      "name": "A#3"
    },
    {
      "midi": 85,
      "frequency": 1108.73,
      "time": 26.379291000000002,
      "duration": 0.5150858291666651,
      "velocity": 0.6299212598425197,
      "name": "C#6"
    },
    {
      "midi": 65,
      "frequency": 349.23,
      "time": 26.379291000000002,
      "duration": 0.5150858291666651,
      "velocity": 0.6299212598425197,
      "name": "F4"
    },
    {
      "midi": 85,
      "frequency": 1108.73,
      "time": 26.896532000000004,
      "duration": 1.9633606291666652,
      "velocity": 0.6299212598425197,
      "name": "C#6"
    },
    {
      "midi": 70,
      "frequency": 466.16,
      "time": 26.896532000000004,
      "duration": 0.5150858291666651,
      "velocity": 0.6299212598425197,
      "name": "A#4"
    },
    {
      "midi": 65,
      "frequency": 349.23,
      "time": 27.413773000000003,
      "duration": 0.5150858291666651,
      "velocity": 0.6299212598425197,
      "name": "F4"
    },
    {
      "midi": 73,
      "frequency": 554.37,
      "time": 27.931014000000005,
      "duration": 0.4892237791666645,
      "velocity": 0.6299212598425197,
      "name": "C#5"
    },
    {
      "midi": 68,
      "frequency": 415.3,
      "time": 27.931014000000005,
      "duration": 0.5150858291666651,
      "velocity": 0.6299212598425197,
      "name": "G#4"
    },
    {
      "midi": 77,
      "frequency": 698.46,
      "time": 28.448255000000003,
      "duration": 1.4719816791666673,
      "velocity": 0.6299212598425197,
      "name": "F5"
    },
    {
      "midi": 65,
      "frequency": 349.23,
      "time": 28.448255000000003,
      "duration": 0.5150858291666651,
      "velocity": 0.6299212598425197,
      "name": "F4"
    },
    {
      "midi": 87,
      "frequency": 1244.51,
      "time": 28.965496,
      "duration": 0.5150858291666651,
      "velocity": 0.6299212598425197,
      "name": "D#6"
    },
    {
      "midi": 70,
      "frequency": 466.16,
      "time": 28.965496,
      "duration": 0.9806027291666695,
      "velocity": 0.6299212598425197,
      "name": "A#4"
    },
    {
      "midi": 85,
      "frequency": 1108.73,
      "time": 29.482737000000004,
      "duration": 0.5150858291666651,
      "velocity": 0.6299212598425197,
      "name": "C#6"
    },
    {
      "midi": 84,
      "frequency": 1046.5,
      "time": 29.999978000000002,
      "duration": 2.066808829166664,
      "velocity": 0.6299212598425197,
      "name": "C6"
    },
    {
      "midi": 73,
      "frequency": 554.37,
      "time": 29.999978000000002,
      "duration": 2.066808829166664,
      "velocity": 0.6299212598425197,
      "name": "C#5"
    },
    {
      "midi": 77,
      "frequency": 698.46,
      "time": 29.999978000000002,
      "duration": 2.066808829166664,
      "velocity": 0.6299212598425197,
      "name": "F5"
    },
    {
      "midi": 51,
      "frequency": 155.56,
      "time": 29.999978000000002,
      "duration": 0.5150858291666651,
      "velocity": 0.6299212598425197,
      "name": "D#3"
    },
    {
      "midi": 58,
      "frequency": 233.08,
      "time": 30.517219000000004,
      "duration": 0.5150858291666651,
      "velocity": 0.6299212598425197,
      "name": "A#3"
    },
    {
      "midi": 68,
      "frequency": 415.3,
      "time": 31.034460000000003,
      "duration": 0.5150858291666651,
      "velocity": 0.6299212598425197,
      "name": "G#4"
    },
    {
      "midi": 58,
      "frequency": 233.08,
      "time": 31.551701000000005,
      "duration": 0.5150858291666616,
      "velocity": 0.6299212598425197,
      "name": "A#3"
    },
    {
      "midi": 82,
      "frequency": 932.33,
      "time": 32.06894200000001,
      "duration": 0.4892237791666645,
      "velocity": 0.6299212598425197,
      "name": "A#5"
    },
    {
      "midi": 67,
      "frequency": 392,
      "time": 32.06894200000001,
      "duration": 1.9633606291666652,
      "velocity": 0.6299212598425197,
      "name": "G4"
    },
    {
      "midi": 75,
      "frequency": 622.25,
      "time": 32.586183000000005,
      "duration": 0.5150858291666651,
      "velocity": 0.6299212598425197,
      "name": "D#5"
    },
    {
      "midi": 80,
      "frequency": 830.61,
      "time": 33.103424000000004,
      "duration": 0.5150858291666722,
      "velocity": 0.6299212598425197,
      "name": "G#5"
    },
    {
      "midi": 82,
      "frequency": 932.33,
      "time": 33.620665,
      "duration": 0.5150858291666722,
      "velocity": 0.6299212598425197,
      "name": "A#5"
    },
    {
      "midi": 82,
      "frequency": 932.33,
      "time": 34.137906,
      "duration": 0.5150858291666722,
      "velocity": 0.6299212598425197,
      "name": "A#5"
    },
    {
      "midi": 75,
      "frequency": 622.25,
      "time": 34.137906,
      "duration": 1.0323268291666707,
      "velocity": 0.6299212598425197,
      "name": "D#5"
    },
    {
      "midi": 44,
      "frequency": 103.83,
      "time": 34.137906,
      "duration": 0.5150858291666722,
      "velocity": 0.6299212598425197,
      "name": "G#2"
    },
    {
      "midi": 84,
      "frequency": 1046.5,
      "time": 34.65514700000001,
      "duration": 0.5150858291666651,
      "velocity": 0.6299212598425197,
      "name": "C6"
    },
    {
      "midi": 51,
      "frequency": 155.56,
      "time": 34.65514700000001,
      "duration": 0.5150858291666651,
      "velocity": 0.6299212598425197,
      "name": "D#3"
    },
    {
      "midi": 84,
      "frequency": 1046.5,
      "time": 35.172388000000005,
      "duration": 1.9633606291666652,
      "velocity": 0.6299212598425197,
      "name": "C6"
    },
    {
      "midi": 75,
      "frequency": 622.25,
      "time": 35.172388000000005,
      "duration": 1.9633606291666652,
      "velocity": 0.6299212598425197,
      "name": "D#5"
    },
    {
      "midi": 60,
      "frequency": 261.63,
      "time": 35.172388000000005,
      "duration": 0.5150858291666651,
      "velocity": 0.6299212598425197,
      "name": "C4"
    },
    {
      "midi": 51,
      "frequency": 155.56,
      "time": 35.689629000000004,
      "duration": 0.5150858291666722,
      "velocity": 0.6299212598425197,
      "name": "D#3"
    },
    {
      "midi": 58,
      "frequency": 233.08,
      "time": 36.20687,
      "duration": 0.5150858291666722,
      "velocity": 0.6299212598425197,
      "name": "A#3"
    },
    {
      "midi": 51,
      "frequency": 155.56,
      "time": 36.72411100000001,
      "duration": 0.5150858291666651,
      "velocity": 0.6299212598425197,
      "name": "D#3"
    },
    {
      "midi": 75,
      "frequency": 622.25,
      "time": 37.241352000000006,
      "duration": 0.9806027291666624,
      "velocity": 0.6299212598425197,
      "name": "D#5"
    },
    {
      "midi": 56,
      "frequency": 207.65,
      "time": 37.241352000000006,
      "duration": 0.5150858291666651,
      "velocity": 0.6299212598425197,
      "name": "G#3"
    },
    {
      "midi": 80,
      "frequency": 830.61,
      "time": 37.499972500000005,
      "duration": 0.25646532916666587,
      "velocity": 0.6299212598425197,
      "name": "G#5"
    },
    {
      "midi": 82,
      "frequency": 932.33,
      "time": 37.758593000000005,
      "duration": 0.25646532916666587,
      "velocity": 0.6299212598425197,
      "name": "A#5"
    },
    {
      "midi": 44,
      "frequency": 103.83,
      "time": 37.758593000000005,
      "duration": 0.4892237791666716,
      "velocity": 0.6299212598425197,
      "name": "G#2"
    },
    {
      "midi": 84,
      "frequency": 1046.5,
      "time": 38.017213500000004,
      "duration": 0.25646532916666587,
      "velocity": 0.6299212598425197,
      "name": "C6"
    },
    {
      "midi": 82,
      "frequency": 932.33,
      "time": 38.275834,
      "duration": 0.5150858291666722,
      "velocity": 0.6299212598425197,
      "name": "A#5"
    },
    {
      "midi": 75,
      "frequency": 622.25,
      "time": 38.275834,
      "duration": 1.0323268291666707,
      "velocity": 0.6299212598425197,
      "name": "D#5"
    },
    {
      "midi": 48,
      "frequency": 130.81,
      "time": 38.275834,
      "duration": 0.5150858291666722,
      "velocity": 0.6299212598425197,
      "name": "C3"
    },
    {
      "midi": 87,
      "frequency": 1244.51,
      "time": 38.793075,
      "duration": 0.5150858291666722,
      "velocity": 0.6299212598425197,
      "name": "D#6"
    },
    {
      "midi": 55,
      "frequency": 196,
      "time": 38.793075,
      "duration": 0.5150858291666722,
      "velocity": 0.6299212598425197,
      "name": "G3"
    },
    {
      "midi": 87,
      "frequency": 1244.51,
      "time": 39.31031600000001,
      "duration": 1.9633606291666652,
      "velocity": 0.6299212598425197,
      "name": "D#6"
    },
    {
      "midi": 75,
      "frequency": 622.25,
      "time": 39.31031600000001,
      "duration": 0.9806027291666624,
      "velocity": 0.6299212598425197,
      "name": "D#5"
    },
    {
      "midi": 63,
      "frequency": 311.13,
      "time": 39.31031600000001,
      "duration": 0.5150858291666651,
      "velocity": 0.6299212598425197,
      "name": "D#4"
    },
    {
      "midi": 55,
      "frequency": 196,
      "time": 39.827557000000006,
      "duration": 0.5150858291666651,
      "velocity": 0.6299212598425197,
      "name": "G3"
    },
    {
      "midi": 75,
      "frequency": 622.25,
      "time": 40.344798000000004,
      "duration": 0.9806027291666624,
      "velocity": 0.6299212598425197,
      "name": "D#5"
    },
    {
      "midi": 67,
      "frequency": 392,
      "time": 40.344798000000004,
      "duration": 0.5150858291666722,
      "velocity": 0.6299212598425197,
      "name": "G4"
    },
    {
      "midi": 55,
      "frequency": 196,
      "time": 40.862039,
      "duration": 0.5150858291666722,
      "velocity": 0.6299212598425197,
      "name": "G3"
    },
    {
      "midi": 79,
      "frequency": 783.99,
      "time": 41.37928000000001,
      "duration": 0.9806027291666624,
      "velocity": 0.6299212598425197,
      "name": "G5"
    },
    {
      "midi": 63,
      "frequency": 311.13,
      "time": 41.37928000000001,
      "duration": 0.5150858291666651,
      "velocity": 0.6299212598425197,
      "name": "D#4"
    },
    {
      "midi": 87,
      "frequency": 1244.51,
      "time": 41.63790050000001,
      "duration": 0.25646532916666587,
      "velocity": 0.6299212598425197,
      "name": "D#6"
    },
    {
      "midi": 89,
      "frequency": 1396.91,
      "time": 41.89652100000001,
      "duration": 0.25646532916666587,
      "velocity": 0.6299212598425197,
      "name": "F6"
    },
    {
      "midi": 48,
      "frequency": 130.81,
      "time": 41.89652100000001,
      "duration": 0.4892237791666716,
      "velocity": 0.6299212598425197,
      "name": "C3"
    },
    {
      "midi": 91,
      "frequency": 1567.98,
      "time": 42.155141500000006,
      "duration": 0.25646532916666587,
      "velocity": 0.6299212598425197,
      "name": "G6"
    },
    {
      "midi": 91,
      "frequency": 1567.98,
      "time": 42.413762000000006,
      "duration": 0.5150858291666651,
      "velocity": 0.6299212598425197,
      "name": "G6"
    },
    {
      "midi": 79,
      "frequency": 783.99,
      "time": 42.413762000000006,
      "duration": 1.0323268291666707,
      "velocity": 0.6299212598425197,
      "name": "G5"
    },
    {
      "midi": 87,
      "frequency": 1244.51,
      "time": 42.413762000000006,
      "duration": 1.0323268291666707,
      "velocity": 0.6299212598425197,
      "name": "D#6"
    },
    {
      "midi": 41,
      "frequency": 87.31,
      "time": 42.413762000000006,
      "duration": 0.5150858291666651,
      "velocity": 0.6299212598425197,
      "name": "F2"
    },
    {
      "midi": 92,
      "frequency": 1661.22,
      "time": 42.931003000000004,
      "duration": 0.5150858291666722,
      "velocity": 0.6299212598425197,
      "name": "G#6"
    },
    {
      "midi": 48,
      "frequency": 130.81,
      "time": 42.931003000000004,
      "duration": 0.5150858291666722,
      "velocity": 0.6299212598425197,
      "name": "C3"
    },
    {
      "midi": 92,
      "frequency": 1661.22,
      "time": 43.448244,
      "duration": 1.4719816791666673,
      "velocity": 0.6299212598425197,
      "name": "G#6"
    },
    {
      "midi": 80,
      "frequency": 830.61,
      "time": 43.448244,
      "duration": 1.4719816791666673,
      "velocity": 0.6299212598425197,
      "name": "G#5"
    },
    {
      "midi": 55,
      "frequency": 196,
      "time": 43.448244,
      "duration": 0.5150858291666722,
      "velocity": 0.6299212598425197,
      "name": "G3"
    },
    {
      "midi": 48,
      "frequency": 130.81,
      "time": 43.96548500000001,
      "duration": 0.5150858291666651,
      "velocity": 0.6299212598425197,
      "name": "C3"
    },
    {
      "midi": 56,
      "frequency": 207.65,
      "time": 44.48272600000001,
      "duration": 0.5150858291666651,
      "velocity": 0.6299212598425197,
      "name": "G#3"
    },
    {
      "midi": 94,
      "frequency": 1864.66,
      "time": 44.999967000000005,
      "duration": 0.5150858291666722,
      "velocity": 0.6299212598425197,
      "name": "A#6"
    },
    {
      "midi": 82,
      "frequency": 932.33,
      "time": 44.999967000000005,
      "duration": 0.5150858291666722,
      "velocity": 0.6299212598425197,
      "name": "A#5"
    },
    {
      "midi": 48,
      "frequency": 130.81,
      "time": 44.999967000000005,
      "duration": 0.5150858291666722,
      "velocity": 0.6299212598425197,
      "name": "C3"
    },
    {
      "midi": 96,
      "frequency": 2093,
      "time": 45.517208000000004,
      "duration": 0.3426721625000013,
      "velocity": 0.6299212598425197,
      "name": "C7"
    },
    {
      "midi": 84,
      "frequency": 1046.5,
      "time": 45.517208000000004,
      "duration": 0.3426721625000013,
      "velocity": 0.6299212598425197,
      "name": "C6"
    },
    {
      "midi": 53,
      "frequency": 174.61,
      "time": 45.517208000000004,
      "duration": 0.5150858291666722,
      "velocity": 0.6299212598425197,
      "name": "F3"
    },
    {
      "midi": 94,
      "frequency": 1864.66,
      "time": 45.86203533333334,
      "duration": 0.3426721625000013,
      "velocity": 0.6299212598425197,
      "name": "A#6"
    },
    {
      "midi": 82,
      "frequency": 932.33,
      "time": 45.86203533333334,
      "duration": 0.3426721625000013,
      "velocity": 0.6299212598425197,
      "name": "A#5"
    },
    {
      "midi": 48,
      "frequency": 130.81,
      "time": 46.034449,
      "duration": 0.4892237791666716,
      "velocity": 0.6299212598425197,
      "name": "C3"
    },
    {
      "midi": 92,
      "frequency": 1661.22,
      "time": 46.20686266666667,
      "duration": 0.3426721625000013,
      "velocity": 0.6299212598425197,
      "name": "G#6"
    },
    {
      "midi": 80,
      "frequency": 830.61,
      "time": 46.20686266666667,
      "duration": 0.3426721625000013,
      "velocity": 0.6299212598425197,
      "name": "G#5"
    },
    {
      "midi": 79,
      "frequency": 783.99,
      "time": 46.55169000000001,
      "duration": 1.9633606291666652,
      "velocity": 0.6299212598425197,
      "name": "G5"
    },
    {
      "midi": 91,
      "frequency": 1567.98,
      "time": 46.55169000000001,
      "duration": 1.9633606291666652,
      "velocity": 0.6299212598425197,
      "name": "G6"
    },
    {
      "midi": 39,
      "frequency": 77.78,
      "time": 46.55169000000001,
      "duration": 0.5150858291666651,
      "velocity": 0.6299212598425197,
      "name": "D#2"
    },
    {
      "midi": 48,
      "frequency": 130.81,
      "time": 47.068931000000006,
      "duration": 0.5150858291666651,
      "velocity": 0.6299212598425197,
      "name": "C3"
    },
    {
      "midi": 67,
      "frequency": 392,
      "time": 47.586172000000005,
      "duration": 1.0323268291666707,
      "velocity": 0.6299212598425197,
      "name": "G4"
    },
    {
      "midi": 55,
      "frequency": 196,
      "time": 47.586172000000005,
      "duration": 0.5150858291666722,
      "velocity": 0.6299212598425197,
      "name": "G3"
    },
    {
      "midi": 60,
      "frequency": 261.63,
      "time": 48.103413,
      "duration": 0.5150858291666722,
      "velocity": 0.6299212598425197,
      "name": "C4"
    },
    {
      "midi": 72,
      "frequency": 523.25,
      "time": 48.62065400000001,
      "duration": 1.9633606291666652,
      "velocity": 0.6299212598425197,
      "name": "C5"
    },
    {
      "midi": 63,
      "frequency": 311.13,
      "time": 48.62065400000001,
      "duration": 0.5150858291666651,
      "velocity": 0.6299212598425197,
      "name": "D#4"
    },
    {
      "midi": 80,
      "frequency": 830.61,
      "time": 49.13789500000001,
      "duration": 0.5150858291666651,
      "velocity": 0.6299212598425197,
      "name": "G#5"
    },
    {
      "midi": 92,
      "frequency": 1661.22,
      "time": 49.13789500000001,
      "duration": 0.5150858291666651,
      "velocity": 0.6299212598425197,
      "name": "G#6"
    },
    {
      "midi": 60,
      "frequency": 261.63,
      "time": 49.13789500000001,
      "duration": 0.5150858291666651,
      "velocity": 0.6299212598425197,
      "name": "C4"
    },
    {
      "midi": 79,
      "frequency": 783.99,
      "time": 49.655136000000006,
      "duration": 0.5150858291666722,
      "velocity": 0.6299212598425197,
      "name": "G5"
    },
    {
      "midi": 91,
      "frequency": 1567.98,
      "time": 49.655136000000006,
      "duration": 0.5150858291666722,
      "velocity": 0.6299212598425197,
      "name": "G6"
    },
    {
      "midi": 63,
      "frequency": 311.13,
      "time": 49.655136000000006,
      "duration": 0.9806027291666624,
      "velocity": 0.6299212598425197,
      "name": "D#4"
    },
    {
      "midi": 75,
      "frequency": 622.25,
      "time": 50.172377000000004,
      "duration": 0.5150858291666722,
      "velocity": 0.6299212598425197,
      "name": "D#5"
    },
    {
      "midi": 87,
      "frequency": 1244.51,
      "time": 50.172377000000004,
      "duration": 0.5150858291666722,
      "velocity": 0.6299212598425197,
      "name": "D#6"
    },
    {
      "midi": 75,
      "frequency": 622.25,
      "time": 50.689618,
      "duration": 0.5150858291666722,
      "velocity": 0.6299212598425197,
      "name": "D#5"
    },
    {
      "midi": 87,
      "frequency": 1244.51,
      "time": 50.689618,
      "duration": 0.5150858291666722,
      "velocity": 0.6299212598425197,
      "name": "D#6"
    },
    {
      "midi": 49,
      "frequency": 138.59,
      "time": 50.689618,
      "duration": 0.5150858291666722,
      "velocity": 0.6299212598425197,
      "name": "C#3"
    },
    {
      "midi": 77,
      "frequency": 698.46,
      "time": 51.20685900000001,
      "duration": 0.5150858291666651,
      "velocity": 0.6299212598425197,
      "name": "F5"
    },
    {
      "midi": 89,
      "frequency": 1396.91,
      "time": 51.20685900000001,
      "duration": 0.5150858291666651,
      "velocity": 0.6299212598425197,
      "name": "F6"
    },
    {
      "midi": 56,
      "frequency": 207.65,
      "time": 51.20685900000001,
      "duration": 0.5150858291666651,
      "velocity": 0.6299212598425197,
      "name": "G#3"
    },
    {
      "midi": 77,
      "frequency": 698.46,
      "time": 51.72410000000001,
      "duration": 1.9633606291666652,
      "velocity": 0.6299212598425197,
      "name": "F5"
    },
    {
      "midi": 89,
      "frequency": 1396.91,
      "time": 51.72410000000001,
      "duration": 1.9633606291666652,
      "velocity": 0.6299212598425197,
      "name": "F6"
    },
    {
      "midi": 63,
      "frequency": 311.13,
      "time": 51.72410000000001,
      "duration": 0.5150858291666651,
      "velocity": 0.6299212598425197,
      "name": "D#4"
    },
    {
      "midi": 56,
      "frequency": 207.65,
      "time": 52.241341000000006,
      "duration": 0.5150858291666722,
      "velocity": 0.6299212598425197,
      "name": "G#3"
    },
    {
      "midi": 65,
      "frequency": 349.23,
      "time": 52.758582000000004,
      "duration": 1.0323268291666707,
      "velocity": 0.6299212598425197,
      "name": "F4"
    },
    {
      "midi": 61,
      "frequency": 277.18,
      "time": 52.758582000000004,
      "duration": 0.5150858291666722,
      "velocity": 0.6299212598425197,
      "name": "C#4"
    },
    {
      "midi": 56,
      "frequency": 207.65,
      "time": 53.27582300000001,
      "duration": 0.5150858291666651,
      "velocity": 0.6299212598425197,
      "name": "G#3"
    },
    {
      "midi": 68,
      "frequency": 415.3,
      "time": 53.79306400000001,
      "duration": 1.0323268291666636,
      "velocity": 0.6299212598425197,
      "name": "G#4"
    },
    {
      "midi": 63,
      "frequency": 311.13,
      "time": 53.79306400000001,
      "duration": 0.5150858291666651,
      "velocity": 0.6299212598425197,
      "name": "D#4"
    },
    {
      "midi": 87,
      "frequency": 1244.51,
      "time": 54.31030500000001,
      "duration": 0.25646532916666587,
      "velocity": 0.6299212598425197,
      "name": "D#6"
    },
    {
      "midi": 49,
      "frequency": 138.59,
      "time": 54.31030500000001,
      "duration": 0.4892237791666716,
      "velocity": 0.6299212598425197,
      "name": "C#3"
    },
    {
      "midi": 85,
      "frequency": 1108.73,
      "time": 54.568925500000006,
      "duration": 0.25646532916666587,
      "velocity": 0.6299212598425197,
      "name": "C#6"
    },
    {
      "midi": 85,
      "frequency": 1108.73,
      "time": 54.827546000000005,
      "duration": 0.5150858291666722,
      "velocity": 0.6299212598425197,
      "name": "C#6"
    },
    {
      "midi": 75,
      "frequency": 622.25,
      "time": 54.827546000000005,
      "duration": 1.0323268291666707,
      "velocity": 0.6299212598425197,
      "name": "D#5"
    },
    {
      "midi": 82,
      "frequency": 932.33,
      "time": 54.827546000000005,
      "duration": 1.0323268291666707,
      "velocity": 0.6299212598425197,
      "name": "A#5"
    },
    {
      "midi": 48,
      "frequency": 130.81,
      "time": 54.827546000000005,
      "duration": 0.5150858291666722,
      "velocity": 0.6299212598425197,
      "name": "C3"
    },
    {
      "midi": 87,
      "frequency": 1244.51,
      "time": 55.344787000000004,
      "duration": 0.5150858291666722,
      "velocity": 0.6299212598425197,
      "name": "D#6"
    },
    {
      "midi": 56,
      "frequency": 207.65,
      "time": 55.344787000000004,
      "duration": 0.5150858291666722,
      "velocity": 0.6299212598425197,
      "name": "G#3"
    },
    {
      "midi": 87,
      "frequency": 1244.51,
      "time": 55.86202800000001,
      "duration": 1.9633606291666652,
      "velocity": 0.6299212598425197,
      "name": "D#6"
    },
    {
      "midi": 75,
      "frequency": 622.25,
      "time": 55.86202800000001,
      "duration": 1.9633606291666652,
      "velocity": 0.6299212598425197,
      "name": "D#5"
    },
    {
      "midi": 60,
      "frequency": 261.63,
      "time": 55.86202800000001,
      "duration": 0.5150858291666651,
      "velocity": 0.6299212598425197,
      "name": "C4"
    },
    {
      "midi": 56,
      "frequency": 207.65,
      "time": 56.37926900000001,
      "duration": 0.5150858291666651,
      "velocity": 0.6299212598425197,
      "name": "G#3"
    },
    {
      "midi": 63,
      "frequency": 311.13,
      "time": 56.896510000000006,
      "duration": 0.5150858291666722,
      "velocity": 0.6299212598425197,
      "name": "D#4"
    },
    {
      "midi": 56,
      "frequency": 207.65,
      "time": 57.413751000000005,
      "duration": 0.5150858291666722,
      "velocity": 0.6299212598425197,
      "name": "G#3"
    },
    {
      "midi": 75,
      "frequency": 622.25,
      "time": 57.930992,
      "duration": 0.9806027291666695,
      "velocity": 0.6299212598425197,
      "name": "D#5"
    },
    {
      "midi": 60,
      "frequency": 261.63,
      "time": 57.930992,
      "duration": 0.9806027291666695,
      "velocity": 0.6299212598425197,
      "name": "C4"
    },
    {
      "midi": 80,
      "frequency": 830.61,
      "time": 58.44823300000001,
      "duration": 0.25646532916666587,
      "velocity": 0.6299212598425197,
      "name": "G#5"
    },
    {
      "midi": 82,
      "frequency": 932.33,
      "time": 58.70685350000001,
      "duration": 0.25646532916666587,
      "velocity": 0.6299212598425197,
      "name": "A#5"
    },
    {
      "midi": 84,
      "frequency": 1046.5,
      "time": 58.96547400000001,
      "duration": 0.5150858291666651,
      "velocity": 0.6299212598425197,
      "name": "C6"
    },
    {
      "midi": 73,
      "frequency": 554.37,
      "time": 58.96547400000001,
      "duration": 2.0668088291666677,
      "velocity": 0.6299212598425197,
      "name": "C#5"
    },
    {
      "midi": 46,
      "frequency": 116.54,
      "time": 58.96547400000001,
      "duration": 0.5150858291666651,
      "velocity": 0.6299212598425197,
      "name": "A#2"
    },
    {
      "midi": 56,
      "frequency": 207.65,
      "time": 58.96547400000001,
      "duration": 0.5150858291666651,
      "velocity": 0.6299212598425197,
      "name": "G#3"
    },
    {
      "midi": 85,
      "frequency": 1108.73,
      "time": 59.482715000000006,
      "duration": 1.0323268291666707,
      "velocity": 0.6299212598425197,
      "name": "C#6"
    },
    {
      "midi": 53,
      "frequency": 174.61,
      "time": 59.482715000000006,
      "duration": 0.5150858291666722,
      "velocity": 0.6299212598425197,
      "name": "F3"
    },
    {
      "midi": 56,
      "frequency": 207.65,
      "time": 59.999956000000005,
      "duration": 0.5150858291666722,
      "velocity": 0.6299212598425197,
      "name": "G#3"
    },
    {
      "midi": 77,
      "frequency": 698.46,
      "time": 60.51719700000001,
      "duration": 0.4892237791666645,
      "velocity": 0.6299212598425197,
      "name": "F5"
    },
    {
      "midi": 46,
      "frequency": 116.54,
      "time": 60.51719700000001,
      "duration": 0.4892237791666645,
      "velocity": 0.6299212598425197,
      "name": "A#2"
    },
    {
      "midi": 80,
      "frequency": 830.61,
      "time": 61.03443800000001,
      "duration": 1.0323268291666707,
      "velocity": 0.6299212598425197,
      "name": "G#5"
    },
    {
      "midi": 73,
      "frequency": 554.37,
      "time": 61.03443800000001,
      "duration": 2.0668088291666677,
      "velocity": 0.6299212598425197,
      "name": "C#5"
    },
    {
      "midi": 39,
      "frequency": 77.78,
      "time": 61.03443800000001,
      "duration": 0.5150858291666651,
      "velocity": 0.6299212598425197,
      "name": "D#2"
    },
    {
      "midi": 46,
      "frequency": 116.54,
      "time": 61.55167900000001,
      "duration": 0.5150858291666722,
      "velocity": 0.6299212598425197,
      "name": "A#2"
    },
    {
      "midi": 79,
      "frequency": 783.99,
      "time": 62.068920000000006,
      "duration": 0.9806027291666695,
      "velocity": 0.6299212598425197,
      "name": "G5"
    },
    {
      "midi": 55,
      "frequency": 196,
      "time": 62.068920000000006,
      "duration": 0.5150858291666722,
      "velocity": 0.6299212598425197,
      "name": "G3"
    },
    {
      "midi": 51,
      "frequency": 155.56,
      "time": 62.586161000000004,
      "duration": 0.4892237791666716,
      "velocity": 0.6299212598425197,
      "name": "D#3"
    },
    {
      "midi": 73,
      "frequency": 554.37,
      "time": 63.10340200000001,
      "duration": 1.9633606291666652,
      "velocity": 0.6299212598425197,
      "name": "C#5"
    },
    {
      "midi": 80,
      "frequency": 830.61,
      "time": 63.10340200000001,
      "duration": 1.9633606291666652,
      "velocity": 0.6299212598425197,
      "name": "G#5"
    },
    {
      "midi": 58,
      "frequency": 233.08,
      "time": 63.10340200000001,
      "duration": 1.0323268291666707,
      "velocity": 0.6299212598425197,
      "name": "A#3"
    },
    {
      "midi": 44,
      "frequency": 103.83,
      "time": 63.10340200000001,
      "duration": 0.5150858291666651,
      "velocity": 0.6299212598425197,
      "name": "G#2"
    },
    {
      "midi": 51,
      "frequency": 155.56,
      "time": 63.62064300000001,
      "duration": 3.6185318291666633,
      "velocity": 0.6299212598425197,
      "name": "D#3"
    },
    {
      "midi": 58,
      "frequency": 233.08,
      "time": 64.13788400000001,
      "duration": 0.5150858291666651,
      "velocity": 0.6299212598425197,
      "name": "A#3"
    },
    {
      "midi": 61,
      "frequency": 277.18,
      "time": 64.65512500000001,
      "duration": 0.5150858291666651,
      "velocity": 0.6299212598425197,
      "name": "C#4"
    },
    {
      "midi": 60,
      "frequency": 261.63,
      "time": 65.17236600000001,
      "duration": 2.0668088291666606,
      "velocity": 0.6299212598425197,
      "name": "C4"
    },
    {
      "midi": 68,
      "frequency": 415.3,
      "time": 65.68960700000001,
      "duration": 0.5150858291666651,
      "velocity": 0.6299212598425197,
      "name": "G#4"
    },
    {
      "midi": 72,
      "frequency": 523.25,
      "time": 66.20684800000001,
      "duration": 0.5150858291666651,
      "velocity": 0.6299212598425197,
      "name": "C5"
    },
    {
      "midi": 75,
      "frequency": 622.25,
      "time": 66.724089,
      "duration": 0.5150858291666651,
      "velocity": 0.6299212598425197,
      "name": "D#5"
    },
    {
      "midi": 68,
      "frequency": 415.3,
      "time": 67.24133,
      "duration": 1.0323268291666778,
      "velocity": 0.6299212598425197,
      "name": "G#4"
    },
    {
      "midi": 77,
      "frequency": 698.46,
      "time": 67.24133,
      "duration": 1.0323268291666778,
      "velocity": 0.6299212598425197,
      "name": "F5"
    },
    {
      "midi": 49,
      "frequency": 138.59,
      "time": 67.24133,
      "duration": 0.5150858291666651,
      "velocity": 0.6299212598425197,
      "name": "C#3"
    },
    {
      "midi": 56,
      "frequency": 207.65,
      "time": 67.758571,
      "duration": 0.5150858291666793,
      "velocity": 0.6299212598425197,
      "name": "G#3"
    },
    {
      "midi": 65,
      "frequency": 349.23,
      "time": 68.275812,
      "duration": 0.9806027291666766,
      "velocity": 0.6299212598425197,
      "name": "F4"
    },
    {
      "midi": 63,
      "frequency": 311.13,
      "time": 68.275812,
      "duration": 0.5150858291666793,
      "velocity": 0.6299212598425197,
      "name": "D#4"
    },
    {
      "midi": 56,
      "frequency": 207.65,
      "time": 68.79305300000001,
      "duration": 0.5150858291666651,
      "velocity": 0.6299212598425197,
      "name": "G#3"
    },
    {
      "midi": 68,
      "frequency": 415.3,
      "time": 69.31029400000001,
      "duration": 0.5150858291666651,
      "velocity": 0.6299212598425197,
      "name": "G#4"
    },
    {
      "midi": 61,
      "frequency": 277.18,
      "time": 69.31029400000001,
      "duration": 0.5150858291666651,
      "velocity": 0.6299212598425197,
      "name": "C#4"
    },
    {
      "midi": 67,
      "frequency": 392,
      "time": 69.82753500000001,
      "duration": 0.5150858291666651,
      "velocity": 0.6299212598425197,
      "name": "G4"
    },
    {
      "midi": 56,
      "frequency": 207.65,
      "time": 69.82753500000001,
      "duration": 0.5150858291666651,
      "velocity": 0.6299212598425197,
      "name": "G#3"
    },
    {
      "midi": 68,
      "frequency": 415.3,
      "time": 70.34477600000001,
      "duration": 0.5150858291666651,
      "velocity": 0.6299212598425197,
      "name": "G#4"
    },
    {
      "midi": 63,
      "frequency": 311.13,
      "time": 70.34477600000001,
      "duration": 0.5150858291666651,
      "velocity": 0.6299212598425197,
      "name": "D#4"
    },
    {
      "midi": 77,
      "frequency": 698.46,
      "time": 70.86201700000001,
      "duration": 0.5150858291666651,
      "velocity": 0.6299212598425197,
      "name": "F5"
    },
    {
      "midi": 49,
      "frequency": 138.59,
      "time": 70.86201700000001,
      "duration": 0.4892237791666645,
      "velocity": 0.6299212598425197,
      "name": "C#3"
    },
    {
      "midi": 75,
      "frequency": 622.25,
      "time": 71.37925800000001,
      "duration": 2.066808829166675,
      "velocity": 0.6299212598425197,
      "name": "D#5"
    },
    {
      "midi": 70,
      "frequency": 466.16,
      "time": 71.37925800000001,
      "duration": 0.5150858291666651,
      "velocity": 0.6299212598425197,
      "name": "A#4"
    },
    {
      "midi": 48,
      "frequency": 130.81,
      "time": 71.37925800000001,
      "duration": 0.5150858291666651,
      "velocity": 0.6299212598425197,
      "name": "C3"
    },
    {
      "midi": 63,
      "frequency": 311.13,
      "time": 71.896499,
      "duration": 0.5150858291666651,
      "velocity": 0.6299212598425197,
      "name": "D#4"
    },
    {
      "midi": 56,
      "frequency": 207.65,
      "time": 71.896499,
      "duration": 0.5150858291666651,
      "velocity": 0.6299212598425197,
      "name": "G#3"
    },
    {
      "midi": 68,
      "frequency": 415.3,
      "time": 72.41374,
      "duration": 0.5150858291666793,
      "velocity": 0.6299212598425197,
      "name": "G#4"
    },
    {
      "midi": 60,
      "frequency": 261.63,
      "time": 72.41374,
      "duration": 0.5150858291666793,
      "velocity": 0.6299212598425197,
      "name": "C4"
    },
    {
      "midi": 67,
      "frequency": 392,
      "time": 72.930981,
      "duration": 0.5150858291666793,
      "velocity": 0.6299212598425197,
      "name": "G4"
    },
    {
      "midi": 56,
      "frequency": 207.65,
      "time": 72.930981,
      "duration": 0.5150858291666793,
      "velocity": 0.6299212598425197,
      "name": "G#3"
    },
    {
      "midi": 68,
      "frequency": 415.3,
      "time": 73.44822200000002,
      "duration": 1.034481999999997,
      "velocity": 0.6299212598425197,
      "name": "G#4"
    },
    {
      "midi": 60,
      "frequency": 261.63,
      "time": 73.44822200000002,
      "duration": 0.9806027291666624,
      "velocity": 0.6299212598425197,
      "name": "C4"
    },
    {
      "midi": 67,
      "frequency": 392,
      "time": 73.96546300000001,
      "duration": 0.5150858291666651,
      "velocity": 0.6299212598425197,
      "name": "G4"
    },
    {
      "midi": 68,
      "frequency": 415.3,
      "time": 74.48270400000001,
      "duration": 0.9288786291666611,
      "velocity": 0.6299212598425197,
      "name": "G#4"
    },
    {
      "midi": 60,
      "frequency": 261.63,
      "time": 74.48270400000001,
      "duration": 0.5150858291666651,
      "velocity": 0.6299212598425197,
      "name": "C4"
    },
    {
      "midi": 75,
      "frequency": 622.25,
      "time": 74.99994500000001,
      "duration": 0.5150858291666651,
      "velocity": 0.6299212598425197,
      "name": "D#5"
    },
    {
      "midi": 48,
      "frequency": 130.81,
      "time": 74.99994500000001,
      "duration": 0.4892237791666645,
      "velocity": 0.6299212598425197,
      "name": "C3"
    },
    {
      "midi": 75,
      "frequency": 622.25,
      "time": 75.51718600000001,
      "duration": 0.5150858291666651,
      "velocity": 0.6299212598425197,
      "name": "D#5"
    },
    {
      "midi": 65,
      "frequency": 349.23,
      "time": 75.51718600000001,
      "duration": 2.066808829166675,
      "velocity": 0.6299212598425197,
      "name": "F4"
    },
    {
      "midi": 46,
      "frequency": 116.54,
      "time": 75.51718600000001,
      "duration": 0.5150858291666651,
      "velocity": 0.6299212598425197,
      "name": "A#2"
    },
    {
      "midi": 56,
      "frequency": 207.65,
      "time": 75.51718600000001,
      "duration": 0.5150858291666651,
      "velocity": 0.6299212598425197,
      "name": "G#3"
    },
    {
      "midi": 73,
      "frequency": 554.37,
      "time": 76.03442700000001,
      "duration": 0.5150858291666651,
      "velocity": 0.6299212598425197,
      "name": "C#5"
    },
    {
      "midi": 53,
      "frequency": 174.61,
      "time": 76.03442700000001,
      "duration": 0.5150858291666651,
      "velocity": 0.6299212598425197,
      "name": "F3"
    },
    {
      "midi": 73,
      "frequency": 554.37,
      "time": 76.551668,
      "duration": 0.5150858291666651,
      "velocity": 0.6299212598425197,
      "name": "C#5"
    },
    {
      "midi": 56,
      "frequency": 207.65,
      "time": 76.551668,
      "duration": 0.5150858291666651,
      "velocity": 0.6299212598425197,
      "name": "G#3"
    },
    {
      "midi": 72,
      "frequency": 523.25,
      "time": 77.068909,
      "duration": 0.5150858291666793,
      "velocity": 0.6299212598425197,
      "name": "C5"
    },
    {
      "midi": 46,
      "frequency": 116.54,
      "time": 77.068909,
      "duration": 0.4892237791666645,
      "velocity": 0.6299212598425197,
      "name": "A#2"
    },
    {
      "midi": 72,
      "frequency": 523.25,
      "time": 77.58615,
      "duration": 0.5150858291666793,
      "velocity": 0.6299212598425197,
      "name": "C5"
    },
    {
      "midi": 61,
      "frequency": 277.18,
      "time": 77.58615,
      "duration": 1.0323268291666778,
      "velocity": 0.6299212598425197,
      "name": "C#4"
    },
    {
      "midi": 65,
      "frequency": 349.23,
      "time": 77.58615,
      "duration": 1.0323268291666778,
      "velocity": 0.6299212598425197,
      "name": "F4"
    },
    {
      "midi": 39,
      "frequency": 77.78,
      "time": 77.58615,
      "duration": 0.5150858291666793,
      "velocity": 0.6299212598425197,
      "name": "D#2"
    },
    {
      "midi": 70,
      "frequency": 466.16,
      "time": 78.10339100000002,
      "duration": 0.5150858291666651,
      "velocity": 0.6299212598425197,
      "name": "A#4"
    },
    {
      "midi": 46,
      "frequency": 116.54,
      "time": 78.10339100000002,
      "duration": 0.5150858291666651,
      "velocity": 0.6299212598425197,
      "name": "A#2"
    },
    {
      "midi": 70,
      "frequency": 466.16,
      "time": 78.62063200000001,
      "duration": 0.5150858291666651,
      "velocity": 0.6299212598425197,
      "name": "A#4"
    },
    {
      "midi": 61,
      "frequency": 277.18,
      "time": 78.62063200000001,
      "duration": 1.0323268291666636,
      "velocity": 0.6299212598425197,
      "name": "C#4"
    },
    {
      "midi": 65,
      "frequency": 349.23,
      "time": 78.62063200000001,
      "duration": 1.0323268291666636,
      "velocity": 0.6299212598425197,
      "name": "F4"
    },
    {
      "midi": 56,
      "frequency": 207.65,
      "time": 78.62063200000001,
      "duration": 0.5150858291666651,
      "velocity": 0.6299212598425197,
      "name": "G#3"
    },
    {
      "midi": 68,
      "frequency": 415.3,
      "time": 79.13787300000001,
      "duration": 0.5150858291666651,
      "velocity": 0.6299212598425197,
      "name": "G#4"
    },
    {
      "midi": 51,
      "frequency": 155.56,
      "time": 79.13787300000001,
      "duration": 0.4892237791666645,
      "velocity": 0.6299212598425197,
      "name": "D#3"
    },
    {
      "midi": 70,
      "frequency": 466.16,
      "time": 79.65511400000001,
      "duration": 0.5150858291666651,
      "velocity": 0.6299212598425197,
      "name": "A#4"
    },
    {
      "midi": 58,
      "frequency": 233.08,
      "time": 79.65511400000001,
      "duration": 2.0668088291666606,
      "velocity": 0.6299212598425197,
      "name": "A#3"
    },
    {
      "midi": 63,
      "frequency": 311.13,
      "time": 79.65511400000001,
      "duration": 2.0668088291666606,
      "velocity": 0.6299212598425197,
      "name": "D#4"
    },
    {
      "midi": 44,
      "frequency": 103.83,
      "time": 79.65511400000001,
      "duration": 0.5150858291666651,
      "velocity": 0.6299212598425197,
      "name": "G#2"
    },
    {
      "midi": 72,
      "frequency": 523.25,
      "time": 80.17235500000001,
      "duration": 0.5150858291666651,
      "velocity": 0.6299212598425197,
      "name": "C5"
    },
    {
      "midi": 51,
      "frequency": 155.56,
      "time": 80.17235500000001,
      "duration": 0.5150858291666651,
      "velocity": 0.6299212598425197,
      "name": "D#3"
    },
    {
      "midi": 72,
      "frequency": 523.25,
      "time": 80.68959600000001,
      "duration": 0.9806027291666766,
      "velocity": 0.6299212598425197,
      "name": "C5"
    },
    {
      "midi": 60,
      "frequency": 261.63,
      "time": 80.68959600000001,
      "duration": 0.5150858291666651,
      "velocity": 0.6299212598425197,
      "name": "C4"
    },
    {
      "midi": 51,
      "frequency": 155.56,
      "time": 81.20683700000001,
      "duration": 0.5150858291666651,
      "velocity": 0.6299212598425197,
      "name": "D#3"
    },
    {
      "midi": 58,
      "frequency": 233.08,
      "time": 81.724078,
      "duration": 0.5150858291666793,
      "velocity": 0.6299212598425197,
      "name": "A#3"
    },
    {
      "midi": 68,
      "frequency": 415.3,
      "time": 82.241319,
      "duration": 0.5150858291666793,
      "velocity": 0.6299212598425197,
      "name": "G#4"
    },
    {
      "midi": 51,
      "frequency": 155.56,
      "time": 82.241319,
      "duration": 0.5150858291666793,
      "velocity": 0.6299212598425197,
      "name": "D#3"
    },
    {
      "midi": 72,
      "frequency": 523.25,
      "time": 82.75856000000002,
      "duration": 0.5150858291666651,
      "velocity": 0.6299212598425197,
      "name": "C5"
    },
    {
      "midi": 56,
      "frequency": 207.65,
      "time": 82.75856000000002,
      "duration": 0.5150858291666651,
      "velocity": 0.6299212598425197,
      "name": "G#3"
    },
    {
      "midi": 75,
      "frequency": 622.25,
      "time": 83.27580100000002,
      "duration": 0.5150858291666651,
      "velocity": 0.6299212598425197,
      "name": "D#5"
    },
    {
      "midi": 44,
      "frequency": 103.83,
      "time": 83.27580100000002,
      "duration": 0.4892237791666503,
      "velocity": 0.6299212598425197,
      "name": "G#2"
    },
    {
      "midi": 77,
      "frequency": 698.46,
      "time": 83.79304200000001,
      "duration": 2.0668088291666606,
      "velocity": 0.6299212598425197,
      "name": "F5"
    },
    {
      "midi": 68,
      "frequency": 415.3,
      "time": 83.79304200000001,
      "duration": 1.0323268291666636,
      "velocity": 0.6299212598425197,
      "name": "G#4"
    },
    {
      "midi": 72,
      "frequency": 523.25,
      "time": 83.79304200000001,
      "duration": 1.0323268291666636,
      "velocity": 0.6299212598425197,
      "name": "C5"
    },
    {
      "midi": 50,
      "frequency": 146.83,
      "time": 83.79304200000001,
      "duration": 0.5150858291666651,
      "velocity": 0.6299212598425197,
      "name": "D3"
    },
    {
      "midi": 60,
      "frequency": 261.63,
      "time": 83.79304200000001,
      "duration": 0.5150858291666651,
      "velocity": 0.6299212598425197,
      "name": "C4"
    },
    {
      "midi": 56,
      "frequency": 207.65,
      "time": 84.31028300000001,
      "duration": 0.5150858291666651,
      "velocity": 0.6299212598425197,
      "name": "G#3"
    },
    {
      "midi": 65,
      "frequency": 349.23,
      "time": 84.82752400000001,
      "duration": 0.5150858291666651,
      "velocity": 0.6299212598425197,
      "name": "F4"
    },
    {
      "midi": 60,
      "frequency": 261.63,
      "time": 84.82752400000001,
      "duration": 0.5150858291666651,
      "velocity": 0.6299212598425197,
      "name": "C4"
    },
    {
      "midi": 68,
      "frequency": 415.3,
      "time": 85.34476500000001,
      "duration": 0.5150858291666651,
      "velocity": 0.6299212598425197,
      "name": "G#4"
    },
    {
      "midi": 50,
      "frequency": 146.83,
      "time": 85.34476500000001,
      "duration": 0.4892237791666645,
      "velocity": 0.6299212598425197,
      "name": "D3"
    },
    {
      "midi": 59,
      "frequency": 246.94,
      "time": 85.86200600000001,
      "duration": 1.0323268291666778,
      "velocity": 0.6299212598425197,
      "name": "B3"
    },
    {
      "midi": 67,
      "frequency": 392,
      "time": 85.86200600000001,
      "duration": 1.0323268291666778,
      "velocity": 0.6299212598425197,
      "name": "G4"
    },
    {
      "midi": 43,
      "frequency": 98,
      "time": 85.86200600000001,
      "duration": 0.5150858291666651,
      "velocity": 0.6299212598425197,
      "name": "G2"
    },
    {
      "midi": 79,
      "frequency": 783.99,
      "time": 86.379247,
      "duration": 0.5150858291666793,
      "velocity": 0.6299212598425197,
      "name": "G5"
    },
    {
      "midi": 50,
      "frequency": 146.83,
      "time": 86.379247,
      "duration": 0.5150858291666793,
      "velocity": 0.6299212598425197,
      "name": "D3"
    },
    {
      "midi": 79,
      "frequency": 783.99,
      "time": 86.896488,
      "duration": 0.5150858291666793,
      "velocity": 0.6299212598425197,
      "name": "G5"
    },
    {
      "midi": 71,
      "frequency": 493.88,
      "time": 86.896488,
      "duration": 1.0323268291666778,
      "velocity": 0.6299212598425197,
      "name": "B4"
    },
    {
      "midi": 59,
      "frequency": 246.94,
      "time": 86.896488,
      "duration": 0.5150858291666793,
      "velocity": 0.6299212598425197,
      "name": "B3"
    },
    {
      "midi": 77,
      "frequency": 698.46,
      "time": 87.413729,
      "duration": 0.5150858291666793,
      "velocity": 0.6299212598425197,
      "name": "F5"
    },
    {
      "midi": 50,
      "frequency": 146.83,
      "time": 87.413729,
      "duration": 0.4892237791666645,
      "velocity": 0.6299212598425197,
      "name": "D3"
    },
    {
      "midi": 75,
      "frequency": 622.25,
      "time": 87.93097000000002,
      "duration": 1.4719816791666602,
      "velocity": 0.6299212598425197,
      "name": "D#5"
    },
    {
      "midi": 67,
      "frequency": 392,
      "time": 87.93097000000002,
      "duration": 0.9806027291666624,
      "velocity": 0.6299212598425197,
      "name": "G4"
    },
    {
      "midi": 48,
      "frequency": 130.81,
      "time": 87.93097000000002,
      "duration": 0.5150858291666651,
      "velocity": 0.6299212598425197,
      "name": "C3"
    },
    {
      "midi": 55,
      "frequency": 196,
      "time": 88.44821100000001,
      "duration": 0.5150858291666651,
      "velocity": 0.6299212598425197,
      "name": "G3"
    },
    {
      "midi": 67,
      "frequency": 392,
      "time": 88.96545200000001,
      "duration": 0.9806027291666624,
      "velocity": 0.6299212598425197,
      "name": "G4"
    },
    {
      "midi": 63,
      "frequency": 311.13,
      "time": 88.96545200000001,
      "duration": 0.9806027291666624,
      "velocity": 0.6299212598425197,
      "name": "D#4"
    },
    {
      "midi": 72,
      "frequency": 523.25,
      "time": 89.48269300000001,
      "duration": 0.256465329166673,
      "velocity": 0.6299212598425197,
      "name": "C5"
    },
    {
      "midi": 73,
      "frequency": 554.37,
      "time": 89.7413135,
      "duration": 0.256465329166673,
      "velocity": 0.6299212598425197,
      "name": "C#5"
    },
    {
      "midi": 75,
      "frequency": 622.25,
      "time": 89.99993400000001,
      "duration": 1.0323268291666636,
      "velocity": 0.6299212598425197,
      "name": "D#5"
    },
    {
      "midi": 70,
      "frequency": 466.16,
      "time": 89.99993400000001,
      "duration": 0.5150858291666651,
      "velocity": 0.6299212598425197,
      "name": "A#4"
    },
    {
      "midi": 53,
      "frequency": 174.61,
      "time": 89.99993400000001,
      "duration": 0.5150858291666651,
      "velocity": 0.6299212598425197,
      "name": "F3"
    },
    {
      "midi": 69,
      "frequency": 440,
      "time": 90.51717500000001,
      "duration": 0.5150858291666651,
      "velocity": 0.6299212598425197,
      "name": "A4"
    },
    {
      "midi": 60,
      "frequency": 261.63,
      "time": 90.51717500000001,
      "duration": 0.5150858291666651,
      "velocity": 0.6299212598425197,
      "name": "C4"
    },
    {
      "midi": 73,
      "frequency": 554.37,
      "time": 91.03441600000001,
      "duration": 0.5150858291666793,
      "velocity": 0.6299212598425197,
      "name": "C#5"
    },
    {
      "midi": 65,
      "frequency": 349.23,
      "time": 91.03441600000001,
      "duration": 0,
      "velocity": 0.6299212598425197,
      "name": "F4"
    },
    {
      "midi": 65,
      "frequency": 349.23,
      "time": 91.03441600000001,
      "duration": 1.0323268291666778,
      "velocity": 0.6299212598425197,
      "name": "F4"
    },
    {
      "midi": 72,
      "frequency": 523.25,
      "time": 91.551657,
      "duration": 0.4892237791666645,
      "velocity": 0.6299212598425197,
      "name": "C5"
    },
    {
      "midi": 73,
      "frequency": 554.37,
      "time": 92.068898,
      "duration": 1.0323268291666778,
      "velocity": 0.6299212598425197,
      "name": "C#5"
    },
    {
      "midi": 68,
      "frequency": 415.3,
      "time": 92.068898,
      "duration": 4.135772829166669,
      "velocity": 0.6299212598425197,
      "name": "G#4"
    },
    {
      "midi": 46,
      "frequency": 116.54,
      "time": 92.068898,
      "duration": 0.5150858291666793,
      "velocity": 0.6299212598425197,
      "name": "A#2"
    },
    {
      "midi": 56,
      "frequency": 207.65,
      "time": 92.068898,
      "duration": 0.5150858291666793,
      "velocity": 0.6299212598425197,
      "name": "G#3"
    },
    {
      "midi": 53,
      "frequency": 174.61,
      "time": 92.58613900000002,
      "duration": 0.5150858291666651,
      "velocity": 0.6299212598425197,
      "name": "F3"
    },
    {
      "midi": 75,
      "frequency": 622.25,
      "time": 93.10338000000002,
      "duration": 1.0323268291666636,
      "velocity": 0.6299212598425197,
      "name": "D#5"
    },
    {
      "midi": 61,
      "frequency": 277.18,
      "time": 93.10338000000002,
      "duration": 0.5150858291666651,
      "velocity": 0.6299212598425197,
      "name": "C#4"
    },
    {
      "midi": 53,
      "frequency": 174.61,
      "time": 93.62062100000001,
      "duration": 0.5150858291666651,
      "velocity": 0.6299212598425197,
      "name": "F3"
    },
    {
      "midi": 77,
      "frequency": 698.46,
      "time": 94.13786200000001,
      "duration": 0.7737063291666715,
      "velocity": 0.6299212598425197,
      "name": "F5"
    },
    {
      "midi": 56,
      "frequency": 207.65,
      "time": 94.13786200000001,
      "duration": 0.5150858291666651,
      "velocity": 0.6299212598425197,
      "name": "G#3"
    },
    {
      "midi": 53,
      "frequency": 174.61,
      "time": 94.65510300000001,
      "duration": 0.5150858291666651,
      "velocity": 0.6299212598425197,
      "name": "F3"
    },
    {
      "midi": 79,
      "frequency": 783.99,
      "time": 94.91372350000002,
      "duration": 0.7737063291666573,
      "velocity": 0.6299212598425197,
      "name": "G5"
    },
    {
      "midi": 58,
      "frequency": 233.08,
      "time": 95.17234400000001,
      "duration": 0.5150858291666651,
      "velocity": 0.6299212598425197,
      "name": "A#3"
    },
    {
      "midi": 80,
      "frequency": 830.61,
      "time": 95.68958500000001,
      "duration": 0.4892237791666645,
      "velocity": 0.6299212598425197,
      "name": "G#5"
    },
    {
      "midi": 46,
      "frequency": 116.54,
      "time": 95.68958500000001,
      "duration": 0.4892237791666645,
      "velocity": 0.6299212598425197,
      "name": "A#2"
    },
    {
      "midi": 84,
      "frequency": 1046.5,
      "time": 96.206826,
      "duration": 2.066808829166675,
      "velocity": 0.6299212598425197,
      "name": "C6"
    },
    {
      "midi": 73,
      "frequency": 554.37,
      "time": 96.206826,
      "duration": 2.066808829166675,
      "velocity": 0.6299212598425197,
      "name": "C#5"
    },
    {
      "midi": 77,
      "frequency": 698.46,
      "time": 96.206826,
      "duration": 2.066808829166675,
      "velocity": 0.6299212598425197,
      "name": "F5"
    },
    {
      "midi": 39,
      "frequency": 77.78,
      "time": 96.206826,
      "duration": 0.5150858291666793,
      "velocity": 0.6299212598425197,
      "name": "D#2"
    },
    {
      "midi": 46,
      "frequency": 116.54,
      "time": 96.724067,
      "duration": 0.5150858291666793,
      "velocity": 0.6299212598425197,
      "name": "A#2"
    },
    {
      "midi": 56,
      "frequency": 207.65,
      "time": 97.24130800000002,
      "duration": 0.5150858291666651,
      "velocity": 0.6299212598425197,
      "name": "G#3"
    },
    {
      "midi": 46,
      "frequency": 116.54,
      "time": 97.75854900000002,
      "duration": 0.5150858291666651,
      "velocity": 0.6299212598425197,
      "name": "A#2"
    },
    {
      "midi": 82,
      "frequency": 932.33,
      "time": 98.27579000000001,
      "duration": 0.4892237791666645,
      "velocity": 0.6299212598425197,
      "name": "A#5"
    },
    {
      "midi": 55,
      "frequency": 196,
      "time": 98.27579000000001,
      "duration": 0.5150858291666651,
      "velocity": 0.6299212598425197,
      "name": "G3"
    },
    {
      "midi": 75,
      "frequency": 622.25,
      "time": 98.79303100000001,
      "duration": 0.5150858291666651,
      "velocity": 0.6299212598425197,
      "name": "D#5"
    },
    {
      "midi": 51,
      "frequency": 155.56,
      "time": 98.79303100000001,
      "duration": 0.5150858291666651,
      "velocity": 0.6299212598425197,
      "name": "D#3"
    },
    {
      "midi": 80,
      "frequency": 830.61,
      "time": 99.31027200000001,
      "duration": 0.5150858291666651,
      "velocity": 0.6299212598425197,
      "name": "G#5"
    },
    {
      "midi": 55,
      "frequency": 196,
      "time": 99.31027200000001,
      "duration": 0.9806027291666766,
      "velocity": 0.6299212598425197,
      "name": "G3"
    },
    {
      "midi": 82,
      "frequency": 932.33,
      "time": 99.82751300000001,
      "duration": 0.5150858291666651,
      "velocity": 0.6299212598425197,
      "name": "A#5"
    },
    {
      "midi": 82,
      "frequency": 932.33,
      "time": 100.34475400000001,
      "duration": 0.5150858291666651,
      "velocity": 0.6299212598425197,
      "name": "A#5"
    },
    {
      "midi": 75,
      "frequency": 622.25,
      "time": 100.34475400000001,
      "duration": 1.0323268291666778,
      "velocity": 0.6299212598425197,
      "name": "D#5"
    },
    {
      "midi": 44,
      "frequency": 103.83,
      "time": 100.34475400000001,
      "duration": 0.5150858291666651,
      "velocity": 0.6299212598425197,
      "name": "G#2"
    },
    {
      "midi": 84,
      "frequency": 1046.5,
      "time": 100.86199500000001,
      "duration": 0.5150858291666793,
      "velocity": 0.6299212598425197,
      "name": "C6"
    },
    {
      "midi": 51,
      "frequency": 155.56,
      "time": 100.86199500000001,
      "duration": 0.5150858291666793,
      "velocity": 0.6299212598425197,
      "name": "D#3"
    },
    {
      "midi": 84,
      "frequency": 1046.5,
      "time": 101.379236,
      "duration": 1.9633606291666723,
      "velocity": 0.6299212598425197,
      "name": "C6"
    },
    {
      "midi": 75,
      "frequency": 622.25,
      "time": 101.379236,
      "duration": 1.9633606291666723,
      "velocity": 0.6299212598425197,
      "name": "D#5"
    },
    {
      "midi": 60,
      "frequency": 261.63,
      "time": 101.379236,
      "duration": 0.5150858291666793,
      "velocity": 0.6299212598425197,
      "name": "C4"
    },
    {
      "midi": 51,
      "frequency": 155.56,
      "time": 101.89647700000002,
      "duration": 0.5150858291666651,
      "velocity": 0.6299212598425197,
      "name": "D#3"
    },
    {
      "midi": 58,
      "frequency": 233.08,
      "time": 102.41371800000002,
      "duration": 0.5150858291666651,
      "velocity": 0.6299212598425197,
      "name": "A#3"
    },
    {
      "midi": 51,
      "frequency": 155.56,
      "time": 102.93095900000002,
      "duration": 0.5150858291666651,
      "velocity": 0.6299212598425197,
      "name": "D#3"
    },
    {
      "midi": 75,
      "frequency": 622.25,
      "time": 103.44820000000001,
      "duration": 0.9806027291666766,
      "velocity": 0.6299212598425197,
      "name": "D#5"
    },
    {
      "midi": 56,
      "frequency": 207.65,
      "time": 103.44820000000001,
      "duration": 0.5150858291666651,
      "velocity": 0.6299212598425197,
      "name": "G#3"
    },
    {
      "midi": 80,
      "frequency": 830.61,
      "time": 103.7068205,
      "duration": 0.256465329166673,
      "velocity": 0.6299212598425197,
      "name": "G#5"
    },
    {
      "midi": 82,
      "frequency": 932.33,
      "time": 103.96544100000001,
      "duration": 0.256465329166673,
      "velocity": 0.6299212598425197,
      "name": "A#5"
    },
    {
      "midi": 44,
      "frequency": 103.83,
      "time": 103.96544100000001,
      "duration": 0.4892237791666645,
      "velocity": 0.6299212598425197,
      "name": "G#2"
    },
    {
      "midi": 84,
      "frequency": 1046.5,
      "time": 104.22406150000002,
      "duration": 0.25646532916665876,
      "velocity": 0.6299212598425197,
      "name": "C6"
    },
    {
      "midi": 82,
      "frequency": 932.33,
      "time": 104.48268200000001,
      "duration": 0.5150858291666651,
      "velocity": 0.6299212598425197,
      "name": "A#5"
    },
    {
      "midi": 75,
      "frequency": 622.25,
      "time": 104.48268200000001,
      "duration": 1.0323268291666636,
      "velocity": 0.6299212598425197,
      "name": "D#5"
    },
    {
      "midi": 48,
      "frequency": 130.81,
      "time": 104.48268200000001,
      "duration": 0.5150858291666651,
      "velocity": 0.6299212598425197,
      "name": "C3"
    },
    {
      "midi": 87,
      "frequency": 1244.51,
      "time": 104.99992300000001,
      "duration": 0.5150858291666651,
      "velocity": 0.6299212598425197,
      "name": "D#6"
    },
    {
      "midi": 55,
      "frequency": 196,
      "time": 104.99992300000001,
      "duration": 0.5150858291666651,
      "velocity": 0.6299212598425197,
      "name": "G3"
    },
    {
      "midi": 87,
      "frequency": 1244.51,
      "time": 105.51716400000001,
      "duration": 1.963360629166658,
      "velocity": 0.6299212598425197,
      "name": "D#6"
    },
    {
      "midi": 75,
      "frequency": 622.25,
      "time": 105.51716400000001,
      "duration": 0.9806027291666766,
      "velocity": 0.6299212598425197,
      "name": "D#5"
    },
    {
      "midi": 63,
      "frequency": 311.13,
      "time": 105.51716400000001,
      "duration": 0.5150858291666793,
      "velocity": 0.6299212598425197,
      "name": "D#4"
    },
    {
      "midi": 55,
      "frequency": 196,
      "time": 106.034405,
      "duration": 0.5150858291666793,
      "velocity": 0.6299212598425197,
      "name": "G3"
    },
    {
      "midi": 75,
      "frequency": 622.25,
      "time": 106.55164600000002,
      "duration": 0.9806027291666624,
      "velocity": 0.6299212598425197,
      "name": "D#5"
    },
    {
      "midi": 67,
      "frequency": 392,
      "time": 106.55164600000002,
      "duration": 0.5150858291666651,
      "velocity": 0.6299212598425197,
      "name": "G4"
    },
    {
      "midi": 55,
      "frequency": 196,
      "time": 107.06888700000002,
      "duration": 0.5150858291666651,
      "velocity": 0.6299212598425197,
      "name": "G3"
    },
    {
      "midi": 79,
      "frequency": 783.99,
      "time": 107.58612800000002,
      "duration": 0.9806027291666624,
      "velocity": 0.6299212598425197,
      "name": "G5"
    },
    {
      "midi": 63,
      "frequency": 311.13,
      "time": 107.58612800000002,
      "duration": 0.5150858291666651,
      "velocity": 0.6299212598425197,
      "name": "D#4"
    },
    {
      "midi": 87,
      "frequency": 1244.51,
      "time": 107.84474850000001,
      "duration": 0.256465329166673,
      "velocity": 0.6299212598425197,
      "name": "D#6"
    },
    {
      "midi": 89,
      "frequency": 1396.91,
      "time": 108.10336900000001,
      "duration": 0.256465329166673,
      "velocity": 0.6299212598425197,
      "name": "F6"
    },
    {
      "midi": 48,
      "frequency": 130.81,
      "time": 108.10336900000001,
      "duration": 0.4892237791666645,
      "velocity": 0.6299212598425197,
      "name": "C3"
    },
    {
      "midi": 91,
      "frequency": 1567.98,
      "time": 108.3619895,
      "duration": 0.256465329166673,
      "velocity": 0.6299212598425197,
      "name": "G6"
    },
    {
      "midi": 91,
      "frequency": 1567.98,
      "time": 108.62061000000001,
      "duration": 0.5150858291666651,
      "velocity": 0.6299212598425197,
      "name": "G6"
    },
    {
      "midi": 79,
      "frequency": 783.99,
      "time": 108.62061000000001,
      "duration": 1.0323268291666636,
      "velocity": 0.6299212598425197,
      "name": "G5"
    },
    {
      "midi": 87,
      "frequency": 1244.51,
      "time": 108.62061000000001,
      "duration": 1.0323268291666636,
      "velocity": 0.6299212598425197,
      "name": "D#6"
    },
    {
      "midi": 41,
      "frequency": 87.31,
      "time": 108.62061000000001,
      "duration": 0.5150858291666651,
      "velocity": 0.6299212598425197,
      "name": "F2"
    },
    {
      "midi": 92,
      "frequency": 1661.22,
      "time": 109.13785100000001,
      "duration": 0.5150858291666651,
      "velocity": 0.6299212598425197,
      "name": "G#6"
    },
    {
      "midi": 48,
      "frequency": 130.81,
      "time": 109.13785100000001,
      "duration": 0.5150858291666651,
      "velocity": 0.6299212598425197,
      "name": "C3"
    },
    {
      "midi": 92,
      "frequency": 1661.22,
      "time": 109.65509200000001,
      "duration": 1.4719816791666744,
      "velocity": 0.6299212598425197,
      "name": "G#6"
    },
    {
      "midi": 80,
      "frequency": 830.61,
      "time": 109.65509200000001,
      "duration": 1.4719816791666744,
      "velocity": 0.6299212598425197,
      "name": "G#5"
    },
    {
      "midi": 55,
      "frequency": 196,
      "time": 109.65509200000001,
      "duration": 0.5150858291666651,
      "velocity": 0.6299212598425197,
      "name": "G3"
    },
    {
      "midi": 48,
      "frequency": 130.81,
      "time": 110.17233300000001,
      "duration": 0.5150858291666793,
      "velocity": 0.6299212598425197,
      "name": "C3"
    },
    {
      "midi": 56,
      "frequency": 207.65,
      "time": 110.68957400000001,
      "duration": 0.5150858291666793,
      "velocity": 0.6299212598425197,
      "name": "G#3"
    },
    {
      "midi": 94,
      "frequency": 1864.66,
      "time": 111.20681500000002,
      "duration": 0.5150858291666651,
      "velocity": 0.6299212598425197,
      "name": "A#6"
    },
    {
      "midi": 82,
      "frequency": 932.33,
      "time": 111.20681500000002,
      "duration": 0.5150858291666651,
      "velocity": 0.6299212598425197,
      "name": "A#5"
    },
    {
      "midi": 48,
      "frequency": 130.81,
      "time": 111.20681500000002,
      "duration": 0.5150858291666651,
      "velocity": 0.6299212598425197,
      "name": "C3"
    },
    {
      "midi": 96,
      "frequency": 2093,
      "time": 111.72405600000002,
      "duration": 0.3426721624999942,
      "velocity": 0.6299212598425197,
      "name": "C7"
    },
    {
      "midi": 84,
      "frequency": 1046.5,
      "time": 111.72405600000002,
      "duration": 0.3426721624999942,
      "velocity": 0.6299212598425197,
      "name": "C6"
    },
    {
      "midi": 53,
      "frequency": 174.61,
      "time": 111.72405600000002,
      "duration": 0.5150858291666651,
      "velocity": 0.6299212598425197,
      "name": "F3"
    },
    {
      "midi": 94,
      "frequency": 1864.66,
      "time": 112.06888333333335,
      "duration": 0.3426721625000084,
      "velocity": 0.6299212598425197,
      "name": "A#6"
    },
    {
      "midi": 82,
      "frequency": 932.33,
      "time": 112.06888333333335,
      "duration": 0.3426721625000084,
      "velocity": 0.6299212598425197,
      "name": "A#5"
    },
    {
      "midi": 48,
      "frequency": 130.81,
      "time": 112.24129700000002,
      "duration": 0.4892237791666645,
      "velocity": 0.6299212598425197,
      "name": "C3"
    },
    {
      "midi": 92,
      "frequency": 1661.22,
      "time": 112.41371066666669,
      "duration": 0.3426721624999942,
      "velocity": 0.6299212598425197,
      "name": "G#6"
    },
    {
      "midi": 80,
      "frequency": 830.61,
      "time": 112.41371066666669,
      "duration": 0.3426721624999942,
      "velocity": 0.6299212598425197,
      "name": "G#5"
    },
    {
      "midi": 79,
      "frequency": 783.99,
      "time": 112.75853800000002,
      "duration": 1.963360629166658,
      "velocity": 0.6299212598425197,
      "name": "G5"
    },
    {
      "midi": 91,
      "frequency": 1567.98,
      "time": 112.75853800000002,
      "duration": 1.963360629166658,
      "velocity": 0.6299212598425197,
      "name": "G6"
    },
    {
      "midi": 39,
      "frequency": 77.78,
      "time": 112.75853800000002,
      "duration": 0.5150858291666651,
      "velocity": 0.6299212598425197,
      "name": "D#2"
    },
    {
      "midi": 48,
      "frequency": 130.81,
      "time": 113.27577900000001,
      "duration": 0.5150858291666651,
      "velocity": 0.6299212598425197,
      "name": "C3"
    },
    {
      "midi": 67,
      "frequency": 392,
      "time": 113.79302000000001,
      "duration": 1.0323268291666636,
      "velocity": 0.6299212598425197,
      "name": "G4"
    },
    {
      "midi": 55,
      "frequency": 196,
      "time": 113.79302000000001,
      "duration": 0.5150858291666651,
      "velocity": 0.6299212598425197,
      "name": "G3"
    },
    {
      "midi": 60,
      "frequency": 261.63,
      "time": 114.31026100000001,
      "duration": 0.5150858291666651,
      "velocity": 0.6299212598425197,
      "name": "C4"
    },
    {
      "midi": 72,
      "frequency": 523.25,
      "time": 114.82750200000001,
      "duration": 1.963360629166658,
      "velocity": 0.6299212598425197,
      "name": "C5"
    },
    {
      "midi": 63,
      "frequency": 311.13,
      "time": 114.82750200000001,
      "duration": 0.5150858291666793,
      "velocity": 0.6299212598425197,
      "name": "D#4"
    },
    {
      "midi": 80,
      "frequency": 830.61,
      "time": 115.34474300000001,
      "duration": 0.5150858291666793,
      "velocity": 0.6299212598425197,
      "name": "G#5"
    },
    {
      "midi": 92,
      "frequency": 1661.22,
      "time": 115.34474300000001,
      "duration": 0.5150858291666793,
      "velocity": 0.6299212598425197,
      "name": "G#6"
    },
    {
      "midi": 60,
      "frequency": 261.63,
      "time": 115.34474300000001,
      "duration": 0.5150858291666793,
      "velocity": 0.6299212598425197,
      "name": "C4"
    },
    {
      "midi": 79,
      "frequency": 783.99,
      "time": 115.861984,
      "duration": 0.5150858291666793,
      "velocity": 0.6299212598425197,
      "name": "G5"
    },
    {
      "midi": 91,
      "frequency": 1567.98,
      "time": 115.861984,
      "duration": 0.5150858291666793,
      "velocity": 0.6299212598425197,
      "name": "G6"
    },
    {
      "midi": 63,
      "frequency": 311.13,
      "time": 115.861984,
      "duration": 0.5150858291666793,
      "velocity": 0.6299212598425197,
      "name": "D#4"
    },
    {
      "midi": 75,
      "frequency": 622.25,
      "time": 116.37922500000002,
      "duration": 0.5150858291666651,
      "velocity": 0.6299212598425197,
      "name": "D#5"
    },
    {
      "midi": 87,
      "frequency": 1244.51,
      "time": 116.37922500000002,
      "duration": 0.5150858291666651,
      "velocity": 0.6299212598425197,
      "name": "D#6"
    },
    {
      "midi": 51,
      "frequency": 155.56,
      "time": 116.37922500000002,
      "duration": 0.4892237791666503,
      "velocity": 0.6299212598425197,
      "name": "D#3"
    },
    {
      "midi": 75,
      "frequency": 622.25,
      "time": 116.89646600000002,
      "duration": 0.5150858291666651,
      "velocity": 0.6299212598425197,
      "name": "D#5"
    },
    {
      "midi": 87,
      "frequency": 1244.51,
      "time": 116.89646600000002,
      "duration": 0.5150858291666651,
      "velocity": 0.6299212598425197,
      "name": "D#6"
    },
    {
      "midi": 49,
      "frequency": 138.59,
      "time": 116.89646600000002,
      "duration": 0.5150858291666651,
      "velocity": 0.6299212598425197,
      "name": "C#3"
    },
    {
      "midi": 77,
      "frequency": 698.46,
      "time": 117.41370700000002,
      "duration": 0.5150858291666651,
      "velocity": 0.6299212598425197,
      "name": "F5"
    },
    {
      "midi": 89,
      "frequency": 1396.91,
      "time": 117.41370700000002,
      "duration": 0.5150858291666651,
      "velocity": 0.6299212598425197,
      "name": "F6"
    },
    {
      "midi": 56,
      "frequency": 207.65,
      "time": 117.41370700000002,
      "duration": 0.5150858291666651,
      "velocity": 0.6299212598425197,
      "name": "G#3"
    },
    {
      "midi": 77,
      "frequency": 698.46,
      "time": 117.93094800000001,
      "duration": 1.963360629166658,
      "velocity": 0.6299212598425197,
      "name": "F5"
    },
    {
      "midi": 89,
      "frequency": 1396.91,
      "time": 117.93094800000001,
      "duration": 1.963360629166658,
      "velocity": 0.6299212598425197,
      "name": "F6"
    },
    {
      "midi": 63,
      "frequency": 311.13,
      "time": 117.93094800000001,
      "duration": 0.5150858291666651,
      "velocity": 0.6299212598425197,
      "name": "D#4"
    },
    {
      "midi": 56,
      "frequency": 207.65,
      "time": 118.44818900000001,
      "duration": 0.5150858291666651,
      "velocity": 0.6299212598425197,
      "name": "G#3"
    },
    {
      "midi": 65,
      "frequency": 349.23,
      "time": 118.96543000000001,
      "duration": 1.0323268291666778,
      "velocity": 0.6299212598425197,
      "name": "F4"
    },
    {
      "midi": 61,
      "frequency": 277.18,
      "time": 118.96543000000001,
      "duration": 0.5150858291666651,
      "velocity": 0.6299212598425197,
      "name": "C#4"
    },
    {
      "midi": 56,
      "frequency": 207.65,
      "time": 119.48267100000001,
      "duration": 0.5150858291666793,
      "velocity": 0.6299212598425197,
      "name": "G#3"
    },
    {
      "midi": 68,
      "frequency": 415.3,
      "time": 119.99991200000001,
      "duration": 1.0323268291666778,
      "velocity": 0.6299212598425197,
      "name": "G#4"
    },
    {
      "midi": 63,
      "frequency": 311.13,
      "time": 119.99991200000001,
      "duration": 0.5150858291666793,
      "velocity": 0.6299212598425197,
      "name": "D#4"
    },
    {
      "midi": 87,
      "frequency": 1244.51,
      "time": 120.51715300000001,
      "duration": 0.256465329166673,
      "velocity": 0.6299212598425197,
      "name": "D#6"
    },
    {
      "midi": 49,
      "frequency": 138.59,
      "time": 120.51715300000001,
      "duration": 0.4892237791666645,
      "velocity": 0.6299212598425197,
      "name": "C#3"
    },
    {
      "midi": 85,
      "frequency": 1108.73,
      "time": 120.77577350000001,
      "duration": 0.256465329166673,
      "velocity": 0.6299212598425197,
      "name": "C#6"
    },
    {
      "midi": 85,
      "frequency": 1108.73,
      "time": 121.03439400000002,
      "duration": 0.5150858291666651,
      "velocity": 0.6299212598425197,
      "name": "C#6"
    },
    {
      "midi": 75,
      "frequency": 622.25,
      "time": 121.03439400000002,
      "duration": 1.0323268291666636,
      "velocity": 0.6299212598425197,
      "name": "D#5"
    },
    {
      "midi": 82,
      "frequency": 932.33,
      "time": 121.03439400000002,
      "duration": 1.0323268291666636,
      "velocity": 0.6299212598425197,
      "name": "A#5"
    },
    {
      "midi": 48,
      "frequency": 130.81,
      "time": 121.03439400000002,
      "duration": 0.5150858291666651,
      "velocity": 0.6299212598425197,
      "name": "C3"
    },
    {
      "midi": 87,
      "frequency": 1244.51,
      "time": 121.55163500000002,
      "duration": 0.5150858291666651,
      "velocity": 0.6299212598425197,
      "name": "D#6"
    },
    {
      "midi": 56,
      "frequency": 207.65,
      "time": 121.55163500000002,
      "duration": 0.5150858291666651,
      "velocity": 0.6299212598425197,
      "name": "G#3"
    },
    {
      "midi": 87,
      "frequency": 1244.51,
      "time": 122.06887600000002,
      "duration": 1.963360629166658,
      "velocity": 0.6299212598425197,
      "name": "D#6"
    },
    {
      "midi": 75,
      "frequency": 622.25,
      "time": 122.06887600000002,
      "duration": 1.963360629166658,
      "velocity": 0.6299212598425197,
      "name": "D#5"
    },
    {
      "midi": 60,
      "frequency": 261.63,
      "time": 122.06887600000002,
      "duration": 0.5150858291666651,
      "velocity": 0.6299212598425197,
      "name": "C4"
    },
    {
      "midi": 56,
      "frequency": 207.65,
      "time": 122.58611700000002,
      "duration": 0.5150858291666651,
      "velocity": 0.6299212598425197,
      "name": "G#3"
    },
    {
      "midi": 63,
      "frequency": 311.13,
      "time": 123.10335800000001,
      "duration": 0.5150858291666651,
      "velocity": 0.6299212598425197,
      "name": "D#4"
    },
    {
      "midi": 56,
      "frequency": 207.65,
      "time": 123.62059900000001,
      "duration": 0.5150858291666651,
      "velocity": 0.6299212598425197,
      "name": "G#3"
    },
    {
      "midi": 75,
      "frequency": 622.25,
      "time": 124.13784000000001,
      "duration": 0.9806027291666766,
      "velocity": 0.6299212598425197,
      "name": "D#5"
    },
    {
      "midi": 60,
      "frequency": 261.63,
      "time": 124.13784000000001,
      "duration": 0.5150858291666793,
      "velocity": 0.6299212598425197,
      "name": "C4"
    },
    {
      "midi": 80,
      "frequency": 830.61,
      "time": 124.65508100000001,
      "duration": 0.256465329166673,
      "velocity": 0.6299212598425197,
      "name": "G#5"
    },
    {
      "midi": 48,
      "frequency": 130.81,
      "time": 124.65508100000001,
      "duration": 0.4892237791666645,
      "velocity": 0.6299212598425197,
      "name": "C3"
    },
    {
      "midi": 82,
      "frequency": 932.33,
      "time": 124.91370150000002,
      "duration": 0.256465329166673,
      "velocity": 0.6299212598425197,
      "name": "A#5"
    },
    {
      "midi": 84,
      "frequency": 1046.5,
      "time": 125.17232200000001,
      "duration": 0.5150858291666793,
      "velocity": 0.6299212598425197,
      "name": "C6"
    },
    {
      "midi": 73,
      "frequency": 554.37,
      "time": 125.17232200000001,
      "duration": 2.066808829166675,
      "velocity": 0.6299212598425197,
      "name": "C#5"
    },
    {
      "midi": 46,
      "frequency": 116.54,
      "time": 125.17232200000001,
      "duration": 0.5150858291666793,
      "velocity": 0.6299212598425197,
      "name": "A#2"
    },
    {
      "midi": 56,
      "frequency": 207.65,
      "time": 125.17232200000001,
      "duration": 0.5150858291666793,
      "velocity": 0.6299212598425197,
      "name": "G#3"
    },
    {
      "midi": 85,
      "frequency": 1108.73,
      "time": 125.68956300000002,
      "duration": 0.5150858291666651,
      "velocity": 0.6299212598425197,
      "name": "C#6"
    },
    {
      "midi": 53,
      "frequency": 174.61,
      "time": 125.68956300000002,
      "duration": 0.5150858291666651,
      "velocity": 0.6299212598425197,
      "name": "F3"
    },
    {
      "midi": 85,
      "frequency": 1108.73,
      "time": 126.20680400000002,
      "duration": 1.963360629166644,
      "velocity": 0.6299212598425197,
      "name": "C#6"
    },
    {
      "midi": 56,
      "frequency": 207.65,
      "time": 126.20680400000002,
      "duration": 0.5150858291666651,
      "velocity": 0.6299212598425197,
      "name": "G#3"
    },
    {
      "midi": 53,
      "frequency": 174.61,
      "time": 126.72404500000002,
      "duration": 0.5150858291666651,
      "velocity": 0.6299212598425197,
      "name": "F3"
    },
    {
      "midi": 61,
      "frequency": 277.18,
      "time": 127.24128600000002,
      "duration": 0.4892237791666645,
      "velocity": 0.6299212598425197,
      "name": "C#4"
    },
    {
      "midi": 56,
      "frequency": 207.65,
      "time": 127.24128600000002,
      "duration": 0.5150858291666651,
      "velocity": 0.6299212598425197,
      "name": "G#3"
    },
    {
      "midi": 65,
      "frequency": 349.23,
      "time": 127.75852700000002,
      "duration": 1.4719816791666744,
      "velocity": 0.6299212598425197,
      "name": "F4"
    },
    {
      "midi": 53,
      "frequency": 174.61,
      "time": 127.75852700000002,
      "duration": 0.5150858291666793,
      "velocity": 0.6299212598425197,
      "name": "F3"
    },
    {
      "midi": 87,
      "frequency": 1244.51,
      "time": 128.27576800000003,
      "duration": 0.5150858291666509,
      "velocity": 0.6299212598425197,
      "name": "D#6"
    },
    {
      "midi": 56,
      "frequency": 207.65,
      "time": 128.27576800000003,
      "duration": 0.5150858291666509,
      "velocity": 0.6299212598425197,
      "name": "G#3"
    },
    {
      "midi": 85,
      "frequency": 1108.73,
      "time": 128.793009,
      "duration": 0.5150858291666793,
      "velocity": 0.6299212598425197,
      "name": "C#6"
    },
    {
      "midi": 46,
      "frequency": 116.54,
      "time": 128.793009,
      "duration": 0.4892237791666787,
      "velocity": 0.6299212598425197,
      "name": "A#2"
    },
    {
      "midi": 84,
      "frequency": 1046.5,
      "time": 129.31025000000002,
      "duration": 2.0668088291666606,
      "velocity": 0.6299212598425197,
      "name": "C6"
    },
    {
      "midi": 73,
      "frequency": 554.37,
      "time": 129.31025000000002,
      "duration": 2.0668088291666606,
      "velocity": 0.6299212598425197,
      "name": "C#5"
    },
    {
      "midi": 77,
      "frequency": 698.46,
      "time": 129.31025000000002,
      "duration": 2.0668088291666606,
      "velocity": 0.6299212598425197,
      "name": "F5"
    },
    {
      "midi": 39,
      "frequency": 77.78,
      "time": 129.31025000000002,
      "duration": 0.5150858291666509,
      "velocity": 0.6299212598425197,
      "name": "D#2"
    },
    {
      "midi": 46,
      "frequency": 116.54,
      "time": 129.827491,
      "duration": 0.5150858291666793,
      "velocity": 0.6299212598425197,
      "name": "A#2"
    },
    {
      "midi": 56,
      "frequency": 207.65,
      "time": 130.34473200000002,
      "duration": 0.5150858291666509,
      "velocity": 0.6299212598425197,
      "name": "G#3"
    },
    {
      "midi": 46,
      "frequency": 116.54,
      "time": 130.861973,
      "duration": 0.5150858291666793,
      "velocity": 0.6299212598425197,
      "name": "A#2"
    },
    {
      "midi": 82,
      "frequency": 932.33,
      "time": 131.37921400000002,
      "duration": 0.4892237791666503,
      "velocity": 0.6299212598425197,
      "name": "A#5"
    },
    {
      "midi": 55,
      "frequency": 196,
      "time": 131.37921400000002,
      "duration": 0.5150858291666793,
      "velocity": 0.6299212598425197,
      "name": "G3"
    },
    {
      "midi": 75,
      "frequency": 622.25,
      "time": 131.896455,
      "duration": 0.5150858291666793,
      "velocity": 0.6299212598425197,
      "name": "D#5"
    },
    {
      "midi": 51,
      "frequency": 155.56,
      "time": 131.896455,
      "duration": 0.5150858291666793,
      "velocity": 0.6299212598425197,
      "name": "D#3"
    },
    {
      "midi": 80,
      "frequency": 830.61,
      "time": 132.41369600000002,
      "duration": 0.5150858291666793,
      "velocity": 0.6299212598425197,
      "name": "G#5"
    },
    {
      "midi": 55,
      "frequency": 196,
      "time": 132.41369600000002,
      "duration": 0.5150858291666793,
      "velocity": 0.6299212598425197,
      "name": "G3"
    },
    {
      "midi": 82,
      "frequency": 932.33,
      "time": 132.93093700000003,
      "duration": 0.5150858291666509,
      "velocity": 0.6299212598425197,
      "name": "A#5"
    },
    {
      "midi": 51,
      "frequency": 155.56,
      "time": 132.93093700000003,
      "duration": 0.4892237791666503,
      "velocity": 0.6299212598425197,
      "name": "D#3"
    },
    {
      "midi": 82,
      "frequency": 932.33,
      "time": 133.448178,
      "duration": 0.5150858291666793,
      "velocity": 0.6299212598425197,
      "name": "A#5"
    },
    {
      "midi": 75,
      "frequency": 622.25,
      "time": 133.448178,
      "duration": 1.0323268291666636,
      "velocity": 0.6299212598425197,
      "name": "D#5"
    },
    {
      "midi": 44,
      "frequency": 103.83,
      "time": 133.448178,
      "duration": 0.5150858291666793,
      "velocity": 0.6299212598425197,
      "name": "G#2"
    },
    {
      "midi": 84,
      "frequency": 1046.5,
      "time": 133.96541900000003,
      "duration": 0.5150858291666509,
      "velocity": 0.6299212598425197,
      "name": "C6"
    },
    {
      "midi": 51,
      "frequency": 155.56,
      "time": 133.96541900000003,
      "duration": 0.5150858291666509,
      "velocity": 0.6299212598425197,
      "name": "D#3"
    },
    {
      "midi": 84,
      "frequency": 1046.5,
      "time": 134.48266,
      "duration": 1.9633606291666865,
      "velocity": 0.6299212598425197,
      "name": "C6"
    },
    {
      "midi": 75,
      "frequency": 622.25,
      "time": 134.48266,
      "duration": 1.9633606291666865,
      "velocity": 0.6299212598425197,
      "name": "D#5"
    },
    {
      "midi": 60,
      "frequency": 261.63,
      "time": 134.48266,
      "duration": 0.5150858291666793,
      "velocity": 0.6299212598425197,
      "name": "C4"
    },
    {
      "midi": 51,
      "frequency": 155.56,
      "time": 134.99990100000002,
      "duration": 0.5150858291666509,
      "velocity": 0.6299212598425197,
      "name": "D#3"
    },
    {
      "midi": 58,
      "frequency": 233.08,
      "time": 135.517142,
      "duration": 0.5150858291666793,
      "velocity": 0.6299212598425197,
      "name": "A#3"
    },
    {
      "midi": 51,
      "frequency": 155.56,
      "time": 136.03438300000002,
      "duration": 0.5150858291666793,
      "velocity": 0.6299212598425197,
      "name": "D#3"
    },
    {
      "midi": 75,
      "frequency": 622.25,
      "time": 136.551624,
      "duration": 0.9806027291666624,
      "velocity": 0.6299212598425197,
      "name": "D#5"
    },
    {
      "midi": 56,
      "frequency": 207.65,
      "time": 136.551624,
      "duration": 0.5150858291666793,
      "velocity": 0.6299212598425197,
      "name": "G#3"
    },
    {
      "midi": 80,
      "frequency": 830.61,
      "time": 136.8102445,
      "duration": 0.256465329166673,
      "velocity": 0.6299212598425197,
      "name": "G#5"
    },
    {
      "midi": 82,
      "frequency": 932.33,
      "time": 137.06886500000002,
      "duration": 0.256465329166673,
      "velocity": 0.6299212598425197,
      "name": "A#5"
    },
    {
      "midi": 44,
      "frequency": 103.83,
      "time": 137.06886500000002,
      "duration": 0.4892237791666503,
      "velocity": 0.6299212598425197,
      "name": "G#2"
    },
    {
      "midi": 84,
      "frequency": 1046.5,
      "time": 137.32748550000002,
      "duration": 0.256465329166673,
      "velocity": 0.6299212598425197,
      "name": "C6"
    },
    {
      "midi": 82,
      "frequency": 932.33,
      "time": 137.58610600000003,
      "duration": 0.5150858291666509,
      "velocity": 0.6299212598425197,
      "name": "A#5"
    },
    {
      "midi": 75,
      "frequency": 622.25,
      "time": 137.58610600000003,
      "duration": 1.0323268291666636,
      "velocity": 0.6299212598425197,
      "name": "D#5"
    },
    {
      "midi": 48,
      "frequency": 130.81,
      "time": 137.58610600000003,
      "duration": 0.5150858291666509,
      "velocity": 0.6299212598425197,
      "name": "C3"
    },
    {
      "midi": 87,
      "frequency": 1244.51,
      "time": 138.103347,
      "duration": 0.5150858291666793,
      "velocity": 0.6299212598425197,
      "name": "D#6"
    },
    {
      "midi": 55,
      "frequency": 196,
      "time": 138.103347,
      "duration": 0.5150858291666793,
      "velocity": 0.6299212598425197,
      "name": "G3"
    },
    {
      "midi": 87,
      "frequency": 1244.51,
      "time": 138.62058800000003,
      "duration": 1.963360629166658,
      "velocity": 0.6299212598425197,
      "name": "D#6"
    },
    {
      "midi": 75,
      "frequency": 622.25,
      "time": 138.62058800000003,
      "duration": 0.9806027291666339,
      "velocity": 0.6299212598425197,
      "name": "D#5"
    },
    {
      "midi": 63,
      "frequency": 311.13,
      "time": 138.62058800000003,
      "duration": 0.5150858291666509,
      "velocity": 0.6299212598425197,
      "name": "D#4"
    },
    {
      "midi": 55,
      "frequency": 196,
      "time": 139.137829,
      "duration": 0.5150858291666793,
      "velocity": 0.6299212598425197,
      "name": "G3"
    },
    {
      "midi": 75,
      "frequency": 622.25,
      "time": 139.65507000000002,
      "duration": 0.9806027291666624,
      "velocity": 0.6299212598425197,
      "name": "D#5"
    },
    {
      "midi": 67,
      "frequency": 392,
      "time": 139.65507000000002,
      "duration": 0.5150858291666509,
      "velocity": 0.6299212598425197,
      "name": "G4"
    },
    {
      "midi": 55,
      "frequency": 196,
      "time": 140.172311,
      "duration": 0.5150858291666793,
      "velocity": 0.6299212598425197,
      "name": "G3"
    },
    {
      "midi": 79,
      "frequency": 783.99,
      "time": 140.68955200000002,
      "duration": 0.9806027291666624,
      "velocity": 0.6299212598425197,
      "name": "G5"
    },
    {
      "midi": 63,
      "frequency": 311.13,
      "time": 140.68955200000002,
      "duration": 0.5150858291666793,
      "velocity": 0.6299212598425197,
      "name": "D#4"
    },
    {
      "midi": 87,
      "frequency": 1244.51,
      "time": 140.94817250000003,
      "duration": 0.256465329166673,
      "velocity": 0.6299212598425197,
      "name": "D#6"
    },
    {
      "midi": 89,
      "frequency": 1396.91,
      "time": 141.206793,
      "duration": 0.256465329166673,
      "velocity": 0.6299212598425197,
      "name": "F6"
    },
    {
      "midi": 48,
      "frequency": 130.81,
      "time": 141.206793,
      "duration": 0.4892237791666787,
      "velocity": 0.6299212598425197,
      "name": "C3"
    },
    {
      "midi": 91,
      "frequency": 1567.98,
      "time": 141.4654135,
      "duration": 0.256465329166673,
      "velocity": 0.6299212598425197,
      "name": "G6"
    },
    {
      "midi": 91,
      "frequency": 1567.98,
      "time": 141.72403400000002,
      "duration": 0.5150858291666793,
      "velocity": 0.6299212598425197,
      "name": "G6"
    },
    {
      "midi": 79,
      "frequency": 783.99,
      "time": 141.72403400000002,
      "duration": 1.0323268291666636,
      "velocity": 0.6299212598425197,
      "name": "G5"
    },
    {
      "midi": 87,
      "frequency": 1244.51,
      "time": 141.72403400000002,
      "duration": 1.0323268291666636,
      "velocity": 0.6299212598425197,
      "name": "D#6"
    },
    {
      "midi": 41,
      "frequency": 87.31,
      "time": 141.72403400000002,
      "duration": 0.5150858291666793,
      "velocity": 0.6299212598425197,
      "name": "F2"
    },
    {
      "midi": 92,
      "frequency": 1661.22,
      "time": 142.24127500000003,
      "duration": 0.5150858291666509,
      "velocity": 0.6299212598425197,
      "name": "G#6"
    },
    {
      "midi": 48,
      "frequency": 130.81,
      "time": 142.24127500000003,
      "duration": 0.5150858291666509,
      "velocity": 0.6299212598425197,
      "name": "C3"
    },
    {
      "midi": 92,
      "frequency": 1661.22,
      "time": 142.75851600000001,
      "duration": 1.4719816791666744,
      "velocity": 0.6299212598425197,
      "name": "G#6"
    },
    {
      "midi": 80,
      "frequency": 830.61,
      "time": 142.75851600000001,
      "duration": 1.4719816791666744,
      "velocity": 0.6299212598425197,
      "name": "G#5"
    },
    {
      "midi": 55,
      "frequency": 196,
      "time": 142.75851600000001,
      "duration": 0.5150858291666793,
      "velocity": 0.6299212598425197,
      "name": "G3"
    },
    {
      "midi": 48,
      "frequency": 130.81,
      "time": 143.27575700000003,
      "duration": 0.5150858291666509,
      "velocity": 0.6299212598425197,
      "name": "C3"
    },
    {
      "midi": 56,
      "frequency": 207.65,
      "time": 143.792998,
      "duration": 0.5150858291666793,
      "velocity": 0.6299212598425197,
      "name": "G#3"
    },
    {
      "midi": 94,
      "frequency": 1864.66,
      "time": 144.31023900000002,
      "duration": 0.5150858291666509,
      "velocity": 0.6299212598425197,
      "name": "A#6"
    },
    {
      "midi": 82,
      "frequency": 932.33,
      "time": 144.31023900000002,
      "duration": 0.5150858291666509,
      "velocity": 0.6299212598425197,
      "name": "A#5"
    },
    {
      "midi": 48,
      "frequency": 130.81,
      "time": 144.31023900000002,
      "duration": 0.5150858291666509,
      "velocity": 0.6299212598425197,
      "name": "C3"
    },
    {
      "midi": 96,
      "frequency": 2093,
      "time": 144.82748,
      "duration": 0.3426721625000084,
      "velocity": 0.6299212598425197,
      "name": "C7"
    },
    {
      "midi": 84,
      "frequency": 1046.5,
      "time": 144.82748,
      "duration": 0.3426721625000084,
      "velocity": 0.6299212598425197,
      "name": "C6"
    },
    {
      "midi": 53,
      "frequency": 174.61,
      "time": 144.82748,
      "duration": 0.5150858291666793,
      "velocity": 0.6299212598425197,
      "name": "F3"
    },
    {
      "midi": 94,
      "frequency": 1864.66,
      "time": 145.17230733333335,
      "duration": 0.34267216249998,
      "velocity": 0.6299212598425197,
      "name": "A#6"
    },
    {
      "midi": 82,
      "frequency": 932.33,
      "time": 145.17230733333335,
      "duration": 0.34267216249998,
      "velocity": 0.6299212598425197,
      "name": "A#5"
    },
    {
      "midi": 48,
      "frequency": 130.81,
      "time": 145.34472100000002,
      "duration": 0.4892237791666503,
      "velocity": 0.6299212598425197,
      "name": "C3"
    },
    {
      "midi": 92,
      "frequency": 1661.22,
      "time": 145.51713466666666,
      "duration": 0.3426721625000084,
      "velocity": 0.6299212598425197,
      "name": "G#6"
    },
    {
      "midi": 80,
      "frequency": 830.61,
      "time": 145.51713466666666,
      "duration": 0.3426721625000084,
      "velocity": 0.6299212598425197,
      "name": "G#5"
    },
    {
      "midi": 79,
      "frequency": 783.99,
      "time": 145.861962,
      "duration": 1.9633606291666865,
      "velocity": 0.6299212598425197,
      "name": "G5"
    },
    {
      "midi": 91,
      "frequency": 1567.98,
      "time": 145.861962,
      "duration": 1.9633606291666865,
      "velocity": 0.6299212598425197,
      "name": "G6"
    },
    {
      "midi": 39,
      "frequency": 77.78,
      "time": 145.861962,
      "duration": 0.5150858291666793,
      "velocity": 0.6299212598425197,
      "name": "D#2"
    },
    {
      "midi": 48,
      "frequency": 130.81,
      "time": 146.37920300000002,
      "duration": 0.5150858291666793,
      "velocity": 0.6299212598425197,
      "name": "C3"
    },
    {
      "midi": 67,
      "frequency": 392,
      "time": 146.89644400000003,
      "duration": 1.0323268291666636,
      "velocity": 0.6299212598425197,
      "name": "G4"
    },
    {
      "midi": 55,
      "frequency": 196,
      "time": 146.89644400000003,
      "duration": 0.5150858291666509,
      "velocity": 0.6299212598425197,
      "name": "G3"
    },
    {
      "midi": 60,
      "frequency": 261.63,
      "time": 147.41368500000002,
      "duration": 0.5150858291666793,
      "velocity": 0.6299212598425197,
      "name": "C4"
    },
    {
      "midi": 72,
      "frequency": 523.25,
      "time": 147.93092600000003,
      "duration": 1.963360629166658,
      "velocity": 0.6299212598425197,
      "name": "C5"
    },
    {
      "midi": 63,
      "frequency": 311.13,
      "time": 147.93092600000003,
      "duration": 0.5150858291666509,
      "velocity": 0.6299212598425197,
      "name": "D#4"
    },
    {
      "midi": 80,
      "frequency": 830.61,
      "time": 148.448167,
      "duration": 0.5150858291666793,
      "velocity": 0.6299212598425197,
      "name": "G#5"
    },
    {
      "midi": 92,
      "frequency": 1661.22,
      "time": 148.448167,
      "duration": 0.5150858291666793,
      "velocity": 0.6299212598425197,
      "name": "G#6"
    },
    {
      "midi": 60,
      "frequency": 261.63,
      "time": 148.448167,
      "duration": 0.5150858291666793,
      "velocity": 0.6299212598425197,
      "name": "C4"
    },
    {
      "midi": 79,
      "frequency": 783.99,
      "time": 148.96540800000002,
      "duration": 0.5150858291666509,
      "velocity": 0.6299212598425197,
      "name": "G5"
    },
    {
      "midi": 91,
      "frequency": 1567.98,
      "time": 148.96540800000002,
      "duration": 0.5150858291666509,
      "velocity": 0.6299212598425197,
      "name": "G6"
    },
    {
      "midi": 63,
      "frequency": 311.13,
      "time": 148.96540800000002,
      "duration": 0.5150858291666509,
      "velocity": 0.6299212598425197,
      "name": "D#4"
    },
    {
      "midi": 75,
      "frequency": 622.25,
      "time": 149.482649,
      "duration": 0.5150858291666793,
      "velocity": 0.6299212598425197,
      "name": "D#5"
    },
    {
      "midi": 87,
      "frequency": 1244.51,
      "time": 149.482649,
      "duration": 0.5150858291666793,
      "velocity": 0.6299212598425197,
      "name": "D#6"
    },
    {
      "midi": 51,
      "frequency": 155.56,
      "time": 149.482649,
      "duration": 0.4892237791666787,
      "velocity": 0.6299212598425197,
      "name": "D#3"
    },
    {
      "midi": 75,
      "frequency": 622.25,
      "time": 149.99989000000002,
      "duration": 0.5150858291666509,
      "velocity": 0.6299212598425197,
      "name": "D#5"
    },
    {
      "midi": 87,
      "frequency": 1244.51,
      "time": 149.99989000000002,
      "duration": 0.5150858291666509,
      "velocity": 0.6299212598425197,
      "name": "D#6"
    },
    {
      "midi": 49,
      "frequency": 138.59,
      "time": 149.99989000000002,
      "duration": 0.5150858291666509,
      "velocity": 0.6299212598425197,
      "name": "C#3"
    },
    {
      "midi": 77,
      "frequency": 698.46,
      "time": 150.517131,
      "duration": 0.5150858291666793,
      "velocity": 0.6299212598425197,
      "name": "F5"
    },
    {
      "midi": 89,
      "frequency": 1396.91,
      "time": 150.517131,
      "duration": 0.5150858291666793,
      "velocity": 0.6299212598425197,
      "name": "F6"
    },
    {
      "midi": 56,
      "frequency": 207.65,
      "time": 150.517131,
      "duration": 0.5150858291666793,
      "velocity": 0.6299212598425197,
      "name": "G#3"
    },
    {
      "midi": 77,
      "frequency": 698.46,
      "time": 151.03437200000002,
      "duration": 1.9633606291666865,
      "velocity": 0.6299212598425197,
      "name": "F5"
    },
    {
      "midi": 89,
      "frequency": 1396.91,
      "time": 151.03437200000002,
      "duration": 1.9633606291666865,
      "velocity": 0.6299212598425197,
      "name": "F6"
    },
    {
      "midi": 63,
      "frequency": 311.13,
      "time": 151.03437200000002,
      "duration": 0.5150858291666793,
      "velocity": 0.6299212598425197,
      "name": "D#4"
    },
    {
      "midi": 56,
      "frequency": 207.65,
      "time": 151.55161300000003,
      "duration": 0.5150858291666509,
      "velocity": 0.6299212598425197,
      "name": "G#3"
    },
    {
      "midi": 65,
      "frequency": 349.23,
      "time": 152.06885400000002,
      "duration": 1.0323268291666636,
      "velocity": 0.6299212598425197,
      "name": "F4"
    },
    {
      "midi": 61,
      "frequency": 277.18,
      "time": 152.06885400000002,
      "duration": 0.5150858291666793,
      "velocity": 0.6299212598425197,
      "name": "C#4"
    },
    {
      "midi": 56,
      "frequency": 207.65,
      "time": 152.58609500000003,
      "duration": 0.5150858291666509,
      "velocity": 0.6299212598425197,
      "name": "G#3"
    },
    {
      "midi": 68,
      "frequency": 415.3,
      "time": 153.103336,
      "duration": 1.0323268291666636,
      "velocity": 0.6299212598425197,
      "name": "G#4"
    },
    {
      "midi": 63,
      "frequency": 311.13,
      "time": 153.103336,
      "duration": 0.5150858291666793,
      "velocity": 0.6299212598425197,
      "name": "D#4"
    },
    {
      "midi": 87,
      "frequency": 1244.51,
      "time": 153.62057700000003,
      "duration": 0.256465329166673,
      "velocity": 0.6299212598425197,
      "name": "D#6"
    },
    {
      "midi": 49,
      "frequency": 138.59,
      "time": 153.62057700000003,
      "duration": 0.4892237791666503,
      "velocity": 0.6299212598425197,
      "name": "C#3"
    },
    {
      "midi": 85,
      "frequency": 1108.73,
      "time": 153.87919750000003,
      "duration": 0.25646532916664455,
      "velocity": 0.6299212598425197,
      "name": "C#6"
    },
    {
      "midi": 85,
      "frequency": 1108.73,
      "time": 154.137818,
      "duration": 0.5150858291666793,
      "velocity": 0.6299212598425197,
      "name": "C#6"
    },
    {
      "midi": 75,
      "frequency": 622.25,
      "time": 154.137818,
      "duration": 1.0323268291666636,
      "velocity": 0.6299212598425197,
      "name": "D#5"
    },
    {
      "midi": 82,
      "frequency": 932.33,
      "time": 154.137818,
      "duration": 1.0323268291666636,
      "velocity": 0.6299212598425197,
      "name": "A#5"
    },
    {
      "midi": 48,
      "frequency": 130.81,
      "time": 154.137818,
      "duration": 0.5150858291666793,
      "velocity": 0.6299212598425197,
      "name": "C3"
    },
    {
      "midi": 87,
      "frequency": 1244.51,
      "time": 154.65505900000002,
      "duration": 0.5150858291666509,
      "velocity": 0.6299212598425197,
      "name": "D#6"
    },
    {
      "midi": 56,
      "frequency": 207.65,
      "time": 154.65505900000002,
      "duration": 0.5150858291666509,
      "velocity": 0.6299212598425197,
      "name": "G#3"
    },
    {
      "midi": 87,
      "frequency": 1244.51,
      "time": 155.1723,
      "duration": 1.9633606291666865,
      "velocity": 0.6299212598425197,
      "name": "D#6"
    },
    {
      "midi": 75,
      "frequency": 622.25,
      "time": 155.1723,
      "duration": 1.9633606291666865,
      "velocity": 0.6299212598425197,
      "name": "D#5"
    },
    {
      "midi": 60,
      "frequency": 261.63,
      "time": 155.1723,
      "duration": 0.5150858291666793,
      "velocity": 0.6299212598425197,
      "name": "C4"
    },
    {
      "midi": 56,
      "frequency": 207.65,
      "time": 155.68954100000002,
      "duration": 0.5150858291666793,
      "velocity": 0.6299212598425197,
      "name": "G#3"
    },
    {
      "midi": 63,
      "frequency": 311.13,
      "time": 156.20678200000003,
      "duration": 0.5150858291666509,
      "velocity": 0.6299212598425197,
      "name": "D#4"
    },
    {
      "midi": 56,
      "frequency": 207.65,
      "time": 156.72402300000002,
      "duration": 0.5150858291666793,
      "velocity": 0.6299212598425197,
      "name": "G#3"
    },
    {
      "midi": 75,
      "frequency": 622.25,
      "time": 157.24126400000003,
      "duration": 0.9806027291666339,
      "velocity": 0.6299212598425197,
      "name": "D#5"
    },
    {
      "midi": 60,
      "frequency": 261.63,
      "time": 157.24126400000003,
      "duration": 0.5150858291666509,
      "velocity": 0.6299212598425197,
      "name": "C4"
    },
    {
      "midi": 80,
      "frequency": 830.61,
      "time": 157.758505,
      "duration": 0.256465329166673,
      "velocity": 0.6299212598425197,
      "name": "G#5"
    },
    {
      "midi": 48,
      "frequency": 130.81,
      "time": 157.758505,
      "duration": 0.4892237791666787,
      "velocity": 0.6299212598425197,
      "name": "C3"
    },
    {
      "midi": 82,
      "frequency": 932.33,
      "time": 158.01712550000002,
      "duration": 0.256465329166673,
      "velocity": 0.6299212598425197,
      "name": "A#5"
    },
    {
      "midi": 84,
      "frequency": 1046.5,
      "time": 158.27574600000003,
      "duration": 0.5150858291666509,
      "velocity": 0.6299212598425197,
      "name": "C6"
    },
    {
      "midi": 73,
      "frequency": 554.37,
      "time": 158.27574600000003,
      "duration": 2.0668088291666606,
      "velocity": 0.6299212598425197,
      "name": "C#5"
    },
    {
      "midi": 46,
      "frequency": 116.54,
      "time": 158.27574600000003,
      "duration": 0.5150858291666509,
      "velocity": 0.6299212598425197,
      "name": "A#2"
    },
    {
      "midi": 56,
      "frequency": 207.65,
      "time": 158.27574600000003,
      "duration": 0.5150858291666509,
      "velocity": 0.6299212598425197,
      "name": "G#3"
    },
    {
      "midi": 85,
      "frequency": 1108.73,
      "time": 158.792987,
      "duration": 1.0323268291666636,
      "velocity": 0.6299212598425197,
      "name": "C#6"
    },
    {
      "midi": 53,
      "frequency": 174.61,
      "time": 158.792987,
      "duration": 0.5150858291666793,
      "velocity": 0.6299212598425197,
      "name": "F3"
    },
    {
      "midi": 56,
      "frequency": 207.65,
      "time": 159.31022800000002,
      "duration": 0.5150858291666509,
      "velocity": 0.6299212598425197,
      "name": "G#3"
    },
    {
      "midi": 77,
      "frequency": 698.46,
      "time": 159.827469,
      "duration": 0.4892237791666787,
      "velocity": 0.6299212598425197,
      "name": "F5"
    },
    {
      "midi": 46,
      "frequency": 116.54,
      "time": 159.827469,
      "duration": 0.4892237791666787,
      "velocity": 0.6299212598425197,
      "name": "A#2"
    },
    {
      "midi": 80,
      "frequency": 830.61,
      "time": 160.34471000000002,
      "duration": 1.0323268291666636,
      "velocity": 0.6299212598425197,
      "name": "G#5"
    },
    {
      "midi": 73,
      "frequency": 554.37,
      "time": 160.34471000000002,
      "duration": 2.0668088291666606,
      "velocity": 0.6299212598425197,
      "name": "C#5"
    },
    {
      "midi": 39,
      "frequency": 77.78,
      "time": 160.34471000000002,
      "duration": 0.5150858291666793,
      "velocity": 0.6299212598425197,
      "name": "D#2"
    },
    {
      "midi": 46,
      "frequency": 116.54,
      "time": 160.86195100000003,
      "duration": 0.5150858291666509,
      "velocity": 0.6299212598425197,
      "name": "A#2"
    },
    {
      "midi": 79,
      "frequency": 783.99,
      "time": 161.37919200000002,
      "duration": 0.9806027291666624,
      "velocity": 0.6299212598425197,
      "name": "G5"
    },
    {
      "midi": 55,
      "frequency": 196,
      "time": 161.37919200000002,
      "duration": 0.5150858291666793,
      "velocity": 0.6299212598425197,
      "name": "G3"
    },
    {
      "midi": 51,
      "frequency": 155.56,
      "time": 161.89643300000003,
      "duration": 0.4892237791666503,
      "velocity": 0.6299212598425197,
      "name": "D#3"
    },
    {
      "midi": 73,
      "frequency": 554.37,
      "time": 162.41367400000001,
      "duration": 1.9633606291666865,
      "velocity": 0.6299212598425197,
      "name": "C#5"
    },
    {
      "midi": 80,
      "frequency": 830.61,
      "time": 162.41367400000001,
      "duration": 1.9633606291666865,
      "velocity": 0.6299212598425197,
      "name": "G#5"
    },
    {
      "midi": 58,
      "frequency": 233.08,
      "time": 162.41367400000001,
      "duration": 1.0323268291666636,
      "velocity": 0.6299212598425197,
      "name": "A#3"
    },
    {
      "midi": 44,
      "frequency": 103.83,
      "time": 162.41367400000001,
      "duration": 0.5150858291666793,
      "velocity": 0.6299212598425197,
      "name": "G#2"
    },
    {
      "midi": 51,
      "frequency": 155.56,
      "time": 162.93091500000003,
      "duration": 3.6185318291666704,
      "velocity": 0.6299212598425197,
      "name": "D#3"
    },
    {
      "midi": 58,
      "frequency": 233.08,
      "time": 163.448156,
      "duration": 0.5150858291666793,
      "velocity": 0.6299212598425197,
      "name": "A#3"
    },
    {
      "midi": 61,
      "frequency": 277.18,
      "time": 163.96539700000002,
      "duration": 0.5150858291666509,
      "velocity": 0.6299212598425197,
      "name": "C#4"
    },
    {
      "midi": 60,
      "frequency": 261.63,
      "time": 164.482638,
      "duration": 2.066808829166689,
      "velocity": 0.6299212598425197,
      "name": "C4"
    },
    {
      "midi": 68,
      "frequency": 415.3,
      "time": 164.99987900000002,
      "duration": 0.5150858291666793,
      "velocity": 0.6299212598425197,
      "name": "G#4"
    },
    {
      "midi": 72,
      "frequency": 523.25,
      "time": 165.51712000000003,
      "duration": 0.5150858291666509,
      "velocity": 0.6299212598425197,
      "name": "C5"
    },
    {
      "midi": 75,
      "frequency": 622.25,
      "time": 166.03436100000002,
      "duration": 0.5150858291666793,
      "velocity": 0.6299212598425197,
      "name": "D#5"
    },
    {
      "midi": 68,
      "frequency": 415.3,
      "time": 166.55160200000003,
      "duration": 1.0323268291666636,
      "velocity": 0.6299212598425197,
      "name": "G#4"
    },
    {
      "midi": 79,
      "frequency": 783.99,
      "time": 166.55160200000003,
      "duration": 1.0323268291666636,
      "velocity": 0.6299212598425197,
      "name": "G5"
    },
    {
      "midi": 49,
      "frequency": 138.59,
      "time": 166.55160200000003,
      "duration": 0.5150858291666509,
      "velocity": 0.6299212598425197,
      "name": "C#3"
    },
    {
      "midi": 56,
      "frequency": 207.65,
      "time": 167.06884300000002,
      "duration": 0.5150858291666793,
      "velocity": 0.6299212598425197,
      "name": "G#3"
    },
    {
      "midi": 77,
      "frequency": 698.46,
      "time": 167.58608400000003,
      "duration": 0.9806027291666624,
      "velocity": 0.6299212598425197,
      "name": "F5"
    },
    {
      "midi": 63,
      "frequency": 311.13,
      "time": 167.58608400000003,
      "duration": 0.5150858291666509,
      "velocity": 0.6299212598425197,
      "name": "D#4"
    },
    {
      "midi": 56,
      "frequency": 207.65,
      "time": 168.103325,
      "duration": 0.5150858291666793,
      "velocity": 0.6299212598425197,
      "name": "G#3"
    },
    {
      "midi": 65,
      "frequency": 349.23,
      "time": 168.62056600000003,
      "duration": 0.5150858291666509,
      "velocity": 0.6299212598425197,
      "name": "F4"
    },
    {
      "midi": 61,
      "frequency": 277.18,
      "time": 168.62056600000003,
      "duration": 0.5150858291666509,
      "velocity": 0.6299212598425197,
      "name": "C#4"
    },
    {
      "midi": 67,
      "frequency": 392,
      "time": 169.137807,
      "duration": 0.5150858291666793,
      "velocity": 0.6299212598425197,
      "name": "G4"
    },
    {
      "midi": 56,
      "frequency": 207.65,
      "time": 169.137807,
      "duration": 0.5150858291666793,
      "velocity": 0.6299212598425197,
      "name": "G#3"
    },
    {
      "midi": 68,
      "frequency": 415.3,
      "time": 169.65504800000002,
      "duration": 0.5150858291666793,
      "velocity": 0.6299212598425197,
      "name": "G#4"
    },
    {
      "midi": 61,
      "frequency": 277.18,
      "time": 169.65504800000002,
      "duration": 0.5150858291666793,
      "velocity": 0.6299212598425197,
      "name": "C#4"
    },
    {
      "midi": 77,
      "frequency": 698.46,
      "time": 170.172289,
      "duration": 0.5150858291666793,
      "velocity": 0.6299212598425197,
      "name": "F5"
    },
    {
      "midi": 49,
      "frequency": 138.59,
      "time": 170.172289,
      "duration": 0.4892237791666787,
      "velocity": 0.6299212598425197,
      "name": "C#3"
    },
    {
      "midi": 77,
      "frequency": 698.46,
      "time": 170.68953000000002,
      "duration": 0.5150858291666793,
      "velocity": 0.6299212598425197,
      "name": "F5"
    },
    {
      "midi": 70,
      "frequency": 466.16,
      "time": 170.68953000000002,
      "duration": 1.5495678291666763,
      "velocity": 0.6299212598425197,
      "name": "A#4"
    },
    {
      "midi": 48,
      "frequency": 130.81,
      "time": 170.68953000000002,
      "duration": 0.5150858291666793,
      "velocity": 0.6299212598425197,
      "name": "C3"
    },
    {
      "midi": 79,
      "frequency": 783.99,
      "time": 171.20677100000003,
      "duration": 0.5150858291666509,
      "velocity": 0.6299212598425197,
      "name": "G5"
    },
    {
      "midi": 56,
      "frequency": 207.65,
      "time": 171.20677100000003,
      "duration": 0.5150858291666509,
      "velocity": 0.6299212598425197,
      "name": "G#3"
    },
    {
      "midi": 75,
      "frequency": 622.25,
      "time": 171.72401200000002,
      "duration": 1.0323268291666636,
      "velocity": 0.6299212598425197,
      "name": "D#5"
    },
    {
      "midi": 60,
      "frequency": 261.63,
      "time": 171.72401200000002,
      "duration": 0.5150858291666793,
      "velocity": 0.6299212598425197,
      "name": "C4"
    },
    {
      "midi": 63,
      "frequency": 311.13,
      "time": 172.24125300000003,
      "duration": 0.5150858291666509,
      "velocity": 0.6299212598425197,
      "name": "D#4"
    },
    {
      "midi": 56,
      "frequency": 207.65,
      "time": 172.24125300000003,
      "duration": 0.5150858291666509,
      "velocity": 0.6299212598425197,
      "name": "G#3"
    },
    {
      "midi": 68,
      "frequency": 415.3,
      "time": 172.758494,
      "duration": 1.034481999999997,
      "velocity": 0.6299212598425197,
      "name": "G#4"
    },
    {
      "midi": 60,
      "frequency": 261.63,
      "time": 172.758494,
      "duration": 0.5150858291666793,
      "velocity": 0.6299212598425197,
      "name": "C4"
    },
    {
      "midi": 67,
      "frequency": 392,
      "time": 173.27573500000003,
      "duration": 0.5150858291666509,
      "velocity": 0.6299212598425197,
      "name": "G4"
    },
    {
      "midi": 56,
      "frequency": 207.65,
      "time": 173.27573500000003,
      "duration": 0.5150858291666509,
      "velocity": 0.6299212598425197,
      "name": "G#3"
    },
    {
      "midi": 68,
      "frequency": 415.3,
      "time": 173.792976,
      "duration": 0.9288786291666895,
      "velocity": 0.6299212598425197,
      "name": "G#4"
    },
    {
      "midi": 60,
      "frequency": 261.63,
      "time": 173.792976,
      "duration": 0.5150858291666793,
      "velocity": 0.6299212598425197,
      "name": "C4"
    },
    {
      "midi": 75,
      "frequency": 622.25,
      "time": 174.31021700000002,
      "duration": 0.5150858291666793,
      "velocity": 0.6299212598425197,
      "name": "D#5"
    },
    {
      "midi": 48,
      "frequency": 130.81,
      "time": 174.31021700000002,
      "duration": 0.4892237791666503,
      "velocity": 0.6299212598425197,
      "name": "C3"
    },
    {
      "midi": 75,
      "frequency": 622.25,
      "time": 174.827458,
      "duration": 0.5150858291666793,
      "velocity": 0.6299212598425197,
      "name": "D#5"
    },
    {
      "midi": 65,
      "frequency": 349.23,
      "time": 174.827458,
      "duration": 2.066808829166689,
      "velocity": 0.6299212598425197,
      "name": "F4"
    },
    {
      "midi": 46,
      "frequency": 116.54,
      "time": 174.827458,
      "duration": 0.5150858291666793,
      "velocity": 0.6299212598425197,
      "name": "A#2"
    },
    {
      "midi": 56,
      "frequency": 207.65,
      "time": 174.827458,
      "duration": 0.5150858291666793,
      "velocity": 0.6299212598425197,
      "name": "G#3"
    },
    {
      "midi": 73,
      "frequency": 554.37,
      "time": 175.34469900000002,
      "duration": 0.5150858291666793,
      "velocity": 0.6299212598425197,
      "name": "C#5"
    },
    {
      "midi": 53,
      "frequency": 174.61,
      "time": 175.34469900000002,
      "duration": 0.5150858291666793,
      "velocity": 0.6299212598425197,
      "name": "F3"
    },
    {
      "midi": 73,
      "frequency": 554.37,
      "time": 175.86194000000003,
      "duration": 0.5150858291666509,
      "velocity": 0.6299212598425197,
      "name": "C#5"
    },
    {
      "midi": 56,
      "frequency": 207.65,
      "time": 175.86194000000003,
      "duration": 0.5150858291666509,
      "velocity": 0.6299212598425197,
      "name": "G#3"
    },
    {
      "midi": 72,
      "frequency": 523.25,
      "time": 176.37918100000002,
      "duration": 0.5150858291666793,
      "velocity": 0.6299212598425197,
      "name": "C5"
    },
    {
      "midi": 46,
      "frequency": 116.54,
      "time": 176.37918100000002,
      "duration": 0.4892237791666787,
      "velocity": 0.6299212598425197,
      "name": "A#2"
    },
    {
      "midi": 72,
      "frequency": 523.25,
      "time": 176.89642200000003,
      "duration": 0.5150858291666509,
      "velocity": 0.6299212598425197,
      "name": "C5"
    },
    {
      "midi": 61,
      "frequency": 277.18,
      "time": 176.89642200000003,
      "duration": 1.0323268291666636,
      "velocity": 0.6299212598425197,
      "name": "C#4"
    },
    {
      "midi": 65,
      "frequency": 349.23,
      "time": 176.89642200000003,
      "duration": 1.0323268291666636,
      "velocity": 0.6299212598425197,
      "name": "F4"
    },
    {
      "midi": 39,
      "frequency": 77.78,
      "time": 176.89642200000003,
      "duration": 0.5150858291666509,
      "velocity": 0.6299212598425197,
      "name": "D#2"
    },
    {
      "midi": 70,
      "frequency": 466.16,
      "time": 177.413663,
      "duration": 0.5150858291666793,
      "velocity": 0.6299212598425197,
      "name": "A#4"
    },
    {
      "midi": 46,
      "frequency": 116.54,
      "time": 177.413663,
      "duration": 0.5150858291666793,
      "velocity": 0.6299212598425197,
      "name": "A#2"
    },
    {
      "midi": 70,
      "frequency": 466.16,
      "time": 177.93090400000003,
      "duration": 0.5150858291666509,
      "velocity": 0.6299212598425197,
      "name": "A#4"
    },
    {
      "midi": 61,
      "frequency": 277.18,
      "time": 177.93090400000003,
      "duration": 1.0323268291666636,
      "velocity": 0.6299212598425197,
      "name": "C#4"
    },
    {
      "midi": 65,
      "frequency": 349.23,
      "time": 177.93090400000003,
      "duration": 1.0323268291666636,
      "velocity": 0.6299212598425197,
      "name": "F4"
    },
    {
      "midi": 56,
      "frequency": 207.65,
      "time": 177.93090400000003,
      "duration": 0.5150858291666509,
      "velocity": 0.6299212598425197,
      "name": "G#3"
    },
    {
      "midi": 68,
      "frequency": 415.3,
      "time": 178.448145,
      "duration": 0.5150858291666793,
      "velocity": 0.6299212598425197,
      "name": "G#4"
    },
    {
      "midi": 51,
      "frequency": 155.56,
      "time": 178.448145,
      "duration": 0.4892237791666787,
      "velocity": 0.6299212598425197,
      "name": "D#3"
    },
    {
      "midi": 70,
      "frequency": 466.16,
      "time": 178.96538600000002,
      "duration": 0.5150858291666793,
      "velocity": 0.6299212598425197,
      "name": "A#4"
    },
    {
      "midi": 58,
      "frequency": 233.08,
      "time": 178.96538600000002,
      "duration": 2.0668088291666606,
      "velocity": 0.6299212598425197,
      "name": "A#3"
    },
    {
      "midi": 63,
      "frequency": 311.13,
      "time": 178.96538600000002,
      "duration": 2.0668088291666606,
      "velocity": 0.6299212598425197,
      "name": "D#4"
    },
    {
      "midi": 44,
      "frequency": 103.83,
      "time": 178.96538600000002,
      "duration": 0.5150858291666793,
      "velocity": 0.6299212598425197,
      "name": "G#2"
    },
    {
      "midi": 72,
      "frequency": 523.25,
      "time": 179.482627,
      "duration": 0.5150858291666793,
      "velocity": 0.6299212598425197,
      "name": "C5"
    },
    {
      "midi": 51,
      "frequency": 155.56,
      "time": 179.482627,
      "duration": 0.5150858291666793,
      "velocity": 0.6299212598425197,
      "name": "D#3"
    },
    {
      "midi": 72,
      "frequency": 523.25,
      "time": 179.99986800000002,
      "duration": 0.9806027291666624,
      "velocity": 0.6299212598425197,
      "name": "C5"
    },
    {
      "midi": 60,
      "frequency": 261.63,
      "time": 179.99986800000002,
      "duration": 0.5150858291666793,
      "velocity": 0.6299212598425197,
      "name": "C4"
    },
    {
      "midi": 51,
      "frequency": 155.56,
      "time": 180.51710900000003,
      "duration": 0.5150858291666509,
      "velocity": 0.6299212598425197,
      "name": "D#3"
    },
    {
      "midi": 58,
      "frequency": 233.08,
      "time": 181.03435000000002,
      "duration": 0.5150858291666793,
      "velocity": 0.6299212598425197,
      "name": "A#3"
    },
    {
      "midi": 68,
      "frequency": 415.3,
      "time": 181.55159100000003,
      "duration": 0.5150858291666509,
      "velocity": 0.6299212598425197,
      "name": "G#4"
    },
    {
      "midi": 51,
      "frequency": 155.56,
      "time": 181.55159100000003,
      "duration": 0.5150858291666509,
      "velocity": 0.6299212598425197,
      "name": "D#3"
    },
    {
      "midi": 72,
      "frequency": 523.25,
      "time": 182.06883200000001,
      "duration": 0.5150858291666793,
      "velocity": 0.6299212598425197,
      "name": "C5"
    },
    {
      "midi": 56,
      "frequency": 207.65,
      "time": 182.06883200000001,
      "duration": 0.5150858291666793,
      "velocity": 0.6299212598425197,
      "name": "G#3"
    },
    {
      "midi": 75,
      "frequency": 622.25,
      "time": 182.58607300000003,
      "duration": 0.5150858291666509,
      "velocity": 0.6299212598425197,
      "name": "D#5"
    },
    {
      "midi": 44,
      "frequency": 103.83,
      "time": 182.58607300000003,
      "duration": 0.4892237791666503,
      "velocity": 0.6299212598425197,
      "name": "G#2"
    },
    {
      "midi": 77,
      "frequency": 698.46,
      "time": 183.103314,
      "duration": 3.101290829166686,
      "velocity": 0.6299212598425197,
      "name": "F5"
    },
    {
      "midi": 68,
      "frequency": 415.3,
      "time": 183.103314,
      "duration": 0.7737063291666857,
      "velocity": 0.6299212598425197,
      "name": "G#4"
    },
    {
      "midi": 50,
      "frequency": 146.83,
      "time": 183.103314,
      "duration": 0.256465329166673,
      "velocity": 0.6299212598425197,
      "name": "D3"
    },
    {
      "midi": 60,
      "frequency": 261.63,
      "time": 183.103314,
      "duration": 0.256465329166673,
      "velocity": 0.6299212598425197,
      "name": "C4"
    },
    {
      "midi": 56,
      "frequency": 207.65,
      "time": 183.36193450000002,
      "duration": 0.256465329166673,
      "velocity": 0.6299212598425197,
      "name": "G#3"
    },
    {
      "midi": 60,
      "frequency": 261.63,
      "time": 183.62055500000002,
      "duration": 0.4892237791666503,
      "velocity": 0.6299212598425197,
      "name": "C4"
    },
    {
      "midi": 65,
      "frequency": 349.23,
      "time": 183.87917550000003,
      "duration": 0.256465329166673,
      "velocity": 0.6299212598425197,
      "name": "F4"
    },
    {
      "midi": 65,
      "frequency": 349.23,
      "time": 184.137796,
      "duration": 0.34267216250003685,
      "velocity": 0.6299212598425197,
      "name": "F4"
    },
    {
      "midi": 56,
      "frequency": 207.65,
      "time": 184.137796,
      "duration": 0.5150858291666793,
      "velocity": 0.6299212598425197,
      "name": "G#3"
    },
    {
      "midi": 67,
      "frequency": 392,
      "time": 184.48262333333338,
      "duration": 0.34267216249998,
      "velocity": 0.6299212598425197,
      "name": "G4"
    },
    {
      "midi": 50,
      "frequency": 146.83,
      "time": 184.65503700000002,
      "duration": 0.4892237791666503,
      "velocity": 0.6299212598425197,
      "name": "D3"
    },
    {
      "midi": 68,
      "frequency": 415.3,
      "time": 184.8274506666667,
      "duration": 0.3426721625000084,
      "velocity": 0.6299212598425197,
      "name": "G#4"
    },
    {
      "midi": 59,
      "frequency": 246.94,
      "time": 185.17227800000003,
      "duration": 0.062499954166668203,
      "velocity": 0.6299212598425197,
      "name": "B3"
    },
    {
      "midi": 43,
      "frequency": 98,
      "time": 185.17227800000003,
      "duration": 0.25646532916664455,
      "velocity": 0.6299212598425197,
      "name": "G2"
    },
    {
      "midi": 63,
      "frequency": 311.13,
      "time": 185.23693312500004,
      "duration": 0.062499954166668203,
      "velocity": 0.6299212598425197,
      "name": "D#4"
    },
    {
      "midi": 68,
      "frequency": 415.3,
      "time": 185.30158825,
      "duration": 0.38362040833334277,
      "velocity": 0.6299212598425197,
      "name": "G#4"
    },
    {
      "midi": 50,
      "frequency": 146.83,
      "time": 185.4308985,
      "duration": 0.256465329166673,
      "velocity": 0.6299212598425197,
      "name": "D3"
    },
    {
      "midi": 67,
      "frequency": 392,
      "time": 185.68951900000002,
      "duration": 0.5150858291666793,
      "velocity": 0.6299212598425197,
      "name": "G4"
    },
    {
      "midi": 59,
      "frequency": 246.94,
      "time": 185.68951900000002,
      "duration": 0.256465329166673,
      "velocity": 0.6299212598425197,
      "name": "B3"
    },
    {
      "midi": 62,
      "frequency": 293.66,
      "time": 185.94813950000002,
      "duration": 0.256465329166673,
      "velocity": 0.6299212598425197,
      "name": "D4"
    },
    {
      "midi": 79,
      "frequency": 783.99,
      "time": 186.20676000000003,
      "duration": 0.7737063291666573,
      "velocity": 0.6299212598425197,
      "name": "G5"
    },
    {
      "midi": 71,
      "frequency": 493.88,
      "time": 186.20676000000003,
      "duration": 1.0323268291666636,
      "velocity": 0.6299212598425197,
      "name": "B4"
    },
    {
      "midi": 67,
      "frequency": 392,
      "time": 186.20676000000003,
      "duration": 0.256465329166673,
      "velocity": 0.6299212598425197,
      "name": "G4"
    },
    {
      "midi": 65,
      "frequency": 349.23,
      "time": 186.4653805,
      "duration": 0.256465329166673,
      "velocity": 0.6299212598425197,
      "name": "F4"
    },
    {
      "midi": 67,
      "frequency": 392,
      "time": 186.72400100000002,
      "duration": 0.4892237791666787,
      "velocity": 0.6299212598425197,
      "name": "G4"
    },
    {
      "midi": 77,
      "frequency": 698.46,
      "time": 186.98262150000002,
      "duration": 0.24353430416667265,
      "velocity": 0.6299212598425197,
      "name": "F5"
    },
    {
      "midi": 77,
      "frequency": 698.46,
      "time": 187.24124200000003,
      "duration": 1.0323268291666636,
      "velocity": 0.6299212598425197,
      "name": "F5"
    },
    {
      "midi": 74,
      "frequency": 587.33,
      "time": 187.24124200000003,
      "duration": 2.0668088291666606,
      "velocity": 0.6299212598425197,
      "name": "D5"
    },
    {
      "midi": 48,
      "frequency": 130.81,
      "time": 187.24124200000003,
      "duration": 0.256465329166673,
      "velocity": 0.6299212598425197,
      "name": "C3"
    },
    {
      "midi": 55,
      "frequency": 196,
      "time": 187.49986250000003,
      "duration": 0.25646532916664455,
      "velocity": 0.6299212598425197,
      "name": "G3"
    },
    {
      "midi": 67,
      "frequency": 392,
      "time": 187.758483,
      "duration": 0.256465329166673,
      "velocity": 0.6299212598425197,
      "name": "G4"
    },
    {
      "midi": 63,
      "frequency": 311.13,
      "time": 188.01710350000002,
      "duration": 0.5150858291666793,
      "velocity": 0.6299212598425197,
      "name": "D#4"
    },
    {
      "midi": 75,
      "frequency": 622.25,
      "time": 188.27572400000003,
      "duration": 0.4892237791666503,
      "velocity": 0.6299212598425197,
      "name": "D#5"
    },
    {
      "midi": 67,
      "frequency": 392,
      "time": 188.53434450000003,
      "duration": 0.7349132541666563,
      "velocity": 0.6299212598425197,
      "name": "G4"
    },
    {
      "midi": 72,
      "frequency": 523.25,
      "time": 188.792965,
      "duration": 0.256465329166673,
      "velocity": 0.6299212598425197,
      "name": "C5"
    },
    {
      "midi": 73,
      "frequency": 554.37,
      "time": 189.05158550000002,
      "duration": 0.256465329166673,
      "velocity": 0.6299212598425197,
      "name": "C#5"
    },
    {
      "midi": 75,
      "frequency": 622.25,
      "time": 189.31020600000002,
      "duration": 1.0323268291666636,
      "velocity": 0.6299212598425197,
      "name": "D#5"
    },
    {
      "midi": 70,
      "frequency": 466.16,
      "time": 189.31020600000002,
      "duration": 0.5150858291666793,
      "velocity": 0.6299212598425197,
      "name": "A#4"
    },
    {
      "midi": 53,
      "frequency": 174.61,
      "time": 189.31020600000002,
      "duration": 0.5150858291666793,
      "velocity": 0.6299212598425197,
      "name": "F3"
    },
    {
      "midi": 69,
      "frequency": 440,
      "time": 189.82744700000003,
      "duration": 0.5150858291666509,
      "velocity": 0.6299212598425197,
      "name": "A4"
    },
    {
      "midi": 60,
      "frequency": 261.63,
      "time": 189.82744700000003,
      "duration": 0.5150858291666509,
      "velocity": 0.6299212598425197,
      "name": "C4"
    },
    {
      "midi": 73,
      "frequency": 554.37,
      "time": 190.34468800000002,
      "duration": 0.7737063291666857,
      "velocity": 0.6299212598425197,
      "name": "C#5"
    },
    {
      "midi": 65,
      "frequency": 349.23,
      "time": 190.34468800000002,
      "duration": 0,
      "velocity": 0.6299212598425197,
      "name": "F4"
    },
    {
      "midi": 65,
      "frequency": 349.23,
      "time": 190.34468800000002,
      "duration": 1.0323268291666636,
      "velocity": 0.6299212598425197,
      "name": "F4"
    },
    {
      "midi": 72,
      "frequency": 523.25,
      "time": 191.1205495,
      "duration": 0.24353430416670108,
      "velocity": 0.6299212598425197,
      "name": "C5"
    },
    {
      "midi": 73,
      "frequency": 554.37,
      "time": 191.37917000000002,
      "duration": 1.0323268291666636,
      "velocity": 0.6299212598425197,
      "name": "C#5"
    },
    {
      "midi": 68,
      "frequency": 415.3,
      "time": 191.37917000000002,
      "duration": 4.135772829166683,
      "velocity": 0.6299212598425197,
      "name": "G#4"
    },
    {
      "midi": 46,
      "frequency": 116.54,
      "time": 191.37917000000002,
      "duration": 0.5150858291666793,
      "velocity": 0.6299212598425197,
      "name": "A#2"
    },
    {
      "midi": 56,
      "frequency": 207.65,
      "time": 191.37917000000002,
      "duration": 0.5150858291666793,
      "velocity": 0.6299212598425197,
      "name": "G#3"
    },
    {
      "midi": 53,
      "frequency": 174.61,
      "time": 191.89641100000003,
      "duration": 0.5150858291666509,
      "velocity": 0.6299212598425197,
      "name": "F3"
    },
    {
      "midi": 75,
      "frequency": 622.25,
      "time": 192.413652,
      "duration": 1.032326829166692,
      "velocity": 0.6299212598425197,
      "name": "D#5"
    },
    {
      "midi": 61,
      "frequency": 277.18,
      "time": 192.413652,
      "duration": 0.5150858291666793,
      "velocity": 0.6299212598425197,
      "name": "C#4"
    },
    {
      "midi": 53,
      "frequency": 174.61,
      "time": 192.93089300000003,
      "duration": 0.5150858291666793,
      "velocity": 0.6299212598425197,
      "name": "F3"
    },
    {
      "midi": 77,
      "frequency": 698.46,
      "time": 193.448134,
      "duration": 0.7737063291666857,
      "velocity": 0.6299212598425197,
      "name": "F5"
    },
    {
      "midi": 56,
      "frequency": 207.65,
      "time": 193.448134,
      "duration": 0.5150858291666793,
      "velocity": 0.6299212598425197,
      "name": "G#3"
    },
    {
      "midi": 53,
      "frequency": 174.61,
      "time": 193.96537500000002,
      "duration": 0.5150858291666793,
      "velocity": 0.6299212598425197,
      "name": "F3"
    },
    {
      "midi": 79,
      "frequency": 783.99,
      "time": 194.22399550000003,
      "duration": 0.7737063291666573,
      "velocity": 0.6299212598425197,
      "name": "G5"
    },
    {
      "midi": 58,
      "frequency": 233.08,
      "time": 194.48261600000004,
      "duration": 0.5150858291666509,
      "velocity": 0.6299212598425197,
      "name": "A#3"
    },
    {
      "midi": 80,
      "frequency": 830.61,
      "time": 194.99985700000002,
      "duration": 0.4892237791666787,
      "velocity": 0.6299212598425197,
      "name": "G#5"
    },
    {
      "midi": 46,
      "frequency": 116.54,
      "time": 194.99985700000002,
      "duration": 0.4892237791666787,
      "velocity": 0.6299212598425197,
      "name": "A#2"
    },
    {
      "midi": 84,
      "frequency": 1046.5,
      "time": 195.51709800000003,
      "duration": 2.0668088291666606,
      "velocity": 0.6299212598425197,
      "name": "C6"
    },
    {
      "midi": 73,
      "frequency": 554.37,
      "time": 195.51709800000003,
      "duration": 2.0668088291666606,
      "velocity": 0.6299212598425197,
      "name": "C#5"
    },
    {
      "midi": 77,
      "frequency": 698.46,
      "time": 195.51709800000003,
      "duration": 2.0668088291666606,
      "velocity": 0.6299212598425197,
      "name": "F5"
    },
    {
      "midi": 39,
      "frequency": 77.78,
      "time": 195.51709800000003,
      "duration": 0.5150858291666509,
      "velocity": 0.6299212598425197,
      "name": "D#2"
    },
    {
      "midi": 46,
      "frequency": 116.54,
      "time": 196.03433900000002,
      "duration": 0.5150858291666793,
      "velocity": 0.6299212598425197,
      "name": "A#2"
    },
    {
      "midi": 56,
      "frequency": 207.65,
      "time": 196.55158000000003,
      "duration": 0.5150858291666509,
      "velocity": 0.6299212598425197,
      "name": "G#3"
    },
    {
      "midi": 46,
      "frequency": 116.54,
      "time": 197.068821,
      "duration": 0.5150858291666793,
      "velocity": 0.6299212598425197,
      "name": "A#2"
    },
    {
      "midi": 82,
      "frequency": 932.33,
      "time": 197.58606200000003,
      "duration": 0.4892237791666503,
      "velocity": 0.6299212598425197,
      "name": "A#5"
    },
    {
      "midi": 55,
      "frequency": 196,
      "time": 197.58606200000003,
      "duration": 0.5150858291666793,
      "velocity": 0.6299212598425197,
      "name": "G3"
    },
    {
      "midi": 75,
      "frequency": 622.25,
      "time": 198.103303,
      "duration": 0.5150858291666793,
      "velocity": 0.6299212598425197,
      "name": "D#5"
    },
    {
      "midi": 51,
      "frequency": 155.56,
      "time": 198.103303,
      "duration": 0.5150858291666793,
      "velocity": 0.6299212598425197,
      "name": "D#3"
    },
    {
      "midi": 80,
      "frequency": 830.61,
      "time": 198.62054400000002,
      "duration": 0.5150858291666793,
      "velocity": 0.6299212598425197,
      "name": "G#5"
    },
    {
      "midi": 55,
      "frequency": 196,
      "time": 198.62054400000002,
      "duration": 0.5150858291666793,
      "velocity": 0.6299212598425197,
      "name": "G3"
    },
    {
      "midi": 82,
      "frequency": 932.33,
      "time": 199.13778500000004,
      "duration": 0.5150858291666509,
      "velocity": 0.6299212598425197,
      "name": "A#5"
    },
    {
      "midi": 51,
      "frequency": 155.56,
      "time": 199.13778500000004,
      "duration": 0.4892237791666503,
      "velocity": 0.6299212598425197,
      "name": "D#3"
    },
    {
      "midi": 82,
      "frequency": 932.33,
      "time": 199.65502600000002,
      "duration": 0.5150858291666793,
      "velocity": 0.6299212598425197,
      "name": "A#5"
    },
    {
      "midi": 75,
      "frequency": 622.25,
      "time": 199.65502600000002,
      "duration": 1.0323268291666636,
      "velocity": 0.6299212598425197,
      "name": "D#5"
    },
    {
      "midi": 44,
      "frequency": 103.83,
      "time": 199.65502600000002,
      "duration": 0.5150858291666793,
      "velocity": 0.6299212598425197,
      "name": "G#2"
    },
    {
      "midi": 84,
      "frequency": 1046.5,
      "time": 200.17226700000003,
      "duration": 0.5150858291666509,
      "velocity": 0.6299212598425197,
      "name": "C6"
    },
    {
      "midi": 51,
      "frequency": 155.56,
      "time": 200.17226700000003,
      "duration": 0.5150858291666509,
      "velocity": 0.6299212598425197,
      "name": "D#3"
    },
    {
      "midi": 84,
      "frequency": 1046.5,
      "time": 200.68950800000002,
      "duration": 1.9633606291666865,
      "velocity": 0.6299212598425197,
      "name": "C6"
    },
    {
      "midi": 75,
      "frequency": 622.25,
      "time": 200.68950800000002,
      "duration": 1.9633606291666865,
      "velocity": 0.6299212598425197,
      "name": "D#5"
    },
    {
      "midi": 60,
      "frequency": 261.63,
      "time": 200.68950800000002,
      "duration": 0.5150858291666793,
      "velocity": 0.6299212598425197,
      "name": "C4"
    },
    {
      "midi": 51,
      "frequency": 155.56,
      "time": 201.20674900000003,
      "duration": 0.5150858291666509,
      "velocity": 0.6299212598425197,
      "name": "D#3"
    },
    {
      "midi": 58,
      "frequency": 233.08,
      "time": 201.72399000000001,
      "duration": 0.5150858291666793,
      "velocity": 0.6299212598425197,
      "name": "A#3"
    },
    {
      "midi": 51,
      "frequency": 155.56,
      "time": 202.24123100000003,
      "duration": 0.5150858291666793,
      "velocity": 0.6299212598425197,
      "name": "D#3"
    },
    {
      "midi": 75,
      "frequency": 622.25,
      "time": 202.758472,
      "duration": 0.9806027291666624,
      "velocity": 0.6299212598425197,
      "name": "D#5"
    },
    {
      "midi": 56,
      "frequency": 207.65,
      "time": 202.758472,
      "duration": 0.5150858291666793,
      "velocity": 0.6299212598425197,
      "name": "G#3"
    },
    {
      "midi": 80,
      "frequency": 830.61,
      "time": 203.01709250000002,
      "duration": 0.256465329166673,
      "velocity": 0.6299212598425197,
      "name": "G#5"
    },
    {
      "midi": 82,
      "frequency": 932.33,
      "time": 203.27571300000002,
      "duration": 0.256465329166673,
      "velocity": 0.6299212598425197,
      "name": "A#5"
    },
    {
      "midi": 44,
      "frequency": 103.83,
      "time": 203.27571300000002,
      "duration": 0.4892237791666503,
      "velocity": 0.6299212598425197,
      "name": "G#2"
    },
    {
      "midi": 84,
      "frequency": 1046.5,
      "time": 203.53433350000003,
      "duration": 0.256465329166673,
      "velocity": 0.6299212598425197,
      "name": "C6"
    },
    {
      "midi": 82,
      "frequency": 932.33,
      "time": 203.79295400000004,
      "duration": 0.5150858291666509,
      "velocity": 0.6299212598425197,
      "name": "A#5"
    },
    {
      "midi": 75,
      "frequency": 622.25,
      "time": 203.79295400000004,
      "duration": 1.0323268291666636,
      "velocity": 0.6299212598425197,
      "name": "D#5"
    },
    {
      "midi": 48,
      "frequency": 130.81,
      "time": 203.79295400000004,
      "duration": 0.5150858291666509,
      "velocity": 0.6299212598425197,
      "name": "C3"
    },
    {
      "midi": 87,
      "frequency": 1244.51,
      "time": 204.31019500000002,
      "duration": 0.5150858291666793,
      "velocity": 0.6299212598425197,
      "name": "D#6"
    },
    {
      "midi": 55,
      "frequency": 196,
      "time": 204.31019500000002,
      "duration": 0.5150858291666793,
      "velocity": 0.6299212598425197,
      "name": "G3"
    },
    {
      "midi": 87,
      "frequency": 1244.51,
      "time": 204.82743600000003,
      "duration": 1.963360629166658,
      "velocity": 0.6299212598425197,
      "name": "D#6"
    },
    {
      "midi": 75,
      "frequency": 622.25,
      "time": 204.82743600000003,
      "duration": 0.9806027291666339,
      "velocity": 0.6299212598425197,
      "name": "D#5"
    },
    {
      "midi": 63,
      "frequency": 311.13,
      "time": 204.82743600000003,
      "duration": 0.5150858291666509,
      "velocity": 0.6299212598425197,
      "name": "D#4"
    },
    {
      "midi": 55,
      "frequency": 196,
      "time": 205.34467700000002,
      "duration": 0.5150858291666793,
      "velocity": 0.6299212598425197,
      "name": "G3"
    },
    {
      "midi": 75,
      "frequency": 622.25,
      "time": 205.86191800000003,
      "duration": 0.9806027291666624,
      "velocity": 0.6299212598425197,
      "name": "D#5"
    },
    {
      "midi": 67,
      "frequency": 392,
      "time": 205.86191800000003,
      "duration": 0.5150858291666509,
      "velocity": 0.6299212598425197,
      "name": "G4"
    },
    {
      "midi": 55,
      "frequency": 196,
      "time": 206.37915900000002,
      "duration": 0.5150858291666793,
      "velocity": 0.6299212598425197,
      "name": "G3"
    },
    {
      "midi": 79,
      "frequency": 783.99,
      "time": 206.89640000000003,
      "duration": 0.9806027291666624,
      "velocity": 0.6299212598425197,
      "name": "G5"
    },
    {
      "midi": 63,
      "frequency": 311.13,
      "time": 206.89640000000003,
      "duration": 0.5150858291666793,
      "velocity": 0.6299212598425197,
      "name": "D#4"
    },
    {
      "midi": 87,
      "frequency": 1244.51,
      "time": 207.15502050000003,
      "duration": 0.256465329166673,
      "velocity": 0.6299212598425197,
      "name": "D#6"
    },
    {
      "midi": 89,
      "frequency": 1396.91,
      "time": 207.413641,
      "duration": 0.256465329166673,
      "velocity": 0.6299212598425197,
      "name": "F6"
    },
    {
      "midi": 48,
      "frequency": 130.81,
      "time": 207.413641,
      "duration": 0.4892237791666787,
      "velocity": 0.6299212598425197,
      "name": "C3"
    },
    {
      "midi": 91,
      "frequency": 1567.98,
      "time": 207.67226150000002,
      "duration": 0.256465329166673,
      "velocity": 0.6299212598425197,
      "name": "G6"
    },
    {
      "midi": 91,
      "frequency": 1567.98,
      "time": 207.93088200000003,
      "duration": 0.5150858291666793,
      "velocity": 0.6299212598425197,
      "name": "G6"
    },
    {
      "midi": 79,
      "frequency": 783.99,
      "time": 207.93088200000003,
      "duration": 1.0323268291666636,
      "velocity": 0.6299212598425197,
      "name": "G5"
    },
    {
      "midi": 87,
      "frequency": 1244.51,
      "time": 207.93088200000003,
      "duration": 1.0323268291666636,
      "velocity": 0.6299212598425197,
      "name": "D#6"
    },
    {
      "midi": 41,
      "frequency": 87.31,
      "time": 207.93088200000003,
      "duration": 0.5150858291666793,
      "velocity": 0.6299212598425197,
      "name": "F2"
    },
    {
      "midi": 92,
      "frequency": 1661.22,
      "time": 208.44812300000004,
      "duration": 0.5150858291666509,
      "velocity": 0.6299212598425197,
      "name": "G#6"
    },
    {
      "midi": 48,
      "frequency": 130.81,
      "time": 208.44812300000004,
      "duration": 0.5150858291666509,
      "velocity": 0.6299212598425197,
      "name": "C3"
    },
    {
      "midi": 92,
      "frequency": 1661.22,
      "time": 208.96536400000002,
      "duration": 1.4719816791666744,
      "velocity": 0.6299212598425197,
      "name": "G#6"
    },
    {
      "midi": 80,
      "frequency": 830.61,
      "time": 208.96536400000002,
      "duration": 1.4719816791666744,
      "velocity": 0.6299212598425197,
      "name": "G#5"
    },
    {
      "midi": 55,
      "frequency": 196,
      "time": 208.96536400000002,
      "duration": 0.5150858291666793,
      "velocity": 0.6299212598425197,
      "name": "G3"
    },
    {
      "midi": 48,
      "frequency": 130.81,
      "time": 209.48260500000004,
      "duration": 0.5150858291666509,
      "velocity": 0.6299212598425197,
      "name": "C3"
    },
    {
      "midi": 56,
      "frequency": 207.65,
      "time": 209.99984600000002,
      "duration": 0.5150858291666793,
      "velocity": 0.6299212598425197,
      "name": "G#3"
    },
    {
      "midi": 94,
      "frequency": 1864.66,
      "time": 210.51708700000003,
      "duration": 0.5150858291666509,
      "velocity": 0.6299212598425197,
      "name": "A#6"
    },
    {
      "midi": 82,
      "frequency": 932.33,
      "time": 210.51708700000003,
      "duration": 0.5150858291666509,
      "velocity": 0.6299212598425197,
      "name": "A#5"
    },
    {
      "midi": 48,
      "frequency": 130.81,
      "time": 210.51708700000003,
      "duration": 0.5150858291666509,
      "velocity": 0.6299212598425197,
      "name": "C3"
    },
    {
      "midi": 96,
      "frequency": 2093,
      "time": 211.03432800000002,
      "duration": 0.3426721625000084,
      "velocity": 0.6299212598425197,
      "name": "C7"
    },
    {
      "midi": 84,
      "frequency": 1046.5,
      "time": 211.03432800000002,
      "duration": 0.3426721625000084,
      "velocity": 0.6299212598425197,
      "name": "C6"
    },
    {
      "midi": 53,
      "frequency": 174.61,
      "time": 211.03432800000002,
      "duration": 0.5150858291666793,
      "velocity": 0.6299212598425197,
      "name": "F3"
    },
    {
      "midi": 94,
      "frequency": 1864.66,
      "time": 211.37915533333336,
      "duration": 0.34267216249998,
      "velocity": 0.6299212598425197,
      "name": "A#6"
    },
    {
      "midi": 82,
      "frequency": 932.33,
      "time": 211.37915533333336,
      "duration": 0.34267216249998,
      "velocity": 0.6299212598425197,
      "name": "A#5"
    },
    {
      "midi": 48,
      "frequency": 130.81,
      "time": 211.55156900000003,
      "duration": 0.4892237791666503,
      "velocity": 0.6299212598425197,
      "name": "C3"
    },
    {
      "midi": 92,
      "frequency": 1661.22,
      "time": 211.72398266666667,
      "duration": 0.3426721625000084,
      "velocity": 0.6299212598425197,
      "name": "G#6"
    },
    {
      "midi": 80,
      "frequency": 830.61,
      "time": 211.72398266666667,
      "duration": 0.3426721625000084,
      "velocity": 0.6299212598425197,
      "name": "G#5"
    },
    {
      "midi": 79,
      "frequency": 783.99,
      "time": 212.06881,
      "duration": 1.9633606291666865,
      "velocity": 0.6299212598425197,
      "name": "G5"
    },
    {
      "midi": 91,
      "frequency": 1567.98,
      "time": 212.06881,
      "duration": 1.9633606291666865,
      "velocity": 0.6299212598425197,
      "name": "G6"
    },
    {
      "midi": 39,
      "frequency": 77.78,
      "time": 212.06881,
      "duration": 0.5150858291666793,
      "velocity": 0.6299212598425197,
      "name": "D#2"
    },
    {
      "midi": 48,
      "frequency": 130.81,
      "time": 212.58605100000003,
      "duration": 0.5150858291666793,
      "velocity": 0.6299212598425197,
      "name": "C3"
    },
    {
      "midi": 67,
      "frequency": 392,
      "time": 213.10329200000004,
      "duration": 1.0323268291666636,
      "velocity": 0.6299212598425197,
      "name": "G4"
    },
    {
      "midi": 55,
      "frequency": 196,
      "time": 213.10329200000004,
      "duration": 0.5150858291666509,
      "velocity": 0.6299212598425197,
      "name": "G3"
    },
    {
      "midi": 60,
      "frequency": 261.63,
      "time": 213.62053300000002,
      "duration": 0.5150858291666793,
      "velocity": 0.6299212598425197,
      "name": "C4"
    },
    {
      "midi": 72,
      "frequency": 523.25,
      "time": 214.13777400000004,
      "duration": 1.963360629166658,
      "velocity": 0.6299212598425197,
      "name": "C5"
    },
    {
      "midi": 63,
      "frequency": 311.13,
      "time": 214.13777400000004,
      "duration": 0.5150858291666509,
      "velocity": 0.6299212598425197,
      "name": "D#4"
    },
    {
      "midi": 80,
      "frequency": 830.61,
      "time": 214.65501500000002,
      "duration": 0.5150858291666793,
      "velocity": 0.6299212598425197,
      "name": "G#5"
    },
    {
      "midi": 92,
      "frequency": 1661.22,
      "time": 214.65501500000002,
      "duration": 0.5150858291666793,
      "velocity": 0.6299212598425197,
      "name": "G#6"
    },
    {
      "midi": 60,
      "frequency": 261.63,
      "time": 214.65501500000002,
      "duration": 0.5150858291666793,
      "velocity": 0.6299212598425197,
      "name": "C4"
    },
    {
      "midi": 79,
      "frequency": 783.99,
      "time": 215.17225600000003,
      "duration": 0.5150858291666509,
      "velocity": 0.6299212598425197,
      "name": "G5"
    },
    {
      "midi": 91,
      "frequency": 1567.98,
      "time": 215.17225600000003,
      "duration": 0.5150858291666509,
      "velocity": 0.6299212598425197,
      "name": "G6"
    },
    {
      "midi": 63,
      "frequency": 311.13,
      "time": 215.17225600000003,
      "duration": 0.5150858291666509,
      "velocity": 0.6299212598425197,
      "name": "D#4"
    },
    {
      "midi": 75,
      "frequency": 622.25,
      "time": 215.68949700000002,
      "duration": 0.5150858291666793,
      "velocity": 0.6299212598425197,
      "name": "D#5"
    },
    {
      "midi": 87,
      "frequency": 1244.51,
      "time": 215.68949700000002,
      "duration": 0.5150858291666793,
      "velocity": 0.6299212598425197,
      "name": "D#6"
    },
    {
      "midi": 51,
      "frequency": 155.56,
      "time": 215.68949700000002,
      "duration": 0.4892237791666787,
      "velocity": 0.6299212598425197,
      "name": "D#3"
    },
    {
      "midi": 75,
      "frequency": 622.25,
      "time": 216.20673800000003,
      "duration": 0.5150858291666509,
      "velocity": 0.6299212598425197,
      "name": "D#5"
    },
    {
      "midi": 87,
      "frequency": 1244.51,
      "time": 216.20673800000003,
      "duration": 0.5150858291666509,
      "velocity": 0.6299212598425197,
      "name": "D#6"
    },
    {
      "midi": 49,
      "frequency": 138.59,
      "time": 216.20673800000003,
      "duration": 0.5150858291666509,
      "velocity": 0.6299212598425197,
      "name": "C#3"
    },
    {
      "midi": 77,
      "frequency": 698.46,
      "time": 216.723979,
      "duration": 0.5150858291666793,
      "velocity": 0.6299212598425197,
      "name": "F5"
    },
    {
      "midi": 89,
      "frequency": 1396.91,
      "time": 216.723979,
      "duration": 0.5150858291666793,
      "velocity": 0.6299212598425197,
      "name": "F6"
    },
    {
      "midi": 56,
      "frequency": 207.65,
      "time": 216.723979,
      "duration": 0.5150858291666793,
      "velocity": 0.6299212598425197,
      "name": "G#3"
    },
    {
      "midi": 77,
      "frequency": 698.46,
      "time": 217.24122000000003,
      "duration": 1.9633606291666865,
      "velocity": 0.6299212598425197,
      "name": "F5"
    },
    {
      "midi": 89,
      "frequency": 1396.91,
      "time": 217.24122000000003,
      "duration": 1.9633606291666865,
      "velocity": 0.6299212598425197,
      "name": "F6"
    },
    {
      "midi": 63,
      "frequency": 311.13,
      "time": 217.24122000000003,
      "duration": 0.5150858291666793,
      "velocity": 0.6299212598425197,
      "name": "D#4"
    },
    {
      "midi": 56,
      "frequency": 207.65,
      "time": 217.75846100000004,
      "duration": 0.5150858291666509,
      "velocity": 0.6299212598425197,
      "name": "G#3"
    },
    {
      "midi": 65,
      "frequency": 349.23,
      "time": 218.27570200000002,
      "duration": 1.0323268291666636,
      "velocity": 0.6299212598425197,
      "name": "F4"
    },
    {
      "midi": 61,
      "frequency": 277.18,
      "time": 218.27570200000002,
      "duration": 0.5150858291666793,
      "velocity": 0.6299212598425197,
      "name": "C#4"
    },
    {
      "midi": 56,
      "frequency": 207.65,
      "time": 218.79294300000004,
      "duration": 0.5150858291666509,
      "velocity": 0.6299212598425197,
      "name": "G#3"
    },
    {
      "midi": 68,
      "frequency": 415.3,
      "time": 219.31018400000002,
      "duration": 1.0323268291666636,
      "velocity": 0.6299212598425197,
      "name": "G#4"
    },
    {
      "midi": 63,
      "frequency": 311.13,
      "time": 219.31018400000002,
      "duration": 0.5150858291666793,
      "velocity": 0.6299212598425197,
      "name": "D#4"
    },
    {
      "midi": 87,
      "frequency": 1244.51,
      "time": 219.82742500000003,
      "duration": 0.256465329166673,
      "velocity": 0.6299212598425197,
      "name": "D#6"
    },
    {
      "midi": 49,
      "frequency": 138.59,
      "time": 219.82742500000003,
      "duration": 0.4892237791666503,
      "velocity": 0.6299212598425197,
      "name": "C#3"
    },
    {
      "midi": 85,
      "frequency": 1108.73,
      "time": 220.08604550000004,
      "duration": 0.25646532916664455,
      "velocity": 0.6299212598425197,
      "name": "C#6"
    },
    {
      "midi": 85,
      "frequency": 1108.73,
      "time": 220.34466600000002,
      "duration": 0.5150858291666793,
      "velocity": 0.6299212598425197,
      "name": "C#6"
    },
    {
      "midi": 75,
      "frequency": 622.25,
      "time": 220.34466600000002,
      "duration": 1.0323268291666636,
      "velocity": 0.6299212598425197,
      "name": "D#5"
    },
    {
      "midi": 82,
      "frequency": 932.33,
      "time": 220.34466600000002,
      "duration": 1.0323268291666636,
      "velocity": 0.6299212598425197,
      "name": "A#5"
    },
    {
      "midi": 48,
      "frequency": 130.81,
      "time": 220.34466600000002,
      "duration": 0.5150858291666793,
      "velocity": 0.6299212598425197,
      "name": "C3"
    },
    {
      "midi": 87,
      "frequency": 1244.51,
      "time": 220.86190700000003,
      "duration": 0.5150858291666509,
      "velocity": 0.6299212598425197,
      "name": "D#6"
    },
    {
      "midi": 56,
      "frequency": 207.65,
      "time": 220.86190700000003,
      "duration": 0.5150858291666509,
      "velocity": 0.6299212598425197,
      "name": "G#3"
    },
    {
      "midi": 87,
      "frequency": 1244.51,
      "time": 221.37914800000001,
      "duration": 1.9633606291666865,
      "velocity": 0.6299212598425197,
      "name": "D#6"
    },
    {
      "midi": 75,
      "frequency": 622.25,
      "time": 221.37914800000001,
      "duration": 1.9633606291666865,
      "velocity": 0.6299212598425197,
      "name": "D#5"
    },
    {
      "midi": 60,
      "frequency": 261.63,
      "time": 221.37914800000001,
      "duration": 0.5150858291666793,
      "velocity": 0.6299212598425197,
      "name": "C4"
    },
    {
      "midi": 56,
      "frequency": 207.65,
      "time": 221.89638900000003,
      "duration": 0.5150858291666793,
      "velocity": 0.6299212598425197,
      "name": "G#3"
    },
    {
      "midi": 63,
      "frequency": 311.13,
      "time": 222.41363000000004,
      "duration": 0.5150858291666509,
      "velocity": 0.6299212598425197,
      "name": "D#4"
    },
    {
      "midi": 56,
      "frequency": 207.65,
      "time": 222.93087100000002,
      "duration": 0.5150858291666793,
      "velocity": 0.6299212598425197,
      "name": "G#3"
    },
    {
      "midi": 75,
      "frequency": 622.25,
      "time": 223.44811200000004,
      "duration": 0.9806027291666339,
      "velocity": 0.6299212598425197,
      "name": "D#5"
    },
    {
      "midi": 60,
      "frequency": 261.63,
      "time": 223.44811200000004,
      "duration": 0.5150858291666509,
      "velocity": 0.6299212598425197,
      "name": "C4"
    },
    {
      "midi": 80,
      "frequency": 830.61,
      "time": 223.96535300000002,
      "duration": 0.256465329166673,
      "velocity": 0.6299212598425197,
      "name": "G#5"
    },
    {
      "midi": 48,
      "frequency": 130.81,
      "time": 223.96535300000002,
      "duration": 0.4892237791666787,
      "velocity": 0.6299212598425197,
      "name": "C3"
    },
    {
      "midi": 82,
      "frequency": 932.33,
      "time": 224.22397350000003,
      "duration": 0.256465329166673,
      "velocity": 0.6299212598425197,
      "name": "A#5"
    },
    {
      "midi": 84,
      "frequency": 1046.5,
      "time": 224.48259400000003,
      "duration": 0.5150858291666509,
      "velocity": 0.6299212598425197,
      "name": "C6"
    },
    {
      "midi": 73,
      "frequency": 554.37,
      "time": 224.48259400000003,
      "duration": 2.0668088291666606,
      "velocity": 0.6299212598425197,
      "name": "C#5"
    },
    {
      "midi": 46,
      "frequency": 116.54,
      "time": 224.48259400000003,
      "duration": 0.5150858291666509,
      "velocity": 0.6299212598425197,
      "name": "A#2"
    },
    {
      "midi": 56,
      "frequency": 207.65,
      "time": 224.48259400000003,
      "duration": 0.5150858291666509,
      "velocity": 0.6299212598425197,
      "name": "G#3"
    },
    {
      "midi": 85,
      "frequency": 1108.73,
      "time": 224.99983500000002,
      "duration": 1.0323268291666636,
      "velocity": 0.6299212598425197,
      "name": "C#6"
    },
    {
      "midi": 53,
      "frequency": 174.61,
      "time": 224.99983500000002,
      "duration": 0.5150858291666793,
      "velocity": 0.6299212598425197,
      "name": "F3"
    },
    {
      "midi": 56,
      "frequency": 207.65,
      "time": 225.51707600000003,
      "duration": 0.5150858291666509,
      "velocity": 0.6299212598425197,
      "name": "G#3"
    },
    {
      "midi": 77,
      "frequency": 698.46,
      "time": 226.03431700000002,
      "duration": 0.4892237791666787,
      "velocity": 0.6299212598425197,
      "name": "F5"
    },
    {
      "midi": 46,
      "frequency": 116.54,
      "time": 226.03431700000002,
      "duration": 0.4892237791666787,
      "velocity": 0.6299212598425197,
      "name": "A#2"
    },
    {
      "midi": 80,
      "frequency": 830.61,
      "time": 226.55155800000003,
      "duration": 1.0323268291666636,
      "velocity": 0.6299212598425197,
      "name": "G#5"
    },
    {
      "midi": 73,
      "frequency": 554.37,
      "time": 226.55155800000003,
      "duration": 2.0668088291666606,
      "velocity": 0.6299212598425197,
      "name": "C#5"
    },
    {
      "midi": 39,
      "frequency": 77.78,
      "time": 226.55155800000003,
      "duration": 0.5150858291666793,
      "velocity": 0.6299212598425197,
      "name": "D#2"
    },
    {
      "midi": 46,
      "frequency": 116.54,
      "time": 227.06879900000004,
      "duration": 0.5150858291666509,
      "velocity": 0.6299212598425197,
      "name": "A#2"
    },
    {
      "midi": 79,
      "frequency": 783.99,
      "time": 227.58604000000003,
      "duration": 0.9806027291666624,
      "velocity": 0.6299212598425197,
      "name": "G5"
    },
    {
      "midi": 55,
      "frequency": 196,
      "time": 227.58604000000003,
      "duration": 0.5150858291666793,
      "velocity": 0.6299212598425197,
      "name": "G3"
    },
    {
      "midi": 39,
      "frequency": 77.78,
      "time": 228.10328100000004,
      "duration": 0.4892237791666503,
      "velocity": 0.6299212598425197,
      "name": "D#2"
    },
    {
      "midi": 74,
      "frequency": 587.33,
      "time": 228.62052200000002,
      "duration": 1.9633606291666865,
      "velocity": 0.6299212598425197,
      "name": "D5"
    },
    {
      "midi": 81,
      "frequency": 880,
      "time": 228.62052200000002,
      "duration": 1.9633606291666865,
      "velocity": 0.6299212598425197,
      "name": "A5"
    },
    {
      "midi": 40,
      "frequency": 82.41,
      "time": 228.62052200000002,
      "duration": 0.5150858291666793,
      "velocity": 0.6299212598425197,
      "name": "E2"
    },
    {
      "midi": 47,
      "frequency": 123.47,
      "time": 229.13776300000004,
      "duration": 0.5150858291666509,
      "velocity": 0.6299212598425197,
      "name": "B2"
    },
    {
      "midi": 57,
      "frequency": 220,
      "time": 229.65500400000002,
      "duration": 0.32543079583334134,
      "velocity": 0.6299212598425197,
      "name": "A3"
    },
    {
      "midi": 52,
      "frequency": 164.81,
      "time": 229.65500400000002,
      "duration": 0.5150858291666793,
      "velocity": 0.6299212598425197,
      "name": "E3"
    },
    {
      "midi": 62,
      "frequency": 293.66,
      "time": 229.99983133333336,
      "duration": 0.32543079583334134,
      "velocity": 0.6299212598425197,
      "name": "D4"
    },
    {
      "midi": 47,
      "frequency": 123.47,
      "time": 230.17224500000003,
      "duration": 0.4892237791666503,
      "velocity": 0.6299212598425197,
      "name": "B2"
    },
    {
      "midi": 66,
      "frequency": 369.99,
      "time": 230.34465866666667,
      "duration": 0.32543079583334134,
      "velocity": 0.6299212598425197,
      "name": "F#4"
    },
    {
      "midi": 66,
      "frequency": 369.99,
      "time": 230.68948600000002,
      "duration": 0.06034478333333482,
      "velocity": 0.6299212598425197,
      "name": "F#4"
    },
    {
      "midi": 40,
      "frequency": 82.41,
      "time": 230.68948600000002,
      "duration": 0.5150858291666793,
      "velocity": 0.6299212598425197,
      "name": "E2"
    },
    {
      "midi": 59,
      "frequency": 246.94,
      "time": 230.75198595416668,
      "duration": 1.9008606750000183,
      "velocity": 0.6299212598425197,
      "name": "B3"
    },
    {
      "midi": 68,
      "frequency": 415.3,
      "time": 230.75198595416668,
      "duration": 1.9008606750000183,
      "velocity": 0.6299212598425197,
      "name": "G#4"
    },
    {
      "midi": 76,
      "frequency": 659.26,
      "time": 231.20672700000003,
      "duration": 0.5150858291666793,
      "velocity": 0.6299212598425197,
      "name": "E5"
    },
    {
      "midi": 47,
      "frequency": 123.47,
      "time": 231.20672700000003,
      "duration": 0.5150858291666793,
      "velocity": 0.6299212598425197,
      "name": "B2"
    },
    {
      "midi": 81,
      "frequency": 880,
      "time": 231.723968,
      "duration": 0.5150858291666793,
      "velocity": 0.6299212598425197,
      "name": "A5"
    },
    {
      "midi": 56,
      "frequency": 207.65,
      "time": 231.723968,
      "duration": 0.5150858291666793,
      "velocity": 0.6299212598425197,
      "name": "G#3"
    },
    {
      "midi": 83,
      "frequency": 987.77,
      "time": 232.24120900000003,
      "duration": 0.5150858291666793,
      "velocity": 0.6299212598425197,
      "name": "B5"
    },
    {
      "midi": 47,
      "frequency": 123.47,
      "time": 232.24120900000003,
      "duration": 0.4892237791666503,
      "velocity": 0.6299212598425197,
      "name": "B2"
    },
    {
      "midi": 83,
      "frequency": 987.77,
      "time": 232.75845000000004,
      "duration": 0.5431817729166539,
      "velocity": 0.6299212598425197,
      "name": "B5"
    },
    {
      "midi": 76,
      "frequency": 659.26,
      "time": 232.75845000000004,
      "duration": 2.1795452729166698,
      "velocity": 0.6299212598425197,
      "name": "E5"
    },
    {
      "midi": 57,
      "frequency": 220,
      "time": 232.75845000000004,
      "duration": 0.5431817729166539,
      "velocity": 0.6299212598425197,
      "name": "A3"
    },
    {
      "midi": 85,
      "frequency": 1108.73,
      "time": 233.30390450000004,
      "duration": 0.5431817729166539,
      "velocity": 0.6299212598425197,
      "name": "C#6"
    },
    {
      "midi": 64,
      "frequency": 329.63,
      "time": 233.30390450000004,
      "duration": 0.5431817729166539,
      "velocity": 0.6299212598425197,
      "name": "E4"
    },
    {
      "midi": 85,
      "frequency": 1108.73,
      "time": 233.84935900000005,
      "duration": 2.0704543729166573,
      "velocity": 0.6299212598425197,
      "name": "C#6"
    },
    {
      "midi": 71,
      "frequency": 493.88,
      "time": 233.84935900000005,
      "duration": 0.5431817729166539,
      "velocity": 0.6299212598425197,
      "name": "B4"
    },
    {
      "midi": 64,
      "frequency": 329.63,
      "time": 234.39481350000003,
      "duration": 0.5431817729166823,
      "velocity": 0.6299212598425197,
      "name": "E4"
    },
    {
      "midi": 73,
      "frequency": 554.37,
      "time": 234.94026800000003,
      "duration": 1.0340908229166814,
      "velocity": 0.6299212598425197,
      "name": "C#5"
    },
    {
      "midi": 69,
      "frequency": 440,
      "time": 234.94026800000003,
      "duration": 0.5431817729166823,
      "velocity": 0.6299212598425197,
      "name": "A4"
    },
    {
      "midi": 64,
      "frequency": 329.63,
      "time": 235.48572250000004,
      "duration": 0.5431817729166823,
      "velocity": 0.6299212598425197,
      "name": "E4"
    },
    {
      "midi": 76,
      "frequency": 659.26,
      "time": 236.03117700000004,
      "duration": 1.034090822916653,
      "velocity": 0.6299212598425197,
      "name": "E5"
    },
    {
      "midi": 71,
      "frequency": 493.88,
      "time": 236.03117700000004,
      "duration": 1.034090822916653,
      "velocity": 0.6299212598425197,
      "name": "B4"
    },
    {
      "midi": 81,
      "frequency": 880,
      "time": 236.30390425000004,
      "duration": 0.2704545229166513,
      "velocity": 0.6299212598425197,
      "name": "A5"
    },
    {
      "midi": 83,
      "frequency": 987.77,
      "time": 236.57663150000005,
      "duration": 0.2704545229166513,
      "velocity": 0.6299212598425197,
      "name": "B5"
    },
    {
      "midi": 85,
      "frequency": 1108.73,
      "time": 236.84935875000005,
      "duration": 0.2704545229166513,
      "velocity": 0.6299212598425197,
      "name": "C#6"
    },
    {
      "midi": 83,
      "frequency": 987.77,
      "time": 237.12208600000005,
      "duration": 0.5431817729166539,
      "velocity": 0.6299212598425197,
      "name": "B5"
    },
    {
      "midi": 76,
      "frequency": 659.26,
      "time": 237.12208600000005,
      "duration": 1.0886362729166592,
      "velocity": 0.6299212598425197,
      "name": "E5"
    },
    {
      "midi": 61,
      "frequency": 277.18,
      "time": 237.12208600000005,
      "duration": 0.5431817729166539,
      "velocity": 0.6299212598425197,
      "name": "C#4"
    },
    {
      "midi": 88,
      "frequency": 1318.51,
      "time": 237.66754050000003,
      "duration": 0.5431817729166823,
      "velocity": 0.6299212598425197,
      "name": "E6"
    },
    {
      "midi": 68,
      "frequency": 415.3,
      "time": 237.66754050000003,
      "duration": 0.5431817729166823,
      "velocity": 0.6299212598425197,
      "name": "G#4"
    },
    {
      "midi": 88,
      "frequency": 1318.51,
      "time": 238.21299500000003,
      "duration": 2.0704543729166858,
      "velocity": 0.6299212598425197,
      "name": "E6"
    },
    {
      "midi": 80,
      "frequency": 830.61,
      "time": 238.21299500000003,
      "duration": 1.0340908229166814,
      "velocity": 0.6299212598425197,
      "name": "G#5"
    },
    {
      "midi": 73,
      "frequency": 554.37,
      "time": 238.21299500000003,
      "duration": 0.5431817729166823,
      "velocity": 0.6299212598425197,
      "name": "C#5"
    },
    {
      "midi": 68,
      "frequency": 415.3,
      "time": 238.75844950000004,
      "duration": 0.5431817729166539,
      "velocity": 0.6299212598425197,
      "name": "G#4"
    },
    {
      "midi": 76,
      "frequency": 659.26,
      "time": 239.30390400000005,
      "duration": 0,
      "velocity": 0.6299212598425197,
      "name": "E5"
    },
    {
      "midi": 76,
      "frequency": 659.26,
      "time": 239.30390400000005,
      "duration": 1.034090822916653,
      "velocity": 0.6299212598425197,
      "name": "E5"
    },
    {
      "midi": 68,
      "frequency": 415.3,
      "time": 239.84935850000005,
      "duration": 0.5431817729166539,
      "velocity": 0.6299212598425197,
      "name": "G#4"
    },
    {
      "midi": 80,
      "frequency": 830.61,
      "time": 240.39481300000003,
      "duration": 1.0340908229166814,
      "velocity": 0.6299212598425197,
      "name": "G#5"
    },
    {
      "midi": 73,
      "frequency": 554.37,
      "time": 240.39481300000003,
      "duration": 1.0340908229166814,
      "velocity": 0.6299212598425197,
      "name": "C#5"
    },
    {
      "midi": 88,
      "frequency": 1318.51,
      "time": 240.66754025000003,
      "duration": 0.2704545229166797,
      "velocity": 0.6299212598425197,
      "name": "E6"
    },
    {
      "midi": 90,
      "frequency": 1479.98,
      "time": 240.94026750000003,
      "duration": 0.2704545229166797,
      "velocity": 0.6299212598425197,
      "name": "F#6"
    },
    {
      "midi": 92,
      "frequency": 1661.22,
      "time": 241.21299475000004,
      "duration": 0.2704545229166797,
      "velocity": 0.6299212598425197,
      "name": "G#6"
    },
    {
      "midi": 92,
      "frequency": 1661.22,
      "time": 241.48572200000004,
      "duration": 0.5431817729166539,
      "velocity": 0.6299212598425197,
      "name": "G#6"
    },
    {
      "midi": 85,
      "frequency": 1108.73,
      "time": 241.48572200000004,
      "duration": 1.0886362729166592,
      "velocity": 0.6299212598425197,
      "name": "C#6"
    },
    {
      "midi": 66,
      "frequency": 369.99,
      "time": 241.48572200000004,
      "duration": 0.5431817729166539,
      "velocity": 0.6299212598425197,
      "name": "F#4"
    },
    {
      "midi": 93,
      "frequency": 1760,
      "time": 242.03117650000004,
      "duration": 0.5431817729166539,
      "velocity": 0.6299212598425197,
      "name": "A6"
    },
    {
      "midi": 73,
      "frequency": 554.37,
      "time": 242.03117650000004,
      "duration": 0.5431817729166539,
      "velocity": 0.6299212598425197,
      "name": "C#5"
    },
    {
      "midi": 93,
      "frequency": 1760,
      "time": 242.57663100000005,
      "duration": 1.5522725979166694,
      "velocity": 0.6299212598425197,
      "name": "A6"
    },
    {
      "midi": 85,
      "frequency": 1108.73,
      "time": 242.57663100000005,
      "duration": 2.0704543729166573,
      "velocity": 0.6299212598425197,
      "name": "C#6"
    },
    {
      "midi": 80,
      "frequency": 830.61,
      "time": 242.57663100000005,
      "duration": 0.5431817729166539,
      "velocity": 0.6299212598425197,
      "name": "G#5"
    },
    {
      "midi": 73,
      "frequency": 554.37,
      "time": 243.12208550000003,
      "duration": 0.5431817729166823,
      "velocity": 0.6299212598425197,
      "name": "C#5"
    },
    {
      "midi": 81,
      "frequency": 880,
      "time": 243.66754000000003,
      "duration": 0.5431817729166823,
      "velocity": 0.6299212598425197,
      "name": "A5"
    },
    {
      "midi": 95,
      "frequency": 1975.53,
      "time": 244.21299450000004,
      "duration": 0.5431817729166823,
      "velocity": 0.6299212598425197,
      "name": "B6"
    },
    {
      "midi": 73,
      "frequency": 554.37,
      "time": 244.21299450000004,
      "duration": 0.5431817729166823,
      "velocity": 0.6299212598425197,
      "name": "C#5"
    },
    {
      "midi": 95,
      "frequency": 1975.53,
      "time": 244.75844900000004,
      "duration": 0.061363631250003436,
      "velocity": 0.6299212598425197,
      "name": "B6"
    },
    {
      "midi": 85,
      "frequency": 1108.73,
      "time": 244.75844900000004,
      "duration": 1.0886362729166592,
      "velocity": 0.6299212598425197,
      "name": "C#6"
    },
    {
      "midi": 80,
      "frequency": 830.61,
      "time": 244.75844900000004,
      "duration": 0.5431817729166539,
      "velocity": 0.6299212598425197,
      "name": "G#5"
    },
    {
      "midi": 97,
      "frequency": 2217.46,
      "time": 244.82208535833337,
      "duration": 0.29545452083334567,
      "velocity": 0.6299212598425197,
      "name": "C#7"
    },
    {
      "midi": 95,
      "frequency": 1975.53,
      "time": 245.12208533333336,
      "duration": 0.3613636062500234,
      "velocity": 0.6299212598425197,
      "name": "B6"
    },
    {
      "midi": 73,
      "frequency": 554.37,
      "time": 245.30390350000005,
      "duration": 0.515909047916665,
      "velocity": 0.6299212598425197,
      "name": "C#5"
    },
    {
      "midi": 93,
      "frequency": 1760,
      "time": 245.4857216666667,
      "duration": 0.361363606249995,
      "velocity": 0.6299212598425197,
      "name": "A6"
    },
    {
      "midi": 92,
      "frequency": 1661.22,
      "time": 245.84935800000005,
      "duration": 2.0704543729166573,
      "velocity": 0.6299212598425197,
      "name": "G#6"
    },
    {
      "midi": 85,
      "frequency": 1108.73,
      "time": 245.84935800000005,
      "duration": 1.034090822916653,
      "velocity": 0.6299212598425197,
      "name": "C#6"
    },
    {
      "midi": 64,
      "frequency": 329.63,
      "time": 245.84935800000005,
      "duration": 0.5431817729166539,
      "velocity": 0.6299212598425197,
      "name": "E4"
    },
    {
      "midi": 73,
      "frequency": 554.37,
      "time": 246.39481250000003,
      "duration": 0.5431817729166823,
      "velocity": 0.6299212598425197,
      "name": "C#5"
    },
    {
      "midi": 80,
      "frequency": 830.61,
      "time": 246.94026700000003,
      "duration": 1.0340908229166814,
      "velocity": 0.6299212598425197,
      "name": "G#5"
    },
    {
      "midi": 76,
      "frequency": 659.26,
      "time": 246.94026700000003,
      "duration": 0.5431817729166823,
      "velocity": 0.6299212598425197,
      "name": "E5"
    },
    {
      "midi": 73,
      "frequency": 554.37,
      "time": 247.48572150000004,
      "duration": 0.5431817729166539,
      "velocity": 0.6299212598425197,
      "name": "C#5"
    },
    {
      "midi": 85,
      "frequency": 1108.73,
      "time": 248.03117600000004,
      "duration": 2.0704543729166573,
      "velocity": 0.6299212598425197,
      "name": "C#6"
    },
    {
      "midi": 76,
      "frequency": 659.26,
      "time": 248.03117600000004,
      "duration": 1.6363634999999874,
      "velocity": 0.6299212598425197,
      "name": "E5"
    },
    {
      "midi": 81,
      "frequency": 880,
      "time": 248.57663050000005,
      "duration": 0.5431817729166539,
      "velocity": 0.6299212598425197,
      "name": "A5"
    },
    {
      "midi": 80,
      "frequency": 830.61,
      "time": 249.12208500000003,
      "duration": 0.5431817729166823,
      "velocity": 0.6299212598425197,
      "name": "G#5"
    },
    {
      "midi": 76,
      "frequency": 659.26,
      "time": 249.66753950000003,
      "duration": 0.5431817729166823,
      "velocity": 0.6299212598425197,
      "name": "E5"
    },
    {
      "midi": 76,
      "frequency": 659.26,
      "time": 250.21299400000004,
      "duration": 0.5431817729166823,
      "velocity": 0.6299212598425197,
      "name": "E5"
    },
    {
      "midi": 69,
      "frequency": 440,
      "time": 250.21299400000004,
      "duration": 2.1795452729166698,
      "velocity": 0.6299212598425197,
      "name": "A4"
    },
    {
      "midi": 50,
      "frequency": 146.83,
      "time": 250.21299400000004,
      "duration": 0.5431817729166823,
      "velocity": 0.6299212598425197,
      "name": "D3"
    },
    {
      "midi": 78,
      "frequency": 739.99,
      "time": 250.75844850000004,
      "duration": 0.5431817729166539,
      "velocity": 0.6299212598425197,
      "name": "F#5"
    },
    {
      "midi": 57,
      "frequency": 220,
      "time": 250.75844850000004,
      "duration": 0.5431817729166539,
      "velocity": 0.6299212598425197,
      "name": "A3"
    },
    {
      "midi": 78,
      "frequency": 739.99,
      "time": 251.30390300000005,
      "duration": 2.0704543729166573,
      "velocity": 0.6299212598425197,
      "name": "F#5"
    },
    {
      "midi": 64,
      "frequency": 329.63,
      "time": 251.30390300000005,
      "duration": 0.5431817729166539,
      "velocity": 0.6299212598425197,
      "name": "E4"
    },
    {
      "midi": 57,
      "frequency": 220,
      "time": 251.84935750000005,
      "duration": 0.5431817729166539,
      "velocity": 0.6299212598425197,
      "name": "A3"
    },
    {
      "midi": 66,
      "frequency": 369.99,
      "time": 252.39481200000003,
      "duration": 0,
      "velocity": 0.6299212598425197,
      "name": "F#4"
    },
    {
      "midi": 66,
      "frequency": 369.99,
      "time": 252.39481200000003,
      "duration": 1.0340908229166814,
      "velocity": 0.6299212598425197,
      "name": "F#4"
    },
    {
      "midi": 57,
      "frequency": 220,
      "time": 252.94026650000004,
      "duration": 0.5431817729166823,
      "velocity": 0.6299212598425197,
      "name": "A3"
    },
    {
      "midi": 69,
      "frequency": 440,
      "time": 253.48572100000004,
      "duration": 1.0340908229166814,
      "velocity": 0.6299212598425197,
      "name": "A4"
    },
    {
      "midi": 64,
      "frequency": 329.63,
      "time": 253.48572100000004,
      "duration": 0.5431817729166539,
      "velocity": 0.6299212598425197,
      "name": "E4"
    },
    {
      "midi": 76,
      "frequency": 659.26,
      "time": 254.03117550000005,
      "duration": 0.2704545229166513,
      "velocity": 0.6299212598425197,
      "name": "E5"
    },
    {
      "midi": 50,
      "frequency": 146.83,
      "time": 254.03117550000005,
      "duration": 0.515909047916665,
      "velocity": 0.6299212598425197,
      "name": "D3"
    },
    {
      "midi": 74,
      "frequency": 587.33,
      "time": 254.30390275000005,
      "duration": 0.2704545229166513,
      "velocity": 0.6299212598425197,
      "name": "D5"
    },
    {
      "midi": 74,
      "frequency": 587.33,
      "time": 254.57663000000005,
      "duration": 0.5431817729166539,
      "velocity": 0.6299212598425197,
      "name": "D5"
    },
    {
      "midi": 71,
      "frequency": 493.88,
      "time": 254.57663000000005,
      "duration": 2.1795452729166698,
      "velocity": 0.6299212598425197,
      "name": "B4"
    },
    {
      "midi": 49,
      "frequency": 138.59,
      "time": 254.57663000000005,
      "duration": 0.5431817729166539,
      "velocity": 0.6299212598425197,
      "name": "C#3"
    },
    {
      "midi": 76,
      "frequency": 659.26,
      "time": 255.12208450000003,
      "duration": 0.5431817729166823,
      "velocity": 0.6299212598425197,
      "name": "E5"
    },
    {
      "midi": 57,
      "frequency": 220,
      "time": 255.12208450000003,
      "duration": 0.5431817729166823,
      "velocity": 0.6299212598425197,
      "name": "A3"
    },
    {
      "midi": 76,
      "frequency": 659.26,
      "time": 255.66753900000003,
      "duration": 2.0704543729166858,
      "velocity": 0.6299212598425197,
      "name": "E5"
    },
    {
      "midi": 64,
      "frequency": 329.63,
      "time": 255.66753900000003,
      "duration": 0.5431817729166823,
      "velocity": 0.6299212598425197,
      "name": "E4"
    },
    {
      "midi": 57,
      "frequency": 220,
      "time": 256.21299350000004,
      "duration": 0.5431817729166823,
      "velocity": 0.6299212598425197,
      "name": "A3"
    },
    {
      "midi": 69,
      "frequency": 440,
      "time": 256.75844800000004,
      "duration": 1.6363635000000158,
      "velocity": 0.6299212598425197,
      "name": "A4"
    },
    {
      "midi": 61,
      "frequency": 277.18,
      "time": 256.75844800000004,
      "duration": 0.5431817729166823,
      "velocity": 0.6299212598425197,
      "name": "C#4"
    },
    {
      "midi": 57,
      "frequency": 220,
      "time": 257.30390250000005,
      "duration": 0.5431817729166823,
      "velocity": 0.6299212598425197,
      "name": "A3"
    },
    {
      "midi": 64,
      "frequency": 329.63,
      "time": 257.84935700000005,
      "duration": 0.5431817729166823,
      "velocity": 0.6299212598425197,
      "name": "E4"
    },
    {
      "midi": 69,
      "frequency": 440,
      "time": 258.39481150000006,
      "duration": 0.4340908729166699,
      "velocity": 0.6299212598425197,
      "name": "A4"
    },
    {
      "midi": 49,
      "frequency": 138.59,
      "time": 258.39481150000006,
      "duration": 0.5159090479166366,
      "velocity": 0.6299212598425197,
      "name": "C#3"
    },
    {
      "midi": 71,
      "frequency": 493.88,
      "time": 258.66753875000006,
      "duration": 0.27045452291662286,
      "velocity": 0.6299212598425197,
      "name": "B4"
    },
    {
      "midi": 73,
      "frequency": 554.37,
      "time": 258.94026600000007,
      "duration": 0.5431817729166255,
      "velocity": 0.6299212598425197,
      "name": "C#5"
    },
    {
      "midi": 62,
      "frequency": 293.66,
      "time": 258.94026600000007,
      "duration": 2.1795452729166414,
      "velocity": 0.6299212598425197,
      "name": "D4"
    },
    {
      "midi": 47,
      "frequency": 123.47,
      "time": 258.94026600000007,
      "duration": 0.5431817729166255,
      "velocity": 0.6299212598425197,
      "name": "B2"
    },
    {
      "midi": 57,
      "frequency": 220,
      "time": 258.94026600000007,
      "duration": 0.5431817729166255,
      "velocity": 0.6299212598425197,
      "name": "A3"
    },
    {
      "midi": 74,
      "frequency": 587.33,
      "time": 259.48572050000007,
      "duration": 1.0886362729166308,
      "velocity": 0.6299212598425197,
      "name": "D5"
    },
    {
      "midi": 54,
      "frequency": 185,
      "time": 259.48572050000007,
      "duration": 0.5431817729166255,
      "velocity": 0.6299212598425197,
      "name": "F#3"
    },
    {
      "midi": 57,
      "frequency": 220,
      "time": 260.031175,
      "duration": 0.5431817729166823,
      "velocity": 0.6299212598425197,
      "name": "A3"
    },
    {
      "midi": 66,
      "frequency": 369.99,
      "time": 260.5766295,
      "duration": 0.5159090479166935,
      "velocity": 0.6299212598425197,
      "name": "F#4"
    },
    {
      "midi": 47,
      "frequency": 123.47,
      "time": 260.5766295,
      "duration": 0.5159090479166935,
      "velocity": 0.6299212598425197,
      "name": "B2"
    },
    {
      "midi": 69,
      "frequency": 440,
      "time": 261.12208400000003,
      "duration": 1.0886362729166876,
      "velocity": 0.6299212598425197,
      "name": "A4"
    },
    {
      "midi": 62,
      "frequency": 293.66,
      "time": 261.12208400000003,
      "duration": 2.179545272916698,
      "velocity": 0.6299212598425197,
      "name": "D4"
    },
    {
      "midi": 40,
      "frequency": 82.41,
      "time": 261.12208400000003,
      "duration": 0.5431817729166823,
      "velocity": 0.6299212598425197,
      "name": "E2"
    },
    {
      "midi": 47,
      "frequency": 123.47,
      "time": 261.66753850000003,
      "duration": 0.5431817729166823,
      "velocity": 0.6299212598425197,
      "name": "B2"
    },
    {
      "midi": 68,
      "frequency": 415.3,
      "time": 262.21299300000004,
      "duration": 1.034090822916653,
      "velocity": 0.6299212598425197,
      "name": "G#4"
    },
    {
      "midi": 56,
      "frequency": 207.65,
      "time": 262.21299300000004,
      "duration": 0.5431817729166823,
      "velocity": 0.6299212598425197,
      "name": "G#3"
    },
    {
      "midi": 52,
      "frequency": 164.81,
      "time": 262.75844750000005,
      "duration": 0.5159090479166366,
      "velocity": 0.6299212598425197,
      "name": "E3"
    },
    {
      "midi": 69,
      "frequency": 440,
      "time": 263.30390200000005,
      "duration": 3.270454272916652,
      "velocity": 0.6299212598425197,
      "name": "A4"
    },
    {
      "midi": 62,
      "frequency": 293.66,
      "time": 263.30390200000005,
      "duration": 1.0886362729166308,
      "velocity": 0.6299212598425197,
      "name": "D4"
    },
    {
      "midi": 45,
      "frequency": 110,
      "time": 263.30390200000005,
      "duration": 2.0704543729166858,
      "velocity": 0.6299212598425197,
      "name": "A2"
    },
    {
      "midi": 52,
      "frequency": 164.81,
      "time": 263.84935650000006,
      "duration": 1.5522725979166694,
      "velocity": 0.6299212598425197,
      "name": "E3"
    },
    {
      "midi": 59,
      "frequency": 246.94,
      "time": 264.39481100000006,
      "duration": 0.5431817729166255,
      "velocity": 0.6299212598425197,
      "name": "B3"
    },
    {
      "midi": 62,
      "frequency": 293.66,
      "time": 264.94026550000007,
      "duration": 0.5431817729166255,
      "velocity": 0.6299212598425197,
      "name": "D4"
    },
    {
      "midi": 61,
      "frequency": 277.18,
      "time": 265.48572,
      "duration": 2.2881309229166504,
      "velocity": 0.6299212598425197,
      "name": "C#4"
    },
    {
      "midi": 45,
      "frequency": 110,
      "time": 265.48572,
      "duration": 2.2881309229166504,
      "velocity": 0.6299212598425197,
      "name": "A2"
    },
    {
      "midi": 52,
      "frequency": 164.81,
      "time": 265.48572,
      "duration": 2.2881309229166504,
      "velocity": 0.6299212598425197,
      "name": "E3"
    },
    {
      "midi": 83,
      "frequency": 987.77,
      "time": 266.576629,
      "duration": 0.6638887229166812,
      "velocity": 0.6299212598425197,
      "name": "B5"
    },
    {
      "midi": 85,
      "frequency": 1108.73,
      "time": 267.24329550000004,
      "duration": 0.6638887229166244,
      "velocity": 0.6299212598425197,
      "name": "C#6"
    },
    {
      "midi": 85,
      "frequency": 1108.73,
      "time": 267.909962,
      "duration": 0.6638887229166812,
      "velocity": 0.6299212598425197,
      "name": "C#6"
    },
    {
      "midi": 74,
      "frequency": 587.33,
      "time": 267.909962,
      "duration": 2.6638882229166825,
      "velocity": 0.6299212598425197,
      "name": "D5"
    },
    {
      "midi": 59,
      "frequency": 246.94,
      "time": 267.909962,
      "duration": 0.6638887229166812,
      "velocity": 0.6299212598425197,
      "name": "B3"
    },
    {
      "midi": 69,
      "frequency": 440,
      "time": 267.909962,
      "duration": 0.6638887229166812,
      "velocity": 0.6299212598425197,
      "name": "A4"
    },
    {
      "midi": 86,
      "frequency": 1174.66,
      "time": 268.5766285,
      "duration": 1.3305552229166437,
      "velocity": 0.6299212598425197,
      "name": "D6"
    },
    {
      "midi": 66,
      "frequency": 369.99,
      "time": 268.5766285,
      "duration": 0.6638887229166812,
      "velocity": 0.6299212598425197,
      "name": "F#4"
    },
    {
      "midi": 69,
      "frequency": 440,
      "time": 269.24329500000005,
      "duration": 1.2638885729166418,
      "velocity": 0.6299212598425197,
      "name": "A4"
    },
    {
      "midi": 78,
      "frequency": 739.99,
      "time": 269.9099615,
      "duration": 0.6305553979166802,
      "velocity": 0.6299212598425197,
      "name": "F#5"
    },
    {
      "midi": 81,
      "frequency": 880,
      "time": 270.576628,
      "duration": 1.3305552229166437,
      "velocity": 0.6299212598425197,
      "name": "A5"
    },
    {
      "midi": 74,
      "frequency": 587.33,
      "time": 270.576628,
      "duration": 2.6638882229166825,
      "velocity": 0.6299212598425197,
      "name": "D5"
    },
    {
      "midi": 64,
      "frequency": 329.63,
      "time": 270.576628,
      "duration": 0.6638887229166812,
      "velocity": 0.6299212598425197,
      "name": "E4"
    },
    {
      "midi": 71,
      "frequency": 493.88,
      "time": 271.24329450000005,
      "duration": 1.9305550729166612,
      "velocity": 0.6299212598425197,
      "name": "B4"
    },
    {
      "midi": 80,
      "frequency": 830.61,
      "time": 271.909961,
      "duration": 1.2638885729166986,
      "velocity": 0.6299212598425197,
      "name": "G#5"
    },
    {
      "midi": 81,
      "frequency": 880,
      "time": 273.24329400000005,
      "duration": 2.5305549229166218,
      "velocity": 0.6299212598425197,
      "name": "A5"
    },
    {
      "midi": 74,
      "frequency": 587.33,
      "time": 273.24329400000005,
      "duration": 2.5305549229166218,
      "velocity": 0.6299212598425197,
      "name": "D5"
    },
    {
      "midi": 45,
      "frequency": 110,
      "time": 273.24329400000005,
      "duration": 0.6638887229166244,
      "velocity": 0.6299212598425197,
      "name": "A2"
    },
    {
      "midi": 52,
      "frequency": 164.81,
      "time": 273.9099605,
      "duration": 0.6638887229166812,
      "velocity": 0.6299212598425197,
      "name": "E3"
    },
    {
      "midi": 59,
      "frequency": 246.94,
      "time": 274.57662700000003,
      "duration": 0.6638887229166812,
      "velocity": 0.6299212598425197,
      "name": "B3"
    },
    {
      "midi": 64,
      "frequency": 329.63,
      "time": 275.24329350000005,
      "duration": 0.6305553979166234,
      "velocity": 0.6299212598425197,
      "name": "E4"
    },
    {
      "midi": 45,
      "frequency": 110,
      "time": 275.90996,
      "duration": 0,
      "velocity": 0.6299212598425197,
      "name": "A2"
    },
    {
      "midi": 45,
      "frequency": 110,
      "time": 275.90996,
      "duration": 0.21851854583331942,
      "velocity": 0.6299212598425197,
      "name": "A2"
    },
    {
      "midi": 69,
      "frequency": 440,
      "time": 275.97292297083334,
      "duration": 0.6000000750000254,
      "velocity": 0.6299212598425197,
      "name": "A4"
    },
    {
      "midi": 52,
      "frequency": 164.81,
      "time": 276.13218225,
      "duration": 0.22037039791666757,
      "velocity": 0.6299212598425197,
      "name": "E3"
    },
    {
      "midi": 61,
      "frequency": 277.18,
      "time": 276.3544045,
      "duration": 0.8425926979167002,
      "velocity": 0.6299212598425197,
      "name": "C#4"
    },
    {
      "midi": 69,
      "frequency": 440,
      "time": 276.57662675,
      "duration": 0.22037039791666757,
      "velocity": 0.6299212598425197,
      "name": "A4"
    },
    {
      "midi": 81,
      "frequency": 880,
      "time": 276.798849,
      "duration": 0.20925928541663552,
      "velocity": 0.6299212598425197,
      "name": "A5"
    },
    {
      "midi": 81,
      "frequency": 880,
      "time": 277.02107125000003,
      "duration": 0.22037039791666757,
      "velocity": 0.6299212598425197,
      "name": "A5"
    },
    {
      "midi": 93,
      "frequency": 1760,
      "time": 277.2432935,
      "duration": 2.5314817979166833,
      "velocity": 0.6299212598425197,
      "name": "A6"
    },
    {
      "midi": 33,
      "frequency": 55,
      "time": 277.2432935,
      "duration": 2.5314817979166833,
      "velocity": 0.6299212598425197,
      "name": "A1"
    },
    {
      "midi": 45,
      "frequency": 110,
      "time": 277.2432935,
      "duration": 2.5314817979166833,
      "velocity": 0.6299212598425197,
      "name": "A2"
    }
  ],
  "backgroundFrequencies": [
    207.65,
    233.08,
    155.56,
    233.08,
    233.08,
    103.83,
    155.56,
    155.56,
    233.08,
    155.56,
    207.65,
    103.83,
    130.81,
    196,
    196,
    196,
    130.81,
    87.31,
    130.81,
    196,
    130.81,
    207.65,
    130.81,
    174.61,
    130.81,
    77.78,
    130.81,
    196,
    138.59,
    207.65,
    207.65,
    207.65,
    138.59,
    130.81,
    207.65,
    207.65,
    207.65,
    116.54,
    207.65,
    174.61,
    207.65,
    116.54,
    77.78,
    116.54,
    196,
    155.56,
    233.08,
    103.83,
    155.56,
    233.08,
    138.59,
    207.65,
    207.65,
    207.65,
    138.59,
    130.81,
    207.65,
    207.65,
    130.81,
    116.54,
    207.65,
    174.61,
    207.65,
    116.54,
    77.78,
    116.54,
    207.65,
    155.56,
    233.08,
    103.83,
    155.56,
    155.56,
    233.08,
    155.56,
    207.65,
    103.83,
    146.83,
    207.65,
    146.83,
    246.94,
    98,
    146.83,
    246.94,
    146.83,
    130.81,
    196,
    174.61,
    116.54,
    207.65,
    174.61,
    174.61,
    207.65,
    174.61,
    233.08,
    116.54,
    77.78,
    116.54,
    207.65,
    116.54,
    196,
    155.56,
    196,
    103.83,
    155.56,
    155.56,
    233.08,
    155.56,
    207.65,
    103.83,
    130.81,
    196,
    196,
    196,
    130.81,
    87.31,
    130.81,
    196,
    130.81,
    207.65,
    130.81,
    174.61,
    130.81,
    77.78,
    130.81,
    196,
    155.56,
    138.59,
    207.65,
    207.65,
    207.65,
    138.59,
    130.81,
    207.65,
    207.65,
    207.65,
    130.81,
    116.54,
    207.65,
    174.61,
    207.65,
    174.61,
    207.65,
    174.61,
    207.65,
    116.54,
    77.78,
    116.54,
    207.65,
    116.54,
    196,
    155.56,
    196,
    155.56,
    103.83,
    155.56,
    155.56,
    233.08,
    155.56,
    207.65,
    103.83,
    130.81,
    196,
    196,
    196,
    130.81,
    87.31,
    130.81,
    196,
    130.81,
    207.65,
    130.81,
    174.61,
    130.81,
    77.78,
    130.81,
    196,
    155.56,
    138.59,
    207.65,
    207.65,
    207.65,
    138.59,
    130.81,
    207.65,
    207.65,
    207.65,
    130.81,
    116.54,
    207.65,
    174.61,
    207.65,
    116.54,
    77.78,
    116.54,
    196,
    155.56,
    233.08,
    103.83,
    155.56,
    233.08,
    138.59,
    207.65,
    207.65,
    207.65,
    138.59,
    130.81,
    207.65,
    207.65,
    207.65,
    130.81,
    116.54,
    207.65,
    174.61,
    207.65,
    116.54,
    77.78,
    116.54,
    207.65,
    155.56,
    233.08,
    103.83,
    155.56,
    155.56,
    233.08,
    155.56,
    207.65,
    103.83,
    146.83,
    207.65,
    207.65,
    146.83,
    246.94,
    98,
    146.83,
    246.94,
    130.81,
    196,
    174.61,
    116.54,
    207.65,
    174.61,
    174.61,
    207.65,
    174.61,
    233.08,
    116.54,
    77.78,
    116.54,
    207.65,
    116.54,
    196,
    155.56,
    196,
    155.56,
    103.83,
    155.56,
    155.56,
    233.08,
    155.56,
    207.65,
    103.83,
    130.81,
    196,
    196,
    196,
    130.81,
    87.31,
    130.81,
    196,
    130.81,
    207.65,
    130.81,
    174.61,
    130.81,
    77.78,
    130.81,
    196,
    155.56,
    138.59,
    207.65,
    207.65,
    207.65,
    138.59,
    130.81,
    207.65,
    207.65,
    207.65,
    130.81,
    116.54,
    207.65,
    174.61,
    207.65,
    116.54,
    77.78,
    116.54,
    196,
    77.78,
    82.41,
    123.47,
    220,
    164.81,
    123.47,
    82.41,
    246.94,
    123.47,
    207.65,
    123.47,
    220,
    146.83,
    220,
    220,
    220,
    146.83,
    138.59,
    220,
    220,
    220,
    138.59,
    123.47,
    220,
    185,
    220,
    123.47,
    82.41,
    123.47,
    207.65,
    164.81,
    110,
    164.81,
    246.94,
    110,
    164.81,
    246.94,
    110,
    164.81,
    246.94,
    110,
    110,
    164.81,
    55,
    110
  ],
  "melodyFrequencies": [
    622.25,
    830.61,
    932.33,
    932.33,
    1046.5,
    311.13,
    1046.5,
    466.16,
    311.13,
    415.3,
    830.61,
    932.33,
    1046.5,
    932.33,
    622.25,
    261.63,
    1244.51,
    392,
    1244.51,
    523.25,
    392,
    622.25,
    1244.51,
    1396.91,
    1567.98,
    1567.98,
    830.61,
    1244.51,
    349.23,
    1661.22,
    523.25,
    1661.22,
    783.99,
    523.25,
    698.46,
    1864.66,
    523.25,
    1864.66,
    1046.5,
    783.99,
    2093,
    1864.66,
    1661.22,
    1567.98,
    1046.5,
    311.13,
    523.25,
    783.99,
    622.25,
    523.25,
    1046.5,
    622.25,
    1661.22,
    1567.98,
    1244.51,
    1244.51,
    830.61,
    277.18,
    1396.91,
    415.3,
    1396.91,
    830.61,
    622.25,
    415.3,
    698.46,
    554.37,
    415.3,
    830.61,
    622.25,
    1244.51,
    1108.73,
    1108.73,
    622.25,
    932.33,
    261.63,
    1244.51,
    415.3,
    1244.51,
    523.25,
    415.3,
    622.25,
    415.3,
    523.25,
    830.61,
    932.33,
    1046.5,
    554.37,
    1108.73,
    349.23,
    1108.73,
    466.16,
    349.23,
    554.37,
    415.3,
    698.46,
    349.23,
    1244.51,
    466.16,
    1108.73,
    1046.5,
    554.37,
    698.46,
    415.3,
    932.33,
    392,
    622.25,
    830.61,
    932.33,
    932.33,
    622.25,
    1046.5,
    1046.5,
    622.25,
    261.63,
    622.25,
    830.61,
    932.33,
    1046.5,
    932.33,
    622.25,
    1244.51,
    1244.51,
    622.25,
    311.13,
    622.25,
    392,
    783.99,
    311.13,
    1244.51,
    1396.91,
    1567.98,
    1567.98,
    783.99,
    1244.51,
    1661.22,
    1661.22,
    830.61,
    1864.66,
    932.33,
    2093,
    1046.5,
    1864.66,
    932.33,
    1661.22,
    830.61,
    783.99,
    1567.98,
    392,
    261.63,
    523.25,
    311.13,
    830.61,
    1661.22,
    261.63,
    783.99,
    1567.98,
    311.13,
    622.25,
    1244.51,
    622.25,
    1244.51,
    698.46,
    1396.91,
    698.46,
    1396.91,
    311.13,
    349.23,
    277.18,
    415.3,
    311.13,
    1244.51,
    1108.73,
    1108.73,
    622.25,
    932.33,
    1244.51,
    1244.51,
    622.25,
    261.63,
    311.13,
    622.25,
    261.63,
    830.61,
    932.33,
    1046.5,
    554.37,
    1108.73,
    698.46,
    830.61,
    554.37,
    783.99,
    554.37,
    830.61,
    277.18,
    261.63,
    415.3,
    523.25,
    622.25,
    415.3,
    698.46,
    349.23,
    311.13,
    415.3,
    277.18,
    392,
    415.3,
    311.13,
    698.46,
    622.25,
    466.16,
    311.13,
    415.3,
    261.63,
    392,
    415.3,
    261.63,
    392,
    415.3,
    261.63,
    622.25,
    622.25,
    349.23,
    554.37,
    554.37,
    523.25,
    523.25,
    277.18,
    349.23,
    466.16,
    466.16,
    277.18,
    349.23,
    415.3,
    466.16,
    311.13,
    523.25,
    523.25,
    261.63,
    415.3,
    523.25,
    622.25,
    698.46,
    415.3,
    523.25,
    261.63,
    349.23,
    261.63,
    415.3,
    392,
    783.99,
    783.99,
    493.88,
    698.46,
    622.25,
    392,
    392,
    311.13,
    523.25,
    554.37,
    622.25,
    466.16,
    440,
    261.63,
    554.37,
    349.23,
    349.23,
    523.25,
    554.37,
    415.3,
    622.25,
    277.18,
    698.46,
    783.99,
    830.61,
    1046.5,
    554.37,
    698.46,
    932.33,
    622.25,
    830.61,
    932.33,
    932.33,
    622.25,
    1046.5,
    1046.5,
    622.25,
    261.63,
    622.25,
    830.61,
    932.33,
    1046.5,
    932.33,
    622.25,
    1244.51,
    1244.51,
    622.25,
    311.13,
    622.25,
    392,
    783.99,
    311.13,
    1244.51,
    1396.91,
    1567.98,
    1567.98,
    783.99,
    1244.51,
    1661.22,
    1661.22,
    830.61,
    1864.66,
    932.33,
    2093,
    1046.5,
    1864.66,
    932.33,
    1661.22,
    830.61,
    783.99,
    1567.98,
    392,
    261.63,
    523.25,
    311.13,
    830.61,
    1661.22,
    261.63,
    783.99,
    1567.98,
    311.13,
    622.25,
    1244.51,
    622.25,
    1244.51,
    698.46,
    1396.91,
    698.46,
    1396.91,
    311.13,
    349.23,
    277.18,
    415.3,
    311.13,
    1244.51,
    1108.73,
    1108.73,
    622.25,
    932.33,
    1244.51,
    1244.51,
    622.25,
    261.63,
    311.13,
    622.25,
    261.63,
    830.61,
    932.33,
    1046.5,
    554.37,
    1108.73,
    1108.73,
    277.18,
    349.23,
    1244.51,
    1108.73,
    1046.5,
    554.37,
    698.46,
    932.33,
    622.25,
    830.61,
    932.33,
    932.33,
    622.25,
    1046.5,
    1046.5,
    622.25,
    261.63,
    622.25,
    830.61,
    932.33,
    1046.5,
    932.33,
    622.25,
    1244.51,
    1244.51,
    622.25,
    311.13,
    622.25,
    392,
    783.99,
    311.13,
    1244.51,
    1396.91,
    1567.98,
    1567.98,
    783.99,
    1244.51,
    1661.22,
    1661.22,
    830.61,
    1864.66,
    932.33,
    2093,
    1046.5,
    1864.66,
    932.33,
    1661.22,
    830.61,
    783.99,
    1567.98,
    392,
    261.63,
    523.25,
    311.13,
    830.61,
    1661.22,
    261.63,
    783.99,
    1567.98,
    311.13,
    622.25,
    1244.51,
    622.25,
    1244.51,
    698.46,
    1396.91,
    698.46,
    1396.91,
    311.13,
    349.23,
    277.18,
    415.3,
    311.13,
    1244.51,
    1108.73,
    1108.73,
    622.25,
    932.33,
    1244.51,
    1244.51,
    622.25,
    261.63,
    311.13,
    622.25,
    261.63,
    830.61,
    932.33,
    1046.5,
    554.37,
    1108.73,
    698.46,
    830.61,
    554.37,
    783.99,
    554.37,
    830.61,
    277.18,
    261.63,
    415.3,
    523.25,
    622.25,
    415.3,
    783.99,
    698.46,
    311.13,
    349.23,
    277.18,
    392,
    415.3,
    277.18,
    698.46,
    698.46,
    466.16,
    783.99,
    622.25,
    261.63,
    311.13,
    415.3,
    261.63,
    392,
    415.3,
    261.63,
    622.25,
    622.25,
    349.23,
    554.37,
    554.37,
    523.25,
    523.25,
    277.18,
    349.23,
    466.16,
    466.16,
    277.18,
    349.23,
    415.3,
    466.16,
    311.13,
    523.25,
    523.25,
    261.63,
    415.3,
    523.25,
    622.25,
    698.46,
    415.3,
    261.63,
    261.63,
    349.23,
    349.23,
    392,
    415.3,
    311.13,
    415.3,
    392,
    293.66,
    783.99,
    493.88,
    392,
    349.23,
    392,
    698.46,
    698.46,
    587.33,
    392,
    311.13,
    622.25,
    392,
    523.25,
    554.37,
    622.25,
    466.16,
    440,
    261.63,
    554.37,
    349.23,
    349.23,
    523.25,
    554.37,
    415.3,
    622.25,
    277.18,
    698.46,
    783.99,
    830.61,
    1046.5,
    554.37,
    698.46,
    932.33,
    622.25,
    830.61,
    932.33,
    932.33,
    622.25,
    1046.5,
    1046.5,
    622.25,
    261.63,
    622.25,
    830.61,
    932.33,
    1046.5,
    932.33,
    622.25,
    1244.51,
    1244.51,
    622.25,
    311.13,
    622.25,
    392,
    783.99,
    311.13,
    1244.51,
    1396.91,
    1567.98,
    1567.98,
    783.99,
    1244.51,
    1661.22,
    1661.22,
    830.61,
    1864.66,
    932.33,
    2093,
    1046.5,
    1864.66,
    932.33,
    1661.22,
    830.61,
    783.99,
    1567.98,
    392,
    261.63,
    523.25,
    311.13,
    830.61,
    1661.22,
    261.63,
    783.99,
    1567.98,
    311.13,
    622.25,
    1244.51,
    622.25,
    1244.51,
    698.46,
    1396.91,
    698.46,
    1396.91,
    311.13,
    349.23,
    277.18,
    415.3,
    311.13,
    1244.51,
    1108.73,
    1108.73,
    622.25,
    932.33,
    1244.51,
    1244.51,
    622.25,
    261.63,
    311.13,
    622.25,
    261.63,
    830.61,
    932.33,
    1046.5,
    554.37,
    1108.73,
    698.46,
    830.61,
    554.37,
    783.99,
    587.33,
    880,
    293.66,
    369.99,
    369.99,
    415.3,
    659.26,
    880,
    987.77,
    987.77,
    659.26,
    1108.73,
    329.63,
    1108.73,
    493.88,
    329.63,
    554.37,
    440,
    329.63,
    659.26,
    493.88,
    880,
    987.77,
    1108.73,
    987.77,
    659.26,
    277.18,
    1318.51,
    415.3,
    1318.51,
    830.61,
    554.37,
    415.3,
    659.26,
    659.26,
    415.3,
    830.61,
    554.37,
    1318.51,
    1479.98,
    1661.22,
    1661.22,
    1108.73,
    369.99,
    1760,
    554.37,
    1760,
    1108.73,
    830.61,
    554.37,
    880,
    1975.53,
    554.37,
    1975.53,
    1108.73,
    830.61,
    2217.46,
    1975.53,
    554.37,
    1760,
    1661.22,
    1108.73,
    329.63,
    554.37,
    830.61,
    659.26,
    554.37,
    1108.73,
    659.26,
    880,
    830.61,
    659.26,
    659.26,
    440,
    739.99,
    739.99,
    329.63,
    369.99,
    369.99,
    440,
    329.63,
    659.26,
    587.33,
    587.33,
    493.88,
    659.26,
    659.26,
    329.63,
    440,
    277.18,
    329.63,
    440,
    493.88,
    554.37,
    293.66,
    587.33,
    369.99,
    440,
    293.66,
    415.3,
    440,
    293.66,
    293.66,
    277.18,
    987.77,
    1108.73,
    1108.73,
    587.33,
    440,
    1174.66,
    369.99,
    440,
    739.99,
    880,
    587.33,
    329.63,
    493.88,
    830.61,
    880,
    587.33,
    329.63,
    440,
    277.18,
    440,
    880,
    880,
    1760
  ]
}